<?xml version="1.0" encoding="UTF-8" standalone="no"?>
<!DOCTYPE svg PUBLIC "-//W3C//DTD SVG 1.1//EN"
 "http://www.w3.org/Graphics/SVG/1.1/DTD/svg11.dtd">
<!-- Generated by graphviz version 2.30.1 (20150306.0020)
 -->
<!-- Title: %3 Pages: 1 -->
<svg width="274pt" height="215pt"
 viewBox="0.00 0.00 274.00 215.00" xmlns="http://www.w3.org/2000/svg" xmlns:xlink="http://www.w3.org/1999/xlink">
<g id="graph0" class="graph" transform="scale(1 1) rotate(0) translate(4 211)">
<title>%3</title>
<polygon fill="white" stroke="white" points="-4,5 -4,-211 271,-211 271,5 -4,5"/>
<!-- mode.2021 -->
<g id="node1" class="node"><title>mode.2021</title>
<g id="a_node1"><a xlink:href="mode.2021" xlink:title="mode\n2021">
<ellipse fill="#cccccc" stroke="#aaaaaa" stroke-width="5" cx="33" cy="-95" rx="33.4697" ry="33.4697"/>
<text text-anchor="middle" x="33" y="-98.8" font-family="Times,serif" font-size="14.00" fill="#888888">mode</text>
<text text-anchor="middle" x="33" y="-83.8" font-family="Times,serif" font-size="14.00" fill="#888888">2021</text>
</a>
</g>
</g>
<!-- mode.2022 -->
<g id="node2" class="node"><title>mode.2022</title>
<g id="a_node2"><a xlink:href="mode.2022" xlink:title="mode\n2022">
<ellipse fill="#cccccc" stroke="#aaaaaa" stroke-width="5" cx="135" cy="-136" rx="33.4697" ry="33.4697"/>
<text text-anchor="middle" x="135" y="-139.8" font-family="Times,serif" font-size="14.00" fill="#888888">mode</text>
<text text-anchor="middle" x="135" y="-124.8" font-family="Times,serif" font-size="14.00" fill="#888888">2022</text>
</a>
</g>
</g>
<!-- mode.2021&#45;&gt;mode.2022 -->
<g id="edge1" class="edge"><title>mode.2021&#45;&gt;mode.2022</title>
<path fill="none" stroke="#aaaaaa" stroke-width="2" d="M64.0033,-107.301C73.5947,-111.234 84.3615,-115.648 94.5213,-119.814"/>
<polygon fill="#aaaaaa" stroke="#aaaaaa" points="93.4376,-123.152 104.018,-123.707 96.0931,-116.675 93.4376,-123.152"/>
</g>
<!-- post.2021 -->
<g id="node3" class="node"><title>post.2021</title>
<g id="a_node3"><a xlink:href="post.2021" xlink:title="post\n2021">
<ellipse fill="#dddddd" stroke="#aaaaaa" stroke-width="5" cx="135" cy="-54" rx="31.2258" ry="31.2258"/>
<text text-anchor="middle" x="135" y="-57.8" font-family="Times,serif" font-size="14.00" fill="#888888">post</text>
<text text-anchor="middle" x="135" y="-42.8" font-family="Times,serif" font-size="14.00" fill="#888888">2021</text>
</a>
</g>
</g>
<!-- mode.2021&#45;&gt;post.2021 -->
<g id="edge2" class="edge"><title>mode.2021&#45;&gt;post.2021</title>
<path fill="none" stroke="#aaaaaa" stroke-width="2" d="M64.0033,-82.6986C74.2222,-78.5089 85.7752,-73.7722 96.5068,-69.3722"/>
<polygon fill="#aaaaaa" stroke="#aaaaaa" points="98.1449,-72.4834 106.07,-65.4514 95.4894,-66.0067 98.1449,-72.4834"/>
</g>
<!-- post.2022 -->
<g id="node4" class="node"><title>post.2022</title>
<g id="a_node4"><a xlink:href="post.2022" xlink:title="post\n2022">
<ellipse fill="#dddddd" stroke="#aaaaaa" stroke-width="5" cx="235" cy="-176" rx="31.2258" ry="31.2258"/>
<text text-anchor="middle" x="235" y="-179.8" font-family="Times,serif" font-size="14.00" fill="#888888">post</text>
<text text-anchor="middle" x="235" y="-164.8" font-family="Times,serif" font-size="14.00" fill="#888888">2022</text>
</a>
</g>
</g>
<!-- mode.2022&#45;&gt;post.2022 -->
<g id="edge3" class="edge"><title>mode.2022&#45;&gt;post.2022</title>
<path fill="none" stroke="#aaaaaa" stroke-width="2" d="M165.936,-148.219C175.576,-152.154 186.383,-156.564 196.497,-160.693"/>
<polygon fill="#aaaaaa" stroke="#aaaaaa" points="195.34,-164.001 205.921,-164.539 197.985,-157.52 195.34,-164.001"/>
</g>
<!-- stop.2022 -->
<g id="node5" class="node"><title>stop.2022</title>
<g id="a_node5"><a xlink:href="stop.2022" xlink:title="stop\n2022">
<ellipse fill="#eeeeee" stroke="#aaaaaa" stroke-width="5" cx="235" cy="-96" rx="31.2258" ry="31.2258"/>
<text text-anchor="middle" x="235" y="-99.8" font-family="Times,serif" font-size="14.00" fill="#888888">stop</text>
<text text-anchor="middle" x="235" y="-84.8" font-family="Times,serif" font-size="14.00" fill="#888888">2022</text>
</a>
</g>
</g>
<!-- mode.2022&#45;&gt;stop.2022 -->
<g id="edge4" class="edge"><title>mode.2022&#45;&gt;stop.2022</title>
<path fill="none" stroke="#aaaaaa" stroke-width="2" d="M165.936,-123.781C175.576,-119.846 186.383,-115.436 196.497,-111.307"/>
<polygon fill="#aaaaaa" stroke="#aaaaaa" points="197.985,-114.48 205.921,-107.461 195.34,-107.999 197.985,-114.48"/>
</g>
</g>
</svg>
