/* XPM */
static char *foo[] = {
/* columns rows colors chars-per-pixel */
"10 10 95 2",
"   c #000200030000",
".  c #032C03F30000",
"X  c #03BB05A20000",
"o  c #05C8072B0000",
"O  c #070B08810000",
"+  c #073F09DF0000",
"@  c #081D0B790002",
"#  c #094E0E910000",
"$  c #09D00DE00002",
"%  c #0A3E0EB90002",
"&  c #0D5D14920000",
"*  c #0F7516BE000F",
"=  c #11B315150000",
"-  c #13C917E40000",
";  c #142D1A430022",
":  c #13241BF80000",
">  c #14B11CD6000E",
",  c #175B1CF7001B",
"<  c #150D2075001A",
"1  c #1A2323D2001A",
"2  c #1A1524D2000E",
"3  c #19A429350024",
"4  c #1D0628730024",
"5  c #1F653149004D",
"6  c #20F52E750038",
"7  c #2495318E004D",
"8  c #278637A40064",
"9  c #28393888005E",
"0  c #29873D580095",
"q  c #2EFC3D8A0089",
"w  c #2FD439C00048",
"e  c #32773DF00047",
"r  c #2D28404200B1",
"t  c #2FC441DE00AE",
"y  c #30C241D800A0",
"u  c #327A444F00A5",
"i  c #38E146040077",
"p  c #343E4A2E00C9",
"a  c #3E3353320113",
"s  c #3F3E538C00F3",
"d  c #3F1159E50152",
"f  c #42B0515A0082",
"g  c #43975267008B",
"h  c #4A5C5C5E0120",
"j  c #4A2762560180",
"k  c #4E7C60F200EA",
"l  c #4A10686E01FB",
"z  c #5529670500EA",
"x  c #51236B420191",
"c  c #53006E090206",
"v  c #5B4074CD0244",
"b  c #5A52776F0340",
"n  c #57CD79F602FF",
"m  c #5CB67B3B037C",
"M  c #5C827F07034F",
"N  c #61D376930137",
"B  c #63FC77E80145",
"V  c #651C7D0C01D8",
"C  c #61D0811E0285",
"Z  c #6A17807D01BA",
"A  c #698C8A9303BD",
"S  c #74CF8E1802C4",
"D  c #6B8490F603F5",
"F  c #75FB93650359",
"G  c #791390A6027B",
"H  c #7CA796E302D4",
"J  c #716E9A0005CB",
"K  c #71399E1805E8",
"L  c #7406A50F081E",
"P  c #7EA2A2E40857",
"I  c #7A80A75B094A",
"U  c #7832A8DD07D5",
"Y  c #7BBAAF3708DA",
"T  c #85C7AA1D0613",
"R  c #9663AE2403FD",
"E  c #9BF3AF3602C4",
"W  c #9360B1CB056E",
"Q  c #91A9C1130A57",
"!  c #97D0D3720EA6",
"~  c #96ABD56D121C",
"^  c #9402D6781546",
"/  c #96A0D935112C",
"(  c #980ED9A2118D",
")  c #A569CDCD0B40",
"_  c #BFEFD1BD056A",
"`  c #A82DDE9E1276",
"'  c #AD30E791190A",
"]  c #B165E81B117F",
"[  c #B2E5E8A71260",
"{  c #B70DE9E510C2",
"}  c #CB29D5BF02EC",
"|  c #D2D5F06B0D2A",
" . c #D8E2EB2608A3",
".. c #DC95F3780F9C",
"X. c #E6C7F05E069E",
/* pixels */
"# 1 i z B N k q > + ",
": y v H E R F x 9 * ",
"6 j J ) X. .Q D d 3 ",
"t b P ~ [ { / U n 0 ",
"u m I ^ ' ] ( Y M r ",
"8 c L ` ..| ! K l 5 ",
"2 a A W } _ T C p < ",
"& 7 h Z G S V s 4 % ",
"X $ , w g f e ; @ . ",
"      O - = o       "
};
