/* XPM */
static char *foo[] = {
/* columns rows colors chars-per-pixel */
"10 10 30 1",
"  c #000100010001",
". c #012001200120",
"X c #025302530253",
"o c #028A028A028A",
"O c #068006800680",
"+ c #069206920692",
"@ c #07FB07FB07FB",
"# c #0AF70AF70AF7",
"$ c #0E830E830E83",
"% c #103810381038",
"& c #143114311431",
"* c #170117011701",
"= c #17D917D917D9",
"- c #194119411941",
"; c #1B671B671B67",
": c #1BCC1BCC1BCC",
"> c #288328832883",
", c #2B0C2B0C2B0C",
"< c #2CEA2CEA2CEA",
"1 c #2E802E802E80",
"2 c #2FA22FA22FA2",
"3 c #310431043104",
"4 c #328B328B328B",
"5 c #343934393439",
"6 c #37FF37FF37FF",
"7 c #3A863A863A86",
"8 c #3B3E3B3E3B3E",
"9 c #3F323F323F32",
"0 c #415741574157",
"q c #452745274527",
/* pixels */
"          ",
"   .+O.   ",
"  o:77;X  ",
"  %4982$  ",
"  *153<&  ",
"  *165<&  ",
"  #,q0>#  ",
"   @-=@   ",
"          ",
"          "
};
