/* XPM */
static char * tab_tree_xpm[] = {
"36 20 177 2",
"  	c None",
". 	c #DDEEFF",
"+ 	c #DCEDFF",
"@ 	c #E4F1FF",
"# 	c #FFFFFF",
"$ 	c #DCEEFF",
"% 	c #DCEDFE",
"& 	c #DBEEFF",
"* 	c #E4F1FE",
"= 	c #DDEAF7",
"- 	c #DEE7F3",
"; 	c #E3D9D5",
"> 	c #DEE6F1",
", 	c #DEE6EF",
"' 	c #E2DCDB",
") 	c #E2DCDC",
"! 	c #E1DFE2",
"~ 	c #E0E1E6",
"{ 	c #E6EFF6",
"] 	c #FFFFFE",
"^ 	c #E3D8D4",
"/ 	c #E4D6CF",
"( 	c #E4D5CF",
"_ 	c #E0E3E9",
": 	c #E4D5CE",
"< 	c #E3D8D5",
"[ 	c #E4D7D2",
"} 	c #E3D7D2",
"| 	c #E5F0F8",
"1 	c #DCEFFF",
"2 	c #FEFEFE",
"3 	c #CDE9ED",
"4 	c #C9E7E7",
"5 	c #B6E1D1",
"6 	c #BDE4DB",
"7 	c #ABDEC5",
"8 	c #B9E3D6",
"9 	c #C5E6E3",
"0 	c #CBE8EA",
"a 	c #EDFAFF",
"b 	c #BCBBD6",
"c 	c #E4E4EE",
"d 	c #D5D5E5",
"e 	c #EEEEF4",
"f 	c #C9C9DF",
"g 	c #CECEE2",
"h 	c #DDDDEA",
"i 	c #CECEE1",
"j 	c #CACADF",
"k 	c #D5D5E6",
"l 	c #D4D4E5",
"m 	c #D3D3E4",
"n 	c #E0E0EC",
"o 	c #9C9CC4",
"p 	c #BFBFD8",
"q 	c #D9D9E7",
"r 	c #F1F1F6",
"s 	c #DBDBE9",
"t 	c #C3C3DB",
"u 	c #D9D9E8",
"v 	c #B5B5D2",
"w 	c #CFCFE2",
"x 	c #CFE9EF",
"y 	c #C1E4DF",
"z 	c #B1DFCB",
"A 	c #B2E0CD",
"B 	c #B5E1D0",
"C 	c #B8E2D4",
"D 	c #A6DDBF",
"E 	c #BAE3D7",
"F 	c #DDEDFF",
"G 	c #E9F6FF",
"H 	c #DEDDEA",
"I 	c #BBBBD6",
"J 	c #E4E4EF",
"K 	c #D7D7E7",
"L 	c #C7C7DD",
"M 	c #A4A4C8",
"N 	c #DCDCEA",
"O 	c #C1C1D9",
"P 	c #CDCDE1",
"Q 	c #E1E1EC",
"R 	c #D2D2E3",
"S 	c #E8E8F1",
"T 	c #DEDEEB",
"U 	c #D8D8E7",
"V 	c #C0C0D9",
"W 	c #D3D3E5",
"X 	c #C8C8DD",
"Y 	c #DDEDFE",
"Z 	c #DBEDFE",
"` 	c #E4F1FD",
" .	c #DEE6F0",
"..	c #E2DDDE",
"+.	c #E6D2C7",
"@.	c #E3D7D3",
"#.	c #E3D8D3",
"$.	c #E5D2C9",
"%.	c #E5D2C8",
"&.	c #E5D4CA",
"*.	c #E5EEF5",
"=.	c #FFFEFE",
"-.	c #E4D6D0",
";.	c #DEE9F6",
">.	c #E2DBDA",
",.	c #E5D5CE",
"'.	c #E3D9D6",
").	c #E5F0F9",
"!.	c #E6D0C3",
"~.	c #E4D6D1",
"{.	c #E2DBD9",
"].	c #E6D0C5",
"^.	c #E5D6CE",
"/.	c #E5D4CB",
"(.	c #E6EFF5",
"_.	c #FFFEFF",
":.	c #DEE7F1",
"<.	c #E2DCDA",
"[.	c #E2DBDB",
"}.	c #DDEAF8",
"|.	c #E2DAD9",
"1.	c #E2DEE0",
"2.	c #DBEFFF",
"3.	c #DFE5EF",
"4.	c #E7CEC0",
"5.	c #E4D6D2",
"6.	c #E5D2C7",
"7.	c #E6CFC2",
"8.	c #E5EFF4",
"9.	c #DDEAF9",
"0.	c #DFE4EC",
"a.	c #DFE4EB",
"b.	c #DEE5EE",
"c.	c #DEE4ED",
"d.	c #E5F1FC",
"e.	c #DEEEFF",
"f.	c #E5F1FE",
"g.	c #FAFAFC",
"h.	c #FDFDFD",
"i.	c #FBFBFC",
"j.	c #FCFCFD",
"k.	c #FEFEFF",
"l.	c #C8E7E7",
"m.	c #C3E5E1",
"n.	c #A6DCBF",
"o.	c #ACDFC7",
"p.	c #9FDBB8",
"q.	c #AADFC5",
"r.	c #B4E1D0",
"s.	c #C4E5E2",
"t.	c #BDBDD7",
"u.	c #F8F8FA",
"v.	c #D0D0E2",
"w.	c #9D9DC3",
"x.	c #AEAECE",
"y.	c #F9F9FB",
"z.	c #C2C2DA",
"A.	c #C4C4DB",
"B.	c #ADADCD",
"C.	c #B3B3D1",
"D.	c #BEBED7",
"E.	c #D6EBF7",
"F.	c #CEE8EE",
"G.	c #C8E6E6",
"H.	c #CAE7E8",
"I.	c #CCE8EB",
"J.	c #B7E1D2",
"K.	c #E6F3FF",
"L.	c #ECECF3",
"M.	c #EBEBF3",
"N.	c #E6E6F0",
"O.	c #E7E7F0",
"P.	c #F6F6F9",
"Q.	c #EBEBF2",
"R.	c #E2E2ED",
"S.	c #E6E6EF",
"T.	c #F5F5F9",
". . . . . . . . + @ # # # # # # # # # # # # # # # # # # # # # # # # # # ",
". . . . . . . . + @ # # # # # # # # # # # # # # # # # # # # # # # # # # ",
"$ $ $ % + $ $ $ & * # # # # # # # # # # # # # # # # # # # # # # # # # # ",
"= - ; > , ' ) ! ~ { ] # # # # # # # # # # # # # # # # # # # # # # # # # ",
"> ^ / ( _ : < [ } | ] # # # # # # # # # # # # # # # # # # # # # # # # # ",
"$ $ 1 1 $ 1 $ $ & * # # # # # # # # # # # # # # # # # 2 # # # # # # # 2 ",
"3 4 5 6 7 8 9 0 + a b c d e f g h i j k l m n m o p q r s t u v t l w # ",
"x y z A B C D E F G H I t J l j p K L M N O P i I Q R S T U V W X j J # ",
"F . Y . . Y F % Z ` # ] # 2 ] # # # # # # # # # # 2 # # # # # # # # # 2 ",
" ...+.@.#.$.%.&.( *.=.# # # # 2 # # # # 2 # # # 2 # # # # # # # # # # # ",
" .< -.[ ;.: >.,.'.).# # # # # # # # # # # # # # # # # # # # # # # # # # ",
"& & + & & % % + & @ # # # # # # # # # # # # # # # # # # # # # # # # # # ",
"> ) !.~.{.].^./.: (._.# # # # # # # # # # # # # # # # # # # # # # # # # ",
":.<.' [.}.[.|.'.1.).# # # # # # # # # # # # # # # # # # # # # # # # # # ",
"$ & & 2.& $ 1 2.& @ # # # # # # # # # # # # # # # # # # # # # # # # # # ",
"3.) 4.5.) !.6.7.: 8._.# # # # # # # # # # # # # # # # # # # # # # # # # ",
"9.0.a.0.}.a.b.3.c.d.] # # 2 # 2 # # 2 # 2 # # # # # # # # # # # # # # # ",
"F $ . e.% . e.+ $ f.2 2 2 # 2 # g.h.2 2 2 i.# j.2 k.h.2 # # # # # # # # ",
"l.m.n.o.p.q.r.s.F a t.V s M u.v.w.x.X y.z.A.t B.C.D.U # # # # # # # # # ",
"E.F.G.4 H.I.J.m.F K.L.n M.h U h N.M.O.P.M.S Q Q.R.S.T.# # # # # # # # # "};
