/* XPM */
static char * tab_led_xpm[] = {
"26 20 56 1",
" 	c None",
".	c #FFFFFF",
"+	c #FEFEFE",
"@	c #FDFDFD",
"#	c #CCEEC5",
"$	c #A7E29C",
"%	c #E6F7E3",
"&	c #ECF9EA",
"*	c #19CF12",
"=	c #02CD01",
"-	c #32D025",
";	c #FEFDFD",
">	c #EAF9E8",
",	c #12CD0D",
"'	c #03CD04",
")	c #21CE18",
"!	c #FDFCFB",
"~	c #FCFEFC",
"{	c #9DE191",
"]	c #62CF50",
"^	c #C9EEC1",
"/	c #FDFBF9",
"(	c #FBF4EC",
"_	c #FEFFFF",
":	c #FCF8F2",
"<	c #FCF6EF",
"[	c #FDFAF6",
"}	c #DDA04A",
"|	c #D07D08",
"1	c #E7BD80",
"2	c #F8EDDD",
"3	c #D58C23",
"4	c #D38618",
"5	c #F4E2C8",
"6	c #FBF4EB",
"7	c #D38413",
"8	c #D07D06",
"9	c #D58B22",
"0	c #FEFEFF",
"a	c #EDCEA3",
"b	c #CF7B02",
"c	c #D07C04",
"d	c #E6BB7F",
"e	c #FDFBF7",
"f	c #E0A95B",
"g	c #D68C25",
"h	c #E8C28B",
"i	c #F8EEDF",
"j	c #DA983A",
"k	c #D89331",
"l	c #F5E4CC",
"m	c #FEFFFE",
"n	c #FEFDFB",
"o	c #FDFBF8",
"p	c #FEFEFD",
"q	c #FEFCF9",
"..........................",
"..........................",
"....+....+................",
".....@#$%.................",
"....+&*=-;................",
".....>,')!................",
".....~{]^.................",
".........+................",
"..........................",
"..........................",
"..........................",
"........+.......+.++.+....",
".....+/(_+......+_:<_+....",
"....+[}|1........2345.+...",
".....67890.......abcd.....",
".....efgh........ijkl.....",
".....mnop+.......+q/p.....",
"........+.......+.++.+....",
"..........................",
".........................."};
