/* XPM */
static char * tab_graph_xpm[] = {
"36 20 52 1",
" 	c None",
".	c #FFFFFF",
"+	c #02C802",
"@	c #09BE09",
"#	c #0ABA0A",
"$	c #09BD09",
"%	c #06C506",
"&	c #00C600",
"*	c #00A100",
"=	c #00DD00",
"-	c #00FF00",
";	c #00F800",
">	c #00B000",
",	c #008B00",
"'	c #018101",
")	c #00F000",
"!	c #00E800",
"~	c #00FE00",
"{	c #00FD00",
"]	c #00E100",
"^	c #00CE00",
"/	c #00CF00",
"(	c #017101",
"_	c #050005",
":	c #000000",
"<	c #00FB00",
"[	c #00A400",
"}	c #00FA00",
"|	c #00F700",
"1	c #007B00",
"2	c #00C900",
"3	c #009300",
"4	c #00EF00",
"5	c #00C400",
"6	c #009E00",
"7	c #00DE00",
"8	c #0A9C0A",
"9	c #00CA00",
"0	c #00D500",
"a	c #00D800",
"b	c #09C109",
"c	c #009100",
"d	c #00D100",
"e	c #00D600",
"f	c #00D700",
"g	c #00E500",
"h	c #00E700",
"i	c #00E300",
"j	c #00DB00",
"k	c #00D300",
"l	c #00B100",
"m	c #005D00",
"....................................",
"....................................",
"..............+@##$%&...............",
"........*=--------------;>,.........",
"....')!---~-----------~----{]^......",
".../-{----------------------~-{(_:..",
"..<-~-~-----------------------~-[...",
".}-~---------------------------~-...",
".|-~---------------------------~-...",
".1-~-------------------------~--2...",
"..34-~----------------------~--5....",
"....6--~-~--------------~-~--7......",
"......8904---------------a^b........",
"...........cdef]ghijeklm............",
"....................................",
"....................................",
"....................................",
"....................................",
"...............:....................",
"...............:...................."};
