/* XPM */
static char * tab_graph_xpm[] = {
"36 20 121 2",
"  	c None",
". 	c #FFFFFF",
"+ 	c #F5EBF5",
"@ 	c #EDE2ED",
"# 	c #F1E6F1",
"$ 	c #FFF8FF",
"% 	c #FEFEFE",
"& 	c #D9CFD9",
"* 	c #86B786",
"= 	c #43B743",
"- 	c #14B714",
"; 	c #00B900",
"> 	c #00D200",
", 	c #00DC00",
"' 	c #00D700",
") 	c #00C600",
"! 	c #00B700",
"~ 	c #2EB72E",
"{ 	c #6AB76A",
"] 	c #B4B5B4",
"^ 	c #FFFDFF",
"/ 	c #FEFFFE",
"( 	c #9EAD9E",
"_ 	c #22B222",
": 	c #00ED00",
"< 	c #00FF00",
"[ 	c #00FE00",
"} 	c #00BC00",
"| 	c #5FB05F",
"1 	c #E8E0E8",
"2 	c #CFCECF",
"3 	c #17AF17",
"4 	c #00D500",
"5 	c #6EA46E",
"6 	c #FFFEFF",
"7 	c #9AAF9A",
"8 	c #00E100",
"9 	c #25AA25",
"0 	c #F8F3F8",
"a 	c #B0C2B0",
"b 	c #00F500",
"c 	c #00EE00",
"d 	c #1FA61F",
"e 	c #FDF8FD",
"f 	c #F2EBF2",
"g 	c #00CD00",
"h 	c #00CF00",
"i 	c #00CB00",
"j 	c #00C500",
"k 	c #006000",
"l 	c #006E00",
"m 	c #008000",
"n 	c #009100",
"o 	c #008F00",
"p 	c #009900",
"q 	c #009200",
"r 	c #009700",
"s 	c #009600",
"t 	c #006200",
"u 	c #00F700",
"v 	c #83B783",
"w 	c #8CC08C",
"x 	c #00EC00",
"y 	c #00C200",
"z 	c #009500",
"A 	c #00A400",
"B 	c #00BD00",
"C 	c #008300",
"D 	c #008C00",
"E 	c #00C900",
"F 	c #00A600",
"G 	c #00C100",
"H 	c #00FD00",
"I 	c #FAF4FA",
"J 	c #38A238",
"K 	c #00C300",
"L 	c #CFCDCF",
"M 	c #26A226",
"N 	c #C5CDC5",
"O 	c #57AA57",
"P 	c #00BE00",
"Q 	c #00F300",
"R 	c #E0D8E0",
"S 	c #C2CEC2",
"T 	c #229D22",
"U 	c #3AA03A",
"V 	c #00C800",
"W 	c #00DE00",
"X 	c #00E800",
"Y 	c #D6DDD6",
"Z 	c #F8F2F8",
"` 	c #18AC18",
" .	c #00F100",
"..	c #A0B5A0",
"+.	c #FCF6FC",
"@.	c #3CA33C",
"#.	c #B2BAB2",
"$.	c #A6B0A6",
"%.	c #12B312",
"&.	c #56AC56",
"*.	c #F6EFF6",
"=.	c #B3B4B3",
"-.	c #4CB64C",
";.	c #00B800",
">.	c #00F400",
",.	c #00D000",
"'.	c #24B624",
").	c #7DB27D",
"!.	c #EFE6EF",
"~.	c #D3C9D3",
"{.	c #A5B7A5",
"].	c #7FB77F",
"^.	c #6BB76B",
"/.	c #49A149",
"(.	c #65B765",
"_.	c #76B776",
":.	c #8BB78B",
"<.	c #BEB6BE",
"[.	c #F7EDF7",
"}.	c #C5C5C5",
"|.	c #C2C2C2",
". . . . . . . . . . . . . . . . + @ # $ . . . % . . . . . . . . . . . . ",
". . . . . . . . . . . & * = - ; > , ' ) ! ~ { ] ^ . % . . . . . . . . . ",
". . . . . . . / . ( _ : < < < < < < < < < [ < < } | 1 . % . . . . . . . ",
". . . . . . . 2 3 < < < < < < < < < < < < < < < [ < 4 5 6 % . . . . . . ",
". . . . . . 7 8 < < [ < < < < < < < < < < [ < [ < < [ < 9 0 % . . . . . ",
". . . . . a b [ < [ b , < < < < [ < < < < < c < < < < < < d e % . . . . ",
". . . % f g [ < < < h i j k l m < n m o p q r s t u < < < < v . . . . . ",
". . . . w < < < < < x c y p s z < A B ' C D E F G H < < < [ } I . . . . ",
". . . . J [ < < < < < < < < < H K < < < < < < < < < < < < < < L . . . . ",
". . . . M [ < < < < < < < < < < < < < < < < < < < < < < < < < N . . . . ",
". . . . O < < < < < < < < < < < < P [ < < < < < < < < < < < Q R . . . . ",
". . . % S < < < < < < < < < < < [ < < [ < < < < < < < < < < T . . . . . ",
". . . . . U < < < < < < < < < < < V W < < < < < < < < < [ X Y % . . . . ",
". . . . % Z ` < < < < < < < < < < < < < < < < < < < < [  .... . . . . . ",
". . . . . % +.@.< [ < < < < < < < < < < < < < < < [ < y #.. . . . . . . ",
". . . . . . % . $.%.< < [ < < < < < < < < < < [ < > &.*.. . . . . . . . ",
". . . . . . . . . . =.-.;.>.< < < < < < < < ,.'.).!.. % . . . . . . . . ",
". . . . . . . . . . % . . ~.{.].^./.(._.:.<.[.. . % . . . . . . . . . . ",
". . . . . . . . . . . . . . % . . }.. . . . . . . . . . . . . . . . . . ",
". . . . . . . . . . . . . . . . . |.% . . . . . . . . . . . . . . . . . "};
