/* XPM */
static char * led_failed_glow_xpm[] = {
"20 20 194 2",
"  	c None",
". 	c #040001",
"+ 	c #080203",
"@ 	c #0C0305",
"# 	c #140609",
"$ 	c #1D0A0F",
"% 	c #250D12",
"& 	c #33131B",
"* 	c #3E1822",
"= 	c #3D1922",
"- 	c #431924",
"; 	c #411A24",
"> 	c #401922",
", 	c #3A161F",
"' 	c #301118",
") 	c #240C12",
"! 	c #1B090E",
"~ 	c #140508",
"{ 	c #0A0204",
"] 	c #050102",
"^ 	c #0B0305",
"/ 	c #17060A",
"( 	c #1E0B10",
"_ 	c #2F0C14",
": 	c #3D1520",
"< 	c #4B1927",
"[ 	c #53202C",
"} 	c #5F2434",
"| 	c #742C40",
"1 	c #622535",
"2 	c #652838",
"3 	c #56202E",
"4 	c #4E202C",
"5 	c #3C111A",
"6 	c #2B1016",
"7 	c #1F090F",
"8 	c #130508",
"9 	c #0F0406",
"0 	c #170509",
"a 	c #1C080D",
"b 	c #320C15",
"c 	c #431621",
"d 	c #561D2C",
"e 	c #6A2639",
"f 	c #7A2F44",
"g 	c #7B2F44",
"h 	c #803148",
"i 	c #823248",
"j 	c #7C2F44",
"k 	c #742A3E",
"l 	c #662335",
"m 	c #55222F",
"n 	c #3F131E",
"o 	c #2D0D14",
"p 	c #1F070D",
"q 	c #110407",
"r 	c #0A0305",
"s 	c #0E0406",
"t 	c #1A050A",
"u 	c #2B0A12",
"v 	c #431521",
"w 	c #5A1C2C",
"x 	c #73263A",
"y 	c #802C43",
"z 	c #7F2740",
"A 	c #A33A4E",
"B 	c #A13653",
"C 	c #7B2339",
"D 	c #7A283E",
"E 	c #822B42",
"F 	c #712135",
"G 	c #5B192A",
"H 	c #3E0E19",
"I 	c #16060A",
"J 	c #130306",
"K 	c #150408",
"L 	c #27080E",
"M 	c #3B0E18",
"N 	c #521625",
"O 	c #6F1E33",
"P 	c #852741",
"Q 	c #792137",
"R 	c #BA3967",
"S 	c #EA79A2",
"T 	c #FAB887",
"U 	c #FBBF7F",
"V 	c #EB7FA2",
"W 	c #BD3F6C",
"X 	c #89263C",
"Y 	c #852840",
"Z 	c #6B1D30",
"` 	c #521624",
" .	c #360D17",
"..	c #25070A",
"+.	c #120205",
"@.	c #1D060B",
"#.	c #330A12",
"$.	c #450F1C",
"%.	c #651A2C",
"&.	c #85213A",
"*.	c #721E32",
"=.	c #CD2759",
"-.	c #ED599F",
";.	c #EE73A9",
">.	c #F08AAF",
",.	c #F18DAC",
"'.	c #EE74AC",
").	c #EE539A",
"!.	c #D12856",
"~.	c #802136",
"{.	c #852036",
"].	c #631729",
"^.	c #44111C",
"/.	c #2A080F",
"(.	c #1F060B",
"_.	c #360911",
":.	c #551422",
"<.	c #721C31",
"[.	c #7E2137",
"}.	c #A51B31",
"|.	c #EF2664",
"1.	c #EA3981",
"2.	c #EE64A6",
"3.	c #EC5EA2",
"4.	c #EC64A4",
"5.	c #EB4B96",
"6.	c #EB3476",
"7.	c #ED2556",
"8.	c #AA1E37",
"9.	c #8F223A",
"0.	c #73192C",
"a.	c #4F1120",
"b.	c #37090F",
"c.	c #1E0509",
"d.	c #25070D",
"e.	c #420E18",
"f.	c #5F1424",
"g.	c #831D33",
"h.	c #74192B",
"i.	c #D81A30",
"j.	c #EC1751",
"k.	c #ED4C86",
"l.	c #F196C1",
"m.	c #EC4A95",
"n.	c #EB4695",
"o.	c #EE639A",
"p.	c #EC3E6F",
"q.	c #EC2038",
"r.	c #C51F29",
"s.	c #90233B",
"t.	c #7F1B2E",
"u.	c #5D1218",
"v.	c #3A0C13",
"w.	c #23080E",
"x.	c #2D070A",
"y.	c #4B0E17",
"z.	c #6E1625",
"A.	c #8E1E32",
"B.	c #87192A",
"C.	c #DC1E25",
"D.	c #EB1A31",
"E.	c #EB1C5A",
"F.	c #EB2F73",
"G.	c #EB3D8A",
"H.	c #EB347B",
"I.	c #EA1936",
"J.	c #E91C25",
"K.	c #DA1E2C",
"L.	c #9A202E",
"M.	c #8D1D30",
"N.	c #691420",
"O.	c #450C13",
"P.	c #32080B",
"Q.	c #290810",
"R.	c #460E17",
"S.	c #631422",
"T.	c #881D32",
"U.	c #811B2D",
"V.	c #DF1D2A",
"W.	c #EB183C",
"X.	c #EA2060",
"Y.	c #EB397F",
"Z.	c #EA3C89",
"`.	c #EA3C87",
" +	c #EB336F",
".+	c #EA224D",
"++	c #E91A2B",
"@+	c #D21E26",
"#+	c #951F35",
"$+	c #871C2D",
"%+	c #641119",
"&+	c #420C14",
"*+	c #27080D",
"=+	c #000000",
". + @ # $ % & * = - ; > , ' ) ! ~ { ] ] ",
"+ ^ / ( _ : < [ } | 1 2 3 4 5 6 7 8 9 ] ",
"+ 0 a b c d e f g h i j k l m n o p q r ",
"s t u v w x y x z A B C D E F G H 6 I J ",
"K L M N O P Q R S T U V W X Y Z `  ...+.",
"@.#.$.%.&.*.=.-.;.>.,.'.).!.~.{.].^./.t ",
"(._.:.<.[.}.|.1.2.3.4.5.6.7.8.9.0.a.b.c.",
"d.e.f.g.h.i.j.k.l.m.n.o.p.q.r.s.t.u.v.w.",
"x.y.z.A.B.C.D.E.F.G.H.E.I.J.K.L.M.N.O.P.",
"Q.R.S.T.U.V.W.X.Y.Z.`. +.+++@+#+$+%+&+*+",
"d.e.f.g.h.i.j.k.l.m.n.o.p.q.r.s.t.u.v.w.",
"(._.:.<.[.}.|.1.2.3.4.5.6.7.8.9.0.a.b.c.",
"@.#.$.%.&.*.=.-.;.>.,.'.).!.~.{.].^./.t ",
"K L M N O P Q R S T U V W X Y Z `  ...+.",
"s t u v w x y x z A B C D E F G H 6 I J ",
"+ 0 a b c d e f g h i j k l m n o p q r ",
"+ ^ / ( _ : < [ } | 1 2 3 4 5 6 7 8 9 ] ",
". + @ # $ % & * = - ; > , ' ) ! ~ { ] ] ",
"=+=+=+=+=+=+=+=+=+=+=+=+=+=+=+=+=+=+=+=+",
"=+=+=+=+=+=+=+=+=+=+=+=+=+=+=+=+=+=+=+=+"};
