<?xml version="1.0" encoding="UTF-8" standalone="no"?>
<!-- Generated by graphviz version 2.36.0 (20140111.2315)
 -->

<!-- Title: %3 Pages: 1 -->

<svg
   xmlns:dc="http://purl.org/dc/elements/1.1/"
   xmlns:cc="http://creativecommons.org/ns#"
   xmlns:rdf="http://www.w3.org/1999/02/22-rdf-syntax-ns#"
   xmlns:svg="http://www.w3.org/2000/svg"
   xmlns="http://www.w3.org/2000/svg"
   xmlns:xlink="http://www.w3.org/1999/xlink"
   xmlns:sodipodi="http://sodipodi.sourceforge.net/DTD/sodipodi-0.dtd"
   xmlns:inkscape="http://www.inkscape.org/namespaces/inkscape"
   width="418pt"
   height="535pt"
   viewBox="0.00 0.00 418.00 535.00"
   id="svg2"
   version="1.1"
   inkscape:version="0.48.4 r9939"
   sodipodi:docname="basic-static2.svg">
  <metadata
     id="metadata269">
    <rdf:RDF>
      <cc:Work
         rdf:about="">
        <dc:format>image/svg+xml</dc:format>
        <dc:type
           rdf:resource="http://purl.org/dc/dcmitype/StillImage" />
      </cc:Work>
    </rdf:RDF>
  </metadata>
  <defs
     id="defs267" />
  <sodipodi:namedview
     pagecolor="#ffffff"
     bordercolor="#666666"
     borderopacity="1"
     objecttolerance="10"
     gridtolerance="10"
     guidetolerance="10"
     inkscape:pageopacity="0"
     inkscape:pageshadow="2"
     inkscape:window-width="1920"
     inkscape:window-height="1030"
     id="namedview265"
     showgrid="false"
     inkscape:zoom="1.2680374"
     inkscape:cx="261.25"
     inkscape:cy="334.375"
     inkscape:window-x="0"
     inkscape:window-y="26"
     inkscape:window-maximized="1"
     inkscape:current-layer="a139" />
  <g
     id="graph0"
     class="graph"
     transform="scale(1 1) rotate(0) translate(4 531)">
    <title
       id="title5">%3</title>
    <polygon
       points="-4,-531 414,-531 414,4 -4,4 -4,4 "
       id="polygon7"
       transform="translate(62.678596,5.2418043)"
       style="fill:#ffffff;stroke:none" />
    <!-- bar_p1.1 -->
    <g
       id="node1"
       class="node">
      <title
         id="title12">bar_p1.1</title>
      <g
         id="a_node1">
        <a
           xlink:href="bar_p1.1"
           id="a15"
           xlink:title="bar_p1\n1">
          <ellipse
             fill="floralwhite"
             stroke="black"
             stroke-width="2"
             cx="39"
             cy="-320"
             rx="37.2152"
             ry="26.7407"
             id="ellipse17"
             d="m 76.215199,-320 c 0,14.76848 -16.661812,26.7407 -37.215199,26.7407 -20.553387,0 -37.2151985,-11.97222 -37.2151985,-26.7407 0,-14.76848 16.6618115,-26.7407 37.2151985,-26.7407 20.553387,0 37.215199,11.97222 37.215199,26.7407 z" />
          <text
             text-anchor="middle"
             x="39"
             y="-323.8"
             font-family="Courier,monospace"
             font-size="14.00"
             font-weight="bold"
             fill="black"
             id="text19">bar_p1</text>
        </a>
      </g>
    </g>
    <!-- baz_p1.1 -->
    <g
       id="node2"
       class="node">
      <title
         id="title24">baz_p1.1</title>
      <g
         id="a_node2">
        <a
           xlink:href="baz_p1.1"
           id="a27"
           xlink:title="baz_p1\n1">
          <ellipse
             fill="floralwhite"
             stroke="black"
             stroke-width="2"
             cx="133"
             cy="-320"
             rx="38.3379"
             ry="26.7407"
             id="ellipse29"
             d="m 171.3379,-320 c 0,14.76848 -17.16446,26.7407 -38.3379,26.7407 -21.17344,0 -38.337898,-11.97222 -38.337898,-26.7407 0,-14.76848 17.164458,-26.7407 38.337898,-26.7407 21.17344,0 38.3379,11.97222 38.3379,26.7407 z" />
          <text
             text-anchor="middle"
             x="133"
             y="-323.8"
             font-family="Courier,monospace"
             font-size="14.00"
             font-weight="bold"
             fill="black"
             id="text31">baz_p1</text>
        </a>
      </g>
    </g>
    <!-- bar_p2.1 -->
    <g
       id="node3"
       class="node">
      <title
         id="title36">bar_p2.1</title>
      <g
         id="a_node3">
        <a
           xlink:href="bar_p2.1"
           id="a39"
           xlink:title="bar_p2\n1">
          <ellipse
             fill="floralwhite"
             stroke="black"
             stroke-width="2"
             cx="134"
             cy="-230"
             rx="37.2152"
             ry="26.7407"
             id="ellipse41"
             d="m 171.2152,-230 c 0,14.76848 -16.66181,26.7407 -37.2152,26.7407 -20.55339,0 -37.215199,-11.97222 -37.215199,-26.7407 0,-14.76848 16.661809,-26.7407 37.215199,-26.7407 20.55339,0 37.2152,11.97222 37.2152,26.7407 z" />
          <text
             text-anchor="middle"
             x="134"
             y="-233.8"
             font-family="Courier,monospace"
             font-size="14.00"
             font-weight="bold"
             fill="black"
             id="text43">bar_p2</text>
        </a>
      </g>
    </g>
    <!-- baz_p1.1&#45;&gt;bar_c2.1 -->
    <g
       id="edge1"
       class="edge">
      <title
         id="title48">baz_p1.1-&gt;bar_c2.1</title>
      <path
         fill="none"
         stroke="black"
         stroke-width="2"
         d="M133.295,-293.073C133.386,-284.999 133.489,-275.943 133.588,-267.296"
         id="path50" />
      <polygon
         fill="black"
         stroke="black"
         stroke-width="2"
         points="137.09,-267.085 133.704,-257.046 130.091,-267.005 137.09,-267.085"
         id="polygon52" />
    </g>
    <!-- qux_p1.1 -->
    <g
       id="node4"
       class="node">
      <title
         id="title55">qux_p1.1</title>
      <g
         id="a_node4">
        <a
           xlink:href="qux_p1.1"
           id="a58"
           xlink:title="qux_p1\n1">
          <ellipse
             fill="floralwhite"
             stroke="black"
             stroke-width="2"
             cx="39"
             cy="-230"
             rx="39.3965"
             ry="26.7407"
             id="ellipse60"
             d="m 78.3965,-230 c 0,14.76848 -17.638414,26.7407 -39.3965,26.7407 -21.758086,0 -39.39649963,-11.97222 -39.39649963,-26.7407 0,-14.76848 17.63841363,-26.7407 39.39649963,-26.7407 21.758086,0 39.3965,11.97222 39.3965,26.7407 z" />
          <text
             text-anchor="middle"
             x="39"
             y="-233.8"
             font-family="Courier,monospace"
             font-size="14.00"
             font-weight="bold"
             fill="black"
             id="text62">qux_p1</text>
        </a>
      </g>
    </g>
    <!-- baz_p1.1&#45;&gt;qux_c1.1 -->
    <g
       id="edge2"
       class="edge">
      <title
         id="title67">baz_p1.1-&gt;qux_c1.1</title>
      <path
         fill="none"
         stroke="black"
         stroke-width="2"
         d="M110.245,-297.698C97.8908,-286.132 82.4585,-271.685 69.1187,-259.196"
         id="path69" />
      <polygon
         fill="black"
         stroke="black"
         stroke-width="2"
         points="71.2375,-256.385 61.5452,-252.106 66.4535,-261.496 71.2375,-256.385"
         id="polygon71" />
    </g>
    <!-- baz_p2.1 -->
    <g
       id="node5"
       class="node">
      <title
         id="title74">baz_p2.1</title>
      <g
         id="a_node5">
        <a
           xlink:href="baz_p2.1"
           id="a77"
           xlink:title="baz_p2\n1">
          <ellipse
             fill="floralwhite"
             stroke="black"
             stroke-width="2"
             cx="228"
             cy="-230"
             rx="38.3379"
             ry="26.7407"
             id="ellipse79"
             d="m 266.3379,-230 c 0,14.76848 -17.16446,26.7407 -38.3379,26.7407 -21.17344,0 -38.3379,-11.97222 -38.3379,-26.7407 0,-14.76848 17.16446,-26.7407 38.3379,-26.7407 21.17344,0 38.3379,11.97222 38.3379,26.7407 z" />
          <text
             text-anchor="middle"
             x="228"
             y="-233.8"
             font-family="Courier,monospace"
             font-size="14.00"
             font-weight="bold"
             fill="black"
             id="text81">baz_p2</text>
        </a>
      </g>
    </g>
    <!-- bar_p3.1 -->
    <g
       id="node6"
       class="node">
      <title
         id="title86">bar_p3.1</title>
      <g
         id="a_node6">
        <a
           xlink:href="bar_p3.1"
           id="a89"
           xlink:title="bar_p3\n1">
          <ellipse
             fill="floralwhite"
             stroke="black"
             stroke-width="2"
             cx="276"
             cy="-140"
             rx="37.2152"
             ry="26.7407"
             id="ellipse91"
             d="m 313.2152,-140 c 0,14.76848 -16.66181,26.7407 -37.2152,26.7407 -20.55339,0 -37.2152,-11.97222 -37.2152,-26.7407 0,-14.76848 16.66181,-26.7407 37.2152,-26.7407 20.55339,0 37.2152,11.97222 37.2152,26.7407 z" />
          <text
             text-anchor="middle"
             x="276"
             y="-143.8"
             font-family="Courier,monospace"
             font-size="14.00"
             font-weight="bold"
             fill="black"
             id="text93">bar_p3</text>
        </a>
      </g>
    </g>
    <!-- baz_p2.1&#45;&gt;bar_c3.1 -->
    <g
       id="edge3"
       class="edge">
      <title
         id="title98">baz_p2.1-&gt;bar_c3.1</title>
      <path
         fill="none"
         stroke="black"
         stroke-width="2"
         d="M241.371,-204.487C246.468,-195.142 252.367,-184.328 257.835,-174.302"
         id="path100" />
      <polygon
         fill="black"
         stroke="black"
         stroke-width="2"
         points="260.985,-175.836 262.701,-165.381 254.84,-172.484 260.985,-175.836"
         id="polygon102" />
    </g>
    <!-- qux_p2.1 -->
    <g
       id="node7"
       class="node">
      <title
         id="title105">qux_p2.1</title>
      <g
         id="a_node7">
        <a
           xlink:href="qux_p2.1"
           id="a108"
           xlink:title="qux_p2\n1">
          <ellipse
             fill="floralwhite"
             stroke="black"
             stroke-width="2"
             cx="181"
             cy="-140"
             rx="39.3965"
             ry="26.7407"
             id="ellipse110"
             d="m 220.3965,-140 c 0,14.76848 -17.63841,26.7407 -39.3965,26.7407 -21.75809,0 -39.3965,-11.97222 -39.3965,-26.7407 0,-14.76848 17.63841,-26.7407 39.3965,-26.7407 21.75809,0 39.3965,11.97222 39.3965,26.7407 z" />
          <text
             text-anchor="middle"
             x="181"
             y="-143.8"
             font-family="Courier,monospace"
             font-size="14.00"
             font-weight="bold"
             fill="black"
             id="text112">qux_p2</text>
        </a>
      </g>
    </g>
    <!-- baz_p2.1&#45;&gt;qux_c2.1 -->
    <g
       id="edge4"
       class="edge">
      <title
         id="title117">baz_p2.1-&gt;qux_c2.1</title>
      <path
         fill="none"
         stroke="black"
         stroke-width="2"
         d="M214.908,-204.487C209.917,-195.142 204.141,-184.328 198.786,-174.302"
         id="path119" />
      <polygon
         fill="black"
         stroke="black"
         stroke-width="2"
         points="201.82,-172.553 194.022,-165.381 195.646,-175.851 201.82,-172.553"
         id="polygon121" />
    </g>
    <!-- baz_p3.1 -->
    <g
       id="node8"
       class="node">
      <title
         id="title124">baz_p3.1</title>
      <g
         id="a_node8">
        <a
           xlink:href="baz_p3.1"
           id="a127"
           xlink:title="baz_p3\n1">
          <ellipse
             fill="floralwhite"
             stroke="black"
             stroke-width="2"
             cx="370"
             cy="-140"
             rx="38.3379"
             ry="26.7407"
             id="ellipse129"
             d="m 408.3379,-140 c 0,14.76848 -17.16446,26.7407 -38.3379,26.7407 -21.17344,0 -38.3379,-11.97222 -38.3379,-26.7407 0,-14.76848 17.16446,-26.7407 38.3379,-26.7407 21.17344,0 38.3379,11.97222 38.3379,26.7407 z" />
          <text
             text-anchor="middle"
             x="370"
             y="-143.8"
             font-family="Courier,monospace"
             font-size="14.00"
             font-weight="bold"
             fill="black"
             id="text131">baz_p3</text>
        </a>
      </g>
    </g>
    <!-- qux_p3.1 -->
    <g
       id="node9"
       class="node">
      <title
         id="title136">qux_p3.1</title>
      <g
         id="a_node9">
        <a
           xlink:href="qux_p3.1"
           id="a139"
           xlink:title="qux_p3\n1">
          <ellipse
             fill="floralwhite"
             stroke="black"
             stroke-width="2"
             cx="370"
             cy="-50"
             rx="39.3965"
             ry="26.7407"
             id="ellipse141"
             d="m 409.3965,-50 c 0,14.768481 -17.63841,26.7407 -39.3965,26.7407 -21.75809,0 -39.3965,-11.972219 -39.3965,-26.7407 0,-14.768481 17.63841,-26.7407 39.3965,-26.7407 21.75809,0 39.3965,11.972219 39.3965,26.7407 z" />
          <text
             text-anchor="middle"
             x="370"
             y="-53.8"
             font-family="Courier,monospace"
             font-size="14.00"
             font-weight="bold"
             fill="black"
             id="text143">qux_p3</text>
        </a>
      </g>
    </g>
    <!-- baz_p3.1&#45;&gt;qux_c3.1 -->
    <g
       id="edge5"
       class="edge">
      <title
         id="title148">baz_p3.1-&gt;qux_c3.1</title>
      <path
         fill="none"
         stroke="black"
         stroke-width="2"
         d="M370,-113.073C370,-104.999 370,-95.9428 370,-87.2961"
         id="path150" />
      <polygon
         fill="black"
         stroke="black"
         stroke-width="2"
         points="373.5,-87.0457 370,-77.0457 366.5,-87.0458 373.5,-87.0457"
         id="polygon152" />
    </g>
    <!-- model_p1.1 -->
    <g
       id="node10"
       class="node">
      <title
         id="title155">model_p1.1</title>
      <g
         id="a_node10">
        <a
           xlink:href="model_p1.1"
           id="a158"
           xlink:title="model_p1\n1">
          <ellipse
             fill="yellow"
             stroke="black"
             stroke-width="2"
             cx="133"
             cy="-410"
             rx="38.2761"
             ry="26.7407"
             id="ellipse160"
             d="m 171.2761,-410 c 0,14.76848 -17.13679,26.7407 -38.2761,26.7407 -21.13931,0 -38.2761,-11.97222 -38.2761,-26.7407 0,-14.76848 17.13679,-26.7407 38.2761,-26.7407 21.13931,0 38.2761,11.97222 38.2761,26.7407 z" />
          <text
             text-anchor="middle"
             x="133"
             y="-413.8"
             font-family="Courier,monospace"
             font-size="14.00"
             font-weight="bold"
             fill="black"
             id="text162">model_p1</text>
        </a>
      </g>
    </g>
    <!-- model_p1.1&#45;&gt;bar_p1.1 -->
    <g
       id="edge6"
       class="edge">
      <title
         id="title167">model_p1.1-&gt;bar_p1.1</title>
      <path
         fill="none"
         stroke="black"
         stroke-width="2"
         d="M110.723,-388.145C98.0803,-376.309 82.1005,-361.349 68.4349,-348.556"
         id="path169" />
      <polygon
         fill="black"
         stroke="black"
         stroke-width="2"
         points="70.809,-345.984 61.1168,-341.705 66.025,-351.094 70.809,-345.984"
         id="polygon171" />
    </g>
    <!-- model_p1.1&#45;&gt;baz_p1.1 -->
    <g
       id="edge7"
       class="edge">
      <title
         id="title174">model_p1.1-&gt;baz_p1.1</title>
      <path
         fill="none"
         stroke="black"
         stroke-width="2"
         d="M133,-383.073C133,-374.999 133,-365.943 133,-357.296"
         id="path176" />
      <polygon
         fill="black"
         stroke="black"
         stroke-width="2"
         points="136.5,-357.046 133,-347.046 129.5,-357.046 136.5,-357.046"
         id="polygon178" />
    </g>
    <!-- model_p2.1 -->
    <g
       id="node11"
       class="node">
      <title
         id="title181">model_p2.1</title>
      <g
         id="a_node11">
        <a
           xlink:href="model_p2.1"
           id="a184"
           xlink:title="model_p2\n1">
          <ellipse
             fill="yellow"
             stroke="black"
             stroke-width="2"
             cx="228"
             cy="-320"
             rx="38.2761"
             ry="26.7407"
             id="ellipse186"
             d="m 266.2761,-320 c 0,14.76848 -17.13679,26.7407 -38.2761,26.7407 -21.13931,0 -38.2761,-11.97222 -38.2761,-26.7407 0,-14.76848 17.13679,-26.7407 38.2761,-26.7407 21.13931,0 38.2761,11.97222 38.2761,26.7407 z" />
          <text
             text-anchor="middle"
             x="228"
             y="-323.8"
             font-family="Courier,monospace"
             font-size="14.00"
             font-weight="bold"
             fill="black"
             id="text188">model_p2</text>
        </a>
      </g>
    </g>
    <!-- model_p1.1&#45;&gt;model_p2.1 -->
    <g
       id="edge8"
       class="edge">
      <title
         id="title193">model_p1.1-&gt;model_p2.1</title>
      <path
         fill="none"
         stroke="black"
         stroke-width="2"
         d="M155.514,-388.145C168.199,-376.395 184.207,-361.566 197.951,-348.834"
         id="path195" />
      <polygon
         fill="black"
         stroke="black"
         stroke-width="2"
         points="200.361,-351.373 205.319,-342.01 195.604,-346.238 200.361,-351.373"
         id="polygon197" />
    </g>
    <!-- model_p2.1&#45;&gt;bar_p2.1 -->
    <g
       id="edge9"
       class="edge">
      <title
         id="title200">model_p2.1-&gt;bar_p2.1</title>
      <path
         fill="none"
         stroke="black"
         stroke-width="2"
         d="M205.723,-298.145C193.08,-286.309 177.101,-271.349 163.435,-258.556"
         id="path202" />
      <polygon
         fill="black"
         stroke="black"
         stroke-width="2"
         points="165.809,-255.984 156.117,-251.705 161.025,-261.094 165.809,-255.984"
         id="polygon204" />
    </g>
    <!-- model_p2.1&#45;&gt;baz_p2.1 -->
    <g
       id="edge10"
       class="edge">
      <title
         id="title207">model_p2.1-&gt;baz_p2.1</title>
      <path
         fill="none"
         stroke="black"
         stroke-width="2"
         d="M228,-293.073C228,-284.999 228,-275.943 228,-267.296"
         id="path209" />
      <polygon
         fill="black"
         stroke="black"
         stroke-width="2"
         points="231.5,-267.046 228,-257.046 224.5,-267.046 231.5,-267.046"
         id="polygon211" />
    </g>
    <!-- model_p3.1 -->
    <g
       id="node12"
       class="node">
      <title
         id="title214">model_p3.1</title>
      <g
         id="a_node12">
        <a
           xlink:href="model_p3.1"
           id="a217"
           xlink:title="model_p3\n1">
          <ellipse
             fill="yellow"
             stroke="black"
             stroke-width="2"
             cx="323"
             cy="-230"
             rx="38.2761"
             ry="26.7407"
             id="ellipse219"
             d="m 361.2761,-230 c 0,14.76848 -17.13679,26.7407 -38.2761,26.7407 -21.13931,0 -38.2761,-11.97222 -38.2761,-26.7407 0,-14.76848 17.13679,-26.7407 38.2761,-26.7407 21.13931,0 38.2761,11.97222 38.2761,26.7407 z" />
          <text
             text-anchor="middle"
             x="323"
             y="-233.8"
             font-family="Courier,monospace"
             font-size="14.00"
             font-weight="bold"
             fill="black"
             id="text221">model_p3</text>
        </a>
      </g>
    </g>
    <!-- model_p2.1&#45;&gt;model_p3.1 -->
    <g
       id="edge11"
       class="edge">
      <title
         id="title226">model_p2.1-&gt;model_p3.1</title>
      <path
         fill="none"
         stroke="black"
         stroke-width="2"
         d="M250.514,-298.145C263.199,-286.395 279.207,-271.566 292.951,-258.834"
         id="path228" />
      <polygon
         fill="black"
         stroke="black"
         stroke-width="2"
         points="295.361,-261.373 300.319,-252.01 290.604,-256.238 295.361,-261.373"
         id="polygon230" />
    </g>
    <!-- model_p3.1&#45;&gt;bar_p3.1 -->
    <g
       id="edge12"
       class="edge">
      <title
         id="title233">model_p3.1-&gt;bar_p3.1</title>
      <path
         fill="none"
         stroke="black"
         stroke-width="2"
         d="M309.908,-204.487C304.917,-195.142 299.141,-184.328 293.786,-174.302"
         id="path235" />
      <polygon
         fill="black"
         stroke="black"
         stroke-width="2"
         points="296.82,-172.553 289.022,-165.381 290.646,-175.851 296.82,-172.553"
         id="polygon237" />
    </g>
    <!-- model_p3.1&#45;&gt;baz_p3.1 -->
    <g
       id="edge13"
       class="edge">
      <title
         id="title240">model_p3.1-&gt;baz_p3.1</title>
      <path
         fill="none"
         stroke="black"
         stroke-width="2"
         d="M336.092,-204.487C341.083,-195.142 346.859,-184.328 352.214,-174.302"
         id="path242" />
      <polygon
         fill="black"
         stroke="black"
         stroke-width="2"
         points="355.354,-175.851 356.978,-165.381 349.18,-172.553 355.354,-175.851"
         id="polygon244" />
    </g>
    <!-- prep.1 -->
    <g
       id="node13"
       class="node">
      <title
         id="title247">prep.1</title>
      <g
         id="a_node13">
        <a
           xlink:href="prep.1"
           id="a250"
           xlink:title="prep\n1">
          <ellipse
             fill="floralwhite"
             stroke="black"
             stroke-width="2"
             cx="133"
             cy="-500"
             rx="28.4872"
             ry="26.7407"
             id="ellipse252"
             d="m 161.4872,-500 c 0,14.76848 -12.75415,26.7407 -28.4872,26.7407 -15.73305,0 -28.4872,-11.97222 -28.4872,-26.7407 0,-14.76848 12.75415,-26.7407 28.4872,-26.7407 15.73305,0 28.4872,11.97222 28.4872,26.7407 z" />
          <text
             text-anchor="middle"
             x="133"
             y="-503.8"
             font-family="Courier,monospace"
             font-size="14.00"
             font-weight="bold"
             fill="black"
             id="text254">prep</text>
          <text
             text-anchor="middle"
             x="133"
             y="-488.8"
             font-family="Courier,monospace"
             font-size="14.00"
             font-weight="bold"
             fill="black"
             id="text256">1</text>
        </a>
      </g>
    </g>
    <!-- prep.1&#45;&gt;model_p1.1 -->
    <g
       id="edge14"
       class="edge">
      <title
         id="title259">prep.1-&gt;model_p1.1</title>
      <path
         fill="none"
         stroke="black"
         stroke-width="2"
         d="M133,-473.073C133,-464.999 133,-455.943 133,-447.296"
         id="path261" />
      <polygon
         fill="black"
         stroke="black"
         stroke-width="2"
         points="136.5,-447.046 133,-437.046 129.5,-447.046 136.5,-447.046"
         id="polygon263" />
    </g>
  </g>
</svg>
