<?xml version="1.0" encoding="UTF-8" standalone="no"?>
<!DOCTYPE svg PUBLIC "-//W3C//DTD SVG 1.1//EN"
 "http://www.w3.org/Graphics/SVG/1.1/DTD/svg11.dtd">
<!-- Generated by graphviz version 2.36.0 (20140111.2315)
 -->
<!-- Title: %3 Pages: 1 -->
<svg width="763pt" height="415pt"
 viewBox="0.00 0.00 763.00 415.00" xmlns="http://www.w3.org/2000/svg" xmlns:xlink="http://www.w3.org/1999/xlink">
<g id="graph0" class="graph" transform="scale(1 1) rotate(0) translate(4 411)">
<title>%3</title>
<polygon fill="white" stroke="none" points="-4,4 -4,-411 759,-411 759,4 -4,4"/>
<text text-anchor="middle" x="377.5" y="-7.8" font-family="Times,serif" font-size="14.00">foo</text>
<!-- bar.2010&#45;01 -->
<g id="node1" class="node"><title>bar.2010&#45;01</title>
<g id="a_node1"><a xlink:href="bar.2010-01" xlink:title="bar\n2010&#45;01">
<polygon fill="pink" stroke="black" stroke-width="2" points="114.5,-135 53.5,-135 53.5,-97 114.5,-97 114.5,-135"/>
<text text-anchor="middle" x="84" y="-119.8" font-family="Times,serif" font-size="14.00">bar</text>
<text text-anchor="middle" x="84" y="-104.8" font-family="Times,serif" font-size="14.00">2010&#45;01</text>
</a>
</g>
</g>
<!-- qux.2010&#45;01 -->
<g id="node2" class="node"><title>qux.2010&#45;01</title>
<g id="a_node2"><a xlink:href="qux.2010-01" xlink:title="qux\n2010&#45;01">
<polygon fill="cornsilk" stroke="black" stroke-width="2" points="154.5,-61 93.5,-61 93.5,-23 154.5,-23 154.5,-61"/>
<text text-anchor="middle" x="124" y="-45.8" font-family="Times,serif" font-size="14.00">qux</text>
<text text-anchor="middle" x="124" y="-30.8" font-family="Times,serif" font-size="14.00">2010&#45;01</text>
</a>
</g>
</g>
<!-- bar.2010&#45;01&#45;&gt;qux.2010&#45;01 -->
<g id="edge1" class="edge"><title>bar.2010&#45;01&#45;&gt;qux.2010&#45;01</title>
<path fill="none" stroke="black" stroke-width="2" d="M94.0937,-96.8314C98.5597,-88.7925 103.907,-79.1666 108.838,-70.2918"/>
<polygon fill="black" stroke="black" stroke-width="2" points="111.973,-71.8546 113.77,-61.4133 105.854,-68.4551 111.973,-71.8546"/>
</g>
<!-- bar.2010&#45;02 -->
<g id="node3" class="node"><title>bar.2010&#45;02</title>
<g id="a_node3"><a xlink:href="bar.2010-02" xlink:title="bar\n2010&#45;02">
<polygon fill="pink" stroke="black" stroke-width="2" points="194.5,-209 133.5,-209 133.5,-171 194.5,-171 194.5,-209"/>
<text text-anchor="middle" x="164" y="-193.8" font-family="Times,serif" font-size="14.00">bar</text>
<text text-anchor="middle" x="164" y="-178.8" font-family="Times,serif" font-size="14.00">2010&#45;02</text>
</a>
</g>
</g>
<!-- qux.2010&#45;02 -->
<g id="node4" class="node"><title>qux.2010&#45;02</title>
<g id="a_node4"><a xlink:href="qux.2010-02" xlink:title="qux\n2010&#45;02">
<polygon fill="cornsilk" stroke="black" stroke-width="2" points="274.5,-135 213.5,-135 213.5,-97 274.5,-97 274.5,-135"/>
<text text-anchor="middle" x="244" y="-119.8" font-family="Times,serif" font-size="14.00">qux</text>
<text text-anchor="middle" x="244" y="-104.8" font-family="Times,serif" font-size="14.00">2010&#45;02</text>
</a>
</g>
</g>
<!-- bar.2010&#45;02&#45;&gt;qux.2010&#45;02 -->
<g id="edge2" class="edge"><title>bar.2010&#45;02&#45;&gt;qux.2010&#45;02</title>
<path fill="none" stroke="black" stroke-width="2" d="M184.187,-170.831C193.851,-162.134 205.58,-151.578 216.082,-142.127"/>
<polygon fill="black" stroke="black" stroke-width="2" points="218.728,-144.454 223.819,-135.163 214.045,-139.251 218.728,-144.454"/>
</g>
<!-- bar.2010&#45;03 -->
<g id="node5" class="node"><title>bar.2010&#45;03</title>
<g id="a_node5"><a xlink:href="bar.2010-03" xlink:title="bar\n2010&#45;03">
<polygon fill="pink" stroke="black" stroke-width="2" points="354.5,-209 293.5,-209 293.5,-171 354.5,-171 354.5,-209"/>
<text text-anchor="middle" x="324" y="-193.8" font-family="Times,serif" font-size="14.00">bar</text>
<text text-anchor="middle" x="324" y="-178.8" font-family="Times,serif" font-size="14.00">2010&#45;03</text>
</a>
</g>
</g>
<!-- qux.2010&#45;03 -->
<g id="node6" class="node"><title>qux.2010&#45;03</title>
<g id="a_node6"><a xlink:href="qux.2010-03" xlink:title="qux\n2010&#45;03">
<polygon fill="cornsilk" stroke="black" stroke-width="2" points="394.5,-135 333.5,-135 333.5,-97 394.5,-97 394.5,-135"/>
<text text-anchor="middle" x="364" y="-119.8" font-family="Times,serif" font-size="14.00">qux</text>
<text text-anchor="middle" x="364" y="-104.8" font-family="Times,serif" font-size="14.00">2010&#45;03</text>
</a>
</g>
</g>
<!-- bar.2010&#45;03&#45;&gt;qux.2010&#45;03 -->
<g id="edge3" class="edge"><title>bar.2010&#45;03&#45;&gt;qux.2010&#45;03</title>
<path fill="none" stroke="black" stroke-width="2" d="M334.094,-170.831C338.56,-162.792 343.907,-153.167 348.838,-144.292"/>
<polygon fill="black" stroke="black" stroke-width="2" points="351.973,-145.855 353.77,-135.413 345.854,-142.455 351.973,-145.855"/>
</g>
<!-- bar.2010&#45;04 -->
<g id="node7" class="node"><title>bar.2010&#45;04</title>
<g id="a_node7"><a xlink:href="bar.2010-04" xlink:title="bar\n2010&#45;04">
<polygon fill="pink" stroke="black" stroke-width="2" points="514.5,-209 453.5,-209 453.5,-171 514.5,-171 514.5,-209"/>
<text text-anchor="middle" x="484" y="-193.8" font-family="Times,serif" font-size="14.00">bar</text>
<text text-anchor="middle" x="484" y="-178.8" font-family="Times,serif" font-size="14.00">2010&#45;04</text>
</a>
</g>
</g>
<!-- qux.2010&#45;04 -->
<g id="node8" class="node"><title>qux.2010&#45;04</title>
<g id="a_node8"><a xlink:href="qux.2010-04" xlink:title="qux\n2010&#45;04">
<polygon fill="cornsilk" stroke="black" stroke-width="2" points="554.5,-135 493.5,-135 493.5,-97 554.5,-97 554.5,-135"/>
<text text-anchor="middle" x="524" y="-119.8" font-family="Times,serif" font-size="14.00">qux</text>
<text text-anchor="middle" x="524" y="-104.8" font-family="Times,serif" font-size="14.00">2010&#45;04</text>
</a>
</g>
</g>
<!-- bar.2010&#45;04&#45;&gt;qux.2010&#45;04 -->
<g id="edge4" class="edge"><title>bar.2010&#45;04&#45;&gt;qux.2010&#45;04</title>
<path fill="none" stroke="black" stroke-width="2" d="M494.094,-170.831C498.56,-162.792 503.907,-153.167 508.838,-144.292"/>
<polygon fill="black" stroke="black" stroke-width="2" points="511.973,-145.855 513.77,-135.413 505.854,-142.455 511.973,-145.855"/>
</g>
<!-- bar.2010&#45;05 -->
<g id="node9" class="node"><title>bar.2010&#45;05</title>
<g id="a_node9"><a xlink:href="bar.2010-05" xlink:title="bar\n2010&#45;05">
<polygon fill="pink" stroke="black" stroke-width="2" points="674.5,-209 613.5,-209 613.5,-171 674.5,-171 674.5,-209"/>
<text text-anchor="middle" x="644" y="-193.8" font-family="Times,serif" font-size="14.00">bar</text>
<text text-anchor="middle" x="644" y="-178.8" font-family="Times,serif" font-size="14.00">2010&#45;05</text>
</a>
</g>
</g>
<!-- qux.2010&#45;05 -->
<g id="node10" class="node"><title>qux.2010&#45;05</title>
<g id="a_node10"><a xlink:href="qux.2010-05" xlink:title="qux\n2010&#45;05">
<polygon fill="cornsilk" stroke="black" stroke-width="2" points="714.5,-135 653.5,-135 653.5,-97 714.5,-97 714.5,-135"/>
<text text-anchor="middle" x="684" y="-119.8" font-family="Times,serif" font-size="14.00">qux</text>
<text text-anchor="middle" x="684" y="-104.8" font-family="Times,serif" font-size="14.00">2010&#45;05</text>
</a>
</g>
</g>
<!-- bar.2010&#45;05&#45;&gt;qux.2010&#45;05 -->
<g id="edge5" class="edge"><title>bar.2010&#45;05&#45;&gt;qux.2010&#45;05</title>
<path fill="none" stroke="black" stroke-width="2" d="M654.094,-170.831C658.56,-162.792 663.907,-153.167 668.838,-144.292"/>
<polygon fill="black" stroke="black" stroke-width="2" points="671.973,-145.855 673.77,-135.413 665.854,-142.455 671.973,-145.855"/>
</g>
<!-- baz.2010&#45;01 -->
<g id="node11" class="node"><title>baz.2010&#45;01</title>
<g id="a_node11"><a xlink:href="baz.2010-01" xlink:title="baz\n2010&#45;01">
<polygon fill="none" stroke="black" stroke-width="2" points="194.5,-135 133.5,-135 133.5,-97 194.5,-97 194.5,-135"/>
<text text-anchor="middle" x="164" y="-119.8" font-family="Times,serif" font-size="14.00">baz</text>
<text text-anchor="middle" x="164" y="-104.8" font-family="Times,serif" font-size="14.00">2010&#45;01</text>
</a>
</g>
</g>
<!-- baz.2010&#45;01&#45;&gt;qux.2010&#45;01 -->
<g id="edge6" class="edge"><title>baz.2010&#45;01&#45;&gt;qux.2010&#45;01</title>
<path fill="none" stroke="black" stroke-width="2" d="M153.906,-96.8314C149.44,-88.7925 144.093,-79.1666 139.162,-70.2918"/>
<polygon fill="black" stroke="black" stroke-width="2" points="142.146,-68.4551 134.23,-61.4133 136.027,-71.8546 142.146,-68.4551"/>
</g>
<!-- baz.2010&#45;02 -->
<g id="node12" class="node"><title>baz.2010&#45;02</title>
<g id="a_node12"><a xlink:href="baz.2010-02" xlink:title="baz\n2010&#45;02">
<polygon fill="none" stroke="black" stroke-width="2" points="274.5,-209 213.5,-209 213.5,-171 274.5,-171 274.5,-209"/>
<text text-anchor="middle" x="244" y="-193.8" font-family="Times,serif" font-size="14.00">baz</text>
<text text-anchor="middle" x="244" y="-178.8" font-family="Times,serif" font-size="14.00">2010&#45;02</text>
</a>
</g>
</g>
<!-- baz.2010&#45;02&#45;&gt;qux.2010&#45;02 -->
<g id="edge7" class="edge"><title>baz.2010&#45;02&#45;&gt;qux.2010&#45;02</title>
<path fill="none" stroke="black" stroke-width="2" d="M244,-170.831C244,-163.131 244,-153.974 244,-145.417"/>
<polygon fill="black" stroke="black" stroke-width="2" points="247.5,-145.413 244,-135.413 240.5,-145.413 247.5,-145.413"/>
</g>
<!-- baz.2010&#45;03 -->
<g id="node13" class="node"><title>baz.2010&#45;03</title>
<g id="a_node13"><a xlink:href="baz.2010-03" xlink:title="baz\n2010&#45;03">
<polygon fill="none" stroke="black" stroke-width="2" points="434.5,-209 373.5,-209 373.5,-171 434.5,-171 434.5,-209"/>
<text text-anchor="middle" x="404" y="-193.8" font-family="Times,serif" font-size="14.00">baz</text>
<text text-anchor="middle" x="404" y="-178.8" font-family="Times,serif" font-size="14.00">2010&#45;03</text>
</a>
</g>
</g>
<!-- baz.2010&#45;03&#45;&gt;qux.2010&#45;03 -->
<g id="edge8" class="edge"><title>baz.2010&#45;03&#45;&gt;qux.2010&#45;03</title>
<path fill="none" stroke="black" stroke-width="2" d="M393.906,-170.831C389.44,-162.792 384.093,-153.167 379.162,-144.292"/>
<polygon fill="black" stroke="black" stroke-width="2" points="382.146,-142.455 374.23,-135.413 376.027,-145.855 382.146,-142.455"/>
</g>
<!-- baz.2010&#45;04 -->
<g id="node14" class="node"><title>baz.2010&#45;04</title>
<g id="a_node14"><a xlink:href="baz.2010-04" xlink:title="baz\n2010&#45;04">
<polygon fill="none" stroke="black" stroke-width="2" points="594.5,-209 533.5,-209 533.5,-171 594.5,-171 594.5,-209"/>
<text text-anchor="middle" x="564" y="-193.8" font-family="Times,serif" font-size="14.00">baz</text>
<text text-anchor="middle" x="564" y="-178.8" font-family="Times,serif" font-size="14.00">2010&#45;04</text>
</a>
</g>
</g>
<!-- baz.2010&#45;04&#45;&gt;qux.2010&#45;04 -->
<g id="edge9" class="edge"><title>baz.2010&#45;04&#45;&gt;qux.2010&#45;04</title>
<path fill="none" stroke="black" stroke-width="2" d="M553.906,-170.831C549.44,-162.792 544.093,-153.167 539.162,-144.292"/>
<polygon fill="black" stroke="black" stroke-width="2" points="542.146,-142.455 534.23,-135.413 536.027,-145.855 542.146,-142.455"/>
</g>
<!-- baz.2010&#45;05 -->
<g id="node15" class="node"><title>baz.2010&#45;05</title>
<g id="a_node15"><a xlink:href="baz.2010-05" xlink:title="baz\n2010&#45;05">
<polygon fill="none" stroke="black" stroke-width="2" points="754.5,-209 693.5,-209 693.5,-171 754.5,-171 754.5,-209"/>
<text text-anchor="middle" x="724" y="-193.8" font-family="Times,serif" font-size="14.00">baz</text>
<text text-anchor="middle" x="724" y="-178.8" font-family="Times,serif" font-size="14.00">2010&#45;05</text>
</a>
</g>
</g>
<!-- baz.2010&#45;05&#45;&gt;qux.2010&#45;05 -->
<g id="edge10" class="edge"><title>baz.2010&#45;05&#45;&gt;qux.2010&#45;05</title>
<path fill="none" stroke="black" stroke-width="2" d="M713.906,-170.831C709.44,-162.792 704.093,-153.167 699.162,-144.292"/>
<polygon fill="black" stroke="black" stroke-width="2" points="702.146,-142.455 694.23,-135.413 696.027,-145.855 702.146,-142.455"/>
</g>
<!-- foo.2010&#45;01 -->
<g id="node16" class="node"><title>foo.2010&#45;01</title>
<g id="a_node16"><a xlink:href="foo.2010-01" xlink:title="foo\n2010&#45;01">
<polygon fill="paleturquoise" stroke="black" stroke-width="2" points="114.5,-209 53.5,-209 53.5,-171 114.5,-171 114.5,-209"/>
<text text-anchor="middle" x="84" y="-193.8" font-family="Times,serif" font-size="14.00">foo</text>
<text text-anchor="middle" x="84" y="-178.8" font-family="Times,serif" font-size="14.00">2010&#45;01</text>
</a>
</g>
</g>
<!-- foo.2010&#45;01&#45;&gt;bar.2010&#45;01 -->
<g id="edge11" class="edge"><title>foo.2010&#45;01&#45;&gt;bar.2010&#45;01</title>
<path fill="none" stroke="black" stroke-width="2" d="M84,-170.831C84,-163.131 84,-153.974 84,-145.417"/>
<polygon fill="black" stroke="black" stroke-width="2" points="87.5001,-145.413 84,-135.413 80.5001,-145.413 87.5001,-145.413"/>
</g>
<!-- foo.2010&#45;01&#45;&gt;baz.2010&#45;01 -->
<g id="edge12" class="edge"><title>foo.2010&#45;01&#45;&gt;baz.2010&#45;01</title>
<path fill="none" stroke="black" stroke-width="2" d="M104.187,-170.831C113.851,-162.134 125.58,-151.578 136.082,-142.127"/>
<polygon fill="black" stroke="black" stroke-width="2" points="138.728,-144.454 143.819,-135.163 134.045,-139.251 138.728,-144.454"/>
</g>
<!-- foo.2010&#45;02 -->
<g id="node17" class="node"><title>foo.2010&#45;02</title>
<g id="a_node17"><a xlink:href="foo.2010-02" xlink:title="foo\n2010&#45;02">
<polygon fill="paleturquoise" stroke="black" stroke-width="2" points="261.5,-345 200.5,-345 200.5,-307 261.5,-307 261.5,-345"/>
<text text-anchor="middle" x="231" y="-329.8" font-family="Times,serif" font-size="14.00">foo</text>
<text text-anchor="middle" x="231" y="-314.8" font-family="Times,serif" font-size="14.00">2010&#45;02</text>
</a>
</g>
</g>
<!-- foo.2010&#45;02&#45;&gt;bar.2010&#45;02 -->
<g id="edge13" class="edge"><title>foo.2010&#45;02&#45;&gt;bar.2010&#45;02</title>
<path fill="none" stroke="black" stroke-width="2" d="M221.964,-306.928C210.575,-284.151 190.892,-244.784 177.662,-218.324"/>
<polygon fill="black" stroke="black" stroke-width="2" points="180.709,-216.592 173.107,-209.213 174.448,-219.723 180.709,-216.592"/>
</g>
<!-- foo.2010&#45;02&#45;&gt;baz.2010&#45;02 -->
<g id="edge14" class="edge"><title>foo.2010&#45;02&#45;&gt;baz.2010&#45;02</title>
<path fill="none" stroke="black" stroke-width="2" d="M232.753,-306.928C234.934,-284.45 238.682,-245.817 241.247,-219.375"/>
<polygon fill="black" stroke="black" stroke-width="2" points="244.751,-219.505 242.233,-209.213 237.784,-218.829 244.751,-219.505"/>
</g>
<!-- foo.2010&#45;03 -->
<g id="node18" class="node"><title>foo.2010&#45;03</title>
<g id="a_node18"><a xlink:href="foo.2010-03" xlink:title="foo\n2010&#45;03">
<polygon fill="paleturquoise" stroke="black" stroke-width="2" points="394.5,-345 333.5,-345 333.5,-307 394.5,-307 394.5,-345"/>
<text text-anchor="middle" x="364" y="-329.8" font-family="Times,serif" font-size="14.00">foo</text>
<text text-anchor="middle" x="364" y="-314.8" font-family="Times,serif" font-size="14.00">2010&#45;03</text>
</a>
</g>
</g>
<!-- foo.2010&#45;03&#45;&gt;bar.2010&#45;03 -->
<g id="edge15" class="edge"><title>foo.2010&#45;03&#45;&gt;bar.2010&#45;03</title>
<path fill="none" stroke="black" stroke-width="2" d="M358.605,-306.928C351.866,-284.35 340.261,-245.474 332.365,-219.023"/>
<polygon fill="black" stroke="black" stroke-width="2" points="335.651,-217.795 329.437,-209.213 328.944,-219.797 335.651,-217.795"/>
</g>
<!-- foo.2010&#45;03&#45;&gt;baz.2010&#45;03 -->
<g id="edge16" class="edge"><title>foo.2010&#45;03&#45;&gt;baz.2010&#45;03</title>
<path fill="none" stroke="black" stroke-width="2" d="M369.395,-306.928C376.134,-284.35 387.739,-245.474 395.635,-219.023"/>
<polygon fill="black" stroke="black" stroke-width="2" points="399.056,-219.797 398.563,-209.213 392.349,-217.795 399.056,-219.797"/>
</g>
<!-- foo.2010&#45;04 -->
<g id="node19" class="node"><title>foo.2010&#45;04</title>
<g id="a_node19"><a xlink:href="foo.2010-04" xlink:title="foo\n2010&#45;04">
<polygon fill="paleturquoise" stroke="black" stroke-width="2" points="554.5,-345 493.5,-345 493.5,-307 554.5,-307 554.5,-345"/>
<text text-anchor="middle" x="524" y="-329.8" font-family="Times,serif" font-size="14.00">foo</text>
<text text-anchor="middle" x="524" y="-314.8" font-family="Times,serif" font-size="14.00">2010&#45;04</text>
</a>
</g>
</g>
<!-- foo.2010&#45;04&#45;&gt;bar.2010&#45;04 -->
<g id="edge17" class="edge"><title>foo.2010&#45;04&#45;&gt;bar.2010&#45;04</title>
<path fill="none" stroke="black" stroke-width="2" d="M518.605,-306.928C511.866,-284.35 500.261,-245.474 492.365,-219.023"/>
<polygon fill="black" stroke="black" stroke-width="2" points="495.651,-217.795 489.437,-209.213 488.944,-219.797 495.651,-217.795"/>
</g>
<!-- foo.2010&#45;04&#45;&gt;baz.2010&#45;04 -->
<g id="edge18" class="edge"><title>foo.2010&#45;04&#45;&gt;baz.2010&#45;04</title>
<path fill="none" stroke="black" stroke-width="2" d="M529.395,-306.928C536.134,-284.35 547.739,-245.474 555.635,-219.023"/>
<polygon fill="black" stroke="black" stroke-width="2" points="559.056,-219.797 558.563,-209.213 552.349,-217.795 559.056,-219.797"/>
</g>
<!-- foo.2010&#45;05 -->
<g id="node20" class="node"><title>foo.2010&#45;05</title>
<g id="a_node20"><a xlink:href="foo.2010-05" xlink:title="foo\n2010&#45;05">
<polygon fill="paleturquoise" stroke="black" stroke-width="2" points="714.5,-345 653.5,-345 653.5,-307 714.5,-307 714.5,-345"/>
<text text-anchor="middle" x="684" y="-329.8" font-family="Times,serif" font-size="14.00">foo</text>
<text text-anchor="middle" x="684" y="-314.8" font-family="Times,serif" font-size="14.00">2010&#45;05</text>
</a>
</g>
</g>
<!-- foo.2010&#45;05&#45;&gt;bar.2010&#45;05 -->
<g id="edge19" class="edge"><title>foo.2010&#45;05&#45;&gt;bar.2010&#45;05</title>
<path fill="none" stroke="black" stroke-width="2" d="M678.605,-306.928C671.866,-284.35 660.261,-245.474 652.365,-219.023"/>
<polygon fill="black" stroke="black" stroke-width="2" points="655.651,-217.795 649.437,-209.213 648.944,-219.797 655.651,-217.795"/>
</g>
<!-- foo.2010&#45;05&#45;&gt;baz.2010&#45;05 -->
<g id="edge20" class="edge"><title>foo.2010&#45;05&#45;&gt;baz.2010&#45;05</title>
<path fill="none" stroke="black" stroke-width="2" d="M689.395,-306.928C696.134,-284.35 707.739,-245.474 715.635,-219.023"/>
<polygon fill="black" stroke="black" stroke-width="2" points="719.056,-219.797 718.563,-209.213 712.349,-217.795 719.056,-219.797"/>
</g>
<!-- prep.2010&#45;01 -->
<g id="node21" class="node"><title>prep.2010&#45;01</title>
<g id="a_node21"><a xlink:href="prep.2010-01" xlink:title="prep\n2010&#45;01">
<polygon fill="yellow" stroke="black" stroke-width="2" points="168.441,-344.997 103.934,-344.997 84,-406.471 64.0663,-344.997 -0.440585,-344.997 51.7466,-307.003 31.8128,-245.529 84,-283.522 136.187,-245.529 116.253,-307.003 168.441,-344.997"/>
<text text-anchor="middle" x="84" y="-329.8" font-family="Times,serif" font-size="14.00">prep</text>
<text text-anchor="middle" x="84" y="-314.8" font-family="Times,serif" font-size="14.00">2010&#45;01</text>
</a>
</g>
</g>
<!-- prep.2010&#45;01&#45;&gt;foo.2010&#45;01 -->
<g id="edge21" class="edge"><title>prep.2010&#45;01&#45;&gt;foo.2010&#45;01</title>
<path fill="none" stroke="black" stroke-width="2" d="M84,-283.336C84,-262.528 84,-237.896 84,-219.308"/>
<polygon fill="black" stroke="black" stroke-width="2" points="87.5001,-219.137 84,-209.137 80.5001,-219.137 87.5001,-219.137"/>
</g>
</g>
</svg>
