<?xml version="1.0" encoding="UTF-8" standalone="no"?>
<!DOCTYPE svg PUBLIC "-//W3C//DTD SVG 1.1//EN"
 "http://www.w3.org/Graphics/SVG/1.1/DTD/svg11.dtd">
<!-- Generated by graphviz version 2.36.0 (20140111.2315)
 -->
<!-- Title: %3 Pages: 1 -->
<svg width="790pt" height="217pt"
 viewBox="0.00 0.00 790.00 217.00" xmlns="http://www.w3.org/2000/svg" xmlns:xlink="http://www.w3.org/1999/xlink">
<g id="graph0" class="graph" transform="scale(1 1) rotate(0) translate(4 213)">
<title>%3</title>
<polygon fill="white" stroke="none" points="-4,4 -4,-213 786,-213 786,4 -4,4"/>
<text text-anchor="middle" x="391" y="-7.8" font-family="Times,serif" font-size="14.00">foo</text>
<!-- bar.2010&#45;01 -->
<g id="node1" class="node"><title>bar.2010&#45;01</title>
<g id="a_node1"><a xlink:href="bar.2010-01" xlink:title="bar\n2010&#45;01">
<polygon fill="pink" stroke="black" stroke-width="2" points="61.5,-135 0.5,-135 0.5,-97 61.5,-97 61.5,-135"/>
<text text-anchor="middle" x="31" y="-119.8" font-family="Times,serif" font-size="14.00">bar</text>
<text text-anchor="middle" x="31" y="-104.8" font-family="Times,serif" font-size="14.00">2010&#45;01</text>
</a>
</g>
</g>
<!-- qux.2010&#45;01 -->
<g id="node2" class="node"><title>qux.2010&#45;01</title>
<g id="a_node2"><a xlink:href="qux.2010-01" xlink:title="qux\n2010&#45;01">
<polygon fill="cornsilk" stroke="black" stroke-width="2" points="121.5,-61 60.5,-61 60.5,-23 121.5,-23 121.5,-61"/>
<text text-anchor="middle" x="91" y="-45.8" font-family="Times,serif" font-size="14.00">qux</text>
<text text-anchor="middle" x="91" y="-30.8" font-family="Times,serif" font-size="14.00">2010&#45;01</text>
</a>
</g>
</g>
<!-- bar.2010&#45;01&#45;&gt;qux.2010&#45;01 -->
<g id="edge1" class="edge"><title>bar.2010&#45;01&#45;&gt;qux.2010&#45;01</title>
<path fill="none" stroke="black" stroke-width="2" d="M46.1405,-96.8314C53.1217,-88.454 61.5391,-78.3531 69.1876,-69.1749"/>
<polygon fill="black" stroke="black" stroke-width="2" points="71.9425,-71.3362 75.6556,-61.4133 66.5649,-66.8548 71.9425,-71.3362"/>
</g>
<!-- bar.2010&#45;02 -->
<g id="node3" class="node"><title>bar.2010&#45;02</title>
<g id="a_node3"><a xlink:href="bar.2010-02" xlink:title="bar\n2010&#45;02">
<polygon fill="pink" stroke="black" stroke-width="2" points="221.5,-135 160.5,-135 160.5,-97 221.5,-97 221.5,-135"/>
<text text-anchor="middle" x="191" y="-119.8" font-family="Times,serif" font-size="14.00">bar</text>
<text text-anchor="middle" x="191" y="-104.8" font-family="Times,serif" font-size="14.00">2010&#45;02</text>
</a>
</g>
</g>
<!-- qux.2010&#45;02 -->
<g id="node4" class="node"><title>qux.2010&#45;02</title>
<g id="a_node4"><a xlink:href="qux.2010-02" xlink:title="qux\n2010&#45;02">
<polygon fill="cornsilk" stroke="black" stroke-width="2" points="241.5,-61 180.5,-61 180.5,-23 241.5,-23 241.5,-61"/>
<text text-anchor="middle" x="211" y="-45.8" font-family="Times,serif" font-size="14.00">qux</text>
<text text-anchor="middle" x="211" y="-30.8" font-family="Times,serif" font-size="14.00">2010&#45;02</text>
</a>
</g>
</g>
<!-- bar.2010&#45;02&#45;&gt;qux.2010&#45;02 -->
<g id="edge2" class="edge"><title>bar.2010&#45;02&#45;&gt;qux.2010&#45;02</title>
<path fill="none" stroke="black" stroke-width="2" d="M196.047,-96.8314C198.209,-89.0463 200.785,-79.7729 203.185,-71.1347"/>
<polygon fill="black" stroke="black" stroke-width="2" points="206.581,-71.9852 205.885,-61.4133 199.836,-70.1117 206.581,-71.9852"/>
</g>
<!-- bar.2010&#45;03 -->
<g id="node5" class="node"><title>bar.2010&#45;03</title>
<g id="a_node5"><a xlink:href="bar.2010-03" xlink:title="bar\n2010&#45;03">
<polygon fill="pink" stroke="black" stroke-width="2" points="381.5,-135 320.5,-135 320.5,-97 381.5,-97 381.5,-135"/>
<text text-anchor="middle" x="351" y="-119.8" font-family="Times,serif" font-size="14.00">bar</text>
<text text-anchor="middle" x="351" y="-104.8" font-family="Times,serif" font-size="14.00">2010&#45;03</text>
</a>
</g>
</g>
<!-- qux.2010&#45;03 -->
<g id="node6" class="node"><title>qux.2010&#45;03</title>
<g id="a_node6"><a xlink:href="qux.2010-03" xlink:title="qux\n2010&#45;03">
<polygon fill="cornsilk" stroke="black" stroke-width="2" points="421.5,-61 360.5,-61 360.5,-23 421.5,-23 421.5,-61"/>
<text text-anchor="middle" x="391" y="-45.8" font-family="Times,serif" font-size="14.00">qux</text>
<text text-anchor="middle" x="391" y="-30.8" font-family="Times,serif" font-size="14.00">2010&#45;03</text>
</a>
</g>
</g>
<!-- bar.2010&#45;03&#45;&gt;qux.2010&#45;03 -->
<g id="edge3" class="edge"><title>bar.2010&#45;03&#45;&gt;qux.2010&#45;03</title>
<path fill="none" stroke="black" stroke-width="2" d="M361.094,-96.8314C365.56,-88.7925 370.907,-79.1666 375.838,-70.2918"/>
<polygon fill="black" stroke="black" stroke-width="2" points="378.973,-71.8546 380.77,-61.4133 372.854,-68.4551 378.973,-71.8546"/>
</g>
<!-- bar.2010&#45;04 -->
<g id="node7" class="node"><title>bar.2010&#45;04</title>
<g id="a_node7"><a xlink:href="bar.2010-04" xlink:title="bar\n2010&#45;04">
<polygon fill="pink" stroke="black" stroke-width="2" points="541.5,-135 480.5,-135 480.5,-97 541.5,-97 541.5,-135"/>
<text text-anchor="middle" x="511" y="-119.8" font-family="Times,serif" font-size="14.00">bar</text>
<text text-anchor="middle" x="511" y="-104.8" font-family="Times,serif" font-size="14.00">2010&#45;04</text>
</a>
</g>
</g>
<!-- qux.2010&#45;04 -->
<g id="node8" class="node"><title>qux.2010&#45;04</title>
<g id="a_node8"><a xlink:href="qux.2010-04" xlink:title="qux\n2010&#45;04">
<polygon fill="cornsilk" stroke="black" stroke-width="2" points="581.5,-61 520.5,-61 520.5,-23 581.5,-23 581.5,-61"/>
<text text-anchor="middle" x="551" y="-45.8" font-family="Times,serif" font-size="14.00">qux</text>
<text text-anchor="middle" x="551" y="-30.8" font-family="Times,serif" font-size="14.00">2010&#45;04</text>
</a>
</g>
</g>
<!-- bar.2010&#45;04&#45;&gt;qux.2010&#45;04 -->
<g id="edge4" class="edge"><title>bar.2010&#45;04&#45;&gt;qux.2010&#45;04</title>
<path fill="none" stroke="black" stroke-width="2" d="M521.094,-96.8314C525.56,-88.7925 530.907,-79.1666 535.838,-70.2918"/>
<polygon fill="black" stroke="black" stroke-width="2" points="538.973,-71.8546 540.77,-61.4133 532.854,-68.4551 538.973,-71.8546"/>
</g>
<!-- bar.2010&#45;05 -->
<g id="node9" class="node"><title>bar.2010&#45;05</title>
<g id="a_node9"><a xlink:href="bar.2010-05" xlink:title="bar\n2010&#45;05">
<polygon fill="pink" stroke="black" stroke-width="2" points="701.5,-135 640.5,-135 640.5,-97 701.5,-97 701.5,-135"/>
<text text-anchor="middle" x="671" y="-119.8" font-family="Times,serif" font-size="14.00">bar</text>
<text text-anchor="middle" x="671" y="-104.8" font-family="Times,serif" font-size="14.00">2010&#45;05</text>
</a>
</g>
</g>
<!-- qux.2010&#45;05 -->
<g id="node10" class="node"><title>qux.2010&#45;05</title>
<g id="a_node10"><a xlink:href="qux.2010-05" xlink:title="qux\n2010&#45;05">
<polygon fill="cornsilk" stroke="black" stroke-width="2" points="741.5,-61 680.5,-61 680.5,-23 741.5,-23 741.5,-61"/>
<text text-anchor="middle" x="711" y="-45.8" font-family="Times,serif" font-size="14.00">qux</text>
<text text-anchor="middle" x="711" y="-30.8" font-family="Times,serif" font-size="14.00">2010&#45;05</text>
</a>
</g>
</g>
<!-- bar.2010&#45;05&#45;&gt;qux.2010&#45;05 -->
<g id="edge5" class="edge"><title>bar.2010&#45;05&#45;&gt;qux.2010&#45;05</title>
<path fill="none" stroke="black" stroke-width="2" d="M681.094,-96.8314C685.56,-88.7925 690.907,-79.1666 695.838,-70.2918"/>
<polygon fill="black" stroke="black" stroke-width="2" points="698.973,-71.8546 700.77,-61.4133 692.854,-68.4551 698.973,-71.8546"/>
</g>
<!-- baz.2010&#45;01 -->
<g id="node11" class="node"><title>baz.2010&#45;01</title>
<g id="a_node11"><a xlink:href="baz.2010-01" xlink:title="baz\n2010&#45;01">
<polygon fill="none" stroke="black" stroke-width="2" points="141.5,-135 80.5,-135 80.5,-97 141.5,-97 141.5,-135"/>
<text text-anchor="middle" x="111" y="-119.8" font-family="Times,serif" font-size="14.00">baz</text>
<text text-anchor="middle" x="111" y="-104.8" font-family="Times,serif" font-size="14.00">2010&#45;01</text>
</a>
</g>
</g>
<!-- baz.2010&#45;01&#45;&gt;qux.2010&#45;01 -->
<g id="edge6" class="edge"><title>baz.2010&#45;01&#45;&gt;qux.2010&#45;01</title>
<path fill="none" stroke="black" stroke-width="2" d="M105.953,-96.8314C103.791,-89.0463 101.215,-79.7729 98.8152,-71.1347"/>
<polygon fill="black" stroke="black" stroke-width="2" points="102.164,-70.1117 96.1148,-61.4133 95.419,-71.9852 102.164,-70.1117"/>
</g>
<!-- baz.2010&#45;02 -->
<g id="node12" class="node"><title>baz.2010&#45;02</title>
<g id="a_node12"><a xlink:href="baz.2010-02" xlink:title="baz\n2010&#45;02">
<polygon fill="none" stroke="black" stroke-width="2" points="301.5,-135 240.5,-135 240.5,-97 301.5,-97 301.5,-135"/>
<text text-anchor="middle" x="271" y="-119.8" font-family="Times,serif" font-size="14.00">baz</text>
<text text-anchor="middle" x="271" y="-104.8" font-family="Times,serif" font-size="14.00">2010&#45;02</text>
</a>
</g>
</g>
<!-- baz.2010&#45;02&#45;&gt;qux.2010&#45;02 -->
<g id="edge7" class="edge"><title>baz.2010&#45;02&#45;&gt;qux.2010&#45;02</title>
<path fill="none" stroke="black" stroke-width="2" d="M255.859,-96.8314C248.878,-88.454 240.461,-78.3531 232.812,-69.1749"/>
<polygon fill="black" stroke="black" stroke-width="2" points="235.435,-66.8548 226.344,-61.4133 230.057,-71.3362 235.435,-66.8548"/>
</g>
<!-- baz.2010&#45;03 -->
<g id="node13" class="node"><title>baz.2010&#45;03</title>
<g id="a_node13"><a xlink:href="baz.2010-03" xlink:title="baz\n2010&#45;03">
<polygon fill="none" stroke="black" stroke-width="2" points="461.5,-135 400.5,-135 400.5,-97 461.5,-97 461.5,-135"/>
<text text-anchor="middle" x="431" y="-119.8" font-family="Times,serif" font-size="14.00">baz</text>
<text text-anchor="middle" x="431" y="-104.8" font-family="Times,serif" font-size="14.00">2010&#45;03</text>
</a>
</g>
</g>
<!-- baz.2010&#45;03&#45;&gt;qux.2010&#45;03 -->
<g id="edge8" class="edge"><title>baz.2010&#45;03&#45;&gt;qux.2010&#45;03</title>
<path fill="none" stroke="black" stroke-width="2" d="M420.906,-96.8314C416.44,-88.7925 411.093,-79.1666 406.162,-70.2918"/>
<polygon fill="black" stroke="black" stroke-width="2" points="409.146,-68.4551 401.23,-61.4133 403.027,-71.8546 409.146,-68.4551"/>
</g>
<!-- baz.2010&#45;04 -->
<g id="node14" class="node"><title>baz.2010&#45;04</title>
<g id="a_node14"><a xlink:href="baz.2010-04" xlink:title="baz\n2010&#45;04">
<polygon fill="none" stroke="black" stroke-width="2" points="621.5,-135 560.5,-135 560.5,-97 621.5,-97 621.5,-135"/>
<text text-anchor="middle" x="591" y="-119.8" font-family="Times,serif" font-size="14.00">baz</text>
<text text-anchor="middle" x="591" y="-104.8" font-family="Times,serif" font-size="14.00">2010&#45;04</text>
</a>
</g>
</g>
<!-- baz.2010&#45;04&#45;&gt;qux.2010&#45;04 -->
<g id="edge9" class="edge"><title>baz.2010&#45;04&#45;&gt;qux.2010&#45;04</title>
<path fill="none" stroke="black" stroke-width="2" d="M580.906,-96.8314C576.44,-88.7925 571.093,-79.1666 566.162,-70.2918"/>
<polygon fill="black" stroke="black" stroke-width="2" points="569.146,-68.4551 561.23,-61.4133 563.027,-71.8546 569.146,-68.4551"/>
</g>
<!-- baz.2010&#45;05 -->
<g id="node15" class="node"><title>baz.2010&#45;05</title>
<g id="a_node15"><a xlink:href="baz.2010-05" xlink:title="baz\n2010&#45;05">
<polygon fill="none" stroke="black" stroke-width="2" points="781.5,-135 720.5,-135 720.5,-97 781.5,-97 781.5,-135"/>
<text text-anchor="middle" x="751" y="-119.8" font-family="Times,serif" font-size="14.00">baz</text>
<text text-anchor="middle" x="751" y="-104.8" font-family="Times,serif" font-size="14.00">2010&#45;05</text>
</a>
</g>
</g>
<!-- baz.2010&#45;05&#45;&gt;qux.2010&#45;05 -->
<g id="edge10" class="edge"><title>baz.2010&#45;05&#45;&gt;qux.2010&#45;05</title>
<path fill="none" stroke="black" stroke-width="2" d="M740.906,-96.8314C736.44,-88.7925 731.093,-79.1666 726.162,-70.2918"/>
<polygon fill="black" stroke="black" stroke-width="2" points="729.146,-68.4551 721.23,-61.4133 723.027,-71.8546 729.146,-68.4551"/>
</g>
<!-- foo.2010&#45;01 -->
<g id="node16" class="node"><title>foo.2010&#45;01</title>
<g id="a_node16"><a xlink:href="foo.2010-01" xlink:title="foo\n2010&#45;01">
<polygon fill="paleturquoise" stroke="black" stroke-width="2" points="101.5,-209 40.5,-209 40.5,-171 101.5,-171 101.5,-209"/>
<text text-anchor="middle" x="71" y="-193.8" font-family="Times,serif" font-size="14.00">foo</text>
<text text-anchor="middle" x="71" y="-178.8" font-family="Times,serif" font-size="14.00">2010&#45;01</text>
</a>
</g>
</g>
<!-- foo.2010&#45;01&#45;&gt;bar.2010&#45;01 -->
<g id="edge11" class="edge"><title>foo.2010&#45;01&#45;&gt;bar.2010&#45;01</title>
<path fill="none" stroke="black" stroke-width="2" d="M60.9063,-170.831C56.4403,-162.792 51.0925,-153.167 46.1621,-144.292"/>
<polygon fill="black" stroke="black" stroke-width="2" points="49.1456,-142.455 41.2296,-135.413 43.0265,-145.855 49.1456,-142.455"/>
</g>
<!-- foo.2010&#45;01&#45;&gt;baz.2010&#45;01 -->
<g id="edge12" class="edge"><title>foo.2010&#45;01&#45;&gt;baz.2010&#45;01</title>
<path fill="none" stroke="black" stroke-width="2" d="M81.0937,-170.831C85.5597,-162.792 90.9075,-153.167 95.8379,-144.292"/>
<polygon fill="black" stroke="black" stroke-width="2" points="98.9735,-145.855 100.77,-135.413 92.8544,-142.455 98.9735,-145.855"/>
</g>
<!-- foo.2010&#45;02 -->
<g id="node17" class="node"><title>foo.2010&#45;02</title>
<g id="a_node17"><a xlink:href="foo.2010-02" xlink:title="foo\n2010&#45;02">
<polygon fill="paleturquoise" stroke="black" stroke-width="2" points="261.5,-209 200.5,-209 200.5,-171 261.5,-171 261.5,-209"/>
<text text-anchor="middle" x="231" y="-193.8" font-family="Times,serif" font-size="14.00">foo</text>
<text text-anchor="middle" x="231" y="-178.8" font-family="Times,serif" font-size="14.00">2010&#45;02</text>
</a>
</g>
</g>
<!-- foo.2010&#45;02&#45;&gt;bar.2010&#45;02 -->
<g id="edge13" class="edge"><title>foo.2010&#45;02&#45;&gt;bar.2010&#45;02</title>
<path fill="none" stroke="black" stroke-width="2" d="M220.906,-170.831C216.44,-162.792 211.093,-153.167 206.162,-144.292"/>
<polygon fill="black" stroke="black" stroke-width="2" points="209.146,-142.455 201.23,-135.413 203.027,-145.855 209.146,-142.455"/>
</g>
<!-- foo.2010&#45;02&#45;&gt;baz.2010&#45;02 -->
<g id="edge14" class="edge"><title>foo.2010&#45;02&#45;&gt;baz.2010&#45;02</title>
<path fill="none" stroke="black" stroke-width="2" d="M241.094,-170.831C245.56,-162.792 250.907,-153.167 255.838,-144.292"/>
<polygon fill="black" stroke="black" stroke-width="2" points="258.973,-145.855 260.77,-135.413 252.854,-142.455 258.973,-145.855"/>
</g>
<!-- foo.2010&#45;03 -->
<g id="node18" class="node"><title>foo.2010&#45;03</title>
<g id="a_node18"><a xlink:href="foo.2010-03" xlink:title="foo\n2010&#45;03">
<polygon fill="paleturquoise" stroke="black" stroke-width="2" points="421.5,-209 360.5,-209 360.5,-171 421.5,-171 421.5,-209"/>
<text text-anchor="middle" x="391" y="-193.8" font-family="Times,serif" font-size="14.00">foo</text>
<text text-anchor="middle" x="391" y="-178.8" font-family="Times,serif" font-size="14.00">2010&#45;03</text>
</a>
</g>
</g>
<!-- foo.2010&#45;03&#45;&gt;bar.2010&#45;03 -->
<g id="edge15" class="edge"><title>foo.2010&#45;03&#45;&gt;bar.2010&#45;03</title>
<path fill="none" stroke="black" stroke-width="2" d="M380.906,-170.831C376.44,-162.792 371.093,-153.167 366.162,-144.292"/>
<polygon fill="black" stroke="black" stroke-width="2" points="369.146,-142.455 361.23,-135.413 363.027,-145.855 369.146,-142.455"/>
</g>
<!-- foo.2010&#45;03&#45;&gt;baz.2010&#45;03 -->
<g id="edge16" class="edge"><title>foo.2010&#45;03&#45;&gt;baz.2010&#45;03</title>
<path fill="none" stroke="black" stroke-width="2" d="M401.094,-170.831C405.56,-162.792 410.907,-153.167 415.838,-144.292"/>
<polygon fill="black" stroke="black" stroke-width="2" points="418.973,-145.855 420.77,-135.413 412.854,-142.455 418.973,-145.855"/>
</g>
<!-- foo.2010&#45;04 -->
<g id="node19" class="node"><title>foo.2010&#45;04</title>
<g id="a_node19"><a xlink:href="foo.2010-04" xlink:title="foo\n2010&#45;04">
<polygon fill="paleturquoise" stroke="black" stroke-width="2" points="581.5,-209 520.5,-209 520.5,-171 581.5,-171 581.5,-209"/>
<text text-anchor="middle" x="551" y="-193.8" font-family="Times,serif" font-size="14.00">foo</text>
<text text-anchor="middle" x="551" y="-178.8" font-family="Times,serif" font-size="14.00">2010&#45;04</text>
</a>
</g>
</g>
<!-- foo.2010&#45;04&#45;&gt;bar.2010&#45;04 -->
<g id="edge17" class="edge"><title>foo.2010&#45;04&#45;&gt;bar.2010&#45;04</title>
<path fill="none" stroke="black" stroke-width="2" d="M540.906,-170.831C536.44,-162.792 531.093,-153.167 526.162,-144.292"/>
<polygon fill="black" stroke="black" stroke-width="2" points="529.146,-142.455 521.23,-135.413 523.027,-145.855 529.146,-142.455"/>
</g>
<!-- foo.2010&#45;04&#45;&gt;baz.2010&#45;04 -->
<g id="edge18" class="edge"><title>foo.2010&#45;04&#45;&gt;baz.2010&#45;04</title>
<path fill="none" stroke="black" stroke-width="2" d="M561.094,-170.831C565.56,-162.792 570.907,-153.167 575.838,-144.292"/>
<polygon fill="black" stroke="black" stroke-width="2" points="578.973,-145.855 580.77,-135.413 572.854,-142.455 578.973,-145.855"/>
</g>
<!-- foo.2010&#45;05 -->
<g id="node20" class="node"><title>foo.2010&#45;05</title>
<g id="a_node20"><a xlink:href="foo.2010-05" xlink:title="foo\n2010&#45;05">
<polygon fill="paleturquoise" stroke="black" stroke-width="2" points="741.5,-209 680.5,-209 680.5,-171 741.5,-171 741.5,-209"/>
<text text-anchor="middle" x="711" y="-193.8" font-family="Times,serif" font-size="14.00">foo</text>
<text text-anchor="middle" x="711" y="-178.8" font-family="Times,serif" font-size="14.00">2010&#45;05</text>
</a>
</g>
</g>
<!-- foo.2010&#45;05&#45;&gt;bar.2010&#45;05 -->
<g id="edge19" class="edge"><title>foo.2010&#45;05&#45;&gt;bar.2010&#45;05</title>
<path fill="none" stroke="black" stroke-width="2" d="M700.906,-170.831C696.44,-162.792 691.093,-153.167 686.162,-144.292"/>
<polygon fill="black" stroke="black" stroke-width="2" points="689.146,-142.455 681.23,-135.413 683.027,-145.855 689.146,-142.455"/>
</g>
<!-- foo.2010&#45;05&#45;&gt;baz.2010&#45;05 -->
<g id="edge20" class="edge"><title>foo.2010&#45;05&#45;&gt;baz.2010&#45;05</title>
<path fill="none" stroke="black" stroke-width="2" d="M721.094,-170.831C725.56,-162.792 730.907,-153.167 735.838,-144.292"/>
<polygon fill="black" stroke="black" stroke-width="2" points="738.973,-145.855 740.77,-135.413 732.854,-142.455 738.973,-145.855"/>
</g>
</g>
</svg>
