<?xml version="1.0" encoding="UTF-8" standalone="no"?>
<!DOCTYPE svg PUBLIC "-//W3C//DTD SVG 1.1//EN"
 "http://www.w3.org/Graphics/SVG/1.1/DTD/svg11.dtd">
<!-- Generated by graphviz version 2.36.0 (20140111.2315)
 -->
<!-- Title: %3 Pages: 1 -->
<svg width="134pt" height="217pt"
 viewBox="0.00 0.00 134.00 217.00" xmlns="http://www.w3.org/2000/svg" xmlns:xlink="http://www.w3.org/1999/xlink">
<g id="graph0" class="graph" transform="scale(1 1) rotate(0) translate(4 213)">
<title>%3</title>
<polygon fill="white" stroke="none" points="-4,4 -4,-213 130,-213 130,4 -4,4"/>
<text text-anchor="middle" x="63" y="-7.8" font-family="Times,serif" font-size="14.00">foo</text>
<!-- bar.1 -->
<g id="node1" class="node"><title>bar.1</title>
<g id="a_node1"><a xlink:href="bar.1" xlink:title="bar\n1">
<polygon fill="pink" stroke="black" stroke-width="2" points="54,-135 0,-135 0,-97 54,-97 54,-135"/>
<text text-anchor="middle" x="27" y="-119.8" font-family="Times,serif" font-size="14.00">bar</text>
<text text-anchor="middle" x="27" y="-104.8" font-family="Times,serif" font-size="14.00">1</text>
</a>
</g>
</g>
<!-- qux.1 -->
<g id="node2" class="node"><title>qux.1</title>
<g id="a_node2"><a xlink:href="qux.1" xlink:title="qux\n1">
<polygon fill="cornsilk" stroke="black" stroke-width="2" points="90,-61 36,-61 36,-23 90,-23 90,-61"/>
<text text-anchor="middle" x="63" y="-45.8" font-family="Times,serif" font-size="14.00">qux</text>
<text text-anchor="middle" x="63" y="-30.8" font-family="Times,serif" font-size="14.00">1</text>
</a>
</g>
</g>
<!-- bar.1&#45;&gt;qux.1 -->
<g id="edge1" class="edge"><title>bar.1&#45;&gt;qux.1</title>
<path fill="none" stroke="black" stroke-width="2" d="M36.0843,-96.8314C40.0615,-88.8771 44.8155,-79.369 49.2139,-70.5723"/>
<polygon fill="black" stroke="black" stroke-width="2" points="52.4517,-71.9228 53.7934,-61.4133 46.1907,-68.7923 52.4517,-71.9228"/>
</g>
<!-- baz.1 -->
<g id="node3" class="node"><title>baz.1</title>
<g id="a_node3"><a xlink:href="baz.1" xlink:title="baz\n1">
<polygon fill="none" stroke="black" stroke-width="2" points="126,-135 72,-135 72,-97 126,-97 126,-135"/>
<text text-anchor="middle" x="99" y="-119.8" font-family="Times,serif" font-size="14.00">baz</text>
<text text-anchor="middle" x="99" y="-104.8" font-family="Times,serif" font-size="14.00">1</text>
</a>
</g>
</g>
<!-- baz.1&#45;&gt;qux.1 -->
<g id="edge2" class="edge"><title>baz.1&#45;&gt;qux.1</title>
<path fill="none" stroke="black" stroke-width="2" d="M89.9157,-96.8314C85.9385,-88.8771 81.1845,-79.369 76.7861,-70.5723"/>
<polygon fill="black" stroke="black" stroke-width="2" points="79.8093,-68.7923 72.2066,-61.4133 73.5483,-71.9228 79.8093,-68.7923"/>
</g>
<!-- foo.1 -->
<g id="node4" class="node"><title>foo.1</title>
<g id="a_node4"><a xlink:href="foo.1" xlink:title="foo\n1">
<polygon fill="paleturquoise" stroke="black" stroke-width="2" points="90,-209 36,-209 36,-171 90,-171 90,-209"/>
<text text-anchor="middle" x="63" y="-193.8" font-family="Times,serif" font-size="14.00">foo</text>
<text text-anchor="middle" x="63" y="-178.8" font-family="Times,serif" font-size="14.00">1</text>
</a>
</g>
</g>
<!-- foo.1&#45;&gt;bar.1 -->
<g id="edge3" class="edge"><title>foo.1&#45;&gt;bar.1</title>
<path fill="none" stroke="black" stroke-width="2" d="M53.9157,-170.831C49.9385,-162.877 45.1845,-153.369 40.7861,-144.572"/>
<polygon fill="black" stroke="black" stroke-width="2" points="43.8093,-142.792 36.2066,-135.413 37.5483,-145.923 43.8093,-142.792"/>
</g>
<!-- foo.1&#45;&gt;baz.1 -->
<g id="edge4" class="edge"><title>foo.1&#45;&gt;baz.1</title>
<path fill="none" stroke="black" stroke-width="2" d="M72.0843,-170.831C76.0615,-162.877 80.8155,-153.369 85.2139,-144.572"/>
<polygon fill="black" stroke="black" stroke-width="2" points="88.4517,-145.923 89.7934,-135.413 82.1907,-142.792 88.4517,-145.923"/>
</g>
</g>
</svg>
