<?xml version="1.0" encoding="UTF-8" standalone="no"?>
<!-- Generated by graphviz version 2.36.0 (20140111.2315)
 -->

<!-- Title: %3 Pages: 1 -->

<svg
   xmlns:dc="http://purl.org/dc/elements/1.1/"
   xmlns:cc="http://creativecommons.org/ns#"
   xmlns:rdf="http://www.w3.org/1999/02/22-rdf-syntax-ns#"
   xmlns:svg="http://www.w3.org/2000/svg"
   xmlns="http://www.w3.org/2000/svg"
   xmlns:xlink="http://www.w3.org/1999/xlink"
   xmlns:sodipodi="http://sodipodi.sourceforge.net/DTD/sodipodi-0.dtd"
   xmlns:inkscape="http://www.inkscape.org/namespaces/inkscape"
   width="466pt"
   height="644pt"
   viewBox="0.00 0.00 466.00 644.00"
   id="svg38621"
   version="1.1"
   inkscape:version="0.48.4 r9939"
   sodipodi:docname="graph1-cont.svg">
  <metadata
     id="metadata38909">
    <rdf:RDF>
      <cc:Work
         rdf:about="">
        <dc:format>image/svg+xml</dc:format>
        <dc:type
           rdf:resource="http://purl.org/dc/dcmitype/StillImage" />
      </cc:Work>
    </rdf:RDF>
  </metadata>
  <defs
     id="defs38907" />
  <sodipodi:namedview
     pagecolor="#ffffff"
     bordercolor="#666666"
     borderopacity="1"
     objecttolerance="10"
     gridtolerance="10"
     guidetolerance="10"
     inkscape:pageopacity="0"
     inkscape:pageshadow="2"
     inkscape:window-width="640"
     inkscape:window-height="480"
     id="namedview38905"
     showgrid="false"
     inkscape:zoom="0.2931677"
     inkscape:cx="291.25"
     inkscape:cy="402.5"
     inkscape:window-x="0"
     inkscape:window-y="26"
     inkscape:window-maximized="0"
     inkscape:current-layer="graph0" />
  <g
     id="graph0"
     class="graph"
     transform="scale(1 1) rotate(0) translate(4 640)">
    <title
       id="title38624">%3</title>
    <polygon
       fill="white"
       stroke="none"
       points="-4,4 -4,-640 462,-640 462,4 -4,4"
       id="polygon38626" />
    <g
       id="clust1"
       class="cluster">
      <title
         id="title38631">cluster_1</title>
      <polygon
         fill="none"
         stroke="black"
         stroke-dasharray="5,2"
         points="8,-211 8,-628 150,-628 150,-211 8,-211"
         id="polygon38633" />
      <text
         text-anchor="middle"
         x="79"
         y="-601.6"
         font-family="Courier"
         font-size="28.00"
         font-weight="bold"
         id="text38635">1</text>
    </g>
    <g
       id="clust2"
       class="cluster">
      <title
         id="title38638">cluster_3</title>
      <polygon
         fill="none"
         stroke="black"
         stroke-dasharray="5,2"
         points="308,-31 308,-320 450,-320 450,-31 308,-31"
         id="polygon38640" />
      <text
         text-anchor="middle"
         x="379"
         y="-293.6"
         font-family="Courier"
         font-size="28.00"
         font-weight="bold"
         id="text38642">3</text>
    </g>
    <g
       id="clust3"
       class="cluster">
      <title
         id="title38645">cluster_2</title>
      <polygon
         fill="none"
         stroke="black"
         stroke-dasharray="5,2"
         points="158,-121 158,-429 300,-429 300,-121 158,-121"
         id="polygon38647" />
      <text
         text-anchor="middle"
         x="229"
         y="-402.6"
         font-family="Courier"
         font-size="28.00"
         font-weight="bold"
         id="text38649">2</text>
    </g>
    <!-- bar.1 -->
    <g
       id="node1"
       class="node">
      <title
         id="title38652">bar.1</title>
      <g
         id="a_node1">
        <a
           xlink:href="bar.1"
           id="a38655"
           xlink:title="bar\n1">
          <ellipse
             fill="#ffcc00"
             stroke="black"
             stroke-width="2"
             cx="43"
             cy="-355"
             rx="27"
             ry="26.7407"
             id="ellipse38657"
             d="m 70,-355 c 0,14.76848 -12.088312,26.7407 -27,26.7407 -14.911688,0 -27,-11.97222 -27,-26.7407 0,-14.76848 12.088312,-26.7407 27,-26.7407 14.911688,0 27,11.97222 27,26.7407 z" />
          <text
             text-anchor="middle"
             x="43"
             y="-358.8"
             font-family="Courier"
             font-size="14.00"
             font-weight="bold"
             id="text38659">bar</text>
          <text
             text-anchor="middle"
             x="43"
             y="-343.8"
             font-family="Courier"
             font-size="14.00"
             font-weight="bold"
             id="text38661">1</text>
        </a>
      </g>
    </g>
    <!-- baz.1 -->
    <g
       id="node2"
       class="node">
      <title
         id="title38664">baz.1</title>
      <g
         id="a_node2">
        <a
           xlink:href="baz.1"
           id="a38667"
           xlink:title="baz\n1">
          <ellipse
             fill="#00c798"
             stroke="black"
             stroke-width="2"
             cx="115"
             cy="-355"
             rx="27"
             ry="26.7407"
             id="ellipse38669"
             d="m 142,-355 c 0,14.76848 -12.08831,26.7407 -27,26.7407 -14.91169,0 -27,-11.97222 -27,-26.7407 0,-14.76848 12.08831,-26.7407 27,-26.7407 14.91169,0 27,11.97222 27,26.7407 z" />
          <text
             text-anchor="middle"
             x="115"
             y="-358.8"
             font-family="Courier"
             font-size="14.00"
             font-weight="bold"
             id="text38671">baz</text>
          <text
             text-anchor="middle"
             x="115"
             y="-343.8"
             font-family="Courier"
             font-size="14.00"
             font-weight="bold"
             id="text38673">1</text>
        </a>
      </g>
    </g>
    <!-- qux.1 -->
    <g
       id="node3"
       class="node">
      <title
         id="title38676">qux.1</title>
      <g
         id="a_node3">
        <a
           xlink:href="qux.1"
           id="a38679"
           xlink:title="qux\n1">
          <ellipse
             fill="#00b4fd"
             stroke="black"
             stroke-width="2"
             cx="115"
             cy="-246"
             rx="27"
             ry="26.7407"
             id="ellipse38681"
             d="m 142,-246 c 0,14.76848 -12.08831,26.7407 -27,26.7407 -14.91169,0 -27,-11.97222 -27,-26.7407 0,-14.76848 12.08831,-26.7407 27,-26.7407 14.91169,0 27,11.97222 27,26.7407 z" />
          <text
             text-anchor="middle"
             x="115"
             y="-249.8"
             font-family="Courier"
             font-size="14.00"
             font-weight="bold"
             id="text38683">qux</text>
          <text
             text-anchor="middle"
             x="115"
             y="-234.8"
             font-family="Courier"
             font-size="14.00"
             font-weight="bold"
             id="text38685">1</text>
        </a>
      </g>
    </g>
    <!-- baz.1&#45;&gt;qux.1 -->
    <g
       id="edge2"
       class="edge">
      <title
         id="title38688">baz.1-&gt;qux.1</title>
      <path
         fill="none"
         stroke="black"
         stroke-width="2"
         d="M115,-328.098C115,-314.661 115,-298.024 115,-283.323"
         id="path38690" />
      <polygon
         fill="black"
         stroke="black"
         stroke-width="2"
         points="118.5,-283.034 115,-273.034 111.5,-283.034 118.5,-283.034"
         id="polygon38692" />
    </g>
    <!-- bar.2 -->
    <g
       id="node10"
       class="node">
      <title
         id="title38695">bar.2</title>
      <g
         id="a_node10">
        <a
           xlink:href="bar.2"
           id="a38698"
           xlink:title="bar\n2">
          <ellipse
             fill="#ffcc00"
             stroke="black"
             stroke-width="2"
             cx="193"
             cy="-246"
             rx="27"
             ry="26.7407"
             id="ellipse38700"
             d="m 220,-246 c 0,14.76848 -12.08831,26.7407 -27,26.7407 -14.91169,0 -27,-11.97222 -27,-26.7407 0,-14.76848 12.08831,-26.7407 27,-26.7407 14.91169,0 27,11.97222 27,26.7407 z" />
          <text
             text-anchor="middle"
             x="193"
             y="-249.8"
             font-family="Courier"
             font-size="14.00"
             font-weight="bold"
             id="text38702">bar</text>
          <text
             text-anchor="middle"
             x="193"
             y="-234.8"
             font-family="Courier"
             font-size="14.00"
             font-weight="bold"
             id="text38704">2</text>
        </a>
      </g>
    </g>
    <!-- baz.1&#45;&gt;bar.2 -->
    <g
       id="edge1"
       class="edge">
      <title
         id="title38707">baz.1-&gt;bar.2</title>
      <path
         fill="none"
         stroke="black"
         stroke-width="2"
         d="M136.174,-337.978C142.37,-332.676 148.854,-326.466 154,-320 163.576,-307.968 171.962,-293.237 178.479,-280.168"
         id="path38709" />
      <polygon
         fill="black"
         stroke="black"
         stroke-width="2"
         points="181.704,-281.536 182.884,-271.007 175.396,-278.502 181.704,-281.536"
         id="polygon38711" />
    </g>
    <!-- foo.1 -->
    <g
       id="node4"
       class="node">
      <title
         id="title38714">foo.1</title>
      <g
         id="a_node4">
        <a
           xlink:href="foo.1"
           id="a38717"
           xlink:title="foo\n1">
          <ellipse
             fill="#ff5d6a"
             stroke="black"
             stroke-width="2"
             cx="114"
             cy="-464"
             rx="27"
             ry="26.7407"
             id="ellipse38719"
             d="m 141,-464 c 0,14.76848 -12.08831,26.7407 -27,26.7407 -14.911688,0 -27,-11.97222 -27,-26.7407 0,-14.76848 12.088312,-26.7407 27,-26.7407 14.91169,0 27,11.97222 27,26.7407 z" />
          <text
             text-anchor="middle"
             x="114"
             y="-467.8"
             font-family="Courier"
             font-size="14.00"
             font-weight="bold"
             id="text38721">foo</text>
          <text
             text-anchor="middle"
             x="114"
             y="-452.8"
             font-family="Courier"
             font-size="14.00"
             font-weight="bold"
             id="text38723">1</text>
        </a>
      </g>
    </g>
    <!-- foo.1&#45;&gt;bar.1 -->
    <g
       id="edge6"
       class="edge">
      <title
         id="title38726">foo.1-&gt;bar.1</title>
      <path
         fill="none"
         stroke="black"
         stroke-width="2"
         d="M93.8665,-445.727C88.6428,-440.661 83.2864,-434.891 79,-429 70.321,-417.072 62.734,-402.733 56.7917,-389.934"
         id="path38728" />
      <polygon
         fill="black"
         stroke="black"
         stroke-width="2"
         points="59.8551,-388.21 52.5772,-380.511 53.4651,-391.068 59.8551,-388.21"
         id="polygon38730" />
    </g>
    <!-- foo.1&#45;&gt;baz.1 -->
    <g
       id="edge7"
       class="edge">
      <title
         id="title38733">foo.1-&gt;baz.1</title>
      <path
         fill="none"
         stroke="black"
         stroke-width="2"
         d="M114.242,-437.098C114.368,-423.661 114.523,-407.024 114.661,-392.323"
         id="path38735" />
      <polygon
         fill="black"
         stroke="black"
         stroke-width="2"
         points="118.163,-392.066 114.757,-382.034 111.163,-392.001 118.163,-392.066"
         id="polygon38737" />
    </g>
    <!-- foo.2 -->
    <g
       id="node13"
       class="node">
      <title
         id="title38740">foo.2</title>
      <g
         id="a_node13">
        <a
           xlink:href="foo.2"
           id="a38743"
           xlink:title="foo\n2">
          <ellipse
             fill="#ff5d6a"
             stroke="black"
             stroke-width="2"
             cx="229"
             cy="-355"
             rx="27"
             ry="26.7407"
             id="ellipse38745"
             d="m 256,-355 c 0,14.76848 -12.08831,26.7407 -27,26.7407 -14.91169,0 -27,-11.97222 -27,-26.7407 0,-14.76848 12.08831,-26.7407 27,-26.7407 14.91169,0 27,11.97222 27,26.7407 z" />
          <text
             text-anchor="middle"
             x="229"
             y="-358.8"
             font-family="Courier"
             font-size="14.00"
             font-weight="bold"
             id="text38747">foo</text>
          <text
             text-anchor="middle"
             x="229"
             y="-343.8"
             font-family="Courier"
             font-size="14.00"
             font-weight="bold"
             id="text38749">2</text>
        </a>
      </g>
    </g>
    <!-- foo.1&#45;&gt;foo.2 -->
    <g
       id="edge8"
       class="edge">
      <title
         id="title38752">foo.1-&gt;foo.2</title>
      <path
         fill="none"
         stroke="black"
         stroke-width="2"
         d="M134.579,-445.965C140.887,-440.621 147.798,-434.643 154,-429 170.825,-413.693 189.128,-395.901 203.441,-381.715"
         id="path38754" />
      <polygon
         fill="black"
         stroke="black"
         stroke-width="2"
         points="205.914,-384.192 210.534,-374.657 200.977,-379.23 205.914,-384.192"
         id="polygon38756" />
    </g>
    <!-- prep.1 -->
    <g
       id="node5"
       class="node">
      <title
         id="title38759">prep.1</title>
      <g
         id="a_node5">
        <a
           xlink:href="prep.1"
           id="a38762"
           xlink:title="prep\n1">
          <ellipse
             fill="slategray"
             stroke="black"
             stroke-width="2"
             cx="113"
             cy="-554"
             rx="28.4872"
             ry="26.7407"
             id="ellipse38764"
             d="m 141.4872,-554 c 0,14.76848 -12.75415,26.7407 -28.4872,26.7407 -15.733046,0 -28.4872,-11.97222 -28.4872,-26.7407 0,-14.76848 12.754154,-26.7407 28.4872,-26.7407 15.73305,0 28.4872,11.97222 28.4872,26.7407 z" />
          <text
             text-anchor="middle"
             x="113"
             y="-557.8"
             font-family="Courier"
             font-size="14.00"
             font-weight="bold"
             id="text38766">prep</text>
          <text
             text-anchor="middle"
             x="113"
             y="-542.8"
             font-family="Courier"
             font-size="14.00"
             font-weight="bold"
             id="text38768">1</text>
        </a>
      </g>
    </g>
    <!-- prep.1&#45;&gt;foo.1 -->
    <g
       id="edge14"
       class="edge">
      <title
         id="title38771">prep.1-&gt;foo.1</title>
      <path
         fill="none"
         stroke="black"
         stroke-width="2"
         d="M113.295,-527.073C113.386,-518.999 113.489,-509.943 113.588,-501.296"
         id="path38773" />
      <polygon
         fill="black"
         stroke="black"
         stroke-width="2"
         points="117.09,-501.085 113.704,-491.046 110.091,-501.005 117.09,-501.085"
         id="polygon38775" />
    </g>
    <!-- bar.3 -->
    <g
       id="node6"
       class="node">
      <title
         id="title38778">bar.3</title>
      <g
         id="a_node6">
        <a
           xlink:href="bar.3"
           id="a38781"
           xlink:title="bar\n3">
          <ellipse
             fill="#ffcc00"
             stroke="black"
             stroke-width="2"
             cx="343"
             cy="-156"
             rx="27"
             ry="26.7407"
             id="ellipse38783"
             d="m 370,-156 c 0,14.76848 -12.08831,26.7407 -27,26.7407 -14.91169,0 -27,-11.97222 -27,-26.7407 0,-14.76848 12.08831,-26.7407 27,-26.7407 14.91169,0 27,11.97222 27,26.7407 z" />
          <text
             text-anchor="middle"
             x="343"
             y="-159.8"
             font-family="Courier"
             font-size="14.00"
             font-weight="bold"
             id="text38785">bar</text>
          <text
             text-anchor="middle"
             x="343"
             y="-144.8"
             font-family="Courier"
             font-size="14.00"
             font-weight="bold"
             id="text38787">3</text>
        </a>
      </g>
    </g>
    <!-- baz.3 -->
    <g
       id="node7"
       class="node">
      <title
         id="title38790">baz.3</title>
      <g
         id="a_node7">
        <a
           xlink:href="baz.3"
           id="a38793"
           xlink:title="baz\n3">
          <ellipse
             fill="#00c798"
             stroke="black"
             stroke-width="2"
             cx="415"
             cy="-156"
             rx="27"
             ry="26.7407"
             id="ellipse38795"
             d="m 442,-156 c 0,14.76848 -12.08831,26.7407 -27,26.7407 -14.91169,0 -27,-11.97222 -27,-26.7407 0,-14.76848 12.08831,-26.7407 27,-26.7407 14.91169,0 27,11.97222 27,26.7407 z" />
          <text
             text-anchor="middle"
             x="415"
             y="-159.8"
             font-family="Courier"
             font-size="14.00"
             font-weight="bold"
             id="text38797">baz</text>
          <text
             text-anchor="middle"
             x="415"
             y="-144.8"
             font-family="Courier"
             font-size="14.00"
             font-weight="bold"
             id="text38799">3</text>
        </a>
      </g>
    </g>
    <!-- qux.3 -->
    <g
       id="node8"
       class="node">
      <title
         id="title38802">qux.3</title>
      <g
         id="a_node8">
        <a
           xlink:href="qux.3"
           id="a38805"
           xlink:title="qux\n3">
          <ellipse
             fill="#00b4fd"
             stroke="black"
             stroke-width="2"
             cx="415"
             cy="-66"
             rx="27"
             ry="26.7407"
             id="ellipse38807"
             d="m 442,-66 c 0,14.768481 -12.08831,26.7407 -27,26.7407 -14.91169,0 -27,-11.972219 -27,-26.7407 0,-14.768481 12.08831,-26.7407 27,-26.7407 14.91169,0 27,11.972219 27,26.7407 z" />
          <text
             text-anchor="middle"
             x="415"
             y="-69.8"
             font-family="Courier"
             font-size="14.00"
             font-weight="bold"
             id="text38809">qux</text>
          <text
             text-anchor="middle"
             x="415"
             y="-54.8"
             font-family="Courier"
             font-size="14.00"
             font-weight="bold"
             id="text38811">3</text>
        </a>
      </g>
    </g>
    <!-- baz.3&#45;&gt;qux.3 -->
    <g
       id="edge5"
       class="edge">
      <title
         id="title38814">baz.3-&gt;qux.3</title>
      <path
         fill="none"
         stroke="black"
         stroke-width="2"
         d="M415,-129.073C415,-120.999 415,-111.943 415,-103.296"
         id="path38816" />
      <polygon
         fill="black"
         stroke="black"
         stroke-width="2"
         points="418.5,-103.046 415,-93.0457 411.5,-103.046 418.5,-103.046"
         id="polygon38818" />
    </g>
    <!-- foo.3 -->
    <g
       id="node9"
       class="node">
      <title
         id="title38821">foo.3</title>
      <g
         id="a_node9">
        <a
           xlink:href="foo.3"
           id="a38824"
           xlink:title="foo\n3">
          <ellipse
             fill="#ff5d6a"
             stroke="black"
             stroke-width="2"
             cx="343"
             cy="-246"
             rx="27"
             ry="26.7407"
             id="ellipse38826"
             d="m 370,-246 c 0,14.76848 -12.08831,26.7407 -27,26.7407 -14.91169,0 -27,-11.97222 -27,-26.7407 0,-14.76848 12.08831,-26.7407 27,-26.7407 14.91169,0 27,11.97222 27,26.7407 z" />
          <text
             text-anchor="middle"
             x="343"
             y="-249.8"
             font-family="Courier"
             font-size="14.00"
             font-weight="bold"
             id="text38828">foo</text>
          <text
             text-anchor="middle"
             x="343"
             y="-234.8"
             font-family="Courier"
             font-size="14.00"
             font-weight="bold"
             id="text38830">3</text>
        </a>
      </g>
    </g>
    <!-- foo.3&#45;&gt;bar.3 -->
    <g
       id="edge12"
       class="edge">
      <title
         id="title38833">foo.3-&gt;bar.3</title>
      <path
         fill="none"
         stroke="black"
         stroke-width="2"
         d="M343,-219.073C343,-210.999 343,-201.943 343,-193.296"
         id="path38835" />
      <polygon
         fill="black"
         stroke="black"
         stroke-width="2"
         points="346.5,-193.046 343,-183.046 339.5,-193.046 346.5,-193.046"
         id="polygon38837" />
    </g>
    <!-- foo.3&#45;&gt;baz.3 -->
    <g
       id="edge13"
       class="edge">
      <title
         id="title38840">foo.3-&gt;baz.3</title>
      <path
         fill="none"
         stroke="black"
         stroke-width="2"
         d="M359.699,-224.59C369.241,-212.928 381.351,-198.127 391.805,-185.35"
         id="path38842" />
      <polygon
         fill="black"
         stroke="black"
         stroke-width="2"
         points="394.768,-187.255 398.391,-177.299 389.35,-182.823 394.768,-187.255"
         id="polygon38844" />
    </g>
    <!-- baz.2 -->
    <g
       id="node11"
       class="node">
      <title
         id="title38847">baz.2</title>
      <g
         id="a_node11">
        <a
           xlink:href="baz.2"
           id="a38850"
           xlink:title="baz\n2">
          <ellipse
             fill="#00c798"
             stroke="black"
             stroke-width="2"
             cx="265"
             cy="-246"
             rx="27"
             ry="26.7407"
             id="ellipse38852"
             d="m 292,-246 c 0,14.76848 -12.08831,26.7407 -27,26.7407 -14.91169,0 -27,-11.97222 -27,-26.7407 0,-14.76848 12.08831,-26.7407 27,-26.7407 14.91169,0 27,11.97222 27,26.7407 z" />
          <text
             text-anchor="middle"
             x="265"
             y="-249.8"
             font-family="Courier"
             font-size="14.00"
             font-weight="bold"
             id="text38854">baz</text>
          <text
             text-anchor="middle"
             x="265"
             y="-234.8"
             font-family="Courier"
             font-size="14.00"
             font-weight="bold"
             id="text38856">2</text>
        </a>
      </g>
    </g>
    <!-- baz.2&#45;&gt;bar.3 -->
    <g
       id="edge3"
       class="edge">
      <title
         id="title38859">baz.2-&gt;bar.3</title>
      <path
         fill="none"
         stroke="black"
         stroke-width="2"
         d="M282.699,-225.031C293.345,-213.021 307.045,-197.565 318.696,-184.42"
         id="path38861" />
      <polygon
         fill="black"
         stroke="black"
         stroke-width="2"
         points="321.625,-186.391 325.639,-176.586 316.387,-181.748 321.625,-186.391"
         id="polygon38863" />
    </g>
    <!-- qux.2 -->
    <g
       id="node12"
       class="node">
      <title
         id="title38866">qux.2</title>
      <g
         id="a_node12">
        <a
           xlink:href="qux.2"
           id="a38869"
           xlink:title="qux\n2">
          <ellipse
             fill="#00b4fd"
             stroke="black"
             stroke-width="2"
             cx="265"
             cy="-156"
             rx="27"
             ry="26.7407"
             id="ellipse38871"
             d="m 292,-156 c 0,14.76848 -12.08831,26.7407 -27,26.7407 -14.91169,0 -27,-11.97222 -27,-26.7407 0,-14.76848 12.08831,-26.7407 27,-26.7407 14.91169,0 27,11.97222 27,26.7407 z" />
          <text
             text-anchor="middle"
             x="265"
             y="-159.8"
             font-family="Courier"
             font-size="14.00"
             font-weight="bold"
             id="text38873">qux</text>
          <text
             text-anchor="middle"
             x="265"
             y="-144.8"
             font-family="Courier"
             font-size="14.00"
             font-weight="bold"
             id="text38875">2</text>
        </a>
      </g>
    </g>
    <!-- baz.2&#45;&gt;qux.2 -->
    <g
       id="edge4"
       class="edge">
      <title
         id="title38878">baz.2-&gt;qux.2</title>
      <path
         fill="none"
         stroke="black"
         stroke-width="2"
         d="M265,-219.073C265,-210.999 265,-201.943 265,-193.296"
         id="path38880" />
      <polygon
         fill="black"
         stroke="black"
         stroke-width="2"
         points="268.5,-193.046 265,-183.046 261.5,-193.046 268.5,-193.046"
         id="polygon38882" />
    </g>
    <!-- foo.2&#45;&gt;foo.3 -->
    <g
       id="edge11"
       class="edge">
      <title
         id="title38885">foo.2-&gt;foo.3</title>
      <path
         fill="none"
         stroke="black"
         stroke-width="2"
         d="M255.05,-346.878C270.719,-341.539 290.229,-332.903 304,-320 315.391,-309.327 324.137,-294.567 330.432,-281.111"
         id="path38887" />
      <polygon
         fill="black"
         stroke="black"
         stroke-width="2"
         points="333.782,-282.184 334.585,-271.62 327.37,-279.378 333.782,-282.184"
         id="polygon38889" />
    </g>
    <!-- foo.2&#45;&gt;bar.2 -->
    <g
       id="edge9"
       class="edge">
      <title
         id="title38892">foo.2-&gt;bar.2</title>
      <path
         fill="none"
         stroke="black"
         stroke-width="2"
         d="M220.65,-329.183C215.88,-315.003 209.825,-297.006 204.598,-281.471"
         id="path38894" />
      <polygon
         fill="black"
         stroke="black"
         stroke-width="2"
         points="207.811,-280.044 201.304,-271.682 201.176,-282.276 207.811,-280.044"
         id="polygon38896" />
    </g>
    <!-- foo.2&#45;&gt;baz.2 -->
    <g
       id="edge10"
       class="edge">
      <title
         id="title38899">foo.2-&gt;baz.2</title>
      <path
         fill="none"
         stroke="black"
         stroke-width="2"
         d="M237.35,-329.183C242.12,-315.003 248.175,-297.006 253.402,-281.471"
         id="path38901" />
      <polygon
         fill="black"
         stroke="black"
         stroke-width="2"
         points="256.824,-282.276 256.696,-271.682 250.189,-280.044 256.824,-282.276"
         id="polygon38903" />
    </g>
  </g>
</svg>
