<?xml version="1.0" encoding="UTF-8" standalone="no"?>
<!-- Generated by graphviz version 2.36.0 (20140111.2315)
 -->

<!-- Title: %3 Pages: 1 -->

<svg
   xmlns:dc="http://purl.org/dc/elements/1.1/"
   xmlns:cc="http://creativecommons.org/ns#"
   xmlns:rdf="http://www.w3.org/1999/02/22-rdf-syntax-ns#"
   xmlns:svg="http://www.w3.org/2000/svg"
   xmlns="http://www.w3.org/2000/svg"
   xmlns:xlink="http://www.w3.org/1999/xlink"
   xmlns:sodipodi="http://sodipodi.sourceforge.net/DTD/sodipodi-0.dtd"
   xmlns:inkscape="http://www.inkscape.org/namespaces/inkscape"
   width="342pt"
   height="83pt"
   viewBox="0.00 0.00 342.00 83.00"
   id="svg2"
   version="1.1"
   inkscape:version="0.48.4 r9939"
   sodipodi:docname="param-simple.svg">
  <metadata
     id="metadata84">
    <rdf:RDF>
      <cc:Work
         rdf:about="">
        <dc:format>image/svg+xml</dc:format>
        <dc:type
           rdf:resource="http://purl.org/dc/dcmitype/StillImage" />
      </cc:Work>
    </rdf:RDF>
  </metadata>
  <defs
     id="defs82" />
  <sodipodi:namedview
     pagecolor="#ffffff"
     bordercolor="#666666"
     borderopacity="1"
     objecttolerance="10"
     gridtolerance="10"
     guidetolerance="10"
     inkscape:pageopacity="0"
     inkscape:pageshadow="2"
     inkscape:window-width="640"
     inkscape:window-height="480"
     id="namedview80"
     showgrid="false"
     inkscape:zoom="0.76725146"
     inkscape:cx="213.75"
     inkscape:cy="51.875"
     inkscape:window-x="0"
     inkscape:window-y="26"
     inkscape:window-maximized="0"
     inkscape:current-layer="graph0" />
  <g
     id="graph0"
     class="graph"
     transform="scale(1 1) rotate(0) translate(4 79)">
    <title
       id="title5">%3</title>
    <polygon
       fill="white"
       stroke="none"
       points="-4,4 -4,-79 338,-79 338,4 -4,4"
       id="polygon7" />
    <!-- post.1 -->
    <g
       id="node1"
       class="node">
      <title
         id="title12">post.1</title>
      <g
         id="a_node1">
        <a
           xlink:href="post.1"
           id="a15"
           xlink:title="post\n1">
          <ellipse
             fill="floralwhite"
             stroke="black"
             stroke-width="2"
             cx="208"
             cy="-49"
             rx="27.6545"
             ry="26.7407"
             id="ellipse17"
             d="m 235.6545,-49 c 0,14.768481 -12.38134,26.7407 -27.6545,26.7407 -15.27316,0 -27.6545,-11.972219 -27.6545,-26.7407 0,-14.768481 12.38134,-26.7407 27.6545,-26.7407 15.27316,0 27.6545,11.972219 27.6545,26.7407 z" />
          <text
             text-anchor="middle"
             x="208"
             y="-52.8"
             font-family="Times,serif"
             font-size="14.00"
             id="text19">post</text>
          <text
             text-anchor="middle"
             x="208"
             y="-37.8"
             font-family="Times,serif"
             font-size="14.00"
             id="text21">1</text>
        </a>
      </g>
    </g>
    <!-- done.1 -->
    <g
       id="node2"
       class="node">
      <title
         id="title24">done.1</title>
      <g
         id="a_node2">
        <a
           xlink:href="done.1"
           id="a27"
           xlink:title="done\n1">
          <ellipse
             fill="floralwhite"
             stroke="black"
             stroke-width="2"
             cx="303"
             cy="-49"
             rx="30.3115"
             ry="26.7407"
             id="ellipse29"
             d="m 333.3115,-49 c 0,14.768481 -13.57092,26.7407 -30.3115,26.7407 -16.74058,0 -30.3115,-11.972219 -30.3115,-26.7407 0,-14.768481 13.57092,-26.7407 30.3115,-26.7407 16.74058,0 30.3115,11.972219 30.3115,26.7407 z" />
          <text
             text-anchor="middle"
             x="303"
             y="-52.8"
             font-family="Times,serif"
             font-size="14.00"
             id="text31">done</text>
          <text
             text-anchor="middle"
             x="303"
             y="-37.8"
             font-family="Times,serif"
             font-size="14.00"
             id="text33">1</text>
        </a>
      </g>
    </g>
    <!-- post.1&#45;&gt;done.1 -->
    <g
       id="edge1"
       class="edge">
      <title
         id="title36">post.1-&gt;done.1</title>
      <path
         fill="none"
         stroke="black"
         stroke-width="2"
         d="M235.899,-49C244.151,-49 253.41,-49 262.327,-49"
         id="path38" />
      <polygon
         fill="black"
         stroke="black"
         stroke-width="2"
         points="262.556,-52.5001 272.556,-49 262.556,-45.5001 262.556,-52.5001"
         id="polygon40" />
    </g>
    <!-- pre.1 -->
    <g
       id="node3"
       class="node">
      <title
         id="title43">pre.1</title>
      <g
         id="a_node3">
        <a
           xlink:href="pre.1"
           id="a46"
           xlink:title="pre\n1">
          <ellipse
             fill="floralwhite"
             stroke="black"
             stroke-width="2"
             cx="27"
             cy="-49"
             rx="27"
             ry="26.7407"
             id="ellipse48"
             d="m 54,-49 c 0,14.768481 -12.088312,26.7407 -27,26.7407 -14.911688,0 -27,-11.972219 -27,-26.7407 0,-14.768481 12.088312,-26.7407 27,-26.7407 14.911688,0 27,11.972219 27,26.7407 z" />
          <text
             text-anchor="middle"
             x="27"
             y="-52.8"
             font-family="Times,serif"
             font-size="14.00"
             id="text50">pre</text>
          <text
             text-anchor="middle"
             x="27"
             y="-37.8"
             font-family="Times,serif"
             font-size="14.00"
             id="text52">1</text>
        </a>
      </g>
    </g>
    <!-- sim.1 -->
    <g
       id="node4"
       class="node">
      <title
         id="title55">sim.1</title>
      <g
         id="a_node4">
        <a
           xlink:href="sim.1"
           id="a58"
           xlink:title="sim\n1">
          <ellipse
             fill="floralwhite"
             stroke="black"
             stroke-width="2"
             cx="117"
             cy="-49"
             rx="27"
             ry="26.7407"
             id="ellipse60"
             d="m 144,-49 c 0,14.768481 -12.08831,26.7407 -27,26.7407 -14.91169,0 -27,-11.972219 -27,-26.7407 0,-14.768481 12.08831,-26.7407 27,-26.7407 14.91169,0 27,11.972219 27,26.7407 z" />
          <text
             text-anchor="middle"
             x="117"
             y="-52.8"
             font-family="Times,serif"
             font-size="14.00"
             id="text62">sim</text>
          <text
             text-anchor="middle"
             x="117"
             y="-37.8"
             font-family="Times,serif"
             font-size="14.00"
             id="text64">1</text>
        </a>
      </g>
    </g>
    <!-- pre.1&#45;&gt;sim.1 -->
    <g
       id="edge2"
       class="edge">
      <title
         id="title67">pre.1-&gt;sim.1</title>
      <path
         fill="none"
         stroke="black"
         stroke-width="2"
         d="M54.4029,-49C62.3932,-49 71.3106,-49 79.8241,-49"
         id="path69" />
      <polygon
         fill="black"
         stroke="black"
         stroke-width="2"
         points="79.919,-52.5001 89.919,-49 79.919,-45.5001 79.919,-52.5001"
         id="polygon71" />
    </g>
    <!-- sim.1&#45;&gt;post.1 -->
    <g
       id="edge3"
       class="edge">
      <title
         id="title74">sim.1-&gt;post.1</title>
      <path
         fill="none"
         stroke="black"
         stroke-width="2"
         d="M144.222,-49C152.403,-49 161.582,-49 170.343,-49"
         id="path76" />
      <polygon
         fill="black"
         stroke="black"
         stroke-width="2"
         points="170.35,-52.5001 180.35,-49 170.35,-45.5001 170.35,-52.5001"
         id="polygon78" />
    </g>
  </g>
</svg>
