<?xml version="1.0" encoding="UTF-8" standalone="no"?>
<!-- Generated by graphviz version 2.36.0 (20140111.2315)
 -->

<!-- Title: %3 Pages: 1 -->

<svg
   xmlns:dc="http://purl.org/dc/elements/1.1/"
   xmlns:cc="http://creativecommons.org/ns#"
   xmlns:rdf="http://www.w3.org/1999/02/22-rdf-syntax-ns#"
   xmlns:svg="http://www.w3.org/2000/svg"
   xmlns="http://www.w3.org/2000/svg"
   xmlns:xlink="http://www.w3.org/1999/xlink"
   xmlns:sodipodi="http://sodipodi.sourceforge.net/DTD/sodipodi-0.dtd"
   xmlns:inkscape="http://www.inkscape.org/namespaces/inkscape"
   width="412pt"
   height="371pt"
   viewBox="0.00 0.00 412.00 371.00"
   id="svg2"
   version="1.1"
   inkscape:version="0.48.4 r9939"
   sodipodi:docname="params-5.svg">
  <metadata
     id="metadata264">
    <rdf:RDF>
      <cc:Work
         rdf:about="">
        <dc:format>image/svg+xml</dc:format>
        <dc:type
           rdf:resource="http://purl.org/dc/dcmitype/StillImage" />
      </cc:Work>
    </rdf:RDF>
  </metadata>
  <defs
     id="defs262" />
  <sodipodi:namedview
     pagecolor="#ffffff"
     bordercolor="#666666"
     borderopacity="1"
     objecttolerance="10"
     gridtolerance="10"
     guidetolerance="10"
     inkscape:pageopacity="0"
     inkscape:pageshadow="2"
     inkscape:window-width="640"
     inkscape:window-height="480"
     id="namedview260"
     showgrid="false"
     inkscape:zoom="0.50889488"
     inkscape:cx="257.5"
     inkscape:cy="231.875"
     inkscape:window-x="0"
     inkscape:window-y="26"
     inkscape:window-maximized="0"
     inkscape:current-layer="graph0" />
  <g
     id="graph0"
     class="graph"
     transform="scale(1 1) rotate(0) translate(4 367)">
    <title
       id="title5">%3</title>
    <polygon
       fill="white"
       stroke="none"
       points="-4,4 -4,-367 408,-367 408,4 -4,4"
       id="polygon7" />
    <!-- post_m1.1 -->
    <g
       id="node1"
       class="node">
      <title
         id="title12">post_m1.1</title>
      <g
         id="a_node1">
        <a
           xlink:href="post_m1.1"
           id="a15"
           xlink:title="post_m1\n1">
          <ellipse
             fill="floralwhite"
             stroke="black"
             stroke-width="2"
             cx="260"
             cy="-337"
             rx="45.011"
             ry="26.7407"
             id="ellipse17"
             d="m 305.011,-337 c 0,14.76848 -20.15211,26.7407 -45.011,26.7407 -24.85889,0 -45.011,-11.97222 -45.011,-26.7407 0,-14.76848 20.15211,-26.7407 45.011,-26.7407 24.85889,0 45.011,11.97222 45.011,26.7407 z" />
          <text
             text-anchor="middle"
             x="260"
             y="-340.8"
             font-family="Times,serif"
             font-size="14.00"
             id="text19">post_m1</text>
          <text
             text-anchor="middle"
             x="260"
             y="-325.8"
             font-family="Times,serif"
             font-size="14.00"
             id="text21">1</text>
        </a>
      </g>
    </g>
    <!-- done.1 -->
    <g
       id="node2"
       class="node">
      <title
         id="title24">done.1</title>
      <g
         id="a_node2">
        <a
           xlink:href="done.1"
           id="a27"
           xlink:title="done\n1">
          <ellipse
             fill="floralwhite"
             stroke="black"
             stroke-width="2"
             cx="373"
             cy="-193"
             rx="30.3115"
             ry="26.7407"
             id="ellipse29"
             d="m 403.3115,-193 c 0,14.76848 -13.57092,26.7407 -30.3115,26.7407 -16.74058,0 -30.3115,-11.97222 -30.3115,-26.7407 0,-14.76848 13.57092,-26.7407 30.3115,-26.7407 16.74058,0 30.3115,11.97222 30.3115,26.7407 z" />
          <text
             text-anchor="middle"
             x="373"
             y="-196.8"
             font-family="Times,serif"
             font-size="14.00"
             id="text31">done</text>
          <text
             text-anchor="middle"
             x="373"
             y="-181.8"
             font-family="Times,serif"
             font-size="14.00"
             id="text33">1</text>
        </a>
      </g>
    </g>
    <!-- post_m1.1&#45;&gt;done.1 -->
    <g
       id="edge1"
       class="edge">
      <title
         id="title36">post_m1.1-&gt;done.1</title>
      <path
         fill="none"
         stroke="black"
         stroke-width="2"
         d="M288.959,-316.435C294.925,-311.404 300.945,-305.791 306,-300 325.718,-277.412 343.279,-248.255 355.321,-226.083"
         id="path38" />
      <polygon
         fill="black"
         stroke="black"
         stroke-width="2"
         points="358.521,-227.519 360.133,-217.048 352.343,-224.228 358.521,-227.519"
         id="polygon40" />
    </g>
    <!-- post_m2.1 -->
    <g
       id="node3"
       class="node">
      <title
         id="title43">post_m2.1</title>
      <g
         id="a_node3">
        <a
           xlink:href="post_m2.1"
           id="a46"
           xlink:title="post_m2\n1">
          <ellipse
             fill="floralwhite"
             stroke="black"
             stroke-width="2"
             cx="260"
             cy="-265"
             rx="45.011"
             ry="26.7407"
             id="ellipse48"
             d="m 305.011,-265 c 0,14.76848 -20.15211,26.7407 -45.011,26.7407 -24.85889,0 -45.011,-11.97222 -45.011,-26.7407 0,-14.76848 20.15211,-26.7407 45.011,-26.7407 24.85889,0 45.011,11.97222 45.011,26.7407 z" />
          <text
             text-anchor="middle"
             x="260"
             y="-268.8"
             font-family="Times,serif"
             font-size="14.00"
             id="text50">post_m2</text>
          <text
             text-anchor="middle"
             x="260"
             y="-253.8"
             font-family="Times,serif"
             font-size="14.00"
             id="text52">1</text>
        </a>
      </g>
    </g>
    <!-- post_m2.1&#45;&gt;done.1 -->
    <g
       id="edge2"
       class="edge">
      <title
         id="title55">post_m2.1-&gt;done.1</title>
      <path
         fill="none"
         stroke="black"
         stroke-width="2"
         d="M291.038,-245.516C306.066,-235.768 324.274,-223.957 339.614,-214.007"
         id="path57" />
      <polygon
         fill="black"
         stroke="black"
         stroke-width="2"
         points="341.784,-216.772 348.269,-208.393 337.974,-210.899 341.784,-216.772"
         id="polygon59" />
    </g>
    <!-- post_m3.1 -->
    <g
       id="node4"
       class="node">
      <title
         id="title62">post_m3.1</title>
      <g
         id="a_node4">
        <a
           xlink:href="post_m3.1"
           id="a65"
           xlink:title="post_m3\n1">
          <ellipse
             fill="floralwhite"
             stroke="black"
             stroke-width="2"
             cx="260"
             cy="-193"
             rx="45.011"
             ry="26.7407"
             id="ellipse67"
             d="m 305.011,-193 c 0,14.76848 -20.15211,26.7407 -45.011,26.7407 -24.85889,0 -45.011,-11.97222 -45.011,-26.7407 0,-14.76848 20.15211,-26.7407 45.011,-26.7407 24.85889,0 45.011,11.97222 45.011,26.7407 z" />
          <text
             text-anchor="middle"
             x="260"
             y="-196.8"
             font-family="Times,serif"
             font-size="14.00"
             id="text69">post_m3</text>
          <text
             text-anchor="middle"
             x="260"
             y="-181.8"
             font-family="Times,serif"
             font-size="14.00"
             id="text71">1</text>
        </a>
      </g>
    </g>
    <!-- post_m3.1&#45;&gt;done.1 -->
    <g
       id="edge3"
       class="edge">
      <title
         id="title74">post_m3.1-&gt;done.1</title>
      <path
         fill="none"
         stroke="black"
         stroke-width="2"
         d="M305.508,-193C314.342,-193 323.562,-193 332.225,-193"
         id="path76" />
      <polygon
         fill="black"
         stroke="black"
         stroke-width="2"
         points="332.452,-196.5 342.452,-193 332.452,-189.5 332.452,-196.5"
         id="polygon78" />
    </g>
    <!-- post_m4.1 -->
    <g
       id="node5"
       class="node">
      <title
         id="title81">post_m4.1</title>
      <g
         id="a_node5">
        <a
           xlink:href="post_m4.1"
           id="a84"
           xlink:title="post_m4\n1">
          <ellipse
             fill="floralwhite"
             stroke="black"
             stroke-width="2"
             cx="260"
             cy="-121"
             rx="45.011"
             ry="26.7407"
             id="ellipse86"
             d="m 305.011,-121 c 0,14.76848 -20.15211,26.7407 -45.011,26.7407 -24.85889,0 -45.011,-11.97222 -45.011,-26.7407 0,-14.76848 20.15211,-26.7407 45.011,-26.7407 24.85889,0 45.011,11.97222 45.011,26.7407 z" />
          <text
             text-anchor="middle"
             x="260"
             y="-124.8"
             font-family="Times,serif"
             font-size="14.00"
             id="text88">post_m4</text>
          <text
             text-anchor="middle"
             x="260"
             y="-109.8"
             font-family="Times,serif"
             font-size="14.00"
             id="text90">1</text>
        </a>
      </g>
    </g>
    <!-- post_m4.1&#45;&gt;done.1 -->
    <g
       id="edge4"
       class="edge">
      <title
         id="title93">post_m4.1-&gt;done.1</title>
      <path
         fill="none"
         stroke="black"
         stroke-width="2"
         d="M291.038,-140.484C306.066,-150.232 324.274,-162.043 339.614,-171.993"
         id="path95" />
      <polygon
         fill="black"
         stroke="black"
         stroke-width="2"
         points="337.974,-175.101 348.269,-177.607 341.784,-169.228 337.974,-175.101"
         id="polygon97" />
    </g>
    <!-- post_m5.1 -->
    <g
       id="node6"
       class="node">
      <title
         id="title100">post_m5.1</title>
      <g
         id="a_node6">
        <a
           xlink:href="post_m5.1"
           id="a103"
           xlink:title="post_m5\n1">
          <ellipse
             fill="floralwhite"
             stroke="black"
             stroke-width="2"
             cx="260"
             cy="-49"
             rx="45.011"
             ry="26.7407"
             id="ellipse105"
             d="m 305.011,-49 c 0,14.768481 -20.15211,26.7407 -45.011,26.7407 -24.85889,0 -45.011,-11.972219 -45.011,-26.7407 0,-14.768481 20.15211,-26.7407 45.011,-26.7407 24.85889,0 45.011,11.972219 45.011,26.7407 z" />
          <text
             text-anchor="middle"
             x="260"
             y="-52.8"
             font-family="Times,serif"
             font-size="14.00"
             id="text107">post_m5</text>
          <text
             text-anchor="middle"
             x="260"
             y="-37.8"
             font-family="Times,serif"
             font-size="14.00"
             id="text109">1</text>
        </a>
      </g>
    </g>
    <!-- post_m5.1&#45;&gt;done.1 -->
    <g
       id="edge5"
       class="edge">
      <title
         id="title112">post_m5.1-&gt;done.1</title>
      <path
         fill="none"
         stroke="black"
         stroke-width="2"
         d="M289.472,-69.2921C295.28,-74.0937 301.105,-79.4452 306,-85 325.957,-107.649 343.501,-137.09 355.474,-159.511"
         id="path114" />
      <polygon
         fill="black"
         stroke="black"
         stroke-width="2"
         points="352.519,-161.412 360.256,-168.651 358.721,-158.167 352.519,-161.412"
         id="polygon116" />
    </g>
    <!-- pre.1 -->
    <g
       id="node7"
       class="node">
      <title
         id="title119">pre.1</title>
      <g
         id="a_node7">
        <a
           xlink:href="pre.1"
           id="a122"
           xlink:title="pre\n1">
          <ellipse
             fill="floralwhite"
             stroke="black"
             stroke-width="2"
             cx="27"
             cy="-193"
             rx="27"
             ry="26.7407"
             id="ellipse124"
             d="m 54,-193 c 0,14.76848 -12.088312,26.7407 -27,26.7407 -14.911688,0 -27,-11.97222 -27,-26.7407 0,-14.76848 12.088312,-26.7407 27,-26.7407 14.911688,0 27,11.97222 27,26.7407 z" />
          <text
             text-anchor="middle"
             x="27"
             y="-196.8"
             font-family="Times,serif"
             font-size="14.00"
             id="text126">pre</text>
          <text
             text-anchor="middle"
             x="27"
             y="-181.8"
             font-family="Times,serif"
             font-size="14.00"
             id="text128">1</text>
        </a>
      </g>
    </g>
    <!-- sim_m1.1 -->
    <g
       id="node8"
       class="node">
      <title
         id="title131">sim_m1.1</title>
      <g
         id="a_node8">
        <a
           xlink:href="sim_m1.1"
           id="a134"
           xlink:title="sim_m1\n1">
          <ellipse
             fill="floralwhite"
             stroke="black"
             stroke-width="2"
             cx="134"
             cy="-337"
             rx="43.6818"
             ry="26.7407"
             id="ellipse136"
             d="m 177.6818,-337 c 0,14.76848 -19.55701,26.7407 -43.6818,26.7407 -24.12479,0 -43.681801,-11.97222 -43.681801,-26.7407 0,-14.76848 19.557011,-26.7407 43.681801,-26.7407 24.12479,0 43.6818,11.97222 43.6818,26.7407 z" />
          <text
             text-anchor="middle"
             x="134"
             y="-340.8"
             font-family="Times,serif"
             font-size="14.00"
             id="text138">sim_m1</text>
          <text
             text-anchor="middle"
             x="134"
             y="-325.8"
             font-family="Times,serif"
             font-size="14.00"
             id="text140">1</text>
        </a>
      </g>
    </g>
    <!-- pre.1&#45;&gt;sim_m1.1 -->
    <g
       id="edge6"
       class="edge">
      <title
         id="title143">pre.1-&gt;sim_m1.1</title>
      <path
         fill="none"
         stroke="black"
         stroke-width="2"
         d="M38.9872,-216.992C50.0317,-239.694 68.4737,-274.062 90,-300 92.6888,-303.24 95.6786,-306.429 98.7941,-309.495"
         id="path145" />
      <polygon
         fill="black"
         stroke="black"
         stroke-width="2"
         points="96.502,-312.143 106.209,-316.389 101.269,-307.017 96.502,-312.143"
         id="polygon147" />
    </g>
    <!-- sim_m2.1 -->
    <g
       id="node9"
       class="node">
      <title
         id="title150">sim_m2.1</title>
      <g
         id="a_node9">
        <a
           xlink:href="sim_m2.1"
           id="a153"
           xlink:title="sim_m2\n1">
          <ellipse
             fill="floralwhite"
             stroke="black"
             stroke-width="2"
             cx="134"
             cy="-265"
             rx="43.6818"
             ry="26.7407"
             id="ellipse155"
             d="m 177.6818,-265 c 0,14.76848 -19.55701,26.7407 -43.6818,26.7407 -24.12479,0 -43.681801,-11.97222 -43.681801,-26.7407 0,-14.76848 19.557011,-26.7407 43.681801,-26.7407 24.12479,0 43.6818,11.97222 43.6818,26.7407 z" />
          <text
             text-anchor="middle"
             x="134"
             y="-268.8"
             font-family="Times,serif"
             font-size="14.00"
             id="text157">sim_m2</text>
          <text
             text-anchor="middle"
             x="134"
             y="-253.8"
             font-family="Times,serif"
             font-size="14.00"
             id="text159">1</text>
        </a>
      </g>
    </g>
    <!-- pre.1&#45;&gt;sim_m2.1 -->
    <g
       id="edge7"
       class="edge">
      <title
         id="title162">pre.1-&gt;sim_m2.1</title>
      <path
         fill="none"
         stroke="black"
         stroke-width="2"
         d="M49.5017,-207.744C62.8663,-216.908 80.4064,-228.936 95.9591,-239.601"
         id="path164" />
      <polygon
         fill="black"
         stroke="black"
         stroke-width="2"
         points="94.1293,-242.59 104.356,-245.358 98.088,-236.817 94.1293,-242.59"
         id="polygon166" />
    </g>
    <!-- sim_m3.1 -->
    <g
       id="node10"
       class="node">
      <title
         id="title169">sim_m3.1</title>
      <g
         id="a_node10">
        <a
           xlink:href="sim_m3.1"
           id="a172"
           xlink:title="sim_m3\n1">
          <ellipse
             fill="floralwhite"
             stroke="black"
             stroke-width="2"
             cx="134"
             cy="-193"
             rx="43.6818"
             ry="26.7407"
             id="ellipse174"
             d="m 177.6818,-193 c 0,14.76848 -19.55701,26.7407 -43.6818,26.7407 -24.12479,0 -43.681801,-11.97222 -43.681801,-26.7407 0,-14.76848 19.557011,-26.7407 43.681801,-26.7407 24.12479,0 43.6818,11.97222 43.6818,26.7407 z" />
          <text
             text-anchor="middle"
             x="134"
             y="-196.8"
             font-family="Times,serif"
             font-size="14.00"
             id="text176">sim_m3</text>
          <text
             text-anchor="middle"
             x="134"
             y="-181.8"
             font-family="Times,serif"
             font-size="14.00"
             id="text178">1</text>
        </a>
      </g>
    </g>
    <!-- pre.1&#45;&gt;sim_m3.1 -->
    <g
       id="edge8"
       class="edge">
      <title
         id="title181">pre.1-&gt;sim_m3.1</title>
      <path
         fill="none"
         stroke="black"
         stroke-width="2"
         d="M54.2251,-193C62.0808,-193 70.9941,-193 79.9294,-193"
         id="path183" />
      <polygon
         fill="black"
         stroke="black"
         stroke-width="2"
         points="79.9718,-196.5 89.9718,-193 79.9717,-189.5 79.9718,-196.5"
         id="polygon185" />
    </g>
    <!-- sim_m4.1 -->
    <g
       id="node11"
       class="node">
      <title
         id="title188">sim_m4.1</title>
      <g
         id="a_node11">
        <a
           xlink:href="sim_m4.1"
           id="a191"
           xlink:title="sim_m4\n1">
          <ellipse
             fill="floralwhite"
             stroke="black"
             stroke-width="2"
             cx="134"
             cy="-121"
             rx="43.6818"
             ry="26.7407"
             id="ellipse193"
             d="m 177.6818,-121 c 0,14.76848 -19.55701,26.7407 -43.6818,26.7407 -24.12479,0 -43.681801,-11.97222 -43.681801,-26.7407 0,-14.76848 19.557011,-26.7407 43.681801,-26.7407 24.12479,0 43.6818,11.97222 43.6818,26.7407 z" />
          <text
             text-anchor="middle"
             x="134"
             y="-124.8"
             font-family="Times,serif"
             font-size="14.00"
             id="text195">sim_m4</text>
          <text
             text-anchor="middle"
             x="134"
             y="-109.8"
             font-family="Times,serif"
             font-size="14.00"
             id="text197">1</text>
        </a>
      </g>
    </g>
    <!-- pre.1&#45;&gt;sim_m4.1 -->
    <g
       id="edge9"
       class="edge">
      <title
         id="title200">pre.1-&gt;sim_m4.1</title>
      <path
         fill="none"
         stroke="black"
         stroke-width="2"
         d="M49.5017,-178.256C62.8663,-169.092 80.4064,-157.064 95.9591,-146.399"
         id="path202" />
      <polygon
         fill="black"
         stroke="black"
         stroke-width="2"
         points="98.088,-149.183 104.356,-140.642 94.1293,-143.41 98.088,-149.183"
         id="polygon204" />
    </g>
    <!-- sim_m5.1 -->
    <g
       id="node12"
       class="node">
      <title
         id="title207">sim_m5.1</title>
      <g
         id="a_node12">
        <a
           xlink:href="sim_m5.1"
           id="a210"
           xlink:title="sim_m5\n1">
          <ellipse
             fill="floralwhite"
             stroke="black"
             stroke-width="2"
             cx="134"
             cy="-49"
             rx="43.6818"
             ry="26.7407"
             id="ellipse212"
             d="m 177.6818,-49 c 0,14.768481 -19.55701,26.7407 -43.6818,26.7407 -24.12479,0 -43.681801,-11.972219 -43.681801,-26.7407 0,-14.768481 19.557011,-26.7407 43.681801,-26.7407 24.12479,0 43.6818,11.972219 43.6818,26.7407 z" />
          <text
             text-anchor="middle"
             x="134"
             y="-52.8"
             font-family="Times,serif"
             font-size="14.00"
             id="text214">sim_m5</text>
          <text
             text-anchor="middle"
             x="134"
             y="-37.8"
             font-family="Times,serif"
             font-size="14.00"
             id="text216">1</text>
        </a>
      </g>
    </g>
    <!-- pre.1&#45;&gt;sim_m5.1 -->
    <g
       id="edge10"
       class="edge">
      <title
         id="title219">pre.1-&gt;sim_m5.1</title>
      <path
         fill="none"
         stroke="black"
         stroke-width="2"
         d="M38.6556,-169.148C49.5854,-146.185 68.0603,-111.183 90,-85 92.5306,-81.98 95.3357,-79.0152 98.2652,-76.1636"
         id="path221" />
      <polygon
         fill="black"
         stroke="black"
         stroke-width="2"
         points="100.705,-78.6752 105.718,-69.3414 95.9786,-73.5117 100.705,-78.6752"
         id="polygon223" />
    </g>
    <!-- sim_m1.1&#45;&gt;post_m1.1 -->
    <g
       id="edge11"
       class="edge">
      <title
         id="title226">sim_m1.1-&gt;post_m1.1</title>
      <path
         fill="none"
         stroke="black"
         stroke-width="2"
         d="M178.021,-337C186.468,-337 195.434,-337 204.206,-337"
         id="path228" />
      <polygon
         fill="black"
         stroke="black"
         stroke-width="2"
         points="204.37,-340.5 214.37,-337 204.37,-333.5 204.37,-340.5"
         id="polygon230" />
    </g>
    <!-- sim_m2.1&#45;&gt;post_m2.1 -->
    <g
       id="edge12"
       class="edge">
      <title
         id="title233">sim_m2.1-&gt;post_m2.1</title>
      <path
         fill="none"
         stroke="black"
         stroke-width="2"
         d="M178.021,-265C186.468,-265 195.434,-265 204.206,-265"
         id="path235" />
      <polygon
         fill="black"
         stroke="black"
         stroke-width="2"
         points="204.37,-268.5 214.37,-265 204.37,-261.5 204.37,-268.5"
         id="polygon237" />
    </g>
    <!-- sim_m3.1&#45;&gt;post_m3.1 -->
    <g
       id="edge13"
       class="edge">
      <title
         id="title240">sim_m3.1-&gt;post_m3.1</title>
      <path
         fill="none"
         stroke="black"
         stroke-width="2"
         d="M178.021,-193C186.468,-193 195.434,-193 204.206,-193"
         id="path242" />
      <polygon
         fill="black"
         stroke="black"
         stroke-width="2"
         points="204.37,-196.5 214.37,-193 204.37,-189.5 204.37,-196.5"
         id="polygon244" />
    </g>
    <!-- sim_m4.1&#45;&gt;post_m4.1 -->
    <g
       id="edge14"
       class="edge">
      <title
         id="title247">sim_m4.1-&gt;post_m4.1</title>
      <path
         fill="none"
         stroke="black"
         stroke-width="2"
         d="M178.021,-121C186.468,-121 195.434,-121 204.206,-121"
         id="path249" />
      <polygon
         fill="black"
         stroke="black"
         stroke-width="2"
         points="204.37,-124.5 214.37,-121 204.37,-117.5 204.37,-124.5"
         id="polygon251" />
    </g>
    <!-- sim_m5.1&#45;&gt;post_m5.1 -->
    <g
       id="edge15"
       class="edge">
      <title
         id="title254">sim_m5.1-&gt;post_m5.1</title>
      <path
         fill="none"
         stroke="black"
         stroke-width="2"
         d="M178.021,-49C186.468,-49 195.434,-49 204.206,-49"
         id="path256" />
      <polygon
         fill="black"
         stroke="black"
         stroke-width="2"
         points="204.37,-52.5001 214.37,-49 204.37,-45.5001 204.37,-52.5001"
         id="polygon258" />
    </g>
  </g>
</svg>
