/* XPM */
static char * digit_8_xpm[] = {
"10 20 71 1",
" 	c None",
".	c #082A25",
"+	c #032D25",
"@	c #08362D",
"#	c #06342A",
"$	c #033329",
"%	c #051F1A",
"&	c #01211D",
"*	c #031F1D",
"=	c #223634",
"-	c #07211E",
";	c #04221D",
">	c #1C302E",
",	c #0A261E",
"'	c #143A34",
")	c #257B52",
"!	c #249449",
"~	c #219B44",
"{	c #166A34",
"]	c #091C1D",
"^	c #2F4D48",
"/	c #286E5D",
"(	c #269254",
"_	c #22AC42",
":	c #28B44C",
"<	c #269055",
"[	c #163E46",
"}	c #2C6C4F",
"|	c #4A9C74",
"1	c #143425",
"2	c #22555A",
"3	c #27616D",
"4	c #197936",
"5	c #37B55E",
"6	c #2D493B",
"7	c #102A28",
"8	c #236F51",
"9	c #2D8D63",
"0	c #1B8138",
"a	c #2BBD51",
"b	c #283835",
"c	c #152321",
"d	c #21833F",
"e	c #27B352",
"f	c #092F1F",
"g	c #125428",
"h	c #2D934F",
"i	c #41995A",
"j	c #2FA14F",
"k	c #0E382F",
"l	c #27A94C",
"m	c #2BAF4D",
"n	c #409863",
"o	c #275147",
"p	c #1C6646",
"q	c #2B935C",
"r	c #0A321F",
"s	c #0A2618",
"t	c #2A7251",
"u	c #44946D",
"v	c #1E3430",
"w	c #2AAC52",
"x	c #244235",
"y	c #090F0E",
"z	c #15592F",
"A	c #2D995B",
"B	c #228C40",
"C	c #23A147",
"D	c #1D4940",
"E	c #25BD49",
"F	c #052D20",
".+++++++++",
"@@##@@#$$#",
"%&%*%%%***",
"=-*%%;%***",
">=,')!~{-&",
"]>^/(_:<[&",
"%*}|1,,23+",
"%*4567]89.",
"%*0a1bcdef",
"**g!)hij4-",
"&;k/(lmno-",
"%&pqrfstuv",
";;4ef]]dwx",
";;0af%yh:f",
"%&zA)0BC4,",
"]%-DA:E4.*",
"%&]].FF,%&",
"-&&&&&*&&&",
"+$#+$$$$F+",
"FFFFF+F+++"};
