/* XPM */
static char * digit_1_xpm[] = {
"10 20 142 2",
"  	c None",
". 	c #072F29",
"+ 	c #063027",
"@ 	c #032F24",
"# 	c #073128",
"$ 	c #244841",
"% 	c #1C3E32",
"& 	c #072F26",
"* 	c #032F26",
"= 	c #022E24",
"- 	c #022E23",
"; 	c #04322A",
"> 	c #06302A",
", 	c #05312A",
"' 	c #09332C",
") 	c #20463E",
"! 	c #1E483F",
"~ 	c #06342B",
"{ 	c #05332C",
"] 	c #05332B",
"^ 	c #041E1C",
"/ 	c #061E1B",
"( 	c #071F1C",
"_ 	c #041E16",
": 	c #092119",
"< 	c #21352E",
"[ 	c #213531",
"} 	c #0B2120",
"| 	c #051D1C",
"1 	c #072323",
"2 	c #072121",
"3 	c #072120",
"4 	c #022019",
"5 	c #04201C",
"6 	c #07231F",
"7 	c #1C322F",
"8 	c #273937",
"9 	c #0E2423",
"0 	c #031D19",
"a 	c #042019",
"b 	c #022017",
"c 	c #072321",
"d 	c #041C28",
"e 	c #041B28",
"f 	c #031A27",
"g 	c #082226",
"h 	c #1E3432",
"i 	c #283A38",
"j 	c #031D18",
"k 	c #052522",
"l 	c #032029",
"m 	c #001928",
"n 	c #001A28",
"o 	c #0E3540",
"p 	c #17464F",
"q 	c #1D3233",
"r 	c #001E17",
"s 	c #002018",
"t 	c #062528",
"u 	c #041C2A",
"v 	c #04201B",
"w 	c #02201B",
"x 	c #1D5157",
"y 	c #2E7076",
"z 	c #092B26",
"A 	c #011F18",
"B 	c #062126",
"C 	c #041B2A",
"D 	c #01211C",
"E 	c #02201C",
"F 	c #021E1A",
"G 	c #1C6A46",
"H 	c #309861",
"I 	c #092D23",
"J 	c #011F16",
"K 	c #062326",
"L 	c #03211D",
"M 	c #05211E",
"N 	c #1B7F3A",
"O 	c #2CBA4E",
"P 	c #0C3024",
"Q 	c #042122",
"R 	c #021826",
"S 	c #021928",
"T 	c #051E29",
"U 	c #041F28",
"V 	c #13512F",
"W 	c #186C32",
"X 	c #082018",
"Y 	c #031F1B",
"Z 	c #01211B",
"` 	c #021926",
" .	c #041D28",
"..	c #041E28",
"+.	c #031E27",
"@.	c #153F43",
"#.	c #1D5348",
"$.	c #07211C",
"%.	c #02201A",
"&.	c #032127",
"*.	c #021828",
"=.	c #04221B",
"-.	c #1F6B48",
";.	c #2F9B62",
">.	c #082E24",
",.	c #03211B",
"'.	c #012119",
").	c #031929",
"!.	c #022219",
"~.	c #1D7D3D",
"{.	c #2DB553",
"].	c #0A3224",
"^.	c #002019",
"/.	c #011A29",
"(.	c #1D833A",
"_.	c #29BF49",
":.	c #092F1E",
"<.	c #042422",
"[.	c #011F27",
"}.	c #021B28",
"|.	c #011A27",
"1.	c #165636",
"2.	c #197335",
"3.	c #08241D",
"4.	c #002017",
"5.	c #03231E",
"6.	c #062128",
"7.	c #051F27",
"8.	c #062324",
"9.	c #042018",
"0.	c #061E1E",
"a.	c #011F17",
"b.	c #002016",
"c.	c #04201F",
"d.	c #012118",
"e.	c #002015",
"f.	c #033327",
"g.	c #033527",
"h.	c #033325",
"i.	c #033526",
"j.	c #09291F",
"k.	c #002A1D",
". + @ # $ % & * = - ",
"; > > , ' ) ! ~ { ] ",
"^ / / ( _ : < [ } / ",
"| 1 2 3 4 5 6 7 8 9 ",
"0 a b c d e f g h i ",
"j 4 k l m m n o p q ",
"r s t u v 4 w x y z ",
"A s B C D E F G H I ",
"J s K u L M ^ N O P ",
"4 s Q R S T U V W X ",
"Y Z Q `  ...+.@.#.$.",
"%.s &.*.=.b j -.;.>.",
",.'.&.).!.!.j ~.{.].",
"Z ^.&./.4 4 0 (._.:.",
"A ^.<.[.}.}.|.1.2.3.",
"A ^.4.5.6.6.7.8.9.0.",
"a.s b.4.!.!.s Y c.L ",
"w b.4.d.!.4 '.e.Z 4 ",
"f.g.g.g.g.h.g.g.g.i.",
"j.k.k.k.k.k.k.k.k.k."};
