/* XPM */
static char * digit_7_xpm[] = {
"10 20 140 2",
"  	c None",
". 	c #082E2B",
"+ 	c #022C24",
"@ 	c #002A20",
"# 	c #012B21",
"$ 	c #022C23",
"% 	c #07352D",
"& 	c #05352D",
"* 	c #06362C",
"= 	c #07352C",
"- 	c #041E19",
"; 	c #02201A",
"> 	c #021E18",
", 	c #02201C",
"' 	c #04201D",
") 	c #031F17",
"! 	c #021E16",
"~ 	c #00201A",
"{ 	c #061E1B",
"] 	c #04201A",
"^ 	c #022014",
"/ 	c #02221C",
"( 	c #05211F",
"_ 	c #011F19",
": 	c #011F1A",
"< 	c #123C33",
"[ 	c #217B4B",
"} 	c #259347",
"| 	c #249A43",
"1 	c #1B6B37",
"2 	c #071F16",
"3 	c #072121",
"4 	c #1A4640",
"5 	c #2E925B",
"6 	c #2BAD4A",
"7 	c #26B244",
"8 	c #278F53",
"9 	c #17444B",
"0 	c #06221E",
"a 	c #041D26",
"b 	c #051E29",
"c 	c #09271F",
"d 	c #0A2A20",
"e 	c #0D251B",
"f 	c #205758",
"g 	c #296973",
"h 	c #082823",
"i 	c #03211A",
"j 	c #02221B",
"k 	c #021E26",
"l 	c #021C2A",
"m 	c #06201B",
"n 	c #062220",
"o 	c #071F1C",
"p 	c #23674E",
"q 	c #339367",
"r 	c #102A27",
"s 	c #062526",
"t 	c #031D29",
"u 	c #082020",
"v 	c #082220",
"w 	c #05191B",
"x 	c #1F813B",
"y 	c #2CB84D",
"z 	c #092D1C",
"A 	c #04201B",
"B 	c #062420",
"C 	c #04232A",
"D 	c #041B26",
"E 	c #052429",
"F 	c #051923",
"G 	c #165E2F",
"H 	c #167C33",
"I 	c #08261C",
"J 	c #042019",
"K 	c #032320",
"L 	c #052027",
"M 	c #032129",
"N 	c #02202A",
"O 	c #061F28",
"P 	c #16403A",
"Q 	c #184C40",
"R 	c #09211E",
"S 	c #022018",
"T 	c #032327",
"U 	c #051F29",
"V 	c #042221",
"W 	c #04201C",
"X 	c #041E1C",
"Y 	c #23694C",
"Z 	c #309263",
"` 	c #082A1E",
" .	c #042026",
"..	c #06202A",
"+.	c #04221E",
"@.	c #05211D",
"#.	c #031B15",
"$.	c #207E3F",
"%.	c #2FB154",
"&.	c #082E1D",
"*.	c #042328",
"=.	c #06221F",
"-.	c #052120",
";.	c #061C19",
">.	c #1F873A",
",.	c #2DBF50",
"'.	c #082E1E",
").	c #002017",
"!.	c #022324",
"~.	c #021F2A",
"{.	c #051E27",
"].	c #031E27",
"^.	c #071F25",
"/.	c #186234",
"(.	c #1A8235",
"_.	c #06261F",
":.	c #011F1B",
"<.	c #062124",
"[.	c #041928",
"}.	c #0D2629",
"|.	c #0B2722",
"1.	c #051D1F",
"2.	c #011D16",
"3.	c #031F1B",
"4.	c #03211E",
"5.	c #06201D",
"6.	c #04221F",
"7.	c #051F1F",
"8.	c #00221D",
"9.	c #00201B",
"0.	c #00201C",
"a.	c #00201E",
"b.	c #063028",
"c.	c #033126",
"d.	c #033125",
"e.	c #033326",
"f.	c #023225",
"g.	c #052B23",
"h.	c #042A1F",
"i.	c #042A1E",
". + @ @ @ @ @ # $ $ ",
"% & * * * * * * = = ",
"- ; ; > , , , , ' ' ",
"; ) ! ~ { ] ^ / ( ! ",
"_ : ' < [ } | 1 2 ' ",
"_ , 3 4 5 6 7 8 9 0 ",
"; ! a b c d e f g h ",
"i j k l m n o p q r ",
"i / s t u v w x y z ",
"i A B C D E F G H I ",
"i J K L M N O P Q R ",
"i S T U V W X Y Z ` ",
"i ;  ...+.@.#.$.%.&.",
"; _ *...=.-.;.>.,.'.",
"_ ).!.~.{.].^./.(._.",
"_ i :.<.C U [.}.|.1.",
"2.; ; 3.4.5.6.5.7.+.",
"] 8.9.9.9.9.9.0.a.0.",
"b.c.d.e.d.e.e.d.f.d.",
"g.h.i.i.i.i.i.i.i.i."};
