/* XPM */
static char * digit_6_xpm[] = {
"15 20 208 2",
"  	c None",
". 	c #050C0F",
"+ 	c #082822",
"@ 	c #042E27",
"# 	c #002A21",
"$ 	c #022A22",
"% 	c #002A20",
"& 	c #022C25",
"* 	c #072B26",
"= 	c #0A1211",
"- 	c #082C26",
"; 	c #074338",
"> 	c #05332B",
", 	c #06362D",
"' 	c #08362E",
") 	c #07372E",
"! 	c #09312B",
"~ 	c #093B31",
"{ 	c #042E29",
"] 	c #092F2B",
"^ 	c #08362F",
"/ 	c #061E1C",
"( 	c #02201B",
"_ 	c #04201C",
": 	c #011F1A",
"< 	c #02201A",
"[ 	c #041C1A",
"} 	c #062C28",
"| 	c #03312A",
"1 	c #052F27",
"2 	c #06342A",
"3 	c #031F1B",
"4 	c #011F18",
"5 	c #03211F",
"6 	c #06201E",
"7 	c #051D19",
"8 	c #031F17",
"9 	c #041E18",
"0 	c #061E1B",
"a 	c #051F1F",
"b 	c #061E1A",
"c 	c #062C25",
"d 	c #043027",
"e 	c #002E22",
"f 	c #013728",
"g 	c #06221E",
"h 	c #021E16",
"i 	c #10382F",
"j 	c #257952",
"k 	c #229247",
"l 	c #239B48",
"m 	c #186C36",
"n 	c #08241E",
"o 	c #061E20",
"p 	c #0A1E1E",
"q 	c #012F27",
"r 	c #022019",
"s 	c #123632",
"t 	c #296D61",
"u 	c #299358",
"v 	c #26AE49",
"w 	c #23B345",
"x 	c #1E8041",
"y 	c #0B2B27",
"z 	c #05211F",
"A 	c #012F23",
"B 	c #033729",
"C 	c #071F1F",
"D 	c #081E1C",
"E 	c #1F6146",
"F 	c #319B68",
"G 	c #13372C",
"H 	c #0A281B",
"I 	c #07291D",
"J 	c #0A2728",
"K 	c #031C29",
"L 	c #081E1B",
"M 	c #012F26",
"N 	c #052F26",
"O 	c #05372B",
"P 	c #091F1F",
"Q 	c #081D1E",
"R 	c #1C703A",
"S 	c #2BB756",
"T 	c #0D3726",
"U 	c #071F1C",
"V 	c #08201D",
"W 	c #061D26",
"X 	c #031A29",
"Y 	c #032320",
"Z 	c #0B1F1E",
"` 	c #032D25",
" .	c #012F25",
"..	c #06201C",
"+.	c #07191D",
"@.	c #1C7A37",
"#.	c #2CC24F",
"$.	c #09351D",
"%.	c #061C1B",
"&.	c #061E1E",
"*.	c #031C25",
"=.	c #061D2A",
"-.	c #062220",
";.	c #091F1C",
">.	c #06201B",
",.	c #061C1E",
"'.	c #0F5128",
").	c #24964C",
"!.	c #217B4B",
"~.	c #218B44",
"{.	c #209441",
"].	c #1B693C",
"^.	c #092329",
"/.	c #061F20",
"(.	c #0C1D1E",
"_.	c #042E25",
":.	c #023629",
"<.	c #041E19",
"[.	c #051F1D",
"}.	c #0F352D",
"|.	c #266E5C",
"1.	c #269256",
"2.	c #23AB46",
"3.	c #24B045",
"4.	c #23954B",
"5.	c #1A4E42",
"6.	c #041E1B",
"7.	c #1E6045",
"8.	c #309866",
"9.	c #11392A",
"0.	c #052D1B",
"a.	c #052B19",
"b.	c #216B47",
"c.	c #319165",
"d.	c #062A20",
"e.	c #041E1C",
"f.	c #081C1C",
"g.	c #1E703D",
"h.	c #2EB658",
"i.	c #113326",
"j.	c #031B1D",
"k.	c #1F7B40",
"l.	c #2DB356",
"m.	c #072D1E",
"n.	c #091D1B",
"o.	c #023628",
"p.	c #051B18",
"q.	c #1C7838",
"r.	c #143425",
"s.	c #071B18",
"t.	c #081818",
"u.	c #1E823A",
"v.	c #2ABE50",
"w.	c #0B2F1F",
"x.	c #06302C",
"y.	c #001E19",
"z.	c #041C19",
"A.	c #115529",
"B.	c #259B4C",
"C.	c #23774D",
"D.	c #218542",
"E.	c #1F893A",
"F.	c #209C40",
"G.	c #1C8236",
"H.	c #0A2620",
"I.	c #051F21",
"J.	c #08302E",
"K.	c #023025",
"L.	c #072021",
"M.	c #08201E",
"N.	c #154538",
"O.	c #2C985F",
"P.	c #2CB854",
"Q.	c #28BC4B",
"R.	c #19853A",
"S.	c #07271E",
"T.	c #091E1F",
"U.	c #052F29",
"V.	c #062E25",
"W.	c #023426",
"X.	c #03211C",
"Y.	c #06281D",
"Z.	c #062C1C",
"`.	c #06241D",
" +	c #04201E",
".+	c #03211E",
"++	c #05312B",
"@+	c #031D16",
"#+	c #00201C",
"$+	c #00201D",
"%+	c #011F1E",
"&+	c #042C27",
"*+	c #00322C",
"=+	c #0A2E27",
"-+	c #064033",
";+	c #032F23",
">+	c #033127",
",+	c #043229",
"'+	c #033128",
")+	c #073B32",
"!+	c #05332C",
"~+	c #031311",
"{+	c #00261B",
"]+	c #03271D",
"^+	c #042A1F",
"/+	c #042C21",
"(+	c #052B24",
"_+	c #021815",
". + @ # # # $ $ $ # # % & * = ",
"- ; > , , , ' ' ' ) , ) ! ~ { ",
"] ^ / ( ( ( _ _ _ ( : < [ } | ",
"1 2 3 4 5 6 7 8 9 7 0 a b c d ",
"e f _ g h i j k l m n o p @ q ",
"e f r _ s t u v w x y z p @ q ",
"A B C D E F G H I J K z L @ M ",
"N O P Q R S T U V W X Y Z `  .",
"N O ..+.@.#.$.%.&.*.=.-.;.`  .",
"N O >.,.'.).!.~.{.].^./.(.`  .",
"_.:.<.[.}.|.1.2.3.4.5.6 Z `  .",
"_.:.6...7.8.9.0.a.b.c.d.L `  .",
"_.:.e.f.g.h.i.,.j.k.l.m.n.`  .",
"A o.3 p.q.#.r.s.t.u.v.w.e.@ x.",
"A o.y.z.A.B.C.D.E.F.G.H.I.@ J.",
"K.o.[.L.M.N.O.P.Q.R.S.T.( U.J.",
"V.W.<.3 < X.Y.a.Z.`.[. +.+{ ++",
" .> @+#+#+#+#+#+#+$+#+$+%+&+*+",
"=+-+;+>+>+,+,+,+,+'+>+'+'+)+!+",
"~+{+]+^+^+^+d.d.d.^+^+^+/+(+_+"};
