/* XPM */
static char * digit_8_xpm[] = {
"15 20 81 1",
" 	c None",
".	c #090F0E",
"+	c #0A261E",
"@	c #082A25",
"#	c #032D25",
"$	c #06100E",
"%	c #1C3E36",
"&	c #064236",
"*	c #08362D",
"=	c #06342A",
"-	c #033329",
";	c #063E31",
">	c #24463E",
",	c #1A443D",
"'	c #051F1A",
")	c #01211D",
"!	c #031F1D",
"~	c #052D20",
"{	c #1D4940",
"]	c #223634",
"^	c #07211E",
"/	c #04221D",
"(	c #1C302E",
"_	c #143A34",
":	c #257B52",
"<	c #249449",
"[	c #219B44",
"}	c #166A34",
"|	c #091C1D",
"1	c #2F4D48",
"2	c #286E5D",
"3	c #269254",
"4	c #22AC42",
"5	c #28B44C",
"6	c #269055",
"7	c #163E46",
"8	c #2C6C4F",
"9	c #4A9C74",
"0	c #143425",
"a	c #22555A",
"b	c #27616D",
"c	c #197936",
"d	c #37B55E",
"e	c #2D493B",
"f	c #102A28",
"g	c #236F51",
"h	c #2D8D63",
"i	c #1B8138",
"j	c #2BBD51",
"k	c #283835",
"l	c #152321",
"m	c #21833F",
"n	c #27B352",
"o	c #092F1F",
"p	c #125428",
"q	c #2D934F",
"r	c #41995A",
"s	c #2FA14F",
"t	c #0E382F",
"u	c #27A94C",
"v	c #2BAF4D",
"w	c #409863",
"x	c #275147",
"y	c #1C6646",
"z	c #2B935C",
"A	c #0A321F",
"B	c #0A2618",
"C	c #2A7251",
"D	c #44946D",
"E	c #1E3430",
"F	c #2AAC52",
"G	c #244235",
"H	c #21433E",
"I	c #15592F",
"J	c #2D995B",
"K	c #228C40",
"L	c #23A147",
"M	c #264842",
"N	c #25BD49",
"O	c #043E32",
"P	c #021412",
".+@##########@$",
"%&**==**=--==;@",
">,')'!'''!!!!#~",
"={]^!''/'!!!!#-",
"#*(]+_:<[}^)!--",
"#*|(1234567)!##",
"--'!890++ab#)##",
"--'!cdef|gh@)#-",
"--'!ij0klmno|--",
"--!!p<:qrsc^!@-",
"--)/t23uvwx^)##",
"--')yzAoBCDE)#-",
"#-//cno||mFG(--",
"--//ijo'.q5o]H-",
"--')IJ:iKLc+',M",
"--|'^{J5Nc@!!-7",
"=-')||@~~+')!#-",
"=-^)))))!)))!#=",
"-O#-=#----~##;-",
"P#~~~~~#~####@P"};
