/* XPM */
static char * digit_4_xpm[] = {
"10 20 26 1",
" 	c None",
".	c #C2F9B9",
"+	c #BAEDB5",
"@	c #40207B",
"#	c #2D0072",
"$	c #6B6890",
"%	c #9CBBA7",
"&	c #BBEEB5",
"*	c #41217B",
"=	c #462B7E",
"-	c #3B1878",
";	c #6C6A90",
">	c #2E0272",
",	c #A3C5AA",
"'	c #3E1E7A",
")	c #9DBCA8",
"!	c #727493",
"~	c #41227B",
"{	c #43257C",
"]	c #BDF0B6",
"^	c #8FA5A0",
"/	c #B4E2B2",
"(	c #96B0A4",
"_	c #43267C",
":	c #2F0473",
"<	c #B5E4B2",
"..........",
"..........",
"..........",
"..........",
"..........",
".....+@#..",
".....$##..",
"....%###..",
"...&*=-#..",
"...;>,'#..",
"..)#!.'#..",
".&~{].'#..",
".^#######/",
".(____:#_<",
"......'#..",
"..........",
"..........",
"..........",
"..........",
".........."};
