/* XPM */
static char * digit_3_xpm[] = {
"15 20 206 2",
"  	c None",
". 	c #0B1312",
"+ 	c #072D24",
"@ 	c #032F24",
"# 	c #022E23",
"$ 	c #022E24",
"% 	c #032F25",
"& 	c #072F26",
"* 	c #0A1314",
"= 	c #062E27",
"- 	c #054134",
"; 	c #023226",
"> 	c #013328",
", 	c #003226",
"' 	c #003227",
") 	c #04322B",
"! 	c #033127",
"~ 	c #003023",
"{ 	c #023024",
"] 	c #033329",
"^ 	c #02322A",
"/ 	c #033F32",
"( 	c #013125",
"_ 	c #023225",
": 	c #061C17",
"< 	c #071F1C",
"[ 	c #041E1A",
"} 	c #041E1B",
"| 	c #031F1B",
"1 	c #051F1D",
"2 	c #061E1E",
"3 	c #071F1B",
"4 	c #071D19",
"5 	c #033326",
"6 	c #003022",
"7 	c #01372A",
"8 	c #05211E",
"9 	c #062421",
"0 	c #041E18",
"a 	c #051D1D",
"b 	c #05231F",
"c 	c #042218",
"d 	c #072317",
"e 	c #091F18",
"f 	c #041E17",
"g 	c #01211A",
"h 	c #02201A",
"i 	c #012F27",
"j 	c #023228",
"k 	c #013327",
"l 	c #051D19",
"m 	c #06201B",
"n 	c #011D15",
"o 	c #114337",
"p 	c #278953",
"q 	c #24A445",
"r 	c #26AA45",
"s 	c #1D753A",
"t 	c #06241E",
"u 	c #081E1C",
"v 	c #071D1A",
"w 	c #033126",
"x 	c #04201B",
"y 	c #062122",
"z 	c #18423C",
"A 	c #24804D",
"B 	c #239543",
"C 	c #1D9737",
"D 	c #228450",
"E 	c #1B4B4D",
"F 	c #052123",
"G 	c #071D1B",
"H 	c #003228",
"I 	c #062226",
"J 	c #071F29",
"K 	c #061F20",
"L 	c #051D15",
"M 	c #081C16",
"N 	c #1F545B",
"O 	c #2E7172",
"P 	c #082624",
"Q 	c #071F1D",
"R 	c #013528",
"S 	c #07211E",
"T 	c #041C26",
"U 	c #07211F",
"V 	c #081A19",
"W 	c #24704F",
"X 	c #2F935E",
"Y 	c #092922",
"Z 	c #071D1C",
"` 	c #022E26",
" .	c #013527",
"..	c #061D2A",
"+.	c #07231F",
"@.	c #052115",
"#.	c #091F19",
"$.	c #1E8A3D",
"%.	c #26B047",
"&.	c #092B1E",
"*.	c #042E29",
"=.	c #051F1F",
"-.	c #18443D",
";.	c #268653",
">.	c #219B41",
",.	c #239F3D",
"'.	c #21A13F",
").	c #196735",
"!.	c #06221B",
"~.	c #062E2A",
"{.	c #023026",
"].	c #04201A",
"^.	c #062221",
"/.	c #194540",
"(.	c #25854E",
"_.	c #229C42",
":.	c #239F40",
"<.	c #278F51",
"[.	c #195142",
"}.	c #062220",
"|.	c #052F29",
"1.	c #032F26",
"2.	c #01352B",
"3.	c #06201E",
"4.	c #032125",
"5.	c #031A29",
"6.	c #092322",
"7.	c #09231D",
"8.	c #072119",
"9.	c #25734D",
"0.	c #329261",
"a.	c #072921",
"b.	c #021C14",
"c.	c #031D25",
"d.	c #011929",
"e.	c #02221E",
"f.	c #02201C",
"g.	c #031B18",
"h.	c #1F873F",
"i.	c #2FAB55",
"j.	c #062C1B",
"k.	c #031F18",
"l.	c #062026",
"m.	c #051B29",
"n.	c #06221F",
"o.	c #0A201D",
"p.	c #091D1A",
"q.	c #1C8E37",
"r.	c #2AB44B",
"s.	c #092B1B",
"t.	c #06201C",
"u.	c #05211A",
"v.	c #072323",
"w.	c #194342",
"x.	c #268452",
"y.	c #249C49",
"z.	c #25A145",
"A.	c #24A442",
"B.	c #1D6F36",
"C.	c #0A2422",
"D.	c #041D1E",
"E.	c #113F36",
"F.	c #27854D",
"G.	c #269E45",
"H.	c #22A441",
"I.	c #176D31",
"J.	c #03211A",
"K.	c #062020",
"L.	c #041E1D",
"M.	c #052F2A",
"N.	c #05211B",
"O.	c #051F18",
"P.	c #07211D",
"Q.	c #09211C",
"R.	c #0A201A",
"S.	c #051F19",
"T.	c #04201D",
"U.	c #03211D",
"V.	c #08201D",
"W.	c #043029",
"X.	c #0B2D24",
"Y.	c #03352B",
"Z.	c #021E19",
"`.	c #051F1C",
" +	c #022019",
".+	c #051D1B",
"++	c #052D25",
"@+	c #0B2D2F",
"#+	c #092D27",
"$+	c #044237",
"%+	c #033325",
"&+	c #013323",
"*+	c #033527",
"=+	c #033526",
"-+	c #063E31",
";+	c #08302C",
">+	c #081112",
",+	c #042822",
"'+	c #052920",
")+	c #03291F",
"!+	c #02281D",
"~+	c #002A1D",
"{+	c #042820",
"]+	c #042821",
"^+	c #07251E",
"/+	c #08120C",
". + @ # # # $ $ $ $ $ $ % & * ",
"= - ; > , ' ) ! ~ { ] > ^ / ( ",
"_ > : < [ [ } | 1 2 < 3 4 $ 5 ",
"6 7 8 9 0 a b c d e f g h i j ",
"_ k l m n o p q r s t u v % k ",
"w k } x y z A B C D E F G % H ",
"w k } x I J K L M N O P Q $ H ",
"_ R [ S T J U x V W X Y Z ` H ",
";  .x < I ..+.@.#.$.%.&.[ *.H ",
";  .x < =.-.;.>.,.'.).!.| ~.H ",
"{.R ].S ^./.(._.:.<.[.}.} |.H ",
"1.2.].3.4.5.6.7.8.9.0.a.b.% ' ",
"1.2.].3.c.d.e.f.g.h.i.j.k.% ' ",
"1.2.].3.l.m.n.o.p.q.r.s.t.` ' ",
"{.> x u.v.w.x.y.z.A.B.C.D.*.' ",
"{.> x !.1 E.F.G.H.I.J.K.L.M.' ",
"{.> x N.3.O.P.Q.R.S.T.U.V.W.H ",
"X.Y.l Z.`. +h  +m  +x [ .+++@+",
"#+$+%+&+*+=+=+=+=+=+*+*+; -+;+",
">+,+'+)+!+~+~+~+~+~+!+{+]+^+/+"};
