/* XPM */
static char * digit_1_xpm[] = {
"15 20 203 2",
"  	c None",
". 	c #071111",
"+ 	c #072F29",
"@ 	c #063027",
"# 	c #032F24",
"$ 	c #073128",
"% 	c #244841",
"& 	c #1C3E32",
"* 	c #072F26",
"= 	c #032F26",
"- 	c #022E24",
"; 	c #022E23",
"> 	c #042E25",
", 	c #072F27",
"' 	c #071511",
") 	c #052D25",
"! 	c #064438",
"~ 	c #04322A",
"{ 	c #06302A",
"] 	c #05312A",
"^ 	c #09332C",
"/ 	c #20463E",
"( 	c #1E483F",
"_ 	c #06342B",
": 	c #05332C",
"< 	c #05332B",
"[ 	c #073F34",
"} 	c #05332A",
"| 	c #042E24",
"1 	c #03352A",
"2 	c #041E1C",
"3 	c #061E1B",
"4 	c #071F1C",
"5 	c #041E16",
"6 	c #092119",
"7 	c #21352E",
"8 	c #213531",
"9 	c #0B2120",
"0 	c #081C19",
"a 	c #042C26",
"b 	c #032F25",
"c 	c #043429",
"d 	c #051D1C",
"e 	c #072323",
"f 	c #072121",
"g 	c #072120",
"h 	c #022019",
"i 	c #04201C",
"j 	c #07231F",
"k 	c #1C322F",
"l 	c #273937",
"m 	c #0E2423",
"n 	c #081C1A",
"o 	c #023025",
"p 	c #012F21",
"q 	c #033728",
"r 	c #031D19",
"s 	c #042019",
"t 	c #022017",
"u 	c #072321",
"v 	c #041C28",
"w 	c #041B28",
"x 	c #031A27",
"y 	c #082226",
"z 	c #1E3432",
"A 	c #283A38",
"B 	c #0F2320",
"C 	c #032D26",
"D 	c #023627",
"E 	c #031D18",
"F 	c #052522",
"G 	c #032029",
"H 	c #001928",
"I 	c #001A28",
"J 	c #0E3540",
"K 	c #17464F",
"L 	c #1D3233",
"M 	c #293B35",
"N 	c #0E342C",
"O 	c #001E17",
"P 	c #002018",
"Q 	c #062528",
"R 	c #041C2A",
"S 	c #04201B",
"T 	c #02201B",
"U 	c #1D5157",
"V 	c #2E7076",
"W 	c #092B26",
"X 	c #182A29",
"Y 	c #27453F",
"Z 	c #0F352D",
"` 	c #023024",
" .	c #011F18",
"..	c #062126",
"+.	c #041B2A",
"@.	c #01211C",
"#.	c #02201C",
"$.	c #021E1A",
"%.	c #1C6A46",
"&.	c #309861",
"*.	c #092D23",
"=.	c #071C1F",
"-.	c #11372F",
";.	c #254942",
">.	c #011F16",
",.	c #062326",
"'.	c #03211D",
").	c #05211E",
"!.	c #1B7F3A",
"~.	c #2CBA4E",
"{.	c #0C3024",
"].	c #082020",
"^.	c #042E27",
"/.	c #0D3931",
"(.	c #042122",
"_.	c #021826",
":.	c #021928",
"<.	c #051E29",
"[.	c #041F28",
"}.	c #13512F",
"|.	c #186C32",
"1.	c #082018",
"2.	c #072021",
"3.	c #052F29",
"4.	c #04322B",
"5.	c #031F1B",
"6.	c #01211B",
"7.	c #021926",
"8.	c #041D28",
"9.	c #041E28",
"0.	c #031E27",
"a.	c #153F43",
"b.	c #1D5348",
"c.	c #07211C",
"d.	c #081E1B",
"e.	c #042E26",
"f.	c #023228",
"g.	c #02201A",
"h.	c #032127",
"i.	c #021828",
"j.	c #04221B",
"k.	c #1F6B48",
"l.	c #2F9B62",
"m.	c #082E24",
"n.	c #091D1B",
"o.	c #012F26",
"p.	c #03211B",
"q.	c #012119",
"r.	c #031929",
"s.	c #022219",
"t.	c #1D7D3D",
"u.	c #2DB553",
"v.	c #0A3224",
"w.	c #0A1B1E",
"x.	c #002019",
"y.	c #011A29",
"z.	c #1D833A",
"A.	c #29BF49",
"B.	c #092F1E",
"C.	c #0B1D1C",
"D.	c #003625",
"E.	c #042422",
"F.	c #011F27",
"G.	c #021B28",
"H.	c #011A27",
"I.	c #165636",
"J.	c #197335",
"K.	c #08241D",
"L.	c #0A1E1D",
"M.	c #002017",
"N.	c #03231E",
"O.	c #062128",
"P.	c #051F27",
"Q.	c #062324",
"R.	c #042018",
"S.	c #061E1E",
"T.	c #0A1D1E",
"U.	c #011F17",
"V.	c #002016",
"W.	c #04201F",
"X.	c #0B1F1B",
"Y.	c #052F22",
"Z.	c #08342B",
"`.	c #012118",
" +	c #002015",
".+	c #05211D",
"++	c #063028",
"@+	c #052B23",
"#+	c #0B4137",
"$+	c #033327",
"%+	c #033527",
"&+	c #033325",
"*+	c #033526",
"=+	c #04362C",
"-+	c #073F35",
";+	c #062E26",
">+	c #06100D",
",+	c #0E2324",
"'+	c #09291F",
")+	c #002A1D",
"!+	c #062A1F",
"~+	c #0A2620",
"{+	c #0A100F",
". + + @ # $ % & * = - ; > , ' ",
") ! ~ { { ] ^ / ( _ : < ~ [ } ",
"| 1 2 3 3 4 5 6 7 8 9 3 0 a b ",
"| c d e f g h i j k l m n a o ",
"p q r s t u v w x y z A B C # ",
"p D E h F G H H I J K L M N > ",
"p D O P Q R S h T U V W X Y Z ",
"` q  .P ..+.@.#.$.%.&.*.=.-.;.",
"` q >.P ,.R '.).2 !.~.{.].^./.",
"` q h P (._.:.<.[.}.|.1.2.3.4.",
"` q 5.6.(.7.8.9.0.a.b.c.d.e.f.",
"` D g.P h.i.j.t E k.l.m.n.e.o.",
"` D p.q.h.r.s.s.E t.u.v.w.e.o.",
"` D 6.x.h.y.h h r z.A.B.C.e.o.",
"p D. .x.E.F.G.G.H.I.J.K.L.e.o.",
"p D. .x.M.N.O.O.P.Q.R.S.T.e.o.",
"p D.U.P V.M.s.s.P 5.W.'.X.e.o.",
"Y.Z.T V.M.`.s.h q. +6.h .+^.++",
"@+#+$+%+%+%+%+&+%+%+%+*+=+-+;+",
">+,+'+)+)+)+)+)+)+)+)+)+!+~+{+"};
