/* XPM */
static char * digit_7_xpm[] = {
"15 20 189 2",
"  	c None",
". 	c #070B0D",
"+ 	c #082824",
"@ 	c #082E2B",
"# 	c #022C24",
"$ 	c #002A20",
"% 	c #012B21",
"& 	c #022C23",
"* 	c #073126",
"= 	c #24443C",
"- 	c #1C2623",
"; 	c #072B28",
"> 	c #093F35",
", 	c #07352D",
"' 	c #05352D",
") 	c #06362C",
"! 	c #07352C",
"~ 	c #07352B",
"{ 	c #0D3F35",
"] 	c #1C443B",
"^ 	c #072D25",
"/ 	c #043027",
"( 	c #041E19",
"_ 	c #02201A",
": 	c #021E18",
"< 	c #02201C",
"[ 	c #04201D",
"} 	c #041E1B",
"| 	c #062E29",
"1 	c #003025",
"2 	c #053329",
"3 	c #031F17",
"4 	c #021E16",
"5 	c #00201A",
"6 	c #061E1B",
"7 	c #04201A",
"8 	c #022014",
"9 	c #02221C",
"0 	c #05211F",
"a 	c #011F1C",
"b 	c #08322D",
"c 	c #003022",
"d 	c #011F19",
"e 	c #011F1A",
"f 	c #123C33",
"g 	c #217B4B",
"h 	c #259347",
"i 	c #249A43",
"j 	c #1B6B37",
"k 	c #071F16",
"l 	c #052D26",
"m 	c #09312C",
"n 	c #002E22",
"o 	c #072121",
"p 	c #1A4640",
"q 	c #2E925B",
"r 	c #2BAD4A",
"s 	c #26B244",
"t 	c #278F53",
"u 	c #17444B",
"v 	c #06221E",
"w 	c #051F1C",
"x 	c #042E27",
"y 	c #041D26",
"z 	c #051E29",
"A 	c #09271F",
"B 	c #0A2A20",
"C 	c #0D251B",
"D 	c #205758",
"E 	c #296973",
"F 	c #082823",
"G 	c #061E19",
"H 	c #03211A",
"I 	c #02221B",
"J 	c #021E26",
"K 	c #021C2A",
"L 	c #06201B",
"M 	c #062220",
"N 	c #071F1C",
"O 	c #23674E",
"P 	c #339367",
"Q 	c #102A27",
"R 	c #042E26",
"S 	c #09312A",
"T 	c #062526",
"U 	c #031D29",
"V 	c #082020",
"W 	c #082220",
"X 	c #05191B",
"Y 	c #1F813B",
"Z 	c #2CB84D",
"` 	c #092D1C",
" .	c #031F1C",
"..	c #04201B",
"+.	c #062420",
"@.	c #04232A",
"#.	c #041B26",
"$.	c #052429",
"%.	c #051923",
"&.	c #165E2F",
"*.	c #167C33",
"=.	c #08261C",
"-.	c #042019",
";.	c #032320",
">.	c #052027",
",.	c #032129",
"'.	c #02202A",
").	c #061F28",
"!.	c #16403A",
"~.	c #184C40",
"{.	c #09211E",
"].	c #06201D",
"^.	c #022018",
"/.	c #032327",
"(.	c #051F29",
"_.	c #042221",
":.	c #04201C",
"<.	c #041E1C",
"[.	c #23694C",
"}.	c #309263",
"|.	c #082A1E",
"1.	c #042026",
"2.	c #06202A",
"3.	c #04221E",
"4.	c #05211D",
"5.	c #031B15",
"6.	c #207E3F",
"7.	c #2FB154",
"8.	c #082E1D",
"9.	c #003020",
"0.	c #042328",
"a.	c #06221F",
"b.	c #052120",
"c.	c #061C19",
"d.	c #1F873A",
"e.	c #2DBF50",
"f.	c #082E1E",
"g.	c #09312B",
"h.	c #002017",
"i.	c #022324",
"j.	c #021F2A",
"k.	c #051E27",
"l.	c #031E27",
"m.	c #071F25",
"n.	c #186234",
"o.	c #1A8235",
"p.	c #06261F",
"q.	c #021E1A",
"r.	c #011F1B",
"s.	c #062124",
"t.	c #041928",
"u.	c #0D2629",
"v.	c #0B2722",
"w.	c #051D1F",
"x.	c #081D1E",
"y.	c #012F20",
"z.	c #043227",
"A.	c #011D16",
"B.	c #031F1B",
"C.	c #03211E",
"D.	c #04221F",
"E.	c #051F1F",
"F.	c #062E25",
"G.	c #06322A",
"H.	c #042E24",
"I.	c #07332A",
"J.	c #00221D",
"K.	c #00201B",
"L.	c #00201C",
"M.	c #00201E",
"N.	c #031F1E",
"O.	c #072F29",
"P.	c #04342D",
"Q.	c #092F28",
"R.	c #094136",
"S.	c #063028",
"T.	c #033126",
"U.	c #033125",
"V.	c #033326",
"W.	c #023225",
"X.	c #073D32",
"Y.	c #08342F",
"Z.	c #031512",
"`.	c #062C23",
" +	c #052B23",
".+	c #042A1F",
"++	c #042A1E",
"@+	c #05271E",
"#+	c #041412",
". + @ # $ $ $ $ $ % & & * = - ",
"; > , ' ) ) ) ) ) ) ! ! ~ { ] ",
"^ / ( _ _ : < < < < [ [ } | ~ ",
"1 2 _ 3 4 5 6 7 8 9 0 4 a | b ",
"c * d e [ f g h i j k [ ( l m ",
"n * d < o p q r s t u v w x m ",
"c * _ 4 y z A B C D E F G l m ",
"c * H I J K L M N O P Q 6 R S ",
"c * H 9 T U V W X Y Z `  .R S ",
"c * H ..+.@.#.$.%.&.*.=.: R S ",
"c * H -.;.>.,.'.).!.~.{.].l m ",
"c * H ^./.(._.:.<.[.}.|.G l m ",
"c * H _ 1.2.3.4.5.6.7.8._ x m ",
"9.* _ d 0.2.a.b.c.d.e.f.: R g.",
"9.* d h.i.j.k.l.m.n.o.p.q.R g.",
"9.* d H r.s.@.(.t.u.v.w.x.l g.",
"y.z.A._ _ B.C.].D.].E.3.w F.G.",
"H.I.7 J.K.K.K.K.K.L.M.L.N.O.P.",
"Q.R.S.T.U.V.U.V.V.U.W.U.T.X.Y.",
"Z.`. +.+++++++++++++++++++@+#+"};
