/* XPM */
static char * digit_5_xpm[] = {
"10 20 152 2",
"  	c None",
". 	c #052F27",
"+ 	c #022E21",
"@ 	c #022E23",
"# 	c #013327",
"$ 	c #013328",
"% 	c #013124",
"& 	c #033122",
"* 	c #013122",
"= 	c #003221",
"- 	c #023429",
"; 	c #06362F",
"> 	c #051D1B",
", 	c #071F1B",
"' 	c #051D18",
") 	c #031D18",
"! 	c #031F1C",
"~ 	c #011F19",
"{ 	c #031D1A",
"] 	c #051D1A",
"^ 	c #011F18",
"/ 	c #031F19",
"( 	c #021E1C",
"_ 	c #02201A",
": 	c #031F1B",
"< 	c #091F21",
"[ 	c #042015",
"} 	c #071D16",
"| 	c #061E1C",
"1 	c #01151D",
"2 	c #051A1F",
"3 	c #03211C",
"4 	c #051F1A",
"5 	c #071D1C",
"6 	c #18443B",
"7 	c #298D56",
"8 	c #25A546",
"9 	c #26AA45",
"0 	c #1A7436",
"a 	c #06241C",
"b 	c #06201E",
"c 	c #01211A",
"d 	c #051F1B",
"e 	c #16443E",
"f 	c #2A7660",
"g 	c #24824A",
"h 	c #21953F",
"i 	c #1F993C",
"j 	c #1D6739",
"k 	c #082328",
"l 	c #062020",
"m 	c #011F1A",
"n 	c #041E1C",
"o 	c #22744B",
"p 	c #2E9A5E",
"q 	c #09291F",
"r 	c #061E19",
"s 	c #061B24",
"t 	c #041F2A",
"u 	c #041E1B",
"v 	c #08201D",
"w 	c #1B853B",
"x 	c #2BB34E",
"y 	c #0C2C20",
"z 	c #061C1E",
"A 	c #061E26",
"B 	c #091C27",
"C 	c #07211E",
"D 	c #04201B",
"E 	c #081E1C",
"F 	c #1E8C3B",
"G 	c #27B949",
"H 	c #0C2C1F",
"I 	c #062017",
"J 	c #032110",
"K 	c #091F25",
"L 	c #02212A",
"M 	c #06201D",
"N 	c #071F1F",
"O 	c #134F2B",
"P 	c #238749",
"Q 	c #268852",
"R 	c #219D41",
"S 	c #21A13C",
"T 	c #1D6F3A",
"U 	c #0A2224",
"V 	c #051F1C",
"W 	c #06201F",
"X 	c #04191E",
"Y 	c #1B4541",
"Z 	c #24864B",
"` 	c #259D44",
" .	c #22A040",
"..	c #288C52",
"+.	c #1B5146",
"@.	c #091E21",
"#.	c #00221A",
"$.	c #042228",
"%.	c #04192A",
"&.	c #0B231E",
"*.	c #0A241F",
"=.	c #09211A",
"-.	c #23754D",
";.	c #2E905E",
">.	c #08261D",
",.	c #021828",
"'.	c #05211D",
").	c #02201B",
"!.	c #218941",
"~.	c #2BA94F",
"{.	c #0A281C",
"].	c #052127",
"^.	c #031A29",
"/.	c #07211F",
"(.	c #07211D",
"_.	c #081E19",
":.	c #21913E",
"<.	c #29B146",
"[.	c #09271C",
"}.	c #06221D",
"|.	c #041F22",
"1.	c #288451",
"2.	c #249C43",
"3.	c #26A046",
"4.	c #27A146",
"5.	c #196F35",
"6.	c #09211C",
"7.	c #071D1A",
"8.	c #154138",
"9.	c #288853",
"0.	c #279D43",
"a.	c #26A243",
"b.	c #1C6A36",
"c.	c #08221C",
"d.	c #021E17",
"e.	c #041D20",
"f.	c #05211A",
"g.	c #062218",
"h.	c #07211A",
"i.	c #091E1F",
"j.	c #021E16",
"k.	c #002219",
"l.	c #022018",
"m.	c #002017",
"n.	c #001E14",
"o.	c #002217",
"p.	c #022016",
"q.	c #043429",
"r.	c #033527",
"s.	c #033526",
"t.	c #0A2820",
"u.	c #002A1D",
". + + + + + + @ @ @ ",
"# $ # % & * = # - ; ",
"> , ' ) ! ~ { ] ^ / ",
"( _ _ : < [ } | 1 2 ",
"3 4 5 6 7 8 9 0 a b ",
"c d e f g h i j k l ",
"m n o p q 4 r s t b ",
"u v w x y l z A B C ",
"D E F G H I J K L M ",
"4 N O P Q R S T U E ",
"V W X Y Z `  ...+.@.",
"_ #.$.%.&.*.=.-.;.>.",
"_ #.$.,.'.).) !.~.{.",
").c ].^./.(._.:.<.[.",
"4 }.|.Y 1.2.3.4.5.6.",
"_ l 7.8.9.0.a.b.c.d ",
"d.e.V b f.g.h.i.| N ",
": j.k.l.D m.n.l.o.p.",
"q.r.r.r.r.r.r.r.s.r.",
"t.u.u.u.u.u.u.u.u.u."};
