/* XPM */
static char * digit_3_xpm[] = {
"10 20 151 2",
"  	c None",
". 	c #032F24",
"+ 	c #022E23",
"@ 	c #022E24",
"# 	c #023226",
"$ 	c #013328",
"% 	c #003226",
"& 	c #003227",
"* 	c #04322B",
"= 	c #033127",
"- 	c #003023",
"; 	c #023024",
"> 	c #033329",
", 	c #061C17",
"' 	c #071F1C",
") 	c #041E1A",
"! 	c #041E1B",
"~ 	c #031F1B",
"{ 	c #051F1D",
"] 	c #061E1E",
"^ 	c #071F1B",
"/ 	c #05211E",
"( 	c #062421",
"_ 	c #041E18",
": 	c #051D1D",
"< 	c #05231F",
"[ 	c #042218",
"} 	c #072317",
"| 	c #091F18",
"1 	c #041E17",
"2 	c #01211A",
"3 	c #051D19",
"4 	c #06201B",
"5 	c #011D15",
"6 	c #114337",
"7 	c #278953",
"8 	c #24A445",
"9 	c #26AA45",
"0 	c #1D753A",
"a 	c #06241E",
"b 	c #081E1C",
"c 	c #04201B",
"d 	c #062122",
"e 	c #18423C",
"f 	c #24804D",
"g 	c #239543",
"h 	c #1D9737",
"i 	c #228450",
"j 	c #1B4B4D",
"k 	c #052123",
"l 	c #062226",
"m 	c #071F29",
"n 	c #061F20",
"o 	c #051D15",
"p 	c #081C16",
"q 	c #1F545B",
"r 	c #2E7172",
"s 	c #082624",
"t 	c #07211E",
"u 	c #041C26",
"v 	c #07211F",
"w 	c #081A19",
"x 	c #24704F",
"y 	c #2F935E",
"z 	c #092922",
"A 	c #061D2A",
"B 	c #07231F",
"C 	c #052115",
"D 	c #091F19",
"E 	c #1E8A3D",
"F 	c #26B047",
"G 	c #092B1E",
"H 	c #051F1F",
"I 	c #18443D",
"J 	c #268653",
"K 	c #219B41",
"L 	c #239F3D",
"M 	c #21A13F",
"N 	c #196735",
"O 	c #06221B",
"P 	c #04201A",
"Q 	c #062221",
"R 	c #194540",
"S 	c #25854E",
"T 	c #229C42",
"U 	c #239F40",
"V 	c #278F51",
"W 	c #195142",
"X 	c #062220",
"Y 	c #06201E",
"Z 	c #032125",
"` 	c #031A29",
" .	c #092322",
"..	c #09231D",
"+.	c #072119",
"@.	c #25734D",
"#.	c #329261",
"$.	c #072921",
"%.	c #031D25",
"&.	c #011929",
"*.	c #02221E",
"=.	c #02201C",
"-.	c #031B18",
";.	c #1F873F",
">.	c #2FAB55",
",.	c #062C1B",
"'.	c #062026",
").	c #051B29",
"!.	c #06221F",
"~.	c #0A201D",
"{.	c #091D1A",
"].	c #1C8E37",
"^.	c #2AB44B",
"/.	c #092B1B",
"(.	c #05211A",
"_.	c #072323",
":.	c #194342",
"<.	c #268452",
"[.	c #249C49",
"}.	c #25A145",
"|.	c #24A442",
"1.	c #1D6F36",
"2.	c #0A2422",
"3.	c #113F36",
"4.	c #27854D",
"5.	c #269E45",
"6.	c #22A441",
"7.	c #176D31",
"8.	c #03211A",
"9.	c #062020",
"0.	c #05211B",
"a.	c #051F18",
"b.	c #07211D",
"c.	c #09211C",
"d.	c #0A201A",
"e.	c #051F19",
"f.	c #04201D",
"g.	c #03211D",
"h.	c #021E19",
"i.	c #051F1C",
"j.	c #022019",
"k.	c #02201A",
"l.	c #033325",
"m.	c #013323",
"n.	c #033527",
"o.	c #033526",
"p.	c #052920",
"q.	c #03291F",
"r.	c #02281D",
"s.	c #002A1D",
"t.	c #042820",
". + + + @ @ @ @ @ @ ",
"# $ % & * = - ; > $ ",
", ' ) ) ! ~ { ] ' ^ ",
"/ ( _ : < [ } | 1 2 ",
"3 4 5 6 7 8 9 0 a b ",
"! c d e f g h i j k ",
"! c l m n o p q r s ",
") t u m v c w x y z ",
"c ' l A B C D E F G ",
"c ' H I J K L M N O ",
"P t Q R S T U V W X ",
"P Y Z `  ...+.@.#.$.",
"P Y %.&.*.=.-.;.>.,.",
"P Y '.).!.~.{.].^./.",
"c (._.:.<.[.}.|.1.2.",
"c O { 3.4.5.6.7.8.9.",
"c 0.Y a.b.c.d.e.f.g.",
"3 h.i.j.k.j.4 j.c ) ",
"l.m.n.o.o.o.o.o.n.n.",
"p.q.r.s.s.s.s.s.r.t."};
