/* XPM */
static char * digit_0_xpm[] = {
"10 20 143 2",
"  	c None",
". 	c #052D25",
"+ 	c #022A22",
"@ 	c #002A21",
"# 	c #002A20",
"$ 	c #0A322E",
"% 	c #07352E",
"& 	c #06362D",
"* 	c #071D19",
"= 	c #031F1B",
"- 	c #02201D",
"; 	c #02201B",
"> 	c #011F1C",
", 	c #051F1C",
"' 	c #001E1B",
") 	c #051F1D",
"! 	c #05211D",
"~ 	c #031F19",
"{ 	c #031F17",
"] 	c #051F1F",
"^ 	c #011F1A",
"/ 	c #071F1B",
"( 	c #051C1D",
"_ 	c #163E35",
": 	c #287E55",
"< 	c #249446",
"[ 	c #229841",
"} 	c #156332",
"| 	c #022219",
"1 	c #06201E",
"2 	c #022017",
"3 	c #07211F",
"4 	c #153D38",
"5 	c #2C7462",
"6 	c #2A985B",
"7 	c #29AD4B",
"8 	c #29B14C",
"9 	c #288C57",
"0 	c #164244",
"a 	c #031F1D",
"b 	c #1F734C",
"c 	c #2C9660",
"d 	c #0A2E21",
"e 	c #08261A",
"f 	c #23585D",
"g 	c #25626D",
"h 	c #0A2422",
"i 	c #091D1C",
"j 	c #1F8541",
"k 	c #2AB251",
"l 	c #062C1B",
"m 	c #061F20",
"n 	c #236F51",
"o 	c #2C8A5F",
"p 	c #0A261E",
"q 	c #0A2020",
"r 	c #1C8C39",
"s 	c #2ABC4D",
"t 	c #082C1B",
"u 	c #021E18",
"v 	c #1E8C40",
"w 	c #29AD4E",
"x 	c #0A2820",
"y 	c #04201A",
"z 	c #135D2A",
"A 	c #1A7C3A",
"B 	c #072629",
"C 	c #051C27",
"D 	c #061F24",
"E 	c #166636",
"F 	c #167232",
"G 	c #06221A",
"H 	c #071F1E",
"I 	c #123C35",
"J 	c #1C4E49",
"K 	c #04212A",
"L 	c #031B29",
"M 	c #061C28",
"N 	c #164440",
"O 	c #17473E",
"P 	c #04201C",
"Q 	c #011F18",
"R 	c #041E19",
"S 	c #20704D",
"T 	c #309265",
"U 	c #0A2A23",
"V 	c #071D1B",
"W 	c #247052",
"X 	c #2C885E",
"Y 	c #09271E",
"Z 	c #071F1C",
"` 	c #1D8341",
" .	c #2DAF55",
"..	c #0E2C22",
"+.	c #061C1C",
"@.	c #228846",
"#.	c #2BA754",
"$.	c #0A281E",
"%.	c #021E15",
"&.	c #091D1B",
"*.	c #1C8E3C",
"=.	c #27BB4A",
"-.	c #0F2D1F",
";.	c #061E1A",
">.	c #091919",
",.	c #1E903E",
"'.	c #29B34D",
").	c #0C2C23",
"!.	c #16602E",
"~.	c #299951",
"{.	c #23774B",
"].	c #20863F",
"^.	c #208A3E",
"/.	c #259F48",
"(.	c #197936",
"_.	c #08241E",
":.	c #042017",
"<.	c #06221E",
"[.	c #1B4F43",
"}.	c #2C9C5B",
"|.	c #25B74B",
"1.	c #28BC4B",
"2.	c #1B793A",
"3.	c #092521",
"4.	c #091B1D",
"5.	c #061D1E",
"6.	c #071F21",
"7.	c #062220",
"8.	c #05291C",
"9.	c #052B1B",
"0.	c #062C1C",
"a.	c #07231D",
"b.	c #071D1F",
"c.	c #00201C",
"d.	c #00201A",
"e.	c #02221F",
"f.	c #062E22",
"g.	c #033127",
"h.	c #033126",
"i.	c #043229",
"j.	c #03291B",
"k.	c #042A1F",
"l.	c #062A20",
". + + + @ @ @ @ @ # ",
"$ % % % & & & % % & ",
"* = = = - - - ; ; > ",
", ; ' ) ! ~ { ) ] ^ ",
"; / ( _ : < [ } | 1 ",
"2 3 4 5 6 7 8 9 0 1 ",
"a = b c d e e f g h ",
", i j k l m = n o p ",
") q r s t 1 u v w x ",
"y ) z A B C D E F G ",
"2 H I J K L M N O P ",
"Q R S T U 3 V W X Y ",
"u Z `  ...3 +.@.#.$.",
"%.&.*.=.-.;.>.,.'.).",
"P ;.!.~.{.].^./.(._.",
":., <.[.}.|.1.2.3.4.",
"5.6.1 7.8.9.0.a.b.1 ",
"= c.c.c.c.c.c.d.c.e.",
"f.g.h.g.i.i.i.h.h.g.",
"j.k.k.k.l.l.l.k.k.k."};
