/* XPM */
static char * digit_0_xpm[] = {
"15 20 204 2",
"  	c None",
". 	c #031310",
"+ 	c #072B26",
"@ 	c #052D25",
"# 	c #022A22",
"$ 	c #002A21",
"% 	c #002A20",
"& 	c #052D27",
"* 	c #052B23",
"= 	c #081210",
"- 	c #073127",
"; 	c #084036",
"> 	c #0A322E",
", 	c #07352E",
"' 	c #06362D",
") 	c #063029",
"! 	c #073B2F",
"~ 	c #072B25",
"{ 	c #08322A",
"] 	c #09312E",
"^ 	c #071D19",
"/ 	c #031F1B",
"( 	c #02201D",
"_ 	c #02201B",
": 	c #011F1C",
"< 	c #051B17",
"[ 	c #092D27",
"} 	c #043228",
"| 	c #053129",
"1 	c #051F1C",
"2 	c #001E1B",
"3 	c #051F1D",
"4 	c #05211D",
"5 	c #031F19",
"6 	c #031F17",
"7 	c #051F1F",
"8 	c #011F1A",
"9 	c #04201E",
"0 	c #062E25",
"a 	c #042C21",
"b 	c #023228",
"c 	c #013129",
"d 	c #071F1B",
"e 	c #051C1D",
"f 	c #163E35",
"g 	c #287E55",
"h 	c #249446",
"i 	c #229841",
"j 	c #156332",
"k 	c #022219",
"l 	c #06201E",
"m 	c #042222",
"n 	c #032D23",
"o 	c #002E22",
"p 	c #022017",
"q 	c #07211F",
"r 	c #153D38",
"s 	c #2C7462",
"t 	c #2A985B",
"u 	c #29AD4B",
"v 	c #29B14C",
"w 	c #288C57",
"x 	c #164244",
"y 	c #002221",
"z 	c #023226",
"A 	c #01332A",
"B 	c #031F1D",
"C 	c #1F734C",
"D 	c #2C9660",
"E 	c #0A2E21",
"F 	c #08261A",
"G 	c #23585D",
"H 	c #25626D",
"I 	c #0A2422",
"J 	c #022222",
"K 	c #042E25",
"L 	c #091D1C",
"M 	c #1F8541",
"N 	c #2AB251",
"O 	c #062C1B",
"P 	c #061F20",
"Q 	c #236F51",
"R 	c #2C8A5F",
"S 	c #0A261E",
"T 	c #03211E",
"U 	c #062C24",
"V 	c #012D22",
"W 	c #0A2020",
"X 	c #1C8C39",
"Y 	c #2ABC4D",
"Z 	c #082C1B",
"` 	c #021E18",
" .	c #1E8C40",
"..	c #29AD4E",
"+.	c #0A2820",
"@.	c #031E21",
"#.	c #04201A",
"$.	c #135D2A",
"%.	c #1A7C3A",
"&.	c #072629",
"*.	c #051C27",
"=.	c #061F24",
"-.	c #166636",
";.	c #167232",
">.	c #06221A",
",.	c #021E20",
"'.	c #071F1E",
").	c #123C35",
"!.	c #1C4E49",
"~.	c #04212A",
"{.	c #031B29",
"].	c #061C28",
"^.	c #164440",
"/.	c #17473E",
"(.	c #04201C",
"_.	c #022020",
":.	c #052D23",
"<.	c #011F18",
"[.	c #041E19",
"}.	c #20704D",
"|.	c #309265",
"1.	c #0A2A23",
"2.	c #071D1B",
"3.	c #247052",
"4.	c #2C885E",
"5.	c #09271E",
"6.	c #021C20",
"7.	c #071F1C",
"8.	c #1D8341",
"9.	c #2DAF55",
"0.	c #0E2C22",
"a.	c #061C1C",
"b.	c #228846",
"c.	c #2BA754",
"d.	c #0A281E",
"e.	c #02342A",
"f.	c #021E15",
"g.	c #091D1B",
"h.	c #1C8E3C",
"i.	c #27BB4A",
"j.	c #0F2D1F",
"k.	c #061E1A",
"l.	c #091919",
"m.	c #1E903E",
"n.	c #29B34D",
"o.	c #0C2C23",
"p.	c #012F24",
"q.	c #01352C",
"r.	c #16602E",
"s.	c #299951",
"t.	c #23774B",
"u.	c #20863F",
"v.	c #208A3E",
"w.	c #259F48",
"x.	c #197936",
"y.	c #08241E",
"z.	c #02201F",
"A.	c #032F23",
"B.	c #04342D",
"C.	c #042017",
"D.	c #06221E",
"E.	c #1B4F43",
"F.	c #2C9C5B",
"G.	c #25B74B",
"H.	c #28BC4B",
"I.	c #1B793A",
"J.	c #092521",
"K.	c #091B1D",
"L.	c #032F24",
"M.	c #073328",
"N.	c #033329",
"O.	c #061D1E",
"P.	c #071F21",
"Q.	c #062220",
"R.	c #05291C",
"S.	c #052B1B",
"T.	c #062C1C",
"U.	c #07231D",
"V.	c #071D1F",
"W.	c #042020",
"X.	c #052F29",
"Y.	c #02342B",
"Z.	c #02322A",
"`.	c #00201C",
" +	c #00201A",
".+	c #02221F",
"++	c #04322D",
"@+	c #023029",
"#+	c #08342D",
"$+	c #093F34",
"%+	c #062E22",
"&+	c #033127",
"*+	c #033126",
"=+	c #043229",
"-+	c #053D30",
";+	c #072F28",
">+	c #041611",
",+	c #03291F",
"'+	c #03291B",
")+	c #042A1F",
"!+	c #062A20",
"~+	c #042C23",
"{+	c #022A1E",
"]+	c #031713",
". + @ # # # $ $ $ $ $ % & * = ",
"- ; > , , , ' ' ' , , ' ) ! ~ ",
"{ ] ^ / / / ( ( ( _ _ : < [ & ",
"} | 1 _ 2 3 4 5 6 3 7 8 9 0 a ",
"b c _ d e f g h i j k l m n o ",
"b c p q r s t u v w x l y n o ",
"z A B / C D E F F G H I J K o ",
"z c 1 L M N O P / Q R S T U V ",
"z c 3 W X Y Z l `  ...+.@.U V ",
"z c #.3 $.%.&.*.=.-.;.>.,.U V ",
"z c p '.).!.~.{.].^./.(._.:.o ",
"z c <.[.}.|.1.q 2.3.4.5.6.:.o ",
"z c ` 7.8.9.0.q a.b.c.d.7 :.o ",
"e.A f.g.h.i.j.k.l.m.n.o._.K p.",
"e.q.(.k.r.s.t.u.v.w.x.y.z.K A.",
"B.q.C.1 D.E.F.G.H.I.J.K.7 K L.",
"M.N.O.P.l Q.R.S.T.U.V.l W.X.K ",
"Y.Z./ `.`.`.`.`.`. +`..+z.++@+",
"#+$+%+&+*+&+=+=+=+*+*+&+=+-+;+",
">+,+'+)+)+)+!+!+!+)+)+)+~+{+]+"};
