/* XPM */
static char * digit_5_xpm[] = {
"15 20 203 2",
"  	c None",
". 	c #041612",
"+ 	c #052F27",
"@ 	c #022E21",
"# 	c #022E23",
"$ 	c #081412",
"% 	c #043228",
"& 	c #044030",
"* 	c #013327",
"= 	c #013328",
"- 	c #013124",
"; 	c #033122",
"> 	c #013122",
", 	c #003221",
"' 	c #023429",
") 	c #06362F",
"! 	c #03352F",
"~ 	c #064034",
"{ 	c #032D24",
"] 	c #033125",
"^ 	c #023027",
"/ 	c #051D1B",
"( 	c #071F1B",
"_ 	c #051D18",
": 	c #031D18",
"< 	c #031F1C",
"[ 	c #011F19",
"} 	c #031D1A",
"| 	c #051D1A",
"1 	c #011F18",
"2 	c #031F19",
"3 	c #011F1D",
"4 	c #042E26",
"5 	c #013121",
"6 	c #013126",
"7 	c #021E1C",
"8 	c #02201A",
"9 	c #031F1B",
"0 	c #091F21",
"a 	c #042015",
"b 	c #071D16",
"c 	c #061E1C",
"d 	c #01151D",
"e 	c #051A1F",
"f 	c #031F1E",
"g 	c #022E22",
"h 	c #022E1F",
"i 	c #013329",
"j 	c #03211C",
"k 	c #051F1A",
"l 	c #071D1C",
"m 	c #18443B",
"n 	c #298D56",
"o 	c #25A546",
"p 	c #26AA45",
"q 	c #1A7436",
"r 	c #06241C",
"s 	c #06201E",
"t 	c #022220",
"u 	c #042E24",
"v 	c #00301E",
"w 	c #023227",
"x 	c #01332A",
"y 	c #01211A",
"z 	c #051F1B",
"A 	c #16443E",
"B 	c #2A7660",
"C 	c #24824A",
"D 	c #21953F",
"E 	c #1F993C",
"F 	c #1D6739",
"G 	c #082328",
"H 	c #062020",
"I 	c #01211E",
"J 	c #062E25",
"K 	c #003020",
"L 	c #011F1A",
"M 	c #041E1C",
"N 	c #22744B",
"O 	c #2E9A5E",
"P 	c #09291F",
"Q 	c #061E19",
"R 	c #061B24",
"S 	c #041F2A",
"T 	c #052120",
"U 	c #052D24",
"V 	c #023226",
"W 	c #003227",
"X 	c #041E1B",
"Y 	c #08201D",
"Z 	c #1B853B",
"` 	c #2BB34E",
" .	c #0C2C20",
"..	c #061C1E",
"+.	c #061E26",
"@.	c #091C27",
"#.	c #07211E",
"$.	c #031F1D",
"%.	c #032D21",
"&.	c #002E1F",
"*.	c #04201B",
"=.	c #081E1C",
"-.	c #1E8C3B",
";.	c #27B949",
">.	c #0C2C1F",
",.	c #062017",
"'.	c #032110",
").	c #091F25",
"!.	c #02212A",
"~.	c #06201D",
"{.	c #002E22",
"].	c #071F1F",
"^.	c #134F2B",
"/.	c #238749",
"(.	c #268852",
"_.	c #219D41",
":.	c #21A13C",
"<.	c #1D6F3A",
"[.	c #0A2224",
"}.	c #051F1C",
"|.	c #06201F",
"1.	c #04191E",
"2.	c #1B4541",
"3.	c #24864B",
"4.	c #259D44",
"5.	c #22A040",
"6.	c #288C52",
"7.	c #1B5146",
"8.	c #091E21",
"9.	c #031D1F",
"0.	c #00221A",
"a.	c #042228",
"b.	c #04192A",
"c.	c #0B231E",
"d.	c #0A241F",
"e.	c #09211A",
"f.	c #23754D",
"g.	c #2E905E",
"h.	c #08261D",
"i.	c #021828",
"j.	c #05211D",
"k.	c #02201B",
"l.	c #218941",
"m.	c #2BA94F",
"n.	c #0A281C",
"o.	c #00201C",
"p.	c #052127",
"q.	c #031A29",
"r.	c #07211F",
"s.	c #07211D",
"t.	c #081E19",
"u.	c #21913E",
"v.	c #29B146",
"w.	c #09271C",
"x.	c #06221D",
"y.	c #041F22",
"z.	c #288451",
"A.	c #249C43",
"B.	c #26A046",
"C.	c #27A146",
"D.	c #196F35",
"E.	c #09211C",
"F.	c #042C21",
"G.	c #071D1A",
"H.	c #154138",
"I.	c #288853",
"J.	c #279D43",
"K.	c #26A243",
"L.	c #1C6A36",
"M.	c #08221C",
"N.	c #01211D",
"O.	c #021E17",
"P.	c #041D20",
"Q.	c #05211A",
"R.	c #062218",
"S.	c #07211A",
"T.	c #091E1F",
"U.	c #02201D",
"V.	c #063227",
"W.	c #05312C",
"X.	c #021E16",
"Y.	c #002219",
"Z.	c #022018",
"`.	c #002017",
" +	c #001E14",
".+	c #002217",
"++	c #022016",
"@+	c #02221E",
"#+	c #032F25",
"$+	c #062E23",
"%+	c #063E30",
"&+	c #043429",
"*+	c #033527",
"=+	c #033526",
"-+	c #03372D",
";+	c #032B22",
">+	c #08100E",
",+	c #0A261E",
"'+	c #0A2820",
")+	c #002A1D",
"!+	c #0B2921",
"~+	c #09251E",
"{+	c #0A0D0E",
". + + @ @ @ @ @ @ # # # # + $ ",
"% & * = * - ; > , * ' ) ! ~ { ",
"] ^ / ( _ : < [ } | 1 2 3 4 @ ",
"5 6 7 8 8 9 0 a b c d e f g h ",
"- i j k l m n o p q r s t u v ",
"w x y z A B C D E F G H I J K ",
"w x L M N O P k Q R S s T U K ",
"V W X Y Z `  .H ..+.@.#.$.%.&.",
"V i *.=.-.;.>.,.'.).!.~.$.%.{.",
"V i k ].^./.(._.:.<.[.=.j %.{.",
"V i }.|.1.2.3.4.5.6.7.8.9.%.{.",
"w x 8 0.a.b.c.d.e.f.g.h.$.%.{.",
"w x 8 0.a.i.j.k.: l.m.n.o.%.{.",
"w x k.y p.q.r.s.t.u.v.w.I %.{.",
"w x k x.y.2.z.A.B.C.D.E.9 F.g ",
"w x 8 H G.H.I.J.K.L.M.z N.F.g ",
"w i O.P.}.s Q.R.S.T.c ].U.F.g ",
"V.W.9 X.Y.Z.*.`. +Z..+++@+#++ ",
"$+%+&+*+*+*+*+*+*+*+=+*+-+%+;+",
">+,+'+)+)+)+)+)+)+)+)+)+!+~+{+"};
