/* XPM */
static char * digit_2_xpm[] = {
"10 20 160 2",
"  	c None",
". 	c #06302A",
"+ 	c #042E25",
"@ 	c #022E24",
"# 	c #02342B",
"$ 	c #023429",
"% 	c #013529",
"& 	c #013327",
"* 	c #003425",
"= 	c #01311F",
"- 	c #023022",
"; 	c #023025",
"> 	c #05332C",
", 	c #041E1A",
"' 	c #031F19",
") 	c #06201D",
"! 	c #031F1B",
"~ 	c #051F1C",
"{ 	c #061E1D",
"] 	c #031F1C",
"^ 	c #06201C",
"/ 	c #061E1B",
"( 	c #02201B",
"_ 	c #072321",
": 	c #092120",
"< 	c #05211E",
"[ 	c #05211B",
"} 	c #042218",
"| 	c #042213",
"1 	c #091B1A",
"2 	c #082220",
"3 	c #07211F",
"4 	c #021E18",
"5 	c #04201D",
"6 	c #134137",
"7 	c #2D8958",
"8 	c #28A44B",
"9 	c #26AA45",
"0 	c #1C763C",
"a 	c #08221D",
"b 	c #051F1D",
"c 	c #011F19",
"d 	c #04201A",
"e 	c #061F20",
"f 	c #153D3A",
"g 	c #217D46",
"h 	c #22943D",
"i 	c #1F9738",
"j 	c #248652",
"k 	c #1B484F",
"l 	c #0B2121",
"m 	c #061E18",
"n 	c #062126",
"o 	c #041B28",
"p 	c #061E20",
"q 	c #081E1A",
"r 	c #071D1A",
"s 	c #1F5257",
"t 	c #296E77",
"u 	c #082824",
"v 	c #04201C",
"w 	c #052427",
"x 	c #04212A",
"y 	c #051D1F",
"z 	c #03181B",
"A 	c #236B4C",
"B 	c #339963",
"C 	c #0D2D26",
"D 	c #03211D",
"E 	c #072325",
"F 	c #051C27",
"G 	c #06201A",
"H 	c #06221B",
"I 	c #0B1D1A",
"J 	c #20823C",
"K 	c #2EB852",
"L 	c #072D1C",
"M 	c #17312C",
"N 	c #04221F",
"O 	c #081E20",
"P 	c #17413F",
"Q 	c #298150",
"R 	c #259B43",
"S 	c #24A041",
"T 	c #23A141",
"U 	c #176B2F",
"V 	c #08241D",
"W 	c #233934",
"X 	c #1F2F2D",
"Y 	c #113D33",
"Z 	c #27715D",
"` 	c #27854F",
" .	c #259F42",
"..	c #1B7139",
"+.	c #0B2125",
"@.	c #06201E",
"#.	c #07231D",
"$.	c #253734",
"%.	c #357757",
"&.	c #2B995C",
"*.	c #0A2E20",
"=.	c #06241C",
"-.	c #06221A",
";.	c #071F27",
">.	c #022219",
",.	c #08201F",
"'.	c #35814E",
").	c #3EB660",
"!.	c #0C3222",
"~.	c #02201D",
"{.	c #041F26",
"].	c #041C1E",
"^.	c #1A7E31",
"/.	c #3DC15C",
"(.	c #264236",
"_.	c #0B2320",
":.	c #08201C",
"<.	c #061F26",
"[.	c #022019",
"}.	c #051F1E",
"|.	c #104C27",
"1.	c #268C4A",
"2.	c #3A8E62",
"3.	c #38A055",
"4.	c #27A347",
"5.	c #1E743E",
"6.	c #0A2628",
"7.	c #133D35",
"8.	c #23854A",
"9.	c #2F9F4C",
"0.	c #3CAE57",
"a.	c #1E783C",
"b.	c #05211C",
"c.	c #03211B",
"d.	c #06221F",
"e.	c #07211C",
"f.	c #0A221E",
"g.	c #1B2F2E",
"h.	c #293B39",
"i.	c #112727",
"j.	c #04221B",
"k.	c #01211A",
"l.	c #01231B",
"m.	c #04221D",
"n.	c #102C22",
"o.	c #283C36",
"p.	c #112725",
"q.	c #07332A",
"r.	c #053325",
"s.	c #033527",
"t.	c #023425",
"u.	c #033326",
"v.	c #0D3D2F",
"w.	c #264C42",
"x.	c #0B2921",
"y.	c #05291D",
"z.	c #002A1E",
"A.	c #022A1E",
"B.	c #072B21",
"C.	c #122E26",
". + @ @ @ @ @ @ @ @ ",
"# $ % & * = - ; > > ",
", ' , ) ! ~ { ] ^ / ",
"( _ : < [ } | 1 2 3 ",
"4 5 ~ 6 7 8 9 0 a b ",
"c d e f g h i j k l ",
"c m n o p q r s t u ",
"v [ w x ~ y z A B C ",
"D [ E F G H I J K L ",
"M N O P Q R S T U V ",
"W X Y Z ` R  ...+.@.",
"#.$.%.&.*.=.-.;.o >.",
"c ,.'.).!.~.c {.o >.",
"c ].^./.(._.:.<.o [.",
"c }.|.1.2.3.4.5.6.N ",
"c { / 7.8.9.0.a.b.5 ",
"c c.d.! e.f.g.h.i.}.",
"b ! j.k.l.m.D n.o.p.",
"q.r.s.s.t.t.u.t.v.w.",
"x.y.z.z.z.z.z.A.B.C."};
