/* XPM */
static char * digit_4_xpm[] = {
"15 20 204 2",
"  	c None",
". 	c #071415",
"+ 	c #072F26",
"@ 	c #022E24",
"# 	c #022E22",
"$ 	c #072F2A",
"% 	c #072D24",
"& 	c #0D1111",
"* 	c #06322A",
"= 	c #044234",
"- 	c #013125",
"; 	c #003224",
"> 	c #013327",
", 	c #023429",
"' 	c #043630",
") 	c #044033",
"! 	c #072B24",
"~ 	c #023424",
"{ 	c #033127",
"] 	c #061E1A",
"^ 	c #06201D",
"/ 	c #051F1B",
"( 	c #061E1B",
"_ 	c #071F1C",
": 	c #011F19",
"< 	c #032F23",
"[ 	c #052D21",
"} 	c #003223",
"| 	c #033129",
"1 	c #061D20",
"2 	c #072023",
"3 	c #082124",
"4 	c #071F21",
"5 	c #072021",
"6 	c #05211F",
"7 	c #04221D",
"8 	c #05211E",
"9 	c #04201D",
"0 	c #01211E",
"a 	c #043027",
"b 	c #022E23",
"c 	c #013323",
"d 	c #031D16",
"e 	c #042019",
"f 	c #072322",
"g 	c #052129",
"h 	c #062528",
"i 	c #072129",
"j 	c #082024",
"k 	c #071F1D",
"l 	c #041E17",
"m 	c #01211A",
"n 	c #023021",
"o 	c #012D20",
"p 	c #023028",
"q 	c #011D16",
"r 	c #07211E",
"s 	c #134339",
"t 	c #1E5A4E",
"u 	c #092229",
"v 	c #042328",
"w 	c #061B26",
"x 	c #123844",
"y 	c #14464C",
"z 	c #09211E",
"A 	c #002018",
"B 	c #002C1E",
"C 	c #023027",
"D 	c #031F1C",
"E 	c #071F1E",
"F 	c #236F49",
"G 	c #309A5F",
"H 	c #092B20",
"I 	c #02201A",
"J 	c #1F555D",
"K 	c #2A6A70",
"L 	c #0A2623",
"M 	c #023024",
"N 	c #041A1C",
"O 	c #081C1A",
"P 	c #1E7E3B",
"Q 	c #29B34D",
"R 	c #052D1C",
"S 	c #0B1819",
"T 	c #24724C",
"U 	c #28925A",
"V 	c #06261A",
"W 	c #00201A",
"X 	c #022C1F",
"Y 	c #052120",
"Z 	c #1D853A",
"` 	c #29BB48",
" .	c #0B2D1A",
"..	c #062218",
"+.	c #0A2019",
"@.	c #258B42",
"#.	c #28B048",
"$.	c #0A281D",
"%.	c #00201D",
"&.	c #032F24",
"*.	c #012B1B",
"=.	c #03312A",
"-.	c #031C1F",
";.	c #051D1F",
">.	c #0F4D28",
",.	c #218B46",
"'.	c #298954",
").	c #209C40",
"!.	c #26A444",
"~.	c #24A044",
"{.	c #13652A",
"].	c #062018",
"^.	c #002A1A",
"/.	c #033128",
"(.	c #04201C",
"_.	c #051C21",
":.	c #17433C",
"<.	c #298550",
"[.	c #259B43",
"}.	c #289E47",
"|.	c #298D53",
"1.	c #1D5145",
"2.	c #08221F",
"3.	c #012B1D",
"4.	c #043025",
"5.	c #011F17",
"6.	c #031A25",
"7.	c #041A28",
"8.	c #0A2220",
"9.	c #0B2522",
"0.	c #0A201D",
"a.	c #23734C",
"b.	c #329063",
"c.	c #07271B",
"d.	c #043028",
"e.	c #032D22",
"f.	c #001E16",
"g.	c #041C26",
"h.	c #031D29",
"i.	c #061B1C",
"j.	c #1D893E",
"k.	c #2CAA50",
"l.	c #062817",
"m.	c #01211C",
"n.	c #03211C",
"o.	c #011927",
"p.	c #03211D",
"q.	c #071F1F",
"r.	c #20903D",
"s.	c #28B245",
"t.	c #052918",
"u.	c #02201C",
"v.	c #053128",
"w.	c #022C20",
"x.	c #033325",
"y.	c #05312B",
"z.	c #062220",
"A.	c #051A27",
"B.	c #061D2A",
"C.	c #021B28",
"D.	c #041E26",
"E.	c #165E36",
"F.	c #176D2F",
"G.	c #07211C",
"H.	c #013122",
"I.	c #002017",
"J.	c #031F1B",
"K.	c #082422",
"L.	c #04212A",
"M.	c #041D28",
"N.	c #072429",
"O.	c #062324",
"P.	c #092021",
"Q.	c #00221E",
"R.	c #013123",
"S.	c #021E19",
"T.	c #072120",
"U.	c #043227",
"V.	c #082C21",
"W.	c #021E16",
"X.	c #002015",
"Y.	c #012118",
"Z.	c #04201B",
"`.	c #03211A",
" +	c #022018",
".+	c #062019",
"++	c #041C14",
"@+	c #092F28",
"#+	c #032D20",
"$+	c #092D22",
"%+	c #063E2E",
"&+	c #033527",
"*+	c #033526",
"=+	c #05372C",
"-+	c #013322",
";+	c #084235",
">+	c #052921",
",+	c #081413",
"'+	c #0A241D",
")+	c #01291C",
"!+	c #002A1D",
"~+	c #042A20",
"{+	c #072B25",
"]+	c #051312",
". + @ @ @ @ @ @ @ @ @ # $ % & ",
"* = - ; ; > > > > > > , ' ) ! ",
"~ { ] ^ ^ / / / ( _ _ ( : < [ ",
"} | 1 2 3 4 5 5 6 7 8 9 0 a b ",
"c { d e e f g h i j k l m n o ",
"c p q r s t u v w x y z A n B ",
"c C D E F G H I D J K L A M o ",
"c | N O P Q R 6 S T U V W { X ",
"c | Y r Z `  ...+.@.#.$.%.&.*.",
"c =.-.;.>.,.'.).!.~.{.].%.&.^.",
"c /.9 (._.:.<.[.}.|.1.2.0 &.3.",
"c 4.5.I 6.7.8.9.0.a.b.c.W d.e.",
"c 4.f.: g.h.8 (.i.j.k.l.m.a e.",
"c 4.n.I g.o.p.m q.r.s.t.u.v.w.",
"x.y.D A z.A.B.C.D.E.F.G.%.&.B ",
"H.| I I.J.K.L.M.N.O.P.q.Q.&.B ",
"R.C S.f.(.8 n.I n.T.9 k %.&.B ",
"U.V.W.X.Y.Z.e Y.m `. +.+++@+#+",
"$+%+&+*+*+*+&+&+&+&+&+=+-+;+>+",
",+'+)+!+!+!+!+!+!+!+!+~+o {+]+"};
