/* XPM */
static char * digit_1_xpm[] = {
"10 20 8 1",
" 	c None",
".	c #C2F9B9",
"+	c #A8CEAD",
"@	c #2D0072",
"#	c #B0DBB0",
"$	c #5B4D88",
"%	c #310974",
"&	c #3E1E7A",
"..........",
"..........",
"..........",
"..........",
"..........",
"..+@@@....",
"..#$%@....",
"....&@....",
"....&@....",
"....&@....",
"....&@....",
"....&@....",
"....&@....",
"....&@....",
"....&@....",
"..........",
"..........",
"..........",
"..........",
".........."};
