/* XPM */
static char * digit_2_xpm[] = {
"15 20 220 2",
"  	c None",
". 	c #0B110F",
"+ 	c #052D23",
"@ 	c #06302A",
"# 	c #042E25",
"$ 	c #022E24",
"% 	c #08302A",
"& 	c #0A1614",
"* 	c #032D26",
"= 	c #053F31",
"- 	c #02342B",
"; 	c #023429",
"> 	c #013529",
", 	c #013327",
"' 	c #003425",
") 	c #01311F",
"! 	c #023022",
"~ 	c #023025",
"{ 	c #05332C",
"] 	c #05332B",
"^ 	c #093F35",
"/ 	c #07312B",
"( 	c #032F22",
"_ 	c #083025",
": 	c #041E1A",
"< 	c #031F19",
"[ 	c #06201D",
"} 	c #031F1B",
"| 	c #051F1C",
"1 	c #061E1D",
"2 	c #031F1C",
"3 	c #06201C",
"4 	c #061E1B",
"5 	c #042E27",
"6 	c #09332A",
"7 	c #012F23",
"8 	c #063225",
"9 	c #02201B",
"0 	c #072321",
"a 	c #092120",
"b 	c #05211E",
"c 	c #05211B",
"d 	c #042218",
"e 	c #042213",
"f 	c #091B1A",
"g 	c #082220",
"h 	c #07211F",
"i 	c #071F1E",
"j 	c #062C27",
"k 	c #0B332E",
"l 	c #021E18",
"m 	c #04201D",
"n 	c #134137",
"o 	c #2D8958",
"p 	c #28A44B",
"q 	c #26AA45",
"r 	c #1C763C",
"s 	c #08221D",
"t 	c #051F1D",
"u 	c #071D1D",
"v 	c #052D27",
"w 	c #0A322E",
"x 	c #013124",
"y 	c #063025",
"z 	c #011F19",
"A 	c #04201A",
"B 	c #061F20",
"C 	c #153D3A",
"D 	c #217D46",
"E 	c #22943D",
"F 	c #1F9738",
"G 	c #248652",
"H 	c #1B484F",
"I 	c #0B2121",
"J 	c #041E1C",
"K 	c #09312A",
"L 	c #003023",
"M 	c #061E18",
"N 	c #062126",
"O 	c #041B28",
"P 	c #061E20",
"Q 	c #081E1A",
"R 	c #071D1A",
"S 	c #1F5257",
"T 	c #296E77",
"U 	c #082824",
"V 	c #041C16",
"W 	c #042E24",
"X 	c #0D3D2F",
"Y 	c #04201C",
"Z 	c #052427",
"` 	c #04212A",
" .	c #051D1F",
"..	c #03181B",
"+.	c #236B4C",
"@.	c #339963",
"#.	c #0D2D26",
"$.	c #011D18",
"%.	c #0A322D",
"&.	c #294B43",
"*.	c #183A31",
"=.	c #03211D",
"-.	c #072325",
";.	c #051C27",
">.	c #06201A",
",.	c #06221B",
"'.	c #0B1D1A",
").	c #20823C",
"!.	c #2EB852",
"~.	c #072D1C",
"{.	c #041E18",
"].	c #11332C",
"^.	c #274941",
"/.	c #17312C",
"(.	c #04221F",
"_.	c #081E20",
":.	c #17413F",
"<.	c #298150",
"[.	c #259B43",
"}.	c #24A041",
"|.	c #23A141",
"1.	c #176B2F",
"2.	c #08241D",
"3.	c #042E26",
"4.	c #0C362B",
"5.	c #233934",
"6.	c #1F2F2D",
"7.	c #113D33",
"8.	c #27715D",
"9.	c #27854F",
"0.	c #259F42",
"a.	c #1B7139",
"b.	c #0B2125",
"c.	c #06201E",
"d.	c #031F1A",
"e.	c #09312B",
"f.	c #003022",
"g.	c #07231D",
"h.	c #253734",
"i.	c #357757",
"j.	c #2B995C",
"k.	c #0A2E20",
"l.	c #06241C",
"m.	c #06221A",
"n.	c #071F27",
"o.	c #022219",
"p.	c #011F15",
"q.	c #09312C",
"r.	c #073127",
"s.	c #08201F",
"t.	c #35814E",
"u.	c #3EB660",
"v.	c #0C3222",
"w.	c #02201D",
"x.	c #041F26",
"y.	c #001E16",
"z.	c #041C1E",
"A.	c #1A7E31",
"B.	c #3DC15C",
"C.	c #264236",
"D.	c #0B2320",
"E.	c #08201C",
"F.	c #061F26",
"G.	c #022019",
"H.	c #073126",
"I.	c #051F1E",
"J.	c #104C27",
"K.	c #268C4A",
"L.	c #3A8E62",
"M.	c #38A055",
"N.	c #27A347",
"O.	c #1E743E",
"P.	c #0A2628",
"Q.	c #042019",
"R.	c #07332A",
"S.	c #133D35",
"T.	c #23854A",
"U.	c #2F9F4C",
"V.	c #3CAE57",
"W.	c #1E783C",
"X.	c #05211C",
"Y.	c #051F1B",
"Z.	c #03211B",
"`.	c #06221F",
" +	c #07211C",
".+	c #0A221E",
"++	c #1B2F2E",
"@+	c #293B39",
"#+	c #112727",
"$+	c #0C302A",
"%+	c #0A2E26",
"&+	c #04221B",
"*+	c #01211A",
"=+	c #01231B",
"-+	c #04221D",
";+	c #102C22",
">+	c #283C36",
",+	c #112725",
"'+	c #03332B",
")+	c #072B26",
"!+	c #073F32",
"~+	c #053325",
"{+	c #033527",
"]+	c #023425",
"^+	c #033326",
"/+	c #264C42",
"(+	c #163A32",
"_+	c #083E31",
":+	c #03332A",
"<+	c #050D0C",
"[+	c #012719",
"}+	c #0B2921",
"|+	c #05291D",
"1+	c #002A1E",
"2+	c #022A1E",
"3+	c #072B21",
"4+	c #122E26",
"5+	c #2D4741",
"6+	c #1F3934",
"7+	c #070F0B",
". + @ # $ $ $ $ $ $ $ $ $ % & ",
"* = - ; > , ' ) ! ~ { { ] ^ / ",
"( _ : < : [ } | 1 2 3 4 4 5 6 ",
"7 8 9 0 a b c d e f g h i j k ",
"~ _ l m | n o p q r s t u v w ",
"x y z A B C D E F G H I J # K ",
"L y z M N O P Q R S T U V W K ",
"X 8 Y c Z ` |  ...+.@.#.$.# %.",
"&.*.=.c -.;.>.,.'.).!.~.{.# %.",
"].^./.(._.:.<.[.}.|.1.2.| 3.%.",
"$ 4.5.6.7.8.9.[.0.a.b.c.d.# e.",
"f.y g.h.i.j.k.l.m.n.O o.p.# q.",
"f.r.z s.t.u.v.w.z x.O o.y.# q.",
"f.y z z.A.B.C.D.E.F.O G.y.# q.",
"~ H.z I.J.K.L.M.N.O.P.(.Q.3.R.",
"~ H.z 1 4 S.T.U.V.W.X.m Y.3.R.",
"~ H.z Z.`.}  +.+++@+#+I.d.5 R.",
"$+%+t } &+*+=+-+=.;+>+,+s 3.'+",
")+!+R.~+{+{+]+]+^+]+X /+(+_+:+",
"<+[+}+|+1+1+1+1+1+2+3+4+5+6+7+"};
