/* XPM */
static char * digit_9_xpm[] = {
"10 20 162 2",
"  	c None",
". 	c #022A22",
"+ 	c #002A20",
"@ 	c #002A1F",
"# 	c #022C22",
"$ 	c #07352C",
"% 	c #07352E",
"& 	c #06342A",
"* 	c #031D1A",
"= 	c #04201E",
"- 	c #02201B",
"; 	c #021E1A",
"> 	c #031F1B",
", 	c #031F1D",
"' 	c #011F19",
") 	c #01211E",
"! 	c #031D18",
"~ 	c #051F1C",
"{ 	c #042017",
"] 	c #042016",
"^ 	c #061C1C",
"/ 	c #071F1F",
"( 	c #041E1B",
"_ 	c #05211D",
": 	c #03211E",
"< 	c #051C1D",
"[ 	c #123C35",
"} 	c #247E50",
"| 	c #249449",
"1 	c #1E9A41",
"2 	c #176334",
"3 	c #07211B",
"4 	c #071F1C",
"5 	c #041D1E",
"6 	c #113932",
"7 	c #266E5B",
"8 	c #2D955B",
"9 	c #24AE48",
"0 	c #20B443",
"a 	c #268C54",
"b 	c #1A4446",
"c 	c #07211F",
"d 	c #051E1F",
"e 	c #04201C",
"f 	c #266A50",
"g 	c #319562",
"h 	c #0C3023",
"i 	c #092920",
"j 	c #0A261E",
"k 	c #20545C",
"l 	c #26636E",
"m 	c #082422",
"n 	c #031D1B",
"o 	c #1D7B3E",
"p 	c #2AB053",
"q 	c #0A2E21",
"r 	c #051D19",
"s 	c #247054",
"t 	c #2E8C63",
"u 	c #06261A",
"v 	c #061E1E",
"w 	c #1D8538",
"x 	c #2BBB50",
"y 	c #092D1D",
"z 	c #081D1E",
"A 	c #0A1C1A",
"B 	c #208840",
"C 	c #2BAF50",
"D 	c #082819",
"E 	c #041C1E",
"F 	c #125A28",
"G 	c #25934C",
"H 	c #267C50",
"I 	c #258D47",
"J 	c #1C903D",
"K 	c #209E41",
"L 	c #1E743A",
"M 	c #062018",
"N 	c #01211B",
"O 	c #092021",
"P 	c #1A4C44",
"Q 	c #299358",
"R 	c #27AB49",
"S 	c #25B149",
"T 	c #279352",
"U 	c #17493F",
"V 	c #06201C",
"W 	c #01211D",
"X 	c #021B26",
"Y 	c #041A28",
"Z 	c #052B1F",
"` 	c #082E20",
" .	c #092B1B",
"..	c #257552",
"+.	c #2C8A61",
"@.	c #072721",
"#.	c #001E1B",
"$.	c #02201A",
"%.	c #041B26",
"&.	c #031929",
"*.	c #05211F",
"=.	c #061A1A",
"-.	c #218745",
";.	c #2AA84E",
">.	c #08281F",
",.	c #00201A",
"'.	c #022019",
").	c #051C25",
"!.	c #041D28",
"~.	c #041E19",
"{.	c #071B1B",
"].	c #218F40",
"^.	c #24B446",
"/.	c #07291C",
"(.	c #052023",
"_.	c #153F3C",
":.	c #20724A",
"<.	c #20863F",
"[.	c #1E8A3F",
"}.	c #239F46",
"|.	c #1B7B36",
"1.	c #07211C",
"2.	c #001E19",
"3.	c #011F1A",
"4.	c #16483A",
"5.	c #2D9B5C",
"6.	c #27B74C",
"7.	c #2CBC4E",
"8.	c #1E7E3E",
"9.	c #08241E",
"0.	c #0C2421",
"a.	c #04221F",
"b.	c #062A1D",
"c.	c #042C1A",
"d.	c #072B1E",
"e.	c #08221F",
"f.	c #071F1E",
"g.	c #293B38",
"h.	c #102A28",
"i.	c #02201F",
"j.	c #032120",
"k.	c #00201C",
"l.	c #00201D",
"m.	c #143A30",
"n.	c #264840",
"o.	c #123830",
"p.	c #043227",
"q.	c #033126",
"r.	c #033128",
"s.	c #023226",
"t.	c #033127",
"u.	c #043026",
"v.	c #04281F",
"w.	c #102E26",
"x.	c #2B4741",
"y.	c #133930",
"z.	c #022A20",
"A.	c #052D24",
"B.	c #032B20",
"C.	c #042A1F",
"D.	c #03291D",
"E.	c #032920",
". . . + @ @ + + + # ",
"$ % % & & & % % % % ",
"* = = - ; ; - - ; > ",
", ' ) ! ~ { ] ^ / ( ",
"_ : < [ } | 1 2 3 4 ",
"/ 5 6 7 8 9 0 a b c ",
"d e f g h i j k l m ",
"n * o p q 4 r s t u ",
"d v w x y z A B C D ",
"E n F G H I J K L M ",
"- N O P Q R S T U V ",
"' W X Y Z `  ...+.@.",
"#.$.%.&.*.4 =.-.;.>.",
",.'.).!.! ~.{.].^./.",
"N N (._.:.<.[.}.|.1.",
"2.,.3.4.5.6.7.8.9.4 ",
"0.3.' a.b.c.d.e.~.f.",
"g.h.i.j.W k.l.l.l.l.",
"m.n.o.p.q.r.s.q.t.u.",
"v.w.x.y.z.A.B.C.D.E."};
