/* XPM */
static char * digit_5_xpm[] = {
"10 20 40 1",
" 	c None",
".	c #C2F9B9",
"+	c #4C3580",
"@	c #2D0072",
"#	c #C0F6B8",
"$	c #310974",
"%	c #371276",
"&	c #513E83",
"*	c #AAD1AD",
"=	c #6F6F91",
"-	c #8EA2A0",
";	c #3D1B79",
">	c #310874",
",	c #44277D",
"'	c #87969D",
")	c #C1F8B8",
"!	c #717393",
"~	c #2D0172",
"{	c #3B1878",
"]	c #8A9C9E",
"^	c #AAD2AD",
"/	c #808B99",
"(	c #A5C9AB",
"_	c #94ADA3",
":	c #482D7E",
"<	c #BFF4B8",
"[	c #ADD6AF",
"}	c #B1DEB1",
"|	c #330B75",
"1	c #BEF3B7",
"2	c #350F76",
"3	c #B4E3B2",
"4	c #A4C8AA",
"5	c #49307F",
"6	c #777D95",
"7	c #381377",
"8	c #523E83",
"9	c #91A7A1",
"0	c #808C99",
"a	c #41227B",
"..........",
"..........",
"..........",
"..........",
"..........",
"...+@@@@..",
"..#$%&&&..",
"..*@=.....",
"..-@;>,').",
"..!@~{@@].",
"..^/(._@:.",
".<[}...%|.",
".1>23.4@5.",
"..6@78$@9.",
"..)0a>59..",
"..........",
"..........",
"..........",
"..........",
".........."};
