/* XPM */
static char * digit_9_xpm[] = {
"15 20 215 2",
"  	c None",
". 	c #070D0F",
"+ 	c #052921",
"@ 	c #022A22",
"# 	c #002A20",
"$ 	c #002A1F",
"% 	c #022C22",
"& 	c #042C21",
"* 	c #0A2C28",
"= 	c #040F14",
"- 	c #052F2C",
"; 	c #083E32",
"> 	c #07352C",
", 	c #07352E",
"' 	c #06342A",
") 	c #06362C",
"! 	c #094137",
"~ 	c #0B2B2A",
"{ 	c #043427",
"] 	c #09312A",
"^ 	c #031D1A",
"/ 	c #04201E",
"( 	c #02201B",
"_ 	c #021E1A",
": 	c #031F1B",
"< 	c #042E26",
"[ 	c #032F27",
"} 	c #023428",
"| 	c #033128",
"1 	c #031F1D",
"2 	c #011F19",
"3 	c #01211E",
"4 	c #031D18",
"5 	c #051F1C",
"6 	c #042017",
"7 	c #042016",
"8 	c #061C1C",
"9 	c #071F1F",
"0 	c #041E1B",
"a 	c #00221E",
"b 	c #023026",
"c 	c #022E24",
"d 	c #013324",
"e 	c #05211D",
"f 	c #03211E",
"g 	c #051C1D",
"h 	c #123C35",
"i 	c #247E50",
"j 	c #249449",
"k 	c #1E9A41",
"l 	c #176334",
"m 	c #07211B",
"n 	c #071F1C",
"o 	c #023027",
"p 	c #002C1F",
"q 	c #041D1E",
"r 	c #113932",
"s 	c #266E5B",
"t 	c #2D955B",
"u 	c #24AE48",
"v 	c #20B443",
"w 	c #268C54",
"x 	c #1A4446",
"y 	c #07211F",
"z 	c #032F26",
"A 	c #051E1F",
"B 	c #04201C",
"C 	c #266A50",
"D 	c #319562",
"E 	c #0C3023",
"F 	c #092920",
"G 	c #0A261E",
"H 	c #20545C",
"I 	c #26636E",
"J 	c #082422",
"K 	c #00201D",
"L 	c #022C21",
"M 	c #031D1B",
"N 	c #1D7B3E",
"O 	c #2AB053",
"P 	c #0A2E21",
"Q 	c #051D19",
"R 	c #247054",
"S 	c #2E8C63",
"T 	c #06261A",
"U 	c #00201A",
"V 	c #012D20",
"W 	c #043026",
"X 	c #061E1E",
"Y 	c #1D8538",
"Z 	c #2BBB50",
"` 	c #092D1D",
" .	c #081D1E",
"..	c #0A1C1A",
"+.	c #208840",
"@.	c #2BAF50",
"#.	c #082819",
"$.	c #002C1E",
"%.	c #041C1E",
"&.	c #125A28",
"*.	c #25934C",
"=.	c #267C50",
"-.	c #258D47",
";.	c #1C903D",
">.	c #209E41",
",.	c #1E743A",
"'.	c #062018",
").	c #04302A",
"!.	c #01211B",
"~.	c #092021",
"{.	c #1A4C44",
"].	c #299358",
"^.	c #27AB49",
"/.	c #25B149",
"(.	c #279352",
"_.	c #17493F",
":.	c #06201C",
"<.	c #043029",
"[.	c #01211D",
"}.	c #021B26",
"|.	c #041A28",
"1.	c #052B1F",
"2.	c #082E20",
"3.	c #092B1B",
"4.	c #257552",
"5.	c #2C8A61",
"6.	c #072721",
"7.	c #053129",
"8.	c #032D23",
"9.	c #001E1B",
"0.	c #02201A",
"a.	c #041B26",
"b.	c #031929",
"c.	c #05211F",
"d.	c #061A1A",
"e.	c #218745",
"f.	c #2AA84E",
"g.	c #08281F",
"h.	c #022020",
"i.	c #053128",
"j.	c #063629",
"k.	c #023028",
"l.	c #022019",
"m.	c #051C25",
"n.	c #041D28",
"o.	c #041E19",
"p.	c #071B1B",
"q.	c #218F40",
"r.	c #24B446",
"s.	c #07291C",
"t.	c #032D21",
"u.	c #063428",
"v.	c #013127",
"w.	c #052023",
"x.	c #153F3C",
"y.	c #20724A",
"z.	c #20863F",
"A.	c #1E8A3F",
"B.	c #239F46",
"C.	c #1B7B36",
"D.	c #07211C",
"E.	c #244A41",
"F.	c #0A342C",
"G.	c #001E19",
"H.	c #011F1A",
"I.	c #16483A",
"J.	c #2D9B5C",
"K.	c #27B74C",
"L.	c #2CBC4E",
"M.	c #1E7E3E",
"N.	c #08241E",
"O.	c #032F25",
"P.	c #1A4038",
"Q.	c #274741",
"R.	c #0C2421",
"S.	c #04221F",
"T.	c #062A1D",
"U.	c #042C1A",
"V.	c #072B1E",
"W.	c #08221F",
"X.	c #071F1E",
"Y.	c #023022",
"Z.	c #03352A",
"`.	c #143E34",
" +	c #293B38",
".+	c #102A28",
"++	c #02201F",
"@+	c #032120",
"#+	c #00201C",
"$+	c #011F1F",
"%+	c #082A22",
"&+	c #063229",
"*+	c #073B2E",
"=+	c #143A30",
"-+	c #264840",
";+	c #123830",
">+	c #043227",
",+	c #033126",
"'+	c #023226",
")+	c #033127",
"!+	c #023E32",
"~+	c #062A21",
"{+	c #041211",
"]+	c #032920",
"^+	c #04281F",
"/+	c #102E26",
"(+	c #2B4741",
"_+	c #133930",
":+	c #022A20",
"<+	c #052D24",
"[+	c #032B20",
"}+	c #042A1F",
"|+	c #03291D",
"1+	c #042A20",
"2+	c #021410",
". + @ @ @ # $ $ # # # % & * = ",
"- ; > , , ' ' ' , , , , ) ! ~ ",
"{ ] ^ / / ( _ _ ( ( _ : ( < [ ",
"} | 1 2 3 4 5 6 7 8 9 0 a b c ",
"d c e f g h i j k l m n a o p ",
"d c 9 q r s t u v w x y a o p ",
"d z A B C D E F G H I J K | L ",
"d | M ^ N O P n Q R S T U | V ",
"d W A X Y Z `  ...+.@.#.U | $.",
"d W %.M &.*.=.-.;.>.,.'.U | V ",
"d ).( !.~.{.].^./.(._.:.a <.L ",
"d ).2 [.}.|.1.2.3.4.5.6.a 7.8.",
"d ).9.0.a.b.c.n d.e.f.g.h.i.8.",
"j.k.U l.m.n.4 o.p.q.r.s.K | t.",
"u.v.!.!.w.x.y.z.A.B.C.D.K o t.",
"E.F.G.U H.I.J.K.L.M.N.n a O.t.",
"P.Q.R.H.2 S.T.U.V.W.o.X.a W Y.",
"Z.`. +.+++@+[.#+K K K K $+| %+",
"&+*+=+-+;+>+,+| '+,+)+W | !+~+",
"{+]+^+/+(+_+:+<+[+}+|+]+:+1+2+"};
