/* XPM */
static char * digit_6_xpm[] = {
"10 20 148 2",
"  	c None",
". 	c #042E27",
"+ 	c #002A21",
"@ 	c #022A22",
"# 	c #002A20",
"$ 	c #05332B",
"% 	c #06362D",
"& 	c #08362E",
"* 	c #07372E",
"= 	c #061E1C",
"- 	c #02201B",
"; 	c #04201C",
"> 	c #011F1A",
", 	c #02201A",
"' 	c #031F1B",
") 	c #011F18",
"! 	c #03211F",
"~ 	c #06201E",
"{ 	c #051D19",
"] 	c #031F17",
"^ 	c #041E18",
"/ 	c #061E1B",
"( 	c #051F1F",
"_ 	c #06221E",
": 	c #021E16",
"< 	c #10382F",
"[ 	c #257952",
"} 	c #229247",
"| 	c #239B48",
"1 	c #186C36",
"2 	c #08241E",
"3 	c #061E20",
"4 	c #022019",
"5 	c #123632",
"6 	c #296D61",
"7 	c #299358",
"8 	c #26AE49",
"9 	c #23B345",
"0 	c #1E8041",
"a 	c #0B2B27",
"b 	c #05211F",
"c 	c #071F1F",
"d 	c #081E1C",
"e 	c #1F6146",
"f 	c #319B68",
"g 	c #13372C",
"h 	c #0A281B",
"i 	c #07291D",
"j 	c #0A2728",
"k 	c #031C29",
"l 	c #091F1F",
"m 	c #081D1E",
"n 	c #1C703A",
"o 	c #2BB756",
"p 	c #0D3726",
"q 	c #071F1C",
"r 	c #08201D",
"s 	c #061D26",
"t 	c #031A29",
"u 	c #032320",
"v 	c #06201C",
"w 	c #07191D",
"x 	c #1C7A37",
"y 	c #2CC24F",
"z 	c #09351D",
"A 	c #061C1B",
"B 	c #061E1E",
"C 	c #031C25",
"D 	c #061D2A",
"E 	c #062220",
"F 	c #06201B",
"G 	c #061C1E",
"H 	c #0F5128",
"I 	c #24964C",
"J 	c #217B4B",
"K 	c #218B44",
"L 	c #209441",
"M 	c #1B693C",
"N 	c #092329",
"O 	c #061F20",
"P 	c #041E19",
"Q 	c #051F1D",
"R 	c #0F352D",
"S 	c #266E5C",
"T 	c #269256",
"U 	c #23AB46",
"V 	c #24B045",
"W 	c #23954B",
"X 	c #1A4E42",
"Y 	c #041E1B",
"Z 	c #1E6045",
"` 	c #309866",
" .	c #11392A",
"..	c #052D1B",
"+.	c #052B19",
"@.	c #216B47",
"#.	c #319165",
"$.	c #062A20",
"%.	c #041E1C",
"&.	c #081C1C",
"*.	c #1E703D",
"=.	c #2EB658",
"-.	c #113326",
";.	c #031B1D",
">.	c #1F7B40",
",.	c #2DB356",
"'.	c #072D1E",
").	c #051B18",
"!.	c #1C7838",
"~.	c #143425",
"{.	c #071B18",
"].	c #081818",
"^.	c #1E823A",
"/.	c #2ABE50",
"(.	c #0B2F1F",
"_.	c #001E19",
":.	c #041C19",
"<.	c #115529",
"[.	c #259B4C",
"}.	c #23774D",
"|.	c #218542",
"1.	c #1F893A",
"2.	c #209C40",
"3.	c #1C8236",
"4.	c #0A2620",
"5.	c #072021",
"6.	c #08201E",
"7.	c #154538",
"8.	c #2C985F",
"9.	c #2CB854",
"0.	c #28BC4B",
"a.	c #19853A",
"b.	c #07271E",
"c.	c #091E1F",
"d.	c #03211C",
"e.	c #06281D",
"f.	c #062C1C",
"g.	c #06241D",
"h.	c #04201E",
"i.	c #031D16",
"j.	c #00201C",
"k.	c #00201D",
"l.	c #032F23",
"m.	c #033127",
"n.	c #043229",
"o.	c #033128",
"p.	c #03271D",
"q.	c #042A1F",
". + + + @ @ @ + + # ",
"$ % % % & & & * % * ",
"= - - - ; ; ; - > , ",
"' ) ! ~ { ] ^ { / ( ",
"; _ : < [ } | 1 2 3 ",
"4 ; 5 6 7 8 9 0 a b ",
"c d e f g h i j k b ",
"l m n o p q r s t u ",
"v w x y z A B C D E ",
"F G H I J K L M N O ",
"P Q R S T U V W X ~ ",
"Y v Z `  ...+.@.#.$.",
"%.&.*.=.-.G ;.>.,.'.",
"' ).!.y ~.{.].^./.(.",
"_.:.<.[.}.|.1.2.3.4.",
"Q 5.6.7.8.9.0.a.b.c.",
"P ' , d.e.+.f.g.Q h.",
"i.j.j.j.j.j.j.k.j.k.",
"l.m.m.n.n.n.n.o.m.o.",
"p.q.q.q.$.$.$.q.q.q."};
