/* XPM */
static char * digit_9_xpm[] = {
"10 20 43 1",
" 	c None",
".	c #C2F9B9",
"+	c #A4C6AA",
"@	c #554485",
"#	c #371276",
"$	c #3A1678",
"%	c #5A4B87",
"&	c #A6CAAB",
"*	c #A5C9AB",
"=	c #2F0573",
"-	c #2D0072",
";	c #4E3781",
">	c #49307F",
",	c #310773",
"'	c #A4C8AA",
")	c #5D5188",
"!	c #91A8A2",
"~	c #8C9F9F",
"{	c #5C4F88",
"]	c #45297E",
"^	c #B8E9B4",
"/	c #B7E8B4",
"(	c #43267C",
"_	c #594A87",
":	c #67628D",
"<	c #B5E4B2",
"[	c #67638D",
"}	c #5D5088",
"|	c #9CBBA7",
"1	c #2E0272",
"2	c #99B6A5",
"3	c #574786",
"4	c #482D7E",
"5	c #787E95",
"6	c #6B688F",
"7	c #564585",
"8	c #C0F7B8",
"9	c #83919B",
"0	c #3E1C7A",
"a	c #B6E5B3",
"b	c #2E0373",
"c	c #2F0473",
"d	c #A1C2A9",
"..........",
"..........",
"..........",
"..........",
"..........",
"..+@#$%&..",
".*=-;>-,'.",
".)-!..~-{.",
".]-^../-(.",
"._-:<<[-}.",
".|-----1+.",
"..234--5..",
"....6-78..",
"...9-0a...",
"..2bcd....",
"..........",
"..........",
"..........",
"..........",
".........."};
