/* XPM */
static char * digit_4_xpm[] = {
"10 20 143 2",
"  	c None",
". 	c #022E24",
"+ 	c #022E22",
"@ 	c #013125",
"# 	c #003224",
"$ 	c #013327",
"% 	c #023429",
"& 	c #061E1A",
"* 	c #06201D",
"= 	c #051F1B",
"- 	c #061E1B",
"; 	c #071F1C",
"> 	c #061D20",
", 	c #072023",
"' 	c #082124",
") 	c #071F21",
"! 	c #072021",
"~ 	c #05211F",
"{ 	c #04221D",
"] 	c #05211E",
"^ 	c #04201D",
"/ 	c #031D16",
"( 	c #042019",
"_ 	c #072322",
": 	c #052129",
"< 	c #062528",
"[ 	c #072129",
"} 	c #082024",
"| 	c #071F1D",
"1 	c #041E17",
"2 	c #011D16",
"3 	c #07211E",
"4 	c #134339",
"5 	c #1E5A4E",
"6 	c #092229",
"7 	c #042328",
"8 	c #061B26",
"9 	c #123844",
"0 	c #14464C",
"a 	c #09211E",
"b 	c #031F1C",
"c 	c #071F1E",
"d 	c #236F49",
"e 	c #309A5F",
"f 	c #092B20",
"g 	c #02201A",
"h 	c #1F555D",
"i 	c #2A6A70",
"j 	c #0A2623",
"k 	c #041A1C",
"l 	c #081C1A",
"m 	c #1E7E3B",
"n 	c #29B34D",
"o 	c #052D1C",
"p 	c #0B1819",
"q 	c #24724C",
"r 	c #28925A",
"s 	c #06261A",
"t 	c #052120",
"u 	c #1D853A",
"v 	c #29BB48",
"w 	c #0B2D1A",
"x 	c #062218",
"y 	c #0A2019",
"z 	c #258B42",
"A 	c #28B048",
"B 	c #0A281D",
"C 	c #031C1F",
"D 	c #051D1F",
"E 	c #0F4D28",
"F 	c #218B46",
"G 	c #298954",
"H 	c #209C40",
"I 	c #26A444",
"J 	c #24A044",
"K 	c #13652A",
"L 	c #062018",
"M 	c #04201C",
"N 	c #051C21",
"O 	c #17433C",
"P 	c #298550",
"Q 	c #259B43",
"R 	c #289E47",
"S 	c #298D53",
"T 	c #1D5145",
"U 	c #08221F",
"V 	c #011F17",
"W 	c #031A25",
"X 	c #041A28",
"Y 	c #0A2220",
"Z 	c #0B2522",
"` 	c #0A201D",
" .	c #23734C",
"..	c #329063",
"+.	c #07271B",
"@.	c #001E16",
"#.	c #011F19",
"$.	c #041C26",
"%.	c #031D29",
"&.	c #061B1C",
"*.	c #1D893E",
"=.	c #2CAA50",
"-.	c #062817",
";.	c #03211C",
">.	c #011927",
",.	c #03211D",
"'.	c #01211A",
").	c #071F1F",
"!.	c #20903D",
"~.	c #28B245",
"{.	c #052918",
"].	c #002018",
"^.	c #062220",
"/.	c #051A27",
"(.	c #061D2A",
"_.	c #021B28",
":.	c #041E26",
"<.	c #165E36",
"[.	c #176D2F",
"}.	c #07211C",
"|.	c #002017",
"1.	c #031F1B",
"2.	c #082422",
"3.	c #04212A",
"4.	c #041D28",
"5.	c #072429",
"6.	c #062324",
"7.	c #092021",
"8.	c #021E19",
"9.	c #072120",
"0.	c #021E16",
"a.	c #002015",
"b.	c #012118",
"c.	c #04201B",
"d.	c #03211A",
"e.	c #022018",
"f.	c #062019",
"g.	c #033527",
"h.	c #033526",
"i.	c #05372C",
"j.	c #01291C",
"k.	c #002A1D",
"l.	c #042A20",
". . . . . . . . . + ",
"@ # # $ $ $ $ $ $ % ",
"& * * = = = - ; ; - ",
"> , ' ) ! ! ~ { ] ^ ",
"/ ( ( _ : < [ } | 1 ",
"2 3 4 5 6 7 8 9 0 a ",
"b c d e f g b h i j ",
"k l m n o ~ p q r s ",
"t 3 u v w x y z A B ",
"C D E F G H I J K L ",
"^ M N O P Q R S T U ",
"V g W X Y Z `  ...+.",
"@.#.$.%.] M &.*.=.-.",
";.g $.>.,.'.).!.~.{.",
"b ].^./.(._.:.<.[.}.",
"g |.1.2.3.4.5.6.7.).",
"8.@.M ] ;.g ;.9.^ | ",
"0.a.b.c.( b.'.d.e.f.",
"g.h.h.h.g.g.g.g.g.i.",
"j.k.k.k.k.k.k.k.k.l."};
