/* XPM */
static char * digit_7_xpm[] = {
"10 20 25 1",
" 	c None",
".	c #C2F9B9",
"+	c #B4E2B2",
"@	c #2D0072",
"#	c #B7E7B4",
"$	c #513E83",
"%	c #503C83",
"&	c #2E0272",
"*	c #93ABA3",
"=	c #5F558A",
"-	c #C1F8B8",
";	c #4B3480",
">	c #A4C7AA",
",	c #9AB8A6",
"'	c #534084",
")	c #97B3A5",
"!	c #A1C3A9",
"~	c #472C7E",
"{	c #5B4D88",
"]	c #8B9E9F",
"^	c #A8CEAD",
"/	c #3D1B79",
"(	c #BFF4B8",
"_	c #61598B",
":	c #7E8998",
"..........",
"..........",
"..........",
"..........",
"..........",
".+@@@@@@..",
".#$$$%@&..",
".....*@=..",
"....-;@>..",
"....,@'...",
"....'@)...",
"...!@~-...",
"...{@]....",
"..^@/(....",
".._@:.....",
"..........",
"..........",
"..........",
"..........",
".........."};
