/* XPM */
static char * led_waiting_glow_xpm[] = {
"20 20 162 2",
"  	c #000000",
". 	c #010306",
"+ 	c #010509",
"@ 	c #020A11",
"# 	c #05111B",
"$ 	c #081826",
"% 	c #0B1E31",
"& 	c #0D2941",
"* 	c #112F4B",
"= 	c #143255",
"- 	c #143554",
"; 	c #13314F",
"> 	c #102C47",
", 	c #0D2337",
"' 	c #0A1E2F",
") 	c #071623",
"! 	c #030E17",
"~ 	c #030A11",
"{ 	c #000407",
"] 	c #010407",
"^ 	c #02090F",
"/ 	c #04111C",
"( 	c #081928",
"_ 	c #0B2438",
": 	c #0F2D47",
"< 	c #123858",
"[ 	c #163B63",
"} 	c #17416A",
"| 	c #16416A",
"1 	c #16426A",
"2 	c #163F67",
"3 	c #153C60",
"4 	c #113654",
"5 	c #0A2134",
"6 	c #071522",
"7 	c #030D15",
"8 	c #02070D",
"9 	c #01060B",
"0 	c #071624",
"a 	c #0A253A",
"b 	c #0D324C",
"c 	c #123B5E",
"d 	c #174570",
"e 	c #123A5E",
"f 	c #24577E",
"g 	c #1F5175",
"h 	c #103450",
"i 	c #123C5F",
"j 	c #12446A",
"k 	c #113757",
"l 	c #0C2C44",
"m 	c #091D2F",
"n 	c #061420",
"o 	c #05121D",
"p 	c #091F31",
"q 	c #0C2C45",
"r 	c #113D5F",
"s 	c #15456F",
"t 	c #13446B",
"u 	c #08529F",
"v 	c #236CEC",
"w 	c #6EA0FA",
"x 	c #609AFC",
"y 	c #1A61D7",
"z 	c #094E85",
"A 	c #154268",
"B 	c #13456C",
"C 	c #103552",
"D 	c #0B273C",
"E 	c #081927",
"F 	c #04101A",
"G 	c #02080E",
"H 	c #030D14",
"I 	c #071927",
"J 	c #0B263C",
"K 	c #0F3855",
"L 	c #13476F",
"M 	c #124264",
"N 	c #0C6AB7",
"O 	c #0163D1",
"P 	c #0057DA",
"Q 	c #0058FA",
"R 	c #0057F7",
"S 	c #0056D6",
"T 	c #0065D6",
"U 	c #13618D",
"V 	c #113C5D",
"W 	c #0C304A",
"X 	c #0A2236",
"Y 	c #04131D",
"Z 	c #04111B",
"` 	c #091B2A",
" .	c #0D2D44",
"..	c #114060",
"+.	c #14476F",
"@.	c #1A5C8D",
"#.	c #117ACA",
"$.	c #0579D1",
"%.	c #036FD0",
"&.	c #0163CE",
"*.	c #0167D6",
"=.	c #087FEB",
"-.	c #0479D7",
";.	c #1476C4",
">.	c #13496A",
",.	c #103954",
"'.	c #0A263B",
").	c #061724",
"!.	c #04111A",
"~.	c #05141F",
"{.	c #0D314C",
"].	c #14466C",
"^.	c #13456B",
"/.	c #1F6FA7",
"(.	c #1978B5",
"_.	c #23A0EF",
":.	c #1D96EB",
"<.	c #0475D4",
"[.	c #057AD9",
"}.	c #0996F9",
"|.	c #118BCF",
"1.	c #1D75B3",
"2.	c #185C85",
"3.	c #154971",
"4.	c #12425F",
"5.	c #0B2941",
"6.	c #081C2B",
"7.	c #061521",
"8.	c #092337",
"9.	c #0F3853",
"0.	c #144871",
"a.	c #195077",
"b.	c #2174AA",
"c.	c #1C7EB1",
"d.	c #32A6E5",
"e.	c #1894E6",
"f.	c #0680D5",
"g.	c #0582D6",
"h.	c #0B8ACE",
"i.	c #1986BB",
"j.	c #2178AC",
"k.	c #1C6289",
"l.	c #174D71",
"m.	c #104367",
"n.	c #0C2D45",
"o.	c #081E2F",
"p.	c #000103",
"q.	c #000306",
"r.	c #040E17",
"s.	c #061522",
"t.	c #091929",
"u.	c #091D2E",
"v.	c #0D2339",
"w.	c #0F2840",
"x.	c #0F2841",
"y.	c #0E253B",
"z.	c #091C2C",
"A.	c #05131F",
"B.	c #000205",
"C.	c #03080E",
"D.	c #050D15",
"E.	c #050F19",
"                                        ",
"                                        ",
". + @ # $ % & * = - - ; > , ' ) ! ~ { ] ",
"+ ^ / ( _ : < [ } | 1 2 3 4 & 5 6 7 8 . ",
"9 7 0 a b c d c e f g h i j k l m n @ + ",
"@ o p q r s t u v w x y z A B C D E F G ",
"H I J K L M N O P Q R S T U V M W X Y ~ ",
"Z `  ...+.@.#.$.%.&.*.=.-.;.>.+.,.'.).!.",
"~.a {.].^./.(._.:.<.[.}.|.1.2.3.4.5.6.!.",
"7.8.9.0.a.b.c.d.e.f.g.h.i.j.k.l.m.n.o.F ",
"~.a {.].^./.(._.:.<.[.}.|.1.2.3.4.5.6.!.",
"Z `  ...+.@.#.$.%.&.*.=.-.;.>.+.,.'.).!.",
"H I J K L M N O P Q R S T U V M W X Y ~ ",
"@ o p q r s t u v w x y z A B C D E F G ",
"9 7 0 a b c d c e f g h i j k l m n @ + ",
"+ ^ / ( _ : < [ } | 1 2 3 4 & 5 6 7 8 . ",
". + @ # $ % & * = - - ; > , ' ) ! ~ { ] ",
"p.q.+ @ r.s.t.u.v.w.x.y.z.E A.7 G { B.p.",
"                C.D.E.~                 ",
"                                        "};
