/* XPM */
static char *led_running_glow[] = {
/* columns rows colors chars-per-pixel */
"30 30 236 2",
"   c #032C04BD01A9",
".  c #05F90A4F03A6",
"X  c #09470DF80435",
"o  c #05510ED6079C",
"O  c #0C7A12F00606",
"+  c #0661132508F7",
"@  c #063014480948",
"#  c #0BB615620964",
"$  c #0C7D1AEA0C19",
"%  c #0FE914B8058E",
"&  c #12EC198F06DA",
"*  c #103017340924",
"=  c #12121BCF0AB7",
"-  c #17C61E6F082D",
";  c #0CDB202B0F29",
":  c #154921EF0CEB",
">  c #197B24460CBC",
",  c #1CEE2A9C0DA3",
"<  c #0DEB24F5116A",
"1  c #0E5C2AC713B2",
"2  c #1285251C1103",
"3  c #140B2B3C13F5",
"4  c #1B6E2BAC11B6",
"5  c #0F6732821827",
"6  c #1200315816CA",
"7  c #1C2B31CE13EC",
"8  c #1EA1385A16D9",
"9  c #13B434CC195D",
"0  c #1A2033F5189D",
"q  c #14F23B6E1CEF",
"w  c #21EA2CE10C4F",
"e  c #269C32A60D6E",
"r  c #293834530D81",
"t  c #2D4F3A610F46",
"y  c #20712F1E13C6",
"u  c #2305344B12CF",
"i  c #2B39364B15C5",
"p  c #24BB3A27161F",
"a  c #2B5B3CF2135A",
"s  c #200736C618B9",
"d  c #245C39711A50",
"f  c #2A203CFA1A8E",
"g  c #31CB3F0D109D",
"h  c #378B377E1A53",
"j  c #13D13F7B21BE",
"k  c #2BF74163156B",
"l  c #239A43351DCE",
"z  c #2DB245541A08",
"x  c #2DDC4AF71D3F",
"c  c #3376439F12C8",
"v  c #37784D311769",
"b  c #38E34BA81576",
"n  c #324D452D1D77",
"m  c #336E4D4B1B8A",
"M  c #3DE5510D1620",
"N  c #354A53FB1E95",
"B  c #3B4D54E21BE3",
"V  c #3ECF5BC11D92",
"C  c #15C644482148",
"Z  c #1AE4447F2073",
"A  c #1AC74BE624E5",
"S  c #1E214F55288A",
"D  c #0AF65C0B2E2D",
"F  c #13CB56092C42",
"G  c #1BF7540F29C7",
"H  c #1A375B2C2DF0",
"J  c #14405F4630D7",
"K  c #1ADC5F623245",
"L  c #23E244D92028",
"P  c #2B8B462C20B6",
"I  c #23194AC32126",
"U  c #341C474E21B5",
"Y  c #353B4CA820F6",
"T  c #3CB94D6F22A9",
"R  c #2CD9548423C7",
"E  c #27F2558727CA",
"W  c #348754DC247C",
"Q  c #38AF55272422",
"!  c #332C59662512",
"~  c #3C045C1D2441",
"^  c #34035A222AA8",
"/  c #3CF75D432A4E",
"(  c #2A694CD0339A",
")  c #262450BA3190",
"_  c #098963A9336C",
"`  c #05736FD93725",
"'  c #17166426318E",
"]  c #1BDA61A7312F",
"[  c #14F26CB036A6",
"{  c #1B086C6B356B",
"}  c #131E6DBB39D1",
"|  c #0B8A75153B8F",
" . c #059E78B73C59",
".. c #0A4D7C3C3E28",
"X. c #13AF72953B2C",
"o. c #1B3573B43A76",
"O. c #1E097BFB3C74",
"+. c #3EC961B522FE",
"@. c #360F63AD2E6F",
"#. c #391E656028EC",
"$. c #3F2169BC2B8C",
"%. c #241E64733105",
"&. c #2CE76C5F3445",
"*. c #30C36BA63356",
"=. c #3C306DF4338B",
"-. c #2CD67457387F",
";. c #289379563A33",
":. c #2A097A753B22",
">. c #3AEF71CB3548",
",. c #3CD77B4034A4",
"<. c #34017A883906",
"1. c #421C562F1620",
"2. c #43B95CAD1C1B",
"3. c #47AF63211E71",
"4. c #4AF564751CB0",
"5. c #5066696E1D06",
"6. c #65FF7C001D5C",
"7. c #42EB54B62532",
"8. c #40FC5EE62552",
"9. c #40C35D7C292F",
"0. c #654F568424C4",
"q. c #43B263E32463",
"w. c #45EA69DB25EC",
"e. c #4BC06C0E228A",
"r. c #433863712A44",
"t. c #48E56F4A287A",
"y. c #51FB6EA11FEF",
"u. c #46F370672B74",
"i. c #4BD973892AAB",
"p. c #551076692537",
"a. c #42F3796B3852",
"s. c #5DE579A33487",
"d. c #7A986F7E2C4E",
"f. c #747668A13499",
"g. c #670A7B6C34AE",
"h. c #7715749D3B87",
"j. c #049A7F92402E",
"k. c #09B47E44405B",
"l. c #13A279D0400F",
"z. c #2EF0682F42A3",
"x. c #3A416B8446EC",
"c. c #2B567E6049A4",
"v. c #8F3B70732F6E",
"b. c #A7F263E62868",
"n. c #A8B66A843B28",
"m. c #B195612D3637",
"M. c #2B8B838F3DBE",
"N. c #7CAA90061D68",
"B. c #431F824435DA",
"V. c #46B78A443DB9",
"C. c #49868CD03BDD",
"Z. c #54E38E353516",
"A. c #534285243B81",
"S. c #459890473F5D",
"D. c #4AF993F53E3D",
"F. c #619F83A9299A",
"G. c #7121A0D43F6B",
"H. c #7DA5C1B23F8B",
"J. c #006790054621",
"K. c #0C158D9A44DE",
"L. c #13C7858242C6",
"P. c #14FB89B64431",
"I. c #1B3D891344D3",
"U. c #0B6C93D646DE",
"Y. c #049A995D4910",
"T. c #1B4296EB46B7",
"R. c #2234841F40C9",
"E. c #2CF7843C4684",
"W. c #36EE8D89471B",
"Q. c #350D99F74BF6",
"!. c #3DB49DFA5133",
"~. c #38DFA8695028",
"^. c #45588C6D4068",
"/. c #4603940A429C",
"(. c #4A2D924141E8",
"). c #4A7E9DC545ED",
"_. c #5235922940F4",
"`. c #5E9C9B074260",
"'. c #4D87AB10485B",
"]. c #560FA53745D6",
"[. c #5993A6FD4635",
"{. c #538FAAEC4638",
"}. c #5CE0AAE345B4",
"|. c #5E21B13145DB",
" X c #5DE5B93D4619",
".X c #5973B0C7492F",
"XX c #481EAAAD5520",
"oX c #731AAA604253",
"OX c #6381B3654549",
"+X c #6944B471445D",
"@X c #66B3BA13452B",
"#X c #6BB0BBA54436",
"$X c #735ABC6A42C3",
"%X c #7B6ABEC441FC",
"&X c #7A58B0D64BA5",
"*X c #73D8BF3357D7",
"=X c #7D43C19C4170",
"-X c #7A7CC1FB4E64",
";X c #8BDCAC503871",
":X c #84ABB4F4332E",
">X c #9480B3F731B1",
",X c #9647BF5B39D8",
"<X c #9326C7C03C78",
"1X c #97B7C9633B88",
"2X c #9C2BCA9C3A70",
"3X c #AD1BCCBB2D30",
"4X c #B104C7CF2867",
"5X c #BB83D53E2E34",
"6X c #A765CE72368C",
"7X c #A102CC86387B",
"8X c #B5ACD3C0316D",
"9X c #D33BDBA81AC8",
"0X c #EC54E64C0D59",
"qX c #F448EB240769",
"wX c #EAD1E7461361",
"eX c #F72EED051BFF",
"rX c #CC5FDB4F2364",
"tX c #C47BD87E28E8",
"yX c #D53DDF1C206F",
"uX c #FA44EEC52610",
"iX c #F7F9EE15337E",
"pX c #FF01F2893B95",
"aX c #828AC31640B8",
"sX c #96C9C9684127",
"dX c #A14AC5A95BB0",
"fX c #A65DCB6964CB",
"gX c #B800D52B6D23",
"hX c #A5D0D2EB722F",
"jX c #D2B0DED450F0",
"kX c #F0DFEED566FE",
"lX c #B4ABD90B906E",
"zX c #FFFDF66C892F",
"xX c #FFF1F815A448",
"cX c #FC5DF7C9B7F4",
"vX c #FE2EFB3FD8AC",
"bX c #FFFFFC98E7A4",
/* pixels */
"      . X X O & - > w w w r r r e e w , > - & O O . .       ",
"    . . O O & > w w r g g c c c c c t e w > : & O X X       ",
"  . . X # - > w r t c b 1.1.1.1.M M v c t e , > & O X .     ",
". . X O & > w u g b 1.2.4.5.5.5.4.3.3.M b c e , > % O X .   ",
". . O & > 4 i c v 1.4.y.5.5.5.p.y.y.y.4.V v k 8 , : % + X   ",
". . * = , u k N 8.e.y.2.2.6.N.;X6.3.3.e.e.V v k u , : O X X ",
"X O & > y a v V e.y.q.F.4X0XqXqX9X>XF.+.y.4.V m k w : : + X ",
"X % = 4 u n B q.w.w.Z.3X9X0XqX0XyX3XH.Z.+.t.3.B k 8 , ; O X ",
"# * : y a m 8.w.r.D.-XaX6X5XtX5X6X<X=X#XB.~ e.+.x k 7 > % + ",
"# = > u k B q.8.,.'.@X#X=X<X1X<XaX=X#X X{.#.w.q.N z e 3 ; O ",
"# = 4 u n Q q./ S.}.{.*XhX-X=X=XaXsX$X.X{.,.q.i.+.x p , : O ",
"* - 4 a m / 9.W D.`.].*XlX-X=X$X=XsX%X{.}.V.u.i.+.N k 7 > % ",
"* : y f m 8.r.Q A._./.'..XOX@X#X#X#XOX{.[.D.w.i.w.N z 7 > & ",
"* > y f Y 8.r.Q s.A./.).{.|.@X#X+XOX}.[.`.D.N i.w.V z p 3 & ",
"= > y f Q 9./ T d.g.^.).{.|.@X#X#X+XOX}.}.`.! i.t.~ x p , & ",
"= > y f Y 9.~ T b.v.^.).}.+X%X=X%X%X$X+XoXG.~ i.t.V m p , ; ",
"* 2 s f T 9.T U m.n.^.).OX%X<X2X7X1XaXaX,X;X/ i.u.+.x p 4 ; ",
"= 2 y f U 9.U d f.h.^.[.$X1X8XrXrXtX8X2X3X>X/ i.u.+.x k , : ",
"= : y d U ^ U f r.a.(.+X<XrXwXeXuXeXwXtX1XoXQ i.u.+.x k 4 : ",
"* > y h U ^ U h / =.(.$XtXiXzXcXcXxXpX9X%X_.W u.$.! x p 4 ; ",
"* 2 4 d U ^ n h 7.^ >.].3XkXvXbXvXcXjX:XV.,.W r.$.! I 8 , : ",
"* : 4 d P R P U 7.W ) %.a.oXdXgXfX&XC.-.&.=.@.E #.! x 8 1 ; ",
"* 2 4 s P ( P / / R E F K %.,./.M.{ ' ' %.<.:.I R R Z 8 : ; ",
"# = 3 0 l L h / *.&.%.K %.] *.W.O.[ [ o.O.R.<.Y x I l 7 : ; ",
"# $ 2 0 d L h 0.r.c.:.E.c.l.E.Q.I.I.I.P.L.:.A.7.l l Z 6 < $ ",
"# # 2 3 j L f @.z.{ X.X.} X.W.!.L. .k.l.| ;.R.A I Z 0 3 ; @ ",
"o # ; 2 0 j j _ j. .| X.} X.).XXP.k.j.L.K.J.` C Z C 6 1 ; @ ",
"o # ; 2 3 0 s j _ ..K.K.K.L.Q.~.T.U.Y.U. .D C Z Z 0 1 ; $ @ ",
"o # $ ; 1 9 j j Z A F J J F z.x.H F F F A A A C q 5 < ; @ o ",
"o o + # ; 1 9 j Z A A S G G ( ( S G G G A A C j 5 1 ; @ o o "
};
