/* XPM */
static char * led_finished_xpm[] = {
"30 30 125 2",
"  	c #000000",
". 	c #010201",
"+ 	c #020202",
"@ 	c #020302",
"# 	c #020503",
"$ 	c #030604",
"% 	c #020402",
"& 	c #010202",
"* 	c #000101",
"= 	c #040805",
"- 	c #050B07",
"; 	c #0B140C",
"> 	c #112315",
", 	c #18301D",
"' 	c #18311E",
") 	c #142718",
"! 	c #0C180E",
"~ 	c #030704",
"{ 	c #040704",
"] 	c #070E08",
"^ 	c #152919",
"/ 	c #264A2D",
"( 	c #32613B",
"_ 	c #35663E",
": 	c #33633C",
"< 	c #34653D",
"[ 	c #2E5836",
"} 	c #1E3A23",
"| 	c #0D190F",
"1 	c #08100A",
"2 	c #1B3420",
"3 	c #2D5634",
"4 	c #34663D",
"5 	c #386C41",
"6 	c #376B41",
"7 	c #36683F",
"8 	c #376A40",
"9 	c #32603A",
"0 	c #25482C",
"a 	c #0F1E13",
"b 	c #19321E",
"c 	c #2A5131",
"d 	c #2F5A37",
"e 	c #34643D",
"f 	c #376940",
"g 	c #315D38",
"h 	c #224329",
"i 	c #0B170E",
"j 	c #112114",
"k 	c #26492C",
"l 	c #295031",
"m 	c #2B5333",
"n 	c #2E5735",
"o 	c #305C38",
"p 	c #33623B",
"q 	c #315E39",
"r 	c #2E5936",
"s 	c #274D2F",
"t 	c #050B06",
"u 	c #060B07",
"v 	c #1D3822",
"w 	c #274B2E",
"x 	c #35643D",
"y 	c #305A37",
"z 	c #2E5635",
"A 	c #2A5232",
"B 	c #274A2E",
"C 	c #24462A",
"D 	c #24472B",
"E 	c #25472B",
"F 	c #3E7447",
"G 	c #33603A",
"H 	c #2C5534",
"I 	c #315D39",
"J 	c #0D1B11",
"K 	c #24452A",
"L 	c #274D2E",
"M 	c #2C5434",
"N 	c #0F1E12",
"O 	c #284F30",
"P 	c #1A331F",
"Q 	c #1B341F",
"R 	c #24442A",
"S 	c #0E1C11",
"T 	c #2F5B37",
"U 	c #0D1B10",
"V 	c #274C2E",
"W 	c #182F1C",
"X 	c #1F3B24",
"Y 	c #36673E",
"Z 	c #0A140C",
"` 	c #19311E",
" .	c #1F3C24",
"..	c #3E7245",
"+.	c #3D7044",
"@.	c #203F26",
"#.	c #122315",
"$.	c #182D1B",
"%.	c #182E1B",
"&.	c #214027",
"*.	c #34633C",
"=.	c #34613B",
"-.	c #23442A",
";.	c #1D3721",
">.	c #182E1C",
",.	c #162A1A",
"'.	c #1B3521",
").	c #234429",
"!.	c #214127",
"~.	c #1A331E",
"{.	c #1F3D25",
"].	c #142617",
"^.	c #0A130B",
"/.	c #1E3A24",
"(.	c #224228",
"_.	c #142517",
":.	c #1C3721",
"<.	c #132416",
"[.	c #0B150D",
"}.	c #203E26",
"|.	c #203D25",
"1.	c #1C3621",
"2.	c #050A06",
"3.	c #162A19",
"4.	c #102014",
"                                                            ",
"                                                            ",
"                                                            ",
"                                                            ",
"            . . . . + @ # # $ # % + & . . . . .             ",
"          * # # # $ = - ; > , ' ) ! - ~ # # # @             ",
"          . % # $ { ] ^ / ( _ : < [ } | = $ # @             ",
"          . # $ $ 1 2 3 4 5 6 7 5 8 9 0 a = $ #             ",
"          . # $ - b c d 9 e f 8 7 : g 3 h i $ #             ",
"          . # ~ j k l m n o 9 p q r m l s 2 t #             ",
"          . $ u v / w c x 9 d y n z A B k C | #             ",
"          . # ; h D E r F G H 3 m I o / 0 / ) %             ",
"          . # J K E D L [ m m m c M H B E 0 , #             ",
"          . # N C 0 D k L l c c O B E 0 0 0 P ~             ",
"          . # a K 0 E 0 L l c l s 0 D 0 0 0 Q ~             ",
"          & $ N R 0 E k s c A c s k D E E 0 Q ~             ",
"          . $ N R 0 0 w c m 3 M l B E E 0 k 2 ~             ",
"          . # S R 0 0 s M d g T 3 l B E 0 B Q ~             ",
"          . # U h 0 / A I e _ < 9 r c V k / W $             ",
"          . $ i X D V r _ f 7 Y f 4 d O 0 R ^ $             ",
"          . # Z `  .C z Y f ..+.Y : m D @.} ) $             ",
"          . t #.$.%.P &.l y *.=.H V -.X 2 2 ' ;             ",
"          . Z ;.>.^ ) ,.'.).D C K !.} Q ` ~.{.]..           ",
"          . ^.} /.W ^ ) %.@.(.(.-.@.v 2 '.X (._..           ",
"          . ^.:.@.!. .{.{.(.R K D K ).(.(.&.@.<..           ",
"          * [.}.}.}.X @.D 0 0 D D 0 0 -.@.@.).) .           ",
"          * ] } D ).|.} h 0 E D C D C ).).E R S             ",
"          . # i 1.R D ).D B 0 D D 0 0 k 0 @.<.~             ",
"          * @ % 2.; N 3.2 @.).).).@.} , 4.1 ~ .             ",
"                      * + u i ! ! ] { + . . .               "};
