/* XPM */
static char *led_empty[] = {
/* columns rows colors chars-per-pixel */
"30 30 130 2",
"   c #000000010001",
".  c #001300FA00FA",
"X  c #001902050205",
"o  c #008802710271",
"O  c #000003650365",
"+  c #008402D902D9",
"@  c #002203FA03FA",
"#  c #00A9041B041B",
"$  c #006F04C704C7",
"%  c #017E051E051E",
"&  c #003205A305A3",
"*  c #012F05E205E2",
"=  c #015606B706B7",
"-  c #01AA07420742",
";  c #00B0087F087F",
":  c #011F09690969",
">  c #01EF07B107B1",
",  c #00A90A300A30",
"<  c #00000B180B18",
"1  c #022909E209E2",
"2  c #02A00A4A0A4A",
"3  c #023D0AED0AED",
"4  c #00250BE80BE8",
"5  c #00390D860D86",
"6  c #00E30D7C0D7C",
"7  c #02F20C180C18",
"8  c #033B0D040D04",
"9  c #00320F100F10",
"0  c #02FC0E1A0E1A",
"q  c #01AC0F450F45",
"w  c #02C90F230F23",
"e  c #038A0D500D50",
"r  c #03DA0F5C0F5C",
"t  c #00C410151015",
"y  c #019410E410E4",
"u  c #005A12871287",
"i  c #016612451245",
"p  c #036A119A119A",
"a  c #0512137C137C",
"s  c #012E14011401",
"d  c #027714321432",
"f  c #020E15471547",
"g  c #027E15C615C6",
"h  c #02DB15E315E3",
"j  c #039B14531453",
"k  c #044115611561",
"l  c #04B5157A157A",
"z  c #059214F014F0",
"x  c #054915B715B7",
"c  c #03D417171717",
"v  c #051717391739",
"b  c #05F4178B178B",
"n  c #03BC18221822",
"m  c #043F195D195D",
"M  c #056119051905",
"N  c #05C617CA17CA",
"B  c #069519531953",
"V  c #044319A419A4",
"C  c #05171A4A1A4A",
"Z  c #054E1B1F1B1F",
"A  c #06A719D619D6",
"S  c #05E51B6A1B6A",
"D  c #06341C061C06",
"F  c #06501D3B1D3B",
"G  c #06A91D591D59",
"H  c #070A1E4B1E4B",
"J  c #076F1F601F60",
"K  c #07F81B161B16",
"L  c #07A71BA91BA9",
"P  c #081E1DB41DB4",
"I  c #07AE1F401F40",
"U  c #091E1F191F19",
"Y  c #080A203F203F",
"T  c #086E21042104",
"R  c #08BC215C215C",
"E  c #091122122212",
"W  c #095122F122F1",
"Q  c #09D1233E233E",
"!  c #0A2A244B244B",
"~  c #0A8B24882488",
"^  c #0A6724E024E0",
"/  c #0AC525272527",
"(  c #0B25261E261E",
")  c #0B7C27052705",
"_  c #0D0726642664",
"`  c #0BD627372737",
"'  c #0C0627D727D7",
"]  c #0CB628872887",
"[  c #0CD0292A292A",
"{  c #0D6F2A5A2A5A",
"}  c #0DA32A5A2A5A",
"|  c #0E032B492B49",
" . c #0E3D2C092C09",
".. c #0EB42C882C88",
"X. c #0EF02D4D2D4D",
"o. c #0F722E232E23",
"O. c #0FE22E742E74",
"+. c #10292F412F41",
"@. c #107A30243024",
"#. c #10B730133013",
"$. c #111D31133113",
"%. c #11FF322A322A",
"&. c #127033553355",
"*. c #126833BE33BE",
"=. c #12EB34173417",
"-. c #135635213521",
";. c #13E435963596",
":. c #13F036073607",
">. c #145336D336D3",
",. c #154A378F378F",
"<. c #1523383E383E",
"1. c #160738863886",
"2. c #15EC39383938",
"3. c #16393A583A58",
"4. c #17563A0F3A0F",
"5. c #17153B5C3B5C",
"6. c #172E3C0F3C0F",
"7. c #17953CE83CE8",
"8. c #17983C9B3C9B",
"9. c #18213D753D75",
"0. c #18533E083E08",
"q. c #18BC3E553E55",
"w. c #193C3F593F59",
"e. c #196B40494049",
"r. c #19BB40834083",
"t. c #1A04415D415D",
"y. c #1A5441D141D1",
"u. c #1E6145154515",
"i. c #1F6246414641",
"p. c #1F2E47D147D1",
/* pixels */
"                                                            ",
"                                                            ",
"                                                            ",
"                                                            ",
"                                                            ",
"                        o 2 a z 0 % .                       ",
"                    X r _ 1.8.3.6.%.K =                     ",
"                  o N @.6.y.t.0.y.r.<.( 3                   ",
"                . x  .&.<.6.w.e.0.3.;.#.R *                 ",
"                7 / | o.$.-.<.2.>.%.O.| [ b .               ",
"              X B ( ` X.5.,.&.*.$.$.X.) ( W >               ",
"              = T ! ~ %.p.1.+.#.O.:.-.( ^ ( w               ",
"              > W ~ ! ] %.o.o.O. .+.+.( ! ^ k               ",
"              > Q ~ ! / ] | X.X.} ` ^ ^ ^ ^ v               ",
"              > W / ! / ] |  . .[ / ! ~ ^ ~ N               ",
"              > E / ! ( [  .X...[ / ! ~ ~ ! N               ",
"              - E / ^ `  .O.#.+.| ` ! ! ^ / N               ",
"              - R ^ ^ [ +.*.-.=.@.| ` ! ^ ( N               ",
"              = T ^ ( X.:.5.7.6.<.%...' / ( j               ",
"              $ Z ! ' %.9.w.0.9.q.7.&.{ / E q               ",
"              O i S Q $.0.w.i.u.9.3.o.! F m 6               ",
"            . , 9 9 d H | =.4.1.+.' E Z f f i $             ",
"            $ c t 4 < 5 h R ! W W I V f u s Z 8             ",
"            @ M C y 4 < t G Y Y E G n f g Z Y 7             ",
"            @ c F J S S D Y E W Q W R Y I I G 3             ",
"            & F F F Z G ! / ^ ! ! ^ / E G G T e             ",
"            X A ! R D m T ^ ! ! Q ! W R R ^ E 1             ",
"              * N W Q T ! ) ~ Q ! ^ ^ / ^ P 0 .             ",
"                . - 2 p B U T R R P L l 3 #                 ",
"                          + ; : : o .                       "
};
