/* XPM */
static char * led_finished_xpm[] = {
"20 20 153 2",
"  	c None",
". 	c #000000",
"+ 	c #000001",
"@ 	c #000002",
"# 	c #000108",
"$ 	c #00030A",
"% 	c #000510",
"& 	c #000F29",
"* 	c #011D47",
"= 	c #001B44",
"- 	c #000E24",
"; 	c #00030B",
"> 	c #000008",
", 	c #000206",
"' 	c #000004",
") 	c #000309",
"! 	c #00091D",
"~ 	c #042C5F",
"{ 	c #0A4F8E",
"] 	c #0B5698",
"^ 	c #0C5595",
"/ 	c #0A5090",
"( 	c #032D5F",
"_ 	c #00081A",
": 	c #000208",
"< 	c #000107",
"[ 	c #042E62",
"} 	c #084482",
"| 	c #094C8B",
"1 	c #0C5694",
"2 	c #0A4D8C",
"3 	c #084681",
"4 	c #042C62",
"5 	c #000512",
"6 	c #011B43",
"7 	c #053771",
"8 	c #063A75",
"9 	c #094785",
"0 	c #084785",
"a 	c #094784",
"b 	c #073F7C",
"c 	c #053872",
"d 	c #05346D",
"e 	c #01183B",
"f 	c #000410",
"g 	c #033066",
"h 	c #084380",
"i 	c #0D5899",
"j 	c #063E7C",
"k 	c #063E79",
"l 	c #094685",
"m 	c #073C76",
"n 	c #04326A",
"o 	c #022656",
"p 	c #000616",
"q 	c #043066",
"r 	c #033168",
"s 	c #04346C",
"t 	c #053A75",
"u 	c #063B76",
"v 	c #053873",
"w 	c #04356E",
"x 	c #043168",
"y 	c #02295E",
"z 	c #000109",
"A 	c #000617",
"B 	c #043169",
"C 	c #043872",
"D 	c #073B75",
"E 	c #043772",
"F 	c #022B60",
"G 	c #000819",
"H 	c #042E63",
"I 	c #033169",
"J 	c #05336B",
"K 	c #063973",
"L 	c #063D78",
"M 	c #053974",
"N 	c #033067",
"O 	c #022B61",
"P 	c #000615",
"Q 	c #042F64",
"R 	c #03326A",
"S 	c #05346F",
"T 	c #07407E",
"U 	c #094985",
"V 	c #08427F",
"W 	c #043269",
"X 	c #032D62",
"Y 	c #000513",
"Z 	c #03285D",
"` 	c #04326B",
" .	c #073F7B",
"..	c #0A4F8F",
"+.	c #0A5291",
"@.	c #0B5090",
"#.	c #094B88",
"$.	c #063B77",
"%.	c #04336B",
"&.	c #022658",
"*.	c #011E49",
"=.	c #032B5F",
"-.	c #083F7C",
";.	c #0C5393",
">.	c #1061A0",
",.	c #0E5798",
"'.	c #04356F",
").	c #03295D",
"!.	c #011F4B",
"~.	c #00122F",
"{.	c #001A43",
"].	c #001840",
"^.	c #01204D",
"/.	c #063E7A",
"(.	c #063A74",
"_.	c #032E65",
":.	c #001E4A",
"<.	c #012151",
"[.	c #00112E",
"}.	c #032455",
"|.	c #001941",
"1.	c #00173C",
"2.	c #022251",
"3.	c #042B60",
"4.	c #042D62",
"5.	c #022250",
"6.	c #01204F",
"7.	c #03295E",
"8.	c #00143A",
"9.	c #000003",
"0.	c #00183C",
"a.	c #02285B",
"b.	c #03285B",
"c.	c #032D63",
"d.	c #043067",
"e.	c #042F65",
"f.	c #032A5F",
"g.	c #032C61",
"h.	c #00163B",
"i.	c #011635",
"j.	c #032655",
"k.	c #042F66",
"l.	c #000F2A",
"m.	c #00020A",
"n.	c #001130",
"o.	c #02204A",
"p.	c #032D65",
"q.	c #032F68",
"r.	c #00112D",
"s.	c #000005",
"t.	c #000B22",
"u.	c #000E25",
"v.	c #000716",
". . . . . . . . . . . . . . . . . . . . ",
". . . . . . . . . . . . . . . . . . . . ",
". . . . + + + @ + + . . + + + + . . . . ",
". . . @ # # $ % & * = - ; # > , . . . . ",
". . . ' # ) ! ~ { ] ^ / ( _ : < . . . . ",
". . . ' # % [ } | 1 1 2 3 4 5 # . . . . ",
". . . ' # 6 7 8 9 0 a b c d e > . . . . ",
". . . ' f 4 g h i j k l m n o , . . . . ",
". . . ' p q r s t u 8 v w x y z . . . . ",
". . . ' A q B n C D E n x n F $ . . . . ",
". . . ' G H I J K L M J N x O $ . . . . ",
". . . ' P Q R S T U V t W n X $ . . . . ",
". . . ' Y Z `  ...+.@.#.$.%.&.$ . . . . ",
". . . ' f *.=.-.;.>.,.2 '.).!.$ . . . . ",
". . . ' ~.{.].^.W /.(._.o :.<.[.. . . . ",
". . . ' e }.|.1.2.3.4.).5.6.7.8.. . . . ",
". . . 9.0.a.b.).c.d.N x e.f.g.h.. . . . ",
". . . @ i.x =.j.k.x q x Q Q W l.. . . . ",
". . . 9.m.n.o.o p.` n q.g.5.r.s.. . . . ",
". . . . . . . @ m.t.u.v.< ' ' . . . . . "};
