/* XPM */
static char *led_failed_glow[] = {
/* columns rows colors chars-per-pixel */
"30 30 237 2",
"   c #056A016502AB",
".  c #0BEE0348055D",
"X  c #136F0323060E",
"o  c #1B9A03E4056D",
"O  c #13C9054208AC",
"+  c #1A9105D20A75",
"@  c #16AF08660C24",
"#  c #1B2208850D59",
"$  c #1EC40B8C1043",
"%  c #2208050506AA",
"&  c #23D8062E0A41",
"*  c #2A4D06680A3C",
"=  c #238608420E45",
"-  c #2DBD08270C91",
";  c #311A07780ACB",
":  c #322008780B45",
">  c #3A9F09AB0D39",
",  c #23870B531185",
"<  c #2BCF0BFC139A",
"1  c #33BA0AD1121A",
"2  c #3AC20ABC11D0",
"3  c #34AD0E4A1799",
"4  c #3A9E0EC2186A",
"5  c #2B5D103C1645",
"6  c #2F1111EE19A7",
"7  c #353313931BF4",
"8  c #3B5112931C48",
"9  c #3DD415F220A3",
"0  c #3BE518D02190",
"q  c #429E0AD80EBF",
"w  c #42C80C511241",
"e  c #4C410D57130A",
"r  c #426E0E0518EA",
"t  c #4B980E5117CF",
"y  c #53C50E111311",
"u  c #59AD0F0B13BD",
"i  c #537D0F0A17C6",
"p  c #44EE11481CD3",
"a  c #4C7011321E36",
"s  c #55B2102115FF",
"d  c #5CD310891613",
"f  c #5DA0121218DC",
"g  c #61790F5915F7",
"h  c #635110C21681",
"j  c #698810D61760",
"k  c #640112CA1AC8",
"l  c #6C4B13FC1BF5",
"z  c #7726115A1685",
"x  c #7332146E1BAC",
"c  c #7C4A161D1D28",
"v  c #4394158E2186",
"b  c #4BA9151D223B",
"n  c #43E619EF242A",
"m  c #4BE51DE32993",
"M  c #53F012B32140",
"N  c #5B1113AF21BD",
"B  c #53281BCB2A5A",
"V  c #5BAB19BF2ACF",
"C  c #626714352269",
"Z  c #69FA14882059",
"A  c #6CAD172E2988",
"S  c #65131AEC2CA3",
"D  c #7A50168B240C",
"F  c #72A117C52510",
"G  c #7D28190422F3",
"H  c #7B4F190828B8",
"J  c #62451E6D30D3",
"K  c #6DF71D6932F9",
"L  c #72951E04327F",
"P  c #79131CC63126",
"I  c #4EC120872C3D",
"U  c #53BB202C2CCA",
"Y  c #5B5A22B03182",
"T  c #6290241434C1",
"R  c #687D207332E0",
"E  c #6D5F275D3AEB",
"W  c #653D28D2382F",
"Q  c #738821A7356F",
"!  c #73D426533A9D",
"~  c #7B1B23303928",
"^  c #70502AB73D2C",
"/  c #74FE2CE640C6",
"(  c #7CDE2CCD4326",
")  c #7BA330D94508",
"_  c #84080F1E110E",
"`  c #86A410141251",
"'  c #8CAB130C16D0",
"]  c #846A153F1EE0",
"[  c #84B117B219C8",
"{  c #8CAA18D61B75",
"}  c #93B71394169D",
"|  c #997A139016FC",
" . c #9CBC16AB1A76",
".. c #9EB1187F1D58",
"X. c #A4B616051BF9",
"o. c #A5FD18A71CB2",
"O. c #AB9018FE1DC4",
"+. c #B3241A211F02",
"@. c #B8571B501F49",
"#. c #897615B5233F",
"$. c #856019352436",
"%. c #88EF19532465",
"&. c #84681AFD29A3",
"*. c #8B431C112B35",
"=. c #9579196C1FAF",
"-. c #97831B3B291B",
";. c #830D1DDD33A4",
":. c #8E271E9332E6",
">. c #90CE1F8133F3",
",. c #AEF218272368",
"<. c #A5961D7C2CCA",
"1. c #AEAA185B2E0C",
"2. c #B5831BFD207B",
"3. c #BC461B902195",
"4. c #BDA21F292B06",
"5. c #A9981E063C99",
"6. c #BCE2199B31F5",
"7. c #B64A1CC438D3",
"8. c #9A8F20082E77",
"9. c #85D520D736AE",
"0. c #8BE1201C3698",
"q. c #859C23CF3BD2",
"w. c #8D7622CE39B6",
"e. c #959E20B53598",
"r. c #9BE920C732C7",
"t. c #901023843B6B",
"y. c #B20B221D2708",
"u. c #BD5C201D2947",
"i. c #B5B328852D2F",
"p. c #B1D82B033049",
"a. c #BBAA2A9030F4",
"s. c #C5671D082317",
"d. c #CE5B1D5E2499",
"f. c #CD0F1A022EF8",
"g. c #D4BF1E30257B",
"h. c #DC561E2B25E7",
"j. c #D7511CEA2CBF",
"k. c #DE2B1C392B88",
"l. c #C374199C304C",
"z. c #CAE619C730EA",
"x. c #D8A41A2C3071",
"c. c #D8FD1F053973",
"v. c #E3491E12262E",
"b. c #E9DB1CDF253B",
"n. c #E5241DC92B44",
"m. c #EAFB1BCE2C48",
"M. c #E1F81C59306F",
"N. c #EAE21AF735AE",
"B. c #EBA51B963A9A",
"V. c #CFF5221D2A02",
"C. c #D57A22492BC9",
"Z. c #DB44203127FC",
"A. c #C68B21AD3397",
"S. c #D23F2F9F3A64",
"D. c #EA99242C2499",
"F. c #E455220A2B7F",
"G. c #E9053CA2245E",
"H. c #E7ED22F43640",
"J. c #ECB320DF382F",
"K. c #D63D41FB2326",
"L. c #834027134062",
"P. c #8D212564424E",
"I. c #82CD2B0942A2",
"U. c #8AB12AF942A7",
"Y. c #82803034470E",
"T. c #863232354965",
"R. c #890A33854B1A",
"E. c #954C344A48D0",
"W. c #ABE0267C4D99",
"Q. c #A3D13A264EC9",
"!. c #AA7937965B83",
"~. c #EBB4195643D4",
"^. c #EB7C191A4BC2",
"/. c #ED2C1DF05593",
"(. c #EB771CE35A49",
"). c #DF68200740F0",
"_. c #D140283D5623",
"`. c #E66A2E1C44A9",
"'. c #EBC021E34890",
"]. c #E3F8226553FE",
"[. c #EB9C2063528C",
"{. c #EB87243C5E61",
"}. c #CFFA3A4F6F74",
"|. c #EB6124E3633D",
" X c #ECAF29156217",
".X c #EB8C2A466BAB",
"XX c #EC20310E6F8E",
"oX c #EB722D477220",
"OX c #ED36355477D3",
"+X c #EB97354A7B4B",
"@X c #EBAB3B7A7C87",
"#X c #E34840865A54",
"$X c #C3DD49FA7408",
"%X c #EE5A561D63C7",
"&X c #ECBD44EC7690",
"*X c #EC9A452D7FDE",
"=X c #F0D871217283",
"-X c #F633BABC6FA6",
";X c #FA96C4DD7CE8",
":X c #FB35CB477D27",
">X c #EB8B3A0E835B",
",X c #EB823D688ADD",
"<X c #ED194C538651",
"1X c #EC5343098C4A",
"2X c #E54F4F018E3F",
"3X c #ED8751A18B7E",
"4X c #EE1D5ED18B10",
"5X c #EBDC44AE920F",
"6X c #EC074A32953A",
"7X c #EC1D4C6B995B",
"8X c #ECED54709BB0",
"9X c #ED1859289F05",
"0X c #D8CA65F4887A",
"qX c #EE1463EB9A16",
"wX c #E65F7B59949B",
"eX c #F1DA7EE4960E",
"rX c #ECF25C73A148",
"tX c #ED8B632CA42B",
"yX c #EE9A6B42A6DE",
"uX c #EE886C80A9BD",
"iX c #EEA77429ACAD",
"pX c #EF8D7B79ADD1",
"aX c #F19979EBB0BD",
"sX c #F42989B18844",
"dX c #EF109BC58782",
"fX c #F2F0A9A781C0",
"gX c #F887B5BF8CD0",
"hX c #F52AA56595B5",
"jX c #F6BDAEE79420",
"kX c #F03A83EFAD91",
"lX c #F0888353AA97",
"zX c #F0E38A7FAF13",
"xX c #F27A944AAD23",
"cX c #F2A78E2CB24F",
"vX c #F90AC0428090",
"bX c #FF38F5F59DBE",
"nX c #F447B0E4CE9D",
/* pixels */
"      . . O @ # , 5 6 0 0 0 9 0 7 7 7 6 6 , # # O O .       ",
"    . . O @ $ 5 5 0 9 n 0 I I I I I I 0 7 6 5 $ # O . .     ",
"  . . O # $ < 3 9 n B U Y W / T W W Y U I p 7 5 , # O O .   ",
"  . O O $ < 7 v m Y T / / / ) ) ) / ^ E Y U I 7 5 $ # O . . ",
". . + # < 4 v B J E ( ) ) T.R.R.R.Y.) ! ! T U b 8 1 = @ X . ",
". O + = 3 v B J ! ( I.! / P.Q.!.E.~ Q Y.I.~ R V p 4 5 # O X ",
"X + & 1 4 b V L L.I.R P.$XwXfX-XdX0X!.U.U.U.! S B p 3 - @ X ",
"O + < 3 b V K L.L.L W.2XaXxXgX;XjXcXyX}.t.U.q.Q S a 4 - & X ",
"+ = 1 4 M S P P.L 5.+X9XyXpXzXxXkXiXtX1X_.9.q.9.K N p 1 = + ",
"+ = 1 a V K q.~ :.].+X,X7XtXuXiXyX8X1XOX X7.9.w.P C a 2 - + ",
"+ - 2 a C P :.L 6./.|.@XaXuX8XrX8X6X@X X'.).e.t.9.A M r : & ",
"+ 1 r M A ;.;.F x.^.(.<XnXuX6X7X5XqX4X[.J.F.<.t.0.F f p : = ",
"= 1 r N A ;.:.H M.N.^..X3X,X,X5X>X*X&X~.m.b.y.e.0.H k p > = ",
"= 1 t f A :.:.&.h.m.^.(..X>X,X,X+X|.^.N.m.m.u.e.e.G k i 2 - ",
"& > t C H :.>.#.h.m.B.(..X+X,X>XoX(.~.m.b.b.A.8.e.&.Z i 2 : ",
"* 1 t C D >.>.] h.m.~.(.oX>X,X,XoX(.~.m.b.v.l.r.>.&.Z i > - ",
"* > t C H :.:.#.h.n.B.|.>X5X7X7X>X|.^.N.b.b.4.r.r.$.Z s w - ",
"* 2 t k D :.:.#.g.b.~..X5X9XtXrX5X+X{.~.m.D.s.r.r.$.l s w : ",
"* 2 t C D *.*.c Z.m.^.1XtXpXkXkXuX8X>X XJ.G.y.r.8.$.l s w : ",
"* 2 t g D *.*.l 3.n.{.8XlXjX;X-XhXpX9XXXH.K.8.8.8.$.l s 2 : ",
"* > e k F &.H k  .s.c.<XhXvXbXbX:XeX&XH.s.@.{ -.8.[ l s q ; ",
"* : e f x D k c } } X.A.#X=XsXsX%X`.j.@.O.o...c %.c l s q ; ",
"* : e d l l f O.| ` _ ` ,.C.n.h.h.g.@.o. .o.u.{ x c h y > ; ",
"* : w s l k s 2.@.| ` _ ' V.V.g.g.s.+.O.O.@.d.{ z z h y > * ",
"* ; q s h f s O.V.V.@.i.p.g.h.h.n.Z.C.V.g.d.s.[ l z f e > * ",
"o - > e d d d s.@.s.u.a.S.F.n.n.v.F.F.V.s.s.g.] j j u q ; * ",
"% * > q u d s @.n.g.s.@.g.m.n.Z.Z.h.Z.Z.h.n.k.z g h y q ; % ",
"o % ; q e d s h ,.k.n.g.n.J.n.n.b.b.n.N.N.z.] u h u e > * % ",
"o o : > q u d s t k G =.1.z.C.x.j.f.l.1.#.l k j g y q ; % o ",
"X o % : > e u h h j l d t C D $.$.c c c x z z k u q > ; % o "
};
