/* XPM */
static char * led_submitted_glow_xpm[] = {
"20 20 202 2",
"  	c #040300",
". 	c #080601",
"+ 	c #0B0801",
"@ 	c #151002",
"# 	c #1D1806",
"$ 	c #2A2108",
"% 	c #332A0C",
"& 	c #3A2D0B",
"* 	c #43360F",
"= 	c #46390F",
"- 	c #45390F",
"; 	c #42350F",
"> 	c #382D0C",
", 	c #31260A",
"' 	c #261E07",
") 	c #1A1504",
"! 	c #130F03",
"~ 	c #090601",
"{ 	c #060400",
"] 	c #070500",
"^ 	c #0C0902",
"/ 	c #221A06",
"( 	c #30260A",
"_ 	c #3C320E",
": 	c #524010",
"< 	c #5C4A15",
"[ 	c #695A19",
"} 	c #695519",
"| 	c #625117",
"1 	c #574613",
"2 	c #463910",
"3 	c #3A2F0D",
"4 	c #2B2209",
"5 	c #1D1604",
"6 	c #161204",
"7 	c #0C0901",
"8 	c #141003",
"9 	c #46360D",
"0 	c #594613",
"a 	c #6E5616",
"b 	c #7B671B",
"c 	c #836C1C",
"d 	c #846A1B",
"e 	c #856B1B",
"f 	c #80681B",
"g 	c #786019",
"h 	c #674F15",
"i 	c #514010",
"j 	c #40310C",
"k 	c #2A2109",
"l 	c #1A1404",
"m 	c #110E02",
"n 	c #0E0B01",
"o 	c #2E2409",
"p 	c #48360D",
"q 	c #5E4610",
"r 	c #745A16",
"s 	c #8B6F1C",
"t 	c #765B16",
"u 	c #9C7B2D",
"v 	c #927127",
"w 	c #634C14",
"x 	c #765C16",
"y 	c #836217",
"z 	c #6B5315",
"A 	c #54400F",
"B 	c #3B2E0C",
"C 	c #281F07",
"D 	c #161103",
"E 	c #241C06",
"F 	c #3D2E0B",
"G 	c #56400F",
"H 	c #755815",
"I 	c #8A6B1B",
"J 	c #866617",
"K 	c #C49D0A",
"L 	c #F7E857",
"M 	c #FFFABE",
"N 	c #FFF7AF",
"O 	c #E9D641",
"P 	c #A57B0B",
"Q 	c #816519",
"R 	c #856518",
"S 	c #674F14",
"T 	c #4B380D",
"U 	c #32270A",
"V 	c #201805",
"W 	c #120E01",
"X 	c #191304",
"Y 	c #312509",
"Z 	c #4B3A0E",
"` 	c #694E12",
" .	c #8A6819",
"..	c #7B5B16",
"+.	c #DDA513",
"@.	c #FECD06",
"#.	c #FFE10E",
"$.	c #FFED34",
"%.	c #FFEF32",
"&.	c #FFE20B",
"*.	c #FFD006",
"=.	c #AE7717",
"-.	c #725715",
";.	c #5C450F",
">.	c #43340D",
",.	c #241A05",
"'.	c #211905",
").	c #362A0B",
"!.	c #553F10",
"~.	c #765715",
"{.	c #896919",
"].	c #AE8321",
"^.	c #F1B01D",
"/.	c #F8B211",
"(.	c #FABC0A",
"_.	c #FDCE04",
":.	c #FDCE0C",
"<.	c #FDCC30",
"[.	c #FAB914",
"}.	c #EBB020",
"|.	c #845D18",
"1.	c #886819",
"2.	c #684C13",
"3.	c #49360D",
"4.	c #2D2208",
"5.	c #201705",
"6.	c #2F2409",
"7.	c #4B380E",
"8.	c #6E5416",
"9.	c #926D1C",
"0.	c #967221",
"a.	c #C5942C",
"b.	c #D99327",
"c.	c #E49523",
"d.	c #F6A51A",
"e.	c #F9AF17",
"f.	c #F7A918",
"g.	c #F29F1D",
"h.	c #DB9426",
"i.	c #CB8E2C",
"j.	c #A57925",
"k.	c #835E1A",
"l.	c #5C4511",
"m.	c #3E2F0B",
"n.	c #281E09",
"o.	c #45340C",
"p.	c #674D13",
"q.	c #8C6B19",
"r.	c #936F1F",
"s.	c #D29B29",
"t.	c #D99224",
"u.	c #F1BC67",
"v.	c #F9BC41",
"w.	c #F8B016",
"x.	c #F9AE16",
"y.	c #F39F19",
"z.	c #E29725",
"A.	c #D49729",
"B.	c #AA7822",
"C.	c #8D681C",
"D.	c #7E5D14",
"E.	c #56410F",
"F.	c #3B2D0B",
"G.	c #271C06",
"H.	c #5F4811",
"I.	c #846519",
"J.	c #836518",
"K.	c #CE9927",
"L.	c #DF9C20",
"M.	c #F4C05E",
"N.	c #FAC24B",
"O.	c #FBBB11",
"P.	c #F9BA19",
"Q.	c #FBC245",
"R.	c #ECA329",
"S.	c #DCA126",
"T.	c #A4751E",
"U.	c #8C6B1A",
"V.	c #765516",
"W.	c #513D0E",
"X.	c #36290A",
"Y.	c #5E4C16",
"Z.	c #6A5A19",
"`.	c #6A5619",
" +	c #635217",
".+	c #45360E",
"++	c #544513",
"@+	c #584914",
"#+	c #554614",
"$+	c #504112",
"%+	c #40330E",
"&+	c #000000",
"*+	c #141004",
"=+	c #282108",
"-+	c #2F270A",
";+	c #2C2409",
">+	c #201A07",
",+	c #131004",
"'+	c #010100",
")+	c #060501",
"!+	c #080701",
"~+	c #050501",
"  . + @ # $ % & * = - ; > , ' ) ! ~ {   ",
"] ^ @ / ( _ : < [ } } | 1 2 3 4 5 6 ~ . ",
"7 8 / , 9 0 a b c d e f g h i j k l m ] ",
"n l o p q r s r t u v w x y z A B C @ ^ ",
"D E F G H I J K L M N O P Q R S T U V W ",
"X Y Z `  ...+.@.#.$.%.&.*.=.-...;.>.,.6 ",
"'.).!.~.{.].^./.(._.:.<.[.}.|.1.2.3.4.5.",
"6.7.8.9.0.a.b.c.d.e.f.g.h.i.j.9.k.l.m.n.",
"$ o.p.q.r.s.t.u.v.w.x.y.z.A.B.C.D.E.F.V ",
"G.p H.I.J.K.L.M.N.O.P.Q.R.S.T.U.V.W.X.5.",
"'.).!.~.{.].^./.(._.:.<.[.}.|.1.2.3.4.5.",
"X Y Z `  ...+.@.#.$.%.&.*.=.-...;.>.,.6 ",
"D E F G H I J K L M N O P Q R S T U V W ",
"n l o p q r s r t u v w x y z A B C @ ^ ",
"7 8 / , 9 0 a b c d e f g h i j k l m ] ",
"] ^ @ / ( _ : Y.Z.`.}  +1 2 3 4 5 6 ~ . ",
"  . + @ # $ % .+++@+#+$+%+, ' ) ! ~ {   ",
"&+&+&+&+&+&+&+*+=+-+;+>+,+&+&+&+&+&+&+&+",
"&+&+&+&+&+&+&+'+)+!+~+&+&+&+&+&+&+&+&+&+",
"&+&+&+&+&+&+&+&+&+&+&+&+&+&+&+&+&+&+&+&+"};
