/* XPM */
static char * led_running_glow_xpm[] = {
"20 20 220 2",
"  	c None",
". 	c #050600",
"+ 	c #080C00",
"@ 	c #0F1700",
"# 	c #131B00",
"$ 	c #222D00",
"% 	c #343F00",
"& 	c #3C4A01",
"* 	c #4A5900",
"= 	c #4D5D00",
"- 	c #526200",
"; 	c #516100",
"> 	c #506000",
", 	c #415100",
"' 	c #354401",
") 	c #283500",
"! 	c #1C2500",
"~ 	c #111900",
"{ 	c #0E1500",
"] 	c #050500",
"^ 	c #060700",
"/ 	c #0A1200",
"( 	c #131E00",
"_ 	c #2C3500",
": 	c #364501",
"< 	c #4B5901",
"[ 	c #566800",
"} 	c #647A02",
"| 	c #738802",
"1 	c #6F8502",
"2 	c #6B8202",
"3 	c #5F7501",
"4 	c #526201",
"5 	c #3D4E01",
"6 	c #303F01",
"7 	c #1C2600",
"8 	c #121800",
"9 	c #070C00",
"0 	c #091100",
"a 	c #141C00",
"b 	c #232E00",
"c 	c #304401",
"d 	c #4B5B01",
"e 	c #5D7201",
"f 	c #738902",
"g 	c #809D03",
"h 	c #869F03",
"i 	c #849D03",
"j 	c #85A203",
"k 	c #82A104",
"l 	c #7D9803",
"m 	c #688402",
"n 	c #556A01",
"o 	c #355301",
"p 	c #2A3800",
"q 	c #192100",
"r 	c #0E1A00",
"s 	c #081000",
"t 	c #1F2900",
"u 	c #2B3B00",
"v 	c #415901",
"w 	c #567803",
"x 	c #709205",
"y 	c #86A604",
"z 	c #749003",
"A 	c #89A003",
"B 	c #BCC703",
"C 	c #B9CB08",
"D 	c #7A9904",
"E 	c #7D9E04",
"F 	c #80A305",
"G 	c #678502",
"H 	c #4F6C02",
"I 	c #3A5000",
"J 	c #283A01",
"K 	c #131A00",
"L 	c #151C00",
"M 	c #222E00",
"N 	c #374D01",
"O 	c #556A02",
"P 	c #6B8B03",
"Q 	c #7CA204",
"R 	c #79A305",
"S 	c #C5D807",
"T 	c #FFFD02",
"U 	c #FFFF00",
"V 	c #FFFC00",
"W 	c #E2ED08",
"X 	c #91BF0A",
"Y 	c #7A9B04",
"Z 	c #7B9C04",
"` 	c #628102",
" .	c #446001",
"..	c #2E4001",
"+.	c #162E00",
"@.	c #121700",
"#.	c #192600",
"$.	c #455A00",
"%.	c #5C7C03",
"&.	c #749A05",
"*.	c #749907",
"=.	c #9CDD14",
"-.	c #C2EC10",
";.	c #E8F209",
">.	c #F1F506",
",.	c #E7F209",
"'.	c #D1ED0E",
").	c #B5EB12",
"!.	c #74BA0B",
"~.	c #759704",
"{.	c #6D9605",
"].	c #507102",
"^.	c #355401",
"/.	c #273000",
"(.	c #0C2200",
"_.	c #1B2900",
":.	c #324501",
"<.	c #4A6301",
"[.	c #668603",
"}.	c #719405",
"|.	c #6FBE0D",
"1.	c #91E113",
"2.	c #ABE718",
"3.	c #C9ED1A",
"4.	c #C7EC10",
"5.	c #C2EB0F",
"6.	c #C7EC11",
"7.	c #9FE412",
"8.	c #8BDE13",
"9.	c #6A9C05",
"0.	c #7AA206",
"a.	c #5B8103",
"b.	c #445A01",
"c.	c #244201",
"d.	c #172000",
"e.	c #283600",
"f.	c #3C5101",
"g.	c #587604",
"h.	c #709107",
"i.	c #648305",
"j.	c #BAA608",
"k.	c #8BBA0D",
"l.	c #7FD213",
"m.	c #92DE13",
"n.	c #A3E613",
"o.	c #A9E711",
"p.	c #A7E312",
"q.	c #9BDE13",
"r.	c #97DC13",
"s.	c #78AB0A",
"t.	c #80AB07",
"u.	c #749C05",
"v.	c #527803",
"w.	c #3C5501",
"x.	c #232D00",
"y.	c #243100",
"z.	c #546F03",
"A.	c #709204",
"B.	c #698E05",
"C.	c #90B60C",
"D.	c #7EC610",
"E.	c #7ED612",
"F.	c #92DE11",
"G.	c #A1E513",
"H.	c #A8E511",
"I.	c #A1E312",
"J.	c #93DC13",
"K.	c #95D311",
"L.	c #71AB09",
"M.	c #6F9504",
"N.	c #527003",
"O.	c #325001",
"P.	c #252D00",
"Q.	c #334B01",
"R.	c #567001",
"S.	c #6A9107",
"T.	c #648705",
"U.	c #7FCA0F",
"V.	c #93D311",
"W.	c #B2E91E",
"X.	c #D4F138",
"Y.	c #BDEB11",
"Z.	c #B5E811",
"`.	c #D4EF11",
" +	c #A0E112",
".+	c #76B20A",
"++	c #658D04",
"@+	c #324901",
"#+	c #1D2400",
"$+	c #596B00",
"%+	c #697F02",
"&+	c #728802",
"*+	c #6D8502",
"=+	c #667D02",
"-+	c #617701",
";+	c #546601",
">+	c #3A4701",
",+	c #475600",
"'+	c #506201",
")+	c #556701",
"!+	c #526300",
"~+	c #425101",
"{+	c #000000",
"]+	c #101200",
"^+	c #2A3300",
"/+	c #364200",
"(+	c #384500",
"_+	c #394500",
":+	c #384400",
"<+	c #2C3600",
"[+	c #192000",
"}+	c #030400",
"|+	c #0F1200",
"1+	c #191D00",
"2+	c #1F2600",
"3+	c #161B00",
"4+	c #090B00",
"5+	c #040600",
"6+	c #070800",
"7+	c #010100",
". + @ # $ % & * = - ; > , ' ) ! ~ { ] ^ ",
"+ / ( _ : < [ } | | 1 2 3 4 5 6 7 8 9 ^ ",
"0 a b c d e f g h i j k l m n o p q r ] ",
"s t u v w x y z A B C D E F G H I J K 8 ",
"L M N O P Q R S T U V W X Y Z `  ...+.@.",
"#.J $.%.&.*.=.-.;.>.,.'.).!.~.{.].^./.(.",
"_.:.<.[.}.|.1.2.3.4.5.6.7.8.9.0.a.b.c.d.",
"e.f.g.h.i.j.k.l.m.n.o.p.q.r.s.t.u.v.w.x.",
"y.f.z.A.B.C.D.E.F.G.H.I.J.K.L.t.M.N.O.x.",
"P.Q.R.S.T.U.V.W.X.Y.Z.`. +r..+t.++H @+#+",
"_.:.<.[.}.|.1.2.3.4.5.6.7.8.9.0.a.b.c.d.",
"#.J $.%.&.*.=.-.;.>.,.'.).!.~.{.].^./.(.",
"L M N O P Q R S T U V W X Y Z `  ...+.@.",
"s t u v w x y z A B C D E F G H I J K 8 ",
"0 a b c d e f g h i j k l m n o p q r ] ",
"+ / ( _ : < $+%+&+*+=+} -+;+5 6 7 8 9 ^ ",
". + @ # $ % >+,+'+)+'+'+!+~+) ! ~ { ] ^ ",
"{+{+{+{+{+{+]+^+/+(+_+:+<+[+{+{+{+{+{+{+",
"{+{+{+{+{+{+}+|+1+2+1+3+4+{+{+{+{+{+{+{+",
"{+{+{+{+{+{+{+{+5+6+] 7+{+{+{+{+{+{+{+{+"};
