/* XPM */
static char * led_submitted_glow_xpm[] = {
"20 20 362 2",
"  	c None",
". 	c #040300",
"+ 	c #080601",
"@ 	c #0B0801",
"# 	c #151002",
"$ 	c #1D1806",
"% 	c #2A2108",
"& 	c #332A0C",
"* 	c #3A2D0B",
"= 	c #43360F",
"- 	c #46390F",
"; 	c #45390F",
"> 	c #42350F",
", 	c #382D0C",
"' 	c #31260A",
") 	c #261E07",
"! 	c #1A1504",
"~ 	c #130F03",
"{ 	c #090601",
"] 	c #060400",
"^ 	c #070500",
"/ 	c #0C0902",
"( 	c #221A06",
"_ 	c #30260A",
": 	c #3C320E",
"< 	c #524010",
"[ 	c #5C4A15",
"} 	c #695A19",
"| 	c #695519",
"1 	c #625117",
"2 	c #574613",
"3 	c #463910",
"4 	c #3A2F0D",
"5 	c #2B2209",
"6 	c #1D1604",
"7 	c #161204",
"8 	c #0C0901",
"9 	c #141003",
"0 	c #46360D",
"a 	c #594613",
"b 	c #6E5616",
"c 	c #7B671B",
"d 	c #836C1C",
"e 	c #846A1B",
"f 	c #856B1B",
"g 	c #80681B",
"h 	c #786019",
"i 	c #674F15",
"j 	c #514010",
"k 	c #40310C",
"l 	c #2A2109",
"m 	c #1A1404",
"n 	c #110E02",
"o 	c #0E0B01",
"p 	c #2E2409",
"q 	c #48360D",
"r 	c #5E4610",
"s 	c #745A16",
"t 	c #8B6F1C",
"u 	c #765B16",
"v 	c #9C7B2D",
"w 	c #927127",
"x 	c #634C14",
"y 	c #765C16",
"z 	c #836217",
"A 	c #6B5315",
"B 	c #54400F",
"C 	c #3B2E0C",
"D 	c #281F07",
"E 	c #161103",
"F 	c #241C06",
"G 	c #3D2E0B",
"H 	c #56400F",
"I 	c #755815",
"J 	c #8A6B1B",
"K 	c #866617",
"L 	c #C49D0A",
"M 	c #F7E857",
"N 	c #FFFABE",
"O 	c #FFF7AF",
"P 	c #E9D641",
"Q 	c #A57B0B",
"R 	c #816519",
"S 	c #856518",
"T 	c #674F14",
"U 	c #4B380D",
"V 	c #32270A",
"W 	c #201805",
"X 	c #120E01",
"Y 	c #191304",
"Z 	c #312509",
"` 	c #4B3A0E",
" .	c #694E12",
"..	c #8A6819",
"+.	c #7B5B16",
"@.	c #DDA513",
"#.	c #FECD06",
"$.	c #FFE10E",
"%.	c #FFED34",
"&.	c #FFEF32",
"*.	c #FFE20B",
"=.	c #FFD006",
"-.	c #AE7717",
";.	c #725715",
">.	c #5C450F",
",.	c #43340D",
"'.	c #241A05",
").	c #211905",
"!.	c #362A0B",
"~.	c #553F10",
"{.	c #765715",
"].	c #896919",
"^.	c #AE8321",
"/.	c #F1B01D",
"(.	c #F8B211",
"_.	c #FABC0A",
":.	c #FDCE04",
"<.	c #FDCE0C",
"[.	c #FDCC30",
"}.	c #FAB914",
"|.	c #EBB020",
"1.	c #845D18",
"2.	c #886819",
"3.	c #684C13",
"4.	c #49360D",
"5.	c #2D2208",
"6.	c #201705",
"7.	c #271C06",
"8.	c #5F4811",
"9.	c #846519",
"0.	c #836518",
"a.	c #CE9927",
"b.	c #DF9C20",
"c.	c #F4C05E",
"d.	c #FAC24B",
"e.	c #FBBB11",
"f.	c #F9BA19",
"g.	c #FBC245",
"h.	c #ECA329",
"i.	c #DCA126",
"j.	c #A4751E",
"k.	c #8C6B1A",
"l.	c #765516",
"m.	c #513D0E",
"n.	c #36290A",
"o.	c #45340C",
"p.	c #674D13",
"q.	c #8C6B19",
"r.	c #936F1F",
"s.	c #D29B29",
"t.	c #D99224",
"u.	c #F1BC67",
"v.	c #F9BC41",
"w.	c #F8B016",
"x.	c #F9AE16",
"y.	c #F39F19",
"z.	c #E29725",
"A.	c #D49729",
"B.	c #AA7822",
"C.	c #8D681C",
"D.	c #7E5D14",
"E.	c #56410F",
"F.	c #3B2D0B",
"G.	c #2F2409",
"H.	c #4B380E",
"I.	c #6E5416",
"J.	c #926D1C",
"K.	c #967221",
"L.	c #C5942C",
"M.	c #D99327",
"N.	c #E49523",
"O.	c #F6A51A",
"P.	c #F9AF17",
"Q.	c #F7A918",
"R.	c #F29F1D",
"S.	c #DB9426",
"T.	c #CB8E2C",
"U.	c #A57925",
"V.	c #835E1A",
"W.	c #5C4511",
"X.	c #3E2F0B",
"Y.	c #281E09",
"Z.	c #4E3A0E",
"`.	c #6E5316",
" +	c #926F1E",
".+	c #937120",
"++	c #C5932C",
"@+	c #D99727",
"#+	c #EF9C1E",
"$+	c #F8AD17",
"%+	c #FAB712",
"&+	c #F7AF16",
"*+	c #F19E1D",
"=+	c #D89327",
"-+	c #CC902C",
";+	c #A47C28",
">+	c #916C1B",
",+	c #855F19",
"'+	c #5F4812",
")+	c #3F310D",
"!+	c #281D09",
"~+	c #2F230A",
"{+	c #6D591A",
"]+	c #937221",
"^+	c #8F6D20",
"/+	c #C49B2B",
"(+	c #E5A122",
"_+	c #F9B315",
":+	c #FED105",
"<+	c #FFDB03",
"[+	c #F7B415",
"}+	c #E59E22",
"|+	c #CD922C",
"1+	c #A37B27",
"2+	c #997422",
"3+	c #84611C",
"4+	c #42330E",
"5+	c #30250A",
"6+	c #6E591C",
"7+	c #8C7021",
"8+	c #826820",
"9+	c #C4A72A",
"0+	c #F2BE13",
"a+	c #FFE419",
"b+	c #FFF262",
"c+	c #FEF686",
"d+	c #FFF360",
"e+	c #FED812",
"f+	c #F2A919",
"g+	c #C7902D",
"h+	c #967727",
"i+	c #8F6D22",
"j+	c #846520",
"k+	c #634B13",
"l+	c #41330E",
"m+	c #271D09",
"n+	c #332A0B",
"o+	c #4C3C11",
"p+	c #6B581A",
"q+	c #8D7121",
"r+	c #7E6321",
"s+	c #A9992E",
"t+	c #DDB019",
"u+	c #FEE553",
"v+	c #FEFBD4",
"w+	c #FEFBDA",
"x+	c #FEFACD",
"y+	c #FBDA3B",
"z+	c #D49923",
"A+	c #867028",
"B+	c #866A22",
"C+	c #85621C",
"D+	c #614F19",
"E+	c #665318",
"F+	c #776122",
"G+	c #76601E",
"H+	c #988331",
"I+	c #937A2F",
"J+	c #AE8828",
"K+	c #D0AA49",
"L+	c #E1C55E",
"M+	c #D3AE44",
"N+	c #A9812B",
"O+	c #927D30",
"P+	c #83712A",
"Q+	c #927D2E",
"R+	c #705D22",
"S+	c #725C1E",
"T+	c #5F4A14",
"U+	c #3C300D",
"V+	c #251F09",
"W+	c #2C2409",
"X+	c #635219",
"Y+	c #867325",
"Z+	c #B4952E",
"`+	c #95802F",
" @	c #937D2E",
".@	c #917B2D",
"+@	c #AC9232",
"@@	c #9F8730",
"#@	c #8C762D",
"$@	c #958130",
"%@	c #938234",
"&@	c #B4942E",
"*@	c #6A571A",
"=@	c #5A4C18",
"-@	c #41350E",
";@	c #262009",
">@	c #2B2108",
",@	c #3D340F",
"'@	c #5E4D16",
")@	c #5D4D17",
"!@	c #897324",
"~@	c #B39933",
"{@	c #B09530",
"]@	c #B3973A",
"^@	c #BA9C37",
"/@	c #BAA031",
"(@	c #B99D31",
"_@	c #B29832",
":@	c #B59939",
"<@	c #AD9630",
"[@	c #B49933",
"}@	c #906D21",
"|@	c #624F17",
"1@	c #554614",
"2@	c #3B2E0B",
"3@	c #241E08",
"4@	c #261E08",
"5@	c #392C0C",
"6@	c #4E4214",
"7@	c #5E511B",
"8@	c #967C1E",
"9@	c #D6B52A",
"0@	c #BC9A2D",
"a@	c #B29431",
"b@	c #AE9532",
"c@	c #C8AD2E",
"d@	c #C0A62E",
"e@	c #B59B33",
"f@	c #B9A132",
"g@	c #CEB023",
"h@	c #E3B91E",
"i@	c #76621B",
"j@	c #5A4A16",
"k@	c #33290B",
"l@	c #231C08",
"m@	c #1E1906",
"n@	c #2D2409",
"o@	c #41360F",
"p@	c #5B4E19",
"q@	c #594E19",
"r@	c #896C19",
"s@	c #BC951F",
"t@	c #D4A422",
"u@	c #C79A26",
"v@	c #D2A727",
"w@	c #D2AC21",
"x@	c #DAB01B",
"y@	c #D6AF1C",
"z@	c #B69817",
"A@	c #7B6316",
"B@	c #5B4B16",
"C@	c #564614",
"D@	c #3F340F",
"E@	c #292109",
"F@	c #1B1504",
"G@	c #181404",
"H@	c #392E0C",
"I@	c #4F4112",
"J@	c #5A4E1A",
"K@	c #6E5E1B",
"L@	c #645219",
"M@	c #594D19",
"N@	c #625017",
"O@	c #6D5A1B",
"P@	c #77631B",
"Q@	c #6C581A",
"R@	c #574B18",
"S@	c #493A0F",
"T@	c #352A0B",
"U@	c #211B07",
". + @ # $ % & * = - ; > , ' ) ! ~ { ] . ",
"^ / # ( _ : < [ } | | 1 2 3 4 5 6 7 { + ",
"8 9 ( ' 0 a b c d e f g h i j k l m n ^ ",
"o m p q r s t s u v w x y z A B C D # / ",
"E F G H I J K L M N O P Q R S T U V W X ",
"Y Z `  ...+.@.#.$.%.&.*.=.-.;.+.>.,.'.7 ",
").!.~.{.].^./.(._.:.<.[.}.|.1.2.3.4.5.6.",
"7.q 8.9.0.a.b.c.d.e.f.g.h.i.j.k.l.m.n.6.",
"% o.p.q.r.s.t.u.v.w.x.y.z.A.B.C.D.E.F.W ",
"G.H.I.J.K.L.M.N.O.P.Q.R.S.T.U.J.V.W.X.Y.",
"G.Z.`. +.+++@+#+$+%+&+*+=+-+;+>+,+'+)+!+",
"~+m.{+]+^+/+(+_+:+<+:+[+}+|+1+2+3+[ 4+D ",
"5+< 6+7+8+9+0+a+b+c+d+e+f+g+h+i+j+k+l+m+",
"n+o+p+q+r+s+t+u+v+w+x+y+z+v A+B+C+D+= 5 ",
"p o+E+F+G+H+I+J+K+L+M+N+O+P+Q+R+S+T+U+V+",
"W+3 X+| Y+Z+`+ @.@+@@@#@$@%@&@9.*@=@-@;@",
">@,@'@)@!@~@{@]@^@/@(@_@:@<@[@}@|@1@2@3@",
"4@5@6@7@8@9@0@a@b@c@d@e@f@g@h@i@j@3 k@l@",
"m@n@o@p@q@r@s@t@u@v@w@x@y@z@A@B@C@D@E@F@",
"G@;@H@I@J@| K@L@M@L@N@O@P@O@Q@R@S@T@U@7 "};
