/* XPM */
static char * led_failed_glow_xpm[] = {
"20 20 363 2",
"  	c None",
". 	c #040001",
"+ 	c #080203",
"@ 	c #0C0305",
"# 	c #140609",
"$ 	c #1D0A0F",
"% 	c #250D12",
"& 	c #33131B",
"* 	c #3E1822",
"= 	c #3D1922",
"- 	c #431924",
"; 	c #411A24",
"> 	c #401922",
", 	c #3A161F",
"' 	c #301118",
") 	c #240C12",
"! 	c #1B090E",
"~ 	c #140508",
"{ 	c #0A0204",
"] 	c #050102",
"^ 	c #0B0305",
"/ 	c #17060A",
"( 	c #1E0B10",
"_ 	c #2F0C14",
": 	c #3D1520",
"< 	c #4B1927",
"[ 	c #53202C",
"} 	c #5F2434",
"| 	c #742C40",
"1 	c #622535",
"2 	c #652838",
"3 	c #56202E",
"4 	c #4E202C",
"5 	c #3C111A",
"6 	c #2B1016",
"7 	c #1F090F",
"8 	c #130508",
"9 	c #0F0406",
"0 	c #170509",
"a 	c #1C080D",
"b 	c #320C15",
"c 	c #431621",
"d 	c #561D2C",
"e 	c #6A2639",
"f 	c #7A2F44",
"g 	c #7B2F44",
"h 	c #803148",
"i 	c #823248",
"j 	c #7C2F44",
"k 	c #742A3E",
"l 	c #662335",
"m 	c #55222F",
"n 	c #3F131E",
"o 	c #2D0D14",
"p 	c #1F070D",
"q 	c #110407",
"r 	c #0A0305",
"s 	c #0E0406",
"t 	c #1A050A",
"u 	c #2B0A12",
"v 	c #431521",
"w 	c #5A1C2C",
"x 	c #73263A",
"y 	c #802C43",
"z 	c #7F2740",
"A 	c #A33A4E",
"B 	c #A13653",
"C 	c #7B2339",
"D 	c #7A283E",
"E 	c #822B42",
"F 	c #712135",
"G 	c #5B192A",
"H 	c #3E0E19",
"I 	c #16060A",
"J 	c #130306",
"K 	c #150408",
"L 	c #27080E",
"M 	c #3B0E18",
"N 	c #521625",
"O 	c #6F1E33",
"P 	c #852741",
"Q 	c #792137",
"R 	c #BA3967",
"S 	c #EA79A2",
"T 	c #FAB887",
"U 	c #FBBF7F",
"V 	c #EB7FA2",
"W 	c #BD3F6C",
"X 	c #89263C",
"Y 	c #852840",
"Z 	c #6B1D30",
"` 	c #521624",
" .	c #360D17",
"..	c #25070A",
"+.	c #120205",
"@.	c #1D060B",
"#.	c #330A12",
"$.	c #450F1C",
"%.	c #651A2C",
"&.	c #85213A",
"*.	c #721E32",
"=.	c #CD2759",
"-.	c #ED599F",
";.	c #EE73A9",
">.	c #F08AAF",
",.	c #F18DAC",
"'.	c #EE74AC",
").	c #EE539A",
"!.	c #D12856",
"~.	c #802136",
"{.	c #852036",
"].	c #631729",
"^.	c #44111C",
"/.	c #2A080F",
"(.	c #1F060B",
"_.	c #360911",
":.	c #551422",
"<.	c #721C31",
"[.	c #7E2137",
"}.	c #A51B31",
"|.	c #EF2664",
"1.	c #EA3981",
"2.	c #EE64A6",
"3.	c #EC5EA2",
"4.	c #EC64A4",
"5.	c #EB4B96",
"6.	c #EB3476",
"7.	c #ED2556",
"8.	c #AA1E37",
"9.	c #8F223A",
"0.	c #73192C",
"a.	c #4F1120",
"b.	c #37090F",
"c.	c #1E0509",
"d.	c #25070D",
"e.	c #420E18",
"f.	c #5F1424",
"g.	c #831D33",
"h.	c #74192B",
"i.	c #D81A30",
"j.	c #EC1751",
"k.	c #ED4C86",
"l.	c #F196C1",
"m.	c #EC4A95",
"n.	c #EB4695",
"o.	c #EE639A",
"p.	c #EC3E6F",
"q.	c #EC2038",
"r.	c #C51F29",
"s.	c #90233B",
"t.	c #7F1B2E",
"u.	c #5D1218",
"v.	c #3A0C13",
"w.	c #23080E",
"x.	c #290810",
"y.	c #460E17",
"z.	c #631422",
"A.	c #881D32",
"B.	c #811B2D",
"C.	c #DF1D2A",
"D.	c #EB183C",
"E.	c #EA2060",
"F.	c #EB397F",
"G.	c #EA3C89",
"H.	c #EA3C87",
"I.	c #EB336F",
"J.	c #EA224D",
"K.	c #E91A2B",
"L.	c #D21E26",
"M.	c #951F35",
"N.	c #871C2D",
"O.	c #641119",
"P.	c #420C14",
"Q.	c #27080D",
"R.	c #2D070A",
"S.	c #4B0E17",
"T.	c #6E1625",
"U.	c #8E1E32",
"V.	c #87192A",
"W.	c #DC1E25",
"X.	c #EB1A31",
"Y.	c #EB1C5A",
"Z.	c #EB2F73",
"`.	c #EB3D8A",
" +	c #EB347B",
".+	c #EA1936",
"++	c #E91C25",
"@+	c #DA1E2C",
"#+	c #9A202E",
"$+	c #8D1D30",
"%+	c #691420",
"&+	c #450C13",
"*+	c #32080B",
"=+	c #2E070C",
"-+	c #6E1524",
";+	c #8F1E32",
">+	c #851929",
",+	c #E91A33",
"'+	c #EB1F5E",
")+	c #EA3983",
"!+	c #EB4390",
"~+	c #EB3C87",
"{+	c #EB1E5D",
"]+	c #EA1839",
"^+	c #E81C24",
"/+	c #D41B29",
"(+	c #9B2032",
"_+	c #8E1C2C",
":+	c #681420",
"<+	c #480C12",
"[+	c #2C080C",
"}+	c #30070D",
"|+	c #6F131E",
"1+	c #86182A",
"2+	c #D41E25",
"3+	c #EB1931",
"4+	c #EB2A6B",
"5+	c #EC4F9A",
"6+	c #ED63A4",
"7+	c #EB509A",
"8+	c #EB357B",
"9+	c #EB1D50",
"0+	c #EA1B2C",
"a+	c #DA2022",
"b+	c #911C2B",
"c+	c #6C131B",
"d+	c #4B0E13",
"e+	c #4A0E17",
"f+	c #6E131F",
"g+	c #8B1C2A",
"h+	c #7A1722",
"i+	c #CD1D24",
"j+	c #EC1A3E",
"k+	c #EC4D96",
"l+	c #F085A8",
"m+	c #F4A293",
"n+	c #F29496",
"o+	c #ED69A7",
"p+	c #EC3C84",
"q+	c #EB2138",
"r+	c #C33426",
"s+	c #9A2030",
"t+	c #911C29",
"u+	c #480D13",
"v+	c #30070B",
"w+	c #4C0D13",
"x+	c #6B141F",
"y+	c #841A29",
"z+	c #6B1520",
"A+	c #9C161A",
"B+	c #CF1B29",
"C+	c #F7B489",
"D+	c #FFF59D",
"E+	c #FDE48B",
"F+	c #F17E96",
"G+	c #EB2F55",
"H+	c #C51D23",
"I+	c #A0191B",
"J+	c #971B29",
"K+	c #901C23",
"L+	c #4B0D11",
"M+	c #31070A",
"N+	c #2C0609",
"O+	c #661218",
"P+	c #72141F",
"Q+	c #78141A",
"R+	c #931215",
"S+	c #8A1012",
"T+	c #A3151D",
"U+	c #D73545",
"V+	c #ED4B58",
"W+	c #E6404C",
"X+	c #DD212F",
"Y+	c #B8181D",
"Z+	c #A0161A",
"`+	c #AA1A20",
" @	c #82161B",
".@	c #7C161F",
"+@	c #671118",
"@@	c #480C10",
"#@	c #2D060A",
"$@	c #420C12",
"%@	c #621118",
"&@	c #64121A",
"*@	c #83151A",
"=@	c #B81B1F",
"-@	c #8D1113",
";@	c #840F11",
">@	c #AE1A20",
",@	c #CF222A",
"'@	c #D51D24",
")@	c #AD181D",
"!@	c #AB181D",
"~@	c #C71C22",
"{@	c #8C181B",
"]@	c #761015",
"^@	c #631016",
"/@	c #460B10",
"(@	c #2A060A",
"_@	c #270509",
":@	c #3E090D",
"<@	c #590F15",
"[@	c #5C1116",
"}@	c #87141A",
"|@	c #C21E24",
"1@	c #C51E25",
"2@	c #BB2B31",
"3@	c #D02830",
"4@	c #E11D27",
"5@	c #E31D28",
"6@	c #E12129",
"7@	c #D7232C",
"8@	c #CE1D23",
"9@	c #84161B",
"0@	c #6D1017",
"a@	c #5B1015",
"b@	c #3D090D",
"c@	c #250507",
"d@	c #3A090D",
"e@	c #4D0C10",
"f@	c #5C1016",
"g@	c #831519",
"h@	c #E51D2B",
"i@	c #CC1D23",
"j@	c #E11C28",
"k@	c #DA2026",
"l@	c #DA2027",
"m@	c #E81D2C",
"n@	c #771116",
"o@	c #610F15",
"p@	c #530E13",
"q@	c #39080B",
"r@	c #220506",
"s@	c #1B0304",
"t@	c #420A0F",
"u@	c #5B0F14",
"v@	c #540F14",
"w@	c #77121C",
"x@	c #AC1925",
"y@	c #B91C22",
"z@	c #DA1B33",
"A@	c #E2202B",
"B@	c #E51B2B",
"C@	c #E01B2A",
"D@	c #D51931",
"E@	c #BB172D",
"F@	c #811420",
"G@	c #5F0F14",
"H@	c #5D0F14",
"I@	c #470B10",
"J@	c #1E0405",
"K@	c #160205",
"L@	c #35080B",
"M@	c #5E0F14",
"N@	c #6B1119",
"O@	c #53101C",
"P@	c #7A1624",
"Q@	c #861924",
"R@	c #7C161D",
"S@	c #73141B",
"T@	c #781015",
"U@	c #290607",
"V@	c #1B0305",
". + @ # $ % & * = - ; > , ' ) ! ~ { ] ] ",
"+ ^ / ( _ : < [ } | 1 2 3 4 5 6 7 8 9 ] ",
"+ 0 a b c d e f g h i j k l m n o p q r ",
"s t u v w x y x z A B C D E F G H 6 I J ",
"K L M N O P Q R S T U V W X Y Z `  ...+.",
"@.#.$.%.&.*.=.-.;.>.,.'.).!.~.{.].^./.t ",
"(._.:.<.[.}.|.1.2.3.4.5.6.7.8.9.0.a.b.c.",
"d.e.f.g.h.i.j.k.l.m.n.o.p.q.r.s.t.u.v.w.",
"x.y.z.A.B.C.D.E.F.G.H.I.J.K.L.M.N.O.P.Q.",
"R.S.T.U.V.W.X.Y.Z.`. +Y..+++@+#+$+%+&+*+",
"=+S.-+;+>+W.,+'+)+!+~+{+]+^+/+(+_+:+<+[+",
"}+S.|+U.1+2+3+4+5+6+7+8+9+0+a+(+b+c+d+*+",
"}+e+f+g+h+i+j+k+l+m+n+o+p+q+r+s+t+c+u+*+",
"v+w+x+y+z+A+B+k.C+D+E+F+G+H+I+J+K+c+L+M+",
"N+w+O+P+Q+R+S+T+U+V+W+X+Y+Z+`+ @.@+@@@M+",
"#@$@%@&@*@=@-@;@>@,@'@H+)@!@~@{@]@^@/@(@",
"_@:@<@[@}@|@1@2@3@4@5@6@7@i+8@9@0@a@b@(@",
"c@d@e@f@g@h@i@=@j@h@k@W.l@W.m@n@o@p@q@r@",
"s@M+t@u@v@w@x@y@z@A@B@C@D@E@F@G@H@I@N+J@",
"K@r@L@w+M@^@N@f@O@P@Q@R@R@S@T@&@e@d@U@V@"};
