/* XPM */
static char * led_finished_xpm[] = {
"20 20 69 1",
" 	c None",
".	c #000000",
"+	c #010101",
"@	c #030303",
"#	c #050505",
"$	c #0E0E0E",
"%	c #1A1A1A",
"&	c #181818",
"*	c #0D0D0D",
"=	c #020202",
"-	c #090909",
";	c #272727",
">	c #454545",
",	c #4B4B4B",
"'	c #4A4A4A",
")	c #464646",
"!	c #282828",
"~	c #080808",
"{	c #292929",
"]	c #3C3C3C",
"^	c #424242",
"/	c #434343",
"(	c #3D3D3D",
"_	c #313131",
":	c #333333",
"<	c #3E3E3E",
"[	c #373737",
"}	c #2E2E2E",
"|	c #161616",
"1	c #040404",
"2	c #2A2A2A",
"3	c #3B3B3B",
"4	c #4D4D4D",
"5	c #363636",
"6	c #353535",
"7	c #2C2C2C",
"8	c #222222",
"9	c #060606",
"0	c #2B2B2B",
"a	c #343434",
"b	c #2F2F2F",
"c	c #252525",
"d	c #303030",
"e	c #262626",
"f	c #2D2D2D",
"g	c #323232",
"h	c #383838",
"i	c #404040",
"j	c #3A3A3A",
"k	c #242424",
"l	c #474747",
"m	c #414141",
"n	c #1B1B1B",
"o	c #494949",
"p	c #545454",
"q	c #4C4C4C",
"r	c #1C1C1C",
"s	c #101010",
"t	c #171717",
"u	c #1D1D1D",
"v	c #1E1E1E",
"w	c #0F0F0F",
"x	c #212121",
"y	c #151515",
"z	c #1F1F1F",
"A	c #121212",
"B	c #141414",
"C	c #0A0A0A",
"D	c #070707",
"....................",
"....................",
"....................",
"....++@#$%&*@++=....",
"....+@-;>,')!~=+....",
"....+#{]^,,/(;#+....",
"....+&_:<<<[_}|+....",
"....1;234[5<678=....",
"....900}:a:_b0c+....",
"....9007_ad707e@....",
"....~{0fg5gf20e@....",
"....927}hij:77!@....",
"....#k7[>l)maf8@....",
"....1nehopq/bcr@....",
"....st|u75:{8nvw....",
"....|xtyz;!czucA....",
"....ykkc!0202e;B....",
"....B0e82000227$....",
"....=su8!772;zw.....",
"........=C*D+......."};
