/* XPM */
static char *led_submitted_glow[] = {
/* columns rows colors chars-per-pixel */
"30 30 206 2",
"   c #054602EB0059",
".  c #0BB005D40280",
"X  c #108007650208",
"o  c #13B209D70328",
"O  c #1A520CF40484",
"+  c #1D7010830666",
"@  c #207A0F400590",
"#  c #22C7112F064A",
"$  c #28CE139D0741",
"%  c #2441141E0881",
"&  c #2A6F160908BB",
"*  c #2C4419180A1E",
"=  c #304516E208B2",
"-  c #34091B7F0B12",
";  c #39E81DC40C15",
":  c #3C1C22680E3F",
">  c #3E6624F8102F",
",  c #4351225C0D54",
"<  c #4A5F24540E10",
"1  c #4A5228DC0F8F",
"2  c #51C226C20F34",
"3  c #523A28CE0F1F",
"4  c #42ED26D21058",
"5  c #4CAC267E1089",
"6  c #46F129011120",
"7  c #4C512A7B122B",
"8  c #53462C6311FD",
"9  c #5D272D5D11EB",
"0  c #5591322A15BF",
"q  c #5BA533F91597",
"w  c #5600345B1863",
"e  c #5AD4365C17E5",
"r  c #5D62394019D9",
"t  c #64E72F551306",
"y  c #633633DB1543",
"u  c #6CC53471149F",
"i  c #661B3B861768",
"p  c #68743908162E",
"a  c #6382367C1A4C",
"s  c #63AC3A301924",
"d  c #6B4C3D461A52",
"f  c #71FF367514D9",
"g  c #7D573556176A",
"h  c #73DD3A831644",
"j  c #7AA73AEC1698",
"k  c #7243355E1802",
"l  c #7898369218FB",
"z  c #74863DBF1A02",
"x  c #7AC23D581973",
"c  c #6CD240771B85",
"v  c #742D43951C67",
"b  c #7B3C43851B7F",
"n  c #736A458C226A",
"m  c #7D7E43492046",
"M  c #7EE148D8233E",
"N  c #88323A3712A3",
"B  c #83533AFB1ABD",
"V  c #8F8140440F2E",
"C  c #845B43F91A95",
"Z  c #8BD444AC1B33",
"A  c #873049BD1C94",
"S  c #8C9B4B231D55",
"D  c #91C045B71C02",
"F  c #937949B61D78",
"G  c #9A404B261E36",
"H  c #AE82464A1779",
"J  c #B5BC4B0310F5",
"K  c #A8265C3B1D91",
"L  c #BB8150851184",
"P  c #BE345CD21DBF",
"I  c #8EBD460C2193",
"U  c #85B449C92369",
"Y  c #8C784BB12204",
"T  c #937D4CB621A5",
"R  c #999F4E0621EC",
"E  c #87E550C6291D",
"W  c #8BAD54D42C2A",
"Q  c #866159F72DDD",
"!  c #8C1359BB2DDF",
"~  c #9481558E2C82",
"^  c #9D20555B2CA6",
"/  c #93C45C692E86",
"(  c #9A885CA02DEA",
")  c #A59359EE21FC",
"_  c #A46456C32B32",
"`  c #AF135A762A3B",
"'  c #B6645275208B",
"]  c #B5DB5EFF2C7B",
"[  c #93E363A8348B",
"{  c #9CCF6480321B",
"}  c #A7F362502F2B",
"|  c #ABF064332E36",
" . c #BD0E69A72059",
".. c #B4C76A1B2EF4",
"X. c #A9FE71A92EBF",
"o. c #BF4071A52E59",
"O. c #BF68795829F6",
"+. c #ACF06AF73302",
"@. c #B2DC65E53004",
"#. c #B3836C2131D3",
"$. c #B94F6C4D3246",
"%. c #B2F16D283903",
"&. c #B5617176341B",
"*. c #BB0D720A324B",
"=. c #BFC1797730B8",
"-. c #B53971B53B75",
";. c #EE645E3E1F69",
":. c #F3D85C441CEF",
">. c #C6766757174A",
",. c #C8F6661D1656",
"<. c #C54469CD15EC",
"1. c #C27562341DD3",
"2. c #D89E718E1F0E",
"3. c #FE8B7AAC0726",
"4. c #FC6C74B90C80",
"5. c #EE0667CB1E1C",
"6. c #E7816B091F9A",
"7. c #F8DE6611177D",
"8. c #F7CD6C82161E",
"9. c #FA346C251426",
"0. c #F67F63D81B58",
"q. c #F8F9647818A6",
"w. c #F9536A1E1A74",
"e. c #EBE1716019A6",
"r. c #FB647241112A",
"t. c #C16B5E3124C7",
"y. c #C2485E112E77",
"u. c #CD015BBC2C9D",
"i. c #DE095B7926E5",
"p. c #DA7557972828",
"a. c #D5655C7129F8",
"s. c #DAC25B9E28F9",
"d. c #E4DB56822444",
"f. c #EC0C5729217C",
"g. c #E2F95CBF249E",
"h. c #ECB45A8621BE",
"j. c #C62662402CAA",
"k. c #CE0463D62A29",
"l. c #C5E46C4A2C92",
"z. c #DD4A6635273C",
"x. c #DE576FAF2418",
"c. c #D4BC624829C7",
"v. c #DA1366292838",
"b. c #D3CA6C6A2C1B",
"n. c #C51470682510",
"m. c #CEA7797123FE",
"M. c #C6A0712C2D52",
"N. c #C84870422EB8",
"B. c #CC047AE32C12",
"V. c #DC4675292423",
"C. c #D9C278A22310",
"Z. c #D65E7CDF2B30",
"A. c #C13F75DC3018",
"S. c #CB2277983622",
"D. c #C0E9780A3070",
"F. c #E3CA616623AC",
"G. c #EB7764002029",
"H. c #E4246A412455",
"J. c #E86D6C8522E9",
"K. c #E11B60472B56",
"L. c #F88075BE2804",
"P. c #EC866A7138FB",
"I. c #F2CD7178319E",
"U. c #FF32854E0471",
"Y. c #FF638BA704CE",
"T. c #F74784D60F70",
"R. c #FE9C8340098C",
"E. c #FF038A2008D9",
"W. c #FF50915A0C3B",
"Q. c #EC6F84801749",
"!. c #EBD482461C13",
"~. c #FF249B73192C",
"^. c #DCCA825B299C",
"/. c #EC5383342121",
"(. c #FD8B85952D2F",
"). c #FFAD9AE922B7",
"_. c #FB569A0C3C42",
"`. c #FF84A5B82684",
"'. c #FFCDABE4343F",
"]. c #FF8CAF0D3B62",
"[. c #FFA1B1FB3DC5",
"{. c #FB95885F45EF",
"}. c #FDBE95BA4DC9",
"|. c #F4948F2E5F06",
" X c #E8F3908F526B",
".X c #EB3D97785C56",
"XX c #FF8CB6F34B9A",
"oX c #FE79AD78541A",
"OX c #FBDAA5787651",
"+X c #EDE5B8367687",
"@X c #FF82CB6D7DA6",
"#X c #F639AEFC8FD7",
"$X c #EE73BAE28688",
"%X c #F7DDB9AD8245",
"&X c #F79ABBB788B2",
"*X c #FBEDB7D794EC",
"=X c #FEF2CCFE84C0",
"-X c #FBE2C90F994C",
";X c #FFEBD31D902E",
":X c #FF43DC21AB29",
">X c #F43DD845B23D",
",X c #F503D97AB7D8",
"<X c #FF22DEDAB32E",
"1X c #FEB6E308BE0E",
"2X c #FF75E4FCC25F",
"3X c #FEADEFC4DB26",
/* pixels */
"      . . o o + % * = : : : > > : : : - * % + O o . .       ",
"    . . o O + * * : : 1 1 7 7 0 7 7 4 : : * $ # O o X       ",
"  . . o O # $ : : 1 8 q i i c i i a q 8 6 , - & # O o .     ",
"  . o O # $ : , 3 q p v v b b A b b z p q 1 , ; * + O o X . ",
". o O @ & ; < 9 y h b A A S S T S A C b h t 3 , - & @ O . . ",
". o O $ - , 3 y b C A z u C ^ ( C t p C C b y 3 , - $ @ X . ",
"X O # = , 3 t h C S f V m.+X>X,X$XS.N f A C f t 2 ; = @ O X ",
"o O $ ; < 9 h C S j L R.'.@X:X<X;XXXU.J j A C u 9 < ; $ O X ",
"O @ = , 3 u C Z j L 4.3.E.~.].[.`.W.R.4.H u C j u 2 , = @ O ",
"O $ - < t f C Z G 6.8.9.r.3.U.Y.R.T.r.r.G.g j C k 2 < = # O ",
"@ $ ; 2 y j Z C t.H.5.0.w.r.4.4.(.}.L.G.J.' g Z g t < ; $ @ ",
"@ = , 3 u C Z C k.z.g.|.OXw.9.9.L.{.I.K.z.k.l Z B t 2 , $ @ ",
"$ = < 9 k Z F R c.c.g.#X*Xw.w.w.q.0.h.g.c.k.B Z N k 3 , = # ",
"$ = < 9 j Z F R k.a.s.P.I.q.w.q.q.:.d.s.c.u.B D B l 9 < - # ",
"$ - < t x S R R k.a.p.f.:.q.q.q.:.f.d.a.u.y.Z D Z k 9 < - $ ",
"& ; < y x T R T j.a.p.f.:.q.7.q.:.f.d.a.u.y.I F D l 9 < - $ ",
"& ; 8 y x T R T j.c.g.;.q.9.4.9.7.:.d.s.u.y.I F I x q 5 - & ",
"& ; 7 y b T R Y j.v.5.7.3.U.Y.U.3.7.;.i.u.@.I T I x t 5 ; & ",
"& ; 8 y b Y Y U M.V.8.U.~.].XX].~.3.w.F.u.] U R I z a 5 ; $ ",
"& : 7 a b Y T M O.Q.4.'.=X<X1X<X@X).9.F.y.( U T Y x y 5 : $ ",
"& ; 7 y v Y U n X.m.e.oX2X3X3X3X<X_.H.y.( / M U U v y 7 : * ",
"& : 7 a v U s M { { ` b..X&X-X%X Xj._ { ! ! E z b x q 7 : * ",
"& : 6 e v c s | { ! W ~ _ @.M.l._ ~ Q [ Q ! } m z d e 7 - % ",
"% - 6 w d d r $...{ / / / ~ +.+./ ! / { ( } $.m d d 0 6 : % ",
"% : > w i i r +.#.....%.-.$.%.*.#.+.%.%.#.+.+.U i i 0 , : + ",
"% * > 7 r r i o.&.+.#.%.-.*.A.D.*.%.&.*.#.*.M.F i a 7 4 - % ",
"+ * : 6 e r c n.V.N.$.#.+.$.B.B.=.&.&.=.m.C.2.z q e 7 : * + ",
"+ % - > 7 r w v  .2.x.b.b.A.Z.^.B.C.2./.!.<.b 0 a 0 4 - * + ",
"+ + * > 6 w r r w b )  .P P  .t.1.,.>.K b s e i 0 1 : * + o ",
"o + + : > 7 w r i c n s w e s s s c v v d c i q 7 , : * % o "
};
