/* XPM */
static char * led_empty_xpm[] = {
"20 20 84 1",
" 	c None",
".	c #000000",
"+	c #000404",
"@	c #040E0E",
"#	c #030D0D",
"$	c #010404",
"%	c #000303",
"&	c #071818",
"*	c #112C2C",
"=	c #133131",
"-	c #133030",
";	c #102D2D",
">	c #000202",
",	c #071919",
"'	c #0E2727",
")	c #102C2C",
"!	c #123030",
"~	c #0D2626",
"{	c #061919",
"]	c #030E0E",
"^	c #091F1F",
"/	c #0A2222",
"(	c #0E2828",
"_	c #0C2424",
":	c #092020",
"<	c #081E1E",
"[	c #020B0B",
"}	c #000101",
"|	c #071A1A",
"1	c #153131",
"2	c #0B2323",
"3	c #0E2929",
"4	c #0B2222",
"5	c #081B1B",
"6	c #051414",
"7	c #081A1A",
"8	c #081C1C",
"9	c #0A2121",
"0	c #081D1D",
"a	c #061616",
"b	c #0A1F1F",
"c	c #0B2121",
"d	c #0A2020",
"e	c #061717",
"f	c #071D1D",
"g	c #071C1C",
"h	c #0D2525",
"i	c #061818",
"j	c #051616",
"k	c #112D2D",
"l	c #112E2E",
"m	c #0F2A2A",
"n	c #041515",
"o	c #010E0E",
"p	c #051717",
"q	c #122F2F",
"r	c #183535",
"s	c #143131",
"t	c #091E1E",
"u	c #000707",
"v	c #000A0A",
"w	c #000909",
"x	c #020F0F",
"y	c #0C2323",
"z	c #061A1A",
"A	c #031313",
"B	c #000E0E",
"C	c #011010",
"D	c #010606",
"E	c #020A0A",
"F	c #041414",
"G	c #000808",
"H	c #021111",
"I	c #021010",
"J	c #020909",
"K	c #010B0B",
"L	c #041616",
"M	c #071B1B",
"N	c #020707",
"O	c #010707",
"P	c #041111",
"Q	c #051212",
"R	c #010808",
"S	c #000606",
"....................",
"....................",
"....................",
"........+@#$........",
"......%&*=-;&>......",
"......,')-!*~{......",
".....]^/(('_:<[.....",
"....}{|~1_23456.....",
"....}|789/9:05a.....",
"....}|58bcd875e.....",
"....}|5fd49g75e.....",
"....}{7^h(hcg5i.....",
".....j8_klkmc8n.....",
".....ophqrs*tjo.....",
"....uvwx8ydzABCD....",
"....EFwGHi{jCIpJ....",
"....KnLn,||||ppJ....",
"....E5pA|5M5{{MN....",
".....OPF|MM,iQR.....",
".........SO>........"};
