/* XPM */
static char * led_waiting_glow_xpm[] = {
"20 20 352 2",
"  	c None",
". 	c #000103",
"+ 	c #000306",
"@ 	c #010509",
"# 	c #020A11",
"$ 	c #040E17",
"% 	c #061522",
"& 	c #091929",
"* 	c #091D2E",
"= 	c #0C2136",
"- 	c #0C2338",
"; 	c #0D2238",
"> 	c #0C2236",
", 	c #091C2C",
"' 	c #081927",
") 	c #05131F",
"! 	c #030D15",
"~ 	c #02080E",
"{ 	c #000407",
"] 	c #000205",
"^ 	c #010306",
"/ 	c #05111B",
"( 	c #081826",
"_ 	c #0B1E31",
": 	c #0D2941",
"< 	c #112F4B",
"[ 	c #143255",
"} 	c #143554",
"| 	c #13314F",
"1 	c #102C47",
"2 	c #0D2337",
"3 	c #0A1E2F",
"4 	c #071623",
"5 	c #030E17",
"6 	c #030A11",
"7 	c #010407",
"8 	c #02090F",
"9 	c #04111C",
"0 	c #081928",
"a 	c #0B2438",
"b 	c #0F2D47",
"c 	c #123858",
"d 	c #163B63",
"e 	c #17416A",
"f 	c #16416A",
"g 	c #16426A",
"h 	c #163F67",
"i 	c #153C60",
"j 	c #113654",
"k 	c #0A2134",
"l 	c #071522",
"m 	c #02070D",
"n 	c #01060B",
"o 	c #071624",
"p 	c #0A253A",
"q 	c #0D324C",
"r 	c #123B5E",
"s 	c #174570",
"t 	c #123A5E",
"u 	c #24577E",
"v 	c #1F5175",
"w 	c #103450",
"x 	c #123C5F",
"y 	c #12446A",
"z 	c #113757",
"A 	c #0C2C44",
"B 	c #091D2F",
"C 	c #061420",
"D 	c #05121D",
"E 	c #091F31",
"F 	c #0C2C45",
"G 	c #113D5F",
"H 	c #15456F",
"I 	c #13446B",
"J 	c #08529F",
"K 	c #236CEC",
"L 	c #6EA0FA",
"M 	c #609AFC",
"N 	c #1A61D7",
"O 	c #094E85",
"P 	c #154268",
"Q 	c #13456C",
"R 	c #103552",
"S 	c #0B273C",
"T 	c #04101A",
"U 	c #030D14",
"V 	c #071927",
"W 	c #0B263C",
"X 	c #0F3855",
"Y 	c #13476F",
"Z 	c #124264",
"` 	c #0C6AB7",
" .	c #0163D1",
"..	c #0057DA",
"+.	c #0058FA",
"@.	c #0057F7",
"#.	c #0056D6",
"$.	c #0065D6",
"%.	c #13618D",
"&.	c #113C5D",
"*.	c #0C304A",
"=.	c #0A2236",
"-.	c #04131D",
";.	c #04111B",
">.	c #091B2A",
",.	c #0D2D44",
"'.	c #114060",
").	c #14476F",
"!.	c #1A5C8D",
"~.	c #117ACA",
"{.	c #0579D1",
"].	c #036FD0",
"^.	c #0163CE",
"/.	c #0167D6",
"(.	c #087FEB",
"_.	c #0479D7",
":.	c #1476C4",
"<.	c #13496A",
"[.	c #103954",
"}.	c #0A263B",
"|.	c #061724",
"1.	c #04111A",
"2.	c #05141F",
"3.	c #0D314C",
"4.	c #14466C",
"5.	c #13456B",
"6.	c #1F6FA7",
"7.	c #1978B5",
"8.	c #23A0EF",
"9.	c #1D96EB",
"0.	c #0475D4",
"a.	c #057AD9",
"b.	c #0996F9",
"c.	c #118BCF",
"d.	c #1D75B3",
"e.	c #185C85",
"f.	c #154971",
"g.	c #12425F",
"h.	c #0B2941",
"i.	c #081C2B",
"j.	c #061521",
"k.	c #092337",
"l.	c #0F3853",
"m.	c #144871",
"n.	c #195077",
"o.	c #2174AA",
"p.	c #1C7EB1",
"q.	c #32A6E5",
"r.	c #1894E6",
"s.	c #0680D5",
"t.	c #0582D6",
"u.	c #0B8ACE",
"v.	c #1986BB",
"w.	c #2178AC",
"x.	c #1C6289",
"y.	c #174D71",
"z.	c #104367",
"A.	c #0C2D45",
"B.	c #081E2F",
"C.	c #071826",
"D.	c #0B283D",
"E.	c #123B5A",
"F.	c #174E75",
"G.	c #1B537A",
"H.	c #246DA0",
"I.	c #1F7DB0",
"J.	c #1889BE",
"K.	c #088AD4",
"L.	c #0680D6",
"M.	c #0784D4",
"N.	c #0D8DCF",
"O.	c #1D81B4",
"P.	c #2478A4",
"Q.	c #1E5D86",
"R.	c #154A6A",
"S.	c #0E314A",
"T.	c #071621",
"U.	c #071825",
"V.	c #0B283F",
"W.	c #113B5A",
"X.	c #194E76",
"Y.	c #1B5077",
"Z.	c #1E7CB1",
"`.	c #0E8BCB",
" +	c #0478D4",
".+	c #067ED3",
"++	c #0C8DCE",
"@+	c #1F7FB0",
"#+	c #2477A5",
"$+	c #205B83",
"%+	c #164D74",
"&+	c #144B6B",
"*+	c #0E324D",
"=+	c #0A2032",
"-+	c #081926",
";+	c #153657",
">+	c #1B4F77",
",+	c #1B4F73",
"'+	c #23669F",
")+	c #177BBD",
"!+	c #067FD4",
"~+	c #005CD2",
"{+	c #0058D0",
"]+	c #005DD2",
"^+	c #0879D0",
"/+	c #167FBE",
"(+	c #2477A6",
"_+	c #205A83",
":+	c #1C557C",
"<+	c #17496A",
"[+	c #0C2336",
"}+	c #0D2942",
"|+	c #163958",
"1+	c #1B4970",
"2+	c #1A4569",
"3+	c #225A9F",
"4+	c #0C6BC7",
"5+	c #0054E5",
"6+	c #2571F9",
"7+	c #3A7FFF",
"8+	c #2470F9",
"9+	c #005EDC",
"0+	c #0C80CB",
"a+	c #2472A1",
"b+	c #1F517A",
"c+	c #1C4E72",
"d+	c #1A486A",
"e+	c #0F3450",
"f+	c #0C2235",
"g+	c #071620",
"h+	c #0E283E",
"i+	c #153656",
"j+	c #1B4A71",
"k+	c #1A4466",
"l+	c #254D89",
"m+	c #1563B2",
"n+	c #1577FD",
"o+	c #7DABFC",
"p+	c #84AEFA",
"q+	c #78A8FC",
"r+	c #0570F5",
"s+	c #1E72A9",
"t+	c #20476D",
"u+	c #1B476D",
"v+	c #164A6B",
"w+	c #14324E",
"x+	c #0C2237",
"y+	c #071725",
"z+	c #133452",
"A+	c #1B4060",
"B+	c #183E60",
"C+	c #274E7B",
"D+	c #254F77",
"E+	c #235C89",
"F+	c #2678BD",
"G+	c #357DCD",
"H+	c #2375BF",
"I+	c #255E86",
"J+	c #274E77",
"K+	c #22446B",
"L+	c #254C76",
"M+	c #1B3B5B",
"N+	c #173C5C",
"O+	c #10314D",
"P+	c #0A1D2E",
"Q+	c #07111E",
"R+	c #071523",
"S+	c #143250",
"T+	c #1E446D",
"U+	c #255A91",
"V+	c #264D78",
"W+	c #254E77",
"X+	c #244D75",
"Y+	c #29598B",
"Z+	c #275381",
"`+	c #244B72",
" @	c #274D78",
".@	c #2A4D78",
"+@	c #255C91",
"@@	c #153555",
"#@	c #132E49",
"$@	c #0B2034",
"%@	c #07121F",
"&@	c #061622",
"*@	c #0C1E31",
"=@	c #122F4B",
"-@	c #1D466F",
";@	c #295A91",
">@	c #27598E",
",@	c #2E6091",
"'@	c #2C6096",
")@	c #285B97",
"!@	c #285B96",
"~@	c #295A90",
"{@	c #2E6092",
"]@	c #26548C",
"^@	c #2A5B91",
"/@	c #1B5074",
"(@	c #12324F",
"_@	c #102B45",
":@	c #091E2F",
"<@	c #06121D",
"[@	c #06131E",
"}@	c #0A1E2E",
"|@	c #10273F",
"1@	c #162F4C",
"2@	c #184779",
"3@	c #2263AC",
"4@	c #245D98",
"5@	c #285B90",
"6@	c #29598D",
"7@	c #255CA1",
"8@	c #255C9C",
"9@	c #295B93",
"0@	c #285996",
"a@	c #1C5BA8",
"b@	c #1864B7",
"c@	c #163B60",
"d@	c #122E49",
"e@	c #08192A",
"f@	c #06121C",
"g@	c #050E18",
"h@	c #0C2034",
"i@	c #142D4A",
"j@	c #142C48",
"k@	c #14446F",
"l@	c #185C99",
"m@	c #1B68AC",
"n@	c #1E66A1",
"o@	c #1F67A9",
"p@	c #1A60AB",
"q@	c #1562B0",
"r@	c #145FAF",
"s@	c #124C93",
"t@	c #123A63",
"u@	c #122D49",
"v@	c #102C46",
"w@	c #0C1F33",
"x@	c #071421",
"y@	c #030B13",
"z@	c #0A1C2D",
"A@	c #0F273F",
"B@	c #142C49",
"C@	c #163559",
"D@	c #143452",
"E@	c #13324F",
"F@	c #163758",
"G@	c #163B61",
"H@	c #132B47",
"I@	c #0C243A",
"J@	c #091A29",
"K@	c #060F1A",
". + @ # $ % & * = - ; > , ' ) ! ~ { ] . ",
"^ @ # / ( _ : < [ } } | 1 2 3 4 5 6 { 7 ",
"@ 8 9 0 a b c d e f g h i j : k l ! m ^ ",
"n ! o p q r s r t u v w x y z A B C # @ ",
"# D E F G H I J K L M N O P Q R S ' T ~ ",
"U V W X Y Z `  ...+.@.#.$.%.&.Z *.=.-.6 ",
";.>.,.'.).!.~.{.].^./.(._.:.<.).[.}.|.1.",
"2.p 3.4.5.6.7.8.9.0.a.b.c.d.e.f.g.h.i.1.",
"j.k.l.m.n.o.p.q.r.s.t.u.v.w.x.y.z.A.B.T ",
"C.D.E.F.G.H.I.J.K.L.M.N.O.P.Q.F.R.S.E T.",
"U.V.W.X.Y.H.Z.`.t. +.+++@+#+$+%+&+*+=+T.",
"-+h.;+>+,+'+)+!+~+{+]+^+/+(+_+:+<+< [+C ",
"' }+|+1+2+3+4+5+6+7+8+9+0+a+b+c+d+e+f+g+",
"& h+i+j+k+l+m+n+o+p+q+r+s+u t+u+v+w+x+4 ",
"y+h+z+A+B+C+D+E+F+G+H+I+J+K+L+M+N+O+P+Q+",
"R+2 S+} T+U+V+W+X+Y+Z+`+ @.@+@4.@@#@$@%@",
"&@*@=@=@-@;@>@,@'@)@!@~@{@]@^@/@(@_@:@<@",
"[@}@|@1@2@3@4@5@6@7@8@9@0@a@b@c@d@2 e@f@",
"g@R+h@i@j@k@l@m@n@o@p@q@r@s@t@u@v@w@x@! ",
"y@%@z@A@B@} C@D@j@D@E@F@G@F@i+H@I@J@K@6 "};
