/* XPM */
static char * led_finished_xpm[] = {
"20 20 54 1",
" 	c None",
".	c #000000",
"+	c #131313",
"@	c #373737",
"#	c #4B4B4B",
"$	c #474747",
"%	c #383838",
"&	c #010101",
"*	c #232323",
"=	c #3C3C3C",
"-	c #424242",
";	c #434343",
">	c #3D3D3D",
",	c #212121",
"'	c #151515",
")	c #313131",
"!	c #333333",
"~	c #3E3E3E",
"{	c #2E2E2E",
"]	c #020202",
"^	c #272727",
"/	c #2A2A2A",
"(	c #3B3B3B",
"_	c #4D4D4D",
":	c #363636",
"<	c #353535",
"[	c #2C2C2C",
"}	c #222222",
"|	c #050505",
"1	c #2B2B2B",
"2	c #343434",
"3	c #2F2F2F",
"4	c #252525",
"5	c #303030",
"6	c #262626",
"7	c #070707",
"8	c #292929",
"9	c #2D2D2D",
"0	c #323232",
"a	c #030303",
"b	c #404040",
"c	c #3A3A3A",
"d	c #282828",
"e	c #202020",
"f	c #454545",
"g	c #464646",
"h	c #414141",
"i	c #1E1E1E",
"j	c #060606",
"k	c #494949",
"l	c #545454",
"m	c #4C4C4C",
"n	c #0E0E0E",
"o	c #101010",
"....................",
"....................",
"....................",
"....................",
".......+@#$%+.......",
".....&*=-##;>,&.....",
".....')!~~~@){+.....",
"....]^/(_@:~<[}&....",
"....|11{!2!)314.....",
"....|11[)25[1[6]....",
"....78190:09/16]....",
"....a/[{%bc![[d&....",
".....e[@f$gh29i.....",
".....j,%klm;3ej.....",
".......n*:),o.......",
"....................",
"....................",
"....................",
"....................",
"...................."};
