/* XPM */
static char * led_running_glow_xpm[] = {
"20 20 368 2",
"  	c None",
". 	c #050600",
"+ 	c #080C00",
"@ 	c #0F1700",
"# 	c #131B00",
"$ 	c #222D00",
"% 	c #343F00",
"& 	c #3C4A01",
"* 	c #4A5900",
"= 	c #4D5D00",
"- 	c #526200",
"; 	c #516100",
"> 	c #506000",
", 	c #415100",
"' 	c #354401",
") 	c #283500",
"! 	c #1C2500",
"~ 	c #111900",
"{ 	c #0E1500",
"] 	c #050500",
"^ 	c #060700",
"/ 	c #0A1200",
"( 	c #131E00",
"_ 	c #2C3500",
": 	c #364501",
"< 	c #4B5901",
"[ 	c #566800",
"} 	c #647A02",
"| 	c #738802",
"1 	c #6F8502",
"2 	c #6B8202",
"3 	c #5F7501",
"4 	c #526201",
"5 	c #3D4E01",
"6 	c #303F01",
"7 	c #1C2600",
"8 	c #121800",
"9 	c #070C00",
"0 	c #091100",
"a 	c #141C00",
"b 	c #232E00",
"c 	c #304401",
"d 	c #4B5B01",
"e 	c #5D7201",
"f 	c #738902",
"g 	c #809D03",
"h 	c #869F03",
"i 	c #849D03",
"j 	c #85A203",
"k 	c #82A104",
"l 	c #7D9803",
"m 	c #688402",
"n 	c #556A01",
"o 	c #355301",
"p 	c #2A3800",
"q 	c #192100",
"r 	c #0E1A00",
"s 	c #081000",
"t 	c #1F2900",
"u 	c #2B3B00",
"v 	c #415901",
"w 	c #567803",
"x 	c #709205",
"y 	c #86A604",
"z 	c #749003",
"A 	c #89A003",
"B 	c #BCC703",
"C 	c #B9CB08",
"D 	c #7A9904",
"E 	c #7D9E04",
"F 	c #80A305",
"G 	c #678502",
"H 	c #4F6C02",
"I 	c #3A5000",
"J 	c #283A01",
"K 	c #131A00",
"L 	c #151C00",
"M 	c #222E00",
"N 	c #374D01",
"O 	c #556A02",
"P 	c #6B8B03",
"Q 	c #7CA204",
"R 	c #79A305",
"S 	c #C5D807",
"T 	c #FFFD02",
"U 	c #FFFF00",
"V 	c #FFFC00",
"W 	c #E2ED08",
"X 	c #91BF0A",
"Y 	c #7A9B04",
"Z 	c #7B9C04",
"` 	c #628102",
" .	c #446001",
"..	c #2E4001",
"+.	c #162E00",
"@.	c #121700",
"#.	c #192600",
"$.	c #455A00",
"%.	c #5C7C03",
"&.	c #749A05",
"*.	c #749907",
"=.	c #9CDD14",
"-.	c #C2EC10",
";.	c #E8F209",
">.	c #F1F506",
",.	c #E7F209",
"'.	c #D1ED0E",
").	c #B5EB12",
"!.	c #74BA0B",
"~.	c #759704",
"{.	c #6D9605",
"].	c #507102",
"^.	c #355401",
"/.	c #273000",
"(.	c #0C2200",
"_.	c #1B2900",
":.	c #324501",
"<.	c #4A6301",
"[.	c #668603",
"}.	c #719405",
"|.	c #6FBE0D",
"1.	c #91E113",
"2.	c #ABE718",
"3.	c #C9ED1A",
"4.	c #C7EC10",
"5.	c #C2EB0F",
"6.	c #C7EC11",
"7.	c #9FE412",
"8.	c #8BDE13",
"9.	c #6A9C05",
"0.	c #7AA206",
"a.	c #5B8103",
"b.	c #445A01",
"c.	c #244201",
"d.	c #172000",
"e.	c #252D00",
"f.	c #334B01",
"g.	c #567001",
"h.	c #6A9107",
"i.	c #648705",
"j.	c #7FCA0F",
"k.	c #93D311",
"l.	c #B2E91E",
"m.	c #D4F138",
"n.	c #BDEB11",
"o.	c #B5E811",
"p.	c #D4EF11",
"q.	c #A0E112",
"r.	c #97DC13",
"s.	c #76B20A",
"t.	c #80AB07",
"u.	c #658D04",
"v.	c #324901",
"w.	c #1D2400",
"x.	c #243100",
"y.	c #3C5101",
"z.	c #546F03",
"A.	c #709204",
"B.	c #698E05",
"C.	c #90B60C",
"D.	c #7EC610",
"E.	c #7ED612",
"F.	c #92DE11",
"G.	c #A1E513",
"H.	c #A8E511",
"I.	c #A1E312",
"J.	c #93DC13",
"K.	c #95D311",
"L.	c #71AB09",
"M.	c #6F9504",
"N.	c #527003",
"O.	c #325001",
"P.	c #232D00",
"Q.	c #283600",
"R.	c #587604",
"S.	c #709107",
"T.	c #648305",
"U.	c #BAA608",
"V.	c #8BBA0D",
"W.	c #7FD213",
"X.	c #92DE13",
"Y.	c #A3E613",
"Z.	c #A9E711",
"`.	c #A7E312",
" +	c #9BDE13",
".+	c #78AB0A",
"++	c #749C05",
"@+	c #527803",
"#+	c #3C5501",
"$+	c #233400",
"%+	c #3C5601",
"&+	c #596F03",
"*+	c #5F7D04",
"=+	c #E99608",
"-+	c #A8B20D",
";+	c #7DD113",
">+	c #A6E212",
",+	c #C5EA0F",
"'+	c #CBEC0F",
")+	c #C7EB0F",
"!+	c #B4E811",
"~+	c #C3E20F",
"{+	c #92B209",
"]+	c #749D05",
"^+	c #577A03",
"/+	c #3B5501",
"(+	c #153901",
"_+	c #213700",
":+	c #546B03",
"<+	c #476402",
"[+	c #B39E0B",
"}+	c #94B70F",
"|+	c #93D913",
"1+	c #C4EB0F",
"2+	c #EAF309",
"3+	c #F5F604",
"4+	c #E0F00B",
"5+	c #E5F008",
"6+	c #9BB708",
"7+	c #74A006",
"8+	c #425A01",
"9+	c #263200",
"0+	c #596803",
"a+	c #5B8D07",
"b+	c #596503",
"c+	c #6A9506",
"d+	c #73BB0E",
"e+	c #AFE611",
"f+	c #F2F605",
"g+	c #FFFC1E",
"h+	c #FFFD42",
"i+	c #FFFD34",
"j+	c #FFF901",
"k+	c #CBED10",
"l+	c #7AA80B",
"m+	c #7CA907",
"n+	c #6C9B06",
"o+	c #537802",
"p+	c #3E5901",
"q+	c #1E3901",
"r+	c #203400",
"s+	c #516903",
"t+	c #5D8E07",
"u+	c #5C6202",
"v+	c #738605",
"w+	c #5E9808",
"x+	c #8FD813",
"y+	c #F6F70E",
"z+	c #FFFFB7",
"A+	c #FFFFC8",
"B+	c #FFFE83",
"C+	c #E1EE0A",
"D+	c #79C20F",
"E+	c #619A07",
"F+	c #669706",
"G+	c #417804",
"H+	c #365301",
"I+	c #213200",
"J+	c #486803",
"K+	c #4E8007",
"L+	c #577B04",
"M+	c #6F8A05",
"N+	c #4D8005",
"O+	c #2E8C07",
"P+	c #5FAB0B",
"Q+	c #A2CF0C",
"R+	c #A7DC14",
"S+	c #73BF09",
"T+	c #3EA30A",
"U+	c #479B09",
"V+	c #61AB0B",
"W+	c #3F7E04",
"X+	c #5B9005",
"Y+	c #417403",
"Z+	c #2C4F01",
"`+	c #153801",
" @	c #1C2900",
".@	c #264B01",
"+@	c #396302",
"@@	c #417004",
"#@	c #697404",
"$@	c #57A20A",
"%@	c #4A9E0A",
"&@	c #31940A",
"*@	c #399708",
"=@	c #4EBF11",
"-@	c #26A30B",
";@	c #2CA60B",
">@	c #38B30E",
",@	c #4EBB0F",
"'@	c #5F7B04",
")@	c #487803",
"!@	c #416F03",
"~@	c #2E4500",
"{@	c #173901",
"]@	c #152700",
"^@	c #234001",
"/@	c #2F5B02",
"(@	c #427004",
"_@	c #757604",
":@	c #6A990B",
"<@	c #3CAE0F",
"[@	c #3CB511",
"}@	c #2CAD10",
"|@	c #56C114",
"1@	c #49C915",
"2@	c #1EBA10",
"3@	c #25BC11",
"4@	c #1CB40F",
"5@	c #62BA0E",
"6@	c #538105",
"7@	c #3C7103",
"8@	c #306303",
"9@	c #1D4501",
"0@	c #112800",
"a@	c #0F1E00",
"b@	c #2B4B01",
"c@	c #256904",
"d@	c #1C7F06",
"e@	c #08B710",
"f@	c #0FAE0D",
"g@	c #25A90E",
"h@	c #1FA30D",
"i@	c #52CF17",
"j@	c #12B610",
"k@	c #16B910",
"l@	c #17C512",
"m@	c #01BA10",
"n@	c #287004",
"o@	c #2D7104",
"p@	c #235402",
"q@	c #194101",
"r@	c #0C2400",
"s@	c #101F00",
"t@	c #173401",
"u@	c #1E4300",
"v@	c #2C5701",
"w@	c #2C6203",
"x@	c #228206",
"y@	c #20A00B",
"z@	c #1CAF0D",
"A@	c #1DA80C",
"B@	c #57B814",
"C@	c #4EB912",
"D@	c #1CAA0D",
"E@	c #18AD0E",
"F@	c #1C9309",
"G@	c #297804",
"H@	c #2D7004",
"I@	c #2A6002",
"J@	c #194300",
"K@	c #143100",
"L@	c #0B1F00",
"M@	c #091900",
"N@	c #1B4901",
"O@	c #246103",
"P@	c #317004",
"Q@	c #307A05",
"R@	c #387F06",
"S@	c #318706",
"T@	c #4D7B0A",
"U@	c #427C07",
"V@	c #338607",
"W@	c #317A05",
"X@	c #2C7504",
"Y@	c #1B4E01",
"Z@	c #0A1D00",
"`@	c #0A1A00",
". + @ # $ % & * = - ; > , ' ) ! ~ { ] ^ ",
"+ / ( _ : < [ } | | 1 2 3 4 5 6 7 8 9 ^ ",
"0 a b c d e f g h i j k l m n o p q r ] ",
"s t u v w x y z A B C D E F G H I J K 8 ",
"L M N O P Q R S T U V W X Y Z `  ...+.@.",
"#.J $.%.&.*.=.-.;.>.,.'.).!.~.{.].^./.(.",
"_.:.<.[.}.|.1.2.3.4.5.6.7.8.9.0.a.b.c.d.",
"e.f.g.h.i.j.k.l.m.n.o.p.q.r.s.t.u.H v.w.",
"x.y.z.A.B.C.D.E.F.G.H.I.J.K.L.t.M.N.O.P.",
"Q.y.R.S.T.U.V.W.X.Y.Z.`. +r..+t.++@+#+P.",
"$+%+&+S.*+=+-+;+>+,+'+)+!+~+{+t.]+^+/+(+",
"_+y.:+S.<+[+}+|+1+2+3+>.4+5+6+t.7+@+8+J ",
"9+y.0+a+b+c+d+e+f+g+h+i+j+k+l+m+n+o+p+q+",
"r+f.s+t+u+v+w+x+y+z+A+B+C+D+E+*.F+G+H+J ",
"I+f.J+K+L+M+N+O+P+Q+R+S+T+U+V+W+X+Y+Z+`+",
" @.@+@@@#@$@%@&@*@$@=@-@;@>@,@'@)@!@~@{@",
"]@^@/@(@_@:@<@[@}@|@1@2@3@4@5@6@7@8@9@0@",
"a@{@b@c@d@e@f@g@h@W.i@j@k@l@m@n@o@p@q@r@",
"s@t@u@v@w@x@y@z@A@B@C@D@E@F@G@H@I@J@K@L@",
"M@(.+.N@O@P@Q@R@S@T@U@V@V@W@X@c@Y@{@Z@`@"};
