/* XPM */
static char *led_finished[] = {
/* columns rows colors chars-per-pixel */
"30 30 178 2",
"   c #000200030003",
".  c #004900930093",
"X  c #00A001370137",
"o  c #011C02170217",
"O  c #016302AE02AE",
"+  c #01B0032C032C",
"@  c #021303EC03EC",
"#  c #028804720472",
"$  c #026B04F404F4",
"%  c #02C2052F052F",
"&  c #02FE06090609",
"*  c #036006E006E0",
"=  c #03D5074C074C",
"-  c #041B08060806",
";  c #045E08D008D0",
":  c #04CB093B093B",
">  c #053409FC09FC",
",  c #056D0A910A91",
"<  c #05F70AF20AF2",
"1  c #07430DDF0DDF",
"2  c #07BF0E4C0E4C",
"3  c #07BF0F060F06",
"4  c #086B0FFA0FFA",
"5  c #08E0101F101F",
"6  c #091510F110F1",
"7  c #0AE013EF13EF",
"8  c #0C1016251625",
"9  c #0E281A321A32",
"0  c #0E331AD81AD8",
"q  c #0EF41B8B1B8B",
"w  c #0F231C2E1C2E",
"e  c #0F7D1CF61CF6",
"r  c #0FE11DFF1DFF",
"t  c #10DF1F0E1F0E",
"y  c #119120142014",
"u  c #11A220512051",
"i  c #125322002200",
"p  c #13C424702470",
"a  c #13F125382538",
"s  c #157D27622762",
"d  c #156327EB27EB",
"f  c #161729422942",
"g  c #16DA2A322A32",
"h  c #16C92AB52AB5",
"j  c #17EE2C142C14",
"k  c #187D2DD32DD3",
"l  c #19EF30873087",
"z  c #1A7230FA30FA",
"x  c #1B0731DA31DA",
"c  c #1B9B32D832D8",
"v  c #1C0A336A336A",
"b  c #1C9135213521",
"n  c #1CAB34CC34CC",
"m  c #1D1E36243624",
"M  c #1DA536893689",
"N  c #1DB936CF36CF",
"B  c #1E3938343834",
"V  c #1EA338AA38AA",
"C  c #1F1D39C839C8",
"Z  c #1FEB3AE93AE9",
"A  c #215C3D803D80",
"S  c #21C83E643E64",
"D  c #22863FD23FD2",
"F  c #231540C040C0",
"G  c #2334412D412D",
"H  c #238D41E841E8",
"J  c #23F6425C425C",
"K  c #244443404340",
"L  c #24EF44464446",
"P  c #257D45D545D5",
"I  c #25F3462D462D",
"U  c #269A47624762",
"Y  c #26B247594759",
"T  c #271648424842",
"R  c #275B48FE48FE",
"E  c #27C349264926",
"W  c #28024A024A02",
"Q  c #28934B3A4B3A",
"!  c #29064C444C44",
"~  c #29B94D294D29",
"^  c #2A974F0A4F0A",
"/  c #2B104F6C4F6C",
"(  c #2BA350B750B7",
")  c #2C7451FA51FA",
"_  c #2CBD52AC52AC",
"`  c #2CFF530E530E",
"'  c #2DEE54A954A9",
"]  c #2E34557A557A",
"[  c #2EA2562E562E",
"{  c #2EED56695669",
"}  c #2F8657B957B9",
"|  c #303858BB58BB",
" . c #303959675967",
".. c #31065A1C5A1C",
"X. c #31565B3C5B3C",
"o. c #31F65C6F5C6F",
"O. c #325D5D2D5D2D",
"+. c #32F55D685D68",
"@. c #32975E035E03",
"#. c #33185E715E71",
"$. c #33645F595F59",
"%. c #33C85EAE5EAE",
"&. c #33F75FAF5FAF",
"*. c #339060166016",
"=. c #341060586058",
"-. c #347361496149",
";. c #34E561C561C5",
":. c #34B062096209",
">. c #354C627D627D",
",. c #3596632D632D",
"<. c #35F563776377",
"1. c #364464366436",
"2. c #366B64E864E8",
"3. c #36FA65686568",
"4. c #3761665F665F",
"5. c #381067696769",
"6. c #3861681E681E",
"7. c #3909693E693E",
"8. c #39966A6F6A6F",
"9. c #39A26AEF6AEF",
"0. c #39E76A7F6A7F",
"q. c #3AE06C586C58",
"w. c #3B5F6D896D89",
"e. c #3B8E6E256E25",
"r. c #3BDF6E8A6E8A",
"t. c #3C2F6F466F46",
"y. c #3C8A701F701F",
"u. c #3D0170937093",
"i. c #3D8871967196",
"p. c #3E2672657265",
"a. c #3E87734D734D",
"s. c #3EEA73DB73DB",
"d. c #3F5574A074A0",
"f. c #3FA475407540",
"g. c #403F76567656",
"h. c #4107778D778D",
"j. c #4167785D785D",
"k. c #41B4791A791A",
"l. c #41FC79057905",
"z. c #42647A407A40",
"x. c #431D7B8C7B8C",
"c. c #43547CA27CA2",
"v. c #440F7CCF7CCF",
"b. c #43F37D977D97",
"n. c #44CE7E887E88",
"m. c #45447FDC7FDC",
"M. c #45B7802E802E",
"N. c #461880848084",
"B. c #46AB81ED81ED",
"V. c #475583F883F8",
"C. c #478E846A846A",
"Z. c #47E083078307",
"A. c #483B849B849B",
"S. c #491784CA84CA",
"D. c #48AF85A085A0",
"F. c #4A3785678567",
"G. c #493C86D086D0",
"H. c #49F087E787E7",
"J. c #4B5A87A287A2",
"K. c #49D0884B884B",
"L. c #4AFD89F289F2",
"P. c #4B448AA48AA4",
"I. c #4BB38B8E8B8E",
"U. c #4C0A89CA89CA",
"Y. c #4C438C058C05",
"T. c #4C6D8CC48CC4",
"R. c #4D4E8DB48DB4",
"E. c #4D678E5E8E5E",
"W. c #4E4B8F9F8F9F",
"Q. c #4E2E90409040",
"!. c #4F4490109010",
"~. c #4EF291139113",
"^. c #4F85928B928B",
"/. c #4FDB93409340",
"(. c #509F94949494",
"). c #58029AF79AF7",
"_. c #59309C8D9C8D",
"`. c #593F9F2B9F2B",
/* pixels */
"                                                            ",
"                                                            ",
"                                                            ",
"                                                            ",
"          . o o O O @ # & = - * % @ + O o o o o             ",
"          X & * * ; < 3 w l G J m u 5 : = * & $ .           ",
"          o % * ; > 7 V 3.D.Y.H.P.k./ i , ; = $ .           ",
"          o & - ; 8 R g.I.(./.E.(.^.A.<.h , - & .           ",
"          O = ; 4 L t.x.V.L.Q.^.E.H.m.g.o.t - & .           ",
"          o = : k 1.e.p.j.n.A.G.B.z.a.r.0.T 2 & .           ",
"          O - 6 ~ 3.5.u.U.Z.x.v.j.h.i.4.2.=.i & .           ",
"          O = e o.:.>.z.`.S.f.g.s.N.n.3.<.3.M % .           ",
"          O * a &.>.:.7.l.p.p.a.t.d.f.4.>.<.H * .           ",
"          O = f =.,.:.1.7.e.u.u.q.4.>.,.,.<.I : .           ",
"          O = g &.<.>.<.7.w.t.r.8.<.:.,.,.<.U : .           ",
"          + - f #.<.>.2.9.t.i.u.9.1.;.>.>.,.U : .           ",
"          O - f #.<.,.5.t.s.g.d.r.4.>.>.,.1.T : .           ",
"          o = d #.,.,.0.d.c.m.b.g.w.4.>.,.4.Y : .           ",
"          O = p o.,.3.i.M.L.T.P.C.z.y.6.1.3.F - .           ",
"          O - t ) ;.6.z.T.~.E.R.W.I.c.q.<.#.B - .           ",
"          O = q K _ =.h.R.!._.).R.K.a.:.[ / b - .           ",
"          o 2 z A S I } w.v.J.F.f.6.@.) T T J w .           ",
"          o q ! D B M Z E O.-.=.$. ./ Y K P ` n o           ",
"          o 9 ^ ( F B N S [ X.X.@.[ ~ T E ) X.v o           ",
"          o 0 Q [  ._ ` ` X.#.$.-.$.+.X...| { x o           ",
"          X r ] ] ] ) { ;.<.,.;.;.,.<.@.[ { O.m o           ",
"          X 7 ^ ;.+.' / o.,.>.-.=.-.*.O.O.>.%.s .           ",
"          o * t W #.-.O.:.4.,.-.-.<.<.1.,.{ c :             ",
"          X # % 1 w f C T { O.+.+.{ ^ H j 8 : o             ",
"                      X @ 6 t y y 7 > @ O o o .             "
};
