/* XPM */
static char * led_empty_xpm[] = {
"30 30 80 1",
" 	c None",
".	c #000000",
"+	c #000202",
"@	c #020808",
"#	c #040E0E",
"$	c #040F0F",
"%	c #020B0B",
"&	c #010404",
"*	c #0A1D1D",
"=	c #112A2A",
"-	c #112E2E",
";	c #112C2C",
">	c #0D2626",
",	c #051414",
"'	c #010505",
")	c #041111",
"!	c #0C2424",
"~	c #143131",
"{	c #122F2F",
"]	c #133131",
"^	c #102A2A",
"/	c #081D1D",
"(	c #041010",
"_	c #0B2121",
":	c #0E2727",
"<	c #133030",
"[	c #0E2828",
"}	c #061919",
"|	c #020909",
"1	c #081C1C",
"2	c #0B2323",
"3	c #0D2525",
"4	c #102B2B",
"5	c #0F2929",
"6	c #091F1F",
"7	c #051313",
"8	c #081E1E",
"9	c #0B2222",
"0	c #112D2D",
"a	c #071A1A",
"b	c #081B1B",
"c	c #183636",
"d	c #0E2929",
"e	c #091E1E",
"f	c #031010",
"g	c #071B1B",
"h	c #0A2020",
"i	c #020F0F",
"j	c #000303",
"k	c #041414",
"l	c #122E2E",
"m	c #010B0B",
"n	c #010E0E",
"o	c #183535",
"p	c #173434",
"q	c #051616",
"r	c #031313",
"s	c #000A0A",
"t	c #000808",
"u	c #000B0B",
"v	c #051717",
"w	c #021010",
"x	c #021111",
"y	c #000C0C",
"z	c #051818",
"A	c #000E0E",
"B	c #010F0F",
"C	c #020A0A",
"D	c #041313",
"E	c #010C0C",
"F	c #061818",
"G	c #021212",
"H	c #051515",
"I	c #000404",
"J	c #020707",
"K	c #061616",
"L	c #020D0D",
"M	c #071818",
"N	c #000606",
"O	c #010707",
"..............................",
"..............................",
"..............................",
"..............................",
"..............................",
"............+@#$%&............",
"..........+%*=-;->,'..........",
".........+)!-~~{~]^/@.........",
".........(_:^-<]{;[!}&........",
"........|1_23[^45>2_6)........",
".......+7/890^::3398/a'.......",
".......'}bb>c=!!2d[/b/%.......",
".......'abbe>222_!!/bbf.......",
".......'gbb1e_99h8bbbb).......",
".......'a1b1e___61bbbb).......",
".......'a1b/6_9_61bbbb).......",
".......'a1b8_2!!_8bbb1).......",
".......'}bb6!:[:!_8bb/).......",
".......'}b/9d0--^>_e1/i.......",
".......jkbe>l<{l{-:h1am.......",
".......+nkg3{<opl;2bqrs.......",
".......tuuiv_:;=!eakwwnj......",
"......jxyttsw}baazrwABkC......",
"......+DkEttyqFFaqGwwkF|......",
"......+xqzkkHFaaga}Fzzq@......",
"......Iqqqkqb1bbbb1aqq}C......",
"......+7b}Hr}bbbgba}}baJ......",
".......&)ag}b8bgbbb1bK%.......",
".........'@L7M}}}K,f@j........",
".............+NOO+............"};
