<?xml version="1.0" encoding="UTF-8" standalone="no"?>
<!DOCTYPE svg PUBLIC "-//W3C//DTD SVG 1.1//EN"
 "http://www.w3.org/Graphics/SVG/1.1/DTD/svg11.dtd">
<!-- Generated by graphviz version 2.30.1 (20140110.0959)
 -->
<!-- Title: %3 Pages: 1 -->
<svg width="178pt" height="513pt"
 viewBox="0.00 0.00 178.00 513.00" xmlns="http://www.w3.org/2000/svg" xmlns:xlink="http://www.w3.org/1999/xlink">
<g id="graph0" class="graph" transform="scale(1 1) rotate(0) translate(4 509)">
<title>%3</title>
<polygon fill="white" stroke="white" points="-4,5 -4,-509 175,-509 175,5 -4,5"/>
<!-- count_the_aeons.+012000000000228T0530Z -->
<g id="node1" class="node"><title>count_the_aeons.+012000000000228T0530Z</title>
<g id="a_node1"><a xlink:href="count_the_aeons.+012000000000228T0530Z" xlink:title="count_the_aeons\n+012000000000228T0530Z">
<polygon fill="slategray" stroke="black" points="170,-209 0,-209 0,-171 170,-171 170,-209"/>
<text text-anchor="middle" x="85" y="-193.8" font-family="courier" font-weight="bold" font-size="12.00" fill="white">count_the_aeons</text>
<text text-anchor="middle" x="85" y="-178.8" font-family="courier" font-weight="bold" font-size="12.00" fill="white">+012000000000228T0530Z</text>
</a>
</g>
</g>
<!-- count_the_aeons.+062000000000228T0530Z -->
<g id="node2" class="node"><title>count_the_aeons.+062000000000228T0530Z</title>
<g id="a_node2"><a xlink:href="count_the_aeons.+062000000000228T0530Z" xlink:title="count_the_aeons\n+062000000000228T0530Z">
<polygon fill="slategray" stroke="black" points="170,-135 0,-135 0,-97 170,-97 170,-135"/>
<text text-anchor="middle" x="85" y="-119.8" font-family="courier" font-weight="bold" font-size="12.00" fill="white">count_the_aeons</text>
<text text-anchor="middle" x="85" y="-104.8" font-family="courier" font-weight="bold" font-size="12.00" fill="white">+062000000000228T0530Z</text>
</a>
</g>
</g>
<!-- count_the_aeons.+012000000000228T0530Z&#45;&gt;count_the_aeons.+062000000000228T0530Z -->
<g id="edge1" class="edge"><title>count_the_aeons.+012000000000228T0530Z&#45;&gt;count_the_aeons.+062000000000228T0530Z</title>
<path fill="none" stroke="slategray" stroke-width="2" d="M85,-170.831C85,-163.131 85,-153.974 85,-145.417"/>
<polygon fill="slategray" stroke="slategray" points="88.5001,-145.413 85,-135.413 81.5001,-145.413 88.5001,-145.413"/>
</g>
<!-- sun_red_giant.+062000000000228T0530Z -->
<g id="node3" class="node"><title>sun_red_giant.+062000000000228T0530Z</title>
<g id="a_node3"><a xlink:href="sun_red_giant.+062000000000228T0530Z" xlink:title="sun_red_giant\n+062000000000228T0530Z">
<polygon fill="#fb1c75" stroke="black" points="170,-61 0,-61 0,-23 170,-23 170,-61"/>
<text text-anchor="middle" x="85" y="-45.8" font-family="courier" font-weight="bold" font-size="12.00" fill="white">sun_red_giant</text>
<text text-anchor="middle" x="85" y="-30.8" font-family="courier" font-weight="bold" font-size="12.00" fill="white">+062000000000228T0530Z</text>
</a>
</g>
</g>
<!-- count_the_aeons.+062000000000228T0530Z&#45;&gt;sun_red_giant.+062000000000228T0530Z -->
<g id="edge2" class="edge"><title>count_the_aeons.+062000000000228T0530Z&#45;&gt;sun_red_giant.+062000000000228T0530Z</title>
<path fill="none" stroke="slategray" stroke-width="2" d="M85,-96.8314C85,-89.131 85,-79.9743 85,-71.4166"/>
<polygon fill="slategray" stroke="slategray" points="88.5001,-71.4132 85,-61.4133 81.5001,-71.4133 88.5001,-71.4132"/>
</g>
<!-- count_the_aeons.&#45;038000000000228T0530Z -->
<g id="node4" class="node"><title>count_the_aeons.&#45;038000000000228T0530Z</title>
<g id="a_node4"><a xlink:href="count_the_aeons.-038000000000228T0530Z" xlink:title="count_the_aeons\n&#45;038000000000228T0530Z">
<polygon fill="slategray" stroke="black" points="168,-283 2,-283 2,-245 168,-245 168,-283"/>
<text text-anchor="middle" x="85" y="-267.8" font-family="courier" font-weight="bold" font-size="12.00" fill="white">count_the_aeons</text>
<text text-anchor="middle" x="85" y="-252.8" font-family="courier" font-weight="bold" font-size="12.00" fill="white">&#45;038000000000228T0530Z</text>
</a>
</g>
</g>
<!-- count_the_aeons.&#45;038000000000228T0530Z&#45;&gt;count_the_aeons.+012000000000228T0530Z -->
<g id="edge3" class="edge"><title>count_the_aeons.&#45;038000000000228T0530Z&#45;&gt;count_the_aeons.+012000000000228T0530Z</title>
<path fill="none" stroke="slategray" stroke-width="2" d="M85,-244.831C85,-237.131 85,-227.974 85,-219.417"/>
<polygon fill="slategray" stroke="slategray" points="88.5001,-219.413 85,-209.413 81.5001,-219.413 88.5001,-219.413"/>
</g>
<!-- count_the_aeons.&#45;088000000000228T0530Z -->
<g id="node5" class="node"><title>count_the_aeons.&#45;088000000000228T0530Z</title>
<g id="a_node5"><a xlink:href="count_the_aeons.-088000000000228T0530Z" xlink:title="count_the_aeons\n&#45;088000000000228T0530Z">
<polygon fill="slategray" stroke="black" points="168,-357 2,-357 2,-319 168,-319 168,-357"/>
<text text-anchor="middle" x="85" y="-341.8" font-family="courier" font-weight="bold" font-size="12.00" fill="white">count_the_aeons</text>
<text text-anchor="middle" x="85" y="-326.8" font-family="courier" font-weight="bold" font-size="12.00" fill="white">&#45;088000000000228T0530Z</text>
</a>
</g>
</g>
<!-- count_the_aeons.&#45;088000000000228T0530Z&#45;&gt;count_the_aeons.&#45;038000000000228T0530Z -->
<g id="edge4" class="edge"><title>count_the_aeons.&#45;088000000000228T0530Z&#45;&gt;count_the_aeons.&#45;038000000000228T0530Z</title>
<path fill="none" stroke="slategray" stroke-width="2" d="M85,-318.831C85,-311.131 85,-301.974 85,-293.417"/>
<polygon fill="slategray" stroke="slategray" points="88.5001,-293.413 85,-283.413 81.5001,-293.413 88.5001,-293.413"/>
</g>
<!-- count_the_aeons.&#45;138000000000228T0530Z -->
<g id="node6" class="node"><title>count_the_aeons.&#45;138000000000228T0530Z</title>
<g id="a_node6"><a xlink:href="count_the_aeons.-138000000000228T0530Z" xlink:title="count_the_aeons\n&#45;138000000000228T0530Z">
<polygon fill="slategray" stroke="black" points="168,-431 2,-431 2,-393 168,-393 168,-431"/>
<text text-anchor="middle" x="85" y="-415.8" font-family="courier" font-weight="bold" font-size="12.00" fill="white">count_the_aeons</text>
<text text-anchor="middle" x="85" y="-400.8" font-family="courier" font-weight="bold" font-size="12.00" fill="white">&#45;138000000000228T0530Z</text>
</a>
</g>
</g>
<!-- count_the_aeons.&#45;138000000000228T0530Z&#45;&gt;count_the_aeons.&#45;088000000000228T0530Z -->
<g id="edge5" class="edge"><title>count_the_aeons.&#45;138000000000228T0530Z&#45;&gt;count_the_aeons.&#45;088000000000228T0530Z</title>
<path fill="none" stroke="slategray" stroke-width="2" d="M85,-392.831C85,-385.131 85,-375.974 85,-367.417"/>
<polygon fill="slategray" stroke="slategray" points="88.5001,-367.413 85,-357.413 81.5001,-367.413 88.5001,-367.413"/>
</g>
<!-- the_big_bang.&#45;138000000000228T0530Z -->
<g id="node7" class="node"><title>the_big_bang.&#45;138000000000228T0530Z</title>
<g id="a_node7"><a xlink:href="the_big_bang.-138000000000228T0530Z" xlink:title="the_big_bang\n&#45;138000000000228T0530Z">
<polygon fill="#fb751c" stroke="black" points="168,-505 2,-505 2,-467 168,-467 168,-505"/>
<text text-anchor="middle" x="85" y="-489.8" font-family="courier" font-weight="bold" font-size="12.00" fill="white">the_big_bang</text>
<text text-anchor="middle" x="85" y="-474.8" font-family="courier" font-weight="bold" font-size="12.00" fill="white">&#45;138000000000228T0530Z</text>
</a>
</g>
</g>
<!-- the_big_bang.&#45;138000000000228T0530Z&#45;&gt;count_the_aeons.&#45;138000000000228T0530Z -->
<g id="edge6" class="edge"><title>the_big_bang.&#45;138000000000228T0530Z&#45;&gt;count_the_aeons.&#45;138000000000228T0530Z</title>
<path fill="none" stroke="#fb751c" stroke-width="2" d="M85,-466.831C85,-459.131 85,-449.974 85,-441.417"/>
<polygon fill="#fb751c" stroke="#fb751c" points="88.5001,-441.413 85,-431.413 81.5001,-441.413 88.5001,-441.413"/>
</g>
</g>
</svg>
