<?xml version="1.0" encoding="UTF-8" standalone="no"?>
<!-- Generated by graphviz version 2.36.0 (20140111.2315)
 -->

<!-- Title: %3 Pages: 1 -->

<svg
   xmlns:dc="http://purl.org/dc/elements/1.1/"
   xmlns:cc="http://creativecommons.org/ns#"
   xmlns:rdf="http://www.w3.org/1999/02/22-rdf-syntax-ns#"
   xmlns:svg="http://www.w3.org/2000/svg"
   xmlns="http://www.w3.org/2000/svg"
   xmlns:xlink="http://www.w3.org/1999/xlink"
   xmlns:sodipodi="http://sodipodi.sourceforge.net/DTD/sodipodi-0.dtd"
   xmlns:inkscape="http://www.inkscape.org/namespaces/inkscape"
   width="371.7832"
   height="344.47708"
   viewBox="0 0 297.42656 275.58167"
   id="svg2"
   version="1.1"
   inkscape:version="0.48.4 r9939"
   sodipodi:docname="cycling5.svg">
  <metadata
     id="metadata435">
    <rdf:RDF>
      <cc:Work
         rdf:about="">
        <dc:format>image/svg+xml</dc:format>
        <dc:type
           rdf:resource="http://purl.org/dc/dcmitype/StillImage" />
        <dc:title></dc:title>
      </cc:Work>
    </rdf:RDF>
  </metadata>
  <defs
     id="defs433" />
  <sodipodi:namedview
     pagecolor="#ffffff"
     bordercolor="#666666"
     borderopacity="1"
     objecttolerance="10"
     gridtolerance="10"
     guidetolerance="10"
     inkscape:pageopacity="0"
     inkscape:pageshadow="2"
     inkscape:window-width="785"
     inkscape:window-height="813"
     id="namedview431"
     showgrid="false"
     inkscape:zoom="0.95216783"
     inkscape:cx="243.58057"
     inkscape:cy="115.00076"
     inkscape:window-x="50"
     inkscape:window-y="49"
     inkscape:window-maximized="0"
     inkscape:current-layer="graph0"
     borderlayer="false"
     fit-margin-top="0"
     fit-margin-left="0"
     fit-margin-right="0"
     fit-margin-bottom="0" />
  <g
     id="graph0"
     class="graph"
     transform="translate(13.242068,537.08105)">
    <title
       id="title5">%3</title>
    <!-- bar.1 -->
    <g
       id="node1"
       class="node">
      <title
         id="title12">bar.1</title>
      <g
         id="a_node1">
        <a
           xlink:href="presentations/LISBON/etc/gfx/bar.1"
           xlink:title="bar\n1"
           id="a15">
          <ellipse
             cx="27"
             cy="-500"
             rx="27"
             ry="26.7407"
             id="ellipse17"
             d="m 54,-500 c 0,14.76848 -12.088312,26.7407 -27,26.7407 -14.911688,0 -27,-11.97222 -27,-26.7407 0,-14.76848 12.088312,-26.7407 27,-26.7407 14.911688,0 27,11.97222 27,26.7407 z"
             sodipodi:cx="27"
             sodipodi:cy="-500"
             sodipodi:rx="27"
             sodipodi:ry="26.7407"
             style="fill:#fffaf0;stroke:#000000;stroke-width:2" />
          <text
             x="27"
             y="-503.79999"
             font-size="14.00"
             id="text19"
             style="font-size:14px;text-anchor:middle;font-family:'Times,serif'">bar</text>
          <text
             x="27"
             y="-488.79999"
             font-size="14.00"
             id="text21"
             style="font-size:14px;text-anchor:middle;font-family:'Times,serif'">1</text>
        </a>
      </g>
    </g>
    <!-- baz.1 -->
    <g
       id="node2"
       class="node">
      <title
         id="title24">baz.1</title>
      <g
         id="a_node2">
        <a
           xlink:href="presentations/LISBON/etc/gfx/baz.1"
           xlink:title="baz\n1"
           id="a27">
          <ellipse
             cx="99"
             cy="-500"
             rx="27"
             ry="26.7407"
             id="ellipse29"
             d="m 126,-500 c 0,14.76848 -12.08831,26.7407 -27,26.7407 -14.911688,0 -27,-11.97222 -27,-26.7407 0,-14.76848 12.088312,-26.7407 27,-26.7407 14.91169,0 27,11.97222 27,26.7407 z"
             sodipodi:cx="99"
             sodipodi:cy="-500"
             sodipodi:rx="27"
             sodipodi:ry="26.7407"
             style="fill:#fffaf0;stroke:#000000;stroke-width:2" />
          <text
             x="99"
             y="-503.79999"
             font-size="14.00"
             id="text31"
             style="font-size:14px;text-anchor:middle;font-family:'Times,serif'">baz</text>
          <text
             x="99"
             y="-488.79999"
             font-size="14.00"
             id="text33"
             style="font-size:14px;text-anchor:middle;font-family:'Times,serif'">1</text>
        </a>
      </g>
    </g>
    <!-- bar.2 -->
    <g
       id="node3"
       class="node">
      <title
         id="title36">bar.2</title>
      <g
         id="a_node3">
        <a
           xlink:href="presentations/LISBON/etc/gfx/bar.2"
           xlink:title="bar\n2"
           id="a39">
          <ellipse
             cx="99"
             cy="-410"
             rx="27"
             ry="26.7407"
             id="ellipse41"
             d="m 126,-410 c 0,14.76848 -12.08831,26.7407 -27,26.7407 -14.911688,0 -27,-11.97222 -27,-26.7407 0,-14.76848 12.088312,-26.7407 27,-26.7407 14.91169,0 27,11.97222 27,26.7407 z"
             style="fill:#afeeee;stroke:#000000;stroke-width:2"
             sodipodi:cx="99"
             sodipodi:cy="-410"
             sodipodi:rx="27"
             sodipodi:ry="26.7407" />
          <text
             x="99"
             y="-413.79999"
             font-size="14.00"
             id="text43"
             style="font-size:14px;text-anchor:middle;font-family:'Times,serif'">bar</text>
          <text
             x="99"
             y="-398.79999"
             font-size="14.00"
             id="text45"
             style="font-size:14px;text-anchor:middle;font-family:'Times,serif'">2</text>
        </a>
      </g>
    </g>
    <!-- baz.1&#45;&gt;bar.2 -->
    <g
       id="edge1"
       class="edge">
      <title
         id="title48">baz.1-&gt;bar.2</title>
      <path
         d="m 99,-473.073 c 0,8.074 0,17.13 0,25.777"
         id="path50"
         inkscape:connector-curvature="0"
         style="fill:none;stroke:#000000;stroke-width:2" />
      <polygon
         points="102.5,-447.046 102.5,-447.046 99,-437.046 95.5001,-447.046 "
         id="polygon52"
         style="fill:#000000;stroke:#000000;stroke-width:2" />
    </g>
    <!-- qux.1 -->
    <g
       id="node4"
       class="node">
      <title
         id="title55">qux.1</title>
      <g
         id="a_node4">
        <a
           xlink:href="presentations/LISBON/etc/gfx/qux.1"
           xlink:title="qux\n1"
           id="a58">
          <ellipse
             cx="27"
             cy="-410"
             rx="27"
             ry="26.7407"
             id="ellipse60"
             d="m 54,-410 c 0,14.76848 -12.088312,26.7407 -27,26.7407 -14.911688,0 -27,-11.97222 -27,-26.7407 0,-14.76848 12.088312,-26.7407 27,-26.7407 14.911688,0 27,11.97222 27,26.7407 z"
             sodipodi:cx="27"
             sodipodi:cy="-410"
             sodipodi:rx="27"
             sodipodi:ry="26.7407"
             style="fill:#fffaf0;stroke:#000000;stroke-width:2" />
          <text
             x="27"
             y="-413.79999"
             font-size="14.00"
             id="text62"
             style="font-size:14px;text-anchor:middle;font-family:'Times,serif'">qux</text>
          <text
             x="27"
             y="-398.79999"
             font-size="14.00"
             id="text64"
             style="font-size:14px;text-anchor:middle;font-family:'Times,serif'">1</text>
        </a>
      </g>
    </g>
    <!-- baz.1&#45;&gt;qux.1 -->
    <g
       id="edge2"
       class="edge">
      <title
         id="title67">baz.1-&gt;qux.1</title>
      <path
         d="m 82.3008,-478.59 c -9.5417,11.662 -21.6517,26.463 -32.1054,39.24"
         id="path69"
         inkscape:connector-curvature="0"
         style="fill:none;stroke:#000000;stroke-width:2" />
      <polygon
         points="52.6499,-436.823 52.6499,-436.823 43.6087,-431.299 47.2322,-441.255 "
         id="polygon71"
         style="fill:#000000;stroke:#000000;stroke-width:2" />
    </g>
    <!-- baz.2 -->
    <g
       id="node5"
       class="node">
      <title
         id="title74">baz.2</title>
      <g
         id="a_node5">
        <a
           xlink:href="presentations/LISBON/etc/gfx/baz.2"
           xlink:title="baz\n2"
           id="a77">
          <ellipse
             cx="171"
             cy="-410"
             rx="27"
             ry="26.7407"
             id="ellipse79"
             d="m 198,-410 c 0,14.76848 -12.08831,26.7407 -27,26.7407 -14.91169,0 -27,-11.97222 -27,-26.7407 0,-14.76848 12.08831,-26.7407 27,-26.7407 14.91169,0 27,11.97222 27,26.7407 z"
             style="fill:#afeeee;stroke:#000000;stroke-width:2"
             sodipodi:cx="171"
             sodipodi:cy="-410"
             sodipodi:rx="27"
             sodipodi:ry="26.7407" />
          <text
             x="171"
             y="-413.79999"
             font-size="14.00"
             id="text81"
             style="font-size:14px;text-anchor:middle;font-family:'Times,serif'">baz</text>
          <text
             x="171"
             y="-398.79999"
             font-size="14.00"
             id="text83"
             style="font-size:14px;text-anchor:middle;font-family:'Times,serif'">2</text>
        </a>
      </g>
    </g>
    <!-- bar.3 -->
    <g
       id="node6"
       class="node">
      <title
         id="title86">bar.3</title>
      <g
         id="a_node6">
        <a
           xlink:href="presentations/LISBON/etc/gfx/bar.3"
           xlink:title="bar\n3"
           id="a89">
          <ellipse
             cx="171"
             cy="-320"
             rx="27"
             ry="26.7407"
             id="ellipse91"
             d="m 198,-320 c 0,14.76848 -12.08831,26.7407 -27,26.7407 -14.91169,0 -27,-11.97222 -27,-26.7407 0,-14.76848 12.08831,-26.7407 27,-26.7407 14.91169,0 27,11.97222 27,26.7407 z"
             sodipodi:cx="171"
             sodipodi:cy="-320"
             sodipodi:rx="27"
             sodipodi:ry="26.7407"
             style="fill:#fffaf0;stroke:#000000;stroke-width:2" />
          <text
             x="171"
             y="-323.79999"
             font-size="14.00"
             id="text93"
             style="font-size:14px;text-anchor:middle;font-family:'Times,serif'">bar</text>
          <text
             x="171"
             y="-308.79999"
             font-size="14.00"
             id="text95"
             style="font-size:14px;text-anchor:middle;font-family:'Times,serif'">3</text>
        </a>
      </g>
    </g>
    <!-- baz.2&#45;&gt;bar.3 -->
    <g
       id="edge3"
       class="edge">
      <title
         id="title98">baz.2-&gt;bar.3</title>
      <path
         d="m 171,-383.073 c 0,8.074 0,17.13 0,25.777"
         id="path100"
         inkscape:connector-curvature="0"
         style="fill:none;stroke:#000000;stroke-width:2" />
      <polygon
         points="174.5,-357.046 174.5,-357.046 171,-347.046 167.5,-357.046 "
         id="polygon102"
         style="fill:#000000;stroke:#000000;stroke-width:2" />
    </g>
    <!-- qux.2 -->
    <g
       id="node7"
       class="node">
      <title
         id="title105">qux.2</title>
      <g
         id="a_node7">
        <a
           xlink:href="presentations/LISBON/etc/gfx/qux.2"
           xlink:title="qux\n2"
           id="a108">
          <ellipse
             cx="99"
             cy="-320"
             rx="27"
             ry="26.7407"
             id="ellipse110"
             d="m 126,-320 c 0,14.76848 -12.08831,26.7407 -27,26.7407 -14.911688,0 -27,-11.97222 -27,-26.7407 0,-14.76848 12.088312,-26.7407 27,-26.7407 14.91169,0 27,11.97222 27,26.7407 z"
             style="fill:#afeeee;stroke:#000000;stroke-width:2"
             sodipodi:cx="99"
             sodipodi:cy="-320"
             sodipodi:rx="27"
             sodipodi:ry="26.7407" />
          <text
             x="99"
             y="-323.79999"
             font-size="14.00"
             id="text112"
             style="font-size:14px;text-anchor:middle;font-family:'Times,serif'">qux</text>
          <text
             x="99"
             y="-308.79999"
             font-size="14.00"
             id="text114"
             style="font-size:14px;text-anchor:middle;font-family:'Times,serif'">2</text>
        </a>
      </g>
    </g>
    <!-- baz.2&#45;&gt;qux.2 -->
    <g
       id="edge4"
       class="edge">
      <title
         id="title117">baz.2-&gt;qux.2</title>
      <path
         d="m 154.301,-388.59 c -9.542,11.662 -21.652,26.463 -32.106,39.24"
         id="path119"
         inkscape:connector-curvature="0"
         style="fill:none;stroke:#000000;stroke-width:2" />
      <polygon
         points="124.65,-346.823 124.65,-346.823 115.609,-341.299 119.232,-351.255 "
         id="polygon121"
         style="fill:#000000;stroke:#000000;stroke-width:2" />
    </g>
    <!-- baz.3 -->
    <g
       id="node8"
       class="node">
      <title
         id="title124">baz.3</title>
      <g
         id="a_node8">
        <a
           xlink:href="presentations/LISBON/etc/gfx/baz.3"
           xlink:title="baz\n3"
           id="a127">
          <ellipse
             cx="243"
             cy="-320"
             rx="27"
             ry="26.7407"
             id="ellipse129"
             d="m 270,-320 c 0,14.76848 -12.08831,26.7407 -27,26.7407 -14.91169,0 -27,-11.97222 -27,-26.7407 0,-14.76848 12.08831,-26.7407 27,-26.7407 14.91169,0 27,11.97222 27,26.7407 z"
             sodipodi:cx="243"
             sodipodi:cy="-320"
             sodipodi:rx="27"
             sodipodi:ry="26.7407"
             style="fill:#fffaf0;stroke:#000000;stroke-width:2" />
          <text
             x="243"
             y="-323.79999"
             font-size="14.00"
             id="text131"
             style="font-size:14px;text-anchor:middle;font-family:'Times,serif'">baz</text>
          <text
             x="243"
             y="-308.79999"
             font-size="14.00"
             id="text133"
             style="font-size:14px;text-anchor:middle;font-family:'Times,serif'">3</text>
        </a>
      </g>
    </g>
    <!-- bar.4 -->
    <g
       id="node9"
       class="node">
      <title
         id="title136">bar.4</title>
      <g
         id="a_node9">
        <a
           xlink:href="presentations/LISBON/etc/gfx/bar.4"
           xlink:title="bar\n4"
           id="a139">
          <ellipse
             cx="243"
             cy="-230"
             rx="27"
             ry="26.7407"
             id="ellipse141"
             d="m 270,-230 c 0,14.76848 -12.08831,26.7407 -27,26.7407 -14.91169,0 -27,-11.97222 -27,-26.7407 0,-14.76848 12.08831,-26.7407 27,-26.7407 14.91169,0 27,11.97222 27,26.7407 z"
             sodipodi:cx="243"
             sodipodi:cy="-230"
             sodipodi:rx="27"
             sodipodi:ry="26.7407"
             style="fill:#fffaf0;stroke:#000000;stroke-width:2" />
          <text
             x="243"
             y="-233.8"
             font-size="14.00"
             id="text143"
             style="font-size:14px;text-anchor:middle;font-family:'Times,serif'">bar</text>
          <text
             x="243"
             y="-218.8"
             font-size="14.00"
             id="text145"
             style="font-size:14px;text-anchor:middle;font-family:'Times,serif'">4</text>
        </a>
      </g>
    </g>
    <!-- baz.3&#45;&gt;bar.4 -->
    <g
       id="edge5"
       class="edge">
      <title
         id="title148">baz.3-&gt;bar.4</title>
      <path
         d="m 243,-293.073 c 0,8.074 0,17.13 0,25.777"
         id="path150"
         inkscape:connector-curvature="0"
         style="fill:none;stroke:#000000;stroke-width:2" />
      <polygon
         points="246.5,-267.046 246.5,-267.046 243,-257.046 239.5,-267.046 "
         id="polygon152"
         style="fill:#000000;stroke:#000000;stroke-width:2" />
    </g>
    <!-- qux.3 -->
    <g
       id="node10"
       class="node">
      <title
         id="title155">qux.3</title>
      <g
         id="a_node10">
        <a
           xlink:href="presentations/LISBON/etc/gfx/qux.3"
           xlink:title="qux\n3"
           id="a158">
          <ellipse
             cx="171"
             cy="-230"
             rx="27"
             ry="26.7407"
             id="ellipse160"
             d="m 198,-230 c 0,14.76848 -12.08831,26.7407 -27,26.7407 -14.91169,0 -27,-11.97222 -27,-26.7407 0,-14.76848 12.08831,-26.7407 27,-26.7407 14.91169,0 27,11.97222 27,26.7407 z"
             sodipodi:cx="171"
             sodipodi:cy="-230"
             sodipodi:rx="27"
             sodipodi:ry="26.7407"
             style="fill:#fffaf0;stroke:#000000;stroke-width:2" />
          <text
             x="171"
             y="-233.8"
             font-size="14.00"
             id="text162"
             style="font-size:14px;text-anchor:middle;font-family:'Times,serif'">qux</text>
          <text
             x="171"
             y="-218.8"
             font-size="14.00"
             id="text164"
             style="font-size:14px;text-anchor:middle;font-family:'Times,serif'">3</text>
        </a>
      </g>
    </g>
    <!-- baz.3&#45;&gt;qux.3 -->
    <g
       id="edge6"
       class="edge">
      <title
         id="title167">baz.3-&gt;qux.3</title>
      <path
         d="m 226.301,-298.59 c -9.542,11.662 -21.652,26.463 -32.106,39.24"
         id="path169"
         inkscape:connector-curvature="0"
         style="fill:none;stroke:#000000;stroke-width:2" />
      <polygon
         points="196.65,-256.823 196.65,-256.823 187.609,-251.299 191.232,-261.255 "
         id="polygon171"
         style="fill:#000000;stroke:#000000;stroke-width:2" />
    </g>
    <!-- baz.4 -->
    <g
       id="node11"
       class="node">
      <title
         id="title174">baz.4</title>
      <g
         id="a_node11">
        <a
           xlink:href="presentations/LISBON/etc/gfx/baz.4"
           xlink:title="baz\n4"
           id="a177">
          <ellipse
             cx="315"
             cy="-230"
             rx="27"
             ry="26.7407"
             id="ellipse179"
             d="m 342,-230 c 0,14.76848 -12.08831,26.7407 -27,26.7407 -14.91169,0 -27,-11.97222 -27,-26.7407 0,-14.76848 12.08831,-26.7407 27,-26.7407 14.91169,0 27,11.97222 27,26.7407 z"
             sodipodi:cx="315"
             sodipodi:cy="-230"
             sodipodi:rx="27"
             sodipodi:ry="26.7407"
             style="fill:#fffaf0;stroke:#000000;stroke-width:2" />
          <text
             x="315"
             y="-233.8"
             font-size="14.00"
             id="text181"
             style="font-size:14px;text-anchor:middle;font-family:'Times,serif'">baz</text>
          <text
             x="315"
             y="-218.8"
             font-size="14.00"
             id="text183"
             style="font-size:14px;text-anchor:middle;font-family:'Times,serif'">4</text>
        </a>
      </g>
    </g>
    <!-- bar.5 -->
    <g
       id="node12"
       class="node">
      <title
         id="title186">bar.5</title>
      <g
         id="a_node12">
        <a
           xlink:href="presentations/LISBON/etc/gfx/bar.5"
           xlink:title="bar\n5"
           id="a189">
          <ellipse
             cx="351"
             cy="-140"
             rx="27"
             ry="26.7407"
             id="ellipse191"
             d="m 378,-140 c 0,14.76848 -12.08831,26.7407 -27,26.7407 -14.91169,0 -27,-11.97222 -27,-26.7407 0,-14.76848 12.08831,-26.7407 27,-26.7407 14.91169,0 27,11.97222 27,26.7407 z"
             sodipodi:cx="351"
             sodipodi:cy="-140"
             sodipodi:rx="27"
             sodipodi:ry="26.7407"
             style="fill:#fffaf0;stroke:#000000;stroke-width:2" />
          <text
             x="351"
             y="-143.8"
             font-size="14.00"
             id="text193"
             style="font-size:14px;text-anchor:middle;font-family:'Times,serif'">bar</text>
          <text
             x="351"
             y="-128.8"
             font-size="14.00"
             id="text195"
             style="font-size:14px;text-anchor:middle;font-family:'Times,serif'">5</text>
        </a>
      </g>
    </g>
    <!-- baz.4&#45;&gt;bar.5 -->
    <g
       id="edge7"
       class="edge">
      <title
         id="title198">baz.4-&gt;bar.5</title>
      <path
         d="m 324.837,-204.954 c 3.818,9.333 8.257,20.185 12.383,30.271"
         id="path200"
         inkscape:connector-curvature="0"
         style="fill:none;stroke:#000000;stroke-width:2" />
      <polygon
         points="340.503,-175.904 340.503,-175.904 341.05,-165.323 334.024,-173.253 "
         id="polygon202"
         style="fill:#000000;stroke:#000000;stroke-width:2" />
    </g>
    <!-- qux.4 -->
    <g
       id="node13"
       class="node">
      <title
         id="title205">qux.4</title>
      <g
         id="a_node13">
        <a
           xlink:href="presentations/LISBON/etc/gfx/qux.4"
           xlink:title="qux\n4"
           id="a208">
          <ellipse
             cx="279"
             cy="-140"
             rx="27"
             ry="26.7407"
             id="ellipse210"
             d="m 306,-140 c 0,14.76848 -12.08831,26.7407 -27,26.7407 -14.91169,0 -27,-11.97222 -27,-26.7407 0,-14.76848 12.08831,-26.7407 27,-26.7407 14.91169,0 27,11.97222 27,26.7407 z"
             sodipodi:cx="279"
             sodipodi:cy="-140"
             sodipodi:rx="27"
             sodipodi:ry="26.7407"
             style="fill:#fffaf0;stroke:#000000;stroke-width:2" />
          <text
             x="279"
             y="-143.8"
             font-size="14.00"
             id="text212"
             style="font-size:14px;text-anchor:middle;font-family:'Times,serif'">qux</text>
          <text
             x="279"
             y="-128.8"
             font-size="14.00"
             id="text214"
             style="font-size:14px;text-anchor:middle;font-family:'Times,serif'">4</text>
        </a>
      </g>
    </g>
    <!-- baz.4&#45;&gt;qux.4 -->
    <g
       id="edge8"
       class="edge">
      <title
         id="title217">baz.4-&gt;qux.4</title>
      <path
         d="m 305.163,-204.954 c -3.818,9.333 -8.257,20.185 -12.383,30.271"
         id="path219"
         inkscape:connector-curvature="0"
         style="fill:none;stroke:#000000;stroke-width:2" />
      <polygon
         points="295.976,-173.253 295.976,-173.253 288.95,-165.323 289.497,-175.904 "
         id="polygon221"
         style="fill:#000000;stroke:#000000;stroke-width:2" />
    </g>
    <!-- baz.5 -->
    <g
       id="node14"
       class="node">
      <title
         id="title224">baz.5</title>
      <g
         id="a_node14">
        <a
           xlink:href="presentations/LISBON/etc/gfx/baz.5"
           xlink:title="baz\n5"
           id="a227">
          <ellipse
             cx="423"
             cy="-140"
             rx="27"
             ry="26.7407"
             id="ellipse229"
             d="m 450,-140 c 0,14.76848 -12.08831,26.7407 -27,26.7407 -14.91169,0 -27,-11.97222 -27,-26.7407 0,-14.76848 12.08831,-26.7407 27,-26.7407 14.91169,0 27,11.97222 27,26.7407 z"
             sodipodi:cx="423"
             sodipodi:cy="-140"
             sodipodi:rx="27"
             sodipodi:ry="26.7407"
             style="fill:#fffaf0;stroke:#000000;stroke-width:2" />
          <text
             x="423"
             y="-143.8"
             font-size="14.00"
             id="text231"
             style="font-size:14px;text-anchor:middle;font-family:'Times,serif'">baz</text>
          <text
             x="423"
             y="-128.8"
             font-size="14.00"
             id="text233"
             style="font-size:14px;text-anchor:middle;font-family:'Times,serif'">5</text>
        </a>
      </g>
    </g>
    <!-- qux.5 -->
    <g
       id="node15"
       class="node">
      <title
         id="title236">qux.5</title>
      <g
         id="a_node15">
        <a
           xlink:href="presentations/LISBON/etc/gfx/qux.5"
           xlink:title="qux\n5"
           id="a239">
          <ellipse
             cx="423"
             cy="-50"
             rx="27"
             ry="26.7407"
             id="ellipse241"
             d="m 450,-50 c 0,14.768481 -12.08831,26.7407 -27,26.7407 -14.91169,0 -27,-11.972219 -27,-26.7407 0,-14.768481 12.08831,-26.7407 27,-26.7407 14.91169,0 27,11.972219 27,26.7407 z"
             sodipodi:cx="423"
             sodipodi:cy="-50"
             sodipodi:rx="27"
             sodipodi:ry="26.7407"
             style="fill:#fffaf0;stroke:#000000;stroke-width:2" />
          <text
             x="423"
             y="-53.799999"
             font-size="14.00"
             id="text243"
             style="font-size:14px;text-anchor:middle;font-family:'Times,serif'">qux</text>
          <text
             x="423"
             y="-38.799999"
             font-size="14.00"
             id="text245"
             style="font-size:14px;text-anchor:middle;font-family:'Times,serif'">5</text>
        </a>
      </g>
    </g>
    <!-- baz.5&#45;&gt;qux.5 -->
    <g
       id="edge9"
       class="edge">
      <title
         id="title248">baz.5-&gt;qux.5</title>
      <path
         d="m 423,-113.073 c 0,8.074 0,17.1302 0,25.7769"
         id="path250"
         inkscape:connector-curvature="0"
         style="fill:none;stroke:#000000;stroke-width:2" />
      <polygon
         points="426.5,-87.0457 426.5,-87.0457 423,-77.0457 419.5,-87.0458 "
         id="polygon252"
         style="fill:#000000;stroke:#000000;stroke-width:2" />
    </g>
    <!-- foo.1 -->
    <g
       id="node16"
       class="node">
      <title
         id="title255">foo.1</title>
      <g
         id="a_node16">
        <a
           xlink:href="presentations/LISBON/etc/gfx/foo.1"
           xlink:title="foo\n1"
           id="a258">
          <ellipse
             cx="99"
             cy="-590"
             rx="27"
             ry="26.7407"
             id="ellipse260"
             d="m 126,-590 c 0,14.76848 -12.08831,26.7407 -27,26.7407 -14.911688,0 -27,-11.97222 -27,-26.7407 0,-14.76848 12.088312,-26.7407 27,-26.7407 14.91169,0 27,11.97222 27,26.7407 z"
             sodipodi:cx="99"
             sodipodi:cy="-590"
             sodipodi:rx="27"
             sodipodi:ry="26.7407"
             style="fill:#fffaf0;stroke:#000000;stroke-width:2" />
          <text
             x="99"
             y="-593.79999"
             font-size="14.00"
             id="text262"
             style="font-size:14px;text-anchor:middle;font-family:'Times,serif'">foo</text>
          <text
             x="99"
             y="-578.79999"
             font-size="14.00"
             id="text264"
             style="font-size:14px;text-anchor:middle;font-family:'Times,serif'">1</text>
        </a>
      </g>
    </g>
    <!-- foo.1&#45;&gt;bar.1 -->
    <g
       id="edge10"
       class="edge">
      <title
         id="title267">foo.1-&gt;bar.1</title>
      <path
         d="m 82.3008,-568.59 c -9.5417,11.662 -21.6517,26.463 -32.1054,39.24"
         id="path269"
         inkscape:connector-curvature="0"
         style="fill:none;stroke:#000000;stroke-width:2" />
      <polygon
         points="52.6499,-526.823 52.6499,-526.823 43.6087,-521.299 47.2322,-531.255 "
         id="polygon271"
         style="fill:#000000;stroke:#000000;stroke-width:2" />
    </g>
    <!-- foo.1&#45;&gt;baz.1 -->
    <g
       id="edge11"
       class="edge">
      <title
         id="title274">foo.1-&gt;baz.1</title>
      <path
         d="m 99,-563.073 c 0,8.074 0,17.13 0,25.777"
         id="path276"
         inkscape:connector-curvature="0"
         style="fill:none;stroke:#000000;stroke-width:2" />
      <polygon
         points="102.5,-537.046 102.5,-537.046 99,-527.046 95.5001,-537.046 "
         id="polygon278"
         style="fill:#000000;stroke:#000000;stroke-width:2" />
    </g>
    <!-- foo.2 -->
    <g
       id="node17"
       class="node">
      <title
         id="title281">foo.2</title>
      <g
         id="a_node17">
        <a
           xlink:href="presentations/LISBON/etc/gfx/foo.2"
           xlink:title="foo\n2"
           id="a284">
          <ellipse
             cx="171"
             cy="-500"
             rx="27"
             ry="26.7407"
             id="ellipse286"
             d="m 198,-500 c 0,14.76848 -12.08831,26.7407 -27,26.7407 -14.91169,0 -27,-11.97222 -27,-26.7407 0,-14.76848 12.08831,-26.7407 27,-26.7407 14.91169,0 27,11.97222 27,26.7407 z"
             style="fill:#afeeee;stroke:#000000;stroke-width:2"
             sodipodi:cx="171"
             sodipodi:cy="-500"
             sodipodi:rx="27"
             sodipodi:ry="26.7407" />
          <text
             x="171"
             y="-503.79999"
             font-size="14.00"
             id="text288"
             style="font-size:14px;text-anchor:middle;font-family:'Times,serif'">foo</text>
          <text
             x="171"
             y="-488.79999"
             font-size="14.00"
             id="text290"
             style="font-size:14px;text-anchor:middle;font-family:'Times,serif'">2</text>
        </a>
      </g>
    </g>
    <!-- foo.1&#45;&gt;foo.2 -->
    <g
       id="edge12"
       class="edge">
      <title
         id="title293">foo.1-&gt;foo.2</title>
      <path
         d="m 115.699,-568.59 c 9.542,11.662 21.652,26.463 32.106,39.24"
         id="path295"
         inkscape:connector-curvature="0"
         style="fill:none;stroke:#000000;stroke-width:2" />
      <polygon
         points="150.768,-531.255 150.768,-531.255 154.391,-521.299 145.35,-526.823 "
         id="polygon297"
         style="fill:#000000;stroke:#000000;stroke-width:2" />
    </g>
    <!-- foo.2&#45;&gt;bar.2 -->
    <g
       id="edge13"
       class="edge">
      <title
         id="title300">foo.2-&gt;bar.2</title>
      <path
         d="m 154.301,-478.59 c -9.542,11.662 -21.652,26.463 -32.106,39.24"
         id="path302"
         inkscape:connector-curvature="0"
         style="fill:none;stroke:#000000;stroke-width:2" />
      <polygon
         points="124.65,-436.823 124.65,-436.823 115.609,-431.299 119.232,-441.255 "
         id="polygon304"
         style="fill:#000000;stroke:#000000;stroke-width:2" />
    </g>
    <!-- foo.2&#45;&gt;baz.2 -->
    <g
       id="edge14"
       class="edge">
      <title
         id="title307">foo.2-&gt;baz.2</title>
      <path
         d="m 171,-473.073 c 0,8.074 0,17.13 0,25.777"
         id="path309"
         inkscape:connector-curvature="0"
         style="fill:none;stroke:#000000;stroke-width:2" />
      <polygon
         points="174.5,-447.046 174.5,-447.046 171,-437.046 167.5,-447.046 "
         id="polygon311"
         style="fill:#000000;stroke:#000000;stroke-width:2" />
    </g>
    <!-- foo.3 -->
    <g
       id="node18"
       class="node">
      <title
         id="title314">foo.3</title>
      <g
         id="a_node18">
        <a
           xlink:href="presentations/LISBON/etc/gfx/foo.3"
           xlink:title="foo\n3"
           id="a317">
          <ellipse
             cx="243"
             cy="-410"
             rx="27"
             ry="26.7407"
             id="ellipse319"
             d="m 270,-410 c 0,14.76848 -12.08831,26.7407 -27,26.7407 -14.91169,0 -27,-11.97222 -27,-26.7407 0,-14.76848 12.08831,-26.7407 27,-26.7407 14.91169,0 27,11.97222 27,26.7407 z"
             sodipodi:cx="243"
             sodipodi:cy="-410"
             sodipodi:rx="27"
             sodipodi:ry="26.7407"
             style="fill:#fffaf0;stroke:#000000;stroke-width:2" />
          <text
             x="243"
             y="-413.79999"
             font-size="14.00"
             id="text321"
             style="font-size:14px;text-anchor:middle;font-family:'Times,serif'">foo</text>
          <text
             x="243"
             y="-398.79999"
             font-size="14.00"
             id="text323"
             style="font-size:14px;text-anchor:middle;font-family:'Times,serif'">3</text>
        </a>
      </g>
    </g>
    <!-- foo.2&#45;&gt;foo.3 -->
    <g
       id="edge15"
       class="edge">
      <title
         id="title326">foo.2-&gt;foo.3</title>
      <path
         d="m 187.699,-478.59 c 9.542,11.662 21.652,26.463 32.106,39.24"
         id="path328"
         inkscape:connector-curvature="0"
         style="fill:none;stroke:#000000;stroke-width:2" />
      <polygon
         points="222.768,-441.255 222.768,-441.255 226.391,-431.299 217.35,-436.823 "
         id="polygon330"
         style="fill:#000000;stroke:#000000;stroke-width:2" />
    </g>
    <!-- foo.3&#45;&gt;bar.3 -->
    <g
       id="edge16"
       class="edge">
      <title
         id="title333">foo.3-&gt;bar.3</title>
      <path
         d="m 226.301,-388.59 c -9.542,11.662 -21.652,26.463 -32.106,39.24"
         id="path335"
         inkscape:connector-curvature="0"
         style="fill:none;stroke:#000000;stroke-width:2" />
      <polygon
         points="196.65,-346.823 196.65,-346.823 187.609,-341.299 191.232,-351.255 "
         id="polygon337"
         style="fill:#000000;stroke:#000000;stroke-width:2" />
    </g>
    <!-- foo.3&#45;&gt;baz.3 -->
    <g
       id="edge17"
       class="edge">
      <title
         id="title340">foo.3-&gt;baz.3</title>
      <path
         d="m 243,-383.073 c 0,8.074 0,17.13 0,25.777"
         id="path342"
         inkscape:connector-curvature="0"
         style="fill:none;stroke:#000000;stroke-width:2" />
      <polygon
         points="246.5,-357.046 246.5,-357.046 243,-347.046 239.5,-357.046 "
         id="polygon344"
         style="fill:#000000;stroke:#000000;stroke-width:2" />
    </g>
    <!-- foo.4 -->
    <g
       id="node19"
       class="node">
      <title
         id="title347">foo.4</title>
      <g
         id="a_node19">
        <a
           xlink:href="presentations/LISBON/etc/gfx/foo.4"
           xlink:title="foo\n4"
           id="a350">
          <ellipse
             cx="315"
             cy="-320"
             rx="27"
             ry="26.7407"
             id="ellipse352"
             d="m 342,-320 c 0,14.76848 -12.08831,26.7407 -27,26.7407 -14.91169,0 -27,-11.97222 -27,-26.7407 0,-14.76848 12.08831,-26.7407 27,-26.7407 14.91169,0 27,11.97222 27,26.7407 z"
             sodipodi:cx="315"
             sodipodi:cy="-320"
             sodipodi:rx="27"
             sodipodi:ry="26.7407"
             style="fill:#fffaf0;stroke:#000000;stroke-width:2" />
          <text
             x="315"
             y="-323.79999"
             font-size="14.00"
             id="text354"
             style="font-size:14px;text-anchor:middle;font-family:'Times,serif'">foo</text>
          <text
             x="315"
             y="-308.79999"
             font-size="14.00"
             id="text356"
             style="font-size:14px;text-anchor:middle;font-family:'Times,serif'">4</text>
        </a>
      </g>
    </g>
    <!-- foo.3&#45;&gt;foo.4 -->
    <g
       id="edge18"
       class="edge">
      <title
         id="title359">foo.3-&gt;foo.4</title>
      <path
         d="m 259.699,-388.59 c 9.542,11.662 21.652,26.463 32.106,39.24"
         id="path361"
         inkscape:connector-curvature="0"
         style="fill:none;stroke:#000000;stroke-width:2" />
      <polygon
         points="294.768,-351.255 294.768,-351.255 298.391,-341.299 289.35,-346.823 "
         id="polygon363"
         style="fill:#000000;stroke:#000000;stroke-width:2" />
    </g>
    <!-- foo.4&#45;&gt;bar.4 -->
    <g
       id="edge19"
       class="edge">
      <title
         id="title366">foo.4-&gt;bar.4</title>
      <path
         d="m 298.301,-298.59 c -9.542,11.662 -21.652,26.463 -32.106,39.24"
         id="path368"
         inkscape:connector-curvature="0"
         style="fill:none;stroke:#000000;stroke-width:2" />
      <polygon
         points="268.65,-256.823 268.65,-256.823 259.609,-251.299 263.232,-261.255 "
         id="polygon370"
         style="fill:#000000;stroke:#000000;stroke-width:2" />
    </g>
    <!-- foo.4&#45;&gt;baz.4 -->
    <g
       id="edge20"
       class="edge">
      <title
         id="title373">foo.4-&gt;baz.4</title>
      <path
         d="m 315,-293.073 c 0,8.074 0,17.13 0,25.777"
         id="path375"
         inkscape:connector-curvature="0"
         style="fill:none;stroke:#000000;stroke-width:2" />
      <polygon
         points="318.5,-267.046 318.5,-267.046 315,-257.046 311.5,-267.046 "
         id="polygon377"
         style="fill:#000000;stroke:#000000;stroke-width:2" />
    </g>
    <!-- foo.5 -->
    <g
       id="node20"
       class="node">
      <title
         id="title380">foo.5</title>
      <g
         id="a_node20">
        <a
           xlink:href="presentations/LISBON/etc/gfx/foo.5"
           xlink:title="foo\n5"
           id="a383">
          <ellipse
             cx="387"
             cy="-230"
             rx="27"
             ry="26.7407"
             id="ellipse385"
             d="m 414,-230 c 0,14.76848 -12.08831,26.7407 -27,26.7407 -14.91169,0 -27,-11.97222 -27,-26.7407 0,-14.76848 12.08831,-26.7407 27,-26.7407 14.91169,0 27,11.97222 27,26.7407 z"
             sodipodi:cx="387"
             sodipodi:cy="-230"
             sodipodi:rx="27"
             sodipodi:ry="26.7407"
             style="fill:#fffaf0;stroke:#000000;stroke-width:2" />
          <text
             x="387"
             y="-233.8"
             font-size="14.00"
             id="text387"
             style="font-size:14px;text-anchor:middle;font-family:'Times,serif'">foo</text>
          <text
             x="387"
             y="-218.8"
             font-size="14.00"
             id="text389"
             style="font-size:14px;text-anchor:middle;font-family:'Times,serif'">5</text>
        </a>
      </g>
    </g>
    <!-- foo.4&#45;&gt;foo.5 -->
    <g
       id="edge21"
       class="edge">
      <title
         id="title392">foo.4-&gt;foo.5</title>
      <path
         d="m 331.699,-298.59 c 9.542,11.662 21.652,26.463 32.106,39.24"
         id="path394"
         inkscape:connector-curvature="0"
         style="fill:none;stroke:#000000;stroke-width:2" />
      <polygon
         points="366.768,-261.255 366.768,-261.255 370.391,-251.299 361.35,-256.823 "
         id="polygon396"
         style="fill:#000000;stroke:#000000;stroke-width:2" />
    </g>
    <!-- foo.5&#45;&gt;bar.5 -->
    <g
       id="edge22"
       class="edge">
      <title
         id="title399">foo.5-&gt;bar.5</title>
      <path
         d="m 377.163,-204.954 c -3.818,9.333 -8.257,20.185 -12.383,30.271"
         id="path401"
         inkscape:connector-curvature="0"
         style="fill:none;stroke:#000000;stroke-width:2" />
      <polygon
         points="367.976,-173.253 367.976,-173.253 360.95,-165.323 361.497,-175.904 "
         id="polygon403"
         style="fill:#000000;stroke:#000000;stroke-width:2" />
    </g>
    <!-- foo.5&#45;&gt;baz.5 -->
    <g
       id="edge23"
       class="edge">
      <title
         id="title406">foo.5-&gt;baz.5</title>
      <path
         d="m 396.837,-204.954 c 3.818,9.333 8.257,20.185 12.383,30.271"
         id="path408"
         inkscape:connector-curvature="0"
         style="fill:none;stroke:#000000;stroke-width:2" />
      <polygon
         points="412.503,-175.904 412.503,-175.904 413.05,-165.323 406.024,-173.253 "
         id="polygon410"
         style="fill:#000000;stroke:#000000;stroke-width:2" />
    </g>
    <!-- prep.1 -->
    <g
       id="node21"
       class="node">
      <title
         id="title413">prep.1</title>
      <g
         id="a_node21">
        <a
           xlink:href="presentations/LISBON/etc/gfx/prep.1"
           xlink:title="prep\n1"
           id="a416">
          <ellipse
             cx="99"
             cy="-680"
             rx="28.4872"
             ry="26.7407"
             id="ellipse418"
             d="m 127.4872,-680 c 0,14.76848 -12.75415,26.7407 -28.4872,26.7407 -15.733046,0 -28.4872,-11.97222 -28.4872,-26.7407 0,-14.76848 12.754154,-26.7407 28.4872,-26.7407 15.73305,0 28.4872,11.97222 28.4872,26.7407 z"
             sodipodi:cx="99"
             sodipodi:cy="-680"
             sodipodi:rx="28.4872"
             sodipodi:ry="26.7407"
             style="fill:#fffaf0;stroke:#000000;stroke-width:2" />
          <text
             x="99"
             y="-683.79999"
             font-size="14.00"
             id="text420"
             style="font-size:14px;text-anchor:middle;font-family:'Times,serif'">prep</text>
          <text
             x="99"
             y="-668.79999"
             font-size="14.00"
             id="text422"
             style="font-size:14px;text-anchor:middle;font-family:'Times,serif'">1</text>
        </a>
      </g>
    </g>
    <!-- prep.1&#45;&gt;foo.1 -->
    <g
       id="edge24"
       class="edge">
      <title
         id="title425">prep.1-&gt;foo.1</title>
      <path
         d="m 99,-653.073 c 0,8.074 0,17.13 0,25.777"
         id="path427"
         inkscape:connector-curvature="0"
         style="fill:none;stroke:#000000;stroke-width:2" />
      <polygon
         points="102.5,-627.046 102.5,-627.046 99,-617.046 95.5001,-627.046 "
         id="polygon429"
         style="fill:#000000;stroke:#000000;stroke-width:2" />
    </g>
  </g>
</svg>
