<?xml version="1.0" encoding="UTF-8" standalone="no"?>
<!-- Generated by graphviz version 2.36.0 (20140111.2315)
 -->

<!-- Title: %3 Pages: 1 -->

<svg
   xmlns:dc="http://purl.org/dc/elements/1.1/"
   xmlns:cc="http://creativecommons.org/ns#"
   xmlns:rdf="http://www.w3.org/1999/02/22-rdf-syntax-ns#"
   xmlns:svg="http://www.w3.org/2000/svg"
   xmlns="http://www.w3.org/2000/svg"
   xmlns:xlink="http://www.w3.org/1999/xlink"
   xmlns:sodipodi="http://sodipodi.sourceforge.net/DTD/sodipodi-0.dtd"
   xmlns:inkscape="http://www.inkscape.org/namespaces/inkscape"
   width="458pt"
   height="715pt"
   viewBox="0.00 0.00 458.00 715.00"
   id="svg2"
   version="1.1"
   inkscape:version="0.48.4 r9939"
   sodipodi:docname="static5.svg">
  <metadata
     id="metadata435">
    <rdf:RDF>
      <cc:Work
         rdf:about="">
        <dc:format>image/svg+xml</dc:format>
        <dc:type
           rdf:resource="http://purl.org/dc/dcmitype/StillImage" />
      </cc:Work>
    </rdf:RDF>
  </metadata>
  <defs
     id="defs433" />
  <sodipodi:namedview
     pagecolor="#ffffff"
     bordercolor="#666666"
     borderopacity="1"
     objecttolerance="10"
     gridtolerance="10"
     guidetolerance="10"
     inkscape:pageopacity="0"
     inkscape:pageshadow="2"
     inkscape:window-width="1920"
     inkscape:window-height="1030"
     id="namedview431"
     showgrid="false"
     inkscape:zoom="0.95216783"
     inkscape:cx="286.25"
     inkscape:cy="446.875"
     inkscape:window-x="0"
     inkscape:window-y="26"
     inkscape:window-maximized="1"
     inkscape:current-layer="graph0" />
  <g
     id="graph0"
     class="graph"
     transform="scale(1 1) rotate(0) translate(4 711)">
    <title
       id="title5">%3</title>
    <!-- bar.1 -->
    <g
       id="node1"
       class="node">
      <title
         id="title12">bar.1</title>
      <g
         id="a_node1">
        <a
           xlink:href="bar.1"
           id="a15"
           xlink:title="bar\n1">
          <ellipse
             fill="floralwhite"
             stroke="black"
             stroke-width="2"
             cx="27"
             cy="-500"
             rx="27"
             ry="26.7407"
             id="ellipse17"
             d="m 54,-500 c 0,14.76848 -12.088312,26.7407 -27,26.7407 -14.911688,0 -27,-11.97222 -27,-26.7407 0,-14.76848 12.088312,-26.7407 27,-26.7407 14.911688,0 27,11.97222 27,26.7407 z" />
          <text
             text-anchor="middle"
             x="27"
             y="-503.8"
             font-family="Times,serif"
             font-size="14.00"
             id="text19">bar</text>
          <text
             text-anchor="middle"
             x="27"
             y="-488.8"
             font-family="Times,serif"
             font-size="14.00"
             id="text21">1</text>
        </a>
      </g>
    </g>
    <!-- baz.1 -->
    <g
       id="node2"
       class="node">
      <title
         id="title24">baz.1</title>
      <g
         id="a_node2">
        <a
           xlink:href="baz.1"
           id="a27"
           xlink:title="baz\n1">
          <ellipse
             fill="floralwhite"
             stroke="black"
             stroke-width="2"
             cx="99"
             cy="-500"
             rx="27"
             ry="26.7407"
             id="ellipse29"
             d="m 126,-500 c 0,14.76848 -12.08831,26.7407 -27,26.7407 -14.911688,0 -27,-11.97222 -27,-26.7407 0,-14.76848 12.088312,-26.7407 27,-26.7407 14.91169,0 27,11.97222 27,26.7407 z" />
          <text
             text-anchor="middle"
             x="99"
             y="-503.8"
             font-family="Times,serif"
             font-size="14.00"
             id="text31">baz</text>
          <text
             text-anchor="middle"
             x="99"
             y="-488.8"
             font-family="Times,serif"
             font-size="14.00"
             id="text33">1</text>
        </a>
      </g>
    </g>
    <!-- bar.2 -->
    <g
       id="node3"
       class="node">
      <title
         id="title36">bar.2</title>
      <g
         id="a_node3">
        <a
           xlink:href="bar.2"
           id="a39"
           xlink:title="bar\n2">
          <ellipse
             fill="floralwhite"
             stroke="black"
             stroke-width="2"
             cx="99"
             cy="-410"
             rx="27"
             ry="26.7407"
             id="ellipse41"
             d="m 126,-410 c 0,14.76848 -12.08831,26.7407 -27,26.7407 -14.911688,0 -27,-11.97222 -27,-26.7407 0,-14.76848 12.088312,-26.7407 27,-26.7407 14.91169,0 27,11.97222 27,26.7407 z"
             style="fill:#afeeee" />
          <text
             text-anchor="middle"
             x="99"
             y="-413.8"
             font-family="Times,serif"
             font-size="14.00"
             id="text43">bar</text>
          <text
             text-anchor="middle"
             x="99"
             y="-398.8"
             font-family="Times,serif"
             font-size="14.00"
             id="text45">2</text>
        </a>
      </g>
    </g>
    <!-- baz.1&#45;&gt;bar.2 -->
    <g
       id="edge1"
       class="edge">
      <title
         id="title48">baz.1-&gt;bar.2</title>
      <path
         fill="none"
         stroke="black"
         stroke-width="2"
         d="M99,-473.073C99,-464.999 99,-455.943 99,-447.296"
         id="path50" />
      <polygon
         fill="black"
         stroke="black"
         stroke-width="2"
         points="102.5,-447.046 99,-437.046 95.5001,-447.046 102.5,-447.046"
         id="polygon52" />
    </g>
    <!-- qux.1 -->
    <g
       id="node4"
       class="node">
      <title
         id="title55">qux.1</title>
      <g
         id="a_node4">
        <a
           xlink:href="qux.1"
           id="a58"
           xlink:title="qux\n1">
          <ellipse
             fill="floralwhite"
             stroke="black"
             stroke-width="2"
             cx="27"
             cy="-410"
             rx="27"
             ry="26.7407"
             id="ellipse60"
             d="m 54,-410 c 0,14.76848 -12.088312,26.7407 -27,26.7407 -14.911688,0 -27,-11.97222 -27,-26.7407 0,-14.76848 12.088312,-26.7407 27,-26.7407 14.911688,0 27,11.97222 27,26.7407 z" />
          <text
             text-anchor="middle"
             x="27"
             y="-413.8"
             font-family="Times,serif"
             font-size="14.00"
             id="text62">qux</text>
          <text
             text-anchor="middle"
             x="27"
             y="-398.8"
             font-family="Times,serif"
             font-size="14.00"
             id="text64">1</text>
        </a>
      </g>
    </g>
    <!-- baz.1&#45;&gt;qux.1 -->
    <g
       id="edge2"
       class="edge">
      <title
         id="title67">baz.1-&gt;qux.1</title>
      <path
         fill="none"
         stroke="black"
         stroke-width="2"
         d="M82.3008,-478.59C72.7591,-466.928 60.6491,-452.127 50.1954,-439.35"
         id="path69" />
      <polygon
         fill="black"
         stroke="black"
         stroke-width="2"
         points="52.6499,-436.823 43.6087,-431.299 47.2322,-441.255 52.6499,-436.823"
         id="polygon71" />
    </g>
    <!-- baz.2 -->
    <g
       id="node5"
       class="node">
      <title
         id="title74">baz.2</title>
      <g
         id="a_node5">
        <a
           xlink:href="baz.2"
           id="a77"
           xlink:title="baz\n2">
          <ellipse
             fill="floralwhite"
             stroke="black"
             stroke-width="2"
             cx="171"
             cy="-410"
             rx="27"
             ry="26.7407"
             id="ellipse79"
             d="m 198,-410 c 0,14.76848 -12.08831,26.7407 -27,26.7407 -14.91169,0 -27,-11.97222 -27,-26.7407 0,-14.76848 12.08831,-26.7407 27,-26.7407 14.91169,0 27,11.97222 27,26.7407 z"
             style="fill:#afeeee" />
          <text
             text-anchor="middle"
             x="171"
             y="-413.8"
             font-family="Times,serif"
             font-size="14.00"
             id="text81">baz</text>
          <text
             text-anchor="middle"
             x="171"
             y="-398.8"
             font-family="Times,serif"
             font-size="14.00"
             id="text83">2</text>
        </a>
      </g>
    </g>
    <!-- bar.3 -->
    <g
       id="node6"
       class="node">
      <title
         id="title86">bar.3</title>
      <g
         id="a_node6">
        <a
           xlink:href="bar.3"
           id="a89"
           xlink:title="bar\n3">
          <ellipse
             fill="floralwhite"
             stroke="black"
             stroke-width="2"
             cx="171"
             cy="-320"
             rx="27"
             ry="26.7407"
             id="ellipse91"
             d="m 198,-320 c 0,14.76848 -12.08831,26.7407 -27,26.7407 -14.91169,0 -27,-11.97222 -27,-26.7407 0,-14.76848 12.08831,-26.7407 27,-26.7407 14.91169,0 27,11.97222 27,26.7407 z" />
          <text
             text-anchor="middle"
             x="171"
             y="-323.8"
             font-family="Times,serif"
             font-size="14.00"
             id="text93">bar</text>
          <text
             text-anchor="middle"
             x="171"
             y="-308.8"
             font-family="Times,serif"
             font-size="14.00"
             id="text95">3</text>
        </a>
      </g>
    </g>
    <!-- baz.2&#45;&gt;bar.3 -->
    <g
       id="edge3"
       class="edge">
      <title
         id="title98">baz.2-&gt;bar.3</title>
      <path
         fill="none"
         stroke="black"
         stroke-width="2"
         d="M171,-383.073C171,-374.999 171,-365.943 171,-357.296"
         id="path100" />
      <polygon
         fill="black"
         stroke="black"
         stroke-width="2"
         points="174.5,-357.046 171,-347.046 167.5,-357.046 174.5,-357.046"
         id="polygon102" />
    </g>
    <!-- qux.2 -->
    <g
       id="node7"
       class="node">
      <title
         id="title105">qux.2</title>
      <g
         id="a_node7">
        <a
           xlink:href="qux.2"
           id="a108"
           xlink:title="qux\n2">
          <ellipse
             fill="floralwhite"
             stroke="black"
             stroke-width="2"
             cx="99"
             cy="-320"
             rx="27"
             ry="26.7407"
             id="ellipse110"
             d="m 126,-320 c 0,14.76848 -12.08831,26.7407 -27,26.7407 -14.911688,0 -27,-11.97222 -27,-26.7407 0,-14.76848 12.088312,-26.7407 27,-26.7407 14.91169,0 27,11.97222 27,26.7407 z"
             style="fill:#afeeee" />
          <text
             text-anchor="middle"
             x="99"
             y="-323.8"
             font-family="Times,serif"
             font-size="14.00"
             id="text112">qux</text>
          <text
             text-anchor="middle"
             x="99"
             y="-308.8"
             font-family="Times,serif"
             font-size="14.00"
             id="text114">2</text>
        </a>
      </g>
    </g>
    <!-- baz.2&#45;&gt;qux.2 -->
    <g
       id="edge4"
       class="edge">
      <title
         id="title117">baz.2-&gt;qux.2</title>
      <path
         fill="none"
         stroke="black"
         stroke-width="2"
         d="M154.301,-388.59C144.759,-376.928 132.649,-362.127 122.195,-349.35"
         id="path119" />
      <polygon
         fill="black"
         stroke="black"
         stroke-width="2"
         points="124.65,-346.823 115.609,-341.299 119.232,-351.255 124.65,-346.823"
         id="polygon121" />
    </g>
    <!-- baz.3 -->
    <g
       id="node8"
       class="node">
      <title
         id="title124">baz.3</title>
      <g
         id="a_node8">
        <a
           xlink:href="baz.3"
           id="a127"
           xlink:title="baz\n3">
          <ellipse
             fill="floralwhite"
             stroke="black"
             stroke-width="2"
             cx="243"
             cy="-320"
             rx="27"
             ry="26.7407"
             id="ellipse129"
             d="m 270,-320 c 0,14.76848 -12.08831,26.7407 -27,26.7407 -14.91169,0 -27,-11.97222 -27,-26.7407 0,-14.76848 12.08831,-26.7407 27,-26.7407 14.91169,0 27,11.97222 27,26.7407 z" />
          <text
             text-anchor="middle"
             x="243"
             y="-323.8"
             font-family="Times,serif"
             font-size="14.00"
             id="text131">baz</text>
          <text
             text-anchor="middle"
             x="243"
             y="-308.8"
             font-family="Times,serif"
             font-size="14.00"
             id="text133">3</text>
        </a>
      </g>
    </g>
    <!-- bar.4 -->
    <g
       id="node9"
       class="node">
      <title
         id="title136">bar.4</title>
      <g
         id="a_node9">
        <a
           xlink:href="bar.4"
           id="a139"
           xlink:title="bar\n4">
          <ellipse
             fill="floralwhite"
             stroke="black"
             stroke-width="2"
             cx="243"
             cy="-230"
             rx="27"
             ry="26.7407"
             id="ellipse141"
             d="m 270,-230 c 0,14.76848 -12.08831,26.7407 -27,26.7407 -14.91169,0 -27,-11.97222 -27,-26.7407 0,-14.76848 12.08831,-26.7407 27,-26.7407 14.91169,0 27,11.97222 27,26.7407 z" />
          <text
             text-anchor="middle"
             x="243"
             y="-233.8"
             font-family="Times,serif"
             font-size="14.00"
             id="text143">bar</text>
          <text
             text-anchor="middle"
             x="243"
             y="-218.8"
             font-family="Times,serif"
             font-size="14.00"
             id="text145">4</text>
        </a>
      </g>
    </g>
    <!-- baz.3&#45;&gt;bar.4 -->
    <g
       id="edge5"
       class="edge">
      <title
         id="title148">baz.3-&gt;bar.4</title>
      <path
         fill="none"
         stroke="black"
         stroke-width="2"
         d="M243,-293.073C243,-284.999 243,-275.943 243,-267.296"
         id="path150" />
      <polygon
         fill="black"
         stroke="black"
         stroke-width="2"
         points="246.5,-267.046 243,-257.046 239.5,-267.046 246.5,-267.046"
         id="polygon152" />
    </g>
    <!-- qux.3 -->
    <g
       id="node10"
       class="node">
      <title
         id="title155">qux.3</title>
      <g
         id="a_node10">
        <a
           xlink:href="qux.3"
           id="a158"
           xlink:title="qux\n3">
          <ellipse
             fill="floralwhite"
             stroke="black"
             stroke-width="2"
             cx="171"
             cy="-230"
             rx="27"
             ry="26.7407"
             id="ellipse160"
             d="m 198,-230 c 0,14.76848 -12.08831,26.7407 -27,26.7407 -14.91169,0 -27,-11.97222 -27,-26.7407 0,-14.76848 12.08831,-26.7407 27,-26.7407 14.91169,0 27,11.97222 27,26.7407 z" />
          <text
             text-anchor="middle"
             x="171"
             y="-233.8"
             font-family="Times,serif"
             font-size="14.00"
             id="text162">qux</text>
          <text
             text-anchor="middle"
             x="171"
             y="-218.8"
             font-family="Times,serif"
             font-size="14.00"
             id="text164">3</text>
        </a>
      </g>
    </g>
    <!-- baz.3&#45;&gt;qux.3 -->
    <g
       id="edge6"
       class="edge">
      <title
         id="title167">baz.3-&gt;qux.3</title>
      <path
         fill="none"
         stroke="black"
         stroke-width="2"
         d="M226.301,-298.59C216.759,-286.928 204.649,-272.127 194.195,-259.35"
         id="path169" />
      <polygon
         fill="black"
         stroke="black"
         stroke-width="2"
         points="196.65,-256.823 187.609,-251.299 191.232,-261.255 196.65,-256.823"
         id="polygon171" />
    </g>
    <!-- baz.4 -->
    <g
       id="node11"
       class="node">
      <title
         id="title174">baz.4</title>
      <g
         id="a_node11">
        <a
           xlink:href="baz.4"
           id="a177"
           xlink:title="baz\n4">
          <ellipse
             fill="floralwhite"
             stroke="black"
             stroke-width="2"
             cx="315"
             cy="-230"
             rx="27"
             ry="26.7407"
             id="ellipse179"
             d="m 342,-230 c 0,14.76848 -12.08831,26.7407 -27,26.7407 -14.91169,0 -27,-11.97222 -27,-26.7407 0,-14.76848 12.08831,-26.7407 27,-26.7407 14.91169,0 27,11.97222 27,26.7407 z" />
          <text
             text-anchor="middle"
             x="315"
             y="-233.8"
             font-family="Times,serif"
             font-size="14.00"
             id="text181">baz</text>
          <text
             text-anchor="middle"
             x="315"
             y="-218.8"
             font-family="Times,serif"
             font-size="14.00"
             id="text183">4</text>
        </a>
      </g>
    </g>
    <!-- bar.5 -->
    <g
       id="node12"
       class="node">
      <title
         id="title186">bar.5</title>
      <g
         id="a_node12">
        <a
           xlink:href="bar.5"
           id="a189"
           xlink:title="bar\n5">
          <ellipse
             fill="floralwhite"
             stroke="black"
             stroke-width="2"
             cx="351"
             cy="-140"
             rx="27"
             ry="26.7407"
             id="ellipse191"
             d="m 378,-140 c 0,14.76848 -12.08831,26.7407 -27,26.7407 -14.91169,0 -27,-11.97222 -27,-26.7407 0,-14.76848 12.08831,-26.7407 27,-26.7407 14.91169,0 27,11.97222 27,26.7407 z" />
          <text
             text-anchor="middle"
             x="351"
             y="-143.8"
             font-family="Times,serif"
             font-size="14.00"
             id="text193">bar</text>
          <text
             text-anchor="middle"
             x="351"
             y="-128.8"
             font-family="Times,serif"
             font-size="14.00"
             id="text195">5</text>
        </a>
      </g>
    </g>
    <!-- baz.4&#45;&gt;bar.5 -->
    <g
       id="edge7"
       class="edge">
      <title
         id="title198">baz.4-&gt;bar.5</title>
      <path
         fill="none"
         stroke="black"
         stroke-width="2"
         d="M324.837,-204.954C328.655,-195.621 333.094,-184.769 337.22,-174.683"
         id="path200" />
      <polygon
         fill="black"
         stroke="black"
         stroke-width="2"
         points="340.503,-175.904 341.05,-165.323 334.024,-173.253 340.503,-175.904"
         id="polygon202" />
    </g>
    <!-- qux.4 -->
    <g
       id="node13"
       class="node">
      <title
         id="title205">qux.4</title>
      <g
         id="a_node13">
        <a
           xlink:href="qux.4"
           id="a208"
           xlink:title="qux\n4">
          <ellipse
             fill="floralwhite"
             stroke="black"
             stroke-width="2"
             cx="279"
             cy="-140"
             rx="27"
             ry="26.7407"
             id="ellipse210"
             d="m 306,-140 c 0,14.76848 -12.08831,26.7407 -27,26.7407 -14.91169,0 -27,-11.97222 -27,-26.7407 0,-14.76848 12.08831,-26.7407 27,-26.7407 14.91169,0 27,11.97222 27,26.7407 z" />
          <text
             text-anchor="middle"
             x="279"
             y="-143.8"
             font-family="Times,serif"
             font-size="14.00"
             id="text212">qux</text>
          <text
             text-anchor="middle"
             x="279"
             y="-128.8"
             font-family="Times,serif"
             font-size="14.00"
             id="text214">4</text>
        </a>
      </g>
    </g>
    <!-- baz.4&#45;&gt;qux.4 -->
    <g
       id="edge8"
       class="edge">
      <title
         id="title217">baz.4-&gt;qux.4</title>
      <path
         fill="none"
         stroke="black"
         stroke-width="2"
         d="M305.163,-204.954C301.345,-195.621 296.906,-184.769 292.78,-174.683"
         id="path219" />
      <polygon
         fill="black"
         stroke="black"
         stroke-width="2"
         points="295.976,-173.253 288.95,-165.323 289.497,-175.904 295.976,-173.253"
         id="polygon221" />
    </g>
    <!-- baz.5 -->
    <g
       id="node14"
       class="node">
      <title
         id="title224">baz.5</title>
      <g
         id="a_node14">
        <a
           xlink:href="baz.5"
           id="a227"
           xlink:title="baz\n5">
          <ellipse
             fill="floralwhite"
             stroke="black"
             stroke-width="2"
             cx="423"
             cy="-140"
             rx="27"
             ry="26.7407"
             id="ellipse229"
             d="m 450,-140 c 0,14.76848 -12.08831,26.7407 -27,26.7407 -14.91169,0 -27,-11.97222 -27,-26.7407 0,-14.76848 12.08831,-26.7407 27,-26.7407 14.91169,0 27,11.97222 27,26.7407 z" />
          <text
             text-anchor="middle"
             x="423"
             y="-143.8"
             font-family="Times,serif"
             font-size="14.00"
             id="text231">baz</text>
          <text
             text-anchor="middle"
             x="423"
             y="-128.8"
             font-family="Times,serif"
             font-size="14.00"
             id="text233">5</text>
        </a>
      </g>
    </g>
    <!-- qux.5 -->
    <g
       id="node15"
       class="node">
      <title
         id="title236">qux.5</title>
      <g
         id="a_node15">
        <a
           xlink:href="qux.5"
           id="a239"
           xlink:title="qux\n5">
          <ellipse
             fill="floralwhite"
             stroke="black"
             stroke-width="2"
             cx="423"
             cy="-50"
             rx="27"
             ry="26.7407"
             id="ellipse241"
             d="m 450,-50 c 0,14.768481 -12.08831,26.7407 -27,26.7407 -14.91169,0 -27,-11.972219 -27,-26.7407 0,-14.768481 12.08831,-26.7407 27,-26.7407 14.91169,0 27,11.972219 27,26.7407 z" />
          <text
             text-anchor="middle"
             x="423"
             y="-53.8"
             font-family="Times,serif"
             font-size="14.00"
             id="text243">qux</text>
          <text
             text-anchor="middle"
             x="423"
             y="-38.8"
             font-family="Times,serif"
             font-size="14.00"
             id="text245">5</text>
        </a>
      </g>
    </g>
    <!-- baz.5&#45;&gt;qux.5 -->
    <g
       id="edge9"
       class="edge">
      <title
         id="title248">baz.5-&gt;qux.5</title>
      <path
         fill="none"
         stroke="black"
         stroke-width="2"
         d="M423,-113.073C423,-104.999 423,-95.9428 423,-87.2961"
         id="path250" />
      <polygon
         fill="black"
         stroke="black"
         stroke-width="2"
         points="426.5,-87.0457 423,-77.0457 419.5,-87.0458 426.5,-87.0457"
         id="polygon252" />
    </g>
    <!-- foo.1 -->
    <g
       id="node16"
       class="node">
      <title
         id="title255">foo.1</title>
      <g
         id="a_node16">
        <a
           xlink:href="foo.1"
           id="a258"
           xlink:title="foo\n1">
          <ellipse
             fill="floralwhite"
             stroke="black"
             stroke-width="2"
             cx="99"
             cy="-590"
             rx="27"
             ry="26.7407"
             id="ellipse260"
             d="m 126,-590 c 0,14.76848 -12.08831,26.7407 -27,26.7407 -14.911688,0 -27,-11.97222 -27,-26.7407 0,-14.76848 12.088312,-26.7407 27,-26.7407 14.91169,0 27,11.97222 27,26.7407 z" />
          <text
             text-anchor="middle"
             x="99"
             y="-593.8"
             font-family="Times,serif"
             font-size="14.00"
             id="text262">foo</text>
          <text
             text-anchor="middle"
             x="99"
             y="-578.8"
             font-family="Times,serif"
             font-size="14.00"
             id="text264">1</text>
        </a>
      </g>
    </g>
    <!-- foo.1&#45;&gt;bar.1 -->
    <g
       id="edge10"
       class="edge">
      <title
         id="title267">foo.1-&gt;bar.1</title>
      <path
         fill="none"
         stroke="black"
         stroke-width="2"
         d="M82.3008,-568.59C72.7591,-556.928 60.6491,-542.127 50.1954,-529.35"
         id="path269" />
      <polygon
         fill="black"
         stroke="black"
         stroke-width="2"
         points="52.6499,-526.823 43.6087,-521.299 47.2322,-531.255 52.6499,-526.823"
         id="polygon271" />
    </g>
    <!-- foo.1&#45;&gt;baz.1 -->
    <g
       id="edge11"
       class="edge">
      <title
         id="title274">foo.1-&gt;baz.1</title>
      <path
         fill="none"
         stroke="black"
         stroke-width="2"
         d="M99,-563.073C99,-554.999 99,-545.943 99,-537.296"
         id="path276" />
      <polygon
         fill="black"
         stroke="black"
         stroke-width="2"
         points="102.5,-537.046 99,-527.046 95.5001,-537.046 102.5,-537.046"
         id="polygon278" />
    </g>
    <!-- foo.2 -->
    <g
       id="node17"
       class="node">
      <title
         id="title281">foo.2</title>
      <g
         id="a_node17">
        <a
           xlink:href="foo.2"
           id="a284"
           xlink:title="foo\n2">
          <ellipse
             fill="floralwhite"
             stroke="black"
             stroke-width="2"
             cx="171"
             cy="-500"
             rx="27"
             ry="26.7407"
             id="ellipse286"
             d="m 198,-500 c 0,14.76848 -12.08831,26.7407 -27,26.7407 -14.91169,0 -27,-11.97222 -27,-26.7407 0,-14.76848 12.08831,-26.7407 27,-26.7407 14.91169,0 27,11.97222 27,26.7407 z"
             style="fill:#afeeee" />
          <text
             text-anchor="middle"
             x="171"
             y="-503.8"
             font-family="Times,serif"
             font-size="14.00"
             id="text288">foo</text>
          <text
             text-anchor="middle"
             x="171"
             y="-488.8"
             font-family="Times,serif"
             font-size="14.00"
             id="text290">2</text>
        </a>
      </g>
    </g>
    <!-- foo.1&#45;&gt;foo.2 -->
    <g
       id="edge12"
       class="edge">
      <title
         id="title293">foo.1-&gt;foo.2</title>
      <path
         fill="none"
         stroke="black"
         stroke-width="2"
         d="M115.699,-568.59C125.241,-556.928 137.351,-542.127 147.805,-529.35"
         id="path295" />
      <polygon
         fill="black"
         stroke="black"
         stroke-width="2"
         points="150.768,-531.255 154.391,-521.299 145.35,-526.823 150.768,-531.255"
         id="polygon297" />
    </g>
    <!-- foo.2&#45;&gt;bar.2 -->
    <g
       id="edge13"
       class="edge">
      <title
         id="title300">foo.2-&gt;bar.2</title>
      <path
         fill="none"
         stroke="black"
         stroke-width="2"
         d="M154.301,-478.59C144.759,-466.928 132.649,-452.127 122.195,-439.35"
         id="path302" />
      <polygon
         fill="black"
         stroke="black"
         stroke-width="2"
         points="124.65,-436.823 115.609,-431.299 119.232,-441.255 124.65,-436.823"
         id="polygon304" />
    </g>
    <!-- foo.2&#45;&gt;baz.2 -->
    <g
       id="edge14"
       class="edge">
      <title
         id="title307">foo.2-&gt;baz.2</title>
      <path
         fill="none"
         stroke="black"
         stroke-width="2"
         d="M171,-473.073C171,-464.999 171,-455.943 171,-447.296"
         id="path309" />
      <polygon
         fill="black"
         stroke="black"
         stroke-width="2"
         points="174.5,-447.046 171,-437.046 167.5,-447.046 174.5,-447.046"
         id="polygon311" />
    </g>
    <!-- foo.3 -->
    <g
       id="node18"
       class="node">
      <title
         id="title314">foo.3</title>
      <g
         id="a_node18">
        <a
           xlink:href="foo.3"
           id="a317"
           xlink:title="foo\n3">
          <ellipse
             fill="floralwhite"
             stroke="black"
             stroke-width="2"
             cx="243"
             cy="-410"
             rx="27"
             ry="26.7407"
             id="ellipse319"
             d="m 270,-410 c 0,14.76848 -12.08831,26.7407 -27,26.7407 -14.91169,0 -27,-11.97222 -27,-26.7407 0,-14.76848 12.08831,-26.7407 27,-26.7407 14.91169,0 27,11.97222 27,26.7407 z" />
          <text
             text-anchor="middle"
             x="243"
             y="-413.8"
             font-family="Times,serif"
             font-size="14.00"
             id="text321">foo</text>
          <text
             text-anchor="middle"
             x="243"
             y="-398.8"
             font-family="Times,serif"
             font-size="14.00"
             id="text323">3</text>
        </a>
      </g>
    </g>
    <!-- foo.2&#45;&gt;foo.3 -->
    <g
       id="edge15"
       class="edge">
      <title
         id="title326">foo.2-&gt;foo.3</title>
      <path
         fill="none"
         stroke="black"
         stroke-width="2"
         d="M187.699,-478.59C197.241,-466.928 209.351,-452.127 219.805,-439.35"
         id="path328" />
      <polygon
         fill="black"
         stroke="black"
         stroke-width="2"
         points="222.768,-441.255 226.391,-431.299 217.35,-436.823 222.768,-441.255"
         id="polygon330" />
    </g>
    <!-- foo.3&#45;&gt;bar.3 -->
    <g
       id="edge16"
       class="edge">
      <title
         id="title333">foo.3-&gt;bar.3</title>
      <path
         fill="none"
         stroke="black"
         stroke-width="2"
         d="M226.301,-388.59C216.759,-376.928 204.649,-362.127 194.195,-349.35"
         id="path335" />
      <polygon
         fill="black"
         stroke="black"
         stroke-width="2"
         points="196.65,-346.823 187.609,-341.299 191.232,-351.255 196.65,-346.823"
         id="polygon337" />
    </g>
    <!-- foo.3&#45;&gt;baz.3 -->
    <g
       id="edge17"
       class="edge">
      <title
         id="title340">foo.3-&gt;baz.3</title>
      <path
         fill="none"
         stroke="black"
         stroke-width="2"
         d="M243,-383.073C243,-374.999 243,-365.943 243,-357.296"
         id="path342" />
      <polygon
         fill="black"
         stroke="black"
         stroke-width="2"
         points="246.5,-357.046 243,-347.046 239.5,-357.046 246.5,-357.046"
         id="polygon344" />
    </g>
    <!-- foo.4 -->
    <g
       id="node19"
       class="node">
      <title
         id="title347">foo.4</title>
      <g
         id="a_node19">
        <a
           xlink:href="foo.4"
           id="a350"
           xlink:title="foo\n4">
          <ellipse
             fill="floralwhite"
             stroke="black"
             stroke-width="2"
             cx="315"
             cy="-320"
             rx="27"
             ry="26.7407"
             id="ellipse352"
             d="m 342,-320 c 0,14.76848 -12.08831,26.7407 -27,26.7407 -14.91169,0 -27,-11.97222 -27,-26.7407 0,-14.76848 12.08831,-26.7407 27,-26.7407 14.91169,0 27,11.97222 27,26.7407 z" />
          <text
             text-anchor="middle"
             x="315"
             y="-323.8"
             font-family="Times,serif"
             font-size="14.00"
             id="text354">foo</text>
          <text
             text-anchor="middle"
             x="315"
             y="-308.8"
             font-family="Times,serif"
             font-size="14.00"
             id="text356">4</text>
        </a>
      </g>
    </g>
    <!-- foo.3&#45;&gt;foo.4 -->
    <g
       id="edge18"
       class="edge">
      <title
         id="title359">foo.3-&gt;foo.4</title>
      <path
         fill="none"
         stroke="black"
         stroke-width="2"
         d="M259.699,-388.59C269.241,-376.928 281.351,-362.127 291.805,-349.35"
         id="path361" />
      <polygon
         fill="black"
         stroke="black"
         stroke-width="2"
         points="294.768,-351.255 298.391,-341.299 289.35,-346.823 294.768,-351.255"
         id="polygon363" />
    </g>
    <!-- foo.4&#45;&gt;bar.4 -->
    <g
       id="edge19"
       class="edge">
      <title
         id="title366">foo.4-&gt;bar.4</title>
      <path
         fill="none"
         stroke="black"
         stroke-width="2"
         d="M298.301,-298.59C288.759,-286.928 276.649,-272.127 266.195,-259.35"
         id="path368" />
      <polygon
         fill="black"
         stroke="black"
         stroke-width="2"
         points="268.65,-256.823 259.609,-251.299 263.232,-261.255 268.65,-256.823"
         id="polygon370" />
    </g>
    <!-- foo.4&#45;&gt;baz.4 -->
    <g
       id="edge20"
       class="edge">
      <title
         id="title373">foo.4-&gt;baz.4</title>
      <path
         fill="none"
         stroke="black"
         stroke-width="2"
         d="M315,-293.073C315,-284.999 315,-275.943 315,-267.296"
         id="path375" />
      <polygon
         fill="black"
         stroke="black"
         stroke-width="2"
         points="318.5,-267.046 315,-257.046 311.5,-267.046 318.5,-267.046"
         id="polygon377" />
    </g>
    <!-- foo.5 -->
    <g
       id="node20"
       class="node">
      <title
         id="title380">foo.5</title>
      <g
         id="a_node20">
        <a
           xlink:href="foo.5"
           id="a383"
           xlink:title="foo\n5">
          <ellipse
             fill="floralwhite"
             stroke="black"
             stroke-width="2"
             cx="387"
             cy="-230"
             rx="27"
             ry="26.7407"
             id="ellipse385"
             d="m 414,-230 c 0,14.76848 -12.08831,26.7407 -27,26.7407 -14.91169,0 -27,-11.97222 -27,-26.7407 0,-14.76848 12.08831,-26.7407 27,-26.7407 14.91169,0 27,11.97222 27,26.7407 z" />
          <text
             text-anchor="middle"
             x="387"
             y="-233.8"
             font-family="Times,serif"
             font-size="14.00"
             id="text387">foo</text>
          <text
             text-anchor="middle"
             x="387"
             y="-218.8"
             font-family="Times,serif"
             font-size="14.00"
             id="text389">5</text>
        </a>
      </g>
    </g>
    <!-- foo.4&#45;&gt;foo.5 -->
    <g
       id="edge21"
       class="edge">
      <title
         id="title392">foo.4-&gt;foo.5</title>
      <path
         fill="none"
         stroke="black"
         stroke-width="2"
         d="M331.699,-298.59C341.241,-286.928 353.351,-272.127 363.805,-259.35"
         id="path394" />
      <polygon
         fill="black"
         stroke="black"
         stroke-width="2"
         points="366.768,-261.255 370.391,-251.299 361.35,-256.823 366.768,-261.255"
         id="polygon396" />
    </g>
    <!-- foo.5&#45;&gt;bar.5 -->
    <g
       id="edge22"
       class="edge">
      <title
         id="title399">foo.5-&gt;bar.5</title>
      <path
         fill="none"
         stroke="black"
         stroke-width="2"
         d="M377.163,-204.954C373.345,-195.621 368.906,-184.769 364.78,-174.683"
         id="path401" />
      <polygon
         fill="black"
         stroke="black"
         stroke-width="2"
         points="367.976,-173.253 360.95,-165.323 361.497,-175.904 367.976,-173.253"
         id="polygon403" />
    </g>
    <!-- foo.5&#45;&gt;baz.5 -->
    <g
       id="edge23"
       class="edge">
      <title
         id="title406">foo.5-&gt;baz.5</title>
      <path
         fill="none"
         stroke="black"
         stroke-width="2"
         d="M396.837,-204.954C400.655,-195.621 405.094,-184.769 409.22,-174.683"
         id="path408" />
      <polygon
         fill="black"
         stroke="black"
         stroke-width="2"
         points="412.503,-175.904 413.05,-165.323 406.024,-173.253 412.503,-175.904"
         id="polygon410" />
    </g>
    <!-- prep.1 -->
    <g
       id="node21"
       class="node">
      <title
         id="title413">prep.1</title>
      <g
         id="a_node21">
        <a
           xlink:href="prep.1"
           id="a416"
           xlink:title="prep\n1">
          <ellipse
             fill="floralwhite"
             stroke="black"
             stroke-width="2"
             cx="99"
             cy="-680"
             rx="28.4872"
             ry="26.7407"
             id="ellipse418"
             d="m 127.4872,-680 c 0,14.76848 -12.75415,26.7407 -28.4872,26.7407 -15.733046,0 -28.4872,-11.97222 -28.4872,-26.7407 0,-14.76848 12.754154,-26.7407 28.4872,-26.7407 15.73305,0 28.4872,11.97222 28.4872,26.7407 z" />
          <text
             text-anchor="middle"
             x="99"
             y="-683.8"
             font-family="Times,serif"
             font-size="14.00"
             id="text420">prep</text>
          <text
             text-anchor="middle"
             x="99"
             y="-668.8"
             font-family="Times,serif"
             font-size="14.00"
             id="text422">1</text>
        </a>
      </g>
    </g>
    <!-- prep.1&#45;&gt;foo.1 -->
    <g
       id="edge24"
       class="edge">
      <title
         id="title425">prep.1-&gt;foo.1</title>
      <path
         fill="none"
         stroke="black"
         stroke-width="2"
         d="M99,-653.073C99,-644.999 99,-635.943 99,-627.296"
         id="path427" />
      <polygon
         fill="black"
         stroke="black"
         stroke-width="2"
         points="102.5,-627.046 99,-617.046 95.5001,-627.046 102.5,-627.046"
         id="polygon429" />
    </g>
  </g>
</svg>
