<?xml version="1.0" encoding="UTF-8" standalone="no"?>
<!DOCTYPE svg PUBLIC "-//W3C//DTD SVG 1.1//EN"
 "http://www.w3.org/Graphics/SVG/1.1/DTD/svg11.dtd">
<!-- Generated by graphviz version 2.36.0 (20140111.2315)
 -->
<!-- Title: %3 Pages: 1 -->
<svg width="510pt" height="711pt"
 viewBox="0.00 0.00 510.00 711.00" xmlns="http://www.w3.org/2000/svg" xmlns:xlink="http://www.w3.org/1999/xlink">
<g id="graph0" class="graph" transform="scale(1 1) rotate(0) translate(4 707)">
<title>%3</title>
<polygon fill="white" stroke="none" points="-4,4 -4,-707 506,-707 506,4 -4,4"/>
<text text-anchor="middle" x="251" y="-7.8" font-family="Times,serif" font-size="14.00">foo</text>
<!-- bar.2010&#45;01 -->
<g id="node1" class="node"><title>bar.2010&#45;01</title>
<g id="a_node1"><a xlink:href="bar.2010-01" xlink:title="bar\n2010&#45;01">
<polygon fill="pink" stroke="black" stroke-width="2" points="61.5,-431 0.5,-431 0.5,-393 61.5,-393 61.5,-431"/>
<text text-anchor="middle" x="31" y="-415.8" font-family="Times,serif" font-size="14.00">bar</text>
<text text-anchor="middle" x="31" y="-400.8" font-family="Times,serif" font-size="14.00">2010&#45;01</text>
</a>
</g>
</g>
<!-- qux.2010&#45;01 -->
<g id="node2" class="node"><title>qux.2010&#45;01</title>
<g id="a_node2"><a xlink:href="qux.2010-01" xlink:title="qux\n2010&#45;01">
<polygon fill="cornsilk" stroke="black" stroke-width="2" points="61.5,-357 0.5,-357 0.5,-319 61.5,-319 61.5,-357"/>
<text text-anchor="middle" x="31" y="-341.8" font-family="Times,serif" font-size="14.00">qux</text>
<text text-anchor="middle" x="31" y="-326.8" font-family="Times,serif" font-size="14.00">2010&#45;01</text>
</a>
</g>
</g>
<!-- bar.2010&#45;01&#45;&gt;qux.2010&#45;01 -->
<g id="edge1" class="edge"><title>bar.2010&#45;01&#45;&gt;qux.2010&#45;01</title>
<path fill="none" stroke="black" stroke-width="2" d="M31,-392.831C31,-385.131 31,-375.974 31,-367.417"/>
<polygon fill="black" stroke="black" stroke-width="2" points="34.5001,-367.413 31,-357.413 27.5001,-367.413 34.5001,-367.413"/>
</g>
<!-- bar.2010&#45;02 -->
<g id="node3" class="node"><title>bar.2010&#45;02</title>
<g id="a_node3"><a xlink:href="bar.2010-02" xlink:title="bar\n2010&#45;02">
<polygon fill="pink" stroke="black" stroke-width="2" points="141.5,-357 80.5,-357 80.5,-319 141.5,-319 141.5,-357"/>
<text text-anchor="middle" x="111" y="-341.8" font-family="Times,serif" font-size="14.00">bar</text>
<text text-anchor="middle" x="111" y="-326.8" font-family="Times,serif" font-size="14.00">2010&#45;02</text>
</a>
</g>
</g>
<!-- qux.2010&#45;02 -->
<g id="node4" class="node"><title>qux.2010&#45;02</title>
<g id="a_node4"><a xlink:href="qux.2010-02" xlink:title="qux\n2010&#45;02">
<polygon fill="cornsilk" stroke="black" stroke-width="2" points="141.5,-283 80.5,-283 80.5,-245 141.5,-245 141.5,-283"/>
<text text-anchor="middle" x="111" y="-267.8" font-family="Times,serif" font-size="14.00">qux</text>
<text text-anchor="middle" x="111" y="-252.8" font-family="Times,serif" font-size="14.00">2010&#45;02</text>
</a>
</g>
</g>
<!-- bar.2010&#45;02&#45;&gt;qux.2010&#45;02 -->
<g id="edge2" class="edge"><title>bar.2010&#45;02&#45;&gt;qux.2010&#45;02</title>
<path fill="none" stroke="black" stroke-width="2" d="M111,-318.831C111,-311.131 111,-301.974 111,-293.417"/>
<polygon fill="black" stroke="black" stroke-width="2" points="114.5,-293.413 111,-283.413 107.5,-293.413 114.5,-293.413"/>
</g>
<!-- bar.2010&#45;03 -->
<g id="node5" class="node"><title>bar.2010&#45;03</title>
<g id="a_node5"><a xlink:href="bar.2010-03" xlink:title="bar\n2010&#45;03">
<polygon fill="pink" stroke="black" stroke-width="2" points="221.5,-283 160.5,-283 160.5,-245 221.5,-245 221.5,-283"/>
<text text-anchor="middle" x="191" y="-267.8" font-family="Times,serif" font-size="14.00">bar</text>
<text text-anchor="middle" x="191" y="-252.8" font-family="Times,serif" font-size="14.00">2010&#45;03</text>
</a>
</g>
</g>
<!-- qux.2010&#45;03 -->
<g id="node6" class="node"><title>qux.2010&#45;03</title>
<g id="a_node6"><a xlink:href="qux.2010-03" xlink:title="qux\n2010&#45;03">
<polygon fill="cornsilk" stroke="black" stroke-width="2" points="221.5,-209 160.5,-209 160.5,-171 221.5,-171 221.5,-209"/>
<text text-anchor="middle" x="191" y="-193.8" font-family="Times,serif" font-size="14.00">qux</text>
<text text-anchor="middle" x="191" y="-178.8" font-family="Times,serif" font-size="14.00">2010&#45;03</text>
</a>
</g>
</g>
<!-- bar.2010&#45;03&#45;&gt;qux.2010&#45;03 -->
<g id="edge3" class="edge"><title>bar.2010&#45;03&#45;&gt;qux.2010&#45;03</title>
<path fill="none" stroke="black" stroke-width="2" d="M191,-244.831C191,-237.131 191,-227.974 191,-219.417"/>
<polygon fill="black" stroke="black" stroke-width="2" points="194.5,-219.413 191,-209.413 187.5,-219.413 194.5,-219.413"/>
</g>
<!-- bar.2010&#45;04 -->
<g id="node7" class="node"><title>bar.2010&#45;04</title>
<g id="a_node7"><a xlink:href="bar.2010-04" xlink:title="bar\n2010&#45;04">
<polygon fill="pink" stroke="black" stroke-width="2" points="301.5,-209 240.5,-209 240.5,-171 301.5,-171 301.5,-209"/>
<text text-anchor="middle" x="271" y="-193.8" font-family="Times,serif" font-size="14.00">bar</text>
<text text-anchor="middle" x="271" y="-178.8" font-family="Times,serif" font-size="14.00">2010&#45;04</text>
</a>
</g>
</g>
<!-- qux.2010&#45;04 -->
<g id="node8" class="node"><title>qux.2010&#45;04</title>
<g id="a_node8"><a xlink:href="qux.2010-04" xlink:title="qux\n2010&#45;04">
<polygon fill="cornsilk" stroke="black" stroke-width="2" points="341.5,-135 280.5,-135 280.5,-97 341.5,-97 341.5,-135"/>
<text text-anchor="middle" x="311" y="-119.8" font-family="Times,serif" font-size="14.00">qux</text>
<text text-anchor="middle" x="311" y="-104.8" font-family="Times,serif" font-size="14.00">2010&#45;04</text>
</a>
</g>
</g>
<!-- bar.2010&#45;04&#45;&gt;qux.2010&#45;04 -->
<g id="edge4" class="edge"><title>bar.2010&#45;04&#45;&gt;qux.2010&#45;04</title>
<path fill="none" stroke="black" stroke-width="2" d="M281.094,-170.831C285.56,-162.792 290.907,-153.167 295.838,-144.292"/>
<polygon fill="black" stroke="black" stroke-width="2" points="298.973,-145.855 300.77,-135.413 292.854,-142.455 298.973,-145.855"/>
</g>
<!-- bar.2010&#45;05 -->
<g id="node9" class="node"><title>bar.2010&#45;05</title>
<g id="a_node9"><a xlink:href="bar.2010-05" xlink:title="bar\n2010&#45;05">
<polygon fill="pink" stroke="black" stroke-width="2" points="421.5,-135 360.5,-135 360.5,-97 421.5,-97 421.5,-135"/>
<text text-anchor="middle" x="391" y="-119.8" font-family="Times,serif" font-size="14.00">bar</text>
<text text-anchor="middle" x="391" y="-104.8" font-family="Times,serif" font-size="14.00">2010&#45;05</text>
</a>
</g>
</g>
<!-- qux.2010&#45;05 -->
<g id="node10" class="node"><title>qux.2010&#45;05</title>
<g id="a_node10"><a xlink:href="qux.2010-05" xlink:title="qux\n2010&#45;05">
<polygon fill="cornsilk" stroke="black" stroke-width="2" points="461.5,-61 400.5,-61 400.5,-23 461.5,-23 461.5,-61"/>
<text text-anchor="middle" x="431" y="-45.8" font-family="Times,serif" font-size="14.00">qux</text>
<text text-anchor="middle" x="431" y="-30.8" font-family="Times,serif" font-size="14.00">2010&#45;05</text>
</a>
</g>
</g>
<!-- bar.2010&#45;05&#45;&gt;qux.2010&#45;05 -->
<g id="edge5" class="edge"><title>bar.2010&#45;05&#45;&gt;qux.2010&#45;05</title>
<path fill="none" stroke="black" stroke-width="2" d="M401.094,-96.8314C405.56,-88.7925 410.907,-79.1666 415.838,-70.2918"/>
<polygon fill="black" stroke="black" stroke-width="2" points="418.973,-71.8546 420.77,-61.4133 412.854,-68.4551 418.973,-71.8546"/>
</g>
<!-- baz.2010&#45;01 -->
<g id="node11" class="node"><title>baz.2010&#45;01</title>
<g id="a_node11"><a xlink:href="baz.2010-01" xlink:title="baz\n2010&#45;01">
<polygon fill="none" stroke="black" stroke-width="2" points="141.5,-431 80.5,-431 80.5,-393 141.5,-393 141.5,-431"/>
<text text-anchor="middle" x="111" y="-415.8" font-family="Times,serif" font-size="14.00">baz</text>
<text text-anchor="middle" x="111" y="-400.8" font-family="Times,serif" font-size="14.00">2010&#45;01</text>
</a>
</g>
</g>
<!-- baz.2010&#45;01&#45;&gt;qux.2010&#45;01 -->
<g id="edge6" class="edge"><title>baz.2010&#45;01&#45;&gt;qux.2010&#45;01</title>
<path fill="none" stroke="black" stroke-width="2" d="M90.8126,-392.831C81.1486,-384.134 69.4204,-373.578 58.9184,-364.127"/>
<polygon fill="black" stroke="black" stroke-width="2" points="60.9553,-361.251 51.1809,-357.163 56.2725,-366.454 60.9553,-361.251"/>
</g>
<!-- baz.2010&#45;02 -->
<g id="node12" class="node"><title>baz.2010&#45;02</title>
<g id="a_node12"><a xlink:href="baz.2010-02" xlink:title="baz\n2010&#45;02">
<polygon fill="none" stroke="black" stroke-width="2" points="221.5,-357 160.5,-357 160.5,-319 221.5,-319 221.5,-357"/>
<text text-anchor="middle" x="191" y="-341.8" font-family="Times,serif" font-size="14.00">baz</text>
<text text-anchor="middle" x="191" y="-326.8" font-family="Times,serif" font-size="14.00">2010&#45;02</text>
</a>
</g>
</g>
<!-- baz.2010&#45;02&#45;&gt;qux.2010&#45;02 -->
<g id="edge7" class="edge"><title>baz.2010&#45;02&#45;&gt;qux.2010&#45;02</title>
<path fill="none" stroke="black" stroke-width="2" d="M170.813,-318.831C161.149,-310.134 149.42,-299.578 138.918,-290.127"/>
<polygon fill="black" stroke="black" stroke-width="2" points="140.955,-287.251 131.181,-283.163 136.272,-292.454 140.955,-287.251"/>
</g>
<!-- baz.2010&#45;03 -->
<g id="node13" class="node"><title>baz.2010&#45;03</title>
<g id="a_node13"><a xlink:href="baz.2010-03" xlink:title="baz\n2010&#45;03">
<polygon fill="none" stroke="black" stroke-width="2" points="301.5,-283 240.5,-283 240.5,-245 301.5,-245 301.5,-283"/>
<text text-anchor="middle" x="271" y="-267.8" font-family="Times,serif" font-size="14.00">baz</text>
<text text-anchor="middle" x="271" y="-252.8" font-family="Times,serif" font-size="14.00">2010&#45;03</text>
</a>
</g>
</g>
<!-- baz.2010&#45;03&#45;&gt;qux.2010&#45;03 -->
<g id="edge8" class="edge"><title>baz.2010&#45;03&#45;&gt;qux.2010&#45;03</title>
<path fill="none" stroke="black" stroke-width="2" d="M250.813,-244.831C241.149,-236.134 229.42,-225.578 218.918,-216.127"/>
<polygon fill="black" stroke="black" stroke-width="2" points="220.955,-213.251 211.181,-209.163 216.272,-218.454 220.955,-213.251"/>
</g>
<!-- baz.2010&#45;04 -->
<g id="node14" class="node"><title>baz.2010&#45;04</title>
<g id="a_node14"><a xlink:href="baz.2010-04" xlink:title="baz\n2010&#45;04">
<polygon fill="none" stroke="black" stroke-width="2" points="381.5,-209 320.5,-209 320.5,-171 381.5,-171 381.5,-209"/>
<text text-anchor="middle" x="351" y="-193.8" font-family="Times,serif" font-size="14.00">baz</text>
<text text-anchor="middle" x="351" y="-178.8" font-family="Times,serif" font-size="14.00">2010&#45;04</text>
</a>
</g>
</g>
<!-- baz.2010&#45;04&#45;&gt;qux.2010&#45;04 -->
<g id="edge9" class="edge"><title>baz.2010&#45;04&#45;&gt;qux.2010&#45;04</title>
<path fill="none" stroke="black" stroke-width="2" d="M340.906,-170.831C336.44,-162.792 331.093,-153.167 326.162,-144.292"/>
<polygon fill="black" stroke="black" stroke-width="2" points="329.146,-142.455 321.23,-135.413 323.027,-145.855 329.146,-142.455"/>
</g>
<!-- baz.2010&#45;05 -->
<g id="node15" class="node"><title>baz.2010&#45;05</title>
<g id="a_node15"><a xlink:href="baz.2010-05" xlink:title="baz\n2010&#45;05">
<polygon fill="none" stroke="black" stroke-width="2" points="501.5,-135 440.5,-135 440.5,-97 501.5,-97 501.5,-135"/>
<text text-anchor="middle" x="471" y="-119.8" font-family="Times,serif" font-size="14.00">baz</text>
<text text-anchor="middle" x="471" y="-104.8" font-family="Times,serif" font-size="14.00">2010&#45;05</text>
</a>
</g>
</g>
<!-- baz.2010&#45;05&#45;&gt;qux.2010&#45;05 -->
<g id="edge10" class="edge"><title>baz.2010&#45;05&#45;&gt;qux.2010&#45;05</title>
<path fill="none" stroke="black" stroke-width="2" d="M460.906,-96.8314C456.44,-88.7925 451.093,-79.1666 446.162,-70.2918"/>
<polygon fill="black" stroke="black" stroke-width="2" points="449.146,-68.4551 441.23,-61.4133 443.027,-71.8546 449.146,-68.4551"/>
</g>
<!-- foo.2010&#45;01 -->
<g id="node16" class="node"><title>foo.2010&#45;01</title>
<g id="a_node16"><a xlink:href="foo.2010-01" xlink:title="foo\n2010&#45;01">
<polygon fill="paleturquoise" stroke="black" stroke-width="2" points="141.5,-505 80.5,-505 80.5,-467 141.5,-467 141.5,-505"/>
<text text-anchor="middle" x="111" y="-489.8" font-family="Times,serif" font-size="14.00">foo</text>
<text text-anchor="middle" x="111" y="-474.8" font-family="Times,serif" font-size="14.00">2010&#45;01</text>
</a>
</g>
</g>
<!-- foo.2010&#45;01&#45;&gt;bar.2010&#45;01 -->
<g id="edge11" class="edge"><title>foo.2010&#45;01&#45;&gt;bar.2010&#45;01</title>
<path fill="none" stroke="black" stroke-width="2" d="M90.8126,-466.831C81.1486,-458.134 69.4204,-447.578 58.9184,-438.127"/>
<polygon fill="black" stroke="black" stroke-width="2" points="60.9553,-435.251 51.1809,-431.163 56.2725,-440.454 60.9553,-435.251"/>
</g>
<!-- foo.2010&#45;01&#45;&gt;baz.2010&#45;01 -->
<g id="edge12" class="edge"><title>foo.2010&#45;01&#45;&gt;baz.2010&#45;01</title>
<path fill="none" stroke="black" stroke-width="2" d="M111,-466.831C111,-459.131 111,-449.974 111,-441.417"/>
<polygon fill="black" stroke="black" stroke-width="2" points="114.5,-441.413 111,-431.413 107.5,-441.413 114.5,-441.413"/>
</g>
<!-- foo.2010&#45;02 -->
<g id="node17" class="node"><title>foo.2010&#45;02</title>
<g id="a_node17"><a xlink:href="foo.2010-02" xlink:title="foo\n2010&#45;02">
<polygon fill="paleturquoise" stroke="black" stroke-width="2" points="221.5,-431 160.5,-431 160.5,-393 221.5,-393 221.5,-431"/>
<text text-anchor="middle" x="191" y="-415.8" font-family="Times,serif" font-size="14.00">foo</text>
<text text-anchor="middle" x="191" y="-400.8" font-family="Times,serif" font-size="14.00">2010&#45;02</text>
</a>
</g>
</g>
<!-- foo.2010&#45;01&#45;&gt;foo.2010&#45;02 -->
<g id="edge13" class="edge"><title>foo.2010&#45;01&#45;&gt;foo.2010&#45;02</title>
<path fill="none" stroke="black" stroke-width="2" d="M131.187,-466.831C140.851,-458.134 152.58,-447.578 163.082,-438.127"/>
<polygon fill="black" stroke="black" stroke-width="2" points="165.728,-440.454 170.819,-431.163 161.045,-435.251 165.728,-440.454"/>
</g>
<!-- foo.2010&#45;02&#45;&gt;bar.2010&#45;02 -->
<g id="edge14" class="edge"><title>foo.2010&#45;02&#45;&gt;bar.2010&#45;02</title>
<path fill="none" stroke="black" stroke-width="2" d="M170.813,-392.831C161.149,-384.134 149.42,-373.578 138.918,-364.127"/>
<polygon fill="black" stroke="black" stroke-width="2" points="140.955,-361.251 131.181,-357.163 136.272,-366.454 140.955,-361.251"/>
</g>
<!-- foo.2010&#45;02&#45;&gt;baz.2010&#45;02 -->
<g id="edge15" class="edge"><title>foo.2010&#45;02&#45;&gt;baz.2010&#45;02</title>
<path fill="none" stroke="black" stroke-width="2" d="M191,-392.831C191,-385.131 191,-375.974 191,-367.417"/>
<polygon fill="black" stroke="black" stroke-width="2" points="194.5,-367.413 191,-357.413 187.5,-367.413 194.5,-367.413"/>
</g>
<!-- foo.2010&#45;03 -->
<g id="node18" class="node"><title>foo.2010&#45;03</title>
<g id="a_node18"><a xlink:href="foo.2010-03" xlink:title="foo\n2010&#45;03">
<polygon fill="paleturquoise" stroke="black" stroke-width="2" points="301.5,-357 240.5,-357 240.5,-319 301.5,-319 301.5,-357"/>
<text text-anchor="middle" x="271" y="-341.8" font-family="Times,serif" font-size="14.00">foo</text>
<text text-anchor="middle" x="271" y="-326.8" font-family="Times,serif" font-size="14.00">2010&#45;03</text>
</a>
</g>
</g>
<!-- foo.2010&#45;02&#45;&gt;foo.2010&#45;03 -->
<g id="edge16" class="edge"><title>foo.2010&#45;02&#45;&gt;foo.2010&#45;03</title>
<path fill="none" stroke="black" stroke-width="2" d="M211.187,-392.831C220.851,-384.134 232.58,-373.578 243.082,-364.127"/>
<polygon fill="black" stroke="black" stroke-width="2" points="245.728,-366.454 250.819,-357.163 241.045,-361.251 245.728,-366.454"/>
</g>
<!-- foo.2010&#45;03&#45;&gt;bar.2010&#45;03 -->
<g id="edge17" class="edge"><title>foo.2010&#45;03&#45;&gt;bar.2010&#45;03</title>
<path fill="none" stroke="black" stroke-width="2" d="M250.813,-318.831C241.149,-310.134 229.42,-299.578 218.918,-290.127"/>
<polygon fill="black" stroke="black" stroke-width="2" points="220.955,-287.251 211.181,-283.163 216.272,-292.454 220.955,-287.251"/>
</g>
<!-- foo.2010&#45;03&#45;&gt;baz.2010&#45;03 -->
<g id="edge18" class="edge"><title>foo.2010&#45;03&#45;&gt;baz.2010&#45;03</title>
<path fill="none" stroke="black" stroke-width="2" d="M271,-318.831C271,-311.131 271,-301.974 271,-293.417"/>
<polygon fill="black" stroke="black" stroke-width="2" points="274.5,-293.413 271,-283.413 267.5,-293.413 274.5,-293.413"/>
</g>
<!-- foo.2010&#45;04 -->
<g id="node19" class="node"><title>foo.2010&#45;04</title>
<g id="a_node19"><a xlink:href="foo.2010-04" xlink:title="foo\n2010&#45;04">
<polygon fill="paleturquoise" stroke="black" stroke-width="2" points="381.5,-283 320.5,-283 320.5,-245 381.5,-245 381.5,-283"/>
<text text-anchor="middle" x="351" y="-267.8" font-family="Times,serif" font-size="14.00">foo</text>
<text text-anchor="middle" x="351" y="-252.8" font-family="Times,serif" font-size="14.00">2010&#45;04</text>
</a>
</g>
</g>
<!-- foo.2010&#45;03&#45;&gt;foo.2010&#45;04 -->
<g id="edge19" class="edge"><title>foo.2010&#45;03&#45;&gt;foo.2010&#45;04</title>
<path fill="none" stroke="black" stroke-width="2" d="M291.187,-318.831C300.851,-310.134 312.58,-299.578 323.082,-290.127"/>
<polygon fill="black" stroke="black" stroke-width="2" points="325.728,-292.454 330.819,-283.163 321.045,-287.251 325.728,-292.454"/>
</g>
<!-- foo.2010&#45;04&#45;&gt;bar.2010&#45;04 -->
<g id="edge20" class="edge"><title>foo.2010&#45;04&#45;&gt;bar.2010&#45;04</title>
<path fill="none" stroke="black" stroke-width="2" d="M330.813,-244.831C321.149,-236.134 309.42,-225.578 298.918,-216.127"/>
<polygon fill="black" stroke="black" stroke-width="2" points="300.955,-213.251 291.181,-209.163 296.272,-218.454 300.955,-213.251"/>
</g>
<!-- foo.2010&#45;04&#45;&gt;baz.2010&#45;04 -->
<g id="edge21" class="edge"><title>foo.2010&#45;04&#45;&gt;baz.2010&#45;04</title>
<path fill="none" stroke="black" stroke-width="2" d="M351,-244.831C351,-237.131 351,-227.974 351,-219.417"/>
<polygon fill="black" stroke="black" stroke-width="2" points="354.5,-219.413 351,-209.413 347.5,-219.413 354.5,-219.413"/>
</g>
<!-- foo.2010&#45;05 -->
<g id="node20" class="node"><title>foo.2010&#45;05</title>
<g id="a_node20"><a xlink:href="foo.2010-05" xlink:title="foo\n2010&#45;05">
<polygon fill="paleturquoise" stroke="black" stroke-width="2" points="461.5,-209 400.5,-209 400.5,-171 461.5,-171 461.5,-209"/>
<text text-anchor="middle" x="431" y="-193.8" font-family="Times,serif" font-size="14.00">foo</text>
<text text-anchor="middle" x="431" y="-178.8" font-family="Times,serif" font-size="14.00">2010&#45;05</text>
</a>
</g>
</g>
<!-- foo.2010&#45;04&#45;&gt;foo.2010&#45;05 -->
<g id="edge22" class="edge"><title>foo.2010&#45;04&#45;&gt;foo.2010&#45;05</title>
<path fill="none" stroke="black" stroke-width="2" d="M371.187,-244.831C380.851,-236.134 392.58,-225.578 403.082,-216.127"/>
<polygon fill="black" stroke="black" stroke-width="2" points="405.728,-218.454 410.819,-209.163 401.045,-213.251 405.728,-218.454"/>
</g>
<!-- foo.2010&#45;05&#45;&gt;bar.2010&#45;05 -->
<g id="edge23" class="edge"><title>foo.2010&#45;05&#45;&gt;bar.2010&#45;05</title>
<path fill="none" stroke="black" stroke-width="2" d="M420.906,-170.831C416.44,-162.792 411.093,-153.167 406.162,-144.292"/>
<polygon fill="black" stroke="black" stroke-width="2" points="409.146,-142.455 401.23,-135.413 403.027,-145.855 409.146,-142.455"/>
</g>
<!-- foo.2010&#45;05&#45;&gt;baz.2010&#45;05 -->
<g id="edge24" class="edge"><title>foo.2010&#45;05&#45;&gt;baz.2010&#45;05</title>
<path fill="none" stroke="black" stroke-width="2" d="M441.094,-170.831C445.56,-162.792 450.907,-153.167 455.838,-144.292"/>
<polygon fill="black" stroke="black" stroke-width="2" points="458.973,-145.855 460.77,-135.413 452.854,-142.455 458.973,-145.855"/>
</g>
<!-- prep.2010&#45;01 -->
<g id="node21" class="node"><title>prep.2010&#45;01</title>
<g id="a_node21"><a xlink:href="prep.2010-01" xlink:title="prep\n2010&#45;01">
<polygon fill="yellow" stroke="black" stroke-width="2" points="195.441,-640.997 130.934,-640.997 111,-702.471 91.0663,-640.997 26.5594,-640.997 78.7466,-603.003 58.8128,-541.529 111,-579.522 163.187,-541.529 143.253,-603.003 195.441,-640.997"/>
<text text-anchor="middle" x="111" y="-625.8" font-family="Times,serif" font-size="14.00">prep</text>
<text text-anchor="middle" x="111" y="-610.8" font-family="Times,serif" font-size="14.00">2010&#45;01</text>
</a>
</g>
</g>
<!-- prep.2010&#45;01&#45;&gt;foo.2010&#45;01 -->
<g id="edge25" class="edge"><title>prep.2010&#45;01&#45;&gt;foo.2010&#45;01</title>
<path fill="none" stroke="black" stroke-width="2" d="M111,-579.336C111,-558.528 111,-533.896 111,-515.308"/>
<polygon fill="black" stroke="black" stroke-width="2" points="114.5,-515.137 111,-505.137 107.5,-515.137 114.5,-515.137"/>
</g>
</g>
</svg>
