<?xml version="1.0" encoding="UTF-8" standalone="no"?>
<!DOCTYPE svg PUBLIC "-//W3C//DTD SVG 1.1//EN"
 "http://www.w3.org/Graphics/SVG/1.1/DTD/svg11.dtd">
<!-- Generated by graphviz version 2.36.0 (20140111.2315)
 -->
<!-- Title: %3 Pages: 1 -->
<svg width="874pt" height="874pt"
 viewBox="0.00 0.00 874.00 874.00" xmlns="http://www.w3.org/2000/svg" xmlns:xlink="http://www.w3.org/1999/xlink">
<g id="graph0" class="graph" transform="scale(1 1) rotate(0) translate(4 870)">
<title>%3</title>
<polygon fill="white" stroke="none" points="-4,4 -4,-870 870,-870 870,4 -4,4"/>
<text text-anchor="middle" x="433" y="-7.8" font-family="Times,serif" font-size="14.00">foo</text>
<g id="clust1" class="cluster"><title>cluster_2010&#45;05</title>
<polygon fill="none" stroke="black" stroke-dasharray="5,2" points="700,-31 700,-272 858,-272 858,-31 700,-31"/>
<text text-anchor="middle" x="779" y="-245.6" font-family="Times,serif" font-size="28.00">2010&#45;05</text>
</g>
<g id="clust2" class="cluster"><title>cluster_2010&#45;04</title>
<polygon fill="none" stroke="black" stroke-dasharray="5,2" points="534,-105 534,-373 692,-373 692,-105 534,-105"/>
<text text-anchor="middle" x="613" y="-346.6" font-family="Times,serif" font-size="28.00">2010&#45;04</text>
</g>
<g id="clust3" class="cluster"><title>cluster_2010&#45;01</title>
<polygon fill="none" stroke="black" stroke-dasharray="5,2" points="8,-381 8,-858 194,-858 194,-381 8,-381"/>
<text text-anchor="middle" x="101" y="-831.6" font-family="Times,serif" font-size="28.00">2010&#45;01</text>
</g>
<g id="clust4" class="cluster"><title>cluster_2010&#45;03</title>
<polygon fill="none" stroke="black" stroke-dasharray="5,2" points="368,-179 368,-474 526,-474 526,-179 368,-179"/>
<text text-anchor="middle" x="447" y="-447.6" font-family="Times,serif" font-size="28.00">2010&#45;03</text>
</g>
<g id="clust5" class="cluster"><title>cluster_2010&#45;02</title>
<polygon fill="none" stroke="black" stroke-dasharray="5,2" points="202,-280 202,-567 360,-567 360,-280 202,-280"/>
<text text-anchor="middle" x="281" y="-540.6" font-family="Times,serif" font-size="28.00">2010&#45;02</text>
</g>
<!-- bar.2010&#45;05 -->
<g id="node1" class="node"><title>bar.2010&#45;05</title>
<g id="a_node1"><a xlink:href="bar.2010-05" xlink:title="bar\n2010&#45;05">
<polygon fill="pink" stroke="black" stroke-width="2" points="769.5,-151 708.5,-151 708.5,-113 769.5,-113 769.5,-151"/>
<text text-anchor="middle" x="739" y="-135.8" font-family="Times,serif" font-size="14.00">bar</text>
<text text-anchor="middle" x="739" y="-120.8" font-family="Times,serif" font-size="14.00">2010&#45;05</text>
</a>
</g>
</g>
<!-- qux.2010&#45;05 -->
<g id="node2" class="node"><title>qux.2010&#45;05</title>
<g id="a_node2"><a xlink:href="qux.2010-05" xlink:title="qux\n2010&#45;05">
<polygon fill="cornsilk" stroke="black" stroke-width="2" points="809.5,-77 748.5,-77 748.5,-39 809.5,-39 809.5,-77"/>
<text text-anchor="middle" x="779" y="-61.8" font-family="Times,serif" font-size="14.00">qux</text>
<text text-anchor="middle" x="779" y="-46.8" font-family="Times,serif" font-size="14.00">2010&#45;05</text>
</a>
</g>
</g>
<!-- bar.2010&#45;05&#45;&gt;qux.2010&#45;05 -->
<g id="edge5" class="edge"><title>bar.2010&#45;05&#45;&gt;qux.2010&#45;05</title>
<path fill="none" stroke="black" stroke-width="2" d="M749.094,-112.831C753.56,-104.792 758.907,-95.1666 763.838,-86.2918"/>
<polygon fill="black" stroke="black" stroke-width="2" points="766.973,-87.8546 768.77,-77.4133 760.854,-84.4551 766.973,-87.8546"/>
</g>
<!-- baz.2010&#45;05 -->
<g id="node3" class="node"><title>baz.2010&#45;05</title>
<g id="a_node3"><a xlink:href="baz.2010-05" xlink:title="baz\n2010&#45;05">
<polygon fill="none" stroke="black" stroke-width="2" points="849.5,-151 788.5,-151 788.5,-113 849.5,-113 849.5,-151"/>
<text text-anchor="middle" x="819" y="-135.8" font-family="Times,serif" font-size="14.00">baz</text>
<text text-anchor="middle" x="819" y="-120.8" font-family="Times,serif" font-size="14.00">2010&#45;05</text>
</a>
</g>
</g>
<!-- baz.2010&#45;05&#45;&gt;qux.2010&#45;05 -->
<g id="edge10" class="edge"><title>baz.2010&#45;05&#45;&gt;qux.2010&#45;05</title>
<path fill="none" stroke="black" stroke-width="2" d="M808.906,-112.831C804.44,-104.792 799.093,-95.1666 794.162,-86.2918"/>
<polygon fill="black" stroke="black" stroke-width="2" points="797.146,-84.4551 789.23,-77.4133 791.027,-87.8546 797.146,-84.4551"/>
</g>
<!-- foo.2010&#45;05 -->
<g id="node4" class="node"><title>foo.2010&#45;05</title>
<g id="a_node4"><a xlink:href="foo.2010-05" xlink:title="foo\n2010&#45;05">
<polygon fill="paleturquoise" stroke="black" stroke-width="2" points="769.5,-225 708.5,-225 708.5,-187 769.5,-187 769.5,-225"/>
<text text-anchor="middle" x="739" y="-209.8" font-family="Times,serif" font-size="14.00">foo</text>
<text text-anchor="middle" x="739" y="-194.8" font-family="Times,serif" font-size="14.00">2010&#45;05</text>
</a>
</g>
</g>
<!-- foo.2010&#45;05&#45;&gt;bar.2010&#45;05 -->
<g id="edge23" class="edge"><title>foo.2010&#45;05&#45;&gt;bar.2010&#45;05</title>
<path fill="none" stroke="black" stroke-width="2" d="M739,-186.831C739,-179.131 739,-169.974 739,-161.417"/>
<polygon fill="black" stroke="black" stroke-width="2" points="742.5,-161.413 739,-151.413 735.5,-161.413 742.5,-161.413"/>
</g>
<!-- foo.2010&#45;05&#45;&gt;baz.2010&#45;05 -->
<g id="edge24" class="edge"><title>foo.2010&#45;05&#45;&gt;baz.2010&#45;05</title>
<path fill="none" stroke="black" stroke-width="2" d="M759.187,-186.831C768.851,-178.134 780.58,-167.578 791.082,-158.127"/>
<polygon fill="black" stroke="black" stroke-width="2" points="793.728,-160.454 798.819,-151.163 789.045,-155.251 793.728,-160.454"/>
</g>
<!-- bar.2010&#45;04 -->
<g id="node5" class="node"><title>bar.2010&#45;04</title>
<g id="a_node5"><a xlink:href="bar.2010-04" xlink:title="bar\n2010&#45;04">
<polygon fill="pink" stroke="black" stroke-width="2" points="603.5,-225 542.5,-225 542.5,-187 603.5,-187 603.5,-225"/>
<text text-anchor="middle" x="573" y="-209.8" font-family="Times,serif" font-size="14.00">bar</text>
<text text-anchor="middle" x="573" y="-194.8" font-family="Times,serif" font-size="14.00">2010&#45;04</text>
</a>
</g>
</g>
<!-- qux.2010&#45;04 -->
<g id="node6" class="node"><title>qux.2010&#45;04</title>
<g id="a_node6"><a xlink:href="qux.2010-04" xlink:title="qux\n2010&#45;04">
<polygon fill="cornsilk" stroke="black" stroke-width="2" points="643.5,-151 582.5,-151 582.5,-113 643.5,-113 643.5,-151"/>
<text text-anchor="middle" x="613" y="-135.8" font-family="Times,serif" font-size="14.00">qux</text>
<text text-anchor="middle" x="613" y="-120.8" font-family="Times,serif" font-size="14.00">2010&#45;04</text>
</a>
</g>
</g>
<!-- bar.2010&#45;04&#45;&gt;qux.2010&#45;04 -->
<g id="edge4" class="edge"><title>bar.2010&#45;04&#45;&gt;qux.2010&#45;04</title>
<path fill="none" stroke="black" stroke-width="2" d="M583.094,-186.831C587.56,-178.792 592.907,-169.167 597.838,-160.292"/>
<polygon fill="black" stroke="black" stroke-width="2" points="600.973,-161.855 602.77,-151.413 594.854,-158.455 600.973,-161.855"/>
</g>
<!-- baz.2010&#45;04 -->
<g id="node7" class="node"><title>baz.2010&#45;04</title>
<g id="a_node7"><a xlink:href="baz.2010-04" xlink:title="baz\n2010&#45;04">
<polygon fill="none" stroke="black" stroke-width="2" points="683.5,-225 622.5,-225 622.5,-187 683.5,-187 683.5,-225"/>
<text text-anchor="middle" x="653" y="-209.8" font-family="Times,serif" font-size="14.00">baz</text>
<text text-anchor="middle" x="653" y="-194.8" font-family="Times,serif" font-size="14.00">2010&#45;04</text>
</a>
</g>
</g>
<!-- baz.2010&#45;04&#45;&gt;qux.2010&#45;04 -->
<g id="edge9" class="edge"><title>baz.2010&#45;04&#45;&gt;qux.2010&#45;04</title>
<path fill="none" stroke="black" stroke-width="2" d="M642.906,-186.831C638.44,-178.792 633.093,-169.167 628.162,-160.292"/>
<polygon fill="black" stroke="black" stroke-width="2" points="631.146,-158.455 623.23,-151.413 625.027,-161.855 631.146,-158.455"/>
</g>
<!-- foo.2010&#45;04 -->
<g id="node8" class="node"><title>foo.2010&#45;04</title>
<g id="a_node8"><a xlink:href="foo.2010-04" xlink:title="foo\n2010&#45;04">
<polygon fill="paleturquoise" stroke="black" stroke-width="2" points="643.5,-326 582.5,-326 582.5,-288 643.5,-288 643.5,-326"/>
<text text-anchor="middle" x="613" y="-310.8" font-family="Times,serif" font-size="14.00">foo</text>
<text text-anchor="middle" x="613" y="-295.8" font-family="Times,serif" font-size="14.00">2010&#45;04</text>
</a>
</g>
</g>
<!-- foo.2010&#45;04&#45;&gt;foo.2010&#45;05 -->
<g id="edge22" class="edge"><title>foo.2010&#45;04&#45;&gt;foo.2010&#45;05</title>
<path fill="none" stroke="black" stroke-width="2" d="M643.742,-298.235C660.494,-292.883 680.837,-284.452 696,-272 708.453,-261.773 718.625,-246.994 725.944,-234.112"/>
<polygon fill="black" stroke="black" stroke-width="2" points="729.105,-235.624 730.761,-225.159 722.941,-232.307 729.105,-235.624"/>
</g>
<!-- foo.2010&#45;04&#45;&gt;bar.2010&#45;04 -->
<g id="edge20" class="edge"><title>foo.2010&#45;04&#45;&gt;bar.2010&#45;04</title>
<path fill="none" stroke="black" stroke-width="2" d="M605.663,-287.842C599.63,-272.91 590.985,-251.513 584.104,-234.484"/>
<polygon fill="black" stroke="black" stroke-width="2" points="587.281,-233.004 580.29,-225.043 580.791,-235.626 587.281,-233.004"/>
</g>
<!-- foo.2010&#45;04&#45;&gt;baz.2010&#45;04 -->
<g id="edge21" class="edge"><title>foo.2010&#45;04&#45;&gt;baz.2010&#45;04</title>
<path fill="none" stroke="black" stroke-width="2" d="M620.337,-287.842C626.37,-272.91 635.015,-251.513 641.896,-234.484"/>
<polygon fill="black" stroke="black" stroke-width="2" points="645.209,-235.626 645.71,-225.043 638.719,-233.004 645.209,-235.626"/>
</g>
<!-- bar.2010&#45;01 -->
<g id="node9" class="node"><title>bar.2010&#45;01</title>
<g id="a_node9"><a xlink:href="bar.2010-01" xlink:title="bar\n2010&#45;01">
<polygon fill="pink" stroke="black" stroke-width="2" points="91.5,-520 30.5,-520 30.5,-482 91.5,-482 91.5,-520"/>
<text text-anchor="middle" x="61" y="-504.8" font-family="Times,serif" font-size="14.00">bar</text>
<text text-anchor="middle" x="61" y="-489.8" font-family="Times,serif" font-size="14.00">2010&#45;01</text>
</a>
</g>
</g>
<!-- qux.2010&#45;01 -->
<g id="node10" class="node"><title>qux.2010&#45;01</title>
<g id="a_node10"><a xlink:href="qux.2010-01" xlink:title="qux\n2010&#45;01">
<polygon fill="cornsilk" stroke="black" stroke-width="2" points="131.5,-427 70.5,-427 70.5,-389 131.5,-389 131.5,-427"/>
<text text-anchor="middle" x="101" y="-411.8" font-family="Times,serif" font-size="14.00">qux</text>
<text text-anchor="middle" x="101" y="-396.8" font-family="Times,serif" font-size="14.00">2010&#45;01</text>
</a>
</g>
</g>
<!-- bar.2010&#45;01&#45;&gt;qux.2010&#45;01 -->
<g id="edge1" class="edge"><title>bar.2010&#45;01&#45;&gt;qux.2010&#45;01</title>
<path fill="none" stroke="black" stroke-width="2" d="M69.0946,-481.585C74.7703,-468.673 82.4572,-451.185 88.8637,-436.61"/>
<polygon fill="black" stroke="black" stroke-width="2" points="92.234,-437.64 93.054,-427.077 85.8258,-434.823 92.234,-437.64"/>
</g>
<!-- baz.2010&#45;01 -->
<g id="node11" class="node"><title>baz.2010&#45;01</title>
<g id="a_node11"><a xlink:href="baz.2010-01" xlink:title="baz\n2010&#45;01">
<polygon fill="none" stroke="black" stroke-width="2" points="171.5,-520 110.5,-520 110.5,-482 171.5,-482 171.5,-520"/>
<text text-anchor="middle" x="141" y="-504.8" font-family="Times,serif" font-size="14.00">baz</text>
<text text-anchor="middle" x="141" y="-489.8" font-family="Times,serif" font-size="14.00">2010&#45;01</text>
</a>
</g>
</g>
<!-- baz.2010&#45;01&#45;&gt;qux.2010&#45;01 -->
<g id="edge6" class="edge"><title>baz.2010&#45;01&#45;&gt;qux.2010&#45;01</title>
<path fill="none" stroke="black" stroke-width="2" d="M132.905,-481.585C127.23,-468.673 119.543,-451.185 113.136,-436.61"/>
<polygon fill="black" stroke="black" stroke-width="2" points="116.174,-434.823 108.946,-427.077 109.766,-437.64 116.174,-434.823"/>
</g>
<!-- foo.2010&#45;01 -->
<g id="node12" class="node"><title>foo.2010&#45;01</title>
<g id="a_node12"><a xlink:href="foo.2010-01" xlink:title="foo\n2010&#45;01">
<polygon fill="paleturquoise" stroke="black" stroke-width="2" points="151.5,-613 90.5,-613 90.5,-575 151.5,-575 151.5,-613"/>
<text text-anchor="middle" x="121" y="-597.8" font-family="Times,serif" font-size="14.00">foo</text>
<text text-anchor="middle" x="121" y="-582.8" font-family="Times,serif" font-size="14.00">2010&#45;01</text>
</a>
</g>
</g>
<!-- foo.2010&#45;01&#45;&gt;bar.2010&#45;01 -->
<g id="edge11" class="edge"><title>foo.2010&#45;01&#45;&gt;bar.2010&#45;01</title>
<path fill="none" stroke="black" stroke-width="2" d="M106.767,-574.995C104.786,-572.346 102.81,-569.625 101,-567 92.5485,-554.743 83.8104,-540.724 76.6652,-528.851"/>
<polygon fill="black" stroke="black" stroke-width="2" points="79.6684,-527.054 71.5429,-520.254 73.655,-530.637 79.6684,-527.054"/>
</g>
<!-- foo.2010&#45;01&#45;&gt;baz.2010&#45;01 -->
<g id="edge12" class="edge"><title>foo.2010&#45;01&#45;&gt;baz.2010&#45;01</title>
<path fill="none" stroke="black" stroke-width="2" d="M125.047,-574.585C127.858,-561.797 131.655,-544.521 134.839,-530.031"/>
<polygon fill="black" stroke="black" stroke-width="2" points="138.299,-530.595 137.027,-520.077 131.462,-529.093 138.299,-530.595"/>
</g>
<!-- foo.2010&#45;02 -->
<g id="node21" class="node"><title>foo.2010&#45;02</title>
<g id="a_node21"><a xlink:href="foo.2010-02" xlink:title="foo\n2010&#45;02">
<polygon fill="paleturquoise" stroke="black" stroke-width="2" points="311.5,-520 250.5,-520 250.5,-482 311.5,-482 311.5,-520"/>
<text text-anchor="middle" x="281" y="-504.8" font-family="Times,serif" font-size="14.00">foo</text>
<text text-anchor="middle" x="281" y="-489.8" font-family="Times,serif" font-size="14.00">2010&#45;02</text>
</a>
</g>
</g>
<!-- foo.2010&#45;01&#45;&gt;foo.2010&#45;02 -->
<g id="edge13" class="edge"><title>foo.2010&#45;01&#45;&gt;foo.2010&#45;02</title>
<path fill="none" stroke="black" stroke-width="2" d="M151.603,-585.264C166.141,-580.947 183.473,-574.842 198,-567 218.298,-556.042 238.727,-540.12 254.238,-526.777"/>
<polygon fill="black" stroke="black" stroke-width="2" points="256.668,-529.301 261.874,-520.074 252.05,-524.04 256.668,-529.301"/>
</g>
<!-- prep.2010&#45;01 -->
<g id="node13" class="node"><title>prep.2010&#45;01</title>
<g id="a_node13"><a xlink:href="prep.2010-01" xlink:title="prep\n2010&#45;01">
<polygon fill="yellow" stroke="black" stroke-width="2" points="185.441,-748.997 120.934,-748.997 101,-810.471 81.0663,-748.997 16.5594,-748.997 68.7466,-711.003 48.8128,-649.529 101,-687.522 153.187,-649.529 133.253,-711.003 185.441,-748.997"/>
<text text-anchor="middle" x="101" y="-733.8" font-family="Times,serif" font-size="14.00">prep</text>
<text text-anchor="middle" x="101" y="-718.8" font-family="Times,serif" font-size="14.00">2010&#45;01</text>
</a>
</g>
</g>
<!-- prep.2010&#45;01&#45;&gt;foo.2010&#45;01 -->
<g id="edge25" class="edge"><title>prep.2010&#45;01&#45;&gt;foo.2010&#45;01</title>
<path fill="none" stroke="black" stroke-width="2" d="M107.995,-682.133C110.943,-662.383 114.275,-640.06 116.828,-622.953"/>
<polygon fill="black" stroke="black" stroke-width="2" points="120.292,-623.453 118.307,-613.046 113.369,-622.419 120.292,-623.453"/>
</g>
<!-- bar.2010&#45;03 -->
<g id="node14" class="node"><title>bar.2010&#45;03</title>
<g id="a_node14"><a xlink:href="bar.2010-03" xlink:title="bar\n2010&#45;03">
<polygon fill="pink" stroke="black" stroke-width="2" points="437.5,-326 376.5,-326 376.5,-288 437.5,-288 437.5,-326"/>
<text text-anchor="middle" x="407" y="-310.8" font-family="Times,serif" font-size="14.00">bar</text>
<text text-anchor="middle" x="407" y="-295.8" font-family="Times,serif" font-size="14.00">2010&#45;03</text>
</a>
</g>
</g>
<!-- qux.2010&#45;03 -->
<g id="node15" class="node"><title>qux.2010&#45;03</title>
<g id="a_node15"><a xlink:href="qux.2010-03" xlink:title="qux\n2010&#45;03">
<polygon fill="cornsilk" stroke="black" stroke-width="2" points="477.5,-225 416.5,-225 416.5,-187 477.5,-187 477.5,-225"/>
<text text-anchor="middle" x="447" y="-209.8" font-family="Times,serif" font-size="14.00">qux</text>
<text text-anchor="middle" x="447" y="-194.8" font-family="Times,serif" font-size="14.00">2010&#45;03</text>
</a>
</g>
</g>
<!-- bar.2010&#45;03&#45;&gt;qux.2010&#45;03 -->
<g id="edge3" class="edge"><title>bar.2010&#45;03&#45;&gt;qux.2010&#45;03</title>
<path fill="none" stroke="black" stroke-width="2" d="M414.337,-287.842C420.37,-272.91 429.015,-251.513 435.896,-234.484"/>
<polygon fill="black" stroke="black" stroke-width="2" points="439.209,-235.626 439.71,-225.043 432.719,-233.004 439.209,-235.626"/>
</g>
<!-- baz.2010&#45;03 -->
<g id="node16" class="node"><title>baz.2010&#45;03</title>
<g id="a_node16"><a xlink:href="baz.2010-03" xlink:title="baz\n2010&#45;03">
<polygon fill="none" stroke="black" stroke-width="2" points="517.5,-326 456.5,-326 456.5,-288 517.5,-288 517.5,-326"/>
<text text-anchor="middle" x="487" y="-310.8" font-family="Times,serif" font-size="14.00">baz</text>
<text text-anchor="middle" x="487" y="-295.8" font-family="Times,serif" font-size="14.00">2010&#45;03</text>
</a>
</g>
</g>
<!-- baz.2010&#45;03&#45;&gt;qux.2010&#45;03 -->
<g id="edge8" class="edge"><title>baz.2010&#45;03&#45;&gt;qux.2010&#45;03</title>
<path fill="none" stroke="black" stroke-width="2" d="M479.663,-287.842C473.63,-272.91 464.985,-251.513 458.104,-234.484"/>
<polygon fill="black" stroke="black" stroke-width="2" points="461.281,-233.004 454.29,-225.043 454.791,-235.626 461.281,-233.004"/>
</g>
<!-- foo.2010&#45;03 -->
<g id="node17" class="node"><title>foo.2010&#45;03</title>
<g id="a_node17"><a xlink:href="foo.2010-03" xlink:title="foo\n2010&#45;03">
<polygon fill="paleturquoise" stroke="black" stroke-width="2" points="477.5,-427 416.5,-427 416.5,-389 477.5,-389 477.5,-427"/>
<text text-anchor="middle" x="447" y="-411.8" font-family="Times,serif" font-size="14.00">foo</text>
<text text-anchor="middle" x="447" y="-396.8" font-family="Times,serif" font-size="14.00">2010&#45;03</text>
</a>
</g>
</g>
<!-- foo.2010&#45;03&#45;&gt;foo.2010&#45;04 -->
<g id="edge19" class="edge"><title>foo.2010&#45;03&#45;&gt;foo.2010&#45;04</title>
<path fill="none" stroke="black" stroke-width="2" d="M477.522,-396.799C493.634,-390.851 513.441,-382.626 530,-373 549.673,-361.564 569.814,-345.905 585.328,-332.822"/>
<polygon fill="black" stroke="black" stroke-width="2" points="587.678,-335.417 592.992,-326.251 583.122,-330.103 587.678,-335.417"/>
</g>
<!-- foo.2010&#45;03&#45;&gt;bar.2010&#45;03 -->
<g id="edge17" class="edge"><title>foo.2010&#45;03&#45;&gt;bar.2010&#45;03</title>
<path fill="none" stroke="black" stroke-width="2" d="M439.663,-388.842C433.63,-373.91 424.985,-352.513 418.104,-335.484"/>
<polygon fill="black" stroke="black" stroke-width="2" points="421.281,-334.004 414.29,-326.043 414.791,-336.626 421.281,-334.004"/>
</g>
<!-- foo.2010&#45;03&#45;&gt;baz.2010&#45;03 -->
<g id="edge18" class="edge"><title>foo.2010&#45;03&#45;&gt;baz.2010&#45;03</title>
<path fill="none" stroke="black" stroke-width="2" d="M454.337,-388.842C460.37,-373.91 469.015,-352.513 475.896,-335.484"/>
<polygon fill="black" stroke="black" stroke-width="2" points="479.209,-336.626 479.71,-326.043 472.719,-334.004 479.209,-336.626"/>
</g>
<!-- bar.2010&#45;02 -->
<g id="node18" class="node"><title>bar.2010&#45;02</title>
<g id="a_node18"><a xlink:href="bar.2010-02" xlink:title="bar\n2010&#45;02">
<polygon fill="pink" stroke="black" stroke-width="2" points="271.5,-427 210.5,-427 210.5,-389 271.5,-389 271.5,-427"/>
<text text-anchor="middle" x="241" y="-411.8" font-family="Times,serif" font-size="14.00">bar</text>
<text text-anchor="middle" x="241" y="-396.8" font-family="Times,serif" font-size="14.00">2010&#45;02</text>
</a>
</g>
</g>
<!-- qux.2010&#45;02 -->
<g id="node19" class="node"><title>qux.2010&#45;02</title>
<g id="a_node19"><a xlink:href="qux.2010-02" xlink:title="qux\n2010&#45;02">
<polygon fill="cornsilk" stroke="black" stroke-width="2" points="311.5,-326 250.5,-326 250.5,-288 311.5,-288 311.5,-326"/>
<text text-anchor="middle" x="281" y="-310.8" font-family="Times,serif" font-size="14.00">qux</text>
<text text-anchor="middle" x="281" y="-295.8" font-family="Times,serif" font-size="14.00">2010&#45;02</text>
</a>
</g>
</g>
<!-- bar.2010&#45;02&#45;&gt;qux.2010&#45;02 -->
<g id="edge2" class="edge"><title>bar.2010&#45;02&#45;&gt;qux.2010&#45;02</title>
<path fill="none" stroke="black" stroke-width="2" d="M248.337,-388.842C254.37,-373.91 263.015,-352.513 269.896,-335.484"/>
<polygon fill="black" stroke="black" stroke-width="2" points="273.209,-336.626 273.71,-326.043 266.719,-334.004 273.209,-336.626"/>
</g>
<!-- baz.2010&#45;02 -->
<g id="node20" class="node"><title>baz.2010&#45;02</title>
<g id="a_node20"><a xlink:href="baz.2010-02" xlink:title="baz\n2010&#45;02">
<polygon fill="none" stroke="black" stroke-width="2" points="351.5,-427 290.5,-427 290.5,-389 351.5,-389 351.5,-427"/>
<text text-anchor="middle" x="321" y="-411.8" font-family="Times,serif" font-size="14.00">baz</text>
<text text-anchor="middle" x="321" y="-396.8" font-family="Times,serif" font-size="14.00">2010&#45;02</text>
</a>
</g>
</g>
<!-- baz.2010&#45;02&#45;&gt;qux.2010&#45;02 -->
<g id="edge7" class="edge"><title>baz.2010&#45;02&#45;&gt;qux.2010&#45;02</title>
<path fill="none" stroke="black" stroke-width="2" d="M313.663,-388.842C307.63,-373.91 298.985,-352.513 292.104,-335.484"/>
<polygon fill="black" stroke="black" stroke-width="2" points="295.281,-334.004 288.29,-326.043 288.791,-336.626 295.281,-334.004"/>
</g>
<!-- foo.2010&#45;02&#45;&gt;foo.2010&#45;03 -->
<g id="edge16" class="edge"><title>foo.2010&#45;02&#45;&gt;foo.2010&#45;03</title>
<path fill="none" stroke="black" stroke-width="2" d="M311.618,-493.236C327.757,-488.982 347.56,-482.642 364,-474 384.418,-463.267 404.848,-447.348 420.331,-433.95"/>
<polygon fill="black" stroke="black" stroke-width="2" points="422.776,-436.461 427.95,-427.215 418.139,-431.216 422.776,-436.461"/>
</g>
<!-- foo.2010&#45;02&#45;&gt;bar.2010&#45;02 -->
<g id="edge14" class="edge"><title>foo.2010&#45;02&#45;&gt;bar.2010&#45;02</title>
<path fill="none" stroke="black" stroke-width="2" d="M272.905,-481.585C267.23,-468.673 259.543,-451.185 253.136,-436.61"/>
<polygon fill="black" stroke="black" stroke-width="2" points="256.174,-434.823 248.946,-427.077 249.766,-437.64 256.174,-434.823"/>
</g>
<!-- foo.2010&#45;02&#45;&gt;baz.2010&#45;02 -->
<g id="edge15" class="edge"><title>foo.2010&#45;02&#45;&gt;baz.2010&#45;02</title>
<path fill="none" stroke="black" stroke-width="2" d="M289.095,-481.585C294.77,-468.673 302.457,-451.185 308.864,-436.61"/>
<polygon fill="black" stroke="black" stroke-width="2" points="312.234,-437.64 313.054,-427.077 305.826,-434.823 312.234,-437.64"/>
</g>
</g>
</svg>
