<?xml version="1.0" encoding="UTF-8" standalone="no"?>
<!DOCTYPE svg PUBLIC "-//W3C//DTD SVG 1.1//EN"
 "http://www.w3.org/Graphics/SVG/1.1/DTD/svg11.dtd">
<!-- Generated by graphviz version 2.36.0 (20140111.2315)
 -->
<!-- Title: %3 Pages: 1 -->
<svg width="926pt" height="898pt"
 viewBox="0.00 0.00 926.00 898.00" xmlns="http://www.w3.org/2000/svg" xmlns:xlink="http://www.w3.org/1999/xlink">
<g id="graph0" class="graph" transform="scale(1 1) rotate(0) translate(4 894)">
<title>%3</title>
<polygon fill="white" stroke="none" points="-4,4 -4,-894 922,-894 922,4 -4,4"/>
<text text-anchor="middle" x="459" y="-7.8" font-family="Times,serif" font-size="14.00">foo</text>
<g id="clust1" class="cluster"><title>cluster_2010&#45;05</title>
<polygon fill="none" stroke="black" stroke-dasharray="5,2" points="8,-31 8,-296 166,-296 166,-31 8,-31"/>
<text text-anchor="middle" x="87" y="-269.6" font-family="Times,serif" font-size="28.00">2010&#45;05</text>
</g>
<g id="clust2" class="cluster"><title>cluster_2010&#45;03</title>
<polygon fill="none" stroke="black" stroke-dasharray="5,2" points="366,-195 366,-498 550,-498 550,-195 366,-195"/>
<text text-anchor="middle" x="458" y="-471.6" font-family="Times,serif" font-size="28.00">2010&#45;03</text>
</g>
<g id="clust3" class="cluster"><title>cluster_2010&#45;04</title>
<polygon fill="none" stroke="black" stroke-dasharray="5,2" points="174,-105 174,-397 358,-397 358,-105 174,-105"/>
<text text-anchor="middle" x="266" y="-370.6" font-family="Times,serif" font-size="28.00">2010&#45;04</text>
</g>
<g id="clust4" class="cluster"><title>cluster_2010&#45;02</title>
<polygon fill="none" stroke="black" stroke-dasharray="5,2" points="558,-304 558,-591 716,-591 716,-304 558,-304"/>
<text text-anchor="middle" x="637" y="-564.6" font-family="Times,serif" font-size="28.00">2010&#45;02</text>
</g>
<g id="clust5" class="cluster"><title>cluster_2010&#45;01</title>
<polygon fill="none" stroke="black" stroke-dasharray="5,2" points="724,-405 724,-882 910,-882 910,-405 724,-405"/>
<text text-anchor="middle" x="817" y="-855.6" font-family="Times,serif" font-size="28.00">2010&#45;01</text>
</g>
<!-- bar.2010&#45;05 -->
<g id="node1" class="node"><title>bar.2010&#45;05</title>
<g id="a_node1"><a xlink:href="bar.2010-05" xlink:title="bar\n2010&#45;05">
<polygon fill="pink" stroke="black" stroke-width="2" points="77.5,-159 16.5,-159 16.5,-121 77.5,-121 77.5,-159"/>
<text text-anchor="middle" x="47" y="-143.8" font-family="Times,serif" font-size="14.00">bar</text>
<text text-anchor="middle" x="47" y="-128.8" font-family="Times,serif" font-size="14.00">2010&#45;05</text>
</a>
</g>
</g>
<!-- qux.2010&#45;05 -->
<g id="node2" class="node"><title>qux.2010&#45;05</title>
<g id="a_node2"><a xlink:href="qux.2010-05" xlink:title="qux\n2010&#45;05">
<polygon fill="cornsilk" stroke="black" stroke-width="2" points="117.5,-77 56.5,-77 56.5,-39 117.5,-39 117.5,-77"/>
<text text-anchor="middle" x="87" y="-61.8" font-family="Times,serif" font-size="14.00">qux</text>
<text text-anchor="middle" x="87" y="-46.8" font-family="Times,serif" font-size="14.00">2010&#45;05</text>
</a>
</g>
</g>
<!-- bar.2010&#45;05&#45;&gt;qux.2010&#45;05 -->
<g id="edge7" class="edge"><title>bar.2010&#45;05&#45;&gt;qux.2010&#45;05</title>
<path fill="none" stroke="black" stroke-width="2" d="M56.0766,-120.847C61.1909,-110.618 67.6798,-97.6405 73.3915,-86.217"/>
<polygon fill="black" stroke="black" stroke-width="2" points="76.6176,-87.5909 77.9593,-77.0814 70.3566,-84.4604 76.6176,-87.5909"/>
</g>
<!-- baz.2010&#45;05 -->
<g id="node3" class="node"><title>baz.2010&#45;05</title>
<g id="a_node3"><a xlink:href="baz.2010-05" xlink:title="baz\n2010&#45;05">
<polygon fill="none" stroke="black" stroke-width="2" points="157.5,-159 96.5,-159 96.5,-121 157.5,-121 157.5,-159"/>
<text text-anchor="middle" x="127" y="-143.8" font-family="Times,serif" font-size="14.00">baz</text>
<text text-anchor="middle" x="127" y="-128.8" font-family="Times,serif" font-size="14.00">2010&#45;05</text>
</a>
</g>
</g>
<!-- baz.2010&#45;05&#45;&gt;qux.2010&#45;05 -->
<g id="edge14" class="edge"><title>baz.2010&#45;05&#45;&gt;qux.2010&#45;05</title>
<path fill="none" stroke="black" stroke-width="2" d="M117.923,-120.847C112.809,-110.618 106.32,-97.6405 100.609,-86.217"/>
<polygon fill="black" stroke="black" stroke-width="2" points="103.643,-84.4604 96.0407,-77.0814 97.3824,-87.5909 103.643,-84.4604"/>
</g>
<!-- foo.2010&#45;05 -->
<g id="node4" class="node"><title>foo.2010&#45;05</title>
<g id="a_node4"><a xlink:href="foo.2010-05" xlink:title="foo\n2010&#45;05">
<polygon fill="paleturquoise" stroke="black" stroke-width="2" points="157.5,-249 96.5,-249 96.5,-211 157.5,-211 157.5,-249"/>
<text text-anchor="middle" x="127" y="-233.8" font-family="Times,serif" font-size="14.00">foo</text>
<text text-anchor="middle" x="127" y="-218.8" font-family="Times,serif" font-size="14.00">2010&#45;05</text>
</a>
</g>
</g>
<!-- foo.2010&#45;05&#45;&gt;bar.2010&#45;05 -->
<g id="edge27" class="edge"><title>foo.2010&#45;05&#45;&gt;bar.2010&#45;05</title>
<path fill="none" stroke="black" stroke-width="2" d="M110.424,-210.766C98.8393,-198.023 83.2073,-180.828 70.3614,-166.698"/>
<polygon fill="black" stroke="black" stroke-width="2" points="72.8714,-164.255 63.5548,-159.21 67.6918,-168.964 72.8714,-164.255"/>
</g>
<!-- foo.2010&#45;05&#45;&gt;baz.2010&#45;05 -->
<g id="edge28" class="edge"><title>foo.2010&#45;05&#45;&gt;baz.2010&#45;05</title>
<path fill="none" stroke="black" stroke-width="2" d="M127,-210.766C127,-198.849 127,-183.038 127,-169.482"/>
<polygon fill="black" stroke="black" stroke-width="2" points="130.5,-169.21 127,-159.21 123.5,-169.21 130.5,-169.21"/>
</g>
<!-- bar.2010&#45;03 -->
<g id="node5" class="node"><title>bar.2010&#45;03</title>
<g id="a_node5"><a xlink:href="bar.2010-03" xlink:title="bar\n2010&#45;03">
<polygon fill="pink" stroke="black" stroke-width="2" points="435.5,-350 374.5,-350 374.5,-312 435.5,-312 435.5,-350"/>
<text text-anchor="middle" x="405" y="-334.8" font-family="Times,serif" font-size="14.00">bar</text>
<text text-anchor="middle" x="405" y="-319.8" font-family="Times,serif" font-size="14.00">2010&#45;03</text>
</a>
</g>
</g>
<!-- qux.2010&#45;03 -->
<g id="node6" class="node"><title>qux.2010&#45;03</title>
<g id="a_node6"><a xlink:href="qux.2010-03" xlink:title="qux\n2010&#45;03">
<polygon fill="cornsilk" stroke="black" stroke-width="2" points="435.5,-249 374.5,-249 374.5,-211 435.5,-211 435.5,-249"/>
<text text-anchor="middle" x="405" y="-233.8" font-family="Times,serif" font-size="14.00">qux</text>
<text text-anchor="middle" x="405" y="-218.8" font-family="Times,serif" font-size="14.00">2010&#45;03</text>
</a>
</g>
</g>
<!-- bar.2010&#45;03&#45;&gt;qux.2010&#45;03 -->
<g id="edge5" class="edge"><title>bar.2010&#45;03&#45;&gt;qux.2010&#45;03</title>
<path fill="none" stroke="black" stroke-width="2" d="M405,-311.842C405,-297.189 405,-276.311 405,-259.443"/>
<polygon fill="black" stroke="black" stroke-width="2" points="408.5,-259.043 405,-249.043 401.5,-259.043 408.5,-259.043"/>
</g>
<!-- baz.2010&#45;03 -->
<g id="node7" class="node"><title>baz.2010&#45;03</title>
<g id="a_node7"><a xlink:href="baz.2010-03" xlink:title="baz\n2010&#45;03">
<polygon fill="none" stroke="black" stroke-width="2" points="515.5,-350 454.5,-350 454.5,-312 515.5,-312 515.5,-350"/>
<text text-anchor="middle" x="485" y="-334.8" font-family="Times,serif" font-size="14.00">baz</text>
<text text-anchor="middle" x="485" y="-319.8" font-family="Times,serif" font-size="14.00">2010&#45;03</text>
</a>
</g>
</g>
<!-- baz.2010&#45;03&#45;&gt;qux.2010&#45;03 -->
<g id="edge10" class="edge"><title>baz.2010&#45;03&#45;&gt;qux.2010&#45;03</title>
<path fill="none" stroke="black" stroke-width="2" d="M461.009,-311.733C455.433,-306.93 449.747,-301.534 445,-296 435.101,-284.459 426.039,-270.205 419.053,-257.988"/>
<polygon fill="black" stroke="black" stroke-width="2" points="422.047,-256.17 414.136,-249.122 415.925,-259.565 422.047,-256.17"/>
</g>
<!-- boo.2010&#45;03 -->
<g id="node8" class="node"><title>boo.2010&#45;03</title>
<g id="a_node8"><a xlink:href="boo.2010-03" xlink:title="boo\n2010&#45;03">
<ellipse fill="red" stroke="black" stroke-width="2" cx="498" cy="-230" rx="43.263" ry="26.7407"/>
<text text-anchor="middle" x="498" y="-233.8" font-family="Times,serif" font-size="14.00" fill="white">boo</text>
<text text-anchor="middle" x="498" y="-218.8" font-family="Times,serif" font-size="14.00" fill="white">2010&#45;03</text>
</a>
</g>
</g>
<!-- baz.2010&#45;03&#45;&gt;boo.2010&#45;03 -->
<g id="edge11" class="edge"><title>baz.2010&#45;03&#45;&gt;boo.2010&#45;03</title>
<path fill="none" stroke="black" stroke-width="2" d="M487.384,-311.842C489.028,-299.324 491.268,-282.263 493.267,-267.04"/>
<polygon fill="black" stroke="black" stroke-width="2" points="496.771,-267.244 494.602,-256.874 489.83,-266.333 496.771,-267.244"/>
</g>
<!-- foo.2010&#45;03 -->
<g id="node9" class="node"><title>foo.2010&#45;03</title>
<g id="a_node9"><a xlink:href="foo.2010-03" xlink:title="foo\n2010&#45;03">
<polygon fill="paleturquoise" stroke="black" stroke-width="2" points="475.5,-451 414.5,-451 414.5,-413 475.5,-413 475.5,-451"/>
<text text-anchor="middle" x="445" y="-435.8" font-family="Times,serif" font-size="14.00">foo</text>
<text text-anchor="middle" x="445" y="-420.8" font-family="Times,serif" font-size="14.00">2010&#45;03</text>
</a>
</g>
</g>
<!-- foo.2010&#45;03&#45;&gt;bar.2010&#45;03 -->
<g id="edge21" class="edge"><title>foo.2010&#45;03&#45;&gt;bar.2010&#45;03</title>
<path fill="none" stroke="black" stroke-width="2" d="M437.663,-412.842C431.63,-397.91 422.985,-376.513 416.104,-359.484"/>
<polygon fill="black" stroke="black" stroke-width="2" points="419.281,-358.004 412.29,-350.043 412.791,-360.626 419.281,-358.004"/>
</g>
<!-- foo.2010&#45;03&#45;&gt;baz.2010&#45;03 -->
<g id="edge22" class="edge"><title>foo.2010&#45;03&#45;&gt;baz.2010&#45;03</title>
<path fill="none" stroke="black" stroke-width="2" d="M452.337,-412.842C458.37,-397.91 467.015,-376.513 473.896,-359.484"/>
<polygon fill="black" stroke="black" stroke-width="2" points="477.209,-360.626 477.71,-350.043 470.719,-358.004 477.209,-360.626"/>
</g>
<!-- foo.2010&#45;04 -->
<g id="node14" class="node"><title>foo.2010&#45;04</title>
<g id="a_node14"><a xlink:href="foo.2010-04" xlink:title="foo\n2010&#45;04">
<polygon fill="paleturquoise" stroke="black" stroke-width="2" points="283.5,-350 222.5,-350 222.5,-312 283.5,-312 283.5,-350"/>
<text text-anchor="middle" x="253" y="-334.8" font-family="Times,serif" font-size="14.00">foo</text>
<text text-anchor="middle" x="253" y="-319.8" font-family="Times,serif" font-size="14.00">2010&#45;04</text>
</a>
</g>
</g>
<!-- foo.2010&#45;03&#45;&gt;foo.2010&#45;04 -->
<g id="edge23" class="edge"><title>foo.2010&#45;03&#45;&gt;foo.2010&#45;04</title>
<path fill="none" stroke="black" stroke-width="2" d="M414.162,-419.631C398.32,-413.476 378.856,-405.42 362,-397 336.992,-384.508 309.999,-368.433 289.131,-355.394"/>
<polygon fill="black" stroke="black" stroke-width="2" points="290.913,-352.38 280.587,-350.012 287.182,-358.303 290.913,-352.38"/>
</g>
<!-- bar.2010&#45;04 -->
<g id="node10" class="node"><title>bar.2010&#45;04</title>
<g id="a_node10"><a xlink:href="bar.2010-04" xlink:title="bar\n2010&#45;04">
<polygon fill="pink" stroke="black" stroke-width="2" points="243.5,-249 182.5,-249 182.5,-211 243.5,-211 243.5,-249"/>
<text text-anchor="middle" x="213" y="-233.8" font-family="Times,serif" font-size="14.00">bar</text>
<text text-anchor="middle" x="213" y="-218.8" font-family="Times,serif" font-size="14.00">2010&#45;04</text>
</a>
</g>
</g>
<!-- qux.2010&#45;04 -->
<g id="node11" class="node"><title>qux.2010&#45;04</title>
<g id="a_node11"><a xlink:href="qux.2010-04" xlink:title="qux\n2010&#45;04">
<polygon fill="cornsilk" stroke="black" stroke-width="2" points="243.5,-159 182.5,-159 182.5,-121 243.5,-121 243.5,-159"/>
<text text-anchor="middle" x="213" y="-143.8" font-family="Times,serif" font-size="14.00">qux</text>
<text text-anchor="middle" x="213" y="-128.8" font-family="Times,serif" font-size="14.00">2010&#45;04</text>
</a>
</g>
</g>
<!-- bar.2010&#45;04&#45;&gt;qux.2010&#45;04 -->
<g id="edge6" class="edge"><title>bar.2010&#45;04&#45;&gt;qux.2010&#45;04</title>
<path fill="none" stroke="black" stroke-width="2" d="M213,-210.766C213,-198.849 213,-183.038 213,-169.482"/>
<polygon fill="black" stroke="black" stroke-width="2" points="216.5,-169.21 213,-159.21 209.5,-169.21 216.5,-169.21"/>
</g>
<!-- baz.2010&#45;04 -->
<g id="node12" class="node"><title>baz.2010&#45;04</title>
<g id="a_node12"><a xlink:href="baz.2010-04" xlink:title="baz\n2010&#45;04">
<polygon fill="none" stroke="black" stroke-width="2" points="323.5,-249 262.5,-249 262.5,-211 323.5,-211 323.5,-249"/>
<text text-anchor="middle" x="293" y="-233.8" font-family="Times,serif" font-size="14.00">baz</text>
<text text-anchor="middle" x="293" y="-218.8" font-family="Times,serif" font-size="14.00">2010&#45;04</text>
</a>
</g>
</g>
<!-- baz.2010&#45;04&#45;&gt;qux.2010&#45;04 -->
<g id="edge12" class="edge"><title>baz.2010&#45;04&#45;&gt;qux.2010&#45;04</title>
<path fill="none" stroke="black" stroke-width="2" d="M276.424,-210.766C264.839,-198.023 249.207,-180.828 236.361,-166.698"/>
<polygon fill="black" stroke="black" stroke-width="2" points="238.871,-164.255 229.555,-159.21 233.692,-168.964 238.871,-164.255"/>
</g>
<!-- boo.2010&#45;04 -->
<g id="node13" class="node"><title>boo.2010&#45;04</title>
<g id="a_node13"><a xlink:href="boo.2010-04" xlink:title="boo\n2010&#45;04">
<ellipse fill="red" stroke="black" stroke-width="2" cx="306" cy="-140" rx="43.263" ry="26.7407"/>
<text text-anchor="middle" x="306" y="-143.8" font-family="Times,serif" font-size="14.00" fill="white">boo</text>
<text text-anchor="middle" x="306" y="-128.8" font-family="Times,serif" font-size="14.00" fill="white">2010&#45;04</text>
</a>
</g>
</g>
<!-- baz.2010&#45;04&#45;&gt;boo.2010&#45;04 -->
<g id="edge13" class="edge"><title>baz.2010&#45;04&#45;&gt;boo.2010&#45;04</title>
<path fill="none" stroke="black" stroke-width="2" d="M295.694,-210.766C297.143,-200.954 298.983,-188.502 300.705,-176.843"/>
<polygon fill="black" stroke="black" stroke-width="2" points="304.177,-177.29 302.176,-166.886 297.252,-176.267 304.177,-177.29"/>
</g>
<!-- foo.2010&#45;04&#45;&gt;foo.2010&#45;05 -->
<g id="edge26" class="edge"><title>foo.2010&#45;04&#45;&gt;foo.2010&#45;05</title>
<path fill="none" stroke="black" stroke-width="2" d="M222.258,-322.235C205.506,-316.883 185.163,-308.452 170,-296 157.547,-285.773 147.375,-270.994 140.056,-258.112"/>
<polygon fill="black" stroke="black" stroke-width="2" points="143.059,-256.307 135.239,-249.159 136.895,-259.624 143.059,-256.307"/>
</g>
<!-- foo.2010&#45;04&#45;&gt;bar.2010&#45;04 -->
<g id="edge24" class="edge"><title>foo.2010&#45;04&#45;&gt;bar.2010&#45;04</title>
<path fill="none" stroke="black" stroke-width="2" d="M245.663,-311.842C239.63,-296.91 230.985,-275.513 224.104,-258.484"/>
<polygon fill="black" stroke="black" stroke-width="2" points="227.281,-257.004 220.29,-249.043 220.791,-259.626 227.281,-257.004"/>
</g>
<!-- foo.2010&#45;04&#45;&gt;baz.2010&#45;04 -->
<g id="edge25" class="edge"><title>foo.2010&#45;04&#45;&gt;baz.2010&#45;04</title>
<path fill="none" stroke="black" stroke-width="2" d="M260.337,-311.842C266.37,-296.91 275.015,-275.513 281.896,-258.484"/>
<polygon fill="black" stroke="black" stroke-width="2" points="285.209,-259.626 285.71,-249.043 278.719,-257.004 285.209,-259.626"/>
</g>
<!-- bar.2010&#45;02 -->
<g id="node15" class="node"><title>bar.2010&#45;02</title>
<g id="a_node15"><a xlink:href="bar.2010-02" xlink:title="bar\n2010&#45;02">
<polygon fill="pink" stroke="black" stroke-width="2" points="627.5,-451 566.5,-451 566.5,-413 627.5,-413 627.5,-451"/>
<text text-anchor="middle" x="597" y="-435.8" font-family="Times,serif" font-size="14.00">bar</text>
<text text-anchor="middle" x="597" y="-420.8" font-family="Times,serif" font-size="14.00">2010&#45;02</text>
</a>
</g>
</g>
<!-- qux.2010&#45;02 -->
<g id="node16" class="node"><title>qux.2010&#45;02</title>
<g id="a_node16"><a xlink:href="qux.2010-02" xlink:title="qux\n2010&#45;02">
<polygon fill="cornsilk" stroke="black" stroke-width="2" points="627.5,-350 566.5,-350 566.5,-312 627.5,-312 627.5,-350"/>
<text text-anchor="middle" x="597" y="-334.8" font-family="Times,serif" font-size="14.00">qux</text>
<text text-anchor="middle" x="597" y="-319.8" font-family="Times,serif" font-size="14.00">2010&#45;02</text>
</a>
</g>
</g>
<!-- bar.2010&#45;02&#45;&gt;qux.2010&#45;02 -->
<g id="edge3" class="edge"><title>bar.2010&#45;02&#45;&gt;qux.2010&#45;02</title>
<path fill="none" stroke="black" stroke-width="2" d="M597,-412.842C597,-398.189 597,-377.311 597,-360.443"/>
<polygon fill="black" stroke="black" stroke-width="2" points="600.5,-360.043 597,-350.043 593.5,-360.043 600.5,-360.043"/>
</g>
<!-- qux.2010&#45;02&#45;&gt;boo.2010&#45;04 -->
<g id="edge4" class="edge"><title>qux.2010&#45;02&#45;&gt;boo.2010&#45;04</title>
<path fill="none" stroke="black" stroke-width="2" d="M596.678,-311.676C595.123,-282.492 587.653,-225.631 554,-195 525.909,-169.432 423.178,-153.811 359.079,-146.335"/>
<polygon fill="black" stroke="black" stroke-width="2" points="359.084,-142.813 348.753,-145.162 358.294,-149.768 359.084,-142.813"/>
</g>
<!-- baz.2010&#45;02 -->
<g id="node17" class="node"><title>baz.2010&#45;02</title>
<g id="a_node17"><a xlink:href="baz.2010-02" xlink:title="baz\n2010&#45;02">
<polygon fill="none" stroke="black" stroke-width="2" points="707.5,-451 646.5,-451 646.5,-413 707.5,-413 707.5,-451"/>
<text text-anchor="middle" x="677" y="-435.8" font-family="Times,serif" font-size="14.00">baz</text>
<text text-anchor="middle" x="677" y="-420.8" font-family="Times,serif" font-size="14.00">2010&#45;02</text>
</a>
</g>
</g>
<!-- baz.2010&#45;02&#45;&gt;qux.2010&#45;02 -->
<g id="edge9" class="edge"><title>baz.2010&#45;02&#45;&gt;qux.2010&#45;02</title>
<path fill="none" stroke="black" stroke-width="2" d="M662.327,-412.842C649.922,-397.491 631.997,-375.309 618.06,-358.062"/>
<polygon fill="black" stroke="black" stroke-width="2" points="620.588,-355.621 611.58,-350.043 615.143,-360.021 620.588,-355.621"/>
</g>
<!-- foo.2010&#45;02 -->
<g id="node18" class="node"><title>foo.2010&#45;02</title>
<g id="a_node18"><a xlink:href="foo.2010-02" xlink:title="foo\n2010&#45;02">
<polygon fill="paleturquoise" stroke="black" stroke-width="2" points="667.5,-544 606.5,-544 606.5,-506 667.5,-506 667.5,-544"/>
<text text-anchor="middle" x="637" y="-528.8" font-family="Times,serif" font-size="14.00">foo</text>
<text text-anchor="middle" x="637" y="-513.8" font-family="Times,serif" font-size="14.00">2010&#45;02</text>
</a>
</g>
</g>
<!-- foo.2010&#45;02&#45;&gt;foo.2010&#45;03 -->
<g id="edge20" class="edge"><title>foo.2010&#45;02&#45;&gt;foo.2010&#45;03</title>
<path fill="none" stroke="black" stroke-width="2" d="M606.406,-516.27C590.455,-511.78 570.816,-505.523 554,-498 528.131,-486.427 500.74,-470.075 479.888,-456.667"/>
<polygon fill="black" stroke="black" stroke-width="2" points="481.665,-453.648 471.375,-451.124 477.845,-459.514 481.665,-453.648"/>
</g>
<!-- foo.2010&#45;02&#45;&gt;bar.2010&#45;02 -->
<g id="edge18" class="edge"><title>foo.2010&#45;02&#45;&gt;bar.2010&#45;02</title>
<path fill="none" stroke="black" stroke-width="2" d="M628.905,-505.585C623.23,-492.673 615.543,-475.185 609.136,-460.61"/>
<polygon fill="black" stroke="black" stroke-width="2" points="612.174,-458.823 604.946,-451.077 605.766,-461.64 612.174,-458.823"/>
</g>
<!-- foo.2010&#45;02&#45;&gt;baz.2010&#45;02 -->
<g id="edge19" class="edge"><title>foo.2010&#45;02&#45;&gt;baz.2010&#45;02</title>
<path fill="none" stroke="black" stroke-width="2" d="M645.095,-505.585C650.77,-492.673 658.457,-475.185 664.864,-460.61"/>
<polygon fill="black" stroke="black" stroke-width="2" points="668.234,-461.64 669.054,-451.077 661.826,-458.823 668.234,-461.64"/>
</g>
<!-- bar.2010&#45;01 -->
<g id="node19" class="node"><title>bar.2010&#45;01</title>
<g id="a_node19"><a xlink:href="bar.2010-01" xlink:title="bar\n2010&#45;01">
<polygon fill="pink" stroke="black" stroke-width="2" points="793.5,-544 732.5,-544 732.5,-506 793.5,-506 793.5,-544"/>
<text text-anchor="middle" x="763" y="-528.8" font-family="Times,serif" font-size="14.00">bar</text>
<text text-anchor="middle" x="763" y="-513.8" font-family="Times,serif" font-size="14.00">2010&#45;01</text>
</a>
</g>
</g>
<!-- qux.2010&#45;01 -->
<g id="node20" class="node"><title>qux.2010&#45;01</title>
<g id="a_node20"><a xlink:href="qux.2010-01" xlink:title="qux\n2010&#45;01">
<polygon fill="cornsilk" stroke="black" stroke-width="2" points="793.5,-451 732.5,-451 732.5,-413 793.5,-413 793.5,-451"/>
<text text-anchor="middle" x="763" y="-435.8" font-family="Times,serif" font-size="14.00">qux</text>
<text text-anchor="middle" x="763" y="-420.8" font-family="Times,serif" font-size="14.00">2010&#45;01</text>
</a>
</g>
</g>
<!-- bar.2010&#45;01&#45;&gt;qux.2010&#45;01 -->
<g id="edge1" class="edge"><title>bar.2010&#45;01&#45;&gt;qux.2010&#45;01</title>
<path fill="none" stroke="black" stroke-width="2" d="M763,-505.585C763,-492.921 763,-475.856 763,-461.454"/>
<polygon fill="black" stroke="black" stroke-width="2" points="766.5,-461.077 763,-451.077 759.5,-461.077 766.5,-461.077"/>
</g>
<!-- qux.2010&#45;01&#45;&gt;boo.2010&#45;03 -->
<g id="edge2" class="edge"><title>qux.2010&#45;01&#45;&gt;boo.2010&#45;03</title>
<path fill="none" stroke="black" stroke-width="2" d="M761.841,-412.776C759.129,-385.433 750.089,-333.826 720,-304 674.577,-258.974 600.916,-241.72 551.018,-235.108"/>
<polygon fill="black" stroke="black" stroke-width="2" points="551.412,-231.63 541.06,-233.887 550.56,-238.578 551.412,-231.63"/>
</g>
<!-- baz.2010&#45;01 -->
<g id="node21" class="node"><title>baz.2010&#45;01</title>
<g id="a_node21"><a xlink:href="baz.2010-01" xlink:title="baz\n2010&#45;01">
<polygon fill="none" stroke="black" stroke-width="2" points="873.5,-544 812.5,-544 812.5,-506 873.5,-506 873.5,-544"/>
<text text-anchor="middle" x="843" y="-528.8" font-family="Times,serif" font-size="14.00">baz</text>
<text text-anchor="middle" x="843" y="-513.8" font-family="Times,serif" font-size="14.00">2010&#45;01</text>
</a>
</g>
</g>
<!-- baz.2010&#45;01&#45;&gt;qux.2010&#45;01 -->
<g id="edge8" class="edge"><title>baz.2010&#45;01&#45;&gt;qux.2010&#45;01</title>
<path fill="none" stroke="black" stroke-width="2" d="M826.811,-505.585C815.023,-492.176 798.897,-473.833 785.806,-458.942"/>
<polygon fill="black" stroke="black" stroke-width="2" points="788.123,-456.277 778.892,-451.077 782.866,-460.899 788.123,-456.277"/>
</g>
<!-- foo.2010&#45;01 -->
<g id="node22" class="node"><title>foo.2010&#45;01</title>
<g id="a_node22"><a xlink:href="foo.2010-01" xlink:title="foo\n2010&#45;01">
<polygon fill="paleturquoise" stroke="black" stroke-width="2" points="820.5,-637 759.5,-637 759.5,-599 820.5,-599 820.5,-637"/>
<text text-anchor="middle" x="790" y="-621.8" font-family="Times,serif" font-size="14.00">foo</text>
<text text-anchor="middle" x="790" y="-606.8" font-family="Times,serif" font-size="14.00">2010&#45;01</text>
</a>
</g>
</g>
<!-- foo.2010&#45;01&#45;&gt;foo.2010&#45;02 -->
<g id="edge17" class="edge"><title>foo.2010&#45;01&#45;&gt;foo.2010&#45;02</title>
<path fill="none" stroke="black" stroke-width="2" d="M759.463,-607.95C746.853,-603.636 732.333,-597.898 720,-591 700.004,-579.815 679.718,-564.027 664.207,-550.812"/>
<polygon fill="black" stroke="black" stroke-width="2" points="666.404,-548.084 656.557,-544.173 661.816,-553.371 666.404,-548.084"/>
</g>
<!-- foo.2010&#45;01&#45;&gt;bar.2010&#45;01 -->
<g id="edge15" class="edge"><title>foo.2010&#45;01&#45;&gt;bar.2010&#45;01</title>
<path fill="none" stroke="black" stroke-width="2" d="M784.536,-598.585C780.742,-585.797 775.616,-568.521 771.317,-554.031"/>
<polygon fill="black" stroke="black" stroke-width="2" points="774.564,-552.669 768.364,-544.077 767.853,-554.66 774.564,-552.669"/>
</g>
<!-- foo.2010&#45;01&#45;&gt;baz.2010&#45;01 -->
<g id="edge16" class="edge"><title>foo.2010&#45;01&#45;&gt;baz.2010&#45;01</title>
<path fill="none" stroke="black" stroke-width="2" d="M800.725,-598.585C808.39,-585.424 818.824,-567.511 827.407,-552.773"/>
<polygon fill="black" stroke="black" stroke-width="2" points="830.463,-554.48 832.471,-544.077 824.414,-550.957 830.463,-554.48"/>
</g>
<!-- prep.2010&#45;01 -->
<g id="node23" class="node"><title>prep.2010&#45;01</title>
<g id="a_node23"><a xlink:href="prep.2010-01" xlink:title="prep\n2010&#45;01">
<polygon fill="yellow" stroke="black" stroke-width="2" points="901.441,-772.997 836.934,-772.997 817,-834.471 797.066,-772.997 732.559,-772.997 784.747,-735.003 764.813,-673.529 817,-711.522 869.187,-673.529 849.253,-735.003 901.441,-772.997"/>
<text text-anchor="middle" x="817" y="-757.8" font-family="Times,serif" font-size="14.00">prep</text>
<text text-anchor="middle" x="817" y="-742.8" font-family="Times,serif" font-size="14.00">2010&#45;01</text>
</a>
</g>
</g>
<!-- prep.2010&#45;01&#45;&gt;foo.2010&#45;01 -->
<g id="edge29" class="edge"><title>prep.2010&#45;01&#45;&gt;foo.2010&#45;01</title>
<path fill="none" stroke="black" stroke-width="2" d="M807.176,-704.244C803.317,-685.092 799.024,-663.786 795.695,-647.266"/>
<polygon fill="black" stroke="black" stroke-width="2" points="799.068,-646.284 793.662,-637.172 792.206,-647.666 799.068,-646.284"/>
</g>
</g>
</svg>
