<?xml version="1.0" encoding="UTF-8" standalone="no"?>
<!-- Generated by graphviz version 2.36.0 (20140111.2315)
 -->

<!-- Title: %3 Pages: 1 -->

<svg
   xmlns:dc="http://purl.org/dc/elements/1.1/"
   xmlns:cc="http://creativecommons.org/ns#"
   xmlns:rdf="http://www.w3.org/1999/02/22-rdf-syntax-ns#"
   xmlns:svg="http://www.w3.org/2000/svg"
   xmlns="http://www.w3.org/2000/svg"
   xmlns:xlink="http://www.w3.org/1999/xlink"
   xmlns:sodipodi="http://sodipodi.sourceforge.net/DTD/sodipodi-0.dtd"
   xmlns:inkscape="http://www.inkscape.org/namespaces/inkscape"
   width="458pt"
   height="715pt"
   viewBox="0.00 0.00 458.00 715.00"
   id="svg37917"
   version="1.1"
   inkscape:version="0.48.4 r9939"
   sodipodi:docname="graph1-cont5.svg">
  <metadata
     id="metadata38350">
    <rdf:RDF>
      <cc:Work
         rdf:about="">
        <dc:format>image/svg+xml</dc:format>
        <dc:type
           rdf:resource="http://purl.org/dc/dcmitype/StillImage" />
      </cc:Work>
    </rdf:RDF>
  </metadata>
  <defs
     id="defs38348" />
  <sodipodi:namedview
     pagecolor="#ffffff"
     bordercolor="#666666"
     borderopacity="1"
     objecttolerance="10"
     gridtolerance="10"
     guidetolerance="10"
     inkscape:pageopacity="0"
     inkscape:pageshadow="2"
     inkscape:window-width="640"
     inkscape:window-height="480"
     id="namedview38346"
     showgrid="false"
     inkscape:zoom="0.26405594"
     inkscape:cx="286.25"
     inkscape:cy="446.875"
     inkscape:window-x="0"
     inkscape:window-y="26"
     inkscape:window-maximized="0"
     inkscape:current-layer="graph0" />
  <g
     id="graph0"
     class="graph"
     transform="scale(1 1) rotate(0) translate(4 711)">
    <title
       id="title37920">%3</title>
    <polygon
       fill="white"
       stroke="none"
       points="-4,4 -4,-711 454,-711 454,4 -4,4"
       id="polygon37922" />
    <!-- bar.1 -->
    <g
       id="node1"
       class="node">
      <title
         id="title37927">bar.1</title>
      <g
         id="a_node1">
        <a
           xlink:href="bar.1"
           id="a37930"
           xlink:title="bar\n1">
          <ellipse
             fill="#ffcc00"
             stroke="black"
             stroke-width="2"
             cx="27"
             cy="-500"
             rx="27"
             ry="26.7407"
             id="ellipse37932"
             d="m 54,-500 c 0,14.76848 -12.088312,26.7407 -27,26.7407 -14.911688,0 -27,-11.97222 -27,-26.7407 0,-14.76848 12.088312,-26.7407 27,-26.7407 14.911688,0 27,11.97222 27,26.7407 z" />
          <text
             text-anchor="middle"
             x="27"
             y="-503.8"
             font-family="Times,serif"
             font-size="14.00"
             id="text37934">bar</text>
          <text
             text-anchor="middle"
             x="27"
             y="-488.8"
             font-family="Times,serif"
             font-size="14.00"
             id="text37936">1</text>
        </a>
      </g>
    </g>
    <!-- baz.1 -->
    <g
       id="node2"
       class="node">
      <title
         id="title37939">baz.1</title>
      <g
         id="a_node2">
        <a
           xlink:href="baz.1"
           id="a37942"
           xlink:title="baz\n1">
          <ellipse
             fill="#00c798"
             stroke="black"
             stroke-width="2"
             cx="99"
             cy="-500"
             rx="27"
             ry="26.7407"
             id="ellipse37944"
             d="m 126,-500 c 0,14.76848 -12.08831,26.7407 -27,26.7407 -14.911688,0 -27,-11.97222 -27,-26.7407 0,-14.76848 12.088312,-26.7407 27,-26.7407 14.91169,0 27,11.97222 27,26.7407 z" />
          <text
             text-anchor="middle"
             x="99"
             y="-503.8"
             font-family="Times,serif"
             font-size="14.00"
             id="text37946">baz</text>
          <text
             text-anchor="middle"
             x="99"
             y="-488.8"
             font-family="Times,serif"
             font-size="14.00"
             id="text37948">1</text>
        </a>
      </g>
    </g>
    <!-- bar.2 -->
    <g
       id="node3"
       class="node">
      <title
         id="title37951">bar.2</title>
      <g
         id="a_node3">
        <a
           xlink:href="bar.2"
           id="a37954"
           xlink:title="bar\n2">
          <ellipse
             fill="#ffcc00"
             stroke="black"
             stroke-width="2"
             cx="99"
             cy="-410"
             rx="27"
             ry="26.7407"
             id="ellipse37956"
             d="m 126,-410 c 0,14.76848 -12.08831,26.7407 -27,26.7407 -14.911688,0 -27,-11.97222 -27,-26.7407 0,-14.76848 12.088312,-26.7407 27,-26.7407 14.91169,0 27,11.97222 27,26.7407 z" />
          <text
             text-anchor="middle"
             x="99"
             y="-413.8"
             font-family="Times,serif"
             font-size="14.00"
             id="text37958">bar</text>
          <text
             text-anchor="middle"
             x="99"
             y="-398.8"
             font-family="Times,serif"
             font-size="14.00"
             id="text37960">2</text>
        </a>
      </g>
    </g>
    <!-- baz.1&#45;&gt;bar.2 -->
    <g
       id="edge1"
       class="edge">
      <title
         id="title37963">baz.1-&gt;bar.2</title>
      <path
         fill="none"
         stroke="black"
         stroke-width="2"
         d="M99,-473.073C99,-464.999 99,-455.943 99,-447.296"
         id="path37965" />
      <polygon
         fill="black"
         stroke="black"
         stroke-width="2"
         points="102.5,-447.046 99,-437.046 95.5001,-447.046 102.5,-447.046"
         id="polygon37967" />
    </g>
    <!-- qux.1 -->
    <g
       id="node4"
       class="node">
      <title
         id="title37970">qux.1</title>
      <g
         id="a_node4">
        <a
           xlink:href="qux.1"
           id="a37973"
           xlink:title="qux\n1">
          <ellipse
             fill="#00b4fd"
             stroke="black"
             stroke-width="2"
             cx="27"
             cy="-410"
             rx="27"
             ry="26.7407"
             id="ellipse37975"
             d="m 54,-410 c 0,14.76848 -12.088312,26.7407 -27,26.7407 -14.911688,0 -27,-11.97222 -27,-26.7407 0,-14.76848 12.088312,-26.7407 27,-26.7407 14.911688,0 27,11.97222 27,26.7407 z" />
          <text
             text-anchor="middle"
             x="27"
             y="-413.8"
             font-family="Times,serif"
             font-size="14.00"
             id="text37977">qux</text>
          <text
             text-anchor="middle"
             x="27"
             y="-398.8"
             font-family="Times,serif"
             font-size="14.00"
             id="text37979">1</text>
        </a>
      </g>
    </g>
    <!-- baz.1&#45;&gt;qux.1 -->
    <g
       id="edge2"
       class="edge">
      <title
         id="title37982">baz.1-&gt;qux.1</title>
      <path
         fill="none"
         stroke="black"
         stroke-width="2"
         d="M82.3008,-478.59C72.7591,-466.928 60.6491,-452.127 50.1954,-439.35"
         id="path37984" />
      <polygon
         fill="black"
         stroke="black"
         stroke-width="2"
         points="52.6499,-436.823 43.6087,-431.299 47.2322,-441.255 52.6499,-436.823"
         id="polygon37986" />
    </g>
    <!-- baz.2 -->
    <g
       id="node5"
       class="node">
      <title
         id="title37989">baz.2</title>
      <g
         id="a_node5">
        <a
           xlink:href="baz.2"
           id="a37992"
           xlink:title="baz\n2">
          <ellipse
             fill="#00c798"
             stroke="black"
             stroke-width="2"
             cx="171"
             cy="-410"
             rx="27"
             ry="26.7407"
             id="ellipse37994"
             d="m 198,-410 c 0,14.76848 -12.08831,26.7407 -27,26.7407 -14.91169,0 -27,-11.97222 -27,-26.7407 0,-14.76848 12.08831,-26.7407 27,-26.7407 14.91169,0 27,11.97222 27,26.7407 z" />
          <text
             text-anchor="middle"
             x="171"
             y="-413.8"
             font-family="Times,serif"
             font-size="14.00"
             id="text37996">baz</text>
          <text
             text-anchor="middle"
             x="171"
             y="-398.8"
             font-family="Times,serif"
             font-size="14.00"
             id="text37998">2</text>
        </a>
      </g>
    </g>
    <!-- bar.3 -->
    <g
       id="node6"
       class="node">
      <title
         id="title38001">bar.3</title>
      <g
         id="a_node6">
        <a
           xlink:href="bar.3"
           id="a38004"
           xlink:title="bar\n3">
          <ellipse
             fill="#ffcc00"
             stroke="black"
             stroke-width="2"
             cx="171"
             cy="-320"
             rx="27"
             ry="26.7407"
             id="ellipse38006"
             d="m 198,-320 c 0,14.76848 -12.08831,26.7407 -27,26.7407 -14.91169,0 -27,-11.97222 -27,-26.7407 0,-14.76848 12.08831,-26.7407 27,-26.7407 14.91169,0 27,11.97222 27,26.7407 z" />
          <text
             text-anchor="middle"
             x="171"
             y="-323.8"
             font-family="Times,serif"
             font-size="14.00"
             id="text38008">bar</text>
          <text
             text-anchor="middle"
             x="171"
             y="-308.8"
             font-family="Times,serif"
             font-size="14.00"
             id="text38010">3</text>
        </a>
      </g>
    </g>
    <!-- baz.2&#45;&gt;bar.3 -->
    <g
       id="edge3"
       class="edge">
      <title
         id="title38013">baz.2-&gt;bar.3</title>
      <path
         fill="none"
         stroke="black"
         stroke-width="2"
         d="M171,-383.073C171,-374.999 171,-365.943 171,-357.296"
         id="path38015" />
      <polygon
         fill="black"
         stroke="black"
         stroke-width="2"
         points="174.5,-357.046 171,-347.046 167.5,-357.046 174.5,-357.046"
         id="polygon38017" />
    </g>
    <!-- qux.2 -->
    <g
       id="node7"
       class="node">
      <title
         id="title38020">qux.2</title>
      <g
         id="a_node7">
        <a
           xlink:href="qux.2"
           id="a38023"
           xlink:title="qux\n2">
          <ellipse
             fill="#00b4fd"
             stroke="black"
             stroke-width="2"
             cx="99"
             cy="-320"
             rx="27"
             ry="26.7407"
             id="ellipse38025"
             d="m 126,-320 c 0,14.76848 -12.08831,26.7407 -27,26.7407 -14.911688,0 -27,-11.97222 -27,-26.7407 0,-14.76848 12.088312,-26.7407 27,-26.7407 14.91169,0 27,11.97222 27,26.7407 z" />
          <text
             text-anchor="middle"
             x="99"
             y="-323.8"
             font-family="Times,serif"
             font-size="14.00"
             id="text38027">qux</text>
          <text
             text-anchor="middle"
             x="99"
             y="-308.8"
             font-family="Times,serif"
             font-size="14.00"
             id="text38029">2</text>
        </a>
      </g>
    </g>
    <!-- baz.2&#45;&gt;qux.2 -->
    <g
       id="edge4"
       class="edge">
      <title
         id="title38032">baz.2-&gt;qux.2</title>
      <path
         fill="none"
         stroke="black"
         stroke-width="2"
         d="M154.301,-388.59C144.759,-376.928 132.649,-362.127 122.195,-349.35"
         id="path38034" />
      <polygon
         fill="black"
         stroke="black"
         stroke-width="2"
         points="124.65,-346.823 115.609,-341.299 119.232,-351.255 124.65,-346.823"
         id="polygon38036" />
    </g>
    <!-- baz.3 -->
    <g
       id="node8"
       class="node">
      <title
         id="title38039">baz.3</title>
      <g
         id="a_node8">
        <a
           xlink:href="baz.3"
           id="a38042"
           xlink:title="baz\n3">
          <ellipse
             fill="#00c798"
             stroke="black"
             stroke-width="2"
             cx="243"
             cy="-320"
             rx="27"
             ry="26.7407"
             id="ellipse38044"
             d="m 270,-320 c 0,14.76848 -12.08831,26.7407 -27,26.7407 -14.91169,0 -27,-11.97222 -27,-26.7407 0,-14.76848 12.08831,-26.7407 27,-26.7407 14.91169,0 27,11.97222 27,26.7407 z" />
          <text
             text-anchor="middle"
             x="243"
             y="-323.8"
             font-family="Times,serif"
             font-size="14.00"
             id="text38046">baz</text>
          <text
             text-anchor="middle"
             x="243"
             y="-308.8"
             font-family="Times,serif"
             font-size="14.00"
             id="text38048">3</text>
        </a>
      </g>
    </g>
    <!-- bar.4 -->
    <g
       id="node9"
       class="node">
      <title
         id="title38051">bar.4</title>
      <g
         id="a_node9">
        <a
           xlink:href="bar.4"
           id="a38054"
           xlink:title="bar\n4">
          <ellipse
             fill="#ffcc00"
             stroke="black"
             stroke-width="2"
             cx="243"
             cy="-230"
             rx="27"
             ry="26.7407"
             id="ellipse38056"
             d="m 270,-230 c 0,14.76848 -12.08831,26.7407 -27,26.7407 -14.91169,0 -27,-11.97222 -27,-26.7407 0,-14.76848 12.08831,-26.7407 27,-26.7407 14.91169,0 27,11.97222 27,26.7407 z" />
          <text
             text-anchor="middle"
             x="243"
             y="-233.8"
             font-family="Times,serif"
             font-size="14.00"
             id="text38058">bar</text>
          <text
             text-anchor="middle"
             x="243"
             y="-218.8"
             font-family="Times,serif"
             font-size="14.00"
             id="text38060">4</text>
        </a>
      </g>
    </g>
    <!-- baz.3&#45;&gt;bar.4 -->
    <g
       id="edge5"
       class="edge">
      <title
         id="title38063">baz.3-&gt;bar.4</title>
      <path
         fill="none"
         stroke="black"
         stroke-width="2"
         d="M243,-293.073C243,-284.999 243,-275.943 243,-267.296"
         id="path38065" />
      <polygon
         fill="black"
         stroke="black"
         stroke-width="2"
         points="246.5,-267.046 243,-257.046 239.5,-267.046 246.5,-267.046"
         id="polygon38067" />
    </g>
    <!-- qux.3 -->
    <g
       id="node10"
       class="node">
      <title
         id="title38070">qux.3</title>
      <g
         id="a_node10">
        <a
           xlink:href="qux.3"
           id="a38073"
           xlink:title="qux\n3">
          <ellipse
             fill="#00b4fd"
             stroke="black"
             stroke-width="2"
             cx="171"
             cy="-230"
             rx="27"
             ry="26.7407"
             id="ellipse38075"
             d="m 198,-230 c 0,14.76848 -12.08831,26.7407 -27,26.7407 -14.91169,0 -27,-11.97222 -27,-26.7407 0,-14.76848 12.08831,-26.7407 27,-26.7407 14.91169,0 27,11.97222 27,26.7407 z" />
          <text
             text-anchor="middle"
             x="171"
             y="-233.8"
             font-family="Times,serif"
             font-size="14.00"
             id="text38077">qux</text>
          <text
             text-anchor="middle"
             x="171"
             y="-218.8"
             font-family="Times,serif"
             font-size="14.00"
             id="text38079">3</text>
        </a>
      </g>
    </g>
    <!-- baz.3&#45;&gt;qux.3 -->
    <g
       id="edge6"
       class="edge">
      <title
         id="title38082">baz.3-&gt;qux.3</title>
      <path
         fill="none"
         stroke="black"
         stroke-width="2"
         d="M226.301,-298.59C216.759,-286.928 204.649,-272.127 194.195,-259.35"
         id="path38084" />
      <polygon
         fill="black"
         stroke="black"
         stroke-width="2"
         points="196.65,-256.823 187.609,-251.299 191.232,-261.255 196.65,-256.823"
         id="polygon38086" />
    </g>
    <!-- baz.4 -->
    <g
       id="node11"
       class="node">
      <title
         id="title38089">baz.4</title>
      <g
         id="a_node11">
        <a
           xlink:href="baz.4"
           id="a38092"
           xlink:title="baz\n4">
          <ellipse
             fill="#00c798"
             stroke="black"
             stroke-width="2"
             cx="315"
             cy="-230"
             rx="27"
             ry="26.7407"
             id="ellipse38094"
             d="m 342,-230 c 0,14.76848 -12.08831,26.7407 -27,26.7407 -14.91169,0 -27,-11.97222 -27,-26.7407 0,-14.76848 12.08831,-26.7407 27,-26.7407 14.91169,0 27,11.97222 27,26.7407 z" />
          <text
             text-anchor="middle"
             x="315"
             y="-233.8"
             font-family="Times,serif"
             font-size="14.00"
             id="text38096">baz</text>
          <text
             text-anchor="middle"
             x="315"
             y="-218.8"
             font-family="Times,serif"
             font-size="14.00"
             id="text38098">4</text>
        </a>
      </g>
    </g>
    <!-- bar.5 -->
    <g
       id="node12"
       class="node">
      <title
         id="title38101">bar.5</title>
      <g
         id="a_node12">
        <a
           xlink:href="bar.5"
           id="a38104"
           xlink:title="bar\n5">
          <ellipse
             fill="#ffcc00"
             stroke="black"
             stroke-width="2"
             cx="351"
             cy="-140"
             rx="27"
             ry="26.7407"
             id="ellipse38106"
             d="m 378,-140 c 0,14.76848 -12.08831,26.7407 -27,26.7407 -14.91169,0 -27,-11.97222 -27,-26.7407 0,-14.76848 12.08831,-26.7407 27,-26.7407 14.91169,0 27,11.97222 27,26.7407 z" />
          <text
             text-anchor="middle"
             x="351"
             y="-143.8"
             font-family="Times,serif"
             font-size="14.00"
             id="text38108">bar</text>
          <text
             text-anchor="middle"
             x="351"
             y="-128.8"
             font-family="Times,serif"
             font-size="14.00"
             id="text38110">5</text>
        </a>
      </g>
    </g>
    <!-- baz.4&#45;&gt;bar.5 -->
    <g
       id="edge7"
       class="edge">
      <title
         id="title38113">baz.4-&gt;bar.5</title>
      <path
         fill="none"
         stroke="black"
         stroke-width="2"
         d="M324.837,-204.954C328.655,-195.621 333.094,-184.769 337.22,-174.683"
         id="path38115" />
      <polygon
         fill="black"
         stroke="black"
         stroke-width="2"
         points="340.503,-175.904 341.05,-165.323 334.024,-173.253 340.503,-175.904"
         id="polygon38117" />
    </g>
    <!-- qux.4 -->
    <g
       id="node13"
       class="node">
      <title
         id="title38120">qux.4</title>
      <g
         id="a_node13">
        <a
           xlink:href="qux.4"
           id="a38123"
           xlink:title="qux\n4">
          <ellipse
             fill="#00b4fd"
             stroke="black"
             stroke-width="2"
             cx="279"
             cy="-140"
             rx="27"
             ry="26.7407"
             id="ellipse38125"
             d="m 306,-140 c 0,14.76848 -12.08831,26.7407 -27,26.7407 -14.91169,0 -27,-11.97222 -27,-26.7407 0,-14.76848 12.08831,-26.7407 27,-26.7407 14.91169,0 27,11.97222 27,26.7407 z" />
          <text
             text-anchor="middle"
             x="279"
             y="-143.8"
             font-family="Times,serif"
             font-size="14.00"
             id="text38127">qux</text>
          <text
             text-anchor="middle"
             x="279"
             y="-128.8"
             font-family="Times,serif"
             font-size="14.00"
             id="text38129">4</text>
        </a>
      </g>
    </g>
    <!-- baz.4&#45;&gt;qux.4 -->
    <g
       id="edge8"
       class="edge">
      <title
         id="title38132">baz.4-&gt;qux.4</title>
      <path
         fill="none"
         stroke="black"
         stroke-width="2"
         d="M305.163,-204.954C301.345,-195.621 296.906,-184.769 292.78,-174.683"
         id="path38134" />
      <polygon
         fill="black"
         stroke="black"
         stroke-width="2"
         points="295.976,-173.253 288.95,-165.323 289.497,-175.904 295.976,-173.253"
         id="polygon38136" />
    </g>
    <!-- baz.5 -->
    <g
       id="node14"
       class="node">
      <title
         id="title38139">baz.5</title>
      <g
         id="a_node14">
        <a
           xlink:href="baz.5"
           id="a38142"
           xlink:title="baz\n5">
          <ellipse
             fill="#00c798"
             stroke="black"
             stroke-width="2"
             cx="423"
             cy="-140"
             rx="27"
             ry="26.7407"
             id="ellipse38144"
             d="m 450,-140 c 0,14.76848 -12.08831,26.7407 -27,26.7407 -14.91169,0 -27,-11.97222 -27,-26.7407 0,-14.76848 12.08831,-26.7407 27,-26.7407 14.91169,0 27,11.97222 27,26.7407 z" />
          <text
             text-anchor="middle"
             x="423"
             y="-143.8"
             font-family="Times,serif"
             font-size="14.00"
             id="text38146">baz</text>
          <text
             text-anchor="middle"
             x="423"
             y="-128.8"
             font-family="Times,serif"
             font-size="14.00"
             id="text38148">5</text>
        </a>
      </g>
    </g>
    <!-- qux.5 -->
    <g
       id="node15"
       class="node">
      <title
         id="title38151">qux.5</title>
      <g
         id="a_node15">
        <a
           xlink:href="qux.5"
           id="a38154"
           xlink:title="qux\n5">
          <ellipse
             fill="#00b4fd"
             stroke="black"
             stroke-width="2"
             cx="423"
             cy="-50"
             rx="27"
             ry="26.7407"
             id="ellipse38156"
             d="m 450,-50 c 0,14.768481 -12.08831,26.7407 -27,26.7407 -14.91169,0 -27,-11.972219 -27,-26.7407 0,-14.768481 12.08831,-26.7407 27,-26.7407 14.91169,0 27,11.972219 27,26.7407 z" />
          <text
             text-anchor="middle"
             x="423"
             y="-53.8"
             font-family="Times,serif"
             font-size="14.00"
             id="text38158">qux</text>
          <text
             text-anchor="middle"
             x="423"
             y="-38.8"
             font-family="Times,serif"
             font-size="14.00"
             id="text38160">5</text>
        </a>
      </g>
    </g>
    <!-- baz.5&#45;&gt;qux.5 -->
    <g
       id="edge9"
       class="edge">
      <title
         id="title38163">baz.5-&gt;qux.5</title>
      <path
         fill="none"
         stroke="black"
         stroke-width="2"
         d="M423,-113.073C423,-104.999 423,-95.9428 423,-87.2961"
         id="path38165" />
      <polygon
         fill="black"
         stroke="black"
         stroke-width="2"
         points="426.5,-87.0457 423,-77.0457 419.5,-87.0458 426.5,-87.0457"
         id="polygon38167" />
    </g>
    <!-- foo.1 -->
    <g
       id="node16"
       class="node">
      <title
         id="title38170">foo.1</title>
      <g
         id="a_node16">
        <a
           xlink:href="foo.1"
           id="a38173"
           xlink:title="foo\n1">
          <ellipse
             fill="#ff5d6a"
             stroke="black"
             stroke-width="2"
             cx="99"
             cy="-590"
             rx="27"
             ry="26.7407"
             id="ellipse38175"
             d="m 126,-590 c 0,14.76848 -12.08831,26.7407 -27,26.7407 -14.911688,0 -27,-11.97222 -27,-26.7407 0,-14.76848 12.088312,-26.7407 27,-26.7407 14.91169,0 27,11.97222 27,26.7407 z" />
          <text
             text-anchor="middle"
             x="99"
             y="-593.8"
             font-family="Times,serif"
             font-size="14.00"
             id="text38177">foo</text>
          <text
             text-anchor="middle"
             x="99"
             y="-578.8"
             font-family="Times,serif"
             font-size="14.00"
             id="text38179">1</text>
        </a>
      </g>
    </g>
    <!-- foo.1&#45;&gt;bar.1 -->
    <g
       id="edge10"
       class="edge">
      <title
         id="title38182">foo.1-&gt;bar.1</title>
      <path
         fill="none"
         stroke="black"
         stroke-width="2"
         d="M82.3008,-568.59C72.7591,-556.928 60.6491,-542.127 50.1954,-529.35"
         id="path38184" />
      <polygon
         fill="black"
         stroke="black"
         stroke-width="2"
         points="52.6499,-526.823 43.6087,-521.299 47.2322,-531.255 52.6499,-526.823"
         id="polygon38186" />
    </g>
    <!-- foo.1&#45;&gt;baz.1 -->
    <g
       id="edge11"
       class="edge">
      <title
         id="title38189">foo.1-&gt;baz.1</title>
      <path
         fill="none"
         stroke="black"
         stroke-width="2"
         d="M99,-563.073C99,-554.999 99,-545.943 99,-537.296"
         id="path38191" />
      <polygon
         fill="black"
         stroke="black"
         stroke-width="2"
         points="102.5,-537.046 99,-527.046 95.5001,-537.046 102.5,-537.046"
         id="polygon38193" />
    </g>
    <!-- foo.2 -->
    <g
       id="node17"
       class="node">
      <title
         id="title38196">foo.2</title>
      <g
         id="a_node17">
        <a
           xlink:href="foo.2"
           id="a38199"
           xlink:title="foo\n2">
          <ellipse
             fill="#ff5d6a"
             stroke="black"
             stroke-width="2"
             cx="171"
             cy="-500"
             rx="27"
             ry="26.7407"
             id="ellipse38201"
             d="m 198,-500 c 0,14.76848 -12.08831,26.7407 -27,26.7407 -14.91169,0 -27,-11.97222 -27,-26.7407 0,-14.76848 12.08831,-26.7407 27,-26.7407 14.91169,0 27,11.97222 27,26.7407 z" />
          <text
             text-anchor="middle"
             x="171"
             y="-503.8"
             font-family="Times,serif"
             font-size="14.00"
             id="text38203">foo</text>
          <text
             text-anchor="middle"
             x="171"
             y="-488.8"
             font-family="Times,serif"
             font-size="14.00"
             id="text38205">2</text>
        </a>
      </g>
    </g>
    <!-- foo.1&#45;&gt;foo.2 -->
    <g
       id="edge12"
       class="edge">
      <title
         id="title38208">foo.1-&gt;foo.2</title>
      <path
         fill="none"
         stroke="black"
         stroke-width="2"
         d="M115.699,-568.59C125.241,-556.928 137.351,-542.127 147.805,-529.35"
         id="path38210" />
      <polygon
         fill="black"
         stroke="black"
         stroke-width="2"
         points="150.768,-531.255 154.391,-521.299 145.35,-526.823 150.768,-531.255"
         id="polygon38212" />
    </g>
    <!-- foo.2&#45;&gt;bar.2 -->
    <g
       id="edge13"
       class="edge">
      <title
         id="title38215">foo.2-&gt;bar.2</title>
      <path
         fill="none"
         stroke="black"
         stroke-width="2"
         d="M154.301,-478.59C144.759,-466.928 132.649,-452.127 122.195,-439.35"
         id="path38217" />
      <polygon
         fill="black"
         stroke="black"
         stroke-width="2"
         points="124.65,-436.823 115.609,-431.299 119.232,-441.255 124.65,-436.823"
         id="polygon38219" />
    </g>
    <!-- foo.2&#45;&gt;baz.2 -->
    <g
       id="edge14"
       class="edge">
      <title
         id="title38222">foo.2-&gt;baz.2</title>
      <path
         fill="none"
         stroke="black"
         stroke-width="2"
         d="M171,-473.073C171,-464.999 171,-455.943 171,-447.296"
         id="path38224" />
      <polygon
         fill="black"
         stroke="black"
         stroke-width="2"
         points="174.5,-447.046 171,-437.046 167.5,-447.046 174.5,-447.046"
         id="polygon38226" />
    </g>
    <!-- foo.3 -->
    <g
       id="node18"
       class="node">
      <title
         id="title38229">foo.3</title>
      <g
         id="a_node18">
        <a
           xlink:href="foo.3"
           id="a38232"
           xlink:title="foo\n3">
          <ellipse
             fill="#ff5d6a"
             stroke="black"
             stroke-width="2"
             cx="243"
             cy="-410"
             rx="27"
             ry="26.7407"
             id="ellipse38234"
             d="m 270,-410 c 0,14.76848 -12.08831,26.7407 -27,26.7407 -14.91169,0 -27,-11.97222 -27,-26.7407 0,-14.76848 12.08831,-26.7407 27,-26.7407 14.91169,0 27,11.97222 27,26.7407 z" />
          <text
             text-anchor="middle"
             x="243"
             y="-413.8"
             font-family="Times,serif"
             font-size="14.00"
             id="text38236">foo</text>
          <text
             text-anchor="middle"
             x="243"
             y="-398.8"
             font-family="Times,serif"
             font-size="14.00"
             id="text38238">3</text>
        </a>
      </g>
    </g>
    <!-- foo.2&#45;&gt;foo.3 -->
    <g
       id="edge15"
       class="edge">
      <title
         id="title38241">foo.2-&gt;foo.3</title>
      <path
         fill="none"
         stroke="black"
         stroke-width="2"
         d="M187.699,-478.59C197.241,-466.928 209.351,-452.127 219.805,-439.35"
         id="path38243" />
      <polygon
         fill="black"
         stroke="black"
         stroke-width="2"
         points="222.768,-441.255 226.391,-431.299 217.35,-436.823 222.768,-441.255"
         id="polygon38245" />
    </g>
    <!-- foo.3&#45;&gt;bar.3 -->
    <g
       id="edge16"
       class="edge">
      <title
         id="title38248">foo.3-&gt;bar.3</title>
      <path
         fill="none"
         stroke="black"
         stroke-width="2"
         d="M226.301,-388.59C216.759,-376.928 204.649,-362.127 194.195,-349.35"
         id="path38250" />
      <polygon
         fill="black"
         stroke="black"
         stroke-width="2"
         points="196.65,-346.823 187.609,-341.299 191.232,-351.255 196.65,-346.823"
         id="polygon38252" />
    </g>
    <!-- foo.3&#45;&gt;baz.3 -->
    <g
       id="edge17"
       class="edge">
      <title
         id="title38255">foo.3-&gt;baz.3</title>
      <path
         fill="none"
         stroke="black"
         stroke-width="2"
         d="M243,-383.073C243,-374.999 243,-365.943 243,-357.296"
         id="path38257" />
      <polygon
         fill="black"
         stroke="black"
         stroke-width="2"
         points="246.5,-357.046 243,-347.046 239.5,-357.046 246.5,-357.046"
         id="polygon38259" />
    </g>
    <!-- foo.4 -->
    <g
       id="node19"
       class="node">
      <title
         id="title38262">foo.4</title>
      <g
         id="a_node19">
        <a
           xlink:href="foo.4"
           id="a38265"
           xlink:title="foo\n4">
          <ellipse
             fill="#ff5d6a"
             stroke="black"
             stroke-width="2"
             cx="315"
             cy="-320"
             rx="27"
             ry="26.7407"
             id="ellipse38267"
             d="m 342,-320 c 0,14.76848 -12.08831,26.7407 -27,26.7407 -14.91169,0 -27,-11.97222 -27,-26.7407 0,-14.76848 12.08831,-26.7407 27,-26.7407 14.91169,0 27,11.97222 27,26.7407 z" />
          <text
             text-anchor="middle"
             x="315"
             y="-323.8"
             font-family="Times,serif"
             font-size="14.00"
             id="text38269">foo</text>
          <text
             text-anchor="middle"
             x="315"
             y="-308.8"
             font-family="Times,serif"
             font-size="14.00"
             id="text38271">4</text>
        </a>
      </g>
    </g>
    <!-- foo.3&#45;&gt;foo.4 -->
    <g
       id="edge18"
       class="edge">
      <title
         id="title38274">foo.3-&gt;foo.4</title>
      <path
         fill="none"
         stroke="black"
         stroke-width="2"
         d="M259.699,-388.59C269.241,-376.928 281.351,-362.127 291.805,-349.35"
         id="path38276" />
      <polygon
         fill="black"
         stroke="black"
         stroke-width="2"
         points="294.768,-351.255 298.391,-341.299 289.35,-346.823 294.768,-351.255"
         id="polygon38278" />
    </g>
    <!-- foo.4&#45;&gt;bar.4 -->
    <g
       id="edge19"
       class="edge">
      <title
         id="title38281">foo.4-&gt;bar.4</title>
      <path
         fill="none"
         stroke="black"
         stroke-width="2"
         d="M298.301,-298.59C288.759,-286.928 276.649,-272.127 266.195,-259.35"
         id="path38283" />
      <polygon
         fill="black"
         stroke="black"
         stroke-width="2"
         points="268.65,-256.823 259.609,-251.299 263.232,-261.255 268.65,-256.823"
         id="polygon38285" />
    </g>
    <!-- foo.4&#45;&gt;baz.4 -->
    <g
       id="edge20"
       class="edge">
      <title
         id="title38288">foo.4-&gt;baz.4</title>
      <path
         fill="none"
         stroke="black"
         stroke-width="2"
         d="M315,-293.073C315,-284.999 315,-275.943 315,-267.296"
         id="path38290" />
      <polygon
         fill="black"
         stroke="black"
         stroke-width="2"
         points="318.5,-267.046 315,-257.046 311.5,-267.046 318.5,-267.046"
         id="polygon38292" />
    </g>
    <!-- foo.5 -->
    <g
       id="node20"
       class="node">
      <title
         id="title38295">foo.5</title>
      <g
         id="a_node20">
        <a
           xlink:href="foo.5"
           id="a38298"
           xlink:title="foo\n5">
          <ellipse
             fill="#ff5d6a"
             stroke="black"
             stroke-width="2"
             cx="387"
             cy="-230"
             rx="27"
             ry="26.7407"
             id="ellipse38300"
             d="m 414,-230 c 0,14.76848 -12.08831,26.7407 -27,26.7407 -14.91169,0 -27,-11.97222 -27,-26.7407 0,-14.76848 12.08831,-26.7407 27,-26.7407 14.91169,0 27,11.97222 27,26.7407 z" />
          <text
             text-anchor="middle"
             x="387"
             y="-233.8"
             font-family="Times,serif"
             font-size="14.00"
             id="text38302">foo</text>
          <text
             text-anchor="middle"
             x="387"
             y="-218.8"
             font-family="Times,serif"
             font-size="14.00"
             id="text38304">5</text>
        </a>
      </g>
    </g>
    <!-- foo.4&#45;&gt;foo.5 -->
    <g
       id="edge21"
       class="edge">
      <title
         id="title38307">foo.4-&gt;foo.5</title>
      <path
         fill="none"
         stroke="black"
         stroke-width="2"
         d="M331.699,-298.59C341.241,-286.928 353.351,-272.127 363.805,-259.35"
         id="path38309" />
      <polygon
         fill="black"
         stroke="black"
         stroke-width="2"
         points="366.768,-261.255 370.391,-251.299 361.35,-256.823 366.768,-261.255"
         id="polygon38311" />
    </g>
    <!-- foo.5&#45;&gt;bar.5 -->
    <g
       id="edge22"
       class="edge">
      <title
         id="title38314">foo.5-&gt;bar.5</title>
      <path
         fill="none"
         stroke="black"
         stroke-width="2"
         d="M377.163,-204.954C373.345,-195.621 368.906,-184.769 364.78,-174.683"
         id="path38316" />
      <polygon
         fill="black"
         stroke="black"
         stroke-width="2"
         points="367.976,-173.253 360.95,-165.323 361.497,-175.904 367.976,-173.253"
         id="polygon38318" />
    </g>
    <!-- foo.5&#45;&gt;baz.5 -->
    <g
       id="edge23"
       class="edge">
      <title
         id="title38321">foo.5-&gt;baz.5</title>
      <path
         fill="none"
         stroke="black"
         stroke-width="2"
         d="M396.837,-204.954C400.655,-195.621 405.094,-184.769 409.22,-174.683"
         id="path38323" />
      <polygon
         fill="black"
         stroke="black"
         stroke-width="2"
         points="412.503,-175.904 413.05,-165.323 406.024,-173.253 412.503,-175.904"
         id="polygon38325" />
    </g>
    <!-- prep.1 -->
    <g
       id="node21"
       class="node">
      <title
         id="title38328">prep.1</title>
      <g
         id="a_node21">
        <a
           xlink:href="prep.1"
           id="a38331"
           xlink:title="prep\n1">
          <ellipse
             fill="slategray"
             stroke="black"
             stroke-width="2"
             cx="99"
             cy="-680"
             rx="28.4872"
             ry="26.7407"
             id="ellipse38333"
             d="m 127.4872,-680 c 0,14.76848 -12.75415,26.7407 -28.4872,26.7407 -15.733046,0 -28.4872,-11.97222 -28.4872,-26.7407 0,-14.76848 12.754154,-26.7407 28.4872,-26.7407 15.73305,0 28.4872,11.97222 28.4872,26.7407 z" />
          <text
             text-anchor="middle"
             x="99"
             y="-683.8"
             font-family="Times,serif"
             font-size="14.00"
             id="text38335">prep</text>
          <text
             text-anchor="middle"
             x="99"
             y="-668.8"
             font-family="Times,serif"
             font-size="14.00"
             id="text38337">1</text>
        </a>
      </g>
    </g>
    <!-- prep.1&#45;&gt;foo.1 -->
    <g
       id="edge24"
       class="edge">
      <title
         id="title38340">prep.1-&gt;foo.1</title>
      <path
         fill="none"
         stroke="black"
         stroke-width="2"
         d="M99,-653.073C99,-644.999 99,-635.943 99,-627.296"
         id="path38342" />
      <polygon
         fill="black"
         stroke="black"
         stroke-width="2"
         points="102.5,-627.046 99,-617.046 95.5001,-627.046 102.5,-627.046"
         id="polygon38344" />
    </g>
  </g>
</svg>
