<?xml version="1.0" encoding="UTF-8" standalone="no"?>
<!-- Generated by graphviz version 2.36.0 (20140111.2315)
 -->

<!-- Title: %3 Pages: 1 -->

<svg
   xmlns:dc="http://purl.org/dc/elements/1.1/"
   xmlns:cc="http://creativecommons.org/ns#"
   xmlns:rdf="http://www.w3.org/1999/02/22-rdf-syntax-ns#"
   xmlns:svg="http://www.w3.org/2000/svg"
   xmlns="http://www.w3.org/2000/svg"
   xmlns:xlink="http://www.w3.org/1999/xlink"
   xmlns:sodipodi="http://sodipodi.sourceforge.net/DTD/sodipodi-0.dtd"
   xmlns:inkscape="http://www.inkscape.org/namespaces/inkscape"
   width="466pt"
   height="426pt"
   viewBox="0.00 0.00 466.00 426.00"
   id="svg2"
   version="1.1"
   inkscape:version="0.48.4 r9939"
   sodipodi:docname="graph1-3.svg">
  <metadata
     id="metadata262">
    <rdf:RDF>
      <cc:Work
         rdf:about="">
        <dc:format>image/svg+xml</dc:format>
        <dc:type
           rdf:resource="http://purl.org/dc/dcmitype/StillImage" />
        <dc:title></dc:title>
      </cc:Work>
    </rdf:RDF>
  </metadata>
  <defs
     id="defs260">
    <marker
       inkscape:stockid="TriangleOutLm"
       orient="auto"
       refY="0"
       refX="0"
       id="TriangleOutLm"
       style="overflow:visible">
      <path
         inkscape:connector-curvature="0"
         id="path6613"
         d="m 5.77,0 -8.65,5 0,-10 8.65,5 z"
         style="fill:#d4a11a;fill-rule:evenodd;stroke:#d4a11a;stroke-width:1pt"
         transform="scale(0.8,0.8)" />
    </marker>
    <marker
       inkscape:stockid="TriangleOutLm"
       orient="auto"
       refY="0"
       refX="0"
       id="marker3320"
       style="overflow:visible">
      <path
         inkscape:connector-curvature="0"
         id="path3322"
         d="m 5.77,0 -8.65,5 0,-10 8.65,5 z"
         style="fill:#d4a11a;fill-rule:evenodd;stroke:#d4a11a;stroke-width:1pt"
         transform="scale(0.8,0.8)" />
    </marker>
    <marker
       inkscape:stockid="TriangleOutLP"
       orient="auto"
       refY="0"
       refX="0"
       id="TriangleOutLP"
       style="overflow:visible">
      <path
         inkscape:connector-curvature="0"
         id="path6187"
         d="m 5.77,0 -8.65,5 0,-10 8.65,5 z"
         style="fill:#de5d5d;fill-rule:evenodd;stroke:#de5d5d;stroke-width:1pt"
         transform="scale(0.8,0.8)" />
    </marker>
    <marker
       inkscape:stockid="TriangleOutLP"
       orient="auto"
       refY="0"
       refX="0"
       id="marker3326"
       style="overflow:visible">
      <path
         inkscape:connector-curvature="0"
         id="path3328"
         d="m 5.77,0 -8.65,5 0,-10 8.65,5 z"
         style="fill:#de5d5d;fill-rule:evenodd;stroke:#de5d5d;stroke-width:1pt"
         transform="scale(0.8,0.8)" />
    </marker>
  </defs>
  <sodipodi:namedview
     pagecolor="#ffffff"
     bordercolor="#666666"
     borderopacity="1"
     objecttolerance="10"
     gridtolerance="10"
     guidetolerance="10"
     inkscape:pageopacity="0"
     inkscape:pageshadow="2"
     inkscape:window-width="1920"
     inkscape:window-height="1030"
     id="namedview258"
     showgrid="false"
     inkscape:zoom="1.5906103"
     inkscape:cx="291.25"
     inkscape:cy="266.25"
     inkscape:window-x="0"
     inkscape:window-y="26"
     inkscape:window-maximized="1"
     inkscape:current-layer="graph0" />
  <g
     id="graph0"
     class="graph"
     transform="scale(1 1) rotate(0) translate(4 422)">
    <title
       id="title5">%3</title>
    <g
       id="clust1"
       class="cluster">
      <title
         id="title12">cluster_1</title>
      <polygon
         fill="none"
         stroke="black"
         stroke-dasharray="5,2"
         points="8,-31 8,-410 150,-410 150,-31 8,-31"
         id="polygon14" />
      <text
         text-anchor="middle"
         x="79"
         y="-383.6"
         font-family="Times,serif"
         font-size="28.00"
         id="text16">1</text>
    </g>
    <g
       id="clust2"
       class="cluster"
       transform="translate(0,89.6)">
      <title
         id="title19">cluster_2</title>
      <polygon
         points="158,-410 300,-410 300,-121 158,-121 158,-121 "
         id="polygon21"
         style="fill:none;stroke:#000000;stroke-dasharray:5, 2" />
      <text
         x="229"
         y="-383.60001"
         font-size="28.00"
         id="text23"
         style="font-size:28px;text-anchor:middle;font-family:'Times,serif'">2</text>
    </g>
    <g
       id="clust3"
       class="cluster"
       transform="translate(0,89.6)">
      <title
         id="title26">cluster_3</title>
      <polygon
         points="308,-410 450,-410 450,-121 308,-121 308,-121 "
         id="polygon28"
         style="fill:none;stroke:#000000;stroke-dasharray:5, 2" />
      <text
         x="379"
         y="-383.60001"
         font-size="28.00"
         id="text30"
         style="font-size:28px;text-anchor:middle;font-family:'Times,serif'">3</text>
    </g>
    <!-- baz.1 -->
    <g
       id="node1"
       class="node">
      <title
         id="title33">baz.1</title>
      <g
         id="a_node1">
        <a
           xlink:href="baz.1"
           id="a36"
           xlink:title="baz\n1">
          <ellipse
             fill="#00c798"
             stroke="black"
             stroke-width="2"
             cx="43"
             cy="-156"
             rx="27"
             ry="26.7407"
             id="ellipse38"
             d="m 70,-156 c 0,14.76848 -12.088312,26.7407 -27,26.7407 -14.911688,0 -27,-11.97222 -27,-26.7407 0,-14.76848 12.088312,-26.7407 27,-26.7407 14.911688,0 27,11.97222 27,26.7407 z" />
          <text
             text-anchor="middle"
             x="43"
             y="-159.8"
             font-family="Times,serif"
             font-size="14.00"
             id="text40">baz</text>
          <text
             text-anchor="middle"
             x="43"
             y="-144.8"
             font-family="Times,serif"
             font-size="14.00"
             id="text42">1</text>
        </a>
      </g>
    </g>
    <!-- qux.1 -->
    <g
       id="node2"
       class="node">
      <title
         id="title45">qux.1</title>
      <g
         id="a_node2">
        <a
           xlink:href="qux.1"
           id="a48"
           xlink:title="qux\n1">
          <ellipse
             fill="#00b4fd"
             stroke="black"
             stroke-width="2"
             cx="43"
             cy="-66"
             rx="27"
             ry="26.7407"
             id="ellipse50"
             d="m 70,-66 c 0,14.768481 -12.088312,26.7407 -27,26.7407 -14.911688,0 -27,-11.972219 -27,-26.7407 0,-14.768481 12.088312,-26.7407 27,-26.7407 14.911688,0 27,11.972219 27,26.7407 z" />
          <text
             text-anchor="middle"
             x="43"
             y="-69.8"
             font-family="Times,serif"
             font-size="14.00"
             id="text52">qux</text>
          <text
             text-anchor="middle"
             x="43"
             y="-54.8"
             font-family="Times,serif"
             font-size="14.00"
             id="text54">1</text>
        </a>
      </g>
    </g>
    <!-- baz.1&#45;&gt;qux.1 -->
    <g
       id="edge1"
       class="edge">
      <title
         id="title57">baz.1-&gt;qux.1</title>
      <path
         fill="none"
         stroke="black"
         stroke-width="2"
         d="M43,-129.073C43,-120.999 43,-111.943 43,-103.296"
         id="path59" />
      <polygon
         fill="black"
         stroke="black"
         stroke-width="2"
         points="46.5001,-103.046 43,-93.0457 39.5001,-103.046 46.5001,-103.046"
         id="polygon61" />
    </g>
    <!-- foo.1 -->
    <g
       id="node3"
       class="node">
      <title
         id="title64">foo.1</title>
      <g
         id="a_node3">
        <a
           xlink:href="foo.1"
           id="a67"
           xlink:title="foo\n1">
          <ellipse
             fill="#ff5d6a"
             stroke="black"
             stroke-width="2"
             cx="79"
             cy="-246"
             rx="27"
             ry="26.7407"
             id="ellipse69"
             d="m 106,-246 c 0,14.76848 -12.088312,26.7407 -27,26.7407 -14.911688,0 -27,-11.97222 -27,-26.7407 0,-14.76848 12.088312,-26.7407 27,-26.7407 14.911688,0 27,11.97222 27,26.7407 z" />
          <text
             text-anchor="middle"
             x="79"
             y="-249.8"
             font-family="Times,serif"
             font-size="14.00"
             id="text71">foo</text>
          <text
             text-anchor="middle"
             x="79"
             y="-234.8"
             font-family="Times,serif"
             font-size="14.00"
             id="text73">1</text>
        </a>
      </g>
    </g>
    <!-- foo.1&#45;&gt;baz.1 -->
    <g
       id="edge4"
       class="edge">
      <title
         id="title76">foo.1-&gt;baz.1</title>
      <path
         fill="none"
         stroke="black"
         stroke-width="2"
         d="M69.1628,-220.954C65.345,-211.621 60.9055,-200.769 56.7796,-190.683"
         id="path78" />
      <polygon
         fill="black"
         stroke="black"
         stroke-width="2"
         points="59.9762,-189.253 52.9504,-181.323 53.4973,-191.904 59.9762,-189.253"
         id="polygon80" />
    </g>
    <!-- bar.1 -->
    <g
       id="node4"
       class="node">
      <title
         id="title83">bar.1</title>
      <g
         id="a_node4">
        <a
           xlink:href="bar.1"
           id="a86"
           xlink:title="bar\n1">
          <ellipse
             fill="#ffcc00"
             stroke="black"
             stroke-width="2"
             cx="115"
             cy="-156"
             rx="27"
             ry="26.7407"
             id="ellipse88"
             d="m 142,-156 c 0,14.76848 -12.08831,26.7407 -27,26.7407 -14.91169,0 -27,-11.97222 -27,-26.7407 0,-14.76848 12.08831,-26.7407 27,-26.7407 14.91169,0 27,11.97222 27,26.7407 z" />
          <text
             text-anchor="middle"
             x="115"
             y="-159.8"
             font-family="Times,serif"
             font-size="14.00"
             id="text90">bar</text>
          <text
             text-anchor="middle"
             x="115"
             y="-144.8"
             font-family="Times,serif"
             font-size="14.00"
             id="text92">1</text>
        </a>
      </g>
    </g>
    <!-- foo.1&#45;&gt;bar.1 -->
    <g
       id="edge5"
       class="edge">
      <title
         id="title95">foo.1-&gt;bar.1</title>
      <path
         fill="none"
         stroke="black"
         stroke-width="2"
         d="M88.8372,-220.954C92.655,-211.621 97.0945,-200.769 101.22,-190.683"
         id="path97" />
      <polygon
         fill="black"
         stroke="black"
         stroke-width="2"
         points="104.503,-191.904 105.05,-181.323 98.0238,-189.253 104.503,-191.904"
         id="polygon99" />
    </g>
    <!-- prep.1 -->
    <g
       id="node5"
       class="node">
      <title
         id="title102">prep.1</title>
      <g
         id="a_node5">
        <a
           xlink:href="prep.1"
           id="a105"
           xlink:title="prep\n1">
          <ellipse
             fill="slategray"
             stroke="black"
             stroke-width="2"
             cx="79"
             cy="-336"
             rx="28.4872"
             ry="26.7407"
             id="ellipse107"
             d="m 107.4872,-336 c 0,14.76848 -12.754154,26.7407 -28.4872,26.7407 -15.733046,0 -28.4872,-11.97222 -28.4872,-26.7407 0,-14.76848 12.754154,-26.7407 28.4872,-26.7407 15.733046,0 28.4872,11.97222 28.4872,26.7407 z" />
          <text
             text-anchor="middle"
             x="79"
             y="-339.8"
             font-family="Times,serif"
             font-size="14.00"
             id="text109">prep</text>
          <text
             text-anchor="middle"
             x="79"
             y="-324.8"
             font-family="Times,serif"
             font-size="14.00"
             id="text111">1</text>
        </a>
      </g>
    </g>
    <!-- prep.1&#45;&gt;foo.1 -->
    <g
       id="edge10"
       class="edge">
      <title
         id="title114">prep.1-&gt;foo.1</title>
      <path
         fill="none"
         stroke="black"
         stroke-width="2"
         d="M79,-309.073C79,-300.999 79,-291.943 79,-283.296"
         id="path116" />
      <polygon
         fill="black"
         stroke="black"
         stroke-width="2"
         points="82.5001,-283.046 79,-273.046 75.5001,-283.046 82.5001,-283.046"
         id="polygon118" />
    </g>
    <!-- baz.2 -->
    <g
       id="node6"
       class="node"
       transform="translate(0,89.6)">
      <title
         id="title121">baz.2</title>
      <g
         id="a_node6">
        <a
           xlink:href="baz.2"
           id="a124"
           xlink:title="baz\n2">
          <ellipse
             cx="193"
             cy="-246"
             rx="27"
             ry="26.7407"
             id="ellipse126"
             d="m 220,-246 c 0,14.76848 -12.08831,26.7407 -27,26.7407 -14.91169,0 -27,-11.97222 -27,-26.7407 0,-14.76848 12.08831,-26.7407 27,-26.7407 14.91169,0 27,11.97222 27,26.7407 z"
             sodipodi:cx="193"
             sodipodi:cy="-246"
             sodipodi:rx="27"
             sodipodi:ry="26.7407"
             style="fill:#00c798;stroke:#000000;stroke-width:2" />
          <text
             x="193"
             y="-249.8"
             font-size="14.00"
             id="text128"
             style="font-size:14px;text-anchor:middle;font-family:'Times,serif'">baz</text>
          <text
             x="193"
             y="-234.8"
             font-size="14.00"
             id="text130"
             style="font-size:14px;text-anchor:middle;font-family:'Times,serif'">2</text>
        </a>
      </g>
    </g>
    <!-- qux.2 -->
    <g
       id="node7"
       class="node"
       transform="translate(0,89.6)">
      <title
         id="title133">qux.2</title>
      <g
         id="a_node7">
        <a
           xlink:href="qux.2"
           id="a136"
           xlink:title="qux\n2">
          <ellipse
             cx="193"
             cy="-156"
             rx="27"
             ry="26.7407"
             id="ellipse138"
             d="m 220,-156 c 0,14.76848 -12.08831,26.7407 -27,26.7407 -14.91169,0 -27,-11.97222 -27,-26.7407 0,-14.76848 12.08831,-26.7407 27,-26.7407 14.91169,0 27,11.97222 27,26.7407 z"
             sodipodi:cx="193"
             sodipodi:cy="-156"
             sodipodi:rx="27"
             sodipodi:ry="26.7407"
             style="fill:#00b4fd;stroke:#000000;stroke-width:2" />
          <text
             x="193"
             y="-159.8"
             font-size="14.00"
             id="text140"
             style="font-size:14px;text-anchor:middle;font-family:'Times,serif'">qux</text>
          <text
             x="193"
             y="-144.8"
             font-size="14.00"
             id="text142"
             style="font-size:14px;text-anchor:middle;font-family:'Times,serif'">2</text>
        </a>
      </g>
    </g>
    <!-- baz.2&#45;&gt;qux.2 -->
    <g
       id="edge2"
       class="edge"
       transform="translate(0,89.6)">
      <title
         id="title145">baz.2-&gt;qux.2</title>
      <path
         d="m 193,-219.073 c 0,8.074 0,17.13 0,25.777"
         id="path147"
         inkscape:connector-curvature="0"
         style="fill:none;stroke:#000000;stroke-width:2" />
      <polygon
         points="196.5,-193.046 193,-183.046 189.5,-193.046 196.5,-193.046 "
         id="polygon149"
         style="fill:#000000;stroke:#000000;stroke-width:2" />
    </g>
    <!-- foo.2 -->
    <g
       id="node8"
       class="node"
       transform="translate(0,89.6)">
      <title
         id="title152">foo.2</title>
      <g
         id="a_node8">
        <a
           xlink:href="foo.2"
           id="a155"
           xlink:title="foo\n2">
          <ellipse
             cx="229"
             cy="-336"
             rx="27"
             ry="26.7407"
             id="ellipse157"
             d="m 256,-336 c 0,14.76848 -12.08831,26.7407 -27,26.7407 -14.91169,0 -27,-11.97222 -27,-26.7407 0,-14.76848 12.08831,-26.7407 27,-26.7407 14.91169,0 27,11.97222 27,26.7407 z"
             sodipodi:cx="229"
             sodipodi:cy="-336"
             sodipodi:rx="27"
             sodipodi:ry="26.7407"
             style="fill:#ff5d6a;stroke:#000000;stroke-width:2" />
          <text
             x="229"
             y="-339.79999"
             font-size="14.00"
             id="text159"
             style="font-size:14px;text-anchor:middle;font-family:'Times,serif'">foo</text>
          <text
             x="229"
             y="-324.79999"
             font-size="14.00"
             id="text161"
             style="font-size:14px;text-anchor:middle;font-family:'Times,serif'">2</text>
        </a>
      </g>
    </g>
    <!-- foo.2&#45;&gt;baz.2 -->
    <g
       id="edge6"
       class="edge"
       transform="translate(0,89.6)">
      <title
         id="title164">foo.2-&gt;baz.2</title>
      <path
         d="m 219.163,-310.954 c -3.818,9.333 -8.257,20.185 -12.383,30.271"
         id="path166"
         inkscape:connector-curvature="0"
         style="fill:none;stroke:#000000;stroke-width:2" />
      <polygon
         points="209.976,-279.253 202.95,-271.323 203.497,-281.904 209.976,-279.253 "
         id="polygon168"
         style="fill:#000000;stroke:#000000;stroke-width:2" />
    </g>
    <!-- bar.2 -->
    <g
       id="node9"
       class="node"
       transform="translate(0,89.6)">
      <title
         id="title171">bar.2</title>
      <g
         id="a_node9">
        <a
           xlink:href="bar.2"
           id="a174"
           xlink:title="bar\n2">
          <ellipse
             cx="265"
             cy="-246"
             rx="27"
             ry="26.7407"
             id="ellipse176"
             d="m 292,-246 c 0,14.76848 -12.08831,26.7407 -27,26.7407 -14.91169,0 -27,-11.97222 -27,-26.7407 0,-14.76848 12.08831,-26.7407 27,-26.7407 14.91169,0 27,11.97222 27,26.7407 z"
             sodipodi:cx="265"
             sodipodi:cy="-246"
             sodipodi:rx="27"
             sodipodi:ry="26.7407"
             style="fill:#ffcc00;stroke:#000000;stroke-width:2" />
          <text
             x="265"
             y="-249.8"
             font-size="14.00"
             id="text178"
             style="font-size:14px;text-anchor:middle;font-family:'Times,serif'">bar</text>
          <text
             x="265"
             y="-234.8"
             font-size="14.00"
             id="text180"
             style="font-size:14px;text-anchor:middle;font-family:'Times,serif'">2</text>
        </a>
      </g>
    </g>
    <!-- foo.2&#45;&gt;bar.2 -->
    <g
       id="edge7"
       class="edge"
       transform="translate(0,89.6)">
      <title
         id="title183">foo.2-&gt;bar.2</title>
      <path
         d="m 238.837,-310.954 c 3.818,9.333 8.257,20.185 12.383,30.271"
         id="path185"
         inkscape:connector-curvature="0"
         style="fill:none;stroke:#000000;stroke-width:2" />
      <polygon
         points="254.503,-281.904 255.05,-271.323 248.024,-279.253 254.503,-281.904 "
         id="polygon187"
         style="fill:#000000;stroke:#000000;stroke-width:2" />
    </g>
    <!-- baz.3 -->
    <g
       id="node10"
       class="node"
       transform="translate(0,89.6)">
      <title
         id="title190">baz.3</title>
      <g
         id="a_node10">
        <a
           xlink:href="baz.3"
           id="a193"
           xlink:title="baz\n3">
          <ellipse
             cx="343"
             cy="-246"
             rx="27"
             ry="26.7407"
             id="ellipse195"
             d="m 370,-246 c 0,14.76848 -12.08831,26.7407 -27,26.7407 -14.91169,0 -27,-11.97222 -27,-26.7407 0,-14.76848 12.08831,-26.7407 27,-26.7407 14.91169,0 27,11.97222 27,26.7407 z"
             sodipodi:cx="343"
             sodipodi:cy="-246"
             sodipodi:rx="27"
             sodipodi:ry="26.7407"
             style="fill:#00c798;stroke:#000000;stroke-width:2" />
          <text
             x="343"
             y="-249.8"
             font-size="14.00"
             id="text197"
             style="font-size:14px;text-anchor:middle;font-family:'Times,serif'">baz</text>
          <text
             x="343"
             y="-234.8"
             font-size="14.00"
             id="text199"
             style="font-size:14px;text-anchor:middle;font-family:'Times,serif'">3</text>
        </a>
      </g>
    </g>
    <!-- qux.3 -->
    <g
       id="node11"
       class="node"
       transform="translate(0,89.6)">
      <title
         id="title202">qux.3</title>
      <g
         id="a_node11">
        <a
           xlink:href="qux.3"
           id="a205"
           xlink:title="qux\n3">
          <ellipse
             cx="343"
             cy="-156"
             rx="27"
             ry="26.7407"
             id="ellipse207"
             d="m 370,-156 c 0,14.76848 -12.08831,26.7407 -27,26.7407 -14.91169,0 -27,-11.97222 -27,-26.7407 0,-14.76848 12.08831,-26.7407 27,-26.7407 14.91169,0 27,11.97222 27,26.7407 z"
             sodipodi:cx="343"
             sodipodi:cy="-156"
             sodipodi:rx="27"
             sodipodi:ry="26.7407"
             style="fill:#00b4fd;stroke:#000000;stroke-width:2" />
          <text
             x="343"
             y="-159.8"
             font-size="14.00"
             id="text209"
             style="font-size:14px;text-anchor:middle;font-family:'Times,serif'">qux</text>
          <text
             x="343"
             y="-144.8"
             font-size="14.00"
             id="text211"
             style="font-size:14px;text-anchor:middle;font-family:'Times,serif'">3</text>
        </a>
      </g>
    </g>
    <!-- baz.3&#45;&gt;qux.3 -->
    <g
       id="edge3"
       class="edge"
       transform="translate(0,89.6)">
      <title
         id="title214">baz.3-&gt;qux.3</title>
      <path
         d="m 343,-219.073 c 0,8.074 0,17.13 0,25.777"
         id="path216"
         inkscape:connector-curvature="0"
         style="fill:none;stroke:#000000;stroke-width:2" />
      <polygon
         points="346.5,-193.046 343,-183.046 339.5,-193.046 346.5,-193.046 "
         id="polygon218"
         style="fill:#000000;stroke:#000000;stroke-width:2" />
    </g>
    <!-- foo.3 -->
    <g
       id="node12"
       class="node"
       transform="translate(0,89.6)">
      <title
         id="title221">foo.3</title>
      <g
         id="a_node12">
        <a
           xlink:href="foo.3"
           id="a224"
           xlink:title="foo\n3">
          <ellipse
             cx="379"
             cy="-336"
             rx="27"
             ry="26.7407"
             id="ellipse226"
             d="m 406,-336 c 0,14.76848 -12.08831,26.7407 -27,26.7407 -14.91169,0 -27,-11.97222 -27,-26.7407 0,-14.76848 12.08831,-26.7407 27,-26.7407 14.91169,0 27,11.97222 27,26.7407 z"
             sodipodi:cx="379"
             sodipodi:cy="-336"
             sodipodi:rx="27"
             sodipodi:ry="26.7407"
             style="fill:#ff5d6a;stroke:#000000;stroke-width:2" />
          <text
             x="379"
             y="-339.79999"
             font-size="14.00"
             id="text228"
             style="font-size:14px;text-anchor:middle;font-family:'Times,serif'">foo</text>
          <text
             x="379"
             y="-324.79999"
             font-size="14.00"
             id="text230"
             style="font-size:14px;text-anchor:middle;font-family:'Times,serif'">3</text>
        </a>
      </g>
    </g>
    <!-- foo.3&#45;&gt;baz.3 -->
    <g
       id="edge8"
       class="edge"
       transform="translate(0,89.6)">
      <title
         id="title233">foo.3-&gt;baz.3</title>
      <path
         d="m 369.163,-310.954 c -3.818,9.333 -8.257,20.185 -12.383,30.271"
         id="path235"
         inkscape:connector-curvature="0"
         style="fill:none;stroke:#000000;stroke-width:2" />
      <polygon
         points="359.976,-279.253 352.95,-271.323 353.497,-281.904 359.976,-279.253 "
         id="polygon237"
         style="fill:#000000;stroke:#000000;stroke-width:2" />
    </g>
    <!-- bar.3 -->
    <g
       id="node13"
       class="node"
       transform="translate(0,89.6)">
      <title
         id="title240">bar.3</title>
      <g
         id="a_node13">
        <a
           xlink:href="bar.3"
           id="a243"
           xlink:title="bar\n3">
          <ellipse
             cx="415"
             cy="-246"
             rx="27"
             ry="26.7407"
             id="ellipse245"
             d="m 442,-246 c 0,14.76848 -12.08831,26.7407 -27,26.7407 -14.91169,0 -27,-11.97222 -27,-26.7407 0,-14.76848 12.08831,-26.7407 27,-26.7407 14.91169,0 27,11.97222 27,26.7407 z"
             sodipodi:cx="415"
             sodipodi:cy="-246"
             sodipodi:rx="27"
             sodipodi:ry="26.7407"
             style="fill:#ffcc00;stroke:#000000;stroke-width:2" />
          <text
             x="415"
             y="-249.8"
             font-size="14.00"
             id="text247"
             style="font-size:14px;text-anchor:middle;font-family:'Times,serif'">bar</text>
          <text
             x="415"
             y="-234.8"
             font-size="14.00"
             id="text249"
             style="font-size:14px;text-anchor:middle;font-family:'Times,serif'">3</text>
        </a>
      </g>
    </g>
    <!-- foo.3&#45;&gt;bar.3 -->
    <g
       id="edge9"
       class="edge"
       transform="translate(0,89.6)">
      <title
         id="title252">foo.3-&gt;bar.3</title>
      <path
         d="m 388.837,-310.954 c 3.818,9.333 8.257,20.185 12.383,30.271"
         id="path254"
         inkscape:connector-curvature="0"
         style="fill:none;stroke:#000000;stroke-width:2" />
      <polygon
         points="404.503,-281.904 405.05,-271.323 398.024,-279.253 404.503,-281.904 "
         id="polygon256"
         style="fill:#000000;stroke:#000000;stroke-width:2" />
    </g>
    <path
       style="fill:none;stroke:#de5d5d;stroke-width:1.41626036;stroke-linecap:butt;stroke-linejoin:miter;stroke-miterlimit:4;stroke-opacity:1;stroke-dasharray:5.66504108, 5.66504108;stroke-dashoffset:0;marker-end:url(#TriangleOutLP)"
       d="m 236.9724,-272.7875 c 86.26002,-60.87695 120.54794,-0.029 120.54794,-0.029"
       id="path5239"
       inkscape:connector-curvature="0" />
    <path
       style="fill:none;stroke:#de5d5d;stroke-width:1.41626036;stroke-linecap:butt;stroke-linejoin:miter;stroke-miterlimit:4;stroke-opacity:1;stroke-dasharray:5.66504108, 5.66504108;stroke-dashoffset:0;marker-end:url(#TriangleOutLP)"
       d="m 85.814415,-272.70609 c 86.260015,-60.87695 120.547925,-0.029 120.547925,-0.029"
       id="path5239-1"
       inkscape:connector-curvature="0" />
    <path
       inkscape:connector-curvature="0"
       id="path6406-6"
       d="m 113.09775,-183.36519 c 40.045,-45.38646 62.52354,-3.8194 62.52354,-3.8194"
       style="fill:none;stroke:#d4a11a;stroke-width:1.83848286;stroke-linecap:butt;stroke-linejoin:miter;stroke-miterlimit:4;stroke-opacity:1;stroke-dasharray:7.35393153, 7.35393153;stroke-dashoffset:0;marker-end:url(#TriangleOutLm)"
       sodipodi:nodetypes="cc" />
    <path
       inkscape:connector-curvature="0"
       id="path6406-6-5"
       d="m 265.42447,-184.53391 c 40.045,-45.38646 62.52353,-3.8194 62.52353,-3.8194"
       style="fill:none;stroke:#d4a11a;stroke-width:1.83848286;stroke-linecap:butt;stroke-linejoin:miter;stroke-miterlimit:4;stroke-opacity:1;stroke-dasharray:7.35393153, 7.35393153;stroke-dashoffset:0;marker-end:url(#TriangleOutLm)"
       sodipodi:nodetypes="cc" />
  </g>
</svg>
