<?xml version="1.0" encoding="UTF-8" standalone="no"?>
<!-- Generated by graphviz version 2.36.0 (20140111.2315)
 -->

<!-- Title: %3 Pages: 1 -->

<svg
   xmlns:dc="http://purl.org/dc/elements/1.1/"
   xmlns:cc="http://creativecommons.org/ns#"
   xmlns:rdf="http://www.w3.org/1999/02/22-rdf-syntax-ns#"
   xmlns:svg="http://www.w3.org/2000/svg"
   xmlns="http://www.w3.org/2000/svg"
   xmlns:xlink="http://www.w3.org/1999/xlink"
   xmlns:sodipodi="http://sodipodi.sourceforge.net/DTD/sodipodi-0.dtd"
   xmlns:inkscape="http://www.inkscape.org/namespaces/inkscape"
   width="404pt"
   height="535pt"
   viewBox="0.00 0.00 404.00 535.00"
   id="svg2"
   version="1.1"
   inkscape:version="0.48.4 r9939"
   sodipodi:docname="mad-static.svg">
  <metadata
     id="metadata269">
    <rdf:RDF>
      <cc:Work
         rdf:about="">
        <dc:format>image/svg+xml</dc:format>
        <dc:type
           rdf:resource="http://purl.org/dc/dcmitype/StillImage" />
      </cc:Work>
    </rdf:RDF>
  </metadata>
  <defs
     id="defs267" />
  <sodipodi:namedview
     pagecolor="#ffffff"
     bordercolor="#666666"
     borderopacity="1"
     objecttolerance="10"
     gridtolerance="10"
     guidetolerance="10"
     inkscape:pageopacity="0"
     inkscape:pageshadow="2"
     inkscape:window-width="1920"
     inkscape:window-height="1030"
     id="namedview265"
     showgrid="false"
     inkscape:zoom="1.2680374"
     inkscape:cx="252.5"
     inkscape:cy="280.59706"
     inkscape:window-x="0"
     inkscape:window-y="26"
     inkscape:window-maximized="1"
     inkscape:current-layer="g3246" />
  <g
     id="graph0"
     class="graph"
     transform="translate(-0.88944576,592.82783)">
    <title
       id="title5">%3</title>
    <!-- green.1 -->
    <!-- brown.1 -->
    <!-- green.1&#45;&gt;brown.1 -->
    <!-- purple.1 -->
    <!-- green.1&#45;&gt;purple.1 -->
    <!-- magenta.1 -->
    <!-- black.1 -->
    <!-- magenta.1&#45;&gt;black.1 -->
    <!-- orange.1 -->
    <!-- darkgreen.1 -->
    <!-- orange.1&#45;&gt;darkgreen.1 -->
    <!-- gray.1 -->
    <!-- orange.1&#45;&gt;gray.1 -->
    <!-- pink.1 -->
    <!-- pink.1&#45;&gt;green.1 -->
    <!-- blue.1 -->
    <!-- pink.1&#45;&gt;blue.1 -->
    <!-- yellow.1 -->
    <!-- pink.1&#45;&gt;yellow.1 -->
    <!-- yellow.1&#45;&gt;purple.1 -->
    <!-- yellow.1&#45;&gt;orange.1 -->
    <!-- red.1 -->
    <!-- yellow.1&#45;&gt;red.1 -->
    <!-- red.1&#45;&gt;magenta.1 -->
    <!-- red.1&#45;&gt;gray.1 -->
    <!-- prep.1 -->
    <!-- prep.1&#45;&gt;pink.1 -->
    <g
       id="g3246"
       transform="translate(6.939859,-50.471698)">
      <polygon
         transform="translate(-2.681309,-58.9888)"
         style="fill:#ffffff;stroke:none"
         id="polygon7"
         points="400,4 -4,4 -4,4 -4,-531 400,-531 " />
      <g
         class="node"
         id="node1">
        <title
           id="title12">green.1</title>
        <g
           id="a_node1">
          <a
             xlink:href="green.1"
             xlink:title="green\n1"
             id="a15">
            <ellipse
               style="fill:#008000;stroke:#000000;stroke-width:2"
               sodipodi:ry="26.7407"
               sodipodi:rx="33.351898"
               sodipodi:cy="-320"
               sodipodi:cx="54"
               d="m 87.351898,-320 c 0,14.76848 -14.932153,26.7407 -33.351898,26.7407 -18.419745,0 -33.351898,-11.97222 -33.351898,-26.7407 0,-14.76848 14.932153,-26.7407 33.351898,-26.7407 18.419745,0 33.351898,11.97222 33.351898,26.7407 z"
               id="ellipse17"
               ry="26.7407"
               rx="33.351898"
               cy="-320"
               cx="54" />
            <text
               style="font-size:14px;text-anchor:middle;font-family:'Times,serif'"
               id="text19"
               font-size="14.00"
               y="-323.79999"
               x="54">green</text>
          </a>
        </g>
      </g>
      <g
         class="node"
         id="node2">
        <title
           id="title24">brown.1</title>
        <g
           id="a_node2">
          <a
             xlink:href="brown.1"
             xlink:title="brown\n1"
             id="a27">
            <ellipse
               style="fill:#d2691e;stroke:#000000;stroke-width:2"
               sodipodi:ry="26.7407"
               sodipodi:rx="36.0937"
               sodipodi:cy="-230"
               sodipodi:cx="36"
               d="m 72.0937,-230 c 0,14.76848 -16.1597,26.7407 -36.0937,26.7407 -19.934,0 -36.09370041,-11.97222 -36.09370041,-26.7407 0,-14.76848 16.15970041,-26.7407 36.09370041,-26.7407 19.934,0 36.0937,11.97222 36.0937,26.7407 z"
               id="ellipse29"
               ry="26.7407"
               rx="36.0937"
               cy="-230"
               cx="36" />
            <text
               style="font-size:14px;text-anchor:middle;font-family:'Times,serif'"
               id="text31"
               font-size="14.00"
               y="-233.8"
               x="36">brown</text>
          </a>
        </g>
      </g>
      <g
         class="edge"
         id="edge1">
        <title
           id="title36">green.1-&gt;brown.1</title>
        <path
           style="fill:none;stroke:#000000;stroke-width:2"
           inkscape:connector-curvature="0"
           id="path38"
           d="m 48.6968,-293.073 c -1.6846,8.235 -3.5782,17.493 -5.3787,26.296" />
        <polygon
           style="fill:#000000;stroke:#000000;stroke-width:2"
           id="polygon40"
           points="41.2653,-256.742 39.8404,-267.24 46.6984,-265.837 46.6984,-265.837 " />
      </g>
      <g
         class="node"
         id="node3">
        <title
           id="title43">purple.1</title>
        <g
           id="a_node3">
          <a
             xlink:href="purple.1"
             xlink:title="purple\n1"
             id="a46">
            <ellipse
               style="fill:#800080;stroke:#000000;stroke-width:2"
               sodipodi:ry="26.7407"
               sodipodi:rx="36.0937"
               sodipodi:cy="-230"
               sodipodi:cx="126"
               d="m 162.0937,-230 c 0,14.76848 -16.1597,26.7407 -36.0937,26.7407 -19.934,0 -36.0937,-11.97222 -36.0937,-26.7407 0,-14.76848 16.1597,-26.7407 36.0937,-26.7407 19.934,0 36.0937,11.97222 36.0937,26.7407 z"
               id="ellipse48"
               ry="26.7407"
               rx="36.0937"
               cy="-230"
               cx="126" />
            <text
               style="font-size:14px;text-anchor:middle;fill:#ffffff;font-family:'Times,serif'"
               id="text50"
               font-size="14.00"
               y="-233.8"
               x="126">purple</text>
          </a>
        </g>
      </g>
      <g
         class="edge"
         id="edge2">
        <title
           id="title55">green.1-&gt;purple.1</title>
        <path
           style="fill:none;stroke:#000000;stroke-width:2"
           inkscape:connector-curvature="0"
           id="path57"
           d="m 71.7978,-297.247 c 8.8647,10.835 19.7278,24.112 29.3952,35.927" />
        <polygon
           style="fill:#000000;stroke:#000000;stroke-width:2"
           id="polygon59"
           points="107.655,-253.421 98.614,-258.945 104.032,-263.377 104.032,-263.377 " />
      </g>
      <g
         class="node"
         id="node4">
        <title
           id="title62">magenta.1</title>
        <g
           id="a_node4">
          <a
             xlink:href="magenta.1"
             xlink:title="magenta\n1"
             id="a65">
            <ellipse
               style="fill:#ff00ff;stroke:#000000;stroke-width:2"
               sodipodi:ry="26.7407"
               sodipodi:rx="44.321301"
               sodipodi:cy="-140"
               sodipodi:cx="351"
               d="m 395.3213,-140 c 0,14.76848 -19.84332,26.7407 -44.3213,26.7407 -24.47798,0 -44.3213,-11.97222 -44.3213,-26.7407 0,-14.76848 19.84332,-26.7407 44.3213,-26.7407 24.47798,0 44.3213,11.97222 44.3213,26.7407 z"
               id="ellipse67"
               ry="26.7407"
               rx="44.321301"
               cy="-140"
               cx="351" />
            <text
               style="font-size:14px;text-anchor:middle;font-family:'Times,serif'"
               id="text69"
               font-size="14.00"
               y="-143.8"
               x="351">magenta</text>
          </a>
        </g>
      </g>
      <g
         class="node"
         id="node5">
        <title
           id="title74">black.1</title>
        <g
           id="a_node5">
          <a
             xlink:href="black.1"
             xlink:title="black\n1"
             id="a77">
            <ellipse
               style="fill:#000000;stroke:#000000;stroke-width:2"
               sodipodi:ry="26.7407"
               sodipodi:rx="32.290199"
               sodipodi:cy="-50"
               sodipodi:cx="351"
               d="m 383.2902,-50 c 0,14.768481 -14.45682,26.7407 -32.2902,26.7407 -17.83338,0 -32.2902,-11.972219 -32.2902,-26.7407 0,-14.768481 14.45682,-26.7407 32.2902,-26.7407 17.83338,0 32.2902,11.972219 32.2902,26.7407 z"
               id="ellipse79"
               ry="26.7407"
               rx="32.290199"
               cy="-50"
               cx="351" />
            <text
               style="font-size:14px;text-anchor:middle;fill:#ffffff;font-family:'Times,serif'"
               id="text81"
               font-size="14.00"
               y="-53.799999"
               x="351">black</text>
          </a>
        </g>
      </g>
      <g
         class="edge"
         id="edge3">
        <title
           id="title86">magenta.1-&gt;black.1</title>
        <path
           style="fill:none;stroke:#000000;stroke-width:2"
           inkscape:connector-curvature="0"
           id="path88"
           d="m 351,-113.073 c 0,8.074 0,17.1302 0,25.7769" />
        <polygon
           style="fill:#000000;stroke:#000000;stroke-width:2"
           id="polygon90"
           points="351,-77.0457 347.5,-87.0458 354.5,-87.0457 354.5,-87.0457 " />
      </g>
      <g
         class="node"
         id="node6">
        <title
           id="title93">orange.1</title>
        <g
           id="a_node6">
          <a
             xlink:href="orange.1"
             xlink:title="orange\n1"
             id="a96">
            <ellipse
               style="fill:#ffa500;stroke:#000000;stroke-width:2"
               sodipodi:ry="26.7407"
               sodipodi:rx="37.215199"
               sodipodi:cy="-230"
               sodipodi:cx="218"
               d="m 255.2152,-230 c 0,14.76848 -16.66181,26.7407 -37.2152,26.7407 -20.55339,0 -37.2152,-11.97222 -37.2152,-26.7407 0,-14.76848 16.66181,-26.7407 37.2152,-26.7407 20.55339,0 37.2152,11.97222 37.2152,26.7407 z"
               id="ellipse98"
               ry="26.7407"
               rx="37.215199"
               cy="-230"
               cx="218" />
            <text
               style="font-size:14px;text-anchor:middle;font-family:'Times,serif'"
               id="text100"
               font-size="14.00"
               y="-233.8"
               x="218">orange</text>
          </a>
        </g>
      </g>
      <g
         class="node"
         id="node7">
        <title
           id="title105">darkgreen.1</title>
        <g
           id="a_node7">
          <a
             xlink:href="darkgreen.1"
             xlink:title="darkgreen\n1"
             id="a108">
            <ellipse
               style="fill:#006400;stroke:#000000;stroke-width:2"
               sodipodi:ry="26.7407"
               sodipodi:rx="50.307301"
               sodipodi:cy="-140"
               sodipodi:cx="162"
               d="m 212.3073,-140 c 0,14.76848 -22.52335,26.7407 -50.3073,26.7407 -27.78395,0 -50.3073,-11.97222 -50.3073,-26.7407 0,-14.76848 22.52335,-26.7407 50.3073,-26.7407 27.78395,0 50.3073,11.97222 50.3073,26.7407 z"
               id="ellipse110"
               ry="26.7407"
               rx="50.307301"
               cy="-140"
               cx="162" />
            <text
               style="font-size:14px;text-anchor:middle;fill:#ffffff;font-family:'Times,serif'"
               id="text112"
               font-size="14.00"
               y="-143.8"
               x="162">darkgreen</text>
          </a>
        </g>
      </g>
      <g
         class="edge"
         id="edge4">
        <title
           id="title117">orange.1-&gt;darkgreen.1</title>
        <path
           style="fill:none;stroke:#000000;stroke-width:2"
           inkscape:connector-curvature="0"
           id="path119"
           d="m 202.698,-204.954 c -6.012,9.447 -13.013,20.45 -19.497,30.639" />
        <polygon
           style="fill:#000000;stroke:#000000;stroke-width:2"
           id="polygon121"
           points="177.674,-165.63 180.09,-175.946 185.995,-172.187 185.995,-172.187 " />
      </g>
      <g
         class="node"
         id="node8">
        <title
           id="title124">gray.1</title>
        <g
           id="a_node8">
          <a
             xlink:href="gray.1"
             xlink:title="gray\n1"
             id="a127">
            <ellipse
               style="fill:#808080;stroke:#000000;stroke-width:2"
               sodipodi:ry="26.7407"
               sodipodi:rx="28.4872"
               sodipodi:cy="-140"
               sodipodi:cx="259"
               d="m 287.4872,-140 c 0,14.76848 -12.75415,26.7407 -28.4872,26.7407 -15.73305,0 -28.4872,-11.97222 -28.4872,-26.7407 0,-14.76848 12.75415,-26.7407 28.4872,-26.7407 15.73305,0 28.4872,11.97222 28.4872,26.7407 z"
               id="ellipse129"
               ry="26.7407"
               rx="28.4872"
               cy="-140"
               cx="259" />
            <text
               style="font-size:14px;text-anchor:middle;font-family:'Times,serif'"
               id="text131"
               font-size="14.00"
               y="-143.8"
               x="259">gray</text>
          </a>
        </g>
      </g>
      <g
         class="edge"
         id="edge5">
        <title
           id="title136">orange.1-&gt;gray.1</title>
        <path
           style="fill:none;stroke:#000000;stroke-width:2"
           inkscape:connector-curvature="0"
           id="path138"
           d="m 229.639,-204.018 c 4.342,9.319 9.34,20.047 13.968,29.979" />
        <polygon
           style="fill:#000000;stroke:#000000;stroke-width:2"
           id="polygon140"
           points="247.896,-164.832 240.501,-172.419 246.846,-175.375 246.846,-175.375 " />
      </g>
      <g
         class="node"
         id="node9">
        <title
           id="title143">pink.1</title>
        <g
           id="a_node9">
          <a
             xlink:href="pink.1"
             xlink:title="pink\n1"
             id="a146">
            <ellipse
               style="fill:#ffc0cb;stroke:#000000;stroke-width:2"
               sodipodi:ry="26.7407"
               sodipodi:rx="28.4872"
               sodipodi:cy="-410"
               sodipodi:cx="134"
               d="m 162.4872,-410 c 0,14.76848 -12.75415,26.7407 -28.4872,26.7407 -15.73305,0 -28.4872,-11.97222 -28.4872,-26.7407 0,-14.76848 12.75415,-26.7407 28.4872,-26.7407 15.73305,0 28.4872,11.97222 28.4872,26.7407 z"
               id="ellipse148"
               ry="26.7407"
               rx="28.4872"
               cy="-410"
               cx="134" />
            <text
               style="font-size:14px;text-anchor:middle;font-family:'Times,serif'"
               id="text150"
               font-size="14.00"
               y="-413.79999"
               x="134">pink</text>
          </a>
        </g>
      </g>
      <g
         class="edge"
         id="edge6">
        <title
           id="title155">pink.1-&gt;green.1</title>
        <path
           style="fill:none;stroke:#000000;stroke-width:2"
           inkscape:connector-curvature="0"
           id="path157"
           d="m 115.847,-389.031 c -10.537,11.59 -23.9914,26.39 -35.6586,39.224" />
        <polygon
           style="fill:#000000;stroke:#000000;stroke-width:2"
           id="polygon159"
           points="73.197,-342.117 77.3339,-351.87 82.5135,-347.162 82.5135,-347.162 " />
      </g>
      <g
         class="node"
         id="node10">
        <title
           id="title162">blue.1</title>
        <g
           id="a_node10">
          <a
             xlink:href="blue.1"
             xlink:title="blue\n1"
             id="a165">
            <ellipse
               style="fill:#0000ff;stroke:#000000;stroke-width:2"
               sodipodi:ry="26.7407"
               sodipodi:rx="27.9291"
               sodipodi:cy="-320"
               sodipodi:cx="134"
               d="m 161.9291,-320 c 0,14.76848 -12.50428,26.7407 -27.9291,26.7407 -15.42482,0 -27.9291,-11.97222 -27.9291,-26.7407 0,-14.76848 12.50428,-26.7407 27.9291,-26.7407 15.42482,0 27.9291,11.97222 27.9291,26.7407 z"
               id="ellipse167"
               ry="26.7407"
               rx="27.9291"
               cy="-320"
               cx="134" />
            <text
               style="font-size:14px;text-anchor:middle;fill:#ffffff;font-family:'Times,serif'"
               id="text169"
               font-size="14.00"
               y="-323.79999"
               x="134">blue</text>
          </a>
        </g>
      </g>
      <g
         class="edge"
         id="edge7">
        <title
           id="title174">pink.1-&gt;blue.1</title>
        <path
           style="fill:none;stroke:#000000;stroke-width:2"
           inkscape:connector-curvature="0"
           id="path176"
           d="m 134,-383.073 c 0,8.074 0,17.13 0,25.777" />
        <polygon
           style="fill:#000000;stroke:#000000;stroke-width:2"
           id="polygon178"
           points="134,-347.046 130.5,-357.046 137.5,-357.046 137.5,-357.046 " />
      </g>
      <g
         class="node"
         id="node11">
        <title
           id="title181">yellow.1</title>
        <g
           id="a_node11">
          <a
             xlink:href="yellow.1"
             xlink:title="yellow\n1"
             id="a184">
            <ellipse
               style="fill:#ffff00;stroke:#000000;stroke-width:2"
               sodipodi:ry="26.7407"
               sodipodi:rx="37.215199"
               sodipodi:cy="-320"
               sodipodi:cx="218"
               d="m 255.2152,-320 c 0,14.76848 -16.66181,26.7407 -37.2152,26.7407 -20.55339,0 -37.2152,-11.97222 -37.2152,-26.7407 0,-14.76848 16.66181,-26.7407 37.2152,-26.7407 20.55339,0 37.2152,11.97222 37.2152,26.7407 z"
               id="ellipse186"
               ry="26.7407"
               rx="37.215199"
               cy="-320"
               cx="218" />
            <text
               style="font-size:14px;text-anchor:middle;font-family:'Times,serif'"
               id="text188"
               font-size="14.00"
               y="-323.79999"
               x="218">yellow</text>
          </a>
        </g>
      </g>
      <g
         class="edge"
         id="edge8">
        <title
           id="title193">pink.1-&gt;yellow.1</title>
        <path
           style="fill:none;stroke:#000000;stroke-width:2"
           inkscape:connector-curvature="0"
           id="path195"
           d="m 152.642,-389.47 c 11.071,11.598 25.317,26.522 37.681,39.475" />
        <polygon
           style="fill:#000000;stroke:#000000;stroke-width:2"
           id="polygon197"
           points="197.347,-342.636 187.911,-347.453 192.974,-352.287 192.974,-352.287 " />
      </g>
      <g
         class="edge"
         id="edge9">
        <title
           id="title200">yellow.1-&gt;purple.1</title>
        <path
           style="fill:none;stroke:#000000;stroke-width:2"
           inkscape:connector-curvature="0"
           id="path202"
           d="m 196.197,-298.145 c -12.259,11.726 -27.724,26.519 -41.016,39.233" />
        <polygon
           style="fill:#000000;stroke:#000000;stroke-width:2"
           id="polygon204"
           points="147.646,-251.705 152.453,-261.147 157.292,-256.088 157.292,-256.088 " />
      </g>
      <g
         class="edge"
         id="edge10">
        <title
           id="title207">yellow.1-&gt;orange.1</title>
        <path
           style="fill:none;stroke:#000000;stroke-width:2"
           inkscape:connector-curvature="0"
           id="path209"
           d="m 218,-293.073 c 0,8.074 0,17.13 0,25.777" />
        <polygon
           style="fill:#000000;stroke:#000000;stroke-width:2"
           id="polygon211"
           points="218,-257.046 214.5,-267.046 221.5,-267.046 221.5,-267.046 " />
      </g>
      <g
         class="node"
         id="node12">
        <title
           id="title214">red.1</title>
        <g
           id="a_node12">
          <a
             xlink:href="red.1"
             xlink:title="red\n1"
             id="a217">
            <ellipse
               style="fill:#ff0000;stroke:#000000;stroke-width:2"
               sodipodi:ry="26.7407"
               sodipodi:rx="27"
               sodipodi:cy="-230"
               sodipodi:cx="300"
               d="m 327,-230 c 0,14.76848 -12.08831,26.7407 -27,26.7407 -14.91169,0 -27,-11.97222 -27,-26.7407 0,-14.76848 12.08831,-26.7407 27,-26.7407 14.91169,0 27,11.97222 27,26.7407 z"
               id="ellipse219"
               ry="26.7407"
               rx="27"
               cy="-230"
               cx="300" />
            <text
               style="font-size:14px;text-anchor:middle;font-family:'Times,serif'"
               id="text221"
               font-size="14.00"
               y="-233.8"
               x="300">red</text>
          </a>
        </g>
      </g>
      <g
         class="edge"
         id="edge11">
        <title
           id="title226">yellow.1-&gt;red.1</title>
        <path
           style="fill:none;stroke:#000000;stroke-width:2"
           inkscape:connector-curvature="0"
           id="path228"
           d="m 238.27,-297.247 c 11.075,11.886 24.89,26.711 36.641,39.322" />
        <polygon
           style="fill:#000000;stroke:#000000;stroke-width:2"
           id="polygon230"
           points="281.918,-250.406 272.54,-255.336 277.661,-260.108 277.661,-260.108 " />
      </g>
      <g
         class="edge"
         id="edge13">
        <title
           id="title233">red.1-&gt;magenta.1</title>
        <path
           style="fill:none;stroke:#000000;stroke-width:2"
           inkscape:connector-curvature="0"
           id="path235"
           d="m 313.134,-206.338 c 5.626,9.708 12.311,21.244 18.488,31.901" />
        <polygon
           style="fill:#000000;stroke:#000000;stroke-width:2"
           id="polygon237"
           points="336.656,-165.751 328.613,-172.648 334.67,-176.158 334.67,-176.158 " />
      </g>
      <g
         class="edge"
         id="edge14">
        <title
           id="title240">red.1-&gt;gray.1</title>
        <path
           style="fill:none;stroke:#000000;stroke-width:2"
           inkscape:connector-curvature="0"
           id="path242"
           d="m 289.013,-205.418 c -4.468,9.589 -9.71,20.84 -14.552,31.233" />
        <polygon
           style="fill:#000000;stroke:#000000;stroke-width:2"
           id="polygon244"
           points="270.16,-164.954 271.211,-175.496 277.556,-172.54 277.556,-172.54 " />
      </g>
      <g
         class="node"
         id="node13">
        <title
           id="title247">prep.1</title>
        <g
           id="a_node13">
          <a
             xlink:href="prep.1"
             xlink:title="prep\n1"
             id="a250">
            <ellipse
               style="fill:#708090;stroke:#000000;stroke-width:2"
               sodipodi:ry="26.7407"
               sodipodi:rx="28.4872"
               sodipodi:cy="-500"
               sodipodi:cx="134"
               d="m 162.4872,-500 c 0,14.76848 -12.75415,26.7407 -28.4872,26.7407 -15.73305,0 -28.4872,-11.97222 -28.4872,-26.7407 0,-14.76848 12.75415,-26.7407 28.4872,-26.7407 15.73305,0 28.4872,11.97222 28.4872,26.7407 z"
               id="ellipse252"
               ry="26.7407"
               rx="28.4872"
               cy="-500"
               cx="134" />
            <text
               style="font-size:14px;text-anchor:middle;font-family:'Times,serif'"
               id="text254"
               font-size="14.00"
               y="-503.79999"
               x="134">prep</text>
          </a>
        </g>
      </g>
      <g
         class="edge"
         id="edge12">
        <title
           id="title259">prep.1-&gt;pink.1</title>
        <path
           style="fill:none;stroke:#000000;stroke-width:2"
           inkscape:connector-curvature="0"
           id="path261"
           d="m 134,-473.073 c 0,8.074 0,17.13 0,25.777" />
        <polygon
           style="fill:#000000;stroke:#000000;stroke-width:2"
           id="polygon263"
           points="134,-437.046 130.5,-447.046 137.5,-447.046 137.5,-447.046 " />
      </g>
    </g>
  </g>
</svg>
