<?xml version="1.0" encoding="UTF-8" standalone="no"?>
<!-- Created with Inkscape (http://www.inkscape.org/) -->
<svg
   xmlns:svg="http://www.w3.org/2000/svg"
   xmlns="http://www.w3.org/2000/svg"
   xmlns:xlink="http://www.w3.org/1999/xlink"
   version="1.0"
   width="307.5"
   height="75"
   id="svg2"
   xml:space="preserve"><defs
     id="defs5"><clipPath
       id="clipPath19"><path
         d="M 24.9336,364.91 C 259.926,353.234 469.629,488.32 834.004,439.855 C 1003.11,417.371 1415.54,326.574 1739.89,342.863 C 1934.8,354.504 2255.34,481.176 2443.99,471.371 L 2434.56,454.672 C 2267.53,458.676 1961.65,275.906 1748.36,265.422 C 1353.43,249.367 1155.26,386.68 832.238,408.316 C 455.59,433.535 422.242,287.98 6.26562,329.031 L 24.9336,364.91"
         id="path21" /></clipPath><linearGradient
       x1="0"
       y1="0"
       x2="1"
       y2="0"
       id="linearGradient25"
       gradientUnits="userSpaceOnUse"
       gradientTransform="matrix(243.773,0,0,27.8956,0.626465,9.1679)"
       spreadMethod="pad"><stop
         id="stop27"
         style="stop-color:#ef1f78;stop-opacity:1"
         offset="0" /><stop
         id="stop29"
         style="stop-color:#1fa1e3;stop-opacity:1"
         offset="0.30337101" /><stop
         id="stop31"
         style="stop-color:#1fa1e3;stop-opacity:1"
         offset="0.30337101" /><stop
         id="stop33"
         style="stop-color:#00a650;stop-opacity:1"
         offset="0.48314601" /><stop
         id="stop35"
         style="stop-color:#ddc40f;stop-opacity:1"
         offset="0.68539399" /><stop
         id="stop37"
         style="stop-color:#d51628;stop-opacity:1"
         offset="0.91573" /><stop
         id="stop39"
         style="stop-color:#d51628;stop-opacity:1"
         offset="1" /></linearGradient><clipPath
       id="clipPath47"><path
         d="M 0,592.406 L 0,0 L 2450.64,0 L 2450.64,592.406"
         id="path49" /></clipPath><linearGradient
       x1="2.2746201"
       y1="368.01578"
       x2="2447.981"
       y2="368.01578"
       id="linearGradient3303"
       xlink:href="#linearGradient25"
       gradientUnits="userSpaceOnUse"
       gradientTransform="translate(4.3928271,2.8571429e-6)" /></defs><g
     transform="matrix(1.25,0,0,-1.25,0,75)"
     id="g11"><g
       transform="matrix(0.1,0,0,0.1,-0.4392827,-2.8571429e-7)"
       id="g43"><g
         clip-path="url(#clipPath47)"
         id="g45"><path
           d="M 24.9336,364.91 C 259.926,353.234 469.629,488.32 834.004,439.855 C 1003.11,417.371 1415.54,326.574 1739.89,342.863 C 1934.8,354.504 2255.34,481.176 2443.99,471.371 L 2434.56,454.672 C 2267.53,458.676 1961.65,275.906 1748.36,265.422 C 1353.43,249.367 1155.26,386.68 832.238,408.316 C 455.59,433.535 422.242,287.98 6.26562,329.031 L 24.9336,364.91 z"
           id="path51"
           style="fill:url(#linearGradient3303);fill-opacity:1;stroke:#ffffff;stroke-width:7.98199987;stroke-linecap:butt;stroke-linejoin:miter;stroke-miterlimit:3.86369991;stroke-dasharray:none;stroke-opacity:1" /><path
           d="M 705.258,329.27 C 710.121,329.641 715.445,330.383 720.246,330.383 C 725.039,330.383 730.078,329.641 734.797,329.27 L 769.504,508.012 L 801.586,465.898 C 834.793,421.957 865.859,376.531 899.438,328.898 L 930.754,328.516 L 979.953,581.867 C 975.004,581.129 969.77,580.758 964.973,580.758 C 960.168,580.758 955.09,581.129 950.426,581.867 L 916.848,409.031 C 876.336,468.512 832.184,524.629 790.879,581.867 L 754.312,581.867 L 705.258,329.27"
           id="path53"
           style="fill:#1a5dae;fill-opacity:1;fill-rule:nonzero;stroke:none" /><path
           d="M 705.258,329.27 C 710.121,329.641 715.445,330.383 720.246,330.383 C 725.039,330.383 730.078,329.641 734.797,329.27 L 769.504,508.012 L 801.586,465.898 C 834.793,421.957 865.859,376.531 899.438,328.898 L 930.754,328.516 L 979.953,581.867 C 975.004,581.129 969.77,580.758 964.973,580.758 C 960.168,580.758 955.09,581.129 950.426,581.867 L 916.848,409.031 C 876.336,468.512 832.184,524.629 790.879,581.867 L 754.312,581.867 L 705.258,329.27 z"
           id="path55"
           style="fill:none;stroke:#ffffff;stroke-width:12.80000019;stroke-linecap:butt;stroke-linejoin:miter;stroke-miterlimit:3.86369991;stroke-dasharray:none;stroke-opacity:1" /><path
           d="M 1024.54,328.516 C 1033.91,329.27 1043.36,330.383 1052.6,330.383 C 1061.82,330.383 1070.85,329.27 1079.96,328.516 L 1129.13,581.867 C 1119.75,581.129 1110.31,580.031 1101.08,580.031 C 1091.86,580.031 1082.83,581.129 1073.74,581.867 L 1024.54,328.516"
           id="path57"
           style="fill:#1a5dae;fill-opacity:1;fill-rule:nonzero;stroke:none" /><path
           d="M 1024.54,328.516 C 1033.91,329.27 1043.36,330.383 1052.6,330.383 C 1061.82,330.383 1070.85,329.27 1079.96,328.516 L 1129.13,581.867 C 1119.75,581.129 1110.31,580.031 1101.08,580.031 C 1091.86,580.031 1082.83,581.129 1073.74,581.867 L 1024.54,328.516 z"
           id="path59"
           style="fill:none;stroke:#ffffff;stroke-width:12.80000019;stroke-linecap:butt;stroke-linejoin:miter;stroke-miterlimit:3.86369991;stroke-dasharray:none;stroke-opacity:1" /><path
           d="M 1188.19,571.164 C 1197.3,490.641 1206.85,410.512 1212.34,328.516 C 1218.76,329.27 1225.24,330.383 1231.53,330.383 C 1237.45,330.383 1243.49,329.27 1249.64,328.516 C 1283.39,392.039 1316.46,450.031 1348.52,508.746 C 1358.47,449.656 1367.98,390.203 1372.63,328.516 C 1379.04,329.27 1385.55,330.383 1391.81,330.383 C 1397.73,330.383 1403.78,329.27 1409.91,328.516 C 1452.27,413.461 1497.21,496.566 1545.18,581.867 C 1539.48,581.129 1533.5,580.758 1527.97,580.758 C 1522.06,580.758 1516.58,581.129 1510.81,581.867 C 1483.18,519.469 1451.7,458.156 1420.29,397.223 C 1414.27,459.262 1401.94,519.469 1397.45,581.867 C 1391.04,581.129 1385.05,580.758 1378.76,580.758 C 1372.49,580.758 1366.65,581.129 1360.52,581.867 C 1329.55,519.469 1293.78,458.887 1260.75,397.223 C 1255.67,458.535 1250.62,519.82 1247.88,581.867 C 1237.75,581.129 1227.19,580.031 1217.23,580.031 C 1206.89,580.031 1197.12,581.129 1186.93,581.867 L 1188.19,571.164"
           id="path61"
           style="fill:#1a5dae;fill-opacity:1;fill-rule:nonzero;stroke:none" /><path
           d="M 1188.19,571.164 C 1197.3,490.641 1206.85,410.512 1212.34,328.516 C 1218.76,329.27 1225.24,330.383 1231.53,330.383 C 1237.45,330.383 1243.49,329.27 1249.64,328.516 C 1283.39,392.039 1316.46,450.031 1348.52,508.746 C 1358.47,449.656 1367.98,390.203 1372.63,328.516 C 1379.04,329.27 1385.55,330.383 1391.81,330.383 C 1397.73,330.383 1403.78,329.27 1409.91,328.516 C 1452.27,413.461 1497.21,496.566 1545.18,581.867 C 1539.48,581.129 1533.5,580.758 1527.97,580.758 C 1522.06,580.758 1516.58,581.129 1510.81,581.867 C 1483.18,519.469 1451.7,458.156 1420.29,397.223 C 1414.27,459.262 1401.94,519.469 1397.45,581.867 C 1391.04,581.129 1385.05,580.758 1378.76,580.758 C 1372.49,580.758 1366.65,581.129 1360.52,581.867 C 1329.55,519.469 1293.78,458.887 1260.75,397.223 C 1255.67,458.535 1250.62,519.82 1247.88,581.867 C 1237.75,581.129 1227.19,580.031 1217.23,580.031 C 1206.89,580.031 1197.12,581.129 1186.93,581.867 L 1188.19,571.164 z"
           id="path63"
           style="fill:none;stroke:#ffffff;stroke-width:12.80000019;stroke-linecap:butt;stroke-linejoin:miter;stroke-miterlimit:3.86369991;stroke-dasharray:none;stroke-opacity:1" /><path
           d="M 1670.22,405.719 C 1675.38,380.977 1678.27,355.852 1681.47,328.516 C 1692.31,329.27 1702.86,330.383 1713.57,330.383 C 1724.28,330.383 1734.41,329.27 1744.98,328.516 L 1691.79,585.191 C 1686.85,584.457 1682.34,584.082 1677.54,584.082 C 1672.72,584.082 1668.37,584.457 1663.73,585.191 L 1508.39,329.27 C 1514.36,329.641 1520.41,330.383 1526.33,330.383 C 1532.24,330.383 1537.63,329.641 1543.48,329.27 C 1555.44,354.758 1569.12,377.648 1584.17,405.719 L 1670.22,405.719 z M 1598.53,428.242 L 1649.95,514.293 L 1666.09,428.242 L 1598.53,428.242"
           id="path65"
           style="fill:#1a5dae;fill-opacity:1;fill-rule:evenodd;stroke:none" /><path
           d="M 1670.22,405.719 C 1675.38,380.977 1678.27,355.852 1681.47,328.516 C 1692.31,329.27 1702.86,330.383 1713.57,330.383 C 1724.28,330.383 1734.41,329.27 1744.98,328.516 L 1691.79,585.191 C 1686.85,584.457 1682.34,584.082 1677.54,584.082 C 1672.72,584.082 1668.37,584.457 1663.73,585.191 L 1508.39,329.27 C 1514.36,329.641 1520.41,330.383 1526.33,330.383 C 1532.24,330.383 1537.63,329.641 1543.48,329.27 C 1555.44,354.758 1569.12,377.648 1584.17,405.719 L 1670.22,405.719 z M 1598.53,428.242 L 1649.95,514.293 L 1666.09,428.242 L 1598.53,428.242 z"
           id="path67"
           style="fill:none;stroke:#ffffff;stroke-width:12.80000019;stroke-linecap:butt;stroke-linejoin:miter;stroke-miterlimit:4;stroke-dasharray:none;stroke-opacity:1" /><path
           d="M 705.258,329.27 C 710.121,329.641 715.445,330.383 720.246,330.383 C 725.039,330.383 730.078,329.641 734.797,329.27 L 769.504,508.012 L 801.586,465.898 C 834.793,421.957 865.859,376.531 899.438,328.898 L 930.754,328.516 L 979.953,581.867 C 975.004,581.129 969.77,580.758 964.973,580.758 C 960.168,580.758 955.09,581.129 950.426,581.867 L 916.848,409.031 C 876.336,468.512 832.184,524.629 790.879,581.867 L 754.312,581.867 L 705.258,329.27"
           id="path69"
           style="fill:#1a5dae;fill-opacity:1;fill-rule:nonzero;stroke:none" /><path
           d="M 705.258,329.27 C 710.121,329.641 715.445,330.383 720.246,330.383 C 725.039,330.383 730.078,329.641 734.797,329.27 L 769.504,508.012 L 801.586,465.898 C 834.793,421.957 865.859,376.531 899.438,328.898 L 930.754,328.516 L 979.953,581.867 C 975.004,581.129 969.77,580.758 964.973,580.758 C 960.168,580.758 955.09,581.129 950.426,581.867 L 916.848,409.031 C 876.336,468.512 832.184,524.629 790.879,581.867 L 754.312,581.867 L 705.258,329.27 z"
           id="path71"
           style="fill:none;stroke:#ffffff;stroke-width:7.98199987;stroke-linecap:butt;stroke-linejoin:miter;stroke-miterlimit:3.86369991;stroke-dasharray:none;stroke-opacity:1" /><path
           d="M 1024.54,328.516 C 1033.91,329.27 1043.36,330.383 1052.6,330.383 C 1061.82,330.383 1070.85,329.27 1079.96,328.516 L 1129.13,581.867 C 1119.75,581.129 1110.31,580.031 1101.08,580.031 C 1091.86,580.031 1082.83,581.129 1073.74,581.867 L 1024.54,328.516"
           id="path73"
           style="fill:#1a5dae;fill-opacity:1;fill-rule:nonzero;stroke:none" /><path
           d="M 1024.54,328.516 C 1033.91,329.27 1043.36,330.383 1052.6,330.383 C 1061.82,330.383 1070.85,329.27 1079.96,328.516 L 1129.13,581.867 C 1119.75,581.129 1110.31,580.031 1101.08,580.031 C 1091.86,580.031 1082.83,581.129 1073.74,581.867 L 1024.54,328.516 z"
           id="path75"
           style="fill:none;stroke:#ffffff;stroke-width:7.98199987;stroke-linecap:butt;stroke-linejoin:miter;stroke-miterlimit:3.86369991;stroke-dasharray:none;stroke-opacity:1" /><path
           d="M 1188.19,571.164 C 1197.3,490.641 1206.85,410.512 1212.34,328.516 C 1218.76,329.27 1225.24,330.383 1231.53,330.383 C 1237.45,330.383 1243.49,329.27 1249.64,328.516 C 1283.39,392.039 1316.46,450.031 1348.52,508.746 C 1358.47,449.656 1367.98,390.203 1372.63,328.516 C 1379.04,329.27 1385.55,330.383 1391.81,330.383 C 1397.73,330.383 1403.78,329.27 1409.91,328.516 C 1452.27,413.461 1497.21,496.566 1545.18,581.867 C 1539.48,581.129 1533.5,580.758 1527.97,580.758 C 1522.06,580.758 1516.58,581.129 1510.81,581.867 C 1483.18,519.469 1451.7,458.156 1420.29,397.223 C 1414.27,459.262 1401.94,519.469 1397.45,581.867 C 1391.04,581.129 1385.05,580.758 1378.76,580.758 C 1372.49,580.758 1366.65,581.129 1360.52,581.867 C 1329.55,519.469 1293.78,458.887 1260.75,397.223 C 1255.67,458.535 1250.62,519.82 1247.88,581.867 C 1237.75,581.129 1227.19,580.031 1217.23,580.031 C 1206.89,580.031 1197.12,581.129 1186.93,581.867 L 1188.19,571.164"
           id="path77"
           style="fill:#1a5dae;fill-opacity:1;fill-rule:nonzero;stroke:none" /><path
           d="M 1188.19,571.164 C 1197.3,490.641 1206.85,410.512 1212.34,328.516 C 1218.76,329.27 1225.24,330.383 1231.53,330.383 C 1237.45,330.383 1243.49,329.27 1249.64,328.516 C 1283.39,392.039 1316.46,450.031 1348.52,508.746 C 1358.47,449.656 1367.98,390.203 1372.63,328.516 C 1379.04,329.27 1385.55,330.383 1391.81,330.383 C 1397.73,330.383 1403.78,329.27 1409.91,328.516 C 1452.27,413.461 1497.21,496.566 1545.18,581.867 C 1539.48,581.129 1533.5,580.758 1527.97,580.758 C 1522.06,580.758 1516.58,581.129 1510.81,581.867 C 1483.18,519.469 1451.7,458.156 1420.29,397.223 C 1414.27,459.262 1401.94,519.469 1397.45,581.867 C 1391.04,581.129 1385.05,580.758 1378.76,580.758 C 1372.49,580.758 1366.65,581.129 1360.52,581.867 C 1329.55,519.469 1293.78,458.887 1260.75,397.223 C 1255.67,458.535 1250.62,519.82 1247.88,581.867 C 1237.75,581.129 1227.19,580.031 1217.23,580.031 C 1206.89,580.031 1197.12,581.129 1186.93,581.867 L 1188.19,571.164 z"
           id="path79"
           style="fill:none;stroke:#ffffff;stroke-width:7.98199987;stroke-linecap:butt;stroke-linejoin:miter;stroke-miterlimit:3.86369991;stroke-dasharray:none;stroke-opacity:1" /><path
           d="M 1670.22,405.719 C 1675.38,380.977 1678.27,355.852 1681.47,328.516 C 1692.31,329.27 1702.86,330.383 1713.57,330.383 C 1724.28,330.383 1734.41,329.27 1744.98,328.516 L 1691.79,585.191 C 1686.85,584.457 1682.34,584.082 1677.54,584.082 C 1672.72,584.082 1668.37,584.457 1663.73,585.191 L 1508.39,329.27 C 1514.36,329.641 1520.41,330.383 1526.33,330.383 C 1532.24,330.383 1537.63,329.641 1543.48,329.27 C 1555.44,354.758 1569.12,377.648 1584.17,405.719 L 1670.22,405.719 z M 1598.53,428.242 L 1649.95,514.293 L 1666.09,428.242 L 1598.53,428.242"
           id="path81"
           style="fill:#1a5dae;fill-opacity:1;fill-rule:evenodd;stroke:none" /><path
           d="M 1670.22,405.719 C 1675.38,380.977 1678.27,355.852 1681.47,328.516 C 1692.31,329.27 1702.86,330.383 1713.57,330.383 C 1724.28,330.383 1734.41,329.27 1744.98,328.516 L 1691.79,585.191 C 1686.85,584.457 1682.34,584.082 1677.54,584.082 C 1672.72,584.082 1668.37,584.457 1663.73,585.191 L 1508.39,329.27 C 1514.36,329.641 1520.41,330.383 1526.33,330.383 C 1532.24,330.383 1537.63,329.641 1543.48,329.27 C 1555.44,354.758 1569.12,377.648 1584.17,405.719 L 1670.22,405.719 z M 1598.53,428.242 L 1649.95,514.293 L 1666.09,428.242 L 1598.53,428.242 z"
           id="path83"
           style="fill:none;stroke:#ffffff;stroke-width:7.98199987;stroke-linecap:butt;stroke-linejoin:miter;stroke-miterlimit:4;stroke-dasharray:none;stroke-opacity:1" /><path
           d="M 438.199,144.641 C 438.199,158.965 437.992,173.281 437.578,187.598 C 423.258,187.598 404.789,186.77 393.168,185.324 C 393.789,187.395 394.203,189.68 394.203,191.965 C 394.203,194.031 393.789,196.113 393.168,198.391 C 411.016,197.773 428.863,197.355 446.711,197.355 C 464.555,197.355 482.402,197.773 500.25,198.391 C 499.625,196.113 499.211,194.031 499.211,191.746 C 499.211,189.68 499.625,187.395 500.25,185.324 C 488.629,186.77 470.156,187.598 455.84,187.598 C 455.426,173.281 455.215,158.965 455.215,144.641 L 455.215,108.953 C 455.215,91.1055 456.047,73.0469 456.875,55.2031 C 453.352,55.8281 450.031,56.2383 446.711,56.2383 C 443.391,56.2383 440.07,55.8281 436.539,55.2031 C 437.367,73.0469 438.199,91.1055 438.199,108.953 L 438.199,144.641"
           id="path85"
           style="fill:#1a5dae;fill-opacity:1;fill-rule:nonzero;stroke:none" /><path
           d="M 501.523,144.434 C 513.977,153.781 523.938,156.477 534.934,156.477 C 554.855,156.477 568.551,144.23 568.551,125.762 C 568.551,110.195 567.719,94.832 567.719,77.4102 C 567.719,70.5586 567.719,62.0508 575.816,62.0508 C 577.062,62.0508 578.723,62.0508 580.172,62.8828 L 580.172,58.3125 C 577.266,57.0703 572.285,55.4102 566.891,55.4102 C 557.969,55.4102 553.402,61.2227 552.574,68.2734 C 542.613,58.3125 534.102,53.125 519.992,53.125 C 506.09,53.125 492.395,62.8828 492.395,78.6523 C 492.395,95.2539 503.598,104.18 521.652,107.078 C 551.742,111.855 552.777,113.516 552.777,121.613 C 552.777,135.52 546.555,147.754 529.953,147.754 C 518.957,147.754 508.578,142.57 503.805,133.645 L 501.523,133.645 L 501.523,144.434 z M 552.777,107.5 C 538.461,102.727 509.41,104.18 509.41,81.5547 C 509.41,68.4883 518.332,61.8477 527.461,61.8477 C 538.047,61.8477 547.18,68.6914 551.949,76.3672 L 552.777,107.5"
           id="path87"
           style="fill:#1a5dae;fill-opacity:1;fill-rule:nonzero;stroke:none" /><path
           d="M 616.281,201.082 C 622.09,201.082 626.867,196.32 626.867,190.508 C 626.867,184.699 622.09,179.922 616.281,179.922 C 610.469,179.922 605.699,184.699 605.699,190.508 C 605.699,196.32 610.469,201.082 616.281,201.082 z M 608.605,115.598 C 608.605,128.035 608.188,142.57 606.945,154.395 C 610.055,153.781 613.168,153.359 616.281,153.359 C 619.395,153.359 622.504,153.781 625.621,154.395 C 624.375,142.57 623.961,128.035 623.961,115.598 L 623.961,94.0156 C 623.961,81.5547 624.375,67.0312 625.621,55.2031 C 622.504,55.8281 619.395,56.2383 616.281,56.2383 C 613.168,56.2383 610.055,55.8281 606.945,55.2031 C 608.188,67.0312 608.605,81.5547 608.605,94.0156 L 608.605,115.598"
           id="path89"
           style="fill:#1a5dae;fill-opacity:1;fill-rule:nonzero;stroke:none" /><path
           d="M 662.559,152.531 C 662.559,171.621 662.145,198.391 660.898,212.297 C 664.008,211.676 667.125,211.262 670.234,211.262 C 673.352,211.262 676.461,211.676 679.574,212.297 C 678.332,198.391 677.918,171.621 677.918,153.566 L 677.918,137.793 L 678.332,137.793 C 686.008,149.617 696.594,156.477 711.535,156.477 C 726.891,156.477 744.738,149.004 744.738,120.363 C 744.738,108.535 743.906,96.082 743.906,81.9727 C 743.906,72.8438 743.906,64.1328 744.32,55.2031 C 741.207,55.8281 738.512,56.2383 735.605,56.2383 C 732.699,56.2383 730,55.8281 727.094,55.2031 C 727.512,70.3516 728.551,85.4961 728.551,101.477 L 728.551,114.141 C 728.551,134.473 719.625,145.684 705.93,145.684 C 686.633,145.684 677.918,133.234 677.918,111.652 C 677.918,95.8789 678.332,69.1133 679.574,55.2031 C 676.461,55.8281 673.352,56.2383 670.234,56.2383 C 667.125,56.2383 664.008,55.8281 660.898,55.2031 C 662.145,69.1133 662.559,95.8789 662.559,114.973 L 662.559,152.531"
           id="path91"
           style="fill:#1a5dae;fill-opacity:1;fill-rule:nonzero;stroke:none" /><path
           d="M 818.199,156.477 C 842.27,156.477 868.625,142.57 868.625,104.797 C 868.625,67.0312 842.27,53.125 818.199,53.125 C 794.125,53.125 767.77,67.0312 767.77,104.797 C 767.77,142.57 794.125,156.477 818.199,156.477 z M 818.199,59.7656 C 842.688,59.7656 850.363,81.5547 850.363,104.797 C 850.363,128.035 842.688,149.832 818.199,149.832 C 793.711,149.832 786.031,128.035 786.031,104.797 C 786.031,81.5547 793.711,59.7656 818.199,59.7656"
           id="path93"
           style="fill:#1a5dae;fill-opacity:1;fill-rule:nonzero;stroke:none" /><path
           d="M 939.184,137.383 C 937.73,139.043 933.164,140.703 929.016,140.703 C 915.734,140.703 907.848,128.035 907.848,111.855 C 907.848,75.7539 907.848,64.7461 908.676,55.2031 C 905.98,55.8281 903.07,56.2383 900.375,56.2383 C 897.473,56.2383 894.77,55.8281 891.66,55.2031 C 892.492,65.3711 892.492,81.5547 892.492,104.797 L 892.492,111.438 C 892.492,122.238 892.492,136.555 891.66,154.395 C 894.77,153.781 897.473,153.359 900.375,153.359 C 903.07,153.359 905.98,153.781 908.676,154.395 C 907.641,144.434 907.641,139.453 907.641,134.27 L 908.051,134.062 C 915.941,149.004 925.902,156.477 935.445,156.477 C 937.934,156.477 939.391,156.262 942.086,155.227 C 940.637,151.906 940.637,144.023 940.637,138.418 L 939.184,137.383"
           id="path95"
           style="fill:#1a5dae;fill-opacity:1;fill-rule:nonzero;stroke:none" /><path
           d="M 1002.69,156.477 C 1026.76,156.477 1053.12,142.57 1053.12,104.797 C 1053.12,67.0312 1026.76,53.125 1002.69,53.125 C 978.609,53.125 952.258,67.0312 952.258,104.797 C 952.258,142.57 978.609,156.477 1002.69,156.477 z M 1002.69,59.7656 C 1027.17,59.7656 1034.85,81.5547 1034.85,104.797 C 1034.85,128.035 1027.17,149.832 1002.69,149.832 C 978.195,149.832 970.52,128.035 970.52,104.797 C 970.52,81.5547 978.195,59.7656 1002.69,59.7656"
           id="path97"
           style="fill:#1a5dae;fill-opacity:1;fill-rule:nonzero;stroke:none" /><path
           d="M 1255.23,52.5117 C 1223.7,89.6484 1185.93,129.492 1150.44,167.266 C 1150.23,159.578 1149.82,147.141 1149.82,125.137 C 1149.82,107.297 1150.65,63.5078 1151.68,55.2031 C 1149.4,55.8281 1146.91,56.2383 1144.42,56.2383 C 1141.93,56.2383 1139.44,55.8281 1136.74,55.2031 C 1138.4,64.9492 1141.1,118.074 1141.1,145.48 C 1141.1,171.621 1141.1,191.746 1140.48,201.082 L 1143.8,201.082 C 1177.63,164.355 1223.49,114.348 1248.81,88.8203 C 1248.81,125.969 1248.81,166.438 1247.15,198.391 C 1249.42,197.773 1251.91,197.355 1254.2,197.355 C 1256.48,197.355 1258.55,197.773 1260.84,198.391 C 1259.6,186.145 1257.52,145.059 1257.52,128.879 C 1257.52,107.703 1257.94,61.8477 1258.14,52.5117 L 1255.23,52.5117"
           id="path99"
           style="fill:#1a5dae;fill-opacity:1;fill-rule:nonzero;stroke:none" /><path
           d="M 1295.91,121.398 C 1295.91,131.152 1295.7,142.773 1295.5,154.395 C 1298.4,153.781 1301.51,153.359 1304.21,153.359 C 1306.91,153.359 1309.81,153.781 1312.72,154.395 C 1311.47,138.215 1310.64,117.039 1310.64,96.707 C 1310.64,82.3945 1313.55,75.5352 1317.08,71.5938 C 1321.03,67.2383 1326.84,63.9141 1334.92,63.9141 C 1346.54,63.9141 1354.43,69.7266 1357.96,77.1992 C 1362.11,86.1211 1362.31,87.7812 1362.31,120.363 C 1362.31,131.574 1362.31,144.434 1361.9,154.395 C 1364.8,153.781 1367.51,153.359 1370.62,153.359 C 1373.73,153.359 1376.43,153.781 1379.13,154.395 C 1377.88,132.812 1377.68,113.312 1377.68,91.3086 C 1377.68,79.0742 1377.88,66.8242 1378.51,55.2031 C 1375.81,55.8281 1373.11,56.2383 1370.41,56.2383 C 1367.72,56.2383 1365.02,55.8281 1362.31,55.2031 C 1362.73,61.2227 1362.73,67.2383 1362.73,73.0469 L 1362.31,73.0469 C 1355.26,60.1875 1343.02,53.125 1329.94,53.125 C 1308.36,53.125 1295.29,65.5742 1295.29,87.1562 C 1295.29,101.691 1295.91,111.23 1295.91,121.398"
           id="path101"
           style="fill:#1a5dae;fill-opacity:1;fill-rule:nonzero;stroke:none" /><path
           d="M 1412.33,152.531 C 1412.33,171.621 1411.91,198.391 1410.67,212.297 C 1413.78,211.676 1416.89,211.262 1420.01,211.262 C 1423.13,211.262 1426.23,211.676 1429.35,212.297 C 1428.11,198.391 1427.69,171.621 1427.69,152.531 L 1427.69,114.758 C 1427.69,112.277 1428.52,110.82 1430.18,110.82 C 1432.26,110.82 1434.95,113.098 1438.27,115.598 C 1443.25,119.324 1463.58,139.656 1476.46,154.395 C 1478.74,153.781 1481.44,153.359 1484.34,153.359 C 1487.25,153.359 1489.94,153.781 1494.72,154.395 C 1477.49,140.496 1461.31,126.594 1446.98,112.688 C 1462.75,93.5938 1479.98,74.2969 1497,55.2031 C 1492.23,55.8281 1488.7,56.2383 1485.17,56.2383 C 1481.64,56.2383 1478.12,55.8281 1474.59,55.2031 C 1462.55,70.9766 1442.63,94.2188 1432.87,104.59 C 1432.04,105.637 1430.8,106.672 1429.77,106.672 C 1428.52,106.672 1427.69,105.84 1427.69,104.18 L 1427.69,91.7305 C 1427.69,79.4844 1428.11,67.4492 1429.35,55.2031 C 1426.23,55.8281 1423.13,56.2383 1420.01,56.2383 C 1416.89,56.2383 1413.78,55.8281 1410.67,55.2031 C 1411.91,69.1133 1412.33,95.8789 1412.33,114.973 L 1412.33,152.531"
           id="path103"
           style="fill:#1a5dae;fill-opacity:1;fill-rule:nonzero;stroke:none" /><path
           d="M 1515.05,121.398 C 1515.05,131.152 1514.84,142.773 1514.64,154.395 C 1517.54,153.781 1520.65,153.359 1523.35,153.359 C 1526.05,153.359 1528.96,153.781 1531.87,154.395 C 1530.62,138.215 1529.79,117.039 1529.79,96.707 C 1529.79,82.3945 1532.7,75.5352 1536.22,71.5938 C 1540.17,67.2383 1545.98,63.9141 1554.06,63.9141 C 1565.68,63.9141 1573.57,69.7266 1577.1,77.1992 C 1581.25,86.1211 1581.46,87.7812 1581.46,120.363 C 1581.46,131.574 1581.46,144.434 1581.04,154.395 C 1583.96,153.781 1586.65,153.359 1589.77,153.359 C 1592.87,153.359 1595.58,153.781 1598.27,154.395 C 1597.02,132.812 1596.82,113.312 1596.82,91.3086 C 1596.82,79.0742 1597.02,66.8242 1597.65,55.2031 C 1594.95,55.8281 1592.26,56.2383 1589.55,56.2383 C 1586.86,56.2383 1584.16,55.8281 1581.46,55.2031 C 1581.88,61.2227 1581.88,67.2383 1581.88,73.0469 L 1581.46,73.0469 C 1574.4,60.1875 1562.16,53.125 1549.08,53.125 C 1527.5,53.125 1514.43,65.5742 1514.43,87.1562 C 1514.43,101.691 1515.05,111.23 1515.05,121.398"
           id="path105"
           style="fill:#1a5dae;fill-opacity:1;fill-rule:nonzero;stroke:none" /><path
           d="M 1677.33,137.383 C 1675.88,139.043 1671.32,140.703 1667.17,140.703 C 1653.89,140.703 1646,128.035 1646,111.855 C 1646,75.7539 1646,64.7461 1646.83,55.2031 C 1644.13,55.8281 1641.22,56.2383 1638.53,56.2383 C 1635.63,56.2383 1632.92,55.8281 1629.81,55.2031 C 1630.64,65.3711 1630.64,81.5547 1630.64,104.797 L 1630.64,111.438 C 1630.64,122.238 1630.64,136.555 1629.81,154.395 C 1632.92,153.781 1635.63,153.359 1638.53,153.359 C 1641.22,153.359 1644.13,153.781 1646.83,154.395 C 1645.79,144.434 1645.79,139.453 1645.79,134.27 L 1646.2,134.062 C 1654.09,149.004 1664.05,156.477 1673.59,156.477 C 1676.08,156.477 1677.54,156.262 1680.23,155.227 C 1678.79,151.906 1678.79,144.023 1678.79,138.418 L 1677.33,137.383"
           id="path107"
           style="fill:#1a5dae;fill-opacity:1;fill-rule:nonzero;stroke:none" /><path
           d="M 1698.51,144.434 C 1710.96,153.781 1720.92,156.477 1731.91,156.477 C 1751.84,156.477 1765.54,144.23 1765.54,125.762 C 1765.54,110.195 1764.71,94.832 1764.71,77.4102 C 1764.71,70.5586 1764.71,62.0508 1772.8,62.0508 C 1774.04,62.0508 1775.7,62.0508 1777.16,62.8828 L 1777.16,58.3125 C 1774.25,57.0703 1769.27,55.4102 1763.88,55.4102 C 1754.95,55.4102 1750.39,61.2227 1749.56,68.2734 C 1739.6,58.3125 1731.08,53.125 1716.97,53.125 C 1703.08,53.125 1689.38,62.8828 1689.38,78.6523 C 1689.38,95.2539 1700.59,104.18 1718.63,107.078 C 1748.73,111.855 1749.77,113.516 1749.77,121.613 C 1749.77,135.52 1743.54,147.754 1726.93,147.754 C 1715.94,147.754 1705.57,142.57 1700.79,133.645 L 1698.51,133.645 L 1698.51,144.434 z M 1749.77,107.5 C 1735.45,102.727 1706.4,104.18 1706.4,81.5547 C 1706.4,68.4883 1715.31,61.8477 1724.44,61.8477 C 1735.03,61.8477 1744.16,68.6914 1748.94,76.3672 L 1749.77,107.5"
           id="path109"
           style="fill:#1a5dae;fill-opacity:1;fill-rule:nonzero;stroke:none" /><path
           d="M 1845.22,145.684 C 1825.93,145.684 1817.21,133.234 1817.21,111.652 L 1817.21,94.0156 C 1817.21,81.5547 1817.63,67.0312 1818.87,55.2031 C 1815.75,55.8281 1812.65,56.2383 1809.53,56.2383 C 1806.42,56.2383 1803.3,55.8281 1800.2,55.2031 C 1801.44,67.0312 1801.86,81.5547 1801.86,94.0156 L 1801.86,115.598 C 1801.86,128.035 1801.44,142.57 1800.2,154.395 C 1803.3,153.781 1806.42,153.359 1809.53,153.359 C 1811.6,153.359 1814.72,153.781 1817.83,154.395 C 1817.41,148.801 1817.21,143.398 1817.21,137.793 L 1817.63,137.793 C 1825.3,149.617 1835.89,156.477 1850.83,156.477 C 1866.18,156.477 1884.03,149.004 1884.03,120.363 C 1884.03,108.535 1883.2,96.082 1883.2,81.9727 C 1883.2,72.8438 1883.2,64.1328 1883.61,55.2031 C 1880.5,55.8281 1877.8,56.2383 1874.9,56.2383 C 1871.99,56.2383 1869.3,55.8281 1866.39,55.2031 C 1866.81,70.3516 1867.84,85.4961 1867.84,101.477 L 1867.84,114.141 C 1867.84,134.473 1858.92,145.684 1845.22,145.684"
           id="path111"
           style="fill:#1a5dae;fill-opacity:1;fill-rule:nonzero;stroke:none" /><path
           d="M 1949.81,156.477 C 1955,156.477 1959.15,156.055 1966.62,155.645 C 1972.85,155.227 1978.24,154.816 1981.15,154.816 C 1989.24,154.816 1995.26,155.227 1997.96,155.852 C 1997.75,154.395 1997.54,152.949 1997.54,151.492 C 1997.54,150.039 1997.75,148.582 1997.96,147.141 C 1990.07,147.754 1982.39,148.582 1974.92,148.801 L 1974.51,148.379 C 1983.02,143.82 1988.83,132.609 1988.83,122.238 C 1988.83,101.477 1973.68,89.0312 1950.22,89.0312 C 1946.49,89.0312 1942.75,89.4453 1938.82,89.4453 C 1933.84,89.4453 1928.64,85.293 1928.64,79.8945 C 1928.64,72.6367 1931.55,69.5234 1940.89,69.3164 C 1948.56,69.1133 1956.04,68.8984 1963.72,68.6914 C 1989.03,68.0664 1999.2,56.8672 1999.2,42.1289 C 1999.2,23.0352 1984.88,0 1950.02,0 C 1923.46,0 1906.65,11.4141 1906.65,29.8828 C 1906.65,44.8242 1917.85,53.9531 1928.86,57.2773 L 1928.86,57.6953 C 1920.34,60.1875 1915.78,66.1992 1915.78,74.2969 C 1915.78,83.4297 1923.66,90.2734 1930.52,91.5156 L 1930.52,91.9336 C 1917.85,97.5391 1910.18,107.5 1910.18,122.648 C 1910.18,145.684 1928.23,156.477 1949.81,156.477 z M 1952.51,56.2383 C 1932.18,56.2383 1919.93,49.8047 1919.93,32.168 C 1919.93,13.2812 1933.21,6.02734 1950.44,6.02734 C 1967.25,6.02734 1983.85,14.5312 1983.85,33.2031 C 1983.85,49.3945 1974.51,56.2383 1952.51,56.2383 z M 1950.02,150.457 C 1935.08,150.457 1926.37,139.453 1926.37,122.648 C 1926.37,105.637 1933.84,94.4258 1949.81,94.4258 C 1965.59,94.4258 1972.64,108.328 1972.64,123.684 C 1972.64,140.703 1963.51,150.457 1950.02,150.457"
           id="path113"
           style="fill:#1a5dae;fill-opacity:1;fill-rule:nonzero;stroke:none" /><path
           d="M 2032.4,201.082 C 2038.21,201.082 2042.99,196.32 2042.99,190.508 C 2042.99,184.699 2038.21,179.922 2032.4,179.922 C 2026.59,179.922 2021.83,184.699 2021.83,190.508 C 2021.83,196.32 2026.59,201.082 2032.4,201.082 z M 2024.73,115.598 C 2024.73,128.035 2024.32,142.57 2023.07,154.395 C 2026.18,153.781 2029.3,153.359 2032.4,153.359 C 2035.52,153.359 2038.63,153.781 2041.75,154.395 C 2040.5,142.57 2040.09,128.035 2040.09,115.598 L 2040.09,94.0156 C 2040.09,81.5547 2040.5,67.0312 2041.75,55.2031 C 2038.63,55.8281 2035.52,56.2383 2032.4,56.2383 C 2029.3,56.2383 2026.18,55.8281 2023.07,55.2031 C 2024.32,67.0312 2024.73,81.5547 2024.73,94.0156 L 2024.73,115.598"
           id="path115"
           style="fill:#1a5dae;fill-opacity:1;fill-rule:nonzero;stroke:none" /></g></g></g></svg>