<?xml version="1.0" encoding="UTF-8" standalone="no"?>
<!-- Generated by graphviz version 2.36.0 (20140111.2315)
 -->

<!-- Title: %3 Pages: 1 -->

<svg
   xmlns:dc="http://purl.org/dc/elements/1.1/"
   xmlns:cc="http://creativecommons.org/ns#"
   xmlns:rdf="http://www.w3.org/1999/02/22-rdf-syntax-ns#"
   xmlns:svg="http://www.w3.org/2000/svg"
   xmlns="http://www.w3.org/2000/svg"
   xmlns:xlink="http://www.w3.org/1999/xlink"
   xmlns:sodipodi="http://sodipodi.sourceforge.net/DTD/sodipodi-0.dtd"
   xmlns:inkscape="http://www.inkscape.org/namespaces/inkscape"
   width="534pt"
   height="83pt"
   viewBox="0.00 0.00 534.00 83.00"
   id="svg2"
   version="1.1"
   inkscape:version="0.48.4 r9939"
   sodipodi:docname="pre-param.svg">
  <metadata
     id="metadata122">
    <rdf:RDF>
      <cc:Work
         rdf:about="">
        <dc:format>image/svg+xml</dc:format>
        <dc:type
           rdf:resource="http://purl.org/dc/dcmitype/StillImage" />
      </cc:Work>
    </rdf:RDF>
  </metadata>
  <defs
     id="defs120" />
  <sodipodi:namedview
     pagecolor="#ffffff"
     bordercolor="#666666"
     borderopacity="1"
     objecttolerance="10"
     gridtolerance="10"
     guidetolerance="10"
     inkscape:pageopacity="0"
     inkscape:pageshadow="2"
     inkscape:window-width="640"
     inkscape:window-height="480"
     id="namedview118"
     showgrid="false"
     inkscape:zoom="0.49138577"
     inkscape:cx="333.75"
     inkscape:cy="51.875"
     inkscape:window-x="0"
     inkscape:window-y="26"
     inkscape:window-maximized="0"
     inkscape:current-layer="graph0" />
  <g
     id="graph0"
     class="graph"
     transform="scale(1 1) rotate(0) translate(4 79)">
    <title
       id="title5">%3</title>
    <polygon
       fill="white"
       stroke="none"
       points="-4,4 -4,-79 530,-79 530,4 -4,4"
       id="polygon7" />
    <!-- close.1 -->
    <g
       id="node1"
       class="node">
      <title
         id="title12">close.1</title>
      <g
         id="a_node1">
        <a
           xlink:href="close.1"
           id="a15"
           xlink:title="close\n1">
          <ellipse
             fill="floralwhite"
             stroke="black"
             stroke-width="2"
             cx="397"
             cy="-49"
             rx="31.2258"
             ry="26.7407"
             id="ellipse17"
             d="m 428.2258,-49 c 0,14.768481 -13.98027,26.7407 -31.2258,26.7407 -17.24553,0 -31.2258,-11.972219 -31.2258,-26.7407 0,-14.768481 13.98027,-26.7407 31.2258,-26.7407 17.24553,0 31.2258,11.972219 31.2258,26.7407 z" />
          <text
             text-anchor="middle"
             x="397"
             y="-52.8"
             font-family="Times,serif"
             font-size="14.00"
             id="text19">close</text>
          <text
             text-anchor="middle"
             x="397"
             y="-37.8"
             font-family="Times,serif"
             font-size="14.00"
             id="text21">1</text>
        </a>
      </g>
    </g>
    <!-- done.1 -->
    <g
       id="node2"
       class="node">
      <title
         id="title24">done.1</title>
      <g
         id="a_node2">
        <a
           xlink:href="done.1"
           id="a27"
           xlink:title="done\n1">
          <ellipse
             fill="floralwhite"
             stroke="black"
             stroke-width="2"
             cx="495"
             cy="-49"
             rx="30.3115"
             ry="26.7407"
             id="ellipse29"
             d="m 525.3115,-49 c 0,14.768481 -13.57092,26.7407 -30.3115,26.7407 -16.74058,0 -30.3115,-11.972219 -30.3115,-26.7407 0,-14.768481 13.57092,-26.7407 30.3115,-26.7407 16.74058,0 30.3115,11.972219 30.3115,26.7407 z" />
          <text
             text-anchor="middle"
             x="495"
             y="-52.8"
             font-family="Times,serif"
             font-size="14.00"
             id="text31">done</text>
          <text
             text-anchor="middle"
             x="495"
             y="-37.8"
             font-family="Times,serif"
             font-size="14.00"
             id="text33">1</text>
        </a>
      </g>
    </g>
    <!-- close.1&#45;&gt;done.1 -->
    <g
       id="edge1"
       class="edge">
      <title
         id="title36">close.1-&gt;done.1</title>
      <path
         fill="none"
         stroke="black"
         stroke-width="2"
         d="M428.375,-49C436.576,-49 445.574,-49 454.208,-49"
         id="path38" />
      <polygon
         fill="black"
         stroke="black"
         stroke-width="2"
         points="454.479,-52.5001 464.479,-49 454.479,-45.5001 454.479,-52.5001"
         id="polygon40" />
    </g>
    <!-- init.1 -->
    <g
       id="node3"
       class="node">
      <title
         id="title43">init.1</title>
      <g
         id="a_node3">
        <a
           xlink:href="init.1"
           id="a46"
           xlink:title="init\n1">
          <ellipse
             fill="floralwhite"
             stroke="black"
             stroke-width="2"
             cx="121"
             cy="-49"
             rx="27"
             ry="26.7407"
             id="ellipse48"
             d="m 148,-49 c 0,14.768481 -12.08831,26.7407 -27,26.7407 -14.91169,0 -27,-11.972219 -27,-26.7407 0,-14.768481 12.08831,-26.7407 27,-26.7407 14.91169,0 27,11.972219 27,26.7407 z" />
          <text
             text-anchor="middle"
             x="121"
             y="-52.8"
             font-family="Times,serif"
             font-size="14.00"
             id="text50">init</text>
          <text
             text-anchor="middle"
             x="121"
             y="-37.8"
             font-family="Times,serif"
             font-size="14.00"
             id="text52">1</text>
        </a>
      </g>
    </g>
    <!-- sim.1 -->
    <g
       id="node4"
       class="node">
      <title
         id="title55">sim.1</title>
      <g
         id="a_node4">
        <a
           xlink:href="sim.1"
           id="a58"
           xlink:title="sim\n1">
          <ellipse
             fill="floralwhite"
             stroke="black"
             stroke-width="2"
             cx="211"
             cy="-49"
             rx="27"
             ry="26.7407"
             id="ellipse60"
             d="m 238,-49 c 0,14.768481 -12.08831,26.7407 -27,26.7407 -14.91169,0 -27,-11.972219 -27,-26.7407 0,-14.768481 12.08831,-26.7407 27,-26.7407 14.91169,0 27,11.972219 27,26.7407 z" />
          <text
             text-anchor="middle"
             x="211"
             y="-52.8"
             font-family="Times,serif"
             font-size="14.00"
             id="text62">sim</text>
          <text
             text-anchor="middle"
             x="211"
             y="-37.8"
             font-family="Times,serif"
             font-size="14.00"
             id="text64">1</text>
        </a>
      </g>
    </g>
    <!-- init.1&#45;&gt;sim.1 -->
    <g
       id="edge2"
       class="edge">
      <title
         id="title67">init.1-&gt;sim.1</title>
      <path
         fill="none"
         stroke="black"
         stroke-width="2"
         d="M148.403,-49C156.393,-49 165.311,-49 173.824,-49"
         id="path69" />
      <polygon
         fill="black"
         stroke="black"
         stroke-width="2"
         points="173.919,-52.5001 183.919,-49 173.919,-45.5001 173.919,-52.5001"
         id="polygon71" />
    </g>
    <!-- post.1 -->
    <g
       id="node5"
       class="node">
      <title
         id="title74">post.1</title>
      <g
         id="a_node5">
        <a
           xlink:href="post.1"
           id="a77"
           xlink:title="post\n1">
          <ellipse
             fill="floralwhite"
             stroke="black"
             stroke-width="2"
             cx="302"
             cy="-49"
             rx="27.6545"
             ry="26.7407"
             id="ellipse79"
             d="m 329.6545,-49 c 0,14.768481 -12.38134,26.7407 -27.6545,26.7407 -15.27316,0 -27.6545,-11.972219 -27.6545,-26.7407 0,-14.768481 12.38134,-26.7407 27.6545,-26.7407 15.27316,0 27.6545,11.972219 27.6545,26.7407 z" />
          <text
             text-anchor="middle"
             x="302"
             y="-52.8"
             font-family="Times,serif"
             font-size="14.00"
             id="text81">post</text>
          <text
             text-anchor="middle"
             x="302"
             y="-37.8"
             font-family="Times,serif"
             font-size="14.00"
             id="text83">1</text>
        </a>
      </g>
    </g>
    <!-- sim.1&#45;&gt;post.1 -->
    <g
       id="edge3"
       class="edge">
      <title
         id="title86">sim.1-&gt;post.1</title>
      <path
         fill="none"
         stroke="black"
         stroke-width="2"
         d="M238.222,-49C246.403,-49 255.582,-49 264.343,-49"
         id="path88" />
      <polygon
         fill="black"
         stroke="black"
         stroke-width="2"
         points="264.35,-52.5001 274.35,-49 264.35,-45.5001 264.35,-52.5001"
         id="polygon90" />
    </g>
    <!-- post.1&#45;&gt;close.1 -->
    <g
       id="edge4"
       class="edge">
      <title
         id="title93">post.1-&gt;close.1</title>
      <path
         fill="none"
         stroke="black"
         stroke-width="2"
         d="M329.899,-49C337.832,-49 346.697,-49 355.293,-49"
         id="path95" />
      <polygon
         fill="black"
         stroke="black"
         stroke-width="2"
         points="355.564,-52.5001 365.564,-49 355.564,-45.5001 355.564,-52.5001"
         id="polygon97" />
    </g>
    <!-- prep.1 -->
    <g
       id="node6"
       class="node">
      <title
         id="title100">prep.1</title>
      <g
         id="a_node6">
        <a
           xlink:href="prep.1"
           id="a103"
           xlink:title="prep\n1">
          <ellipse
             fill="floralwhite"
             stroke="black"
             stroke-width="2"
             cx="29"
             cy="-49"
             rx="28.9828"
             ry="26.7407"
             id="ellipse105"
             d="M 57.9828,-49 C 57.9828,-34.231519 45.006758,-22.2593 29,-22.2593 12.993242,-22.2593 0.01720047,-34.231519 0.01720047,-49 0.01720047,-63.768481 12.993242,-75.7407 29,-75.7407 c 16.006758,0 28.9828,11.972219 28.9828,26.7407 z" />
          <text
             text-anchor="middle"
             x="29"
             y="-52.8"
             font-family="Times,serif"
             font-size="14.00"
             id="text107">prep</text>
          <text
             text-anchor="middle"
             x="29"
             y="-37.8"
             font-family="Times,serif"
             font-size="14.00"
             id="text109">1</text>
        </a>
      </g>
    </g>
    <!-- prep.1&#45;&gt;init.1 -->
    <g
       id="edge5"
       class="edge">
      <title
         id="title112">prep.1-&gt;init.1</title>
      <path
         fill="none"
         stroke="black"
         stroke-width="2"
         d="M58.4766,-49C66.4427,-49 75.2111,-49 83.5699,-49"
         id="path114" />
      <polygon
         fill="black"
         stroke="black"
         stroke-width="2"
         points="83.8474,-52.5001 93.8474,-49 83.8473,-45.5001 83.8474,-52.5001"
         id="polygon116" />
    </g>
  </g>
</svg>
