<?xml version="1.0" encoding="UTF-8" standalone="no"?>
<!-- Generated by graphviz version 2.36.0 (20140111.2315)
 -->

<!-- Title: %3 Pages: 1 -->

<svg
   xmlns:dc="http://purl.org/dc/elements/1.1/"
   xmlns:cc="http://creativecommons.org/ns#"
   xmlns:rdf="http://www.w3.org/1999/02/22-rdf-syntax-ns#"
   xmlns:svg="http://www.w3.org/2000/svg"
   xmlns="http://www.w3.org/2000/svg"
   xmlns:xlink="http://www.w3.org/1999/xlink"
   xmlns:sodipodi="http://sodipodi.sourceforge.net/DTD/sodipodi-0.dtd"
   xmlns:inkscape="http://www.inkscape.org/namespaces/inkscape"
   width="475.61197"
   height="411.05521"
   viewBox="0 0 380.48958 328.84417"
   id="svg2"
   version="1.1"
   inkscape:version="0.48.4 r9939"
   sodipodi:docname="static5.svg"
   style="enable-background:new">
  <metadata
     id="metadata435">
    <rdf:RDF>
      <cc:Work
         rdf:about="">
        <dc:format>image/svg+xml</dc:format>
        <dc:type
           rdf:resource="http://purl.org/dc/dcmitype/StillImage" />
        <dc:title></dc:title>
      </cc:Work>
    </rdf:RDF>
  </metadata>
  <defs
     id="defs433" />
  <sodipodi:namedview
     pagecolor="#ffffff"
     bordercolor="#666666"
     borderopacity="1"
     objecttolerance="10"
     gridtolerance="10"
     guidetolerance="10"
     inkscape:pageopacity="0"
     inkscape:pageshadow="2"
     inkscape:window-width="1920"
     inkscape:window-height="1014"
     id="namedview431"
     showgrid="false"
     inkscape:zoom="0.75902212"
     inkscape:cx="-38.302916"
     inkscape:cy="101.22469"
     inkscape:window-x="0"
     inkscape:window-y="27"
     inkscape:window-maximized="1"
     inkscape:current-layer="svg2"
     fit-margin-top="0"
     fit-margin-left="0"
     fit-margin-right="0"
     fit-margin-bottom="0" />
  <g
     id="graph0"
     class="graph"
     transform="translate(25.079755,645.25643)">
    <title
       id="title5">%3</title>
    <!-- bar_c1.1 -->
    <!-- baz_c1.1 -->
    <!-- bar_c2.1 -->
    <!-- baz_c1.1&#45;&gt;bar_c2.1 -->
    <!-- qux_c1.1 -->
    <!-- baz_c1.1&#45;&gt;qux_c1.1 -->
    <!-- baz_c2.1 -->
    <!-- bar_c3.1 -->
    <!-- baz_c2.1&#45;&gt;bar_c3.1 -->
    <!-- qux_c2.1 -->
    <!-- baz_c2.1&#45;&gt;qux_c2.1 -->
    <!-- baz_c3.1 -->
    <!-- bar_c4.1 -->
    <!-- baz_c3.1&#45;&gt;bar_c4.1 -->
    <!-- qux_c3.1 -->
    <!-- baz_c3.1&#45;&gt;qux_c3.1 -->
    <!-- baz_c4.1 -->
    <!-- bar_c5.1 -->
    <!-- baz_c4.1&#45;&gt;bar_c5.1 -->
    <!-- qux_c4.1 -->
    <!-- baz_c4.1&#45;&gt;qux_c4.1 -->
    <!-- baz_c5.1 -->
    <!-- qux_c5.1 -->
    <!-- baz_c5.1&#45;&gt;qux_c5.1 -->
    <!-- foo_c1.1 -->
    <!-- foo_c1.1&#45;&gt;bar_c1.1 -->
    <!-- foo_c1.1&#45;&gt;baz_c1.1 -->
    <!-- foo_c2.1 -->
    <!-- foo_c1.1&#45;&gt;foo_c2.1 -->
    <!-- foo_c2.1&#45;&gt;bar_c2.1 -->
    <!-- foo_c2.1&#45;&gt;baz_c2.1 -->
    <!-- foo_c3.1 -->
    <!-- foo_c2.1&#45;&gt;foo_c3.1 -->
    <!-- foo_c3.1&#45;&gt;bar_c3.1 -->
    <!-- foo_c3.1&#45;&gt;baz_c3.1 -->
    <!-- foo_c4.1 -->
    <!-- foo_c3.1&#45;&gt;foo_c4.1 -->
    <!-- foo_c4.1&#45;&gt;bar_c4.1 -->
    <!-- foo_c4.1&#45;&gt;baz_c4.1 -->
    <!-- foo_c5.1 -->
    <!-- foo_c4.1&#45;&gt;foo_c5.1 -->
    <!-- foo_c5.1&#45;&gt;bar_c5.1 -->
    <!-- foo_c5.1&#45;&gt;baz_c5.1 -->
    <!-- prep.1 -->
    <!-- prep.1&#45;&gt;foo_c1.1 -->
    <g
       id="g3720">
      <g
         class="node"
         id="node1">
        <title
           id="title12">bar_c1.1</title>
        <g
           id="a_node1">
          <a
             xlink:href="presentations/LISBON/etc/gfx/bar_c1.1"
             id="a15"
             xlink:title="bar_c1\n1">
            <ellipse
               d="m 72,-599 c 0,19.88225 -16.117749,36 -36,36 -19.882251,0 -36,-16.11775 -36,-36 0,-19.88225 16.117749,-36 36,-36 19.882251,0 36,16.11775 36,36 z"
               id="ellipse17"
               ry="36"
               rx="36"
               cy="-599"
               cx="36"
               sodipodi:cx="36"
               sodipodi:cy="-599"
               sodipodi:rx="36"
               sodipodi:ry="36"
               style="fill:#fafada;stroke:#000000;stroke-width:2" />
            <text
               id="text19"
               font-size="14.00"
               y="-602.79999"
               x="36"
               style="font-size:14px;text-anchor:middle;font-family:'Times,serif'">bar_c1</text>
            <text
               id="text21"
               font-size="14.00"
               y="-587.79999"
               x="36"
               style="font-size:14px;text-anchor:middle;font-family:'Times,serif'">1</text>
          </a>
        </g>
      </g>
      <g
         class="node"
         id="node2">
        <title
           id="title24">baz_c1.1</title>
        <g
           id="a_node2">
          <a
             xlink:href="presentations/LISBON/etc/gfx/baz_c1.1"
             id="a27"
             xlink:title="baz_c1\n1">
            <ellipse
               d="m 162,-599 c 0,19.88225 -16.11775,36 -36,36 -19.88225,0 -36,-16.11775 -36,-36 0,-19.88225 16.11775,-36 36,-36 19.88225,0 36,16.11775 36,36 z"
               id="ellipse29"
               ry="36"
               rx="36"
               cy="-599"
               cx="126"
               sodipodi:cx="126"
               sodipodi:cy="-599"
               sodipodi:rx="36"
               sodipodi:ry="36"
               style="fill:#fafada;stroke:#000000;stroke-width:2" />
            <text
               id="text31"
               font-size="14.00"
               y="-602.79999"
               x="126"
               style="font-size:14px;text-anchor:middle;font-family:'Times,serif'">baz_c1</text>
            <text
               id="text33"
               font-size="14.00"
               y="-587.79999"
               x="126"
               style="font-size:14px;text-anchor:middle;font-family:'Times,serif'">1</text>
          </a>
        </g>
      </g>
      <g
         class="node"
         id="node3">
        <title
           id="title36">bar_c2.1</title>
        <g
           id="a_node3">
          <a
             xlink:href="presentations/LISBON/etc/gfx/bar_c2.1"
             id="a39"
             xlink:title="bar_c2\n1">
            <ellipse
               style="fill:#afeeee;stroke:#000000;stroke-width:2"
               d="m 162,-491 c 0,19.88225 -16.11775,36 -36,36 -19.88225,0 -36,-16.11775 -36,-36 0,-19.88225 16.11775,-36 36,-36 19.88225,0 36,16.11775 36,36 z"
               id="ellipse41"
               ry="36"
               rx="36"
               cy="-491"
               cx="126"
               sodipodi:cx="126"
               sodipodi:cy="-491"
               sodipodi:rx="36"
               sodipodi:ry="36" />
            <text
               id="text43"
               font-size="14.00"
               y="-494.79999"
               x="126"
               style="font-size:14px;text-anchor:middle;font-family:'Times,serif'">bar_c2</text>
            <text
               id="text45"
               font-size="14.00"
               y="-479.79999"
               x="126"
               style="font-size:14px;text-anchor:middle;font-family:'Times,serif'">1</text>
          </a>
        </g>
      </g>
      <g
         class="edge"
         id="edge1">
        <title
           id="title48">baz_c1.1-&gt;bar_c2.1</title>
        <path
           id="path50"
           d="m 126,-562.998 c 0,8.146 0,16.935 0,25.462"
           inkscape:connector-curvature="0"
           style="fill:none;stroke:#000000;stroke-width:2" />
        <polygon
           id="polygon52"
           points="129.5,-537.328 126,-527.328 122.5,-537.328 129.5,-537.328 "
           style="fill:#000000;stroke:#000000;stroke-width:2" />
      </g>
      <g
         class="node"
         id="node4">
        <title
           id="title55">qux_c1.1</title>
        <g
           id="a_node4">
          <a
             xlink:href="presentations/LISBON/etc/gfx/qux_c1.1"
             id="a58"
             xlink:title="qux_c1\n1">
            <ellipse
               d="m 72,-491 c 0,19.88225 -16.117749,36 -36,36 -19.882251,0 -36,-16.11775 -36,-36 0,-19.88225 16.117749,-36 36,-36 19.882251,0 36,16.11775 36,36 z"
               id="ellipse60"
               ry="36"
               rx="36"
               cy="-491"
               cx="36"
               sodipodi:cx="36"
               sodipodi:cy="-491"
               sodipodi:rx="36"
               sodipodi:ry="36"
               style="fill:#fafada;stroke:#000000;stroke-width:2" />
            <text
               id="text62"
               font-size="14.00"
               y="-494.79999"
               x="36"
               style="font-size:14px;text-anchor:middle;font-family:'Times,serif'">qux_c1</text>
            <text
               id="text64"
               font-size="14.00"
               y="-479.79999"
               x="36"
               style="font-size:14px;text-anchor:middle;font-family:'Times,serif'">1</text>
          </a>
        </g>
      </g>
      <g
         class="edge"
         id="edge2">
        <title
           id="title67">baz_c1.1-&gt;qux_c1.1</title>
        <path
           id="path69"
           d="m 103.056,-570.977 c -11.4246,13.456 -25.3696,29.88 -37.5777,44.258"
           inkscape:connector-curvature="0"
           style="fill:none;stroke:#000000;stroke-width:2" />
        <polygon
           id="polygon71"
           points="68.0422,-524.331 58.9018,-518.973 62.7061,-528.861 68.0422,-524.331 "
           style="fill:#000000;stroke:#000000;stroke-width:2" />
      </g>
      <g
         class="node"
         id="node5">
        <title
           id="title74">baz_c2.1</title>
        <a
           xlink:href="presentations/LISBON/etc/gfx/baz_c2.1"
           xlink:title="baz_c2\n1"
           id="a77">
          <ellipse
             cx="216"
             cy="-491"
             rx="36"
             ry="36"
             id="ellipse79"
             d="m 252,-491 c 0,19.88225 -16.11775,36 -36,36 -19.88225,0 -36,-16.11775 -36,-36 0,-19.88225 16.11775,-36 36,-36 19.88225,0 36,16.11775 36,36 z"
             sodipodi:cx="216"
             sodipodi:cy="-491"
             sodipodi:rx="36"
             sodipodi:ry="36"
             style="fill:#afeeee;stroke:#000000;stroke-width:2" />
          <text
             x="216"
             y="-494.79999"
             font-size="14.00"
             id="text81"
             style="font-size:14px;text-anchor:middle;font-family:'Times,serif'">baz_c2</text>
          <text
             x="216"
             y="-479.79999"
             font-size="14.00"
             id="text83"
             style="font-size:14px;text-anchor:middle;font-family:'Times,serif'">1</text>
        </a>
      </g>
      <g
         class="node"
         id="node6">
        <title
           id="title86">bar_c3.1</title>
        <g
           id="a_node6">
          <a
             xlink:href="presentations/LISBON/etc/gfx/bar_c3.1"
             id="a89"
             xlink:title="bar_c3\n1">
            <ellipse
               d="m 252,-383 c 0,19.88225 -16.11775,36 -36,36 -19.88225,0 -36,-16.11775 -36,-36 0,-19.88225 16.11775,-36 36,-36 19.88225,0 36,16.11775 36,36 z"
               id="ellipse91"
               ry="36"
               rx="36"
               cy="-383"
               cx="216"
               sodipodi:cx="216"
               sodipodi:cy="-383"
               sodipodi:rx="36"
               sodipodi:ry="36"
               style="fill:#fafada;stroke:#000000;stroke-width:2" />
            <text
               id="text93"
               font-size="14.00"
               y="-386.79999"
               x="216"
               style="font-size:14px;text-anchor:middle;font-family:'Times,serif'">bar_c3</text>
            <text
               id="text95"
               font-size="14.00"
               y="-371.79999"
               x="216"
               style="font-size:14px;text-anchor:middle;font-family:'Times,serif'">1</text>
          </a>
        </g>
      </g>
      <g
         class="edge"
         id="edge3">
        <title
           id="title98">baz_c2.1-&gt;bar_c3.1</title>
        <path
           id="path100"
           d="m 216,-454.998 c 0,8.146 0,16.935 0,25.462"
           inkscape:connector-curvature="0"
           style="fill:none;stroke:#000000;stroke-width:2" />
        <polygon
           id="polygon102"
           points="219.5,-429.328 216,-419.328 212.5,-429.328 219.5,-429.328 "
           style="fill:#000000;stroke:#000000;stroke-width:2" />
      </g>
      <g
         class="node"
         id="node7">
        <title
           id="title105">qux_c2.1</title>
        <g
           id="a_node7">
          <a
             xlink:href="presentations/LISBON/etc/gfx/qux_c2.1"
             id="a108"
             xlink:title="qux_c2\n1">
            <ellipse
               style="fill:#afeeee;stroke:#000000;stroke-width:2"
               d="m 162,-383 c 0,19.88225 -16.11775,36 -36,36 -19.88225,0 -36,-16.11775 -36,-36 0,-19.88225 16.11775,-36 36,-36 19.88225,0 36,16.11775 36,36 z"
               id="ellipse110"
               ry="36"
               rx="36"
               cy="-383"
               cx="126"
               sodipodi:cx="126"
               sodipodi:cy="-383"
               sodipodi:rx="36"
               sodipodi:ry="36" />
            <text
               id="text112"
               font-size="14.00"
               y="-386.79999"
               x="126"
               style="font-size:14px;text-anchor:middle;font-family:'Times,serif'">qux_c2</text>
            <text
               id="text114"
               font-size="14.00"
               y="-371.79999"
               x="126"
               style="font-size:14px;text-anchor:middle;font-family:'Times,serif'">1</text>
          </a>
        </g>
      </g>
      <g
         class="edge"
         id="edge4">
        <title
           id="title117">baz_c2.1-&gt;qux_c2.1</title>
        <path
           id="path119"
           d="m 193.056,-462.977 c -11.425,13.456 -25.37,29.88 -37.578,44.258"
           inkscape:connector-curvature="0"
           style="fill:none;stroke:#000000;stroke-width:2" />
        <polygon
           id="polygon121"
           points="158.042,-416.331 148.902,-410.973 152.706,-420.861 158.042,-416.331 "
           style="fill:#000000;stroke:#000000;stroke-width:2" />
      </g>
      <g
         class="node"
         id="node8">
        <title
           id="title124">baz_c3.1</title>
        <g
           id="a_node8">
          <a
             xlink:href="presentations/LISBON/etc/gfx/baz_c3.1"
             id="a127"
             xlink:title="baz_c3\n1">
            <ellipse
               d="m 342,-383 c 0,19.88225 -16.11775,36 -36,36 -19.88225,0 -36,-16.11775 -36,-36 0,-19.88225 16.11775,-36 36,-36 19.88225,0 36,16.11775 36,36 z"
               id="ellipse129"
               ry="36"
               rx="36"
               cy="-383"
               cx="306"
               sodipodi:cx="306"
               sodipodi:cy="-383"
               sodipodi:rx="36"
               sodipodi:ry="36"
               style="fill:#fafada;stroke:#000000;stroke-width:2" />
            <text
               id="text131"
               font-size="14.00"
               y="-386.79999"
               x="306"
               style="font-size:14px;text-anchor:middle;font-family:'Times,serif'">baz_c3</text>
            <text
               id="text133"
               font-size="14.00"
               y="-371.79999"
               x="306"
               style="font-size:14px;text-anchor:middle;font-family:'Times,serif'">1</text>
          </a>
        </g>
      </g>
      <g
         class="node"
         id="node9">
        <title
           id="title136">bar_c4.1</title>
        <g
           id="a_node9">
          <a
             xlink:href="presentations/LISBON/etc/gfx/bar_c4.1"
             id="a139"
             xlink:title="bar_c4\n1">
            <ellipse
               d="m 342,-275 c 0,19.88225 -16.11775,36 -36,36 -19.88225,0 -36,-16.11775 -36,-36 0,-19.88225 16.11775,-36 36,-36 19.88225,0 36,16.11775 36,36 z"
               id="ellipse141"
               ry="36"
               rx="36"
               cy="-275"
               cx="306"
               sodipodi:cx="306"
               sodipodi:cy="-275"
               sodipodi:rx="36"
               sodipodi:ry="36"
               style="fill:#fafada;stroke:#000000;stroke-width:2" />
            <text
               id="text143"
               font-size="14.00"
               y="-278.79999"
               x="306"
               style="font-size:14px;text-anchor:middle;font-family:'Times,serif'">bar_c4</text>
            <text
               id="text145"
               font-size="14.00"
               y="-263.79999"
               x="306"
               style="font-size:14px;text-anchor:middle;font-family:'Times,serif'">1</text>
          </a>
        </g>
      </g>
      <g
         class="edge"
         id="edge5">
        <title
           id="title148">baz_c3.1-&gt;bar_c4.1</title>
        <path
           id="path150"
           d="m 306,-346.998 c 0,8.146 0,16.935 0,25.462"
           inkscape:connector-curvature="0"
           style="fill:none;stroke:#000000;stroke-width:2" />
        <polygon
           id="polygon152"
           points="309.5,-321.328 306,-311.328 302.5,-321.328 309.5,-321.328 "
           style="fill:#000000;stroke:#000000;stroke-width:2" />
      </g>
      <g
         class="node"
         id="node10">
        <title
           id="title155">qux_c3.1</title>
        <g
           id="a_node10">
          <a
             xlink:href="presentations/LISBON/etc/gfx/qux_c3.1"
             id="a158"
             xlink:title="qux_c3\n1">
            <ellipse
               d="m 252,-275 c 0,19.88225 -16.11775,36 -36,36 -19.88225,0 -36,-16.11775 -36,-36 0,-19.88225 16.11775,-36 36,-36 19.88225,0 36,16.11775 36,36 z"
               id="ellipse160"
               ry="36"
               rx="36"
               cy="-275"
               cx="216"
               sodipodi:cx="216"
               sodipodi:cy="-275"
               sodipodi:rx="36"
               sodipodi:ry="36"
               style="fill:#fafada;stroke:#000000;stroke-width:2" />
            <text
               id="text162"
               font-size="14.00"
               y="-278.79999"
               x="216"
               style="font-size:14px;text-anchor:middle;font-family:'Times,serif'">qux_c3</text>
            <text
               id="text164"
               font-size="14.00"
               y="-263.79999"
               x="216"
               style="font-size:14px;text-anchor:middle;font-family:'Times,serif'">1</text>
          </a>
        </g>
      </g>
      <g
         class="edge"
         id="edge6">
        <title
           id="title167">baz_c3.1-&gt;qux_c3.1</title>
        <path
           id="path169"
           d="m 283.056,-354.977 c -11.425,13.456 -25.37,29.88 -37.578,44.258"
           inkscape:connector-curvature="0"
           style="fill:none;stroke:#000000;stroke-width:2" />
        <polygon
           id="polygon171"
           points="248.042,-308.331 238.902,-302.973 242.706,-312.861 248.042,-308.331 "
           style="fill:#000000;stroke:#000000;stroke-width:2" />
      </g>
      <g
         class="node"
         id="node11">
        <title
           id="title174">baz_c4.1</title>
        <g
           id="a_node11">
          <a
             xlink:href="presentations/LISBON/etc/gfx/baz_c4.1"
             id="a177"
             xlink:title="baz_c4\n1">
            <ellipse
               d="m 432,-275 c 0,19.88225 -16.11775,36 -36,36 -19.88225,0 -36,-16.11775 -36,-36 0,-19.88225 16.11775,-36 36,-36 19.88225,0 36,16.11775 36,36 z"
               id="ellipse179"
               ry="36"
               rx="36"
               cy="-275"
               cx="396"
               sodipodi:cx="396"
               sodipodi:cy="-275"
               sodipodi:rx="36"
               sodipodi:ry="36"
               style="fill:#fafada;stroke:#000000;stroke-width:2" />
            <text
               id="text181"
               font-size="14.00"
               y="-278.79999"
               x="396"
               style="font-size:14px;text-anchor:middle;font-family:'Times,serif'">baz_c4</text>
            <text
               id="text183"
               font-size="14.00"
               y="-263.79999"
               x="396"
               style="font-size:14px;text-anchor:middle;font-family:'Times,serif'">1</text>
          </a>
        </g>
      </g>
      <g
         class="node"
         id="node12">
        <title
           id="title186">bar_c5.1</title>
        <g
           id="a_node12">
          <a
             xlink:href="presentations/LISBON/etc/gfx/bar_c5.1"
             id="a189"
             xlink:title="bar_c5\n1">
            <ellipse
               d="m 477,-167 c 0,19.88225 -16.11775,36 -36,36 -19.88225,0 -36,-16.11775 -36,-36 0,-19.88225 16.11775,-36 36,-36 19.88225,0 36,16.11775 36,36 z"
               id="ellipse191"
               ry="36"
               rx="36"
               cy="-167"
               cx="441"
               sodipodi:cx="441"
               sodipodi:cy="-167"
               sodipodi:rx="36"
               sodipodi:ry="36"
               style="fill:#fafada;stroke:#000000;stroke-width:2" />
            <text
               id="text193"
               font-size="14.00"
               y="-170.8"
               x="441"
               style="font-size:14px;text-anchor:middle;font-family:'Times,serif'">bar_c5</text>
            <text
               id="text195"
               font-size="14.00"
               y="-155.8"
               x="441"
               style="font-size:14px;text-anchor:middle;font-family:'Times,serif'">1</text>
          </a>
        </g>
      </g>
      <g
         class="edge"
         id="edge7">
        <title
           id="title198">baz_c4.1-&gt;bar_c5.1</title>
        <path
           id="path200"
           d="m 409.746,-241.621 c 4.235,9.976 8.96,21.106 13.428,31.63"
           inkscape:connector-curvature="0"
           style="fill:none;stroke:#000000;stroke-width:2" />
        <polygon
           id="polygon202"
           points="426.497,-211.119 427.183,-200.546 420.054,-208.384 426.497,-211.119 "
           style="fill:#000000;stroke:#000000;stroke-width:2" />
      </g>
      <g
         class="node"
         id="node13">
        <title
           id="title205">qux_c4.1</title>
        <g
           id="a_node13">
          <a
             xlink:href="presentations/LISBON/etc/gfx/qux_c4.1"
             id="a208"
             xlink:title="qux_c4\n1">
            <ellipse
               d="m 387,-167 c 0,19.88225 -16.11775,36 -36,36 -19.88225,0 -36,-16.11775 -36,-36 0,-19.88225 16.11775,-36 36,-36 19.88225,0 36,16.11775 36,36 z"
               id="ellipse210"
               ry="36"
               rx="36"
               cy="-167"
               cx="351"
               sodipodi:cx="351"
               sodipodi:cy="-167"
               sodipodi:rx="36"
               sodipodi:ry="36"
               style="fill:#fafada;stroke:#000000;stroke-width:2" />
            <text
               id="text212"
               font-size="14.00"
               y="-170.8"
               x="351"
               style="font-size:14px;text-anchor:middle;font-family:'Times,serif'">qux_c4</text>
            <text
               id="text214"
               font-size="14.00"
               y="-155.8"
               x="351"
               style="font-size:14px;text-anchor:middle;font-family:'Times,serif'">1</text>
          </a>
        </g>
      </g>
      <g
         class="edge"
         id="edge8">
        <title
           id="title217">baz_c4.1-&gt;qux_c4.1</title>
        <path
           id="path219"
           d="m 382.254,-241.621 c -4.235,9.976 -8.96,21.106 -13.428,31.63"
           inkscape:connector-curvature="0"
           style="fill:none;stroke:#000000;stroke-width:2" />
        <polygon
           id="polygon221"
           points="371.946,-208.384 364.817,-200.546 365.503,-211.119 371.946,-208.384 "
           style="fill:#000000;stroke:#000000;stroke-width:2" />
      </g>
      <g
         class="node"
         id="node14">
        <title
           id="title224">baz_c5.1</title>
        <g
           id="a_node14">
          <a
             xlink:href="presentations/LISBON/etc/gfx/baz_c5.1"
             id="a227"
             xlink:title="baz_c5\n1">
            <ellipse
               d="m 567,-167 c 0,19.88225 -16.11775,36 -36,36 -19.88225,0 -36,-16.11775 -36,-36 0,-19.88225 16.11775,-36 36,-36 19.88225,0 36,16.11775 36,36 z"
               id="ellipse229"
               ry="36"
               rx="36"
               cy="-167"
               cx="531"
               sodipodi:cx="531"
               sodipodi:cy="-167"
               sodipodi:rx="36"
               sodipodi:ry="36"
               style="fill:#fafada;stroke:#000000;stroke-width:2" />
            <text
               id="text231"
               font-size="14.00"
               y="-170.8"
               x="531"
               style="font-size:14px;text-anchor:middle;font-family:'Times,serif'">baz_c5</text>
            <text
               id="text233"
               font-size="14.00"
               y="-155.8"
               x="531"
               style="font-size:14px;text-anchor:middle;font-family:'Times,serif'">1</text>
          </a>
        </g>
      </g>
      <g
         class="node"
         id="node15">
        <title
           id="title236">qux_c5.1</title>
        <g
           id="a_node15">
          <a
             xlink:href="presentations/LISBON/etc/gfx/qux_c5.1"
             id="a239"
             xlink:title="qux_c5\n1">
            <ellipse
               d="m 567,-59 c 0,19.882251 -16.11775,36 -36,36 -19.88225,0 -36,-16.117749 -36,-36 0,-19.882251 16.11775,-36 36,-36 19.88225,0 36,16.117749 36,36 z"
               id="ellipse241"
               ry="36"
               rx="36"
               cy="-59"
               cx="531"
               sodipodi:cx="531"
               sodipodi:cy="-59"
               sodipodi:rx="36"
               sodipodi:ry="36"
               style="fill:#fafada;stroke:#000000;stroke-width:2" />
            <text
               id="text243"
               font-size="14.00"
               y="-62.799999"
               x="531"
               style="font-size:14px;text-anchor:middle;font-family:'Times,serif'">qux_c5</text>
            <text
               id="text245"
               font-size="14.00"
               y="-47.799999"
               x="531"
               style="font-size:14px;text-anchor:middle;font-family:'Times,serif'">1</text>
          </a>
        </g>
      </g>
      <g
         class="edge"
         id="edge9">
        <title
           id="title248">baz_c5.1-&gt;qux_c5.1</title>
        <path
           id="path250"
           d="m 531,-130.998 c 0,8.146 0,16.935 0,25.462"
           inkscape:connector-curvature="0"
           style="fill:none;stroke:#000000;stroke-width:2" />
        <polygon
           id="polygon252"
           points="534.5,-105.328 531,-95.3275 527.5,-105.328 534.5,-105.328 "
           style="fill:#000000;stroke:#000000;stroke-width:2" />
      </g>
      <g
         class="node"
         id="node16">
        <title
           id="title255">foo_c1.1</title>
        <g
           id="a_node16">
          <a
             xlink:href="presentations/LISBON/etc/gfx/foo_c1.1"
             id="a258"
             xlink:title="foo_c1\n1">
            <ellipse
               d="m 162,-707 c 0,19.88225 -16.11775,36 -36,36 -19.88225,0 -36,-16.11775 -36,-36 0,-19.88225 16.11775,-36 36,-36 19.88225,0 36,16.11775 36,36 z"
               id="ellipse260"
               ry="36"
               rx="36"
               cy="-707"
               cx="126"
               sodipodi:cx="126"
               sodipodi:cy="-707"
               sodipodi:rx="36"
               sodipodi:ry="36"
               style="fill:#fafada;stroke:#000000;stroke-width:2" />
            <text
               id="text262"
               font-size="14.00"
               y="-710.79999"
               x="126"
               style="font-size:14px;text-anchor:middle;font-family:'Times,serif'">foo_c1</text>
            <text
               id="text264"
               font-size="14.00"
               y="-695.79999"
               x="126"
               style="font-size:14px;text-anchor:middle;font-family:'Times,serif'">1</text>
          </a>
        </g>
      </g>
      <g
         class="edge"
         id="edge10">
        <title
           id="title267">foo_c1.1-&gt;bar_c1.1</title>
        <path
           id="path269"
           d="m 103.056,-678.977 c -11.4246,13.456 -25.3696,29.88 -37.5777,44.258"
           inkscape:connector-curvature="0"
           style="fill:none;stroke:#000000;stroke-width:2" />
        <polygon
           id="polygon271"
           points="68.0422,-632.331 58.9018,-626.973 62.7061,-636.861 68.0422,-632.331 "
           style="fill:#000000;stroke:#000000;stroke-width:2" />
      </g>
      <g
         class="edge"
         id="edge11">
        <title
           id="title274">foo_c1.1-&gt;baz_c1.1</title>
        <path
           id="path276"
           d="m 126,-670.998 c 0,8.146 0,16.935 0,25.462"
           inkscape:connector-curvature="0"
           style="fill:none;stroke:#000000;stroke-width:2" />
        <polygon
           id="polygon278"
           points="129.5,-645.328 126,-635.328 122.5,-645.328 129.5,-645.328 "
           style="fill:#000000;stroke:#000000;stroke-width:2" />
      </g>
      <g
         class="node"
         id="node17">
        <title
           id="title281">foo_c2.1</title>
        <g
           id="a_node17">
          <a
             xlink:href="presentations/LISBON/etc/gfx/foo_c2.1"
             id="a284"
             xlink:title="foo_c2\n1">
            <ellipse
               style="fill:#afeeee;stroke:#000000;stroke-width:2"
               d="m 252,-599 c 0,19.88225 -16.11775,36 -36,36 -19.88225,0 -36,-16.11775 -36,-36 0,-19.88225 16.11775,-36 36,-36 19.88225,0 36,16.11775 36,36 z"
               id="ellipse286"
               ry="36"
               rx="36"
               cy="-599"
               cx="216"
               sodipodi:cx="216"
               sodipodi:cy="-599"
               sodipodi:rx="36"
               sodipodi:ry="36" />
            <text
               id="text288"
               font-size="14.00"
               y="-602.79999"
               x="216"
               style="font-size:14px;text-anchor:middle;font-family:'Times,serif'">foo_c2</text>
            <text
               id="text290"
               font-size="14.00"
               y="-587.79999"
               x="216"
               style="font-size:14px;text-anchor:middle;font-family:'Times,serif'">1</text>
          </a>
        </g>
      </g>
      <g
         class="edge"
         id="edge12">
        <title
           id="title293">foo_c1.1-&gt;foo_c2.1</title>
        <path
           id="path295"
           d="m 148.944,-678.977 c 11.425,13.456 25.37,29.88 37.578,44.258"
           inkscape:connector-curvature="0"
           style="fill:none;stroke:#000000;stroke-width:2" />
        <polygon
           id="polygon297"
           points="189.294,-636.861 193.098,-626.973 183.958,-632.331 189.294,-636.861 "
           style="fill:#000000;stroke:#000000;stroke-width:2" />
      </g>
      <g
         class="edge"
         id="edge13">
        <title
           id="title300">foo_c2.1-&gt;bar_c2.1</title>
        <path
           id="path302"
           d="m 193.056,-570.977 c -11.425,13.456 -25.37,29.88 -37.578,44.258"
           inkscape:connector-curvature="0"
           style="fill:none;stroke:#000000;stroke-width:2" />
        <polygon
           id="polygon304"
           points="158.042,-524.331 148.902,-518.973 152.706,-528.861 158.042,-524.331 "
           style="fill:#000000;stroke:#000000;stroke-width:2" />
      </g>
      <g
         class="edge"
         id="edge14">
        <title
           id="title307">foo_c2.1-&gt;baz_c2.1</title>
        <path
           id="path309"
           d="m 216,-562.998 c 0,8.146 0,16.935 0,25.462"
           inkscape:connector-curvature="0"
           style="fill:none;stroke:#000000;stroke-width:2" />
        <polygon
           id="polygon311"
           points="219.5,-537.328 216,-527.328 212.5,-537.328 219.5,-537.328 "
           style="fill:#000000;stroke:#000000;stroke-width:2" />
      </g>
      <g
         class="node"
         id="node18">
        <title
           id="title314">foo_c3.1</title>
        <g
           id="a_node18">
          <a
             xlink:href="presentations/LISBON/etc/gfx/foo_c3.1"
             id="a317"
             xlink:title="foo_c3\n1">
            <ellipse
               d="m 342,-491 c 0,19.88225 -16.11775,36 -36,36 -19.88225,0 -36,-16.11775 -36,-36 0,-19.88225 16.11775,-36 36,-36 19.88225,0 36,16.11775 36,36 z"
               id="ellipse319"
               ry="36"
               rx="36"
               cy="-491"
               cx="306"
               sodipodi:cx="306"
               sodipodi:cy="-491"
               sodipodi:rx="36"
               sodipodi:ry="36"
               style="fill:#fafada;stroke:#000000;stroke-width:2" />
            <text
               id="text321"
               font-size="14.00"
               y="-494.79999"
               x="306"
               style="font-size:14px;text-anchor:middle;font-family:'Times,serif'">foo_c3</text>
            <text
               id="text323"
               font-size="14.00"
               y="-479.79999"
               x="306"
               style="font-size:14px;text-anchor:middle;font-family:'Times,serif'">1</text>
          </a>
        </g>
      </g>
      <g
         class="edge"
         id="edge15">
        <title
           id="title326">foo_c2.1-&gt;foo_c3.1</title>
        <path
           id="path328"
           d="m 238.944,-570.977 c 11.425,13.456 25.37,29.88 37.578,44.258"
           inkscape:connector-curvature="0"
           style="fill:none;stroke:#000000;stroke-width:2" />
        <polygon
           id="polygon330"
           points="279.294,-528.861 283.098,-518.973 273.958,-524.331 279.294,-528.861 "
           style="fill:#000000;stroke:#000000;stroke-width:2" />
      </g>
      <g
         class="edge"
         id="edge16">
        <title
           id="title333">foo_c3.1-&gt;bar_c3.1</title>
        <path
           id="path335"
           d="m 283.056,-462.977 c -11.425,13.456 -25.37,29.88 -37.578,44.258"
           inkscape:connector-curvature="0"
           style="fill:none;stroke:#000000;stroke-width:2" />
        <polygon
           id="polygon337"
           points="248.042,-416.331 238.902,-410.973 242.706,-420.861 248.042,-416.331 "
           style="fill:#000000;stroke:#000000;stroke-width:2" />
      </g>
      <g
         class="edge"
         id="edge17">
        <title
           id="title340">foo_c3.1-&gt;baz_c3.1</title>
        <path
           id="path342"
           d="m 306,-454.998 c 0,8.146 0,16.935 0,25.462"
           inkscape:connector-curvature="0"
           style="fill:none;stroke:#000000;stroke-width:2" />
        <polygon
           id="polygon344"
           points="309.5,-429.328 306,-419.328 302.5,-429.328 309.5,-429.328 "
           style="fill:#000000;stroke:#000000;stroke-width:2" />
      </g>
      <g
         class="node"
         id="node19">
        <title
           id="title347">foo_c4.1</title>
        <g
           id="a_node19">
          <a
             xlink:href="presentations/LISBON/etc/gfx/foo_c4.1"
             id="a350"
             xlink:title="foo_c4\n1">
            <ellipse
               d="m 432,-383 c 0,19.88225 -16.11775,36 -36,36 -19.88225,0 -36,-16.11775 -36,-36 0,-19.88225 16.11775,-36 36,-36 19.88225,0 36,16.11775 36,36 z"
               id="ellipse352"
               ry="36"
               rx="36"
               cy="-383"
               cx="396"
               sodipodi:cx="396"
               sodipodi:cy="-383"
               sodipodi:rx="36"
               sodipodi:ry="36"
               style="fill:#fafada;stroke:#000000;stroke-width:2" />
            <text
               id="text354"
               font-size="14.00"
               y="-386.79999"
               x="396"
               style="font-size:14px;text-anchor:middle;font-family:'Times,serif'">foo_c4</text>
            <text
               id="text356"
               font-size="14.00"
               y="-371.79999"
               x="396"
               style="font-size:14px;text-anchor:middle;font-family:'Times,serif'">1</text>
          </a>
        </g>
      </g>
      <g
         class="edge"
         id="edge18">
        <title
           id="title359">foo_c3.1-&gt;foo_c4.1</title>
        <path
           id="path361"
           d="m 328.944,-462.977 c 11.425,13.456 25.37,29.88 37.578,44.258"
           inkscape:connector-curvature="0"
           style="fill:none;stroke:#000000;stroke-width:2" />
        <polygon
           id="polygon363"
           points="369.294,-420.861 373.098,-410.973 363.958,-416.331 369.294,-420.861 "
           style="fill:#000000;stroke:#000000;stroke-width:2" />
      </g>
      <g
         class="edge"
         id="edge19">
        <title
           id="title366">foo_c4.1-&gt;bar_c4.1</title>
        <path
           id="path368"
           d="m 373.056,-354.977 c -11.425,13.456 -25.37,29.88 -37.578,44.258"
           inkscape:connector-curvature="0"
           style="fill:none;stroke:#000000;stroke-width:2" />
        <polygon
           id="polygon370"
           points="338.042,-308.331 328.902,-302.973 332.706,-312.861 338.042,-308.331 "
           style="fill:#000000;stroke:#000000;stroke-width:2" />
      </g>
      <g
         class="edge"
         id="edge20">
        <title
           id="title373">foo_c4.1-&gt;baz_c4.1</title>
        <path
           id="path375"
           d="m 396,-346.998 c 0,8.146 0,16.935 0,25.462"
           inkscape:connector-curvature="0"
           style="fill:none;stroke:#000000;stroke-width:2" />
        <polygon
           id="polygon377"
           points="399.5,-321.328 396,-311.328 392.5,-321.328 399.5,-321.328 "
           style="fill:#000000;stroke:#000000;stroke-width:2" />
      </g>
      <g
         class="node"
         id="node20">
        <title
           id="title380">foo_c5.1</title>
        <g
           id="a_node20">
          <a
             xlink:href="presentations/LISBON/etc/gfx/foo_c5.1"
             id="a383"
             xlink:title="foo_c5\n1">
            <ellipse
               d="m 522,-275 c 0,19.88225 -16.11775,36 -36,36 -19.88225,0 -36,-16.11775 -36,-36 0,-19.88225 16.11775,-36 36,-36 19.88225,0 36,16.11775 36,36 z"
               id="ellipse385"
               ry="36"
               rx="36"
               cy="-275"
               cx="486"
               sodipodi:cx="486"
               sodipodi:cy="-275"
               sodipodi:rx="36"
               sodipodi:ry="36"
               style="fill:#fafada;stroke:#000000;stroke-width:2" />
            <text
               id="text387"
               font-size="14.00"
               y="-278.79999"
               x="486"
               style="font-size:14px;text-anchor:middle;font-family:'Times,serif'">foo_c5</text>
            <text
               id="text389"
               font-size="14.00"
               y="-263.79999"
               x="486"
               style="font-size:14px;text-anchor:middle;font-family:'Times,serif'">1</text>
          </a>
        </g>
      </g>
      <g
         class="edge"
         id="edge21">
        <title
           id="title392">foo_c4.1-&gt;foo_c5.1</title>
        <path
           id="path394"
           d="m 418.944,-354.977 c 11.425,13.456 25.37,29.88 37.578,44.258"
           inkscape:connector-curvature="0"
           style="fill:none;stroke:#000000;stroke-width:2" />
        <polygon
           id="polygon396"
           points="459.294,-312.861 463.098,-302.973 453.958,-308.331 459.294,-312.861 "
           style="fill:#000000;stroke:#000000;stroke-width:2" />
      </g>
      <g
         class="edge"
         id="edge22">
        <title
           id="title399">foo_c5.1-&gt;bar_c5.1</title>
        <path
           id="path401"
           d="m 472.254,-241.621 c -4.235,9.976 -8.96,21.106 -13.428,31.63"
           inkscape:connector-curvature="0"
           style="fill:none;stroke:#000000;stroke-width:2" />
        <polygon
           id="polygon403"
           points="461.946,-208.384 454.817,-200.546 455.503,-211.119 461.946,-208.384 "
           style="fill:#000000;stroke:#000000;stroke-width:2" />
      </g>
      <g
         class="edge"
         id="edge23">
        <title
           id="title406">foo_c5.1-&gt;baz_c5.1</title>
        <path
           id="path408"
           d="m 499.746,-241.621 c 4.235,9.976 8.96,21.106 13.428,31.63"
           inkscape:connector-curvature="0"
           style="fill:none;stroke:#000000;stroke-width:2" />
        <polygon
           id="polygon410"
           points="516.497,-211.119 517.183,-200.546 510.054,-208.384 516.497,-211.119 "
           style="fill:#000000;stroke:#000000;stroke-width:2" />
      </g>
      <g
         class="node"
         id="node21">
        <title
           id="title413">prep.1</title>
        <g
           id="a_node21">
          <a
             xlink:href="presentations/LISBON/etc/gfx/prep.1"
             id="a416"
             xlink:title="prep\n1">
            <ellipse
               d="m 162,-815 c 0,19.88225 -16.11775,36 -36,36 -19.88225,0 -36,-16.11775 -36,-36 0,-19.88225 16.11775,-36 36,-36 19.88225,0 36,16.11775 36,36 z"
               id="ellipse418"
               ry="36"
               rx="36"
               cy="-815"
               cx="126"
               sodipodi:cx="126"
               sodipodi:cy="-815"
               sodipodi:rx="36"
               sodipodi:ry="36"
               style="fill:#fafada;stroke:#000000;stroke-width:2" />
            <text
               id="text420"
               font-size="14.00"
               y="-818.79999"
               x="126"
               style="font-size:14px;text-anchor:middle;font-family:'Times,serif'">prep</text>
            <text
               id="text422"
               font-size="14.00"
               y="-803.79999"
               x="126"
               style="font-size:14px;text-anchor:middle;font-family:'Times,serif'">1</text>
          </a>
        </g>
      </g>
      <g
         class="edge"
         id="edge24">
        <title
           id="title425">prep.1-&gt;foo_c1.1</title>
        <path
           id="path427"
           d="m 126,-778.998 c 0,8.146 0,16.935 0,25.462"
           inkscape:connector-curvature="0"
           style="fill:none;stroke:#000000;stroke-width:2" />
        <polygon
           id="polygon429"
           points="129.5,-753.328 126,-743.328 122.5,-753.328 129.5,-753.328 "
           style="fill:#000000;stroke:#000000;stroke-width:2" />
      </g>
    </g>
  </g>
</svg>
