<?xml version="1.0" encoding="UTF-8" standalone="no"?>
<!-- Generated by graphviz version 2.36.0 (20140111.2315)
 -->

<!-- Title: %3 Pages: 1 -->

<svg
   xmlns:dc="http://purl.org/dc/elements/1.1/"
   xmlns:cc="http://creativecommons.org/ns#"
   xmlns:rdf="http://www.w3.org/1999/02/22-rdf-syntax-ns#"
   xmlns:svg="http://www.w3.org/2000/svg"
   xmlns="http://www.w3.org/2000/svg"
   xmlns:xlink="http://www.w3.org/1999/xlink"
   xmlns:sodipodi="http://sodipodi.sourceforge.net/DTD/sodipodi-0.dtd"
   xmlns:inkscape="http://www.inkscape.org/namespaces/inkscape"
   width="170pt"
   height="319pt"
   viewBox="0.00 0.00 170.00 319.00"
   id="svg2"
   version="1.1"
   inkscape:version="0.48.4 r9939"
   sodipodi:docname="stat1.svg">
  <metadata
     id="metadata84">
    <rdf:RDF>
      <cc:Work
         rdf:about="">
        <dc:format>image/svg+xml</dc:format>
        <dc:type
           rdf:resource="http://purl.org/dc/dcmitype/StillImage" />
      </cc:Work>
    </rdf:RDF>
  </metadata>
  <defs
     id="defs82" />
  <sodipodi:namedview
     pagecolor="#ffffff"
     bordercolor="#666666"
     borderopacity="1"
     objecttolerance="10"
     gridtolerance="10"
     guidetolerance="10"
     inkscape:pageopacity="0"
     inkscape:pageshadow="2"
     inkscape:window-width="640"
     inkscape:window-height="480"
     id="namedview80"
     showgrid="false"
     inkscape:zoom="0.59184953"
     inkscape:cx="106.25"
     inkscape:cy="199.375"
     inkscape:window-x="0"
     inkscape:window-y="27"
     inkscape:window-maximized="0"
     inkscape:current-layer="graph0" />
  <g
     id="graph0"
     class="graph"
     transform="scale(1 1) rotate(0) translate(4 315)">
    <title
       id="title5">%3</title>
    <polygon
       fill="white"
       stroke="none"
       points="-4,4 -4,-315 166,-315 166,4 -4,4"
       id="polygon7" />
    <!-- bar_c1.1 -->
    <g
       id="node1"
       class="node">
      <title
         id="title12">bar_c1.1</title>
      <g
         id="a_node1">
        <a
           xlink:href="bar_c1.1"
           id="a15"
           xlink:title="bar_c1\n1">
          <ellipse
             fill="#fafada"
             stroke="black"
             stroke-width="2"
             cx="36"
             cy="-167"
             rx="36"
             ry="36"
             id="ellipse17"
             d="m 72,-167 c 0,19.88225 -16.117749,36 -36,36 -19.882251,0 -36,-16.11775 -36,-36 0,-19.88225 16.117749,-36 36,-36 19.882251,0 36,16.11775 36,36 z" />
          <text
             text-anchor="middle"
             x="36"
             y="-170.8"
             font-family="Times,serif"
             font-size="14.00"
             id="text19">bar_c1</text>
          <text
             text-anchor="middle"
             x="36"
             y="-155.8"
             font-family="Times,serif"
             font-size="14.00"
             id="text21">1</text>
        </a>
      </g>
    </g>
    <!-- baz_c1.1 -->
    <g
       id="node2"
       class="node">
      <title
         id="title24">baz_c1.1</title>
      <g
         id="a_node2">
        <a
           xlink:href="baz_c1.1"
           id="a27"
           xlink:title="baz_c1\n1">
          <ellipse
             fill="#fafada"
             stroke="black"
             stroke-width="2"
             cx="126"
             cy="-167"
             rx="36"
             ry="36"
             id="ellipse29"
             d="m 162,-167 c 0,19.88225 -16.11775,36 -36,36 -19.88225,0 -36,-16.11775 -36,-36 0,-19.88225 16.11775,-36 36,-36 19.88225,0 36,16.11775 36,36 z" />
          <text
             text-anchor="middle"
             x="126"
             y="-170.8"
             font-family="Times,serif"
             font-size="14.00"
             id="text31">baz_c1</text>
          <text
             text-anchor="middle"
             x="126"
             y="-155.8"
             font-family="Times,serif"
             font-size="14.00"
             id="text33">1</text>
        </a>
      </g>
    </g>
    <!-- qux_c1.1 -->
    <g
       id="node3"
       class="node">
      <title
         id="title36">qux_c1.1</title>
      <g
         id="a_node3">
        <a
           xlink:href="qux_c1.1"
           id="a39"
           xlink:title="qux_c1\n1">
          <ellipse
             fill="#fafada"
             stroke="black"
             stroke-width="2"
             cx="126"
             cy="-59"
             rx="36"
             ry="36"
             id="ellipse41"
             d="m 162,-59 c 0,19.882251 -16.11775,36 -36,36 -19.88225,0 -36,-16.117749 -36,-36 0,-19.882251 16.11775,-36 36,-36 19.88225,0 36,16.117749 36,36 z" />
          <text
             text-anchor="middle"
             x="126"
             y="-62.8"
             font-family="Times,serif"
             font-size="14.00"
             id="text43">qux_c1</text>
          <text
             text-anchor="middle"
             x="126"
             y="-47.8"
             font-family="Times,serif"
             font-size="14.00"
             id="text45">1</text>
        </a>
      </g>
    </g>
    <!-- baz_c1.1&#45;&gt;qux_c1.1 -->
    <g
       id="edge1"
       class="edge">
      <title
         id="title48">baz_c1.1-&gt;qux_c1.1</title>
      <path
         fill="none"
         stroke="black"
         stroke-width="2"
         d="M126,-130.998C126,-122.852 126,-114.063 126,-105.536"
         id="path50" />
      <polygon
         fill="black"
         stroke="black"
         stroke-width="2"
         points="129.5,-105.328 126,-95.3275 122.5,-105.328 129.5,-105.328"
         id="polygon52" />
    </g>
    <!-- foo_c1.1 -->
    <g
       id="node4"
       class="node">
      <title
         id="title55">foo_c1.1</title>
      <g
         id="a_node4">
        <a
           xlink:href="foo_c1.1"
           id="a58"
           xlink:title="foo_c1\n1">
          <ellipse
             fill="#fafada"
             stroke="black"
             stroke-width="2"
             cx="81"
             cy="-275"
             rx="36"
             ry="36"
             id="ellipse60"
             d="m 117,-275 c 0,19.88225 -16.11775,36 -36,36 -19.882251,0 -36,-16.11775 -36,-36 0,-19.88225 16.117749,-36 36,-36 19.88225,0 36,16.11775 36,36 z" />
          <text
             text-anchor="middle"
             x="81"
             y="-278.8"
             font-family="Times,serif"
             font-size="14.00"
             id="text62">foo_c1</text>
          <text
             text-anchor="middle"
             x="81"
             y="-263.8"
             font-family="Times,serif"
             font-size="14.00"
             id="text64">1</text>
        </a>
      </g>
    </g>
    <!-- foo_c1.1&#45;&gt;bar_c1.1 -->
    <g
       id="edge2"
       class="edge">
      <title
         id="title67">foo_c1.1-&gt;bar_c1.1</title>
      <path
         fill="none"
         stroke="black"
         stroke-width="2"
         d="M67.254,-241.621C63.0191,-231.645 58.2941,-220.515 53.8262,-209.991"
         id="path69" />
      <polygon
         fill="black"
         stroke="black"
         stroke-width="2"
         points="56.9464,-208.384 49.8169,-200.546 50.503,-211.119 56.9464,-208.384"
         id="polygon71" />
    </g>
    <!-- foo_c1.1&#45;&gt;baz_c1.1 -->
    <g
       id="edge3"
       class="edge">
      <title
         id="title74">foo_c1.1-&gt;baz_c1.1</title>
      <path
         fill="none"
         stroke="black"
         stroke-width="2"
         d="M94.746,-241.621C98.9809,-231.645 103.706,-220.515 108.174,-209.991"
         id="path76" />
      <polygon
         fill="black"
         stroke="black"
         stroke-width="2"
         points="111.497,-211.119 112.183,-200.546 105.054,-208.384 111.497,-211.119"
         id="polygon78" />
    </g>
  </g>
</svg>
