/* XPM */
static char *foo[] = {
/* columns rows colors chars-per-pixel */
"10 10 81 1",
"  c #008000150031",
". c #00A8001D0035",
"X c #017F005B009D",
"o c #01AA007D00BE",
"O c #0367012B01B3",
"+ c #05C6022E0309",
"@ c #06E402B903BF",
"# c #080A01DF033B",
"$ c #0916021D03A6",
"% c #1327049D07B8",
"& c #136E055B08AE",
"* c #13BE047907D7",
"= c #14A006040978",
"- c #15F7060E09D0",
"; c #175106CD0AB4",
": c #21DD068F0BA3",
"> c #2516077A0DA6",
", c #28330D9F13F4",
"< c #29BF0DB214B9",
"1 c #2D5B0C701423",
"2 c #2DB10C871449",
"3 c #2F880CFD157A",
"4 c #2D720F66168E",
"5 c #2F320F7C176E",
"6 c #312C09640F9B",
"7 c #33F50A451272",
"8 c #34B70A401224",
"9 c #2FE20D1515A3",
"0 c #3B4F0AEF110F",
"q c #3E000BED143E",
"w c #3F9717DF21D8",
"e c #4C1D12A41FB1",
"r c #4E6C138C2199",
"t c #3FEA17CD223E",
"y c #47E41AFC2643",
"u c #48421AE926B6",
"i c #4D061D5D2A17",
"p c #4DAD1D872AB7",
"a c #56C01B182A07",
"s c #57641B4B2A57",
"d c #587C1C5C2C0B",
"f c #59231C912C5E",
"g c #65BF15DF248F",
"h c #6675161A24F6",
"j c #656C17412840",
"k c #668A17612864",
"l c #735E173924E9",
"z c #729F181228F7",
"x c #571421322F96",
"c c #57D12161304A",
"v c #7CF820003782",
"b c #75BE28B03D82",
"n c #74CC28D23E09",
"m c #75A9291F3E7E",
"M c #769D28FD3DF6",
"N c #B3961ABD2C64",
"B c #B7891EA42D6C",
"V c #A1701BC43433",
"C c #A6D91F733505",
"Z c #A7A81F9734F6",
"A c #806B1FF4367B",
"S c #EA2E22363DF7",
"D c #8F0B3AB64BEC",
"F c #8F933B1E4CD8",
"G c #90193B254C7C",
"H c #90A23B8E4D6A",
"J c #B880380B6558",
"K c #BD5A38E06502",
"L c #ECD324E252DE",
"P c #E7D530145C9A",
"I c #E7B530DE5E70",
"U c #E92035C96D55",
"Y c #E924360C6E8E",
"T c #EC1136257860",
"R c #EC6940F887FD",
"E c #EE44530E9578",
"W c #EE3454E297A5",
"Q c #E6707C6093B7",
"! c #E6427B6E951D",
"~ c #EF3E6114A1C4",
"^ c #EF2661BEA29C",
/* pixels */
"$;5ucxy4-$",
"*3dnFDba1%",
">rvJ!QKAe:",
"8kVU~EPZh6",
"qzNLRTSBl0",
"7jVY^WICg6",
">rvJ!QKAe:",
"*9fmHGMs2%",
"#=<tpiw,&#",
".oO+@@+OX "
};
