/* XPM */
static char * led_limited_glow_xpm[] = {
"10 10 9 1",
" 	c None",
".	c #F8EBF9",
"+	c #D691D7",
"@	c #B449B5",
"#	c #AB35A9",
"$	c #A830A7",
"%	c #9E209A",
"&	c #9F219A",
"*	c #A931A7",
"..........",
"..+@##@+..",
".+$%%%%$+.",
".@%&&&&%@.",
".#%&&&&%#.",
".#%&&&&%#.",
".@%&&&&%@.",
".+$%%%%$+.",
"..+@**@+..",
".........."};
