/* XPM */
static char * led_retry_glow_xpm[] = {
"10 10 10 1",
" 	c None",
".	c #FEFBFB",
"+	c #FBC8C8",
"@	c #F79696",
"#	c #F57A7A",
"$	c #F46B6B",
"%	c #F25555",
"&	c #F25757",
"*	c #F35C5C",
"=	c #F57676",
"..........",
"..+@##@+..",
".+$%&&%$+.",
".@%****%@.",
".#&****&#.",
".#&****&#.",
".@%****%@.",
".+$%&&%$+.",
"..+@==@+..",
".........."};
