/* XPM */
static char *foo[] = {
/* columns rows colors chars-per-pixel */
"10 10 92 1",
"  c black",
". c #00FF00D7002C",
"X c #03000217002A",
"o c #036F02880048",
"O c #04C1041500EB",
"+ c #06C005B5012D",
"@ c #080105FC00ED",
"# c #092B06F10104",
"$ c #0B9308CC0140",
"% c #0E190ACA01B0",
"& c #10710CA501FA",
"* c #113A0DBB033C",
"= c #12DD0F3703D4",
"- c #142F0FA602CC",
"; c #15231059035D",
": c #170111A40323",
"> c #17EF126403A0",
", c #1BC215790452",
"< c #1E2716EE049F",
"1 c #1E6917A60555",
"2 c #23451B18061F",
"3 c #22521B8F0772",
"4 c #241B1BB10629",
"5 c #25811C2B063B",
"6 c #256F1E1D0811",
"7 c #2A6120D207C7",
"8 c #2CE822220808",
"9 c #2C9B236E08E0",
"0 c #2F4823850894",
"q c #30DE24BC08A7",
"w c #3201261D0910",
"e c #30F0272A0A1E",
"r c #381F2AA80A7D",
"t c #389F2B630A5E",
"y c #3C2B2D540ACA",
"u c #394D2EFB0CED",
"i c #3E6A30F20C70",
"p c #3CEE323F0D83",
"a c #427232330BF2",
"s c #46CC35990CC0",
"d c #448535E90DDB",
"f c #46E238D40F7C",
"g c #51983D610EA6",
"h c #53733E750F02",
"j c #4BC43CFF1067",
"k c #53DE40CB102C",
"l c #5BDB46F711B1",
"z c #5E86471D113C",
"x c #58FE482E136C",
"c c #5AD24A3813C7",
"v c #5D794A2313DC",
"b c #620648A511FE",
"n c #65914B691231",
"m c #67B84EF8135C",
"M c #63B150481586",
"N c #6EB1534C1512",
"B c #71BF569114D2",
"V c #7227569E1559",
"C c #72A9599515E2",
"Z c #768D58B81565",
"A c #70685A1B1880",
"S c #73E05DD01965",
"D c #79AB618417DF",
"F c #83EE6348170B",
"G c #8F056F5F14DB",
"H c #85466263179A",
"J c #95166D2D1CC0",
"K c #9A757B71167C",
"L c #95F2704619DE",
"P c #9D9172EC1E03",
"I c #897B710F27D8",
"U c #8F79774C2ADC",
"Y c #A7AD7D062054",
"T c #B5CA8D1E136F",
"R c #AF3F81F920AF",
"E c #C4C49AD7130E",
"W c #D71BA3791805",
"Q c #E400ADA417B4",
"! c #FB9BBCF5150C",
"~ c #F821B1541ECD",
"^ c #FAF7BCB41976",
"/ c #DCDF9F422059",
"( c #DE059C562761",
") c #E873A62A2060",
"_ c #FA13B91E2921",
"` c #E915AA3B3A05",
"' c #FFB7D90025A1",
"] c #FF9BDAF929A9",
"[ c #BA12A3D640CB",
"{ c #C1C4AC064720",
"} c #EC28D46740A6",
"| c #F09CD86F4425",
/* pixels */
"#>ejcxf9;@",
"-wlDUICk7&",
"4gFE|}TZs<",
"rNY)!^/Jb0",
"yVR`_~(Pnq",
"8zLQ']WHh5",
",aBK{[Gmt:",
"%2dMSAvi1$",
"o#=6pu3*@X",
"   .+O.   "
};
