/* XPM */
static char * led_failed_glow_xpm[] = {
"10 10 9 1",
" 	c None",
".	c #FFFFFF",
"+	c #FFDFDF",
"@	c #FFAFAF",
"#	c #FF9090",
"$	c #FF7F7F",
"%	c #FF3030",
"&	c #FF1010",
"*	c #FF0000",
"..........",
"..+@##@+..",
".+$%&&%$+.",
".@%****%@.",
".#&****&#.",
".#&****&#.",
".@%****%@.",
".+$%&&%$+.",
"..+@##@+..",
".........."};
