/* XPM */
static char * led_finished_xpm[] = {
"10 10 27 1",
" 	c None",
".	c #2A2A2A",
"+	c #2C2C2C",
"@	c #323232",
"#	c #2D2D2D",
"$	c #4B4B4B",
"%	c #707070",
"&	c #3E3E3E",
"*	c #676767",
"=	c #767676",
"-	c #717171",
";	c #636363",
">	c #3B3B3B",
",	c #464646",
"'	c #626262",
")	c #696969",
"!	c #656565",
"~	c #5F5F5F",
"{	c #424242",
"]	c #6D6D6D",
"^	c #363636",
"/	c #5E5E5E",
"(	c #7E7E7E",
"_	c #797979",
":	c #5B5B5B",
"<	c #333333",
"[	c #494949",
"..........",
"...+@@+...",
"..#$%%$#..",
"..&*=-;>..",
"..,')!~{..",
"..,'])~{..",
"..^/(_:^..",
"...<[,<...",
"..........",
".........."};
