/* XPM */
static char *foo[] = {
/* columns rows colors chars-per-pixel */
"10 10 93 2",
"   c #0001002A0070",
".  c #001B007600E1",
"X  c #001B009D0116",
"o  c #0058015C023F",
"O  c #007001B802D4",
"+  c #00EE02C90467",
"@  c #010E032E051F",
"#  c #006F02F805BD",
"$  c #009803690679",
"%  c #01B504770724",
"&  c #011804D808A5",
"*  c #01C304F607FC",
"=  c #024905E70979",
"-  c #014C05E20A48",
";  c #025705F809CC",
":  c #01D907920D25",
">  c #032A088B0DFE",
",  c #021208C10EB1",
"<  c #033C093E0F29",
"1  c #0231096E0FF6",
"2  c #029A0A4110F9",
"3  c #02C40AF31247",
"4  c #035F0D71160B",
"5  c #03E60DE816B4",
"6  c #03D40EF61819",
"7  c #049510731A7C",
"8  c #04DE12181CCC",
"9  c #04E813251E16",
"0  c #061113F41FC6",
"q  c #063B154B222B",
"w  c #06F9159822B1",
"e  c #05E216AE2351",
"r  c #066116E523CD",
"t  c #06791895265A",
"y  c #07211973287F",
"u  c #078B1B6A2AAA",
"i  c #085C1CC92D52",
"p  c #08221E6E2F54",
"a  c #09461DA22EC1",
"s  c #0B331FF732AC",
"d  c #0A66204032F5",
"f  c #097D21FF3579",
"g  c #0BB52195361B",
"h  c #0A4A24AF38DF",
"j  c #0BD32A5C41BC",
"k  c #0C142BF7434D",
"l  c #0D1B2B7D4447",
"z  c #0F872A6C4413",
"x  c #0EF72B9A44E5",
"c  c #0E7A2F5E4A6E",
"v  c #0F902A3A4494",
"b  c #0FF72D82492A",
"n  c #0D8E31BE4B8B",
"m  c #0DE631A94C40",
"M  c #0E51353950BC",
"N  c #0F7D376454F0",
"B  c #127F337750CC",
"V  c #1314344D5357",
"C  c #0FB5361C53EC",
"Z  c #10763B105ADA",
"A  c #10D73AA85BEC",
"S  c #11C03A6E5D68",
"D  c #11663EC35FE1",
"F  c #133A3C2B6315",
"G  c #1252445B6AD1",
"H  c #130C47606C01",
"J  c #0FFD457A7515",
"K  c #1C89486372FC",
"L  c #10BE47C57EB2",
"P  c #14534E6E79CF",
"I  c #1E8D4B077892",
"U  c #159B502B77DE",
"Y  c #17F656297EDB",
"T  c #175457E5867E",
"R  c #19C55DE48D40",
"E  c #0CB854F89663",
"W  c #0BED57D6A256",
"Q  c #247F5CDFA6A1",
"!  c #0C7C686CB550",
"~  c #0C576C37BF34",
"^  c #172B7EF6BDD4",
"/  c #28276115AEA5",
"(  c #11777801C0F5",
")  c #1B5467C6D7CA",
"_  c #1E0D69DBDBCA",
"`  c #088C77FCDD3F",
"'  c #0AF66AFBE2E7",
"]  c #09986D09E725",
"[  c #04507986E1EE",
"{  c #15A78005CC76",
"}  c #072E84EADC79",
"|  c #0FBA87AADF04",
" . c #1FC48C7CCFD2",
/* pixels */
". o @ * ; = % + o . ",
"- 7 d b V B x a 5 & ",
"4 f A L / Q J C i 3 ",
"r m P ~ ' ] ! H k 9 ",
"p Z R  .| } ^ Y M t ",
"u N T { ` [ ( U n e ",
"8 j G W _ ) E D h 6 ",
"1 y c F I K S l q : ",
"$ 2 w g v z s 0 , # ",
"  X O @ > < @ O X   "
};
