/* XPM */
static char * led_running_glow_xpm[] = {
"50 20 620 2",
"  	c None",
". 	c #060A00",
"+ 	c #070D00",
"@ 	c #0A1100",
"# 	c #0C1500",
"$ 	c #111A00",
"% 	c #171F00",
"& 	c #1D2500",
"* 	c #222B00",
"= 	c #263200",
"- 	c #2C3900",
"; 	c #344100",
"> 	c #3C4800",
", 	c #414E00",
"' 	c #445300",
") 	c #485800",
"! 	c #4E5F00",
"~ 	c #546500",
"{ 	c #586A00",
"] 	c #5C6E00",
"^ 	c #5F7100",
"/ 	c #607300",
"( 	c #617300",
"_ 	c #5F7200",
": 	c #5E7100",
"< 	c #5E7000",
"[ 	c #5C6F00",
"} 	c #586B00",
"| 	c #526500",
"1 	c #4C5F00",
"2 	c #485900",
"3 	c #435200",
"4 	c #3D4B00",
"5 	c #354400",
"6 	c #2F3E00",
"7 	c #2B3800",
"8 	c #202B00",
"9 	c #192300",
"0 	c #141D00",
"a 	c #121900",
"b 	c #101600",
"c 	c #0C1100",
"d 	c #070B00",
"e 	c #050700",
"f 	c #050600",
"g 	c #060700",
"h 	c #0D1500",
"i 	c #162000",
"j 	c #1C2700",
"k 	c #243000",
"l 	c #2C3A00",
"m 	c #344200",
"n 	c #3B4900",
"o 	c #425100",
"p 	c #4A5A00",
"q 	c #526300",
"r 	c #596B00",
"s 	c #607200",
"t 	c #667A00",
"u 	c #6D8401",
"v 	c #738C02",
"w 	c #789202",
"x 	c #7C9502",
"y 	c #7E9602",
"z 	c #7D9402",
"A 	c #7A9202",
"B 	c #799202",
"C 	c #789302",
"D 	c #799402",
"E 	c #799403",
"F 	c #779102",
"G 	c #738D02",
"H 	c #6E8601",
"I 	c #677E01",
"J 	c #5F7501",
"K 	c #576C01",
"L 	c #4F6201",
"M 	c #465900",
"N 	c #3D5201",
"O 	c #344B01",
"P 	c #2C4100",
"Q 	c #263600",
"R 	c #212C00",
"S 	c #1B2300",
"T 	c #161C00",
"U 	c #111800",
"V 	c #091200",
"W 	c #060B00",
"X 	c #050500",
"Y 	c #040300",
"Z 	c #040400",
"` 	c #101800",
" .	c #182000",
"..	c #1E2700",
"+.	c #232E00",
"@.	c #283600",
"#.	c #2E4000",
"$.	c #354B00",
"%.	c #3E5601",
"&.	c #486101",
"*.	c #526C02",
"=.	c #5B7602",
"-.	c #648002",
";.	c #6F8A03",
">.	c #7A9403",
",.	c #7F9A03",
"'.	c #7B9702",
").	c #769402",
"!.	c #779402",
"~.	c #7C9703",
"{.	c #839C03",
"].	c #8FA503",
"^.	c #9BAE03",
"/.	c #9FB304",
"(.	c #9FB605",
"_.	c #99B306",
":.	c #8AA705",
"<.	c #7A9B04",
"[.	c #779803",
"}.	c #7B9A03",
"|.	c #7D9A03",
"1.	c #779703",
"2.	c #708E03",
"3.	c #668101",
"4.	c #5B7501",
"5.	c #4F6B01",
"6.	c #436101",
"7.	c #3B5701",
"8.	c #364C00",
"9.	c #304100",
"0.	c #293800",
"a.	c #222F00",
"b.	c #1B2700",
"c.	c #141E00",
"d.	c #0F1800",
"e.	c #0D1200",
"f.	c #0B0F00",
"g.	c #0B0D00",
"h.	c #0B0E00",
"i.	c #161E00",
"j.	c #1E2900",
"k.	c #253200",
"l.	c #2B3C00",
"m.	c #324600",
"n.	c #3D5200",
"o.	c #495E01",
"p.	c #526B01",
"q.	c #5A7802",
"r.	c #628503",
"s.	c #6D9103",
"t.	c #769A04",
"u.	c #7A9F04",
"v.	c #7BA003",
"w.	c #80A303",
"x.	c #8BA804",
"y.	c #98AF04",
"z.	c #A7B903",
"A.	c #B9C602",
"B.	c #C9D101",
"C.	c #D6DC01",
"D.	c #E0E401",
"E.	c #E5E901",
"F.	c #E5E902",
"G.	c #DDE403",
"H.	c #CAD604",
"I.	c #B3C505",
"J.	c #A0BA06",
"K.	c #8EB106",
"L.	c #82AA06",
"M.	c #7FA405",
"N.	c #7FA004",
"O.	c #7C9B03",
"P.	c #709002",
"Q.	c #668502",
"R.	c #5C7902",
"S.	c #516D01",
"T.	c #466100",
"U.	c #3D5500",
"V.	c #354A00",
"W.	c #2D3F01",
"X.	c #233500",
"Y.	c #192A00",
"Z.	c #122200",
"`.	c #111C00",
" +	c #131800",
".+	c #131700",
"++	c #1C2800",
"@+	c #223100",
"#+	c #364900",
"$+	c #415700",
"%+	c #4B6301",
"&+	c #567002",
"*+	c #607D03",
"=+	c #6B8C03",
"-+	c #729504",
";+	c #759704",
">+	c #779A04",
",+	c #7CA407",
"'+	c #81B30A",
")+	c #8EC30C",
"!+	c #A8D30C",
"~+	c #C3E30B",
"{+	c #DBEF09",
"]+	c #F1F806",
"^+	c #FFFE03",
"/+	c #FFFF02",
"(+	c #FFFE02",
"_+	c #FEFD02",
":+	c #FCFC02",
"<+	c #F8F904",
"[+	c #F0F707",
"}+	c #E4F30A",
"|+	c #D1EC0C",
"1+	c #B7E10E",
"2+	c #A0D30E",
"3+	c #89BE0B",
"4+	c #77AB07",
"5+	c #73A105",
"6+	c #789D04",
"7+	c #799903",
"8+	c #739403",
"9+	c #6A8E03",
"0+	c #5F8202",
"a+	c #527302",
"b+	c #476501",
"c+	c #3C5801",
"d+	c #334C01",
"e+	c #2A4100",
"f+	c #233600",
"g+	c #1D2C00",
"h+	c #152400",
"i+	c #0F1D00",
"j+	c #0D1B00",
"k+	c #0E1C00",
"l+	c #213100",
"m+	c #2A3C01",
"n+	c #344800",
"o+	c #3F5400",
"p+	c #4A6100",
"q+	c #547001",
"r+	c #5E7E02",
"s+	c #678903",
"t+	c #709204",
"u+	c #739A05",
"v+	c #6EA007",
"w+	c #6BA909",
"x+	c #76BC0D",
"y+	c #8AD612",
"z+	c #9CE715",
"A+	c #A9EB15",
"B+	c #B5EB15",
"C+	c #C3ED14",
"D+	c #D2EE13",
"E+	c #DCEF11",
"F+	c #DEF00E",
"G+	c #DDF00B",
"H+	c #DBEF0A",
"I+	c #D7EE0B",
"J+	c #D3ED0C",
"K+	c #D2ED0E",
"L+	c #CEED0F",
"M+	c #C5ED10",
"N+	c #B8ED12",
"O+	c #A8E812",
"P+	c #94DF11",
"Q+	c #81D210",
"R+	c #76BD0C",
"S+	c #70A406",
"T+	c #6E9603",
"U+	c #719904",
"V+	c #749D05",
"W+	c #6C9404",
"X+	c #5E8403",
"Y+	c #517402",
"Z+	c #476701",
"`+	c #3E5900",
" @	c #344C00",
".@	c #2B4000",
"+@	c #223500",
"@@	c #112200",
"#@	c #0E1F00",
"$@	c #0F2000",
"%@	c #102000",
"&@	c #2B3B00",
"*@	c #354800",
"=@	c #3F5501",
"-@	c #496302",
";@	c #547002",
">@	c #607E04",
",@	c #6A8A05",
"'@	c #6B8C05",
")@	c #678804",
"!@	c #6C8C05",
"~@	c #809D07",
"{@	c #94AF0A",
"]@	c #97BC0C",
"^@	c #91C60E",
"/@	c #8ECE10",
"(@	c #8ED513",
"_@	c #92DA15",
":@	c #99DF17",
"<@	c #A5E317",
"[@	c #ACE517",
"}@	c #B0E715",
"|@	c #B2E812",
"1@	c #B3E811",
"2@	c #B3E810",
"3@	c #B6E810",
"4@	c #B7E711",
"5@	c #B0E511",
"6@	c #A3E212",
"7@	c #9AE012",
"8@	c #97E313",
"9@	c #94E214",
"0@	c #88D010",
"a@	c #78B30A",
"b@	c #70A107",
"c@	c #76A306",
"d@	c #7DA706",
"e@	c #7AA205",
"f@	c #709804",
"g@	c #658C03",
"h@	c #5A7D02",
"i@	c #4E6D02",
"j@	c #436001",
"k@	c #385601",
"l@	c #2E4900",
"m@	c #253700",
"n@	c #1E2800",
"o@	c #1C2300",
"p@	c #1D2600",
"q@	c #3A4E00",
"r@	c #445B01",
"s@	c #4E6902",
"t@	c #597604",
"u@	c #668504",
"v@	c #6F9005",
"w@	c #6D9005",
"x@	c #648804",
"y@	c #6A8905",
"z@	c #8A9706",
"A@	c #A7A809",
"B@	c #A5B10A",
"C@	c #90B70C",
"D@	c #80BE0E",
"E@	c #7AC710",
"F@	c #78CF11",
"G@	c #7BD510",
"H@	c #84D90F",
"I@	c #8CDC0F",
"J@	c #94E011",
"K@	c #9CE413",
"L@	c #A1E513",
"M@	c #A5E511",
"N@	c #A6E511",
"O@	c #A3E411",
"P@	c #9FE212",
"Q@	c #9BE012",
"R@	c #97DD12",
"S@	c #95DB13",
"T@	c #97DB13",
"U@	c #97D812",
"V@	c #8DCB0F",
"W@	c #7CB60C",
"X@	c #74A909",
"Y@	c #79A908",
"Z@	c #80AC07",
"`@	c #7EA806",
" #	c #79A105",
".#	c #719704",
"+#	c #648903",
"@#	c #567903",
"##	c #4A6B02",
"$#	c #3F5E01",
"%#	c #365000",
"&#	c #2C3F00",
"*#	c #253000",
"=#	c #232D00",
"-#	c #242E00",
";#	c #2C3C00",
">#	c #3F5801",
",#	c #4C6501",
"'#	c #587302",
")#	c #638303",
"!#	c #6C9005",
"~#	c #6C9105",
"{#	c #668904",
"]#	c #678D05",
"^#	c #75A409",
"/#	c #83BD0D",
"(#	c #88C70E",
"_#	c #87C90F",
":#	c #88CE11",
"<#	c #8ED613",
"[#	c #96DE17",
"}#	c #A0E31D",
"|#	c #ADE624",
"1#	c #B4E825",
"2#	c #B2E81D",
"3#	c #AEE713",
"4#	c #ADE710",
"5#	c #ACE610",
"6#	c #AEE611",
"7#	c #B6E811",
"8#	c #BBE911",
"9#	c #B3E611",
"0#	c #A2E112",
"a#	c #97DC12",
"b#	c #98D812",
"c#	c #8DCC0F",
"d#	c #7BBA0C",
"e#	c #73AE09",
"f#	c #79AC08",
"g#	c #7CA506",
"h#	c #729A04",
"i#	c #678E03",
"j#	c #5E8003",
"k#	c #537202",
"l#	c #476402",
"m#	c #3A5601",
"n#	c #2F4800",
"o#	c #273800",
"p#	c #212A00",
"q#	c #1F2600",
"r#	c #1F2700",
"s#	c #202800",
"t#	c #273700",
"u#	c #304500",
"v#	c #3A5200",
"w#	c #475F00",
"x#	c #536D01",
"y#	c #5E7D03",
"z#	c #668A04",
"A#	c #6A8C05",
"B#	c #698904",
"C#	c #6A9005",
"D#	c #6EA809",
"E#	c #73C30D",
"F#	c #7DD00F",
"G#	c #89D610",
"H#	c #95DC12",
"I#	c #A1E216",
"J#	c #ADE71A",
"K#	c #BBEB22",
"L#	c #CAEE2A",
"M#	c #D1EF2B",
"N#	c #CBEE1F",
"O#	c #C2EB12",
"P#	c #BDEA0E",
"Q#	c #B9E90F",
"R#	c #BBE910",
"S#	c #C7EC10",
"T#	c #D0EE11",
"U#	c #C5EB11",
"V#	c #ADE511",
"W#	c #9CE112",
"X#	c #88D110",
"Y#	c #77B60A",
"Z#	c #6FA507",
"`#	c #76A506",
" $	c #7DA806",
".$	c #77A005",
"+$	c #699204",
"@$	c #5D8403",
"#$	c #557502",
"$$	c #4C6601",
"%$	c #415A01",
"&$	c #334F01",
"*$	c #284200",
"=$	c #203100",
"-$	c #191E00",
";$	c #192000",
">$	c #1A2100",
",$	c #2A3D01",
"'$	c #688903",
")$	c #749A05",
"!$	c #709F07",
"~$	c #6EA609",
"{$	c #79BA0D",
"]$	c #8BD412",
"^$	c #9BE614",
"/$	c #A7EA15",
"($	c #B2EA14",
"_$	c #C0EC13",
":$	c #CEED11",
"<$	c #D8EE0F",
"[$	c #DBEF0D",
"}$	c #DBEF0B",
"|$	c #DAEF0B",
"1$	c #D6EE0B",
"2$	c #D0ED0E",
"3$	c #CBEC0F",
"4$	c #C3EC10",
"5$	c #B6EC12",
"6$	c #6D9504",
"7$	c #5F8503",
"8$	c #527502",
"9$	c #486701",
"0$	c #3E5A01",
"a$	c #354D00",
"b$	c #192B00",
"c$	c #0F1F00",
"d$	c #102100",
"e$	c #6E8A03",
"f$	c #90A503",
"g$	c #A0B304",
"h$	c #A0B605",
"i$	c #9AB406",
"j$	c #8AA805",
"k$	c #7B9B04",
"l$	c #789803",
"m$	c #6F8E03",
"n$	c #526200",
"o$	c #687C00",
"p$	c #6F8601",
"q$	c #768F02",
"r$	c #7A9402",
"s$	c #7D9502",
"t$	c #7A9302",
"u$	c #779002",
"v$	c #758F02",
"w$	c #748E02",
"x$	c #738E02",
"y$	c #748F02",
"z$	c #748F03",
"A$	c #728B02",
"B$	c #677F01",
"C$	c #5F7601",
"D$	c #576D01",
"E$	c #080E00",
"F$	c #0A1200",
"G$	c #0D1700",
"H$	c #121C00",
"I$	c #182100",
"J$	c #242D00",
"K$	c #283400",
"L$	c #2E3C00",
"M$	c #374400",
"N$	c #3F4C00",
"O$	c #455200",
"P$	c #475600",
"Q$	c #4B5B00",
"R$	c #516200",
"S$	c #576900",
"T$	c #5B6E01",
"U$	c #5F7301",
"V$	c #617601",
"W$	c #627701",
"X$	c #5F7401",
"Y$	c #5C7101",
"Z$	c #5A6E01",
"`$	c #596D01",
" %	c #5A6D01",
".%	c #5A6E00",
"+%	c #596C00",
"@%	c #546600",
"#%	c #4E5E00",
"$%	c #455500",
"%%	c #3A4A00",
"&%	c #314100",
"*%	c #222D00",
"=%	c #1B2500",
"-%	c #151E00",
";%	c #131B00",
">%	c #080B00",
",%	c #020300",
"'%	c #030500",
")%	c #040700",
"!%	c #060900",
"~%	c #090E00",
"{%	c #101500",
"]%	c #131900",
"^%	c #171C00",
"/%	c #1B2100",
"(%	c #252D00",
"_%	c #2E3700",
":%	c #364100",
"<%	c #3C4900",
"[%	c #404E00",
"}%	c #455400",
"|%	c #465500",
"1%	c #384500",
"2%	c #303B00",
"3%	c #252F00",
"4%	c #192100",
"5%	c #111700",
"6%	c #0E1300",
"7%	c #0D1100",
"8%	c #080C00",
"9%	c #050800",
"0%	c #030400",
"a%	c #020100",
"b%	c #020200",
"c%	c #030300",
"d%	c #000000",
"e%	c #080900",
"f%	c #111400",
"g%	c #191F00",
"h%	c #242B00",
"i%	c #272F00",
"j%	c #2A3300",
"k%	c #2B3500",
"l%	c #2A3400",
"m%	c #293200",
"n%	c #283000",
"o%	c #273000",
"p%	c #232B00",
"q%	c #1D2300",
"r%	c #111500",
"s%	c #010100",
"t%	c #070900",
"u%	c #0A0C00",
"v%	c #0D0F00",
"w%	c #0F1300",
"x%	c #101300",
"y%	c #0E1000",
"z%	c #0C0E00",
"A%	c #090B00",
"B%	c #040500",
"C%	c #010200",
". + @ # $ % & * = - ; > , ' ) ! ~ { ] ^ / ( / _ : < [ } | 1 2 3 4 5 6 7 = 8 9 0 a b c d e f e g g g ",
"@ h $ i j k l m n o p q r s t u v w x y z A B w C D E F G H I J K L M N O P Q R S T U # V W X Y Z Z ",
"`  ...+.@.#.$.%.&.*.=.-.;.>.,.'.).!.~.{.].^./.(._.:.<.[.}.|.}.1.2.3.4.5.6.7.8.9.0.a.b.c.d.e.f.g.h.h.",
"i.j.k.l.m.n.o.p.q.r.s.t.u.v.w.x.y.z.A.B.C.D.E.F.G.H.I.J.K.L.M.N.O.1.P.Q.R.S.T.U.V.W.X.Y.Z.`. +.+.+ +",
"++@+l.#+$+%+&+*+=+-+;+>+,+'+)+!+~+{+]+^+/+(+_+:+<+[+}+|+1+2+3+4+5+6+7+8+9+0+a+b+c+d+e+f+g+h+i+j+j+k+",
"l+m+n+o+p+q+r+s+t+u+v+w+x+y+z+A+B+C+D+E+F+G+H+I+J+K+L+M+N+O+P+Q+R+S+T+U+V+W+X+Y+Z+`+ @.@+@Y.@@#@$@%@",
"&@*@=@-@;@>@,@'@)@!@~@{@]@^@/@(@_@:@<@[@}@|@1@2@2@3@4@5@6@7@8@9@0@a@b@c@d@e@f@g@h@i@j@k@l@m@n@o@& p@",
"9.q@r@s@t@u@v@w@x@y@z@A@B@C@D@E@F@G@H@I@J@K@L@M@N@O@P@Q@R@S@T@U@V@W@X@Y@Z@`@ #.#+#@###$#%#&#*#* =#-#",
";#$.>#,#'#)#!#~#{#]#^#/#(#_#:#<#[#}#|#1#2#3#4#5#6#7#8#9#0#R@a#b#c#d#e#f#Z@g#h#i#j#k#l#m#n#o#p#q#r#s#",
"t#u#v#w#x#y#z#A#B#C#D#E#F#G#H#I#J#K#L#M#N#O#P#Q#R#S#T#U#V#W#8@9@X#Y#Z#`# $.$+$@$#$$$%$&$*$=$S -$;$>$",
"l+,$n+o+p+q+r+'$t+)$!$~${$]$^$/$($_$:$<$[$}$|$1$J+2$3$4$5$O+P+Q+R+S+T+U+V+6$7$8$9$0$a$P X.b$@@c$%@d$",
"++@+l.#+$+%+&+*+=+-+;+>+,+'+)+!+~+{+]+^+/+(+_+:+<+[+}+|+1+2+3+4+5+6+7+8+9+0+a+b+c+d+e+f+g+h+i+j+j+k+",
"i.j.k.l.m.n.o.p.q.r.s.t.u.v.w.x.y.z.A.B.C.D.E.F.G.H.I.J.K.L.M.N.O.1.P.Q.R.S.T.U.V.W.X.Y.Z.`. +.+.+ +",
"`  ...+.@.#.$.%.&.*.=.-.e$>.,.'.).!.~.{.f$^.g$h$i$j$k$l$}.|.}.1.m$3.4.5.6.7.8.9.0.a.b.c.d.e.f.g.h.h.",
"@ h $ i j k l m n o p n$r ( o$p$q$r$s$s$t$u$v$w$x$y$z$w$A$H B$C$D$L M N O P Q R S T U # V W X Y Z Z ",
"d E$F$G$H$I$..J$K$L$M$N$O$P$Q$R$S$T$U$V$W$V$X$Y$Z$`$`$ %.%+%@%#%$%%%&%l K$*%=%-%;%U e.>%e f g g g g ",
",%'%)%!%d d d ~%e.{%]%^%/%q#(%_%:%<%[%3 }%|%|%}%}%}%}%' o N$1%2%3%4%5%6%7%h.8%d d . 9%0%a%b%,%c%c%c%",
"d%d%d%d%d%d%d%d%d%d%d%d%d%b%e%f%g%q#h%i%j%k%l%m%n%n%o%p%q%^%r%h.e d%d%d%d%d%d%d%d%d%d%d%d%d%d%d%d%d%",
"d%d%d%d%d%d%d%d%d%d%d%d%d%d%s%,%f t%u%v%w%f%x%y%z%g.A%t%B%C%d%d%d%d%d%d%d%d%d%d%d%d%d%d%d%d%d%d%d%d%",
"d%d%d%d%d%d%d%d%d%d%d%d%d%d%d%d%d%d%C%0%B%f X Z c%s%d%d%d%d%d%d%d%d%d%d%d%d%d%d%d%d%d%d%d%d%d%d%d%d%"};
