/* XPM */
static char * led_waiting_glow_xpm[] = {
"50 20 408 2",
"  	c None",
". 	c #000000",
"+ 	c #000103",
"@ 	c #000203",
"# 	c #000205",
"$ 	c #000306",
"% 	c #000408",
"& 	c #01060A",
"* 	c #02070C",
"= 	c #02090E",
"- 	c #030A10",
"; 	c #030B12",
"> 	c #040C14",
", 	c #050D16",
"' 	c #050F19",
") 	c #05111C",
"! 	c #06131F",
"~ 	c #071521",
"{ 	c #071623",
"] 	c #081725",
"^ 	c #091728",
"/ 	c #091829",
"( 	c #091928",
"_ 	c #091827",
": 	c #091726",
"< 	c #081625",
"[ 	c #081523",
"} 	c #071421",
"| 	c #06121D",
"1 	c #06101A",
"2 	c #050F18",
"3 	c #050E17",
"4 	c #040D15",
"5 	c #040C13",
"6 	c #030A11",
"7 	c #01070C",
"8 	c #010509",
"9 	c #010508",
"0 	c #010306",
"a 	c #000204",
"b 	c #000102",
"c 	c #01060B",
"d 	c #01080E",
"e 	c #020B13",
"f 	c #030E18",
"g 	c #04111C",
"h 	c #061420",
"i 	c #071826",
"j 	c #081B2B",
"k 	c #0A1F31",
"l 	c #0B2236",
"m 	c #0D253C",
"n 	c #0E2942",
"o 	c #0F2F4A",
"p 	c #103350",
"q 	c #123556",
"r 	c #14375A",
"s 	c #15395F",
"t 	c #163B63",
"u 	c #173D65",
"v 	c #163D64",
"w 	c #153C63",
"x 	c #153D63",
"y 	c #163D63",
"z 	c #163C61",
"A 	c #153A5F",
"B 	c #14385B",
"C 	c #133656",
"D 	c #113250",
"E 	c #102E49",
"F 	c #0E2B43",
"G 	c #0C273D",
"H 	c #0B2338",
"I 	c #0A2033",
"J 	c #091D2E",
"K 	c #071928",
"L 	c #061421",
"M 	c #04111B",
"N 	c #030E17",
"O 	c #030C14",
"P 	c #020910",
"Q 	c #000509",
"R 	c #000407",
"S 	c #020A10",
"T 	c #030D15",
"U 	c #04101B",
"V 	c #051421",
"W 	c #071828",
"X 	c #081D2F",
"Y 	c #092236",
"Z 	c #0A273C",
"` 	c #0C2C43",
" .	c #0E2F4A",
"..	c #103351",
"+.	c #123859",
"@.	c #143D61",
"#.	c #153F66",
"$.	c #153A5E",
"%.	c #14395C",
"&.	c #13395B",
"*.	c #133C5D",
"=.	c #164165",
"-.	c #18476C",
";.	c #18486E",
">.	c #17476B",
",.	c #164466",
"'.	c #143E5D",
").	c #123855",
"!.	c #123755",
"~.	c #133A5B",
"{.	c #143C5F",
"].	c #133E61",
"^.	c #113E61",
"/.	c #103B5C",
"(.	c #0F3452",
"_.	c #0E2E4A",
":.	c #0D2B43",
"<.	c #0B273D",
"[.	c #0A2236",
"}.	c #081C2E",
"|.	c #071726",
"1.	c #030D16",
"2.	c #020A11",
"3.	c #01070D",
"4.	c #01050A",
"5.	c #000307",
"6.	c #020A12",
"7.	c #05121D",
"8.	c #061624",
"9.	c #081B2C",
"0.	c #092134",
"a.	c #0A273D",
"b.	c #0C2D46",
"c.	c #0D334F",
"d.	c #0F3857",
"e.	c #113D60",
"f.	c #134067",
"g.	c #144269",
"h.	c #164269",
"i.	c #15436B",
"j.	c #104370",
"k.	c #0D4478",
"l.	c #0E4786",
"m.	c #144C99",
"n.	c #2057A8",
"o.	c #386BB4",
"p.	c #4D7EBC",
"q.	c #5384BF",
"r.	c #4D81BE",
"s.	c #4277B6",
"t.	c #2E62A7",
"u.	c #194D96",
"v.	c #104585",
"w.	c #0E4375",
"x.	c #0D436B",
"y.	c #104268",
"z.	c #134268",
"A.	c #134167",
"B.	c #134166",
"C.	c #123E62",
"D.	c #103858",
"E.	c #0E314D",
"F.	c #0C2B44",
"G.	c #0B263B",
"H.	c #092033",
"I.	c #071724",
"J.	c #05131E",
"K.	c #040F19",
"L.	c #020C14",
"M.	c #01090F",
"N.	c #01060C",
"O.	c #051420",
"P.	c #081E30",
"Q.	c #0A2438",
"R.	c #0B2A41",
"S.	c #0D304A",
"T.	c #0E3755",
"U.	c #124369",
"V.	c #134267",
"W.	c #124770",
"X.	c #105082",
"Y.	c #0D5693",
"Z.	c #0858A5",
"`.	c #035AB7",
" +	c #055CCB",
".+	c #0B5EDF",
"++	c #1565EF",
"@+	c #2872FB",
"#+	c #397EFF",
"$+	c #3D82FF",
"%+	c #3A80FF",
"&+	c #3179FF",
"*+	c #206BF3",
"=+	c #0F5DE1",
"-+	c #0759D0",
";+	c #0359BE",
">+	c #0458AA",
",+	c #0B5591",
"'+	c #13517B",
")+	c #144B6E",
"!+	c #134468",
"~+	c #113F63",
"{+	c #113E60",
"]+	c #113C5C",
"^+	c #0F3754",
"/+	c #0C304A",
"(+	c #0B2A40",
"_+	c #091E30",
":+	c #03101A",
"<+	c #02090F",
"[+	c #02080E",
"}+	c #02080F",
"|+	c #091E2E",
"1+	c #0C2B42",
"2+	c #0E334D",
"3+	c #0F3A58",
"4+	c #114062",
"5+	c #12446B",
"6+	c #134871",
"7+	c #15486F",
"8+	c #154B72",
"9+	c #13588A",
"0+	c #106BB1",
"a+	c #0C75CA",
"b+	c #0673D1",
"c+	c #016DD1",
"d+	c #0068D2",
"e+	c #0062D1",
"f+	c #005ED3",
"g+	c #005ADA",
"h+	c #0058E2",
"i+	c #0057E5",
"j+	c #0057E6",
"k+	c #005AE5",
"l+	c #0060E3",
"m+	c #0167E0",
"n+	c #016BDF",
"o+	c #006EE0",
"p+	c #016FD9",
"q+	c #0971C8",
"r+	c #116FB1",
"s+	c #136194",
"t+	c #124B71",
"u+	c #113F5E",
"v+	c #124162",
"w+	c #13456A",
"x+	c #114164",
"y+	c #0D324C",
"z+	c #0A253B",
"A+	c #081F31",
"B+	c #061826",
"C+	c #04131E",
"D+	c #031019",
"E+	c #030E16",
"F+	c #030D14",
"G+	c #0F3958",
"H+	c #124264",
"I+	c #124468",
"J+	c #124268",
"K+	c #13476F",
"L+	c #185582",
"M+	c #1C6397",
"N+	c #1B6DA8",
"O+	c #1774B6",
"P+	c #147BC4",
"Q+	c #1385D3",
"R+	c #138CDE",
"S+	c #128DE2",
"T+	c #1288E0",
"U+	c #0F82DC",
"V+	c #0977D5",
"W+	c #036DCE",
"X+	c #016ACD",
"Y+	c #026CD0",
"Z+	c #0373D8",
"`+	c #0580E8",
" @	c #088CF5",
".@	c #098DF0",
"+@	c #0988DF",
"@@	c #0B82D1",
"#@	c #117ECC",
"$@	c #1778C3",
"%@	c #186CAB",
"&@	c #165C8A",
"*@	c #155074",
"=@	c #144B71",
"-@	c #144971",
";@	c #13456B",
">@	c #124161",
",@	c #103C57",
"'@	c #0D324B",
")@	c #0B2940",
"!@	c #071D2D",
"~@	c #061825",
"{@	c #05141F",
"]@	c #03111A",
"^@	c #04111A",
"/@	c #071B2B",
"(@	c #0A2940",
"_@	c #0C3048",
":@	c #0E3753",
"<@	c #113F61",
"[@	c #13466D",
"}@	c #144870",
"|@	c #15476D",
"1@	c #174D75",
"2@	c #1B5E8D",
"3@	c #2070A6",
"4@	c #1F76AE",
"5@	c #1B77AD",
"6@	c #1C7EB5",
"7@	c #2591CE",
"8@	c #2CA3E7",
"9@	c #2AA6EF",
"0@	c #229EED",
"a@	c #1994E8",
"b@	c #0F88DF",
"c@	c #067DD6",
"d@	c #037AD3",
"e@	c #047CD5",
"f@	c #0580D8",
"g@	c #0688DE",
"h@	c #098FE2",
"i@	c #0D90DB",
"j@	c #128DCC",
"k@	c #1787C0",
"l@	c #1C80B9",
"m@	c #1F78B0",
"n@	c #1F70A3",
"o@	c #1C6793",
"p@	c #1A5E85",
"q@	c #18557B",
"r@	c #164C73",
"s@	c #14486D",
"t@	c #124669",
"u@	c #104161",
"v@	c #0E3754",
"w@	c #0A263C",
"x@	c #092133",
"y@	c #071C2B",
"z@	c #051622",
"A@	c #030F18",
"B@	c #04101A",
"C@	c #081B2A",
"D@	c #091E2F",
"E@	c #0B2134",
"F@	c #0C243A",
"G@	c #0D2840",
"H@	c #0E2D47",
"I@	c #0F314D",
"J@	c #113353",
"K@	c #133558",
"L@	c #15375C",
"M@	c #163960",
"N@	c #163B62",
"O@	c #153A61",
"P@	c #143A5F",
"Q@	c #143A5E",
"R@	c #143B5F",
"S@	c #15395E",
"T@	c #133658",
"U@	c #123453",
"V@	c #11304D",
"W@	c #0F2D46",
"X@	c #0E2940",
"Y@	c #0C253B",
"Z@	c #081C2C",
"`@	c #030C13",
" #	c #040F18",
".#	c #071624",
"+#	c #081929",
"@#	c #091C2D",
"##	c #0A1F32",
"$#	c #0B2237",
"%#	c #0C263D",
"&#	c #0E2841",
"*#	c #0F2A45",
"=#	c #112B48",
"-#	c #112D4A",
";#	c #112F4B",
">#	c #122F4B",
",#	c #122F4C",
"'#	c #112D49",
")#	c #112C46",
"!#	c #0F2943",
"~#	c #0D263E",
"{#	c #0C2439",
"]#	c #0A1E30",
"^#	c #081A2A",
"/#	c #061522",
"(#	c #030C15",
"_#	c #01080F",
":#	c #00050A",
"<#	c #000001",
"[#	c #000305",
"}#	c #02080D",
"|#	c #040B13",
"1#	c #06121E",
"2#	c #091A2A",
"3#	c #0A1B2C",
"4#	c #0A1B2D",
"5#	c #091B2D",
"6#	c #081827",
"7#	c #071420",
"8#	c #030C12",
"9#	c #030B11",
"0#	c #010407",
"a#	c #000002",
". . . . . . . . . . . . . . . . . . . . . . . . . . . . . . . . . . . . . . . . . . . . . . . . . . ",
"+ @ # $ % & * = - ; > , ' ) ! ~ { ] ^ / / ( ( ( ( _ : < [ } | 1 2 3 4 5 6 = 7 & 8 9 0 a b + @ @ @ @ ",
"8 c d e f g h i j k l m n o p q r s t u v w x x x y z A B C D E F G H I J K L M N O P 7 Q R 0 0 0 0 ",
"7 S T U V W X Y Z `  ...+.@.#.x $.%.&.*.=.-.;.>.,.'.).!.~.{.].^./.(._.:.<.[.}.|.h M 1.2.3.4.R $ $ 5.",
"6.N 7.8.9.0.a.b.c.d.e.f.g.h.i.j.k.l.m.n.o.p.q.r.s.t.u.v.w.x.y.z.A.B.C.D.E.F.G.H.j I.J.K.L.M.N.& c c ",
"K.O.K P.Q.R.S.T.^.U.V.B.W.X.Y.Z.`. +.+++@+#+$+%+&+*+=+-+;+>+,+'+)+!+~+{+]+^+/+(+Q._+K O.:+L.<+[+[+}+",
"J.i |+Q.1+2+3+4+5+6+7+8+9+0+a+b+c+d+e+f+g+h+i+j+k+l+m+n+o+p+q+r+s+t+u+v+w+x+3+y+` z+A+B+C+D+E+F+T T ",
"B+_+Q.(+S.G+H+I+J+K+L+M+N+O+P+Q+R+S+T+U+V+W+X+Y+Z+`+ @.@+@@@#@$@%@&@*@=@-@;@>@,@'@)@Y !@~@{@M D+]@^@",
"/@Y (@_@:@<@[@}@|@1@2@3@4@5@6@7@8@9@0@a@b@c@d@e@f@g@h@i@j@k@l@m@n@o@p@q@r@s@t@u@v@b.w@x@y@z@M A@D+B@",
"/@Y (@_@:@<@[@}@|@1@2@3@4@5@6@7@8@9@0@a@b@c@d@e@f@g@h@i@j@k@l@m@n@o@p@q@r@s@t@u@v@b.w@x@y@z@M A@D+B@",
"B+_+Q.(+S.G+H+I+J+K+L+M+N+O+P+Q+R+S+T+U+V+W+X+Y+Z+`+ @.@+@@@#@$@%@&@*@=@-@;@>@,@'@)@Y !@~@{@M D+]@^@",
"J.i |+Q.1+2+3+4+5+6+7+8+9+0+a+b+c+d+e+f+g+h+i+j+k+l+m+n+o+p+q+r+s+t+u+v+w+x+3+y+` z+A+B+C+D+E+F+T T ",
"K.O.K P.Q.R.S.T.^.U.V.B.W.X.Y.Z.`. +.+++@+#+$+%+&+*+=+-+;+>+,+'+)+!+~+{+]+^+/+(+Q._+K O.:+L.<+[+[+}+",
"6.N 7.8.9.0.a.b.c.d.e.f.g.h.i.j.k.l.m.n.o.p.q.r.s.t.u.v.w.x.y.z.A.B.C.D.E.F.G.H.j I.J.K.L.M.N.& c c ",
"7 S T U V W X Y Z `  ...+.@.#.x $.%.&.*.=.-.;.>.,.'.).!.~.{.].^./.(._.:.<.[.}.|.h M 1.2.3.4.R $ $ 5.",
"8 c d e N U ! I.C@D@E@F@G@H@I@J@K@L@M@N@O@P@Q@R@R@A S@B T@U@V@W@X@Y@l k Z@i O.U N `@P N.Q R 0 0 0 0 ",
"# 5.% & 3.2.T  #) ! .#+#@###$#F@%#&#*#=#-#;#>#,#;#'#)#!#~#{#E@]#@#^#i /#7.K.(#2._#7 :#5.# # # # # # ",
"<#b + + a [#R 9 8 c }#<+6 ; |#`@O  #1#[ _ 2#3#4#5#2#6#7#2 `@; 8#9#<+[+7 & 9 0#$ a + b b a#<#<#<#<#<#",
". . . . . . . . . . . . . . . . . . b a 0 0#9 8 8 9 $ + . . . . . . . . . . . . . . . . . . . . . . ",
". . . . . . . . . . . . . . . . . . . . . . . . . . . . . . . . . . . . . . . . . . . . . . . . . . "};
