/* XPM */
static char * led_submitted_glow_xpm[] = {
"50 20 582 2",
"  	c None",
". 	c #060500",
"+ 	c #080601",
"@ 	c #0A0801",
"# 	c #0D0901",
"$ 	c #100C01",
"% 	c #140F02",
"& 	c #191303",
"* 	c #1D1704",
"= 	c #211B06",
"- 	c #261E08",
"; 	c #2A2309",
"> 	c #2F270A",
", 	c #352B0B",
"' 	c #3C300C",
") 	c #41340D",
"! 	c #45360E",
"~ 	c #48380F",
"{ 	c #4C3D10",
"] 	c #514312",
"^ 	c #544713",
"/ 	c #554714",
"( 	c #554513",
"_ 	c #544513",
": 	c #534413",
"< 	c #504212",
"[ 	c #4D3F11",
"} 	c #483A10",
"| 	c #44360E",
"1 	c #3F320D",
"2 	c #3A2F0C",
"3 	c #362B0B",
"4 	c #31280A",
"5 	c #2D2409",
"6 	c #272008",
"7 	c #221B06",
"8 	c #1D1705",
"9 	c #191403",
"0 	c #161103",
"a 	c #130E02",
"b 	c #100C02",
"c 	c #0C0901",
"d 	c #080600",
"e 	c #060400",
"f 	c #050400",
"g 	c #0F0B02",
"h 	c #120E02",
"i 	c #171203",
"j 	c #1C1504",
"k 	c #211905",
"l 	c #271E07",
"m 	c #2D2309",
"n 	c #35290A",
"o 	c #3C2F0C",
"p 	c #42340E",
"q 	c #504011",
"r 	c #594612",
"s 	c #614C13",
"t 	c #675315",
"u 	c #6C5918",
"v 	c #725F1A",
"w 	c #76641B",
"x 	c #79661B",
"y 	c #78631A",
"z 	c #776019",
"A 	c #786019",
"B 	c #786119",
"C 	c #77611A",
"D 	c #75601A",
"E 	c #725D19",
"F 	c #6D5817",
"G 	c #675316",
"H 	c #604C14",
"I 	c #574513",
"J 	c #503F11",
"K 	c #4A3B0F",
"L 	c #43360E",
"M 	c #3D300C",
"N 	c #362A0B",
"O 	c #2F2409",
"P 	c #281E07",
"Q 	c #211A06",
"R 	c #1D1605",
"S 	c #191304",
"T 	c #141003",
"U 	c #0F0C02",
"V 	c #090700",
"W 	c #070500",
"X 	c #100D01",
"Y 	c #151003",
"Z 	c #1B1504",
"` 	c #221A06",
" .	c #292008",
"..	c #312609",
"+.	c #3A2C0B",
"@.	c #42320C",
"#.	c #4B380D",
"$.	c #543F0E",
"%.	c #5C4611",
"&.	c #644E13",
"*.	c #6E5616",
"=.	c #796018",
"-.	c #7E6419",
";.	c #7A621A",
">.	c #755E19",
",.	c #735C18",
"'.	c #735B15",
").	c #775C15",
"!.	c #816417",
"~.	c #8A6B1A",
"{.	c #8C6C1A",
"].	c #8A6A19",
"^.	c #846518",
"/.	c #775B16",
"(.	c #6C5315",
"_.	c #6B5415",
":.	c #725A17",
"<.	c #765D18",
"[.	c #785D17",
"}.	c #785A16",
"|.	c #715515",
"1.	c #654E13",
"2.	c #5B4712",
"3.	c #53410F",
"4.	c #4C3A0D",
"5.	c #43330C",
"6.	c #392C0B",
"7.	c #30250A",
"8.	c #281F08",
"9.	c #221A05",
"0.	c #161102",
"a.	c #110E01",
"b.	c #0D0A01",
"c.	c #090701",
"d.	c #090601",
"e.	c #1C1604",
"f.	c #241C06",
"g.	c #2D2308",
"h.	c #372A0A",
"i.	c #42310C",
"j.	c #4C390D",
"k.	c #57400F",
"l.	c #614810",
"m.	c #6C5113",
"n.	c #775A15",
"o.	c #806318",
"p.	c #83661A",
"q.	c #866919",
"r.	c #8C6D12",
"s.	c #95750E",
"t.	c #A08218",
"u.	c #AC942A",
"v.	c #B8A440",
"w.	c #C4B160",
"x.	c #CDBB7B",
"y.	c #D0BD83",
"z.	c #CEBA7D",
"A.	c #C6B26E",
"B.	c #B7A351",
"C.	c #A69233",
"D.	c #998120",
"E.	c #8E6F15",
"F.	c #86640F",
"G.	c #836212",
"H.	c #816317",
"I.	c #7F6218",
"J.	c #7E6117",
"K.	c #785C16",
"L.	c #6D5314",
"M.	c #604912",
"N.	c #554110",
"O.	c #4A380D",
"P.	c #40310C",
"Q.	c #2E2408",
"R.	c #261E06",
"S.	c #1F1704",
"T.	c #191203",
"U.	c #0F0B01",
"V.	c #0E0A01",
"W.	c #0E0B01",
"X.	c #1F1805",
"Y.	c #312608",
"Z.	c #3C2E0B",
"`.	c #46360C",
" +	c #513D0E",
".+	c #5C440F",
"++	c #6A4F12",
"@+	c #795A15",
"#+	c #826117",
"$+	c #7F6018",
"%+	c #7E6018",
"&+	c #8B6817",
"*+	c #9F7716",
"=+	c #B58812",
"-+	c #CC9E0A",
";+	c #E1B505",
">+	c #F1CC0F",
",+	c #FDE224",
"'+	c #FFF23D",
")+	c #FFF961",
"!+	c #FFFC80",
"~+	c #FFFF8A",
"{+	c #FFFF86",
"]+	c #FFFC75",
"^+	c #FFF552",
"/+	c #FEE92D",
"(+	c #F3D617",
"_+	c #E3BC0B",
":+	c #CFA206",
"<+	c #B3860D",
"[+	c #986E16",
"}+	c #886318",
"|+	c #806017",
"1+	c #7A5D16",
"2+	c #775A16",
"3+	c #735615",
"4+	c #694F13",
"5+	c #5C450F",
"6+	c #513C0D",
"7+	c #3D2F0C",
"8+	c #332709",
"9+	c #281E06",
"0+	c #201704",
"a+	c #141002",
"b+	c #120F02",
"c+	c #130F02",
"d+	c #131002",
"e+	c #251D06",
"f+	c #302509",
"g+	c #3A2D0B",
"h+	c #46350D",
"i+	c #523E0F",
"j+	c #5F4610",
"k+	c #6B4F12",
"l+	c #775914",
"m+	c #836317",
"n+	c #8B6919",
"o+	c #8A681A",
"p+	c #8E6A1A",
"q+	c #A97D1A",
"r+	c #D59D19",
"s+	c #F2B416",
"t+	c #FCBD10",
"u+	c #FFC20B",
"v+	c #FFC807",
"w+	c #FECC06",
"x+	c #FDD007",
"y+	c #FDD70B",
"z+	c #FEDD11",
"A+	c #FEE013",
"B+	c #FEE015",
"C+	c #FEE016",
"D+	c #FEDE1A",
"E+	c #FFDB1B",
"F+	c #FFD817",
"G+	c #FFD30E",
"H+	c #FFC80B",
"I+	c #F0B412",
"J+	c #D89C19",
"K+	c #B6821A",
"L+	c #8C6517",
"M+	c #745515",
"N+	c #795A16",
"O+	c #826217",
"P+	c #7B5C15",
"Q+	c #6C5012",
"R+	c #5E4610",
"S+	c #533E0E",
"T+	c #48360D",
"U+	c #3C2D0B",
"V+	c #2F2308",
"W+	c #251B05",
"X+	c #1B1404",
"Y+	c #1A1404",
"Z+	c #322609",
"`+	c #3E2F0C",
" @	c #4A380E",
".@	c #584211",
"+@	c #664C13",
"@@	c #755716",
"#@	c #826018",
"$@	c #89661A",
"%@	c #8A691B",
"&@	c #92701D",
"*@	c #A37D22",
"=@	c #B78A26",
"-@	c #C99527",
";@	c #DC9E25",
">@	c #E8A221",
",@	c #EBA11C",
"'@	c #EC9F17",
")@	c #EFA213",
"!@	c #F4A811",
"~@	c #F8AE0E",
"{@	c #F9B50C",
"]@	c #FABB0A",
"^@	c #FABC0A",
"/@	c #FABA0C",
"(@	c #F9B811",
"_@	c #F9B71D",
":@	c #F8B527",
"<@	c #F3AF27",
"[@	c #EEA820",
"}@	c #E8A41E",
"|@	c #E7A522",
"1@	c #E1A426",
"2@	c #CA9325",
"3@	c #A87921",
"4@	c #92691E",
"5@	c #8E691C",
"6@	c #8F6C1B",
"7@	c #886619",
"8@	c #7F5C18",
"9@	c #735316",
"0@	c #654913",
"a@	c #56400F",
"b@	c #49370D",
"c@	c #3D2E0B",
"d@	c #2B2008",
"e@	c #261B07",
"f@	c #231A07",
"g@	c #241A07",
"h@	c #251B07",
"i@	c #392B0A",
"j@	c #45340C",
"k@	c #533E0F",
"l@	c #614912",
"m@	c #705415",
"n@	c #806118",
"o@	c #8E6B1A",
"p@	c #936F1C",
"q@	c #926E1E",
"r@	c #997421",
"s@	c #B18526",
"t@	c #C9962A",
"u@	c #D39829",
"v@	c #D49125",
"w@	c #D89128",
"x@	c #DF9A37",
"y@	c #E7A445",
"z@	c #EDAA43",
"A@	c #F4AD36",
"B@	c #F7AE2B",
"C@	c #F8AE21",
"D@	c #F8AD19",
"E@	c #F8AC16",
"F@	c #F8AA17",
"G@	c #F7A717",
"H@	c #F5A116",
"I@	c #F29B16",
"J@	c #EB971A",
"K@	c #E29422",
"L@	c #DA9227",
"M@	c #D5912A",
"N@	c #CF902B",
"O@	c #C38A2A",
"P@	c #B48127",
"Q@	c #A67823",
"R@	c #9B7120",
"S@	c #926C1D",
"T@	c #8C671A",
"U@	c #7F5D16",
"V@	c #6F5213",
"W@	c #503D0E",
"X@	c #45350C",
"Y@	c #3B2C0A",
"Z@	c #251C07",
"`@	c #241B07",
" #	c #362809",
".#	c #44330B",
"+#	c #4F3B0E",
"@#	c #5A4310",
"##	c #664D12",
"$#	c #866618",
"%#	c #896919",
"&#	c #85661A",
"*#	c #8F6C1C",
"=#	c #AE8322",
"-#	c #CD9827",
";#	c #D99C25",
">#	c #D9951E",
",#	c #DC9826",
"'#	c #E7AB48",
")#	c #F1BE68",
"!#	c #F6C46A",
"~#	c #F8C35A",
"{#	c #F9C047",
"]#	c #F9BA2E",
"^#	c #F9B517",
"/#	c #F9B310",
"(#	c #F9B313",
"_#	c #F8B219",
":#	c #F8B224",
"<#	c #F7B02E",
"[#	c #F3AA2F",
"}#	c #EBA02B",
"|#	c #E59B27",
"1#	c #E09C27",
"2#	c #DA9C27",
"3#	c #CB9225",
"4#	c #B68222",
"5#	c #A5751F",
"6#	c #996F1D",
"7#	c #8E6A1B",
"8#	c #866519",
"9#	c #815F16",
"0#	c #775714",
"a#	c #674C11",
"b#	c #57410E",
"c#	c #40310B",
"d#	c #36290A",
"e#	c #2A1F07",
"f#	c #211805",
"g#	c #1D1504",
"h#	c #1E1604",
"i#	c #302408",
"j#	c #47360D",
"k#	c #513D0F",
"l#	c #5D4511",
"m#	c #6C5114",
"n#	c #7A5C16",
"o#	c #7F6017",
"p#	c #7F6217",
"q#	c #886918",
"r#	c #A07A1E",
"s#	c #BB8C23",
"t#	c #CF9823",
"u#	c #E0A11E",
"v#	c #ECA920",
"w#	c #F2B02B",
"x#	c #F5B636",
"y#	c #F7B937",
"z#	c #F8BB31",
"A#	c #FABD28",
"B#	c #FBC017",
"C#	c #FBC209",
"D#	c #FBC305",
"E#	c #FAC313",
"F#	c #FCC62A",
"G#	c #FCC83D",
"H#	c #FAC13A",
"I#	c #F6B429",
"J#	c #F2AC1E",
"K#	c #F2AF20",
"L#	c #EBAF23",
"M#	c #D19B21",
"N#	c #AA7A1D",
"O#	c #90661A",
"P#	c #8C6B19",
"Q#	c #836418",
"R#	c #785816",
"S#	c #6C4D14",
"T#	c #5E4411",
"U#	c #503B0E",
"V#	c #382B0A",
"W#	c #2F2408",
"X#	c #271D06",
"Y#	c #1F1604",
"Z#	c #201604",
"`#	c #201705",
" $	c #261D06",
".$	c #3B2D0B",
"+$	c #604711",
"@$	c #785A15",
"#$	c #846417",
"$$	c #8C6A19",
"%$	c #8D691A",
"&$	c #D49D19",
"*$	c #F2B316",
"=$	c #FCBC0E",
"-$	c #FEC007",
";$	c #FFC503",
">$	c #FDC902",
",$	c #FCCF04",
"'$	c #FDD60A",
")$	c #FEDC11",
"!$	c #FEDF14",
"~$	c #FEDF15",
"{$	c #FEDE16",
"]$	c #FEDC18",
"^$	c #FFD919",
"/$	c #FFD615",
"($	c #FFD20D",
"_$	c #FFC70B",
":$	c #EFB312",
"<$	c #D79B1A",
"[$	c #B5811A",
"}$	c #755515",
"|$	c #7B5C16",
"1$	c #6C5112",
"2$	c #543E0F",
"3$	c #302308",
"4$	c #261C05",
"5$	c #1F1705",
"6$	c #735A15",
"7$	c #8A6A1A",
"8$	c #594611",
"9$	c #685316",
"0$	c #6D5A18",
"a$	c #76631B",
"b$	c #78651B",
"c$	c #766019",
"d$	c #765F19",
"e$	c #756019",
"f$	c #715D19",
"g$	c #675216",
"h$	c #5F4C14",
"i$	c #0B0801",
"j$	c #151002",
"k$	c #1A1403",
"l$	c #231C06",
"m$	c #282008",
"n$	c #32290A",
"o$	c #382D0C",
"p$	c #45370E",
"q$	c #4B3B10",
"r$	c #514011",
"s$	c #574613",
"t$	c #5D4D15",
"u$	c #605116",
"v$	c #625117",
"w$	c #615016",
"x$	c #614F17",
"y$	c #604F17",
"z$	c #5F4D16",
"A$	c #5E4D16",
"B$	c #5B4B15",
"C$	c #574713",
"D$	c #504112",
"E$	c #4A3B10",
"F$	c #3D310D",
"G$	c #342A0B",
"H$	c #2F2609",
"I$	c #292108",
"J$	c #171103",
"K$	c #090600",
"L$	c #020200",
"M$	c #030200",
"N$	c #040200",
"O$	c #040300",
"P$	c #050300",
"Q$	c #0C0902",
"R$	c #0D0B02",
"S$	c #100D03",
"T$	c #130F03",
"U$	c #141004",
"V$	c #151105",
"W$	c #181406",
"X$	c #201A07",
"Y$	c #2A2008",
"Z$	c #32270A",
"`$	c #3F340D",
" %	c #43370E",
".%	c #44390F",
"+%	c #43370F",
"@%	c #41350E",
"#%	c #3E320D",
"$%	c #392F0C",
"%%	c #2E250A",
"&%	c #271F08",
"*%	c #1F1906",
"=%	c #181204",
"-%	c #140F03",
";%	c #130E03",
">%	c #110D02",
",%	c #0E0B02",
"'%	c #0C0A01",
")%	c #030100",
"!%	c #020100",
"~%	c #010100",
"{%	c #000000",
"]%	c #060501",
"^%	c #0B0902",
"/%	c #110E03",
"(%	c #151104",
"_%	c #181404",
":%	c #191504",
"<%	c #171404",
"[%	c #151204",
"}%	c #0A0802",
"|%	c #080701",
"1%	c #050501",
". + @ # $ % & * = - ; > , ' ) ! ~ { ] ^ / ( ( ( _ : < [ } | 1 2 3 4 5 6 7 8 9 0 a b c d e e e f e e ",
"c g h i j k l m n o p } q r s t u v w x y z z A B C D E F G H I J K L M N O P Q R S T U c V W W W W ",
"X Y Z `  ...+.@.#.$.%.&.*.=.-.;.>.,.'.).!.~.{.].^./.(._.:.<.[.}.|.1.2.3.4.5.6.7.8.9.j 0.a.b.c.d d d.",
"0 e.f.g.h.i.j.k.l.m.n.o.p.p.q.r.s.t.u.v.w.x.y.z.A.B.C.D.E.F.G.H.I.J.K.L.M.N.O.P.h.Q.R.S.T.a U.V.W.U.",
"X.P Y.Z.`. +.+++@+#+$+%+&+*+=+-+;+>+,+'+)+!+~+{+]+^+/+(+_+:+<+[+}+|+1+2+3+4+5+6+`.7+8+9+0+& a+b+c+d+",
"e+f+g+h+i+j+k+l+m+n+o+p+q+r+s+t+u+v+w+x+y+z+A+B+C+D+E+F+G+H+I+J+K+L+M+N+O+P+Q+R+S+T+U+V+W+S.X+S Y+Y+",
"Z+`+ @.@+@@@#@$@%@&@*@=@-@;@>@,@'@)@!@~@{@]@^@/@(@_@:@<@[@}@|@1@2@3@4@5@6@7@8@9@0@a@b@c@8+d@e@f@g@h@",
"i@j@k@l@m@n@o@p@q@r@s@t@u@v@w@x@y@z@A@B@C@D@E@F@G@H@I@J@K@L@M@N@O@P@Q@R@S@T@}+U@V@R+W@X@Y@V+Z@` f@`@",
" #.#+#@###n.$#%#&#*#=#-#;#>#,#'#)#!#~#{#]#^#/#(#_#:#<#[#}#|#1#2#3#4#5#6#7#8#9#0#a#b#O.c#d#e#f#g#h#S.",
"i#Z.j#k#l#m#n#o#p#q#r#s#t#u#v#w#x#y#z#A#B#C#D#C#E#F#G#H#I#J#K#L#M#N#O#T@P#Q#R#S#T#U#.#V#W#X#f#Y#Z#`#",
" $f+.$j#k@+$Q+@$#$$$o+%$q+&$*$=$-$;$>$,$'$)$!$~${$]$^$/$($_$:$<$[$L+}$N+O+|$1$j+2$b@c@3$4$5$Z Y+Y+X+",
"X.P Y.Z.`. +.+++@+#+$+%+&+*+=+-+;+>+,+'+)+!+~+{+]+^+/+(+_+:+<+[+}+|+1+2+3+4+5+6+`.7+8+9+0+& a+b+c+d+",
"0 e.f.g.h.i.j.k.l.m.n.o.p.p.q.r.s.t.u.v.w.x.y.z.A.B.C.D.E.F.G.H.I.J.K.L.M.N.O.P.h.Q.R.S.T.a U.V.W.U.",
"X Y Z `  ...+.@.#.$.%.&.*.=.-.;.>.,.6$).H.7${.].^./.(._.:.<.[.}.|.1.2.3.4.5.6.7.8.9.j 0.a.b.c.d d d.",
"c g h i j k l m n o p } q 8$s 9$0$v a$b$y c$d$z z c$e$f$F g$h$I J K L M N O P Q R S T U c V W W W W ",
"W c.i$b.$ j$k$X.l$m$5 n$o$1 p$q$r$s$t$u$v$w$x$y$z$A$B$C$D$E$| F$o$G$H$I$f.X.Z J$c+b # K$e e e e e e ",
"L$M$N$O$P$W K$@ Q$R$S$T$U$V$W$X$Y$Z$2 `$ %.%.%+%@%#%$%G$%%&%*%=%-%;%>%,%'%@ c.+ e N$)%!%!%!%~%~%~%~%",
"{%{%{%{%{%{%{%{%{%{%{%{%{%{%{%~%]%^%/%(%_%:%:%<%[%/%R$}%|%1%~%{%{%{%{%{%{%{%{%{%{%{%{%{%{%{%{%{%{%{%",
"{%{%{%{%{%{%{%{%{%{%{%{%{%{%{%{%{%{%{%{%~%~%~%{%{%{%{%{%{%{%{%{%{%{%{%{%{%{%{%{%{%{%{%{%{%{%{%{%{%{%",
"{%{%{%{%{%{%{%{%{%{%{%{%{%{%{%{%{%{%{%{%{%{%{%{%{%{%{%{%{%{%{%{%{%{%{%{%{%{%{%{%{%{%{%{%{%{%{%{%{%{%"};
