/* XPM */
static char * led_failed_glow_xpm[] = {
"50 20 578 2",
"  	c None",
". 	c #060102",
"+ 	c #080203",
"@ 	c #0A0204",
"# 	c #0E0306",
"$ 	c #110407",
"% 	c #140609",
"& 	c #16080B",
"* 	c #1B090D",
"= 	c #20090F",
"- 	c #250A11",
"; 	c #2A0D14",
"> 	c #2E0F17",
", 	c #33111A",
"' 	c #39131D",
") 	c #3E1520",
"! 	c #421822",
"~ 	c #451A24",
"{ 	c #471C26",
"] 	c #491C28",
"^ 	c #4D1E2A",
"/ 	c #54202E",
"( 	c #5A2231",
"_ 	c #582130",
": 	c #521F2D",
"< 	c #4F1E2B",
"[ 	c #501F2B",
"} 	c #51202C",
"| 	c #4E1E2A",
"1 	c #491C27",
"2 	c #451A25",
"3 	c #421923",
"4 	c #3E1822",
"5 	c #39151D",
"6 	c #321018",
"7 	c #2D0C13",
"8 	c #270C12",
"9 	c #220C11",
"0 	c #1E0A0F",
"a 	c #1B080D",
"b 	c #17060A",
"c 	c #120408",
"d 	c #0C0204",
"e 	c #090203",
"f 	c #070102",
"g 	c #050001",
"h 	c #040001",
"i 	c #0B0204",
"j 	c #100306",
"k 	c #130408",
"l 	c #160609",
"m 	c #1A070C",
"n 	c #1F090E",
"o 	c #2C0C14",
"p 	c #330E17",
"q 	c #3A111B",
"r 	c #40141F",
"s 	c #471824",
"t 	c #4E1A29",
"u 	c #551D2D",
"v 	c #5C2031",
"w 	c #622435",
"x 	c #672738",
"y 	c #6A293A",
"z 	c #6C2A3C",
"A 	c #6F2B3E",
"B 	c #752D42",
"C 	c #7A2E45",
"D 	c #792E44",
"E 	c #742C40",
"F 	c #712B3E",
"G 	c #722C3F",
"H 	c #732D40",
"I 	c #702B3D",
"J 	c #6A2739",
"K 	c #652536",
"L 	c #602334",
"M 	c #5B2231",
"N 	c #551F2D",
"O 	c #4D1C28",
"P 	c #461923",
"Q 	c #3E151E",
"R 	c #36121A",
"S 	c #2F0F17",
"T 	c #290C13",
"U 	c #240A10",
"V 	c #1E080D",
"W 	c #19060A",
"X 	c #150408",
"Y 	c #120407",
"Z 	c #0F0306",
"` 	c #070203",
" .	c #060103",
"..	c #060203",
"+.	c #170408",
"@.	c #1B050B",
"#.	c #1E070D",
"$.	c #240910",
"%.	c #2E0C14",
"&.	c #380F19",
"*.	c #40131E",
"=.	c #481623",
"-.	c #501A28",
";.	c #591D2D",
">.	c #622132",
",.	c #6B2437",
"'.	c #73283D",
").	c #772A40",
"!.	c #762B3F",
"~.	c #742A3D",
"{.	c #74293C",
"].	c #75263C",
"^.	c #79263D",
"/.	c #822A42",
"(.	c #8B2D47",
"_.	c #8F2E4A",
":.	c #902D4C",
"<.	c #8C2B4A",
"[.	c #822742",
"}.	c #772439",
"|.	c #732438",
"1.	c #74263A",
"2.	c #74283C",
"3.	c #75283D",
"4.	c #75273C",
"5.	c #71263A",
"6.	c #692436",
"7.	c #612131",
"8.	c #581C2B",
"9.	c #4F1725",
"0.	c #45121F",
"a.	c #3B0F19",
"b.	c #330C15",
"c.	c #2C0C13",
"d.	c #260C12",
"e.	c #1F090F",
"f.	c #17060B",
"g.	c #110408",
"h.	c #0F0305",
"i.	c #0E0305",
"j.	c #1E050B",
"k.	c #25070E",
"l.	c #2D0911",
"m.	c #350C16",
"n.	c #3E101B",
"o.	c #471421",
"p.	c #511827",
"q.	c #5C1A2B",
"r.	c #671E31",
"s.	c #732238",
"t.	c #7D273E",
"u.	c #7E273E",
"v.	c #79263B",
"w.	c #79263C",
"x.	c #832741",
"y.	c #8F2B49",
"z.	c #9C3557",
"A.	c #AA4368",
"B.	c #B75471",
"C.	c #C5686E",
"D.	c #CF7969",
"E.	c #D48167",
"F.	c #D38266",
"G.	c #CE7B67",
"H.	c #C3696B",
"I.	c #B5556C",
"J.	c #AA4566",
"K.	c #A0395A",
"L.	c #96304F",
"M.	c #8C2B46",
"N.	c #84293F",
"O.	c #80273C",
"P.	c #7F263C",
"Q.	c #7B243A",
"R.	c #712035",
"S.	c #651C2E",
"T.	c #5A1828",
"U.	c #4F1422",
"V.	c #45111D",
"W.	c #3B101A",
"X.	c #320F17",
"Y.	c #2A0C13",
"Z.	c #22080D",
"`.	c #1C0509",
" +	c #160306",
".+	c #130205",
"++	c #110204",
"@+	c #120205",
"#+	c #22060C",
"$+	c #2B080F",
"%+	c #320A12",
"&+	c #390C16",
"*+	c #420F1B",
"=+	c #4C1320",
"-+	c #581726",
";+	c #661A2D",
">+	c #741D33",
",+	c #7C2037",
"'+	c #7A2138",
")+	c #782239",
"!+	c #81213B",
"~+	c #92203E",
"{+	c #A5254B",
"]+	c #BD3465",
"^+	c #D34782",
"/+	c #E25A96",
"(+	c #ED6DA5",
"_+	c #F481AC",
":+	c #F896A8",
"<+	c #FAA8A0",
"[+	c #FBB29C",
"}+	c #FCB498",
"|+	c #FBAE9A",
"1+	c #F99DA5",
"2+	c #F587AF",
"3+	c #ED71A8",
"4+	c #E35B97",
"5+	c #D64782",
"6+	c #C33666",
"7+	c #B0294D",
"8+	c #9D2340",
"9+	c #8B243D",
"0+	c #7E243A",
"a+	c #7B2237",
"b+	c #791F34",
"c+	c #711C2F",
"d+	c #64192A",
"e+	c #571625",
"f+	c #4B1220",
"g+	c #3F0F1A",
"h+	c #350C15",
"i+	c #2D090F",
"j+	c #25060B",
"k+	c #1D0509",
"l+	c #160307",
"m+	c #140307",
"n+	c #150307",
"o+	c #27070D",
"p+	c #320810",
"q+	c #3B0B14",
"r+	c #450E1A",
"s+	c #4F1220",
"t+	c #5C1627",
"u+	c #681A2D",
"v+	c #731D33",
"w+	c #7E2038",
"x+	c #842139",
"y+	c #811E32",
"z+	c #831B2F",
"A+	c #9E1D3B",
"B+	c #CA2251",
"C+	c #E72A66",
"D+	c #EE377C",
"E+	c #EE468F",
"F+	c #EF539B",
"G+	c #EE60A2",
"H+	c #ED69A7",
"I+	c #ED6EAA",
"J+	c #ED71AB",
"K+	c #ED75AC",
"L+	c #ED78AC",
"M+	c #ED75AB",
"N+	c #ED6CA7",
"O+	c #EC60A2",
"P+	c #ED559C",
"Q+	c #EF4B94",
"R+	c #EF4187",
"S+	c #EE3473",
"T+	c #E7295D",
"U+	c #CE224C",
"V+	c #A71F3E",
"W+	c #8F1E35",
"X+	c #8C2036",
"Y+	c #8C2138",
"Z+	c #831F35",
"`+	c #751A2F",
" @	c #671729",
".@	c #591424",
"+@	c #4C1120",
"@@	c #410E1A",
"#@	c #370A13",
"$@	c #2E070E",
"%@	c #24060B",
"&@	c #1A0409",
"*@	c #1B0409",
"=@	c #2C080F",
"-@	c #380A13",
";@	c #440D18",
">@	c #50111E",
",@	c #5D1524",
"'@	c #6C182B",
")@	c #781C31",
"!@	c #791D33",
"~@	c #731D31",
"{@	c #7B1C30",
"]@	c #991B2E",
"^@	c #BA1A2F",
"/@	c #D2193B",
"(@	c #E61A4E",
"_@	c #F12061",
":@	c #F02D70",
"<@	c #EB3E7F",
"[@	c #EC5895",
"}@	c #EE76AE",
"|@	c #EF81B8",
"1@	c #EE6EAC",
"2@	c #EC559D",
"3@	c #EB4E99",
"4@	c #EB519C",
"5@	c #EB549D",
"6@	c #EB589E",
"7@	c #EC599C",
"8@	c #EC5191",
"9@	c #EB4380",
"0@	c #EB366F",
"a@	c #F02C5D",
"b@	c #F0244B",
"c@	c #E21F3E",
"d@	c #C91E33",
"e@	c #B41E2F",
"f@	c #A22035",
"g@	c #92223B",
"h@	c #872139",
"i@	c #801D32",
"j@	c #76192B",
"k@	c #671524",
"l@	c #59121D",
"m@	c #4C0F17",
"n@	c #400C13",
"o@	c #350A10",
"p@	c #2A080D",
"q@	c #21060B",
"r@	c #1D060B",
"s@	c #1F060B",
"t@	c #360A10",
"u@	c #440D16",
"v@	c #51101B",
"w@	c #5D1220",
"x@	c #6B1526",
"y@	c #7B1A2D",
"z@	c #881D32",
"A@	c #861C31",
"B@	c #7A192C",
"C@	c #821829",
"D@	c #AB1A27",
"E@	c #D61B29",
"F@	c #E71A2E",
"G@	c #EA1636",
"H@	c #EB1942",
"I@	c #EC2356",
"J@	c #EC316B",
"K@	c #EC447F",
"L@	c #ED5C92",
"M@	c #EE649B",
"N@	c #ED5798",
"O@	c #EB4590",
"P@	c #EB3D8C",
"Q@	c #EA3B89",
"R@	c #EB3A85",
"S@	c #EB3D81",
"T@	c #EC407B",
"U@	c #EC3B6E",
"V@	c #EB315D",
"W@	c #EB294C",
"X@	c #EC233C",
"Y@	c #EB1E2E",
"Z@	c #E51C28",
"`@	c #DC1D28",
" #	c #CC1E2A",
".#	c #B2202F",
"+#	c #992133",
"@#	c #8E2034",
"##	c #8B1E32",
"$#	c #841B2D",
"%#	c #771725",
"&#	c #67141D",
"*#	c #581018",
"=#	c #490E15",
"-#	c #3D0B12",
";#	c #33090F",
">#	c #2C080D",
",#	c #2A070C",
"'#	c #2A080C",
")#	c #2B080C",
"!#	c #380A11",
"~#	c #460D15",
"{#	c #52101A",
"]#	c #5F121F",
"^#	c #6D1524",
"/#	c #7D1A2B",
"(#	c #8A1D31",
"_#	c #821A2E",
":#	c #8B1A2A",
"<#	c #B01C27",
"[#	c #D81D26",
"}#	c #E71D28",
"|#	c #EA1A2D",
"1#	c #EB1835",
"2#	c #EB1744",
"3#	c #EA1754",
"4#	c #EA1B60",
"5#	c #EA2269",
"6#	c #EA2972",
"7#	c #EA327E",
"8#	c #EA3987",
"9#	c #EA3B88",
"0#	c #EA3984",
"a#	c #EA347C",
"b#	c #EA2B6F",
"c#	c #EA2161",
"d#	c #EA1C53",
"e#	c #EA1A45",
"f#	c #E91939",
"g#	c #EA192E",
"h#	c #E91A27",
"i#	c #E61B24",
"j#	c #E11C27",
"k#	c #D31E29",
"l#	c #B81E2C",
"m#	c #9C1F2F",
"n#	c #911E30",
"o#	c #8F1E30",
"p#	c #881B2D",
"q#	c #7A1726",
"r#	c #6B131E",
"s#	c #5C1019",
"t#	c #4E0D16",
"u#	c #410B12",
"v#	c #36090F",
"w#	c #2F080C",
"x#	c #2B070B",
"y#	c #2C070B",
"z#	c #2D080B",
"A#	c #340A12",
"B#	c #410D16",
"C#	c #4C0F1A",
"D#	c #57111F",
"E#	c #641424",
"F#	c #76182B",
"G#	c #841C31",
"H#	c #821C31",
"I#	c #761A2D",
"J#	c #7F192B",
"K#	c #AA1A2A",
"L#	c #D71B2C",
"M#	c #E91932",
"N#	c #EB153C",
"O#	c #EB1849",
"P#	c #EC235B",
"Q#	c #EB336E",
"R#	c #EC4883",
"S#	c #ED6199",
"T#	c #EE6AA3",
"U#	c #EC599B",
"V#	c #EB448F",
"W#	c #EA3D8C",
"X#	c #EA3D8D",
"Y#	c #EA408D",
"Z#	c #EB488C",
"`#	c #EC4E88",
" $	c #EC487C",
".$	c #EB3A6C",
"+$	c #EB2E5A",
"@$	c #EC2445",
"#$	c #EB1D33",
"$$	c #E41B29",
"%$	c #D81D25",
"&$	c #C71E27",
"*$	c #AE202F",
"=$	c #962137",
"-$	c #8B2037",
";$	c #871D32",
">$	c #801A2B",
",$	c #731622",
"'$	c #641219",
")$	c #560F15",
"!$	c #470D14",
"~$	c #3A0B13",
"{$	c #2F0910",
"]$	c #26080E",
"^$	c #22070D",
"/$	c #23080D",
"($	c #24080D",
"_$	c #390A13",
":$	c #51111E",
"<$	c #5E1525",
"[$	c #6D192B",
"}$	c #791C31",
"|$	c #7A1D33",
"1$	c #741D31",
"2$	c #7C1C30",
"3$	c #991B2D",
"4$	c #D2193A",
"5$	c #F12060",
"6$	c #F02D6F",
"7$	c #EC5795",
"8$	c #EE76AD",
"9$	c #EF81B7",
"0$	c #EE6DAC",
"a$	c #EB509B",
"b$	c #EB539C",
"c$	c #EB579D",
"d$	c #EC589B",
"e$	c #EC5090",
"f$	c #EB427F",
"g$	c #EB366E",
"h$	c #F02C5C",
"i$	c #CA1E34",
"j$	c #B41E30",
"k$	c #93223A",
"l$	c #882138",
"m$	c #681524",
"n$	c #4C0F18",
"o$	c #410C13",
"p$	c #1E060B",
"q$	c #20060B",
"r$	c #0B0304",
"s$	c #15060A",
"t$	c #18080C",
"u$	c #1C090E",
"v$	c #220A0F",
"w$	c #270B12",
"x$	c #2C0D15",
"y$	c #301018",
"z$	c #36121B",
"A$	c #3C141F",
"B$	c #411622",
"C$	c #451924",
"D$	c #4B1D28",
"E$	c #511F2C",
"F$	c #5E2333",
"G$	c #5D2332",
"H$	c #56212F",
"I$	c #53202D",
"J$	c #54212E",
"K$	c #55212E",
"L$	c #52202C",
"M$	c #4D1D29",
"N$	c #481B26",
"O$	c #411923",
"P$	c #3C161F",
"Q$	c #351119",
"R$	c #2F0D15",
"S$	c #290D13",
"T$	c #240D12",
"U$	c #200B10",
"V$	c #1C080D",
"W$	c #18060B",
"X$	c #0C0305",
"Y$	c #050102",
"Z$	c #020000",
"`$	c #030001",
" %	c #040101",
".%	c #0A0304",
"+%	c #0C0406",
"@%	c #0D0507",
"#%	c #0F0507",
"$%	c #100507",
"%%	c #120609",
"&%	c #15080B",
"*%	c #18090D",
"=%	c #1B0A0E",
"-%	c #1D0B10",
";%	c #1C0B10",
">%	c #1C0B0F",
",%	c #1D0B0F",
"'%	c #1E0B10",
")%	c #1E0C10",
"!%	c #1C0A0F",
"~%	c #1A0A0E",
"{%	c #18090C",
"]%	c #16070B",
"^%	c #100508",
"/%	c #0E0407",
"(%	c #0B0305",
"_%	c #010000",
":%	c #020001",
"<%	c #000000",
". + @ # $ % & * = - ; > , ' ) ! ~ { ] ^ / ( _ : < [ } | 1 2 3 4 5 6 7 8 9 0 a b c # d @ e f g h h h ",
"i j k l m n - o p q r s t u v w x y z A B C D E F G H I J K L M N O P Q R S T U V W X Y Z i `  . ...",
"j +.@.#.$.%.&.*.=.-.;.>.,.'.).!.~.{.].^./.(._.:.<.[.}.|.1.2.3.4.5.6.7.8.9.0.a.b.c.d.e.f.g.Z h.i.i.i.",
"+.j.k.l.m.n.o.p.q.r.s.t.u.v.w.x.y.z.A.B.C.D.E.F.G.H.I.J.K.L.M.N.O.P.Q.R.S.T.U.V.W.X.Y.Z.`. +.+++@+@+",
"#+$+%+&+*+=+-+;+>+,+'+)+!+~+{+]+^+/+(+_+:+<+[+}+|+1+2+3+4+5+6+7+8+9+0+a+b+c+d+e+f+g+h+i+j+k+l+m+n+n+",
"o+p+q+r+s+t+u+v+w+x+y+z+A+B+C+D+E+F+G+H+I+J+K+L+M+N+O+P+Q+R+S+T+U+V+W+X+Y+Z+`+ @.@+@@@#@$@%@k+&@*@`.",
"=@-@;@>@,@'@)@!@~@{@]@^@/@(@_@:@<@[@}@|@1@2@3@4@5@6@7@8@9@0@a@b@c@d@e@f@g@h@i@j@k@l@m@n@o@p@q@r@s@s@",
"t@u@v@w@x@y@z@A@B@C@D@E@F@G@H@I@J@K@L@M@N@O@P@Q@R@S@T@U@V@W@X@Y@Z@`@ #.#+#@###$#%#&#*#=#-#;#>#,#'#)#",
"!#~#{#]#^#/#(#(#_#:#<#[#}#|#1#2#3#4#5#6#7#8#9#0#a#b#c#d#e#f#g#h#i#j#k#l#m#n#o#p#q#r#s#t#u#v#w#x#y#z#",
"A#B#C#D#E#F#G#H#I#J#K#L#M#N#O#P#Q#R#S#T#U#V#W#X#Y#Z#`# $.$+$@$#$$$%$&$*$=$-$;$>$,$'$)$!$~${$]$^$/$($",
"=@_$;@:$<$[$}$|$1$2$3$^@4$(@5$6$<@7$8$9$0$2@3@a$b$c$d$e$f$g$h$b@c@i$j$f@k$l$i@j@m$l@n$o$t@p@q@p$s@q$",
"o+p+q+r+s+t+u+v+w+x+y+z+A+B+C+D+E+F+G+H+I+J+K+L+M+N+O+P+Q+R+S+T+U+V+W+X+Y+Z+`+ @.@+@@@#@$@%@k+&@*@`.",
"#+$+%+&+*+=+-+;+>+,+'+)+!+~+{+]+^+/+(+_+:+<+[+}+|+1+2+3+4+5+6+7+8+9+0+a+b+c+d+e+f+g+h+i+j+k+l+m+n+n+",
"+.j.k.l.m.n.o.p.q.r.s.t.u.v.w.x.y.z.A.B.C.D.E.F.G.H.I.J.K.L.M.N.O.P.Q.R.S.T.U.V.W.X.Y.Z.`. +.+++@+@+",
"j +.@.#.$.%.&.*.=.-.;.>.,.'.).!.~.{.].^./.(._.:.<.[.}.|.1.2.3.4.5.6.7.8.9.0.a.b.c.d.e.f.g.Z h.i.i.i.",
"i j k l m n - o p q r s t u v w x y z A B C D E F G H I J K L M N O P Q R S T U V W X Y Z i `  . ...",
"f + r$Z c s$t$u$v$w$x$y$z$A$B$C$1 D$^ E$_ F$G$H$I$J$K$L$M$N$2 O$P$Q$R$S$T$U$V$W$k Z X$i e f Y$h h g ",
"Z$`$ % %Y$f + .%+%@%#%$%%%&%*%=%-%-%;%>%,%'%'%)%)%)%,%,%!%~%{%]%% %%^%/%+%(%@ + . h `$Z$_%Z$Z$:%:%:%",
"<%<%<%<%<%<%<%<%<%<%<%<%<%<%<%<%<%<%<%<%<%<%<%<%<%<%<%<%<%<%<%<%<%<%<%<%<%<%<%<%<%<%<%<%<%<%<%<%<%<%",
"<%<%<%<%<%<%<%<%<%<%<%<%<%<%<%<%<%<%<%<%<%<%<%<%<%<%<%<%<%<%<%<%<%<%<%<%<%<%<%<%<%<%<%<%<%<%<%<%<%<%"};
