/* XPM */
static char * led_finished_xpm[] = {
"50 20 75 1",
" 	c None",
".	c #000000",
"+	c #010101",
"@	c #050505",
"#	c #0C0C0C",
"$	c #151515",
"%	c #1C1C1C",
"&	c #212121",
"*	c #242424",
"=	c #252525",
"-	c #222222",
";	c #202020",
">	c #020202",
",	c #0A0A0A",
"'	c #121212",
")	c #262626",
"!	c #303030",
"~	c #393939",
"{	c #424242",
"]	c #494949",
"^	c #4F4F4F",
"/	c #515151",
"(	c #505050",
"_	c #4D4D4D",
":	c #434343",
"<	c #3B3B3B",
"[	c #313131",
"}	c #272727",
"|	c #111111",
"1	c #090909",
"2	c #070707",
"3	c #131313",
"4	c #232323",
"5	c #2E2E2E",
"6	c #343434",
"7	c #383838",
"8	c #3E3E3E",
"9	c #404040",
"0	c #444444",
"a	c #454545",
"b	c #414141",
"c	c #3D3D3D",
"d	c #3C3C3C",
"e	c #333333",
"f	c #2B2B2B",
"g	c #0F0F0F",
"h	c #2A2A2A",
"i	c #2F2F2F",
"j	c #323232",
"k	c #363636",
"l	c #464646",
"m	c #3A3A3A",
"n	c #353535",
"o	c #292929",
"p	c #181818",
"q	c #060606",
"r	c #171717",
"s	c #2C2C2C",
"t	c #3F3F3F",
"u	c #373737",
"v	c #282828",
"w	c #2D2D2D",
"x	c #030303",
"y	c #080808",
"z	c #040404",
"A	c #141414",
"B	c #101010",
"C	c #191919",
"D	c #4B4B4B",
"E	c #4E4E4E",
"F	c #4A4A4A",
"G	c #484848",
"H	c #1E1E1E",
"I	c #0B0B0B",
"J	c #161616",
"..................................................",
"..................................................",
"..................................................",
"...............+@#$%&*=*-;%$#@+...................",
"............>,'%)!~{]^/(_]:<[}%|1>................",
"..........>234567<89{0aa0bcd<7ef;|2>..............",
".........>g%*hijkd0lbm7~~mm7nj!5o-p#>.............",
".........qr}shh5e~t9<nee6k7u6[5shv&|>.............",
".........2pv5sfffwi!jeej!iwwsssffo43x.............",
"........>yp}sfffswi[e6e[iwsfhhfffh43z.............",
"........+2r}wsffs5[67m~u6jiwfhhfff=Az.............",
".........x3*hfwi[n<tb::btc<uei5wso&'>.............",
"..........2BC-hj7tlDE^^_F]l97j5h-pg2..............",
"............z,|C&hjm{GGa9<n5)HrB,z................",
"................x2IBApCpJ'gIy@+...................",
"..................................................",
"..................................................",
"..................................................",
"..................................................",
".................................................."};
