/* XPM */
static char *led_waiting_glow[] = {
/* columns rows colors chars-per-pixel */
"30 30 218 2",
"   c #054604300050",
".  c #081C06810199",
"X  c #0C10097E0290",
"o  c #12890E24028C",
"O  c #165C12470498",
"+  c #1A5F14240495",
"@  c #1D8018110627",
"#  c #205B178705D0",
"$  c #22E51AE80650",
"%  c #28EB1F1C0729",
"&  c #23861C66084B",
"*  c #28571EAF090F",
"=  c #2A1A1FDE073C",
"-  c #26A120450951",
";  c #2B1822190902",
":  c #312C25EE09CD",
">  c #35402A7F0B73",
",  c #39D72CF50C04",
"<  c #3CCE324E0E3F",
"1  c #3E2C340B0FED",
"2  c #435434520D23",
"3  c #48ED36FC0DA6",
"4  c #4BBA38FE0E58",
"5  c #51C13D3D0EC3",
"6  c #427E3704104A",
"7  c #466439E810D2",
"8  c #4C033CD9119A",
"9  c #545D406E0F39",
"0  c #4F00418312A7",
"q  c #53A6434A1292",
"w  c #5C384559114D",
"e  c #5708491516DF",
"r  c #5C504A9B1522",
"t  c #57484B3B1805",
"y  c #5AA74C731857",
"u  c #5E3C511D1B4E",
"i  c #637A4CA91459",
"p  c #694E4E6612D7",
"a  c #61174F10190A",
"s  c #629A51411726",
"d  c #6C1D525B14C3",
"f  c #643952F71943",
"g  c #69C255F9199E",
"h  c #6D9A5AB71B36",
"j  c #724955A91562",
"k  c #7FC055D71718",
"l  c #74495A34163A",
"z  c #7BC05BC91691",
"x  c #752857C6179A",
"c  c #7A84573518E1",
"v  c #74335C751B1A",
"b  c #7A445CE31979",
"n  c #6F8361D71BCA",
"m  c #7E146148177E",
"M  c #76AA624E1BF4",
"N  c #7B3B635C1B4F",
"B  c #73185FB22227",
"V  c #7DF464F02238",
"C  c #82EA5D321AB5",
"Z  c #8F586A830F28",
"A  c #83B8629C1744",
"S  c #885F603B1141",
"D  c #84D6656519DF",
"F  c #8A8065791CEE",
"G  c #84CB69E31B60",
"H  c #8C126B5D1AE2",
"J  c #92306DF21C15",
"K  c #8DEE72A21D73",
"L  c #948471A91E32",
"P  c #9A1173FE1E9D",
"I  c #AE7D77A41710",
"U  c #842765C820FF",
"Y  c #86656AF022DC",
"T  c #8D376C1821B9",
"R  c #92706F7A24A9",
"E  c #8DD7714C2181",
"W  c #86FC73B42BF3",
"Q  c #8C5A76B92D0D",
"!  c #8CCA7AA92E71",
"~  c #9395725C212F",
"^  c #999574B222A1",
"/  c #943477D12C86",
"(  c #93D77D222E68",
")  c #9CA97BB12D02",
"_  c #A4147EEB2B1E",
"`  c #B5CB81251057",
"'  c #BB7089341180",
"]  c #B77184561A6D",
"[  c #BDC992631DEF",
"{  c #97A581C32DB4",
"}  c #937682F8348B",
"|  c #9BE786A731A9",
" . c #9D4B88AF3302",
".. c #A53985A421DD",
"X. c #A30381E72D12",
"o. c #AE6085402A3E",
"O. c #A71A894F2F2C",
"+. c #AB278D232E36",
"@. c #B697837E207F",
"#. c #B5658BFE2C5D",
"$. c #BE9B8D022E68",
"%. c #A97E99C62EBD",
"&. c #BCC09D4B200F",
"*. c #B43895A62EF5",
"=. c #AC8792FF32FE",
"-. c #AFC493313929",
";. c #B2F594E5312F",
":. c #B5139B4E3370",
">. c #BA6E9CEA32BD",
",. c #B5EA99E839A6",
"<. c #BF19A0FD2E39",
"1. c #BF5CAA8A29FD",
"2. c #BF7DA8B730BA",
"3. c #C38099021BFF",
"4. c #EF4D9B721F74",
"5. c #F28D9FDB1DA2",
"6. c #C647A2721644",
"7. c #C9B2A210164C",
"8. c #D878AF8A1E7A",
"9. c #E4BFA7E91C82",
"0. c #EDDCA4941EBA",
"q. c #E781AB491E18",
"w. c #EE9DABF11D26",
"e. c #F9A9AFAE176D",
"r. c #F549A4861BD9",
"t. c #F602AE1C1A4A",
"y. c #F937ACFD1849",
"u. c #EBCBB5EB1991",
"i. c #E110BAA31F1D",
"p. c #F7B0B4E415EF",
"a. c #F9EAB30515E5",
"s. c #FB1FBB3811BE",
"d. c #F9D1B2431E2F",
"f. c #C3198F6E2E30",
"g. c #CB128E9B2CBE",
"h. c #C13C91D32463",
"j. c #CE9799EB27A1",
"k. c #C5B5946F2CA0",
"l. c #CD3E92DA2C61",
"z. c #C4179BCB2BC2",
"x. c #CE449A9F2A1A",
"c. c #DD21942B26BB",
"v. c #DE709A102664",
"b. c #D4BE94D629EA",
"n. c #DAC294A12831",
"m. c #D5209B092926",
"M. c #E4FF959A23BF",
"N. c #E90F97222269",
"B. c #E3579C9B23B4",
"V. c #ECD89CB420FD",
"C. c #E1589C552A7B",
"Z. c #C4E9A581247C",
"A. c #C6FDA2F42D82",
"S. c #CF4FA3DD2BF0",
"D. c #C801ADA82E8E",
"F. c #CDC8AE832957",
"G. c #DC50A1C626EE",
"H. c #DE24AD3D23E8",
"J. c #D383A3B72BE0",
"K. c #CE89B0FB23D6",
"L. c #CC85B1232BA6",
"P. c #DB57B3492374",
"I. c #D634B58E2ACD",
"U. c #DC83BCE1290B",
"Y. c #C09AA6A4303B",
"T. c #E46AA9D423B3",
"R. c #E8A6AD1B2254",
"E. c #E2F6B3C3223C",
"W. c #FA66B6ED1FB2",
"Q. c #F9C7BB4B253E",
"!. c #ECE3A5AF384B",
"~. c #F6C5AE5A332D",
"^. c #F7FBCEA706A8",
"/. c #FE8BCD500683",
"(. c #FC5BC38B0CC8",
"). c #FD96CABB0938",
"_. c #FF4AD682042F",
"`. c #FF3BDB2003EC",
"'. c #FEA4D4B908E8",
"]. c #FF07DA7C0810",
"[. c #EC2CC9B816E6",
"{. c #FDDECB271378",
"}. c #FF51E2720BF7",
"|. c #FF87E65916F6",
" X c #FF5CE804189F",
".X c #EC5DC5FB2073",
"XX c #FDABCA232C83",
"oX c #FBD6DA203B8E",
"OX c #FFB2E39621EA",
"+X c #FF9BED9B25BB",
"@X c #FFF9EDC43440",
"#X c #FFECEFCB3A60",
"$X c #FFFFF14331CB",
"%X c #FFFEF1223CD1",
"&X c #FB92C2954559",
"*X c #FDF8CF454CB5",
"=X c #E8D1C1F351C6",
"-X c #EB6EC6F95BDA",
";X c #F4D8C0A15E5C",
":X c #FFDDF2B74A9F",
">X c #FEDDE5A6535F",
",X c #EEB5DFD17518",
"<X c #FBEFD18475DE",
"1X c #FFBDF5C67C7F",
"2X c #F652D03D8F51",
"3X c #EEFADD6B85D6",
"4X c #FBF7D950947D",
"5X c #F80CE0A68194",
"6X c #F7D4E0E38831",
"7X c #FF5DF55183EA",
"8X c #FFFAF7958F3A",
"9X c #FBDCE98998ED",
"0X c #FFB4F823A9EF",
"qX c #F4D1EDA6B48E",
"wX c #FF51F7B4B2C9",
"eX c #FEFBF88ABD61",
"rX c #FF9DF95AC1E2",
"tX c #FEAFFB64DABC",
/* pixels */
"      . X o O @ - - > > , < < 1 < < > : ; - @ + O X . .     ",
"    X X o + $ - : < < 2 0 0 q q 0 8 7 < , : = @ O O X .     ",
". . X o + $ ; > < 0 9 r s n g g g s r q 7 < , ; $ + O X . . ",
". X o + - ; , 3 0 r d n n N N N N M h d r 0 2 , ; @ O o X . ",
"X o O # = , 7 9 i l N G K K K K K G G N j i 9 3 , ; # O o . ",
"X o + % > 3 9 p l G K l d G ) ) U i p G A l i 9 2 > % + o X ",
"o + $ : 2 5 p l G K l Z K.,XqXqX3XD.S d K A l i 5 , : $ O o ",
"O + % , 3 w j A H m ' ^.$X1X0X0X8X:X'.` z H D d w 3 > = # o ",
"O # : 2 9 p A H z ] (./.]. X@X%X+X}._.(.I p D z p 5 2 = # O ",
"+ % > 4 w j H H P q.p.s.(.).`.`.'.{.(.s.q.k z D p w 3 = $ # ",
"# % , 4 i z H D h.T.w.t.p.s.(.(.XX*XQ.t.R.@.z H C w 4 2 = # ",
"# : 3 9 d D H D j.G.B.;X<Xd.s.s.Q.&X~.B.G.j.k H C p 5 2 = # ",
"$ : 2 w j H J ^ m.n.C.2X4XW.a.a.y.r.V.C.m.b.C F C j 5 2 : # ",
"% > 3 w x H L ^ x.b.c.!.~.e.e.e.y.5.M.n.b.g.F J Z j w 3 : $ ",
"% , 4 i b J ^ ^ k.b.c.M.5.y.e.e.r.5.M.b.g.f.F J F c w 3 > * ",
"% , 4 i b J ^ ~ k.b.c.N.r.e.e.e.r.4.c.b.g.$.T J F k w 4 > * ",
"% , 5 i b ~ ^ ~ k.m.B.r.y.s.(.s.p.r.M.b.l.$.T J H c i 8 > * ",
"* , 5 a N ~ ^ T z.G.0.a.)._.`._.).p.0.v.l.$.T ^ T c r 8 , % ",
"; , 5 a N E E Y A.P.p._.|.#X:X#X|.).a.B.l.#.Y R T c i 8 , * ",
"; , q a V E E V 1.[.(.@X7XwXeXwX1XOXs.B.$.X.Y T R B i 8 , * ",
"; 1 8 a M E Y V %.K.u.>XrXtXtXtXwXoX9.f.) ( V Y T c a 8 < ; ",
"% , 8 r v V y V | { o.S.-X6X9X5X=Xk._  .W ! W B B B i 7 > - ",
"; > 8 y h B f +.| } Q / _ #.A.z.X./ W } W ! O.B x h r 7 > - ",
"- > 7 e h g y :.*.| ( ( ( ( =.=.( Q !  .} +.*.D g h y 7 < - ",
"* > 1 e g s y =.:.:.*.-.,.,.:.:.;.=.-.,.;.=.;.U f g e 7 > - ",
"& : 1 0 s y f <.:.=.=.,.,.<.Y.2.>.:.,.:.%.;.Y.^ a i q 2 : & ",
"& ; , 7 t u g Z.I.A.*.;.=.:.D.L.:.:.:.2.K.i.8.M r y 7 < ; & ",
"@ - > 1 0 u t n [ E.H.G.J.Y.I.U.F.P.i..X[.6.m e y q 6 > - @ ",
"O & - 1 1 t u y y M ..&.[ @.h.3.3.7.6...N g t s r 8 < ; & + ",
"O @ - > 1 0 t u g h n f t u f f s h M M h h g t 0 2 > - @ O "
};
