/* XPM */
static char * led_finished_xpm[] = {
"50 50 271 2",
"  	c None",
". 	c #000000",
"+ 	c #000101",
"@ 	c #010101",
"# 	c #010202",
"$ 	c #000202",
"% 	c #010303",
"& 	c #020202",
"* 	c #020303",
"= 	c #020404",
"- 	c #020505",
"; 	c #030606",
"> 	c #030505",
", 	c #030707",
"' 	c #040707",
") 	c #050909",
"! 	c #050A0A",
"~ 	c #060C0C",
"{ 	c #070E0E",
"] 	c #081010",
"^ 	c #0C1616",
"/ 	c #0C1818",
"( 	c #0D1919",
"_ 	c #0E1B1B",
": 	c #0D1818",
"< 	c #0C1717",
"[ 	c #0A1313",
"} 	c #091010",
"| 	c #070D0D",
"1 	c #060B0B",
"2 	c #040909",
"3 	c #040808",
"4 	c #070C0C",
"5 	c #122222",
"6 	c #1B3232",
"7 	c #264747",
"8 	c #2E5454",
"9 	c #305757",
"0 	c #2B5050",
"a 	c #234040",
"b 	c #162929",
"c 	c #0E1A1A",
"d 	c #0A1111",
"e 	c #060A0A",
"f 	c #030808",
"g 	c #152727",
"h 	c #284A4A",
"i 	c #3D7171",
"j 	c #4C8B8B",
"k 	c #519595",
"l 	c #4F9191",
"m 	c #509393",
"n 	c #4B8B8B",
"o 	c #3B6C6C",
"p 	c #244242",
"q 	c #122121",
"r 	c #3B6D6D",
"s 	c #498686",
"t 	c #4E8F8F",
"u 	c #529797",
"v 	c #4B8989",
"w 	c #468181",
"x 	c #4E9090",
"y 	c #488585",
"z 	c #3A6A6A",
"A 	c #1F3B3B",
"B 	c #2C5151",
"C 	c #3E7373",
"D 	c #457F7F",
"E 	c #4D8E8E",
"F 	c #529898",
"G 	c #4C8D8D",
"H 	c #519696",
"I 	c #457E7E",
"J 	c #3C7070",
"K 	c #274949",
"L 	c #0B1515",
"M 	c #2D5454",
"N 	c #3B6E6E",
"O 	c #407777",
"P 	c #458080",
"Q 	c #498888",
"R 	c #4C8C8C",
"S 	c #519797",
"T 	c #509494",
"U 	c #498787",
"V 	c #447F7F",
"W 	c #407676",
"X 	c #3A6B6B",
"Y 	c #050808",
"Z 	c #274848",
"` 	c #3D7070",
" .	c #417777",
"..	c #437B7B",
"+.	c #478484",
"@.	c #4B8A8A",
"#.	c #488484",
"$.	c #427A7A",
"%.	c #407575",
"&.	c #386969",
"*.	c #192E2E",
"=.	c #070B0B",
"-.	c #182E2E",
";.	c #396969",
">.	c #3C6F6F",
",.	c #407474",
"'.	c #417979",
").	c #4A8686",
"!.	c #4A8989",
"~.	c #4A8787",
"{.	c #3E7171",
"].	c #3D6F6F",
"^.	c #3C6E6E",
"/.	c #396868",
"(.	c #346060",
"_.	c #0C1515",
":.	c #091111",
"<.	c #325C5C",
"[.	c #366464",
"}.	c #396A6A",
"|.	c #3A6C6C",
"1.	c #3F7373",
"2.	c #417676",
"3.	c #427979",
"4.	c #447E7E",
"5.	c #478181",
"6.	c #447D7D",
"7.	c #417878",
"8.	c #3F7474",
"9.	c #386767",
"0.	c #376767",
"a.	c #234141",
"b.	c #193030",
"c.	c #366363",
"d.	c #376565",
"e.	c #386666",
"f.	c #396B6B",
"g.	c #4A8888",
"h.	c #4E8E8E",
"i.	c #3E7474",
"j.	c #386868",
"k.	c #376666",
"l.	c #356363",
"m.	c #335F5F",
"n.	c #2A4D4D",
"o.	c #356262",
"p.	c #5DA5A5",
"q.	c #60A8A8",
"r.	c #4D8D8D",
"s.	c #498585",
"t.	c #346161",
"u.	c #376464",
"v.	c #172B2B",
"w.	c #040606",
"x.	c #305858",
"y.	c #366262",
"z.	c #5FA9A9",
"A.	c #599E9E",
"B.	c #3E7272",
"C.	c #3F7575",
"D.	c #223F3F",
"E.	c #325B5B",
"F.	c #468080",
"G.	c #3D7272",
"H.	c #478282",
"I.	c #284B4B",
"J.	c #101F1F",
"K.	c #325D5D",
"L.	c #2C5353",
"M.	c #132323",
"N.	c #346262",
"O.	c #142424",
"P.	c #315C5C",
"Q.	c #366565",
"R.	c #3A6D6D",
"S.	c #2E5555",
"T.	c #040A0A",
"U.	c #315A5A",
"V.	c #3B6F6F",
"W.	c #305A5A",
"X.	c #080E0E",
"Y.	c #305959",
"Z.	c #112020",
"`.	c #3C6D6D",
" +	c #468282",
".+	c #437D7D",
"++	c #2D5353",
"@+	c #0F1D1D",
"#+	c #2F5757",
"$+	c #294D4D",
"%+	c #0E1919",
"&+	c #478383",
"*+	c #4F9292",
"=+	c #519494",
"-+	c #509292",
";+	c #4D9090",
">+	c #488686",
",+	c #0D1717",
"'+	c #264545",
")+	c #4F9090",
"!+	c #458181",
"~+	c #213E3E",
"{+	c #050B0B",
"]+	c #294C4C",
"^+	c #488383",
"/+	c #4C8A8A",
"(+	c #4E8D8D",
"_+	c #356161",
":+	c #2E5656",
"<+	c #2C4F4F",
"[+	c #203D3D",
"}+	c #203A3A",
"|+	c #254444",
"1+	c #5EA3A3",
"2+	c #66ADAD",
"3+	c #65ACAC",
"4+	c #5BA0A0",
"5+	c #4A8A8A",
"6+	c #2F5656",
"7+	c #2B4F4F",
"8+	c #294B4B",
"9+	c #203B3B",
"0+	c #182C2C",
"a+	c #203C3C",
"b+	c #223E3E",
"c+	c #284949",
"d+	c #519393",
"e+	c #559999",
"f+	c #569999",
"g+	c #234242",
"h+	c #162727",
"i+	c #162828",
"j+	c #213D3D",
"k+	c #213C3C",
"l+	c #1F3A3A",
"m+	c #203939",
"n+	c #325E5E",
"o+	c #2C5252",
"p+	c #2A4C4C",
"q+	c #264646",
"r+	c #254545",
"s+	c #1E3838",
"t+	c #1D3636",
"u+	c #2A4E4E",
"v+	c #336060",
"w+	c #244444",
"x+	c #142525",
"y+	c #1E3737",
"z+	c #1D3737",
"A+	c #1C3535",
"B+	c #1D3535",
"C+	c #315B5B",
"D+	c #244343",
"E+	c #1F3838",
"F+	c #335E5E",
"G+	c #111F1F",
"H+	c #345E5E",
"I+	c #315959",
"J+	c #335D5D",
"K+	c #2C5050",
"L+	c #2B4E4E",
"M+	c #2A4F4F",
"N+	c #2D5252",
"O+	c #122323",
"P+	c #0F1C1C",
"Q+	c #101D1D",
"R+	c #294A4A",
"S+	c #132222",
"T+	c #274747",
"U+	c #1C3333",
"V+	c #1A3030",
". . . . . . . . . . . . . . . . . . . . . . . . . . . . . . . . . . . . . . . . . . . . . . . . . . ",
". . . . . . . . . . . . . . . . . . . . . . . . . . . . . . . . . . . . . . . . . . . . . . . . . . ",
". . . . . . . . . . . . . . . . . . . . . . . . . . . . . . . . . . . . . . . . . . . . . . . . . . ",
". . . . . . . . . . . . . . . . . . . . . . . . . . . . . . . . . . . . . . . . . . . . . . . . . . ",
". . . . . . . . . . . . . . . . . . . . . . . . . . . . . . . . . . . . . . . . . . . . . . . . . . ",
". . . . . . . . . . . . . . . . . . . . . . . . . . . . . . . . . . . . . . . . . . . . . . . . . . ",
". . . . . . . . . . . . . . . . . . . . . . . . . . . . . . . . . . . . . . . . . . . . . . . . . . ",
". . . . . . . . . . + + @ # # $ # % & * = = - ; > - = % * # # # @ + # # + + $ + . . . . . . . . . . ",
". . . . . . . . . # ; , , , ; ' ) ! ~ { ] ^ / ( _ : < [ } | 1 ) 2 , ; ; ; ; ' - . . . . . . . . . . ",
". . . . . . . . . & ; ; ; , 2 3 1 4 | ] : 5 6 7 8 9 0 a b c d ~ e ) 3 ' f ; ; > . . . . . . . . . . ",
". . . . . . . . . # > ; ; 3 3 ! 1 4 [ g h i j k k l m k n o p q | ) ! ) 3 ' ; = . . . . . . . . . . ",
". . . . . . . . . * ; ; ; 3 ) 1 e : p r s t u m v w s l u x y z A [ 2 ) 3 ' 3 - . . . . . . . . . . ",
". . . . . . . . . * ; ' 3 2 2 e _ B C D v E k F l G t H u x v I J K L ! 2 3 3 - . . . . . . . . . . ",
". . . . . . . . . = 3 , 2 ! 1 ^ M N O P Q R E m S u u T x j U V W X a { 2 Y ) ; . . . . . . . . . . ",
". . . . . . . . . * ' 3 ) ! | Z X `  ...D +.U @.E x E @.U #.I $.%.N &.*.=.3 3 > . . . . . . . . . . ",
". . . . . . . . . * ' ' ! ! -.;.;.>.i ,.'...w y ).!.~.#.P $.W {.].^./.(._.) 3 - . . . . . . . . . . ",
". . . . . . . . . * Y ) ) :.<.[.}.|.r J 1.2.3.4.5.+.w 6.7.8.>.r }./.9.0.a.' 2 , . . . . . . . . . . ",
". . . . . . . . . = 2 ! ' b.c.c.d.e.f.|.g.h.I $...6...7.1.8.i.j.k.[.c.l.m.:.) , . . . . . . . . . . ",
". . . . . . . . . * ) ! 3 n.o.o.o.c.0...p.q.r.2.7.7. .C $.s.#.X o.t.d.9.u.v.w.; . . . . . . . . . . ",
". . . . . . . . . % ) ) ] x.c.t.t.y.u.G z.A.7.B.C.W 8.` 7.~.s 7.t.o.d.d.c.D.> ; . . . . . . . . . . ",
". . . . . . . . . = 2 , : E.c.o.t.o.c.k.I F.>.i 1.,.G.].N I H.$.o.o.o.o.c.I.; > . . . . . . . . . . ",
". . . . . . . . . * ) ' J.K.c.c.o.t.l.9.&.X ^.` i 8.i r f.r k.[.o.c.o.o.c.0 ! ; . . . . . . . . . . ",
". . . . . . . . . = ) ' 5 <.c.o.o.t.o.d./.f.>.` ` ` ` o j.c.o.t.c.l.o.c.o.L.| , . . . . . . . . . . ",
". . . . . . . . . * 3 ' M.<.c.c.o.o.t.[./.}.r >.>.>.N z k.c.t.o.c.c.c.o.N.8 { ; . . . . . . . . . . ",
". . . . . . . . . * ! 3 O.P.o.c.c.o.t.Q./.X N >.>.>.R.z d.o.t.c.o.o.c.o.o.S.{ > . . . . . . . . . . ",
". . . . . . . . . = T., 5 U.o.c.c.o.o.Q.9.R.>.>.` {.N }.d.o.t.c.o.c.o.t.o.8 { > . . . . . . . . . . ",
". . . . . . . . . = ) 3 5 U.o.c.c.o.l.9.z V.` {.C {.>.|.j.o.t.t.c.o.c.o.o.S.{ ; . . . . . . . . . . ",
". . . . . . . . . * T.3 5 W.o.c.c.o.[./.N i 1.W  .W {.N ;.[.o.o.o.c.l.c.c.S.X.; . . . . . . . . . . ",
". . . . . . . . . * 3 3 q Y.o.c.c.o.[.X ` 8.7.$...$. .B.r j.u.t.t.o.c.Q.u.8 | ; . . . . . . . . . . ",
". . . . . . . . . * 3 3 Z.Y.o.c.o.o.k.`.8.'.V  + +P .+ .B.r ;.[.o.o.c.Q.d.++{ , . . . . . . . . . . ",
". . . . . . . . . % ) Y @+#+o.c.o.o.f.B...H.~.g.!.g.s.P $.1.N }.d.o.c.k.d.$+e ; . . . . . . . . . . ",
". . . . . . . . . * ) Y %+B t.c.o.d.^.7.&+@.x *+=+-+;+n >+D O ` r [.[.9.(.p e ; . . . . . . . . . . ",
". . . . . . . . . * ! ) ,+'+W.c.c.k.B.D @.m k t @.j )+=+l !.!+2.^.u.[.Q.#+~+{+' . . . . . . . . . . ",
". . . . . . . . . * 2 3 ^ a ]+<.o.Q.B.^+x T ~./+(+(+).~.k *++.C 0._+<.:+<+[+{+; . . . . . . . . . . ",
". . . . . . . . . * 2 ' [ }+|+h ++(.j...x m j 1+2+3+4+5+t  +>.d.(.6+7+8+]+9+) ; . . . . . . . . . . ",
". . . . . . . . . * 3 4 0+a+b+~+a.c+#+d.` I @.d+e+f+h..+^.9.[.K.S.8+Z K c+g+h+' . . . . . . . . . . ",
". . . . . . . . . * 3 i+$+j+k+l+m+9+b+K Y.y.e.}.z ;.d.c.o.n+x.o+p+q+r+r+Z K n.: . . . . . . . . . . ",
". . . . . . . . . * 1 s+W.p l+l+t+t+t+}+a u+m.t.(.(.(.v+K.#+0 8+q+g+g+w+q+B <.x+. . . . . . . . . . ",
". . . . . . . . . = e t+<.++j+y+z+A+B+z+9+Z C+m.Y.W.C+m.C+++n.Z r+|+D+q+]+n+<.q . . . . . . . . . . ",
". . . . . . . . . * ! *.M C+S.q+}+t+y+E+l+'+x.K.Y.Y.F+m.Y.++u+I.Z q+8+8 <.K.8 G+. . . . . . . . . . ",
". . . . . . . . . * 1 b.7+o+F+m.x.n.|+~+j+Z U.H+C+<.(.t.F+C+6+8 6+I+J+F+U.M K+Z.. . . . . . . . . . ",
". . . . . . . . . % 1 z+S.L+M+U.n+F+}.7.%.c.(.t.t.t.(.o.l.0.z z 0.v+U.M N+8 6+5 . . . . . . . . . . ",
". . . . . . . . . * {+a+(.#+B ++0 h Z n.I+[.d.u.c.o.t.t.o.o.o.(.<.8 B N+#+n+n+O+. . . . . . . . . . ",
". . . . . . . . . * ) y+[.(.Y.Y.#+K+n.7+Y.N.o.o.t.o.t.o.t._+t.K.U.#+#+K.t.c.E.P+. . . . . . . . . . ",
". . . . . . . . . * ; Q+#+[.o._+F+:+7+u+C+Q.o.c.o.t.m.(.t.t.v+m.F+m.t.[.c.u.R+! . . . . . . . . . . ",
". . . . . . . . . * ; , S+:+9.[.c.(.E.6+W.[.c.o.o.v+K.m.o.o.o.c.o.l.o.d.9.T+: . . . . . . . . . . . ",
". . . . . . . . . # 3 ; 3 [ U+:+u.k.k.[.l.0.X o.o.o.o.c.o.c.o.c.[.k.k.7+i+] , + . . . . . . . . . . ",
". . . . . . . . . # > w.' 3 ! 1 ] Z.6 q+M c.e.[.d.u.d.u.[.[.[.P.7+y+: 1 e 2 ; . . . . . . . . . . . ",
". . . . . . . . . . . . . . + + $ # # % = ! P+8+~+a L+8+V+g : 3 , ' ' ' , > * . . . . . . . . . . . ",
". . . . . . . . . . . . . . . . . . . . . . . . . . . . . . . . . . . . . . . . . . . . . . . . . . "};
