<?xml version="1.0" encoding="UTF-8" standalone="no"?>
<!DOCTYPE svg PUBLIC "-//W3C//DTD SVG 1.1//EN"
 "http://www.w3.org/Graphics/SVG/1.1/DTD/svg11.dtd">
<!-- Generated by graphviz version 2.30.1 (20150306.0020)
 -->
<!-- Title: %3 Pages: 1 -->
<svg width="590pt" height="192pt"
 viewBox="0.00 0.00 590.00 192.00" xmlns="http://www.w3.org/2000/svg" xmlns:xlink="http://www.w3.org/1999/xlink">
<g id="graph0" class="graph" transform="scale(1 1) rotate(0) translate(4 188)">
<title>%3</title>
<polygon fill="white" stroke="white" points="-4,5 -4,-188 587,-188 587,5 -4,5"/>
<!-- model.2021 -->
<g id="node1" class="node"><title>model.2021</title>
<g id="a_node1"><a xlink:href="model.2021" xlink:title="model\n2021">
<ellipse fill="#00b4fd" stroke="black" cx="134" cy="-85" rx="36.125" ry="26.7407"/>
<text text-anchor="middle" x="134" y="-88.8" font-family="Courier" font-size="14.00">model</text>
<text text-anchor="middle" x="134" y="-73.8" font-family="Courier" font-size="14.00">2021</text>
</a>
</g>
</g>
<!-- model.2022 -->
<g id="node2" class="node"><title>model.2022</title>
<g id="a_node2"><a xlink:href="model.2022" xlink:title="model\n2022">
<ellipse fill="#00b4fd" stroke="black" cx="242" cy="-121" rx="36.125" ry="26.7407"/>
<text text-anchor="middle" x="242" y="-124.8" font-family="Courier" font-size="14.00">model</text>
<text text-anchor="middle" x="242" y="-109.8" font-family="Courier" font-size="14.00">2022</text>
</a>
</g>
</g>
<!-- model.2021&#45;&gt;model.2022 -->
<g id="edge1" class="edge"><title>model.2021&#45;&gt;model.2022</title>
<path fill="none" stroke="#00b4fd" stroke-width="2" d="M167.091,-95.8989C177.262,-99.353 188.655,-103.223 199.394,-106.87"/>
<polygon fill="#00b4fd" stroke="#00b4fd" points="198.424,-110.236 209.018,-110.138 200.675,-103.608 198.424,-110.236"/>
</g>
<!-- post.2021 -->
<g id="node3" class="node"><title>post.2021</title>
<g id="a_node3"><a xlink:href="post.2021" xlink:title="post\n2021">
<ellipse fill="#ff5966" stroke="black" cx="242" cy="-49" rx="31.2258" ry="26.7407"/>
<text text-anchor="middle" x="242" y="-52.8" font-family="Courier" font-size="14.00">post</text>
<text text-anchor="middle" x="242" y="-37.8" font-family="Courier" font-size="14.00">2021</text>
</a>
</g>
</g>
<!-- model.2021&#45;&gt;post.2021 -->
<g id="edge2" class="edge"><title>model.2021&#45;&gt;post.2021</title>
<path fill="none" stroke="#00b4fd" stroke-width="2" d="M167.091,-74.1011C178.516,-70.2208 191.485,-65.8162 203.335,-61.7917"/>
<polygon fill="#00b4fd" stroke="#00b4fd" points="204.624,-65.0504 212.968,-58.5204 202.373,-58.4222 204.624,-65.0504"/>
</g>
<!-- model.2023 -->
<g id="node4" class="node"><title>model.2023</title>
<g id="a_node4"><a xlink:href="model.2023" xlink:title="model\n2023">
<ellipse fill="#00b4fd" stroke="black" cx="350" cy="-157" rx="36.125" ry="26.7407"/>
<text text-anchor="middle" x="350" y="-160.8" font-family="Courier" font-size="14.00">model</text>
<text text-anchor="middle" x="350" y="-145.8" font-family="Courier" font-size="14.00">2023</text>
</a>
</g>
</g>
<!-- model.2022&#45;&gt;model.2023 -->
<g id="edge3" class="edge"><title>model.2022&#45;&gt;model.2023</title>
<path fill="none" stroke="#00b4fd" stroke-width="2" d="M275.091,-131.899C285.262,-135.353 296.655,-139.223 307.394,-142.87"/>
<polygon fill="#00b4fd" stroke="#00b4fd" points="306.424,-146.236 317.018,-146.138 308.675,-139.608 306.424,-146.236"/>
</g>
<!-- post.2022 -->
<g id="node5" class="node"><title>post.2022</title>
<g id="a_node5"><a xlink:href="post.2022" xlink:title="post\n2022">
<ellipse fill="#ff5966" stroke="black" cx="350" cy="-85" rx="31.2258" ry="26.7407"/>
<text text-anchor="middle" x="350" y="-88.8" font-family="Courier" font-size="14.00">post</text>
<text text-anchor="middle" x="350" y="-73.8" font-family="Courier" font-size="14.00">2022</text>
</a>
</g>
</g>
<!-- model.2022&#45;&gt;post.2022 -->
<g id="edge4" class="edge"><title>model.2022&#45;&gt;post.2022</title>
<path fill="none" stroke="#00b4fd" stroke-width="2" d="M275.091,-110.101C286.516,-106.221 299.485,-101.816 311.335,-97.7917"/>
<polygon fill="#00b4fd" stroke="#00b4fd" points="312.624,-101.05 320.968,-94.5204 310.373,-94.4222 312.624,-101.05"/>
</g>
<!-- post.2023 -->
<g id="node6" class="node"><title>post.2023</title>
<g id="a_node6"><a xlink:href="post.2023" xlink:title="post\n2023">
<ellipse fill="#ff5966" stroke="black" cx="453" cy="-157" rx="31.2258" ry="26.7407"/>
<text text-anchor="middle" x="453" y="-160.8" font-family="Courier" font-size="14.00">post</text>
<text text-anchor="middle" x="453" y="-145.8" font-family="Courier" font-size="14.00">2023</text>
</a>
</g>
</g>
<!-- model.2023&#45;&gt;post.2023 -->
<g id="edge5" class="edge"><title>model.2023&#45;&gt;post.2023</title>
<path fill="none" stroke="#00b4fd" stroke-width="2" d="M386.325,-157C394.404,-157 403.055,-157 411.339,-157"/>
<polygon fill="#00b4fd" stroke="#00b4fd" points="411.564,-160.5 421.564,-157 411.564,-153.5 411.564,-160.5"/>
</g>
<!-- stop.2023 -->
<g id="node7" class="node"><title>stop.2023</title>
<g id="a_node7"><a xlink:href="stop.2023" xlink:title="stop\n2023">
<ellipse fill="#ffcc00" stroke="black" cx="551" cy="-157" rx="31.2258" ry="26.7407"/>
<text text-anchor="middle" x="551" y="-160.8" font-family="Courier" font-size="14.00">stop</text>
<text text-anchor="middle" x="551" y="-145.8" font-family="Courier" font-size="14.00">2023</text>
</a>
</g>
</g>
<!-- post.2023&#45;&gt;stop.2023 -->
<g id="edge6" class="edge"><title>post.2023&#45;&gt;stop.2023</title>
<path fill="none" stroke="#ff5966" stroke-width="2" d="M484.375,-157C492.42,-157 501.232,-157 509.714,-157"/>
<polygon fill="#ff5966" stroke="#ff5966" points="509.823,-160.5 519.823,-157 509.823,-153.5 509.823,-160.5"/>
</g>
<!-- prep.2021 -->
<g id="node8" class="node"><title>prep.2021</title>
<g id="a_node8"><a xlink:href="prep.2021" xlink:title="prep\n2021">
<ellipse fill="#00c798" stroke="black" cx="31" cy="-85" rx="31.2258" ry="26.7407"/>
<text text-anchor="middle" x="31" y="-88.8" font-family="Courier" font-size="14.00">prep</text>
<text text-anchor="middle" x="31" y="-73.8" font-family="Courier" font-size="14.00">2021</text>
</a>
</g>
</g>
<!-- prep.2021&#45;&gt;model.2021 -->
<g id="edge7" class="edge"><title>prep.2021&#45;&gt;model.2021</title>
<path fill="none" stroke="#00c798" stroke-width="2" d="M62.3033,-85C70.2348,-85 78.962,-85 87.497,-85"/>
<polygon fill="#00c798" stroke="#00c798" points="87.746,-88.5001 97.746,-85 87.746,-81.5001 87.746,-88.5001"/>
</g>
</g>
</svg>
