/* XPM */
static char * digit_5_xpm[] = {
"10 20 161 2",
"  	c None",
". 	c #0C2E05",
"+ 	c #0D2D02",
"@ 	c #0B2E02",
"# 	c #0B3201",
"$ 	c #0B3301",
"% 	c #0C3101",
"& 	c #103103",
"* 	c #0E3001",
"= 	c #0F3100",
"- 	c #0B3302",
"; 	c #0B3506",
"> 	c #061D05",
", 	c #0A1E07",
"' 	c #091D05",
") 	c #071D03",
"! 	c #051E03",
"~ 	c #061E01",
"{ 	c #051C03",
"] 	c #071D05",
"^ 	c #071E01",
"/ 	c #081E03",
"( 	c #031D02",
"_ 	c #072002",
": 	c #061F03",
"< 	c #09200B",
"[ 	c #0E2004",
"} 	c #0D1C07",
"| 	c #071E06",
"1 	c #011C0A",
"2 	c #051E0A",
"3 	c #072003",
"4 	c #091E05",
"5 	c #071D07",
"6 	c #1F4318",
"7 	c #5D8C29",
"8 	c #7EA425",
"9 	c #87AA26",
"0 	c #54731A",
"a 	c #0C2306",
"b 	c #071F06",
"c 	c #072001",
"d 	c #081F05",
"e 	c #1A4316",
"f 	c #3E752A",
"g 	c #598224",
"h 	c #739421",
"i 	c #78981F",
"j 	c #48661D",
"k 	c #08270E",
"l 	c #061F07",
"m 	c #051E01",
"n 	c #051E04",
"o 	c #487422",
"p 	c #669A2E",
"q 	c #122909",
"r 	c #091F05",
"s 	c #0A1E06",
"t 	c #062410",
"u 	c #042910",
"v 	c #072006",
"w 	c #061E04",
"x 	c #0A1F08",
"y 	c #61851B",
"z 	c #8BB32B",
"A 	c #172B0C",
"B 	c #061D08",
"C 	c #06250F",
"D 	c #092715",
"E 	c #092107",
"F 	c #081F04",
"G 	c #091E08",
"H 	c #6B8B1E",
"I 	c #93B927",
"J 	c #182C0C",
"K 	c #0E2006",
"L 	c #122003",
"M 	c #092510",
"N 	c #022A0C",
"O 	c #081F06",
"P 	c #071E08",
"Q 	c #344E13",
"R 	c #5F8723",
"S 	c #598726",
"T 	c #789C21",
"U 	c #80A121",
"V 	c #4E6E1D",
"W 	c #0A240D",
"X 	c #091D08",
"Y 	c #071F05",
"Z 	c #061F06",
"` 	c #041E0A",
" .	c #1D441B",
"..	c #5B8624",
"+.	c #799C25",
"@.	c #7D9F22",
"#.	c #5F8C28",
"$.	c #24511B",
"%.	c #09200C",
"&.	c #072100",
"*.	c #04270B",
"=.	c #042915",
"-.	c #0F220B",
";.	c #0E230A",
">.	c #0F2009",
",.	c #487523",
"'.	c #5B8F2E",
").	c #102608",
"!.	c #022813",
"~.	c #082005",
"{.	c #062002",
"].	c #071C03",
"^.	c #668921",
"/.	c #81A82B",
"(.	c #15270A",
"_.	c #072101",
":.	c #05270C",
"<.	c #032813",
"[.	c #082007",
"}.	c #0A2007",
"|.	c #0C1D08",
"1.	c #719121",
"2.	c #8EB129",
"3.	c #132709",
"4.	c #0A2106",
"5.	c #042108",
"6.	c #1E451B",
"7.	c #578428",
"8.	c #789C24",
"9.	c #7DA026",
"0.	c #7DA127",
"a.	c #506E19",
"b.	c #0D2109",
"c.	c #091C07",
"d.	c #1C4015",
"e.	c #598728",
"f.	c #7C9D27",
"g.	c #80A226",
"h.	c #4D6A1C",
"i.	c #0D2108",
"j.	c #081E05",
"k.	c #081E02",
"l.	c #041F08",
"m.	c #0B2005",
"n.	c #0E2106",
"o.	c #0D2007",
"p.	c #091E0A",
"q.	c #071F08",
"r.	c #061E03",
"s.	c #091E02",
"t.	c #082100",
"u.	c #092002",
"v.	c #082000",
"w.	c #091E00",
"x.	c #092100",
"y.	c #0B2002",
"z.	c #0D3304",
"A.	c #0F3403",
"B.	c #103403",
"C.	c #11280A",
"D.	c #0C2900",
". + + + + + + @ @ @ ",
"# $ # % & * = # - ; ",
"> , ' ) ! ~ { ] ^ / ",
"( _ _ : < [ } | 1 2 ",
"3 4 5 6 7 8 9 0 a b ",
"c d e f g h i j k l ",
"m n o p q r s t u v ",
"w x y z A l B C D E ",
"F G H I J K L M N O ",
"r P Q R S T U V W X ",
"Y Z `  ...+.@.#.$.%.",
"_ &.*.=.-.;.>.,.'.).",
"_ &.*.!.~.{.].^./.(.",
"{._.:.<.[.}.|.1.2.3.",
"4 4.5.6.7.8.9.0.a.b.",
"_ l c.d.e.f.g.h.i.j.",
"k.l.Y b m.n.o.p.| q.",
"r.s.t.u.F v.w.u.x.y.",
"z.A.A.A.A.A.A.A.B.A.",
"C.D.D.D.D.D.D.D.D.D."};
