/* XPM */
static char * digit_9_xpm[] = {
"10 20 44 1",
" 	c None",
".	c #FFFFFF",
"+	c #D7CBEB",
"@	c #7046B7",
"#	c #4812A3",
"$	c #4C17A5",
"%	c #764DBA",
"&	c #DACFEC",
"*	c #D9CEEC",
"=	c #3E059E",
"-	c #3B009D",
";	c #6638B2",
">	c #6031AF",
",	c #40079F",
"'	c #D8CDEB",
")	c #7A53BC",
"!	c #BFACDF",
"~	c #B8A3DB",
"{	c #7951BC",
"]	c #5B2AAD",
"^	c #F2EFF8",
"/	c #F1EEF8",
"(	c #5827AB",
"_	c #754CBA",
":	c #8764C3",
"<	c #EEEAF6",
"[	c #EEE9F6",
"}	c #8865C3",
"|	c #7A52BC",
"1	c #CDBFE6",
"2	c #3C029D",
"3	c #C9BAE4",
"4	c #7349B9",
"5	c #5E2EAE",
"6	c #9E81CE",
"7	c #8C6AC5",
"8	c #7147B8",
"9	c #FDFDFE",
"0	c #AC94D5",
"a	c #511DA8",
"b	c #EFEBF7",
"c	c #3D039E",
"d	c #3E049E",
"e	c #D3C7E9",
"..........",
"..........",
"..........",
"..........",
"..........",
"..+@#$%&..",
".*=-;>-,'.",
".)-!..~-{.",
".]-^../-(.",
"._-:<[}-|.",
".1-----2+.",
"..345--6..",
"....7-89..",
"...0-ab...",
"..3cde....",
"..........",
"..........",
"..........",
"..........",
".........."};
