/* XPM */
static char * digit_7_xpm[] = {
"10 20 146 2",
"  	c None",
". 	c #0A2D08",
"+ 	c #092C02",
"@ 	c #092A00",
"# 	c #0A2B01",
"$ 	c #0A2C02",
"% 	c #0A2B02",
"& 	c #0D3407",
"* 	c #0C3505",
"= 	c #0E3506",
"- 	c #0F3507",
"; 	c #081D04",
"> 	c #071F02",
", 	c #071E02",
"' 	c #051F02",
") 	c #061F04",
"! 	c #0A1E03",
"~ 	c #091E02",
"{ 	c #051F00",
"] 	c #081D06",
"^ 	c #091F04",
"/ 	c #0D2002",
"( 	c #072102",
"_ 	c #062005",
": 	c #061F01",
"< 	c #051F01",
"[ 	c #062004",
"} 	c #193B12",
"| 	c #4E7A21",
"1 	c #6D9225",
"2 	c #779924",
"3 	c #4C6B1B",
"4 	c #0F1F07",
"5 	c #072108",
"6 	c #1E461A",
"7 	c #62922E",
"8 	c #88AC2B",
"9 	c #8FB126",
"0 	c #5F8F27",
"a 	c #174A1F",
"b 	c #092106",
"c 	c #04250E",
"d 	c #052912",
"e 	c #102609",
"f 	c #13290A",
"g 	c #16250D",
"h 	c #205722",
"i 	c #297235",
"j 	c #0C2808",
"k 	c #092003",
"l 	c #082102",
"m 	c #02260B",
"n 	c #022A11",
"o 	c #0A2006",
"p 	c #072206",
"q 	c #091F07",
"r 	c #3A6723",
"s 	c #5B9233",
"t 	c #122910",
"u 	c #062508",
"v 	c #032910",
"w 	c #082009",
"x 	c #092208",
"y 	c #051A08",
"z 	c #61801F",
"A 	c #92B82C",
"B 	c #192D09",
"C 	c #082004",
"D 	c #092406",
"E 	c #04290C",
"F 	c #042610",
"G 	c #05280B",
"H 	c #052310",
"I 	c #415D16",
"J 	c #5C7C16",
"K 	c #102508",
"L 	c #0A2004",
"M 	c #052203",
"N 	c #05270D",
"O 	c #03290C",
"P 	c #02290D",
"Q 	c #062810",
"R 	c #1A3F16",
"S 	c #224C18",
"T 	c #0B2109",
"U 	c #092002",
"V 	c #032708",
"W 	c #052910",
"X 	c #042104",
"Y 	c #072004",
"Z 	c #051D04",
"` 	c #3D6823",
" .	c #5B9230",
"..	c #132A08",
"+.	c #072002",
"@.	c #04260B",
"#.	c #062911",
"$.	c #072204",
"%.	c #082105",
"&.	c #081B03",
"*.	c #5B7D20",
"=.	c #87B12F",
"-.	c #182D08",
";.	c #04270A",
">.	c #062A11",
",.	c #082206",
"'.	c #052105",
").	c #081C06",
"!.	c #67861F",
"~.	c #98BE2D",
"{.	c #162E08",
"].	c #082000",
"^.	c #022404",
"/.	c #02290E",
"(.	c #05270F",
"_.	c #03270D",
":.	c #07240E",
"<.	c #446218",
"[.	c #62811A",
"}.	c #0C2506",
"|.	c #041F01",
"1.	c #06240A",
"2.	c #042814",
"3.	c #0D2811",
"4.	c #0F260B",
"5.	c #051E08",
"6.	c #071D01",
"7.	c #061F03",
"8.	c #052103",
"9.	c #082006",
"0.	c #062104",
"a.	c #081F06",
"b.	c #051E06",
"c.	c #072104",
"d.	c #042200",
"e.	c #042000",
"f.	c #032000",
"g.	c #011F00",
"h.	c #0D3006",
"i.	c #0D3103",
"j.	c #0E3103",
"k.	c #0E3203",
"l.	c #0D3102",
"m.	c #0B2A05",
"n.	c #0E2A04",
"o.	c #0F2A04",
". + @ @ @ @ @ # $ % ",
"& * = = = = = = - - ",
"; > > , ' ' ' ' ) ) ",
"> ! ~ { ] ^ / ( _ ~ ",
": < [ } | 1 2 3 4 [ ",
": ' 5 6 7 8 9 0 a b ",
"> ~ c d e f g h i j ",
"k l m n o p q r s t ",
"k ( u v w x y z A B ",
"k C D E F G H I J K ",
"k L M N O P Q R S T ",
"k U V W X Y Z `  ...",
"k +.@.#.$.%.&.*.=.-.",
"> : ;.>.,.'.).!.~.{.",
": ].^./.(._.:.<.[.}.",
": k |.1.E W 2.3.4.5.",
"6.+.> 7.8.9.0.a.b.c.",
"^ d.e.e.e.e.e.f.g.f.",
"h.i.j.k.j.k.k.j.l.j.",
"m.n.o.o.o.o.o.o.o.o."};
