/* XPM */
static char *new_digit__[] = {
/* columns rows colors chars-per-pixel */
"15 20 232 2",
"   c #0A250F870AF2",
".  c #09131060067F",
"X  c #07AE110E0768",
"o  c #06A81EBB00AA",
"O  c #05591EB40293",
"+  c #07501F9E019F",
"@  c #070C1DFE0321",
"#  c #06241F7B02A7",
"$  c #055F1D510449",
"%  c #04951F5304E5",
"&  c #06F21DE103B2",
"*  c #06FD1F2903C2",
"=  c #05BD1DF3051F",
"-  c #06621EC2076D",
";  c #07F51F370136",
":  c #08531F9F01D2",
">  c #09291F8B01C2",
",  c #08801F7502FB",
"<  c #079A1D7C038C",
"1  c #08551E5E061E",
"2  c #08FC1E2906E6",
"3  c #09DF1E1C0725",
"4  c #0BEE1D3D0423",
"5  c #0B1815A907E0",
"6  c #094C1B970882",
"7  c #0A331CF20940",
"8  c #0AB91CBE08FB",
"9  c #0A281E8D08D8",
"0  c #0A481D4C0A6F",
"q  c #07E91EB20ACB",
"w  c #0A951E180CB4",
"e  c #0AD81D0C0DAC",
"r  c #0BEF1D230BA7",
"t  c #0E911E680B95",
"y  c #0639202B0016",
"u  c #07482087006A",
"i  c #06D920AA003E",
"p  c #05F6209F013A",
"a  c #077920870087",
"s  c #06BD202801F4",
"d  c #05CA206702BA",
"f  c #0774200402BF",
"g  c #06A721050369",
"h  c #0681206403C5",
"j  c #05B02387041A",
"k  c #0729201605F7",
"l  c #04D422440604",
"z  c #071724A2052E",
"x  c #087C20690073",
"c  c #091320500030",
"v  c #07EC20F3004E",
"b  c #088220130106",
"n  c #08ED1FC400AF",
"m  c #078E20C000CD",
"M  c #08CA2123010A",
"N  c #09C7205D009C",
"B  c #0A0C20C600A0",
"V  c #08FE2053026B",
"C  c #080B20E10220",
"Z  c #0940213B0212",
"A  c #082B205C0297",
"S  c #0A0820E902BA",
"D  c #098D21B00225",
"F  c #07E0207E042A",
"G  c #08C9208D03A8",
"H  c #086F20AB0430",
"J  c #081320A70536",
"K  c #0AB1204F045F",
"L  c #07CA22B703B5",
"P  c #0AE821EF0412",
"I  c #0BA91FE804C3",
"U  c #0C0829500000",
"Y  c #0CAA294B0069",
"T  c #09642F7501C2",
"R  c #0AC42E110254",
"E  c #09952F4901E7",
"W  c #0A892E5E0323",
"Q  c #0B2C2E6602DB",
"!  c #0B782F9E033F",
"~  c #0D4C2F2E0145",
"^  c #0D442F25019A",
"/  c #0DCB2F6E020A",
"(  c #0DE52F8E02C7",
")  c #0CF22BAA0566",
"_  c #09792DA30409",
"`  c #09E52C140413",
"'  c #099D2D6103B1",
"]  c #0B7A2D8B0428",
"[  c #0B0F2E470412",
"{  c #0A192E4004F2",
"}  c #0AA52EEA05B6",
"|  c #0CB12D9C0405",
" . c #0BA62C580501",
".. c #0BB02DB70455",
"X. c #0CEC2E8203EC",
"o. c #0CA62E9304E0",
"O. c #0D8C2EEF04A6",
"+. c #0DB22E62040F",
"@. c #0D622E3E06C9",
"#. c #0CAE2F340718",
"$. c #076621EA0866",
"%. c #078622330889",
"&. c #062F2460089D",
"*. c #03A226130A23",
"=. c #039B261C0A92",
"-. c #06D225CC0A58",
";. c #061427310AB4",
":. c #01B326F10F5C",
">. c #03FA26A90D8A",
",. c #066526B40C63",
"<. c #050927790E14",
"1. c #046627000E9A",
"2. c #078B20620859",
"3. c #0B5A217F07FF",
"4. c #07AA21DB07D0",
"5. c #08B9235707FA",
"6. c #0A7322A407B0",
"7. c #088020BD09DC",
"8. c #0BF220ED0B7E",
"9. c #0EC324C60868",
"0. c #0F6F26380A8E",
"q. c #080025C40D01",
"w. c #0E1524DA0E3B",
"e. c #019B27CA0ACB",
"r. c #00A127AE0F64",
"t. c #031628BD0DA7",
"y. c #04FA28E40F2C",
"u. c #0624287A0EE2",
"i. c #0C5A2ACD091E",
"p. c #0D5E2E24079C",
"a. c #0EAD2EFC07C0",
"s. c #102929B6060D",
"d. c #114A2F6C05DC",
"f. c #0FAC20FF0863",
"g. c #100420C8096B",
"h. c #11BA23080F73",
"j. c #1177286C0967",
"k. c #11712CA1091C",
"l. c #11202DE30816",
"z. c #18C42F0C097B",
"x. c #0A67318402C2",
"c. c #0C2C300502D5",
"v. c #0F0535920073",
"b. c #0F67354900D8",
"n. c #0F3E33F20344",
"m. c #09C13143042D",
"M. c #0A57307B0583",
"N. c #0B21327A0453",
"B. c #0B6930A906E2",
"V. c #0A7D332205DD",
"C. c #0B7F32FF05A1",
"Z. c #0C4532080519",
"A. c #0DA7339D04BF",
"S. c #0D2C304106E0",
"D. c #0E482FB506B7",
"F. c #0D1B3364062F",
"G. c #0C89356A045B",
"H. c #0D03354C03B1",
"J. c #0DC033DE03E4",
"K. c #0F0F3393098E",
"L. c #0F16343D0849",
"P. c #0FF0349E0351",
"I. c #0FE934BE0346",
"U. c #0FE3361B0207",
"Y. c #10183635030B",
"T. c #104436B80315",
"R. c #0FCA31A20749",
"E. c #1037344803B7",
"W. c #10B536E503CA",
"Q. c #0FD43E3B074F",
"!. c #102F3F000715",
"~. c #16FC311D0AA6",
"^. c #14A534970E15",
"/. c #165F35240F38",
"(. c #17E130050C97",
"). c #13EB38CD0DAC",
"_. c #02B926A3111E",
"`. c #02F526C210D7",
"'. c #041C275C1178",
"]. c #03CE279511BD",
"[. c #0EA223910FE7",
"{. c #00CC285D1066",
"}. c #00F928F0108A",
"|. c #028B2888106D",
" X c #018E284511FB",
".X c #021828B61214",
"XX c #026D28CF1355",
"oX c #0442287010F5",
"OX c #052829661105",
"+X c #04DB2804129D",
"@X c #04162A461332",
"#X c #0384293F1422",
"$X c #04C7292213B4",
"%X c #04802A2314E4",
"&X c #192E2A6418F4",
"*X c #1729362511B4",
"=X c #1EE932461CF6",
"-X c #1DF6320F1E1D",
";X c #1F67334A1ED0",
":X c #26A13D6D1CF5",
">X c #24A2346B21A0",
",X c #273434D521F1",
"<X c #287238DA2752",
"1X c #2905392A2803",
"2X c #2E373B9A2968",
"3X c #105C442E0619",
"4X c #124640240B4B",
"5X c #0E4540091B01",
"6X c #158242EB1A66",
"7X c #260947B41ECB",
"8X c #260653DC1D90",
"9X c #322E507913F4",
"0X c #3492561B164D",
"qX c #3DA96A8C1C41",
"wX c #17E44EA021F3",
"eX c #1D8A569E2513",
"rX c #26C045522087",
"tX c #2CF5457D2769",
"yX c #2A4E47E32498",
"uX c #2B2449B425EA",
"iX c #2E23765C362B",
"pX c #3FD36B841F70",
"aX c #4EA86B341813",
"sX c #54C872051997",
"dX c #5D427F031B07",
"fX c #5AC67C9E1D4B",
"gX c #635F838B1D0E",
"hX c #64D69A912F98",
"jX c #63E498F230D9",
"kX c #8A52B5872D95",
"lX c #9474BA282CBB",
"zX c #98D8BE7D29B2",
/* pixels */
"X #.#.D.X.R.yX:Xa.W R Q o.p.5 ",
" .3XN.B.B.M.K.rX7XF.V.C.N.!.Z.",
"+.H.$ 2 2 3 4 g.,X>X8.1 8 ` ! ",
"O.A.= %.$.4.C F 6.=X<Xw.6 ` c.",
"~ Y.& K S 5.'.+X].q.;X1Xh.' X.",
"~ U.@ V z t.{.}.r.5XwX-X2X^.| ",
"~ U.o u ;.@XH A # eXiXi.&XtX/.",
"/ T.; v ,.%Xp d O qXjXk.q *XuX",
"( W.> a -.$Xg k $ dXlX(.7.{ ).",
"( W., m l _..XOX1.9XaXf.2.} m.",
"( T.* s l `.oXy.>.6X8X3.9 [ x.",
"( U.f m =.XXP S @ pXhXl.7 ] E ",
"( U.G M =.#XZ Z < fXkX~.e ] E ",
"( U.s i *. XC C & gXzXz.r ] E ",
"~ v.; y j e.|.|.:.0XsX9.0 ] E ",
"~ v.+ y x L u.u.<.&.I - w ] E ",
"^ b.: v c x D Z a * % h t ..T ",
"d.L.# N n b Z C M B s A J _ S.",
") 4XJ.I.I.I.P.n.P.I.I.E.G.Q.@.",
". [.j.U U U U U U U U Y s.0.  "
};
