/* XPM */
static char * digit_6_xpm[] = {
"10 20 44 1",
" 	c None",
".	c #FFFFFF",
"+	c #CEC0E6",
"@	c #3D039E",
"#	c #3F069F",
"$	c #ECE7F5",
"%	c #4D18A6",
"&	c #3B009D",
"*	c #BBA7DD",
"=	c #FBFBFD",
"-	c #6B3FB5",
";	c #A58BD2",
">	c #9778CB",
",	c #4108A0",
"'	c #5523AA",
")	c #AD95D6",
"!	c #FEFEFE",
"~	c #D0C2E7",
"{	c #4811A3",
"]	c #BEABDE",
"^	c #744BB9",
"/	c #A084CF",
"(	c #FDFDFE",
"_	c #9C7FCD",
":	c #7046B7",
"<	c #5827AB",
"[	c #F4F1F9",
"}	c #F3F0F9",
"|	c #5C2BAD",
"1	c #7A53BC",
"2	c #B5A0DA",
"3	c #BAA6DC",
"4	c #7E58BE",
"5	c #DAD0EC",
"6	c #40079F",
"7	c #6233B0",
"8	c #6537B2",
"9	c #DDD4EE",
"0	c #DBD1ED",
"a	c #764DBA",
"b	c #4B16A5",
"c	c #4913A4",
"d	c #7349B9",
"e	c #DACFEC",
"..........",
"..........",
"..........",
"..........",
"..........",
"....+@#+..",
"...$%&*...",
"..=-&;....",
"..>&&,')!.",
".~&&{{&&].",
".^&/((_&:.",
".<&[..}&|.",
".1&2..3&4.",
".56&78&69.",
"..0abcde..",
"..........",
"..........",
"..........",
"..........",
".........."};
