/* XPM */
static char *new_digit__[] = {
/* columns rows colors chars-per-pixel */
"15 20 230 2",
"   c #0A6A0DCE0B28",
".  c #077815770409",
"X  c #02D31E3F01FF",
"o  c #03181DF702BF",
"O  c #05641E4D0126",
"+  c #06461E220177",
"@  c #07741E290102",
"#  c #05AB1CCC0344",
"$  c #05E01EC8035D",
"%  c #03341EB103C7",
"&  c #076B1CAF03EA",
"*  c #06631D15053C",
"=  c #05081EE804DC",
"-  c #06311E6A039E",
";  c #06B01E6904AD",
":  c #072E1D7A075F",
">  c #064F1F950633",
",  c #07681ECB0600",
"<  c #07661E6206A2",
"1  c #072D1F7C06B4",
"2  c #09561E9000B4",
"3  c #091F1E14027C",
"4  c #08941E4F0346",
"5  c #08691EC502A9",
"6  c #078F1D6F03D5",
"7  c #08081F4A0422",
"8  c #07D41DA1055E",
"9  c #07DF1F5B052F",
"0  c #08E31EAA0537",
"q  c #09FA1EEE052C",
"w  c #08B31F8605A2",
"e  c #09931DE405B9",
"r  c #09AA1F8C05C4",
"t  c #0A991EFB0659",
"y  c #0A981EC70781",
"u  c #0DE51C00070C",
"i  c #0A6210A70869",
"p  c #092F137B08B8",
"a  c #01F51C7D0AA2",
"s  c #072B1E930824",
"d  c #061F1DD408C8",
"f  c #05611E140A47",
"g  c #04811EA30ADE",
"h  c #09A51C7D079B",
"j  c #09E81E310872",
"k  c #098D1DDA08AD",
"l  c #0A951F9A08BA",
"z  c #09961E4F0AA0",
"x  c #0CE81D71087D",
"c  c #03961FF200BD",
"v  c #03ED200F01D1",
"b  c #044B213101C4",
"n  c #04C3201202F9",
"m  c #07042021023B",
"M  c #0652201102D8",
"N  c #03DD21B10295",
"B  c #054621FA02C4",
"V  c #03731FAA069F",
"C  c #040B1FDA03CD",
"Z  c #060D1FE103D9",
"A  c #070F201203ED",
"S  c #0546213C05FF",
"D  c #075D201A063A",
"F  c #06111FFF074A",
"G  c #081A200B005F",
"H  c #07E3212E0058",
"J  c #07892103012D",
"K  c #0993215F009D",
"L  c #08EE21B000BF",
"P  c #07A3204301FA",
"I  c #0907200A0212",
"U  c #09D920340297",
"Y  c #0BC320420207",
"T  c #096C1FBD0561",
"R  c #089C20F90551",
"E  c #07E41FB90626",
"W  c #08AB1FCC062B",
"Q  c #08EE20720740",
"!  c #0B6020F9059A",
"~  c #0AC1203B070A",
"^  c #0A952106069B",
"/  c #0E4E20350486",
"(  c #0E7021940630",
")  c #0EAB206E06E0",
"_  c #0DF520F9077D",
"`  c #0C9623880659",
"'  c #0C30294E0000",
"]  c #0CBE290100FB",
"[  c #09442F5902D5",
"{  c #0B802DF40224",
"}  c #0B0D2E3802B8",
"|  c #0BE02DA80005",
" . c #0BA92DBA003F",
".. c #0D152EE80006",
"X. c #0EC82FA90007",
"o. c #0F2C2F2A00DF",
"O. c #0C1E2D4B02ED",
"+. c #0C6A2E6E0237",
"@. c #0D392DB902CE",
"#. c #0DE02DD902E5",
"$. c #0AE62AE703D0",
"%. c #0B322C1E038D",
"&. c #0B042EA503CE",
"*. c #0D472CFB046F",
"=. c #0BCF2D2604C7",
"-. c #0D462CF10487",
";. c #0E6C2CF303E4",
":. c #0E8F2CFF038C",
">. c #0C2B2E030543",
",. c #0D0F2DE0049D",
"<. c #0D892D4F05DA",
"1. c #0D9D2D5B0619",
"2. c #0CFC2E1505F2",
"3. c #0F422ED306C9",
"4. c #04C21FD50885",
"5. c #0458218008DB",
"6. c #040927390B31",
"7. c #07CF1FE808B2",
"8. c #09AF219A0795",
"9. c #096620650B2E",
"0. c #0F6D2078094F",
"q. c #0D8521B9088B",
"w. c #0D9021EF0993",
"e. c #0E1823890A3D",
"r. c #0F0422DC0B74",
"t. c #0F8824D90928",
"y. c #099C20970CB5",
"u. c #0AA0249A0D3C",
"i. c #080C27370EBD",
"p. c #02142A880CD9",
"a. c #05C127A90C6D",
"s. c #123420D203E1",
"d. c #0F912EB7025F",
"f. c #10A326EB086F",
"g. c #1168263A0A9D",
"h. c #133527E3097D",
"j. c #112828620A33",
"k. c #12CC297809D4",
"l. c #11F428A00B5A",
"z. c #150627AF0ABF",
"x. c #17922BF30CFA",
"c. c #180B2C6D0C9B",
"v. c #08FA324F015A",
"b. c #096E32B500F6",
"n. c #09B1331F011E",
"m. c #0ABF307A0189",
"M. c #0B15315D02DC",
"N. c #09463218018C",
"B. c #09EB326601A7",
"V. c #0B20334C020B",
"C. c #0C2031AD016E",
"Z. c #0ED02FE50007",
"A. c #0F0E318800B3",
"S. c #0B8F3226011C",
"D. c #0CC331AF01D2",
"F. c #0E76305001CE",
"G. c #0BE1324A01B9",
"H. c #0BF2330001C6",
"J. c #0C45321502CD",
"K. c #0CE1326102CD",
"L. c #087735D8032C",
"P. c #0F6534150348",
"I. c #0C9B36590360",
"U. c #083230FC05FD",
"Y. c #0C7131F604E1",
"T. c #0D31334304EC",
"R. c #0E3E31BD03BE",
"E. c #0F58318E06B8",
"W. c #0BA235D6066D",
"Q. c #1078316D014C",
"!. c #0FC934940343",
"~. c #102A34D00359",
"^. c #10B131D803FE",
"/. c #0FF13F050685",
"(. c #12163E8906D0",
"). c #067424441088",
"_. c #060725950FCF",
"`. c #091A25251023",
"'. c #093E279C1519",
"]. c #032828A7137B",
"[. c #04D5290510D6",
"{. c #02C728BD13D4",
"}. c #0407294B15A0",
"|. c #124B40D704E1",
" X c #1C1140CD151D",
".X c #1AF743CF16FC",
"XX c #1D73448F1BFB",
"oX c #1E0045991BC5",
"OX c #1FDA43F6187D",
"+X c #345D4E651390",
"@X c #249151281BD9",
"#X c #3E2E75872A82",
"$X c #486066BC1D5F",
"%X c #4D096AA01C9E",
"&X c #4ED36E631DA5",
"*X c #507F6ED819B4",
"=X c #54DE73041AE4",
"-X c #48C7741F2215",
";X c #48C575312307",
":X c #61D085C91B02",
">X c #6BC08B751E5E",
",X c #7849986D1F1F",
"<X c #595D82A5241D",
"1X c #598087042625",
"2X c #5BDE86522496",
"3X c #576184DC284F",
"4X c #59EF873D281E",
"5X c #5D118CBB2997",
"6X c #5F1B8C56287A",
"7X c #5BD38FE42E49",
"8X c #5FE687F2230A",
"9X c #66BF894D210F",
"0X c #66B99A8C2EA5",
"qX c #71DD91C2216A",
"wX c #731894202196",
"eX c #78999C512140",
"rX c #7DCC9FAC22A5",
"tX c #781B9CA424C8",
"yX c #797A9C402545",
"uX c #7C279D6B2750",
"iX c #7DD0A0A026A9",
"pX c #7DE5A1B6278B",
"aX c #7E53A457250B",
"sX c #8013A1422175",
"dX c #804FA237266B",
"fX c #871BAAAA261E",
"gX c #81B7A8A92B9E",
"hX c #8B1EB33D2B95",
"jX c #8E47B15E2984",
"kX c #9369B9E2277B",
/* pixels */
". 2.2.#.@.@.@.@.@.} } } { >.p ",
"Y.|.G.H.S.C.^.F.A.G.V.W.L./.%.",
"R.[ * y e 6 $ + # 8 @ 4 X =.#.",
"Q.m.o m m Z 9./ u < a f % O.d.",
"D.B.A q : OX5XaXfX=X` 1 N ,.o.",
"M.v.P w .X#X<XwX,X$Xi.F v 1.X.",
"M.v.O = -X0Xk.r t ).[.D S <.Z.",
"J.b.; l :XhXx.F d _.'.8.C ;...",
"K.n.7 j >XkXc.) s.`.p.W C :.| ",
"K.n.T s +X8X1XeXsX&Xu.k A ;.| ",
"J.n.9 > g XX2XyXrX6X@Xy.V :.| ",
"M.v.m H 6.}.r.e.0.;X7Xf.C :. .",
"M.v.m H 6.{.R M & 9XgXz.c ;. .",
"M.v.M J a.].Q ~ x qXjXh.v ;. .",
"M.v.q ^ 5.oX3XtXiXpX*Xw.Z -.+.",
"M.v.m F h  X4XuXdX%Xq.0 b *.+.",
"M.N.5 4.9 E ! ( _ z , 7.n -.+.",
"E.U.- 3 L I 7 G 2 U K Y B &.2.",
"3.(.T.P.P.P.!.!.!.!.~.P.I.(.$.",
"i g.j.' ' ' ' ' ' ' ' ] l.t.  "
};
