/* XPM */
static char * digit_1_xpm[] = {
"10 20 146 2",
"  	c None",
". 	c #0C2F07",
"+ 	c #0E2F06",
"@ 	c #0C2E03",
"# 	c #0F3107",
"$ 	c #2A4724",
"% 	c #263D1C",
"& 	c #0E2E07",
"* 	c #0A2E03",
"= 	c #0A2E02",
"- 	c #0B2E02",
"; 	c #0B3204",
"> 	c #0B3006",
", 	c #0A3005",
"' 	c #0F3309",
") 	c #264520",
"! 	c #26471E",
"~ 	c #0D3306",
"{ 	c #0A3305",
"] 	c #0B3205",
"^ 	c #051D04",
"/ 	c #081E06",
"( 	c #091E07",
"_ 	c #0B1D04",
": 	c #102009",
"< 	c #273421",
"[ 	c #243421",
"} 	c #0B200B",
"| 	c #051D05",
"1 	c #072208",
"2 	c #072108",
"3 	c #072107",
"4 	c #082002",
"5 	c #072004",
"6 	c #0A2207",
"7 	c #1E321C",
"8 	c #283827",
"9 	c #0E240E",
"0 	c #061D03",
"a 	c #0A2004",
"b 	c #0A2002",
"c 	c #082307",
"d 	c #042711",
"e 	c #042812",
"f 	c #032711",
"g 	c #08250D",
"h 	c #1F331E",
"i 	c #293928",
"j 	c #071D03",
"k 	c #072405",
"l 	c #03280D",
"m 	c #002810",
"n 	c #00270F",
"o 	c #0E401B",
"p 	c #174E21",
"q 	c #1D321E",
"r 	c #061E00",
"s 	c #072000",
"t 	c #06270A",
"u 	c #042A13",
"v 	c #082004",
"w 	c #061F02",
"x 	c #1D5625",
"y 	c #2E7636",
"z 	c #0C2A09",
"A 	c #071F01",
"B 	c #06260C",
"C 	c #042A14",
"D 	c #052001",
"E 	c #052002",
"F 	c #051E02",
"G 	c #3D6A1C",
"H 	c #639830",
"I 	c #112C09",
"J 	c #091F01",
"K 	c #06250A",
"L 	c #042913",
"M 	c #062103",
"N 	c #072005",
"O 	c #5D7F1B",
"P 	c #94BA2C",
"Q 	c #17300C",
"R 	c #081F02",
"S 	c #042206",
"T 	c #022611",
"U 	c #022812",
"V 	c #052911",
"W 	c #04270E",
"X 	c #325013",
"Y 	c #4E6B18",
"Z 	c #0F2008",
"` 	c #061F03",
" .	c #062001",
"..	c #022610",
"+.	c #042810",
"@.	c #04280F",
"#.	c #03260D",
"$.	c #15421A",
"%.	c #26531D",
"&.	c #0B2107",
"*.	c #072002",
"=.	c #03260A",
"-.	c #022813",
";.	c #0A2104",
">.	c #3F6B1F",
",.	c #649A2F",
"'.	c #112D08",
").	c #082003",
"!.	c #082101",
"~.	c #032914",
"{.	c #092102",
"].	c #5A7C1D",
"^.	c #8AB52D",
"/.	c #16310A",
"(.	c #062000",
"_.	c #012811",
":.	c #63831D",
"<.	c #98BE29",
"[.	c #182F09",
"}.	c #052304",
"|.	c #01270A",
"1.	c #022810",
"2.	c #01260F",
"3.	c #345616",
"4.	c #547219",
"5.	c #0E2408",
"6.	c #082000",
"7.	c #072203",
"8.	c #06280E",
"9.	c #05270E",
"0.	c #062408",
"a.	c #0B1F04",
"b.	c #061E07",
"c.	c #081F01",
"d.	c #092000",
"e.	c #041F04",
"f.	c #062003",
"g.	c #081F00",
"h.	c #082001",
"i.	c #0A2000",
"j.	c #0D3303",
"k.	c #0F3403",
"l.	c #0F3303",
"m.	c #103403",
"n.	c #112809",
"o.	c #0C2900",
". + @ # $ % & * = - ",
"; > > , ' ) ! ~ { ] ",
"^ / / ( _ : < [ } / ",
"| 1 2 3 4 5 6 7 8 9 ",
"0 a b c d e f g h i ",
"j 4 k l m m n o p q ",
"r s t u v 4 w x y z ",
"A s B C D E F G H I ",
"J s K L M N ^ O P Q ",
"R s S T U V W X Y Z ",
"`  .S ..+.@.#.$.%.&.",
"*.s =.-.;.b j >.,.'.",
").!.=.~.{.{.j ].^./.",
" .(.=._.4 4 0 :.<.[.",
"A (.}.|.1.1.2.3.4.5.",
"A (.6.7.8.8.9.0.a.b.",
"c.s d.6.{.{.s ` e.f.",
"w d.g.h.{.4 !.i. .4 ",
"j.k.k.k.k.l.k.k.k.m.",
"n.o.o.o.o.o.o.o.o.o."};
