/* XPM */
static char *new_digit__[] = {
/* columns rows colors chars-per-pixel */
"15 20 245 2",
"   c #05640C9F0501",
".  c #0A7F0EE60735",
"X  c #06EA1F310160",
"o  c #05231D08019E",
"O  c #04E51F5D0241",
"+  c #06711E9D01D3",
"@  c #06291EA701E0",
"#  c #06E11ECD019D",
"$  c #07141E730291",
"%  c #072B1F5E0305",
"&  c #03A91B8F074A",
"*  c #05CB1E3603EF",
"=  c #07041E880394",
"-  c #060D1F1403DF",
";  c #05E31E210491",
":  c #07191E0B0509",
">  c #06331F740567",
",  c #05BA1E3A05B2",
"<  c #069A1E4C0611",
"1  c #063C1ED705CE",
"2  c #07E11E4F0028",
"3  c #09381EF90107",
"4  c #09491CE8044E",
"5  c #08231EC903A7",
"6  c #09601EC50431",
"7  c #07D41E5104C8",
"8  c #09D21F78048B",
"9  c #087C1D090606",
"0  c #09161C6A0784",
"q  c #08131E6C0620",
"w  c #09C51F4106EC",
"e  c #0BA61D5C06A6",
"r  c #0C0D102E0B78",
"t  c #0BAB16110A84",
"y  c #043C1DEC07B9",
"u  c #05F31F3F0801",
"i  c #064B1F8209C9",
"p  c #099B1B0E09A0",
"a  c #07D21DBE0888",
"s  c #07911EC107A6",
"d  c #0B3C1E5D08F0",
"f  c #0D9F1C260B72",
"g  c #07642070011F",
"h  c #061F206502CF",
"j  c #069E2043038A",
"k  c #06D6211A03D4",
"l  c #06EE200904F6",
"z  c #060C217E04EE",
"x  c #0697210604E2",
"c  c #0764201B06CE",
"v  c #0908211A023A",
"b  c #086120930338",
"n  c #08A920F602DD",
"m  c #089F229101BD",
"M  c #0DEF267A0150",
"N  c #07D71FA4042C",
"B  c #08F821380427",
"V  c #07CF2060054D",
"C  c #08B61FC20577",
"Z  c #093D21930585",
"A  c #0A2F1FCD04AC",
"S  c #0A95210704DF",
"D  c #08AF1FB8067B",
"F  c #0886212A0688",
"G  c #0A31201105CB",
"H  c #0A052128059A",
"J  c #0D5121900428",
"K  c #0BA41FB006F9",
"L  c #0C0522FD065C",
"P  c #0DB4233C0653",
"I  c #0DB721D5068F",
"U  c #0BEE29340000",
"Y  c #0CBA299C0277",
"T  c #09992CD20375",
"R  c #0A4D2E44026D",
"E  c #0AF72E430269",
"W  c #0A882E6D02AA",
"Q  c #0AEB2E150296",
"!  c #0C212F3C00D0",
"~  c #0C2D2F33025A",
"^  c #0E692F2D0302",
"/  c #0F5F2A260777",
"(  c #0B1F2D7D0450",
")  c #0AD42D0A049D",
"_  c #0A5D2CAC064B",
"`  c #0A3B2D150591",
"'  c #0C3E2D8F0421",
"]  c #0C242DDE0440",
"[  c #0CFC2E03041F",
"{  c #0C002E1004AC",
"}  c #0DE32DB60470",
"|  c #0D652CAE05A5",
" . c #06D020E108B3",
".. c #0543277F09A5",
"X. c #067425770C1F",
"o. c #042F26910CC9",
"O. c #066626760E38",
"+. c #0849213C0798",
"@. c #082020FE08F3",
"#. c #09CE21010872",
"$. c #0830220B07F6",
"%. c #0B1D21BE07A9",
"&. c #09DC207B09C0",
"*. c #0BF320070873",
"=. c #0CD2218D08EC",
"-. c #0C61231F07EE",
";. c #0C67221108E8",
":. c #0E30233A084B",
">. c #0D3B21150A2B",
",. c #0DE122550B87",
"<. c #07E8254E0A0B",
"1. c #082A201E0BDF",
"2. c #0BB120BD0CCB",
"3. c #04D92A670F10",
"4. c #0B34282208F4",
"5. c #0BFA2B2507AB",
"6. c #0DAE2F7B0814",
"7. c #0A6828610D77",
"8. c #127322D70410",
"9. c #103E291705A3",
"0. c #11352EE60A03",
"q. c #16412D2C0AD9",
"w. c #12E328560BFB",
"e. c #122F2C4D0D07",
"r. c #17E22DC107B0",
"t. c #0B0430E000BC",
"y. c #0B1032E80158",
"u. c #0ACB32480309",
"i. c #0A2C33360322",
"p. c #0D78333700FB",
"a. c #0C812FC301A0",
"s. c #0C81315A01AB",
"d. c #0C54306C02C2",
"f. c #0E723064023A",
"g. c #0BB233130233",
"h. c #0EF733AC031D",
"j. c #0B443452016B",
"k. c #090634200298",
"l. c #0F45344102DB",
"z. c #0AE933990533",
"x. c #0B3930350696",
"c. c #0B11331005A9",
"v. c #0BD030DA0703",
"b. c #0E3733A7074B",
"n. c #0D35318D0907",
"m. c #0F1731260909",
"M. c #0E64320107BA",
"N. c #0E71318809DE",
"B. c #0EF7317F0A25",
"V. c #0DEB31CC0A1A",
"C. c #1164311F019C",
"Z. c #0FDD34C70322",
"A. c #100630300640",
"S. c #109E30C40665",
"D. c #106530D406FB",
"F. c #10DD30F50707",
"G. c #11F9312F063F",
"H. c #11EF314A06B9",
"J. c #119E33CD0553",
"K. c #11493000082F",
"L. c #11B03006088C",
"P. c #117D31B907A1",
"I. c #100A3221094B",
"U. c #119831D207E0",
"Y. c #0FBD320B0B89",
"T. c #10632FBA0CEE",
"R. c #168036610CFB",
"E. c #1A5D31800C2F",
"W. c #13543D2408F6",
"Q. c #10033F170951",
"!. c #12A33E0907DD",
"~. c #19673CAD0D09",
"^. c #19A43C620DCF",
"/. c #07122613106F",
"(. c #0BCD25FB1071",
"). c #058727D11187",
"_. c #041028551223",
"`. c #04DE28771217",
"'. c #11B62750123C",
"]. c #12FC278811C0",
"[. c #188B2B8F10A5",
"{. c #190D2EC4124B",
"}. c #1BD32FA91B51",
"|. c #173533D3116C",
" X c #17323DAB15DA",
".X c #191E3CAC1131",
"XX c #1AB53D3E1380",
"oX c #1D123A311684",
"OX c #1B1E305117E0",
"+X c #20C92EB21F70",
"@X c #1FC039D218BD",
"#X c #236C39361F07",
"$X c #271237092520",
"%X c #277838762344",
"&X c #2AEE3A0D291E",
"*X c #2D3C3BC628CC",
"=X c #11993FC205FD",
"-X c #1C6F40721344",
";X c #1809414D1787",
":X c #33B04C6F1015",
">X c #1B1F4F312350",
",X c #2F1A4BE9268B",
"<X c #2DA1484427F2",
"1X c #3050417E26B2",
"2X c #2FF24A7129A6",
"3X c #329C47E12D5A",
"4X c #1FAE560A2688",
"5X c #39D170812797",
"6X c #29E776D034EC",
"7X c #50046B7A17E1",
"8X c #500371CC1B59",
"9X c #518474BC1EA3",
"0X c #547976D41C1F",
"qX c #56A577861EEF",
"wX c #62587E641AEB",
"eX c #40366B342387",
"rX c #541D7CBB2131",
"tX c #522977A63576",
"yX c #5490851E2420",
"uX c #5A5A853F2371",
"iX c #560981DA299E",
"pX c #5AC285F027DA",
"aX c #5B4588B72D8C",
"sX c #62C7814420A8",
"dX c #656C8C77265D",
"fX c #648398E82B51",
"gX c #753293722206",
"hX c #78ED97121FB7",
"jX c #77C29BF72508",
"kX c #78279B0B25CC",
"lX c #7E8D9F632532",
"zX c #7E9D9E3A2F24",
"xX c #655F8079350B",
"cX c #64D38E263AF0",
"vX c #66C599A5332C",
"bX c #7DC4A0B123B9",
"nX c #7F7EA07624D9",
"mX c #7FA6A3052765",
"MX c #7DABA46F2876",
"NX c #7F13A05438A2",
"BX c #86F0AAFB267F",
"VX c #914CB89E2E01",
"CX c #9084AEC73C53",
"ZX c #9063B6313E23",
"AX c #9E50C0F03DA8",
/* pixels */
"r | x.[ Q Q E R R W Q Q E 6.t ",
"T =Xk.g.j.y.p.C.f.d.z.z.c.Q.v.",
"^ K.7 5 7 D - : < * w q 9 ) I.",
"a.H.h $.&.V H J 8.p #.+.s _ Y.",
"d.L.$ l : -XaXMXBX0X;.1 a ` V.",
"s.A.# 8  . XrXgXhXyX>X2.; ] m.",
"t.A.# e X._.i d 0 4X6X4.4 } m.",
"^.G.N G ..3.: u & eXvXe.o ' B.",
"2X@Xj H <.).K L f sXVXr.6 { B.",
"|.<XOXx 1.;XiXjXnXbX7X:.: ( B.",
"E R.%X+X.X5XpXkXlX8X(.c % ] N.",
"! D.-.$XtXfXq.P I /._.v 3 ' n.",
"! F.@ @.xXZXE.O + o.`.v 2 ' n.",
"! S.@ y wXAX1X,.*.O.`.n 2 ' n.",
"~ P.X , :XdXcXNXmX9X7.z A ( M.",
"~ U.X < q XXuXzXCXqXZ l C ( M.",
"~ U.X b F - %.>.}.&X'., = ) M.",
"T.0.> - S g m B k [.*X].=.( i.",
"5.!.b.J.Z.Z.l.l.h.l.~.,XoXW.u.",
"  M w.9.U U U U U Y / {.3X#X. "
};
