/* XPM */
static char * digit_6_xpm[] = {
"10 20 157 2",
"  	c None",
". 	c #0B2D04",
"+ 	c #092A00",
"@ 	c #092902",
"# 	c #0A2A00",
"$ 	c #0C3205",
"% 	c #0E3506",
"& 	c #103608",
"* 	c #0F3607",
"= 	c #071D06",
"- 	c #061F02",
"; 	c #071F04",
"> 	c #061F01",
", 	c #082002",
"' 	c #071F03",
") 	c #081F01",
"! 	c #052103",
"~ 	c #071F06",
"{ 	c #091D05",
"] 	c #0B1F03",
"^ 	c #0A1E04",
"/ 	c #091E06",
"( 	c #051F05",
"_ 	c #072004",
": 	c #092106",
"< 	c #091D02",
"[ 	c #183710",
"} 	c #4B7825",
"| 	c #6C9222",
"1 	c #759A23",
"2 	c #4D6B18",
"3 	c #0E2408",
"4 	c #062008",
"5 	c #091F02",
"6 	c #153512",
"7 	c #346D29",
"8 	c #619229",
"9 	c #87AD26",
"0 	c #8FB323",
"a 	c #5C7F1E",
"b 	c #0E2A0B",
"c 	c #072005",
"d 	c #071F07",
"e 	c #0A1E08",
"f 	c #39601F",
"g 	c #649B31",
"h 	c #1E3713",
"i 	c #16270A",
"j 	c #122807",
"k 	c #0A270B",
"l 	c #032910",
"m 	c #062005",
"n 	c #091F09",
"o 	c #081D09",
"p 	c #51701C",
"q 	c #8CB72B",
"r 	c #1E370D",
"s 	c #091F07",
"t 	c #0A1F08",
"u 	c #06250F",
"v 	c #032912",
"w 	c #052203",
"x 	c #091F06",
"y 	c #071C0B",
"z 	c #5E791C",
"A 	c #9CC22C",
"B 	c #203409",
"C 	c #071C06",
"D 	c #061E06",
"E 	c #03240C",
"F 	c #062913",
"G 	c #082206",
"H 	c #0B1F06",
"I 	c #061D08",
"J 	c #37500F",
"K 	c #6D9624",
"L 	c #4F7B21",
"M 	c #668B21",
"N 	c #709320",
"O 	c #47691B",
"P 	c #09290F",
"Q 	c #061F07",
"R 	c #091D04",
"S 	c #071F05",
"T 	c #17350F",
"U 	c #376D26",
"V 	c #609126",
"W 	c #84AA23",
"X 	c #8DAF24",
"Y 	c #6B9523",
"Z 	c #254E1A",
"` 	c #072006",
" .	c #071E04",
"..	c #39601E",
"+.	c #609830",
"@.	c #1F3811",
"#.	c #162C05",
"$.	c #162A05",
"%.	c #436A21",
"&.	c #5B9131",
"*.	c #0F2A06",
"=.	c #061E04",
"-.	c #081C08",
";.	c #50701E",
">.	c #8CB62E",
",.	c #1E3311",
"'.	c #061E08",
").	c #031C05",
"!.	c #587A1F",
"~.	c #88B32D",
"{.	c #152D07",
"].	c #071E03",
"^.	c #081B05",
"/.	c #5A771C",
"(.	c #233414",
"_.	c #0A1B07",
":.	c #081708",
"<.	c #64811E",
"[.	c #97BE2A",
"}.	c #1A2F0B",
"|.	c #041E00",
"1.	c #071C04",
"2.	c #3B5411",
"3.	c #729A25",
"4.	c #4C7623",
"5.	c #628421",
"6.	c #6C891F",
"7.	c #799B20",
"8.	c #66811C",
"9.	c #10260A",
"0.	c #072108",
"a.	c #091F08",
"b.	c #214415",
"c.	c #65982C",
"d.	c #8EB72C",
"e.	c #95BB28",
"f.	c #628419",
"g.	c #0F2607",
"h.	c #091E0A",
"i.	c #091E04",
"j.	c #072003",
"k.	c #102706",
"l.	c #172B05",
"m.	c #152C06",
"n.	c #0C2306",
"o.	c #061E05",
"p.	c #051F04",
"q.	c #0A1D03",
"r.	c #042000",
"s.	c #041F00",
"t.	c #032000",
"u.	c #0E2F03",
"v.	c #0D3103",
"w.	c #0D3104",
"x.	c #0C3103",
"y.	c #0C2703",
"z.	c #0F2A04",
". + + + @ @ @ + + # ",
"$ % % % & & & * % * ",
"= - - - ; ; ; - > , ",
"' ) ! ~ { ] ^ { / ( ",
"_ : < [ } | 1 2 3 4 ",
"5 ; 6 7 8 9 0 a b c ",
"d e f g h i j k l m ",
"n o p q r s t u v w ",
"x y z A B C D E F G ",
"H I J K L M N O P Q ",
"R S T U V W X Y Z ` ",
" .x ..+.@.#.$.%.&.*.",
"=.-.;.>.,.'.).!.~.{.",
"].^./.A (._.:.<.[.}.",
"|.1.2.3.4.5.6.7.8.9.",
"S 0.a.b.c.d.e.f.g.h.",
"i.' , j.k.l.m.n.o.p.",
"q.r.r.r.s.s.s.t.r.t.",
"u.v.v.w.w.w.w.x.v.x.",
"y.z.z.z.*.*.*.z.z.z."};
