/* XPM */
static char *new_digit__[] = {
/* columns rows colors chars-per-pixel */
"15 20 235 2",
"   c #05D21BF20301",
".  c #06351E11032D",
"X  c #06D01E8E028C",
"o  c #04F81D7D04D6",
"O  c #06C51CDC0563",
"+  c #06761E7C044F",
"@  c #06BB1E86040F",
"#  c #06151F330426",
"$  c #07291EAF044D",
"%  c #062C1E550567",
"&  c #05F11D7F0612",
"*  c #04F81DE30661",
"=  c #06A91E0A0586",
"-  c #07031DB2070E",
";  c #09481CEF0249",
":  c #08151DC101A7",
">  c #07E21F790295",
",  c #09B81EE40311",
"<  c #08D31D6F052B",
"1  c #07D01E4C042C",
"2  c #09241E820468",
"3  c #080B1F27045B",
"4  c #090A1F480462",
"5  c #088C1DEB0561",
"6  c #079A1F98050A",
"7  c #0A1C1DF40483",
"8  c #09EF1F8F0467",
"9  c #0B291E4A0525",
"0  c #0A1C1F800567",
"q  c #0A081C270650",
"w  c #08171DA80704",
"e  c #09261F2E0739",
"r  c #0AC11F40075B",
"t  c #0C2A1D66058A",
"y  c #08C611FC095C",
"u  c #0DBF11EC08CB",
"i  c #0AC314FD0BCE",
"p  c #0CD513B10B9A",
"a  c #06461DEF07D5",
"s  c #060A1F5507C0",
"d  c #08C51AF6083B",
"f  c #09881D8A0793",
"g  c #0A0A1D520799",
"h  c #0B231D1B0907",
"j  c #08291EC107E7",
"k  c #09451EF00884",
"l  c #09C21F460788",
"z  c #0D661CE208EF",
"x  c #0E601EDC092A",
"c  c #0F911EEF091A",
"v  c #05CB1FB3026B",
"b  c #050421C902FD",
"n  c #066E20E503A5",
"m  c #05411FFA06C4",
"M  c #064221220666",
"N  c #07EE20F601FD",
"B  c #0824201D02C2",
"V  c #079A20B502A7",
"C  c #08401FFC0480",
"Z  c #08B7207C046F",
"A  c #097A219B03B3",
"S  c #07DC20A0050C",
"D  c #08C32086049B",
"F  c #09C61FA0045B",
"G  c #0B492186057D",
"H  c #07A421690635",
"J  c #086C207C0715",
"K  c #0912200B0714",
"L  c #07FF20FA06FF",
"P  c #09B51FBA0683",
"I  c #0ACB219705E3",
"U  c #099A20240718",
"Y  c #0AF720680694",
"T  c #0819226505EF",
"R  c #08FB2289069F",
"E  c #0894238606A7",
"W  c #0DE1217D04FB",
"Q  c #0C0F215F0601",
"!  c #0E7521C40787",
"~  c #0B6C23A706B7",
"^  c #0C76294E0000",
"/  c #0C9629530000",
"(  c #0C32289C0236",
")  c #0CBD28FB0382",
"_  c #08082F18012B",
"`  c #0A7D2D8302ED",
"'  c #089C2E710253",
"]  c #08C42E9B02F5",
"[  c #0A722E4D0273",
"{  c #0B142E180278",
"}  c #0A272E4A02D6",
"|  c #0B0B2E3D0324",
" . c #0AB92F8E0372",
".. c #0C0E2F060097",
"X. c #0BEF2F64025D",
"o. c #0BDE2DAF02F7",
"O. c #0CF72E23032F",
"+. c #095827F904B9",
"@. c #0AE0283C0442",
"#. c #0BD3288F0449",
"$. c #0D3529B6052A",
"%. c #0EE329D60727",
"&. c #0B1B2CD0057F",
"*. c #08E42EE90464",
"=. c #08D62EF10521",
"-. c #0A7B2F8F0392",
";. c #0AA62F930391",
":. c #0A8B2F5D0560",
">. c #09192ECE0695",
",. c #0CDC2E9706CD",
"<. c #0F3E2DD00785",
"1. c #0E782ECE0778",
"2. c #06EF20DF0862",
"3. c #056C23130819",
"4. c #064B228E0824",
"5. c #077A227F0878",
"6. c #039024B608AA",
"7. c #0634268D0B3D",
"8. c #039D25300C10",
"9. c #06B525E80BD9",
"0. c #068525030DB3",
"q. c #044026CD0F0E",
"w. c #0A3A202B079B",
"e. c #0A1F20AA08D3",
"r. c #0A68231A07F8",
"t. c #09D622980999",
"y. c #0B0C23800A6E",
"u. c #0DA420BC095B",
"i. c #0EEE235D0900",
"p. c #0CEC20F50A92",
"a. c #0F5A20CC0A1C",
"s. c #095C25AA08B9",
"d. c #0D49258907A5",
"f. c #0ED3286B09BE",
"g. c #0E902C6B09AE",
"h. c #10E32086051A",
"j. c #125122550769",
"k. c #155C2C2806FC",
"l. c #15082A3D0983",
"z. c #12CC2CCE0B86",
"x. c #18522B700940",
"c. c #08E9316F00BD",
"v. c #0B69301A002C",
"b. c #084032290050",
"n. c #0876327500E6",
"m. c #093E31FC00BE",
"M. c #0B03323A00B5",
"N. c #0A8932BF00F4",
"B. c #0B7430AE030C",
"V. c #096431F90245",
"C. c #0AE532BC01C0",
"Z. c #0AB332A702C1",
"A. c #0BF331960165",
"S. c #0BA4329A0180",
"D. c #0BBC3389013A",
"F. c #0CCF336B0125",
"G. c #0F3F32430146",
"H. c #0C6231390241",
"J. c #0D7830D80257",
"K. c #0BAB30A202C5",
"L. c #0D29311302CD",
"P. c #0F0732560325",
"I. c #0AB9347D0120",
"U. c #0A2633BD01BC",
"Y. c #0C1334A30122",
"T. c #0CE434430122",
"R. c #0D0734B90123",
"E. c #0C033641014C",
"W. c #0F7E34250358",
"Q. c #09E92FF204A8",
"!. c #0B86324D0386",
"~. c #09F131E304DB",
"^. c #0DAB31D20394",
"/. c #0E6232F603A9",
"(. c #0B39349003C1",
"). c #0F72340C0387",
"_. c #0B292FF608D9",
"`. c #0B042FE70E29",
"'. c #104334880328",
"]. c #0FB23F1F0344",
"[. c #11143DA50670",
"{. c #016E29621361",
"}. c #0344289113DC",
"|. c #051728E8146E",
" X c #06E22974142C",
".X c #07A929931218",
"XX c #078F28FC12BA",
"oX c #18B43E77118A",
"OX c #0DB742D20437",
"+X c #11A4411505F5",
"@X c #1B63422011F7",
"#X c #19EE43481A66",
"$X c #1CA54146185C",
"%X c #1D1C440718CC",
"&X c #1CE845071936",
"*X c #1B424C071E55",
"=X c #2696513C19FD",
"-X c #1F275A772822",
";X c #2E54717C31DB",
":X c #499767FB1921",
">X c #4FDF6D7917A7",
",X c #53376F5E1D0C",
"<X c #55E175F31D05",
"1X c #439B70C62419",
"2X c #47FA73DE25B2",
"3X c #54B07F1C2400",
"4X c #674C89AE1EAA",
"5X c #6E348E421C7D",
"6X c #78FB978D1D48",
"7X c #53D884DC22AB",
"8X c #549083E62628",
"9X c #55FB850D26B6",
"0X c #59A7850D25A1",
"qX c #5BDD85C427AB",
"wX c #5A09896327D4",
"eX c #627B869E1FB8",
"rX c #60788E3827D1",
"tX c #6080936E2F44",
"yX c #710A947C23B2",
"uX c #76CF9BF421D0",
"iX c #74F59C9B24B8",
"pX c #78189BC222BD",
"aX c #7E289FD123B7",
"sX c #7FB19FF523E9",
"dX c #7C469ED126C0",
"fX c #600D923B324E",
"gX c #7D25A0F52169",
"hX c #7CE7A13925B7",
"jX c #7D26A4AE24F7",
"kX c #818CA42C2276",
"lX c #80E8A4552488",
"zX c #85EBAABA26FF",
"xX c #8B84AF19263B",
"cX c #8291ABEB2F3A",
"vX c #8FFAB3D62A7C",
/* pixels */
"p <.O.o.{ { [ [ [ [ ` ` | 1.i ",
",.+XH.C.M.N.~.B.v.J.!.U.V.].A.",
"L.D.q l 1 1 @ . = a e r g ` /.",
"..E.S E 2 & T W j.c 7 N > _ Z.",
"L.F.5 Y : @XwXjXzX<X~ k f | S.",
"^.F.+ Z 4.$X3XyX6X7X*X3.w | b.",
"^.F.+ D 7.XX2.t z -X;Xs.j } b.",
"L.T.$ K q..XJ C d 1XtXf.- ' n.",
"H.R.3 e 9. Xr.h.x 4XxXl.1 *.n.",
"H.R.3 e m %X9XuXsXgX:XQ . >.n.",
"K.Y.4 U M &X0XpXaXrX=XH + :.n.",
"-.I.8 L 6.}.t.i.! 2XfX%.; | m.",
";.I.4 L 8.{.b v   eXcXk., | m.",
" .I.F L 0.|.R p.h 5XvXx.P ] m.",
"X.D.3 G 5.#X8XiXhXlX,Xy.* *.m.",
"X.D.3 Q % oXqXdXkX>XA s o =.m.",
"X.D.3 I L 9 w.u.a.0 # n e.Q.c.",
"z.(.< X 6 B V B Y B 3 1 O &.`.",
"g.OXP.G.W.'.'.'.'.'.W.).H.[._.",
"y +.$.) ( ^ ^ ^ ^ / ( #.@.d.u "
};
