/* XPM */
static char *new_digit__[] = {
/* columns rows colors chars-per-pixel */
"15 20 220 2",
"   c #07C40D390915",
".  c #058614C70374",
"X  c #0665148004AA",
"o  c #03161E4901EB",
"O  c #031D1F1D0354",
"+  c #05081F3400CF",
"@  c #06D91F100162",
"#  c #052C1F620258",
"$  c #05431E8002F7",
"%  c #05811F520287",
"&  c #05F31F360265",
"*  c #07091F290202",
"=  c #07051EF202C2",
"-  c #06201D66040E",
";  c #05711F3603A2",
":  c #05BA1DF40447",
">  c #06C51F230426",
",  c #05581E14062E",
"<  c #086B1B4D0316",
"1  c #079D1DF50198",
"2  c #07FC1F340215",
"3  c #090A1EEB0247",
"4  c #0A4B1E5B035A",
"5  c #08E91D08047B",
"6  c #08361DBD04D2",
"7  c #07D51EEC055C",
"8  c #09BA1F9B0499",
"9  c #08121D5B0644",
"0  c #086B1C8F06B9",
"q  c #07D61E1E05BB",
"w  c #08F41DF90634",
"e  c #08641F920621",
"r  c #08A41F4E0671",
"t  c #0A161E6F0660",
"y  c #0A991E2306C0",
"u  c #05B81AC10871",
"i  c #059E1EF20818",
"p  c #09191F3907CF",
"a  c #08B21EA80AD5",
"s  c #01D11FBA006F",
"d  c #030A203E00F4",
"f  c #044C208A00A2",
"g  c #048B1FFD013A",
"h  c #045D20A200A2",
"j  c #062F1FEF010C",
"k  c #04BB222B0070",
"l  c #05811FB501C9",
"z  c #05DB1FA60237",
"x  c #07352040024C",
"c  c #06D91FE30347",
"v  c #0771213202C9",
"b  c #054E22AE0363",
"n  c #0463211B0467",
"m  c #05BE214B03AF",
"M  c #06FC200C04F2",
"N  c #064A20DF0562",
"B  c #065921E90412",
"V  c #0710224604FD",
"C  c #057E213A05F4",
"Z  c #027F24E004E3",
"A  c #08A82017009D",
"S  c #0941200E0211",
"D  c #088E21550237",
"F  c #092D20000338",
"G  c #0DB520870279",
"H  c #079220740409",
"J  c #08F620FB047E",
"K  c #09521FA50497",
"L  c #07B1214904D8",
"P  c #089721210538",
"I  c #0AA920F80424",
"U  c #080120980678",
"Y  c #0987218F0678",
"T  c #0AE920790629",
"R  c #07E92240065B",
"E  c #080B224A06A3",
"W  c #0926246A06A5",
"Q  c #0CEC251A06CF",
"!  c #09EC2A540005",
"~  c #0AF52BA2013E",
"^  c #09882F1F005A",
"/  c #0B832EB70009",
"(  c #0AA32BD20233",
")  c #09CE2CDD024E",
"_  c #0AF12C4502EA",
"`  c #0C392F0A000A",
"'  c #0E272F330020",
"]  c #0EA02F3701A0",
"[  c #09CA2A5E072A",
"{  c #0BC22A2C0557",
"}  c #0EC22A2D04BB",
"|  c #0D3E27D4058C",
" . c #0DD72B200626",
".. c #0AFA2D8F043A",
"X. c #0A6C2D9C04A4",
"o. c #0B712D6C053F",
"O. c #0B6E2E090415",
"+. c #0B4C2DCC052A",
"@. c #0A4C2D1D06D2",
"#. c #0BE72D710514",
"$. c #0DBF2D3B041E",
"%. c #0BF22E040477",
"&. c #0D052DAC062A",
"*. c #0C702E920719",
"=. c #077D21CE08B3",
"-. c #0336270B088D",
";. c #02F626390B17",
":. c #068125D008EE",
">. c #0697244E0A77",
",. c #04C7279F0A16",
"<. c #0415263A0B1A",
"1. c #071524E00EAF",
"2. c #04FE25CC0E74",
"3. c #084020810933",
"4. c #0B0321460916",
"5. c #09FA222208E0",
"6. c #0F341FBF07ED",
"7. c #0F5E26380B24",
"8. c #057328A20B80",
"9. c #0382291E0C56",
"0. c #035727C10D3A",
"q. c #027629A40D89",
"w. c #02E829570ED6",
"e. c #054427EB0D82",
"r. c #0440290D0CF0",
"t. c #0BE527FB0899",
"y. c #0C1B28BC08A9",
"u. c #0A822D350882",
"i. c #0D4C2DF6079F",
"p. c #0EDC2EF2099C",
"a. c #0FFE2A4C0450",
"s. c #10C2255E0884",
"d. c #106D266C090E",
"f. c #161C25980D33",
"g. c #1379297C0AA4",
"h. c #13B82A6A082C",
"j. c #16EB2E840839",
"k. c #18882DA40874",
"l. c #19452D0809AD",
"z. c #0D60315502D7",
"x. c #0E13319A0357",
"c. c #0E3B31CF032C",
"v. c #0EAF320F0353",
"b. c #0BEB306A041F",
"n. c #0DE6308A03A8",
"m. c #0D95312203C7",
"M. c #0EB031A60391",
"N. c #0ECB31C0049B",
"B. c #0D4630F90614",
"V. c #0C7932BF06D8",
"C. c #0E1B32FC05CE",
"Z. c #0E64334B070E",
"A. c #0A7734D9043A",
"S. c #0C3435780534",
"D. c #0D4A344B071F",
"F. c #0F7834320736",
"G. c #0E76358F06EF",
"H. c #0EB4357606EF",
"J. c #0F6F35CE0743",
"K. c #0D46318D0901",
"L. c #0DED31640904",
"P. c #0F193122090E",
"I. c #0CBB32630850",
"U. c #0BFB335C0832",
"Y. c #0E55318409DD",
"T. c #0EEE318809FC",
"R. c #1194315D0776",
"E. c #10333529076E",
"W. c #10113C950738",
"Q. c #111A317907DE",
"!. c #11BD31E507B7",
"~. c #11EB3EFE0974",
"^. c #15823EEA0D1E",
"/. c #05D3230C1029",
"(. c #040F26AF1002",
"). c #051127670FC0",
"_. c #02512A4F117C",
"`. c #03ED299B105C",
"'. c #0529298A103B",
"]. c #0569293A10E3",
"[. c #06D528211008",
"{. c #0607292F118D",
"}. c #06222A0D1131",
"|. c #05FD29101240",
" X c #047A28F814CC",
".X c #0DC9286C111F",
"XX c #123829AF1042",
"oX c #19883BD81224",
"OX c #1A743F3D16F5",
"+X c #1FAB26441C3E",
"@X c #12EF414509A8",
"#X c #1E9F46B71A48",
"$X c #244E445F1C8F",
"%X c #22D94C5C1840",
"&X c #174E4A351FB1",
"*X c #2B92442A2468",
"=X c #209E57AC22A0",
"-X c #3A1167A42382",
";X c #3D596899237D",
":X c #295F72B1351D",
">X c #41AA5D74166F",
",X c #4490623318B8",
"<X c #4CC66B811BE1",
"1X c #5C827CB0164E",
"2X c #4E6D7AE521A0",
"3X c #5BCC7D142050",
"4X c #62EF81F21A00",
"5X c #6115806C1F63",
"6X c #67EC86421F4C",
"7X c #5FA68F082759",
"8X c #5BDB927530BD",
"9X c #5B0F92913374",
"0X c #6D3D92E12509",
"qX c #62E792592E7F",
"wX c #77D599F924C8",
"eX c #88DFACF72B68",
"rX c #8FEAB16A260B",
"tX c #9277B8952CB1",
"yX c #9824BE352DC6",
"uX c #8710B1E42FDE",
/* pixels */
"  t.u.) ! ! ! ! ! ~ _ ( R.*X+X",
"[ ~.D.S.H.H.H.G.G.H.J.J.F.^.$X",
"i.b.5 * * = & # # % > > - @.E.",
"^ C.2 4 3 + w K G v N 3 o @.I.",
"` Q.@ l M oX2X0XwX<X6.M 6 #.K.",
"/ Q.@ z =.#XqXeXrX7X&XY q X.K.",
"` Q.2 3 2.|.d.g.f.=X:Xy.t +.L.",
"` !.F D ;._.T R p -X9XXX9 %.P.",
"` !.F v :.`.3.5.u 5XtXl.; %.P.",
"` !.F J W r.(.8./.>X1Xs.= %.P.",
"` !.F I b e.9.q.[.OX%X4.r +.K.",
"` !.F S -.'.n H : ;X8Xh.y o.K.",
"` !.F x <.{.V P < 3XuXk.2 ..K.",
"' !.* j ,.}.E C 0 6XyXj.= O.Y.",
"' !.@ A Z w.).0.1.,X4XQ $ %.T.",
"' !.@ F g >.r.]. X.X7.i a #.T.",
"] N.1 x * c m U B e , L 7 &.V.",
"$.Z.8 k f f h f f d s d O *.A.",
"p.@XB.m.M.v.c.v.v.c.z.x.n.W.U.",
".  .{ } a.a.a.a.a.a.a.a.a.| X "
};
