/* XPM */
static char *new_digit__[] = {
/* columns rows colors chars-per-pixel */
"15 20 246 2",
"   c #0601147C021C",
".  c #058D11AA04ED",
"X  c #01D21F9D0248",
"o  c #055C1F3B001D",
"O  c #03861ED40085",
"+  c #05E21E230000",
"@  c #06841F7F0078",
"#  c #05DA1F2C0115",
"$  c #045D1E640355",
"%  c #05BF1E6301AD",
"&  c #06E31EEF025A",
"*  c #05CA1DAD0328",
"=  c #06E81F290298",
"-  c #061D1AD306DF",
";  c #05151D4003C0",
":  c #074F1D8003DE",
">  c #047F1EEE056B",
",  c #06191DF303E3",
"<  c #07781E6D03B2",
"1  c #06BD1F380429",
"2  c #07161DA20497",
"3  c #068B1CE70614",
"4  c #068E1D6606C2",
"5  c #044D1DE1061A",
"6  c #05061E130621",
"7  c #05A61DBA06E4",
"8  c #07F21F3B025B",
"9  c #07AB1B3C0700",
"0  c #08771C7C03A8",
"q  c #09811D700493",
"w  c #090E1E7604E2",
"e  c #07B91F1504B4",
"r  c #09F11C4405FB",
"t  c #08721F4905FD",
"y  c #092F1F86061E",
"u  c #07CB1F8F0736",
"i  c #09C61F070732",
"p  c #0CE71F2E0404",
"a  c #0DCC1F1F0483",
"s  c #072E0FCD0929",
"d  c #044014A10915",
"f  c #07591F8507DA",
"g  c #08461F5307DB",
"h  c #09B71ECB079D",
"j  c #08E01E4E09B5",
"k  c #0C471CB20AAE",
"l  c #026120B7004B",
"z  c #02E4205000FD",
"x  c #0302212700E0",
"c  c #02E620C80205",
"v  c #03C520730026",
"b  c #057C20A00026",
"n  c #03C2217A003B",
"m  c #04421FEB008D",
"M  c #054B20300119",
"N  c #03B820BA009E",
"B  c #04E020C3010C",
"V  c #05D220710024",
"C  c #038821BD0095",
"Z  c #03A61FDF0296",
"A  c #04E920CD030A",
"S  c #07271FC001DD",
"D  c #06E920340397",
"F  c #077421CF0454",
"G  c #06DE20A205C9",
"H  c #07B520090117",
"J  c #07E020EB017E",
"K  c #085A209F0227",
"L  c #0969204F0280",
"P  c #08CA20070522",
"I  c #0D481FBB0626",
"U  c #0D5E2127071A",
"Y  c #0C6327120478",
"T  c #0A022A350000",
"R  c #0B0E29BE0000",
"E  c #0ACC29BF0098",
"W  c #0A8F2AE500C1",
"Q  c #09E029BC0260",
"!  c #0AA62A4302B9",
"~  c #0B95290202DD",
"^  c #0BE92AEF02D3",
"/  c #0B662F3B0249",
"(  c #0AA02E0A0373",
")  c #0C2E2BE20043",
"_  c #0D0A2C7700E8",
"`  c #0D352C6F0245",
"'  c #0C582C6702A5",
"]  c #0D792CB10345",
"[  c #0D9D2CA701EA",
"{  c #0F4B2C4A0337",
"}  c #0BBD2E380240",
"|  c #0BED2EB30242",
" . c #0BDE2EE7030F",
".. c #0C902F7402DE",
"X. c #0F632F1F02B7",
"o. c #0BC4280703A5",
"O. c #0CDD28C003CC",
"+. c #0E5A28DE0399",
"@. c #0DE22A5303C9",
"#. c #0E3129DB04E4",
"$. c #0E742B6704AF",
"%. c #0EA7296F0656",
"&. c #0DC529BF05C0",
"*. c #08202F6C0504",
"=. c #0A822F470448",
"-. c #0DE62C150585",
";. c #0CCF2DE8041E",
":. c #0531228A08DF",
">. c #02E5263B0EE2",
",. c #05CC25E20E8B",
"<. c #08FC213607F5",
"1. c #09DB1FA007F8",
"2. c #0B7822D1080D",
"3. c #091321D90A99",
"4. c #0CDE21BF07E0",
"5. c #0DC8237C084F",
"6. c #09D623F208A6",
"7. c #0D77261E07E1",
"8. c #0F6724660CD7",
"9. c #0DC32B390AF7",
"0. c #0CDA2B4A0B8F",
"q. c #1154263A06E8",
"w. c #0FFF2AB50457",
"e. c #10632AC80527",
"r. c #129D290A0631",
"t. c #13062A8E0758",
"y. c #158C2B520405",
"u. c #118125570AFB",
"i. c #0FBC299E0867",
"p. c #11FF28A30806",
"a. c #128029BD09C5",
"s. c #14EA29670790",
"d. c #164528B808B2",
"f. c #15E42D100803",
"g. c #16172D8B0A6E",
"h. c #18A42AFB0918",
"j. c #18502DFF0929",
"k. c #0A4A314D0196",
"l. c #0B18300D0305",
"z. c #0A5730E602AB",
"x. c #0F57338C0132",
"c. c #0C692FE30323",
"v. c #0CF83045031D",
"b. c #0D22322602BB",
"n. c #0F44332A01F9",
"m. c #0E1F31C9032E",
"M. c #0E8E34240205",
"N. c #0DDA3424035C",
"B. c #093030860459",
"V. c #0B35301703FC",
"C. c #09BB308504D6",
"Z. c #0C45303903DB",
"A. c #0D182FD10406",
"S. c #0C32316F03B0",
"D. c #0C28304A0542",
"F. c #0DB1302E0415",
"G. c #0DB9315003CB",
"H. c #0ECE315D03B6",
"J. c #0D9B30920489",
"K. c #0F27312D04E2",
"L. c #0D4630D80595",
"P. c #0ED432BC06F6",
"I. c #0EE4354E072B",
"U. c #0DF13E9502AB",
"Y. c #0F41344107BD",
"T. c #102833AA047C",
"R. c #103A34ED06F0",
"E. c #12D134650607",
"W. c #12B5351306C7",
"Q. c #0FB2361806DA",
"!. c #13D13BEC0722",
"~. c #0FBB3025096E",
"^. c #11F633780A80",
"/. c #18572FBB0C7D",
"(. c #13423D64086F",
"). c #044F26800FB9",
"_. c #042D27690FF8",
"`. c #047C28FE125C",
"'. c #03E929C71381",
"]. c #12A62A271006",
"[. c #18342E4510E8",
"{. c #176438D711B8",
"}. c #172A3EAF1579",
"|. c #19F537E812C6",
" X c #185D3B6812EF",
".X c #1C5F397B13A6",
"XX c #1E233AF61477",
"oX c #1DE83DCD1405",
"OX c #21F63FA01AD2",
"+X c #2B493AA8290A",
"@X c #12B74123098F",
"#X c #1A6E455B1CB8",
"$X c #23674704160D",
"%X c #20AC497D174F",
"&X c #21414B281AA1",
"*X c #2D7D4A402434",
"=X c #2D7E483D2692",
"-X c #2CBE47C927A0",
";X c #31B8460C2B6C",
":X c #209F5CA12806",
">X c #3F686A452689",
",X c #38AA6E4B26D3",
"<X c #3E47702C248A",
"1X c #260D6DA531AD",
"2X c #430859CF12CC",
"3X c #46CB63EB1730",
"4X c #57F073D01EEF",
"5X c #5E9B7AF21B80",
"6X c #596A7B511DDB",
"7X c #5D307E0F1EBD",
"8X c #47C2728620FC",
"9X c #4792746B25F2",
"0X c #50AE7E9C24A9",
"qX c #518C7C152659",
"wX c #686484F31DFD",
"eX c #68F2895F1E27",
"rX c #6E6690161CEA",
"tX c #767899391E18",
"yX c #5C758BD226B1",
"uX c #54798AA52C96",
"iX c #56358B932EC1",
"pX c #602C86022159",
"aX c #64FB850620C8",
"sX c #66FD88AC20E9",
"dX c #6D638EC2213F",
"fX c #6A788DF92543",
"gX c #6785920A2768",
"hX c #6AC993C4252E",
"jX c #6EAC94B324A2",
"kX c #62C5925C299E",
"lX c #65F895982D68",
"zX c #6A309AB92DD7",
"xX c #7B9B9E1E205D",
"cX c #7A8F9E702302",
"vX c #618294AA31D3",
"bX c #8635AA2427A3",
"nX c #8912AD672423",
"mX c #8CB8B02925CC",
"MX c #8236A8872A47",
"NX c #890FAE102B0E",
"BX c #8F26B35C2032",
"VX c #8FE7B316243F",
"CX c #8FC4B6BE2758",
"ZX c #8702B0DD2A8E",
"AX c #951EBBF62B84",
"SX c #97DFBCF82CB0",
/* pixels */
"s &.! Q Q E R R T T W ' $.9.d ",
"*.(.Y.I.I.R.R.R.I.I.I.I.Q.@X0.",
"T.~., 1 1 = & & 8 = & < 8 ;.( ",
"M.l.$ S B : t p a 3 u 2 C ..} ",
"n.| P D 7  X0XjXtX3XU h x / ) ",
"n.| f > {.,XlXnXBXyX#X<.x / ) ",
"n. .6 e >XvX/.a.u.:X1X6.v Z.` ",
"x.v.; , 6XZXg.1.r <XiXq.V Z.[ ",
"x.F.6 4 wXAXj.j k sXNXd.V Z._ ",
"x.A.5 * 2XhXqXfXrXxX4XI b V.[ ",
"n.C.= H 3.&XkXbXmXgX%Xy n =.` ",
"n.C.S M >.`.e.f.h.9XuX7.x D.] ",
"n.B.O K ).'.G i - pXMXp.c L.] ",
"W.z.@ L ,._.0 q 9 dXVXs.z v.{ ",
"E.k.H J :.}.8XaXeXcX5X4.l / { ",
"*X^.+ o # $XzXCXSX7X5.i x c.{ ",
"OX-X8.% S F r.y.t.2.w g x F.X.",
"N.oX+X].Z A M m z N N z X l.i.",
"P.!.XX=X|.K.H.S.b.m.G.J.V.U.%.",
". o.Y [.;X.X^ -.@.w.+.O.~ #.  "
};
