/* XPM */
static char * digit_4_xpm[] = {
"10 20 148 2",
"  	c None",
". 	c #0A2E02",
"+ 	c #0C2D02",
"@ 	c #0B3001",
"# 	c #0B3100",
"$ 	c #0B3201",
"% 	c #0B3302",
"& 	c #091D06",
"* 	c #081F06",
"= 	c #081E05",
"- 	c #081E06",
"; 	c #091E07",
"> 	c #06200A",
", 	c #07220B",
"' 	c #08230C",
") 	c #07210A",
"! 	c #072109",
"~ 	c #062105",
"{ 	c #082204",
"] 	c #072005",
"^ 	c #062004",
"/ 	c #091D03",
"( 	c #0A1F04",
"_ 	c #072307",
": 	c #05280E",
"< 	c #06270A",
"[ 	c #072810",
"} 	c #08240D",
"| 	c #081F07",
"1 	c #0A1E04",
"2 	c #071D01",
"3 	c #092007",
"4 	c #1B4313",
"5 	c #285A1E",
"6 	c #092811",
"7 	c #04270A",
"8 	c #062512",
"9 	c #124320",
"0 	c #144B1C",
"a 	c #0B2009",
"b 	c #051F03",
"c 	c #071E07",
"d 	c #466F23",
"e 	c #689A30",
"f 	c #132B09",
"g 	c #072002",
"h 	c #1F5D29",
"i 	c #2A7032",
"j 	c #0B250A",
"k 	c #041C07",
"l 	c #091C08",
"m 	c #5C7D1E",
"n 	c #8AB329",
"o 	c #152D05",
"p 	c #062005",
"q 	c #0B190D",
"r 	c #467224",
"s 	c #5D9128",
"t 	c #102506",
"u 	c #052005",
"v 	c #64841D",
"w 	c #96BA29",
"x 	c #1D2D0B",
"y 	c #0F2206",
"z 	c #10200A",
"A 	c #6A8B25",
"B 	c #89AF28",
"C 	c #14280A",
"D 	c #031F07",
"E 	c #051E08",
"F 	c #324D0F",
"G 	c #618A21",
"H 	c #5A8829",
"I 	c #789C20",
"J 	c #80A326",
"K 	c #7CA024",
"L 	c #4B6513",
"M 	c #0D2006",
"N 	c #072004",
"O 	c #05210B",
"P 	c #1C4317",
"Q 	c #5A8529",
"R 	c #799B25",
"S 	c #7B9E28",
"T 	c #5F8C29",
"U 	c #27501D",
"V 	c #0A2108",
"W 	c #081F01",
"X 	c #03250F",
"Y 	c #042713",
"Z 	c #0B210A",
"` 	c #0D240B",
" .	c #0C1F0A",
"..	c #477323",
"+.	c #5C9032",
"@.	c #122607",
"#.	c #071E00",
"$.	c #061F01",
"%.	c #04250F",
"&.	c #032810",
"*.	c #061C08",
"=.	c #63881D",
"-.	c #82AA2C",
";.	c #162806",
">.	c #072003",
",.	c #012710",
"'.	c #062003",
").	c #072001",
"!.	c #071E08",
"~.	c #709020",
"{.	c #8FB228",
"].	c #142805",
"^.	c #072000",
"/.	c #072206",
"(.	c #052713",
"_.	c #062914",
":.	c #022710",
"<.	c #04260D",
"[.	c #3B5D16",
"}.	c #516D17",
"|.	c #0B2107",
"1.	c #071F02",
"2.	c #082000",
"3.	c #061F03",
"4.	c #092308",
"5.	c #04290E",
"6.	c #042811",
"7.	c #07280D",
"8.	c #062308",
"9.	c #09200A",
"0.	c #071F08",
"a.	c #061E02",
"b.	c #071F04",
"c.	c #072007",
"d.	c #091E02",
"e.	c #0A2000",
"f.	c #092001",
"g.	c #082004",
"h.	c #0A2004",
"i.	c #092003",
"j.	c #091F02",
"k.	c #0C1F06",
"l.	c #0F3403",
"m.	c #103403",
"n.	c #0E3605",
"o.	c #0C2901",
"p.	c #0C2900",
"q.	c #0D2904",
". . . . . . . . . + ",
"@ # # $ $ $ $ $ $ % ",
"& * * = = = - ; ; - ",
"> , ' ) ! ! ~ { ] ^ ",
"/ ( ( _ : < [ } | 1 ",
"2 3 4 5 6 7 8 9 0 a ",
"b c d e f g b h i j ",
"k l m n o p q r s t ",
"u 3 v w x y z A B C ",
"D E F G H I J K L M ",
"^ N O P Q R S T U V ",
"W g X Y Z `  ...+.@.",
"#.$.%.&.] N *.=.-.;.",
">.g %.,.'.).!.~.{.].",
"b ^./.(._.:.<.[.}.|.",
"1.2.3.4.5.6.7.8.9.0.",
"a.#.b.] >.g >.c.^ | ",
"d.e.f.g.h.f.).i.j.k.",
"l.m.m.m.l.l.l.l.l.n.",
"o.p.p.p.p.p.p.p.p.q."};
