/* XPM */
static char * digit_2_xpm[] = {
"10 20 165 2",
"  	c None",
". 	c #0B3006",
"+ 	c #0C2E04",
"@ 	c #0A2E02",
"# 	c #093402",
"$ 	c #0B3302",
"% 	c #0B3401",
"& 	c #0B3201",
"* 	c #0D3300",
"= 	c #113101",
"- 	c #0E3002",
"; 	c #0C3002",
"> 	c #0A3305",
", 	c #071E04",
"' 	c #081E03",
") 	c #081F06",
"! 	c #061F03",
"~ 	c #071E05",
"{ 	c #061E06",
"] 	c #051E03",
"^ 	c #091F06",
"/ 	c #081E06",
"( 	c #062002",
"_ 	c #082207",
": 	c #092009",
"< 	c #072005",
"[ 	c #0A2105",
"} 	c #0D2104",
"| 	c #122204",
"1 	c #091B09",
"2 	c #092108",
"3 	c #082107",
"4 	c #071E02",
"5 	c #062004",
"6 	c #1C4013",
"7 	c #5B882D",
"8 	c #7DA428",
"9 	c #86AA26",
"0 	c #54761C",
"a 	c #0C2208",
"b 	c #061E05",
"c 	c #061E01",
"d 	c #091F04",
"e 	c #062008",
"f 	c #173D15",
"g 	c #547C21",
"h 	c #759322",
"i 	c #78971F",
"j 	c #548524",
"k 	c #1B4F23",
"l 	c #0B200C",
"m 	c #0B1D06",
"n 	c #06250C",
"o 	c #042812",
"p 	c #061F09",
"q 	c #0B1E08",
"r 	c #091C07",
"s 	c #1F5626",
"t 	c #297634",
"u 	c #0B2808",
"v 	c #071F04",
"w 	c #0A2005",
"x 	c #052709",
"y 	c #042A0F",
"z 	c #051F08",
"A 	c #031B07",
"B 	c #406B23",
"C 	c #669933",
"D 	c #122C0D",
"E 	c #062003",
"F 	c #07250A",
"G 	c #052711",
"H 	c #0B1F06",
"I 	c #0C2206",
"J 	c #0D1C0B",
"K 	c #628120",
"L 	c #91B82E",
"M 	c #172D07",
"N 	c #1B3017",
"O 	c #062104",
"P 	c #08200B",
"Q 	c #184117",
"R 	c #568129",
"S 	c #779B25",
"T 	c #7FA024",
"U 	c #7DA023",
"V 	c #506B17",
"W 	c #0E2308",
"X 	c #273823",
"Y 	c #202E1F",
"Z 	c #193C11",
"` 	c #397027",
" .	c #5A8527",
"..	c #789B25",
"+.	c #7E9F25",
"@.	c #50711B",
"#.	c #0B2510",
"$.	c #072006",
"%.	c #0C2307",
"&.	c #273725",
"*.	c #527735",
"=.	c #64982B",
"-.	c #162D0A",
";.	c #0D2306",
">.	c #0D2106",
",.	c #072610",
"'.	c #092102",
").	c #082008",
"!.	c #658035",
"~.	c #90B63E",
"{.	c #1A310C",
"].	c #041F02",
"^.	c #04260C",
"/.	c #041D07",
"(.	c #627E1A",
"_.	c #9EC03D",
":.	c #304126",
"<.	c #0D220B",
"[.	c #0B2008",
"}.	c #06260E",
"|.	c #082002",
"1.	c #061F01",
"2.	c #051E05",
"3.	c #334C10",
"4.	c #658C26",
"5.	c #648E3A",
"6.	c #7FA038",
"7.	c #7FA327",
"8.	c #51741E",
"9.	c #0A280D",
"0.	c #1A3D13",
"a.	c #5A8523",
"b.	c #7E9E2F",
"c.	c #90AE3C",
"d.	c #56771E",
"e.	c #092105",
"f.	c #082003",
"g.	c #082106",
"h.	c #0B2107",
"i.	c #0D210A",
"j.	c #1B2F1B",
"k.	c #2A3A29",
"l.	c #112712",
"m.	c #061F05",
"n.	c #0A2104",
"o.	c #072001",
"p.	c #082201",
"q.	c #082104",
"r.	c #062103",
"s.	c #182B10",
"t.	c #2D3B28",
"u.	c #122711",
"v.	c #0E3307",
"w.	c #113305",
"x.	c #0F3403",
"y.	c #0F3402",
"z.	c #0E3303",
"A.	c #193C0D",
"B.	c #2F4B26",
"C.	c #12280B",
"D.	c #102905",
"E.	c #0B2900",
"F.	c #0C2902",
"G.	c #0F2A07",
"H.	c #192E12",
". + @ @ @ @ @ @ @ @ ",
"# $ % & * = - ; > > ",
", ' , ) ! ~ { ] ^ / ",
"( _ : < [ } | 1 2 3 ",
"4 5 ~ 6 7 8 9 0 a b ",
"c d e f g h i j k l ",
"c m n o p q r s t u ",
"v w x y ~ z A B C D ",
"E [ F G H I J K L M ",
"N O P Q R S T U V W ",
"X Y Z `  ...+.@.#.$.",
"%.&.*.=.-.;.>.,.o '.",
"c ).!.~.{.].c ^.o '.",
"c /.(._.:.<.[.}.o |.",
"1.2.3.4.5.6.7.8.9.O ",
"1.{ / 0.a.b.c.d.e.5 ",
"1.f.g.! h.i.j.k.l.2.",
"m.! n.o.p.q.r.s.t.u.",
"v.w.x.x.y.y.z.y.A.B.",
"C.D.E.E.E.E.E.F.G.H."};
