/* XPM */
static char * digit_3_xpm[] = {
"10 20 43 1",
" 	c None",
".	c #FFFFFF",
"+	c #F5F3FA",
"@	c #8A67C4",
"#	c #4C17A5",
"$	c #460FA2",
"%	c #7A52BC",
"&	c #EBE6F5",
"*	c #9677CA",
"=	c #3B009D",
"-	c #5827AB",
";	c #6234B0",
">	c #764EBA",
",	c #D6CAEA",
"'	c #5D2DAE",
")	c #9272C8",
"!	c #997BCC",
"~	c #9778CB",
"{	c #3F069F",
"]	c #4F1BA7",
"^	c #DED5EE",
"/	c #F8F7FB",
"(	c #9474C9",
"_	c #774FBB",
":	c #E7E0F3",
"<	c #C4B3E1",
"[	c #E2DAF0",
"}	c #F2EFF8",
"|	c #5A29AC",
"1	c #CDBFE6",
"2	c #6B3FB5",
"3	c #FBFBFD",
"4	c #BBA7DD",
"5	c #7951BC",
"6	c #673AB3",
"7	c #5624AA",
"8	c #6639B2",
"9	c #3E049E",
"0	c #D7CBEB",
"a	c #F0ECF7",
"b	c #4E1AA6",
"c	c #6E43B6",
"d	c #D3C7E9",
"..........",
"..........",
"..........",
"..........",
"..........",
"..+@#$%&..",
"..*=-;=>..",
".....,='..",
"....)==!..",
"....~{=]^.",
"...../(=_.",
".:<[..}=|.",
".1=23.4=5.",
".36=78=90.",
"..a@b$cd..",
"..........",
"..........",
"..........",
"..........",
".........."};
