/* XPM */
static char * digit_0_xpm[] = {
"10 20 155 2",
"  	c None",
". 	c #0C2C05",
"+ 	c #092902",
"@ 	c #092A00",
"# 	c #0A2A00",
"$ 	c #0E310A",
"% 	c #0E3507",
"& 	c #0E3506",
"* 	c #0A1C07",
"= 	c #061F03",
"- 	c #051F02",
"; 	c #071F02",
"> 	c #041E01",
", 	c #081E05",
"' 	c #031E00",
") 	c #061E05",
"! 	c #082105",
"~ 	c #091F03",
"{ 	c #0A1F03",
"] 	c #071E05",
"^ 	c #051E05",
"/ 	c #051F01",
"( 	c #072002",
"_ 	c #0B1E07",
": 	c #051C06",
"< 	c #1E3D16",
"[ 	c #517D28",
"} 	c #709324",
"| 	c #779822",
"1 	c #456315",
"2 	c #0A2102",
"3 	c #081F06",
"4 	c #0A1F02",
"5 	c #082007",
"6 	c #1A3C15",
"7 	c #3C732C",
"8 	c #65972A",
"9 	c #88AD29",
"0 	c #8DB129",
"a 	c #5B8B28",
"b 	c #164418",
"c 	c #051F03",
"d 	c #45721F",
"e 	c #61952C",
"f 	c #172E0A",
"g 	c #132608",
"h 	c #132508",
"i 	c #235D29",
"j 	c #256C31",
"k 	c #0C240A",
"l 	c #081F05",
"m 	c #0A1D09",
"n 	c #62851F",
"o 	c #88B12A",
"p 	c #172C06",
"q 	c #062007",
"r 	c #071F03",
"s 	c #406E23",
"t 	c #55892C",
"u 	c #11260A",
"v 	c #0A1F0A",
"w 	c #6D8C1C",
"x 	c #96BB2A",
"y 	c #182B08",
"z 	c #071F06",
"A 	c #081E02",
"B 	c #698C1E",
"C 	c #86AD29",
"D 	c #12280A",
"E 	c #0A2004",
"F 	c #445C13",
"G 	c #5B7B1A",
"H 	c #07290A",
"I 	c #052710",
"J 	c #06240B",
"K 	c #456516",
"L 	c #547116",
"M 	c #0D2106",
"N 	c #081F07",
"O 	c #193C12",
"P 	c #214E1C",
"Q 	c #04290D",
"R 	c #032911",
"S 	c #062813",
"T 	c #194316",
"U 	c #1F4617",
"V 	c #082004",
"W 	c #081F01",
"X 	c #091E04",
"Y 	c #416F20",
"Z 	c #5C9230",
"` 	c #10290A",
" .	c #082107",
"..	c #091D07",
"+.	c #417024",
"@.	c #56882C",
"#.	c #112609",
"$.	c #081D02",
"%.	c #091F07",
"&.	c #5F831D",
"*.	c #85AF2D",
"=.	c #182C0E",
"-.	c #061B06",
";.	c #628722",
">.	c #7DA72B",
",.	c #14280A",
"'.	c #0A1D02",
").	c #0B1D09",
"!.	c #6B8D1C",
"~.	c #97BB27",
"{.	c #1C2C0F",
"].	c #0A1D06",
"^.	c #091909",
"/.	c #6F8F1E",
"(.	c #8EB329",
"_.	c #142B0C",
":.	c #081F04",
"<.	c #466016",
"[.	c #719929",
"}.	c #4D7623",
"|.	c #658520",
"1.	c #698920",
"2.	c #799E25",
"3.	c #5B7919",
"4.	c #0D2308",
"5.	c #0C1F04",
"6.	c #0A2106",
"7.	c #264E1B",
"8.	c #6A9C2C",
"9.	c #8EB725",
"0.	c #96BC28",
"a.	c #58791B",
"b.	c #0C2509",
"c.	c #091D0B",
"d.	c #061E07",
"e.	c #072109",
"f.	c #082206",
"g.	c #112805",
"h.	c #142B05",
"i.	c #152C06",
"j.	c #0C2307",
"k.	c #071F09",
"l.	c #082006",
"m.	c #061E03",
"n.	c #042000",
"o.	c #041F00",
"p.	c #052000",
"q.	c #042102",
"r.	c #112E06",
"s.	c #0D3103",
"t.	c #0E3103",
"u.	c #0D3104",
"v.	c #102903",
"w.	c #0F2A04",
"x.	c #0F2A06",
". + + + @ @ @ @ @ # ",
"$ % % % & & & % % & ",
"* = = = - - - ; ; > ",
", ; ' ) ! ~ { ] ^ / ",
"( _ : < [ } | 1 2 3 ",
"4 5 6 7 8 9 0 a b 3 ",
"c = d e f g h i j k ",
"l m n o p q r s t u ",
"] v w x y z A B C D ",
"E ) F G H I J K L M ",
"4 N O P Q R S T U V ",
"W X Y Z `  ...+.@.#.",
"$.%.&.*.=. .-.;.>.,.",
"'.).!.~.{.].^./.(._.",
":.].<.[.}.|.1.2.3.4.",
"5.l 6.7.8.9.0.a.b.c.",
"d.e.z f.g.h.i.j.k.l.",
"m.n.n.n.o.o.o.p.n.q.",
"r.s.t.s.u.u.u.t.t.s.",
"v.w.w.w.x.x.x.w.w.w."};
