/* XPM */
static char * digit_2_xpm[] = {
"10 20 44 1",
" 	c None",
".	c #FFFFFF",
"+	c #BDAADE",
"@	c #5F2FAF",
"#	c #4108A0",
"$	c #5A29AC",
"%	c #B099D7",
"&	c #FEFEFE",
"*	c #C3B1E1",
"=	c #3B009D",
"-	c #3E059E",
";	c #693DB4",
">	c #4710A3",
",	c #AC94D5",
"'	c #6D42B6",
")	c #BFACDF",
"!	c #E6DFF2",
"~	c #3D039E",
"{	c #5826AB",
"]	c #9B7ECD",
"^	c #8A67C4",
"/	c #F9F8FC",
"(	c #FCFCFD",
"_	c #460FA2",
":	c #440DA1",
"<	c #9F83CF",
"[	c #7A53BC",
"}	c #FDFDFE",
"|	c #9778CB",
"1	c #4E1AA6",
"2	c #E7E1F3",
"3	c #F7F5FB",
"4	c #7B54BD",
"5	c #5C2CAD",
"6	c #E7E0F3",
"7	c #EDE8F6",
"8	c #6436B1",
"9	c #744BB9",
"0	c #F4F1F9",
"a	c #6132B0",
"b	c #3B019D",
"c	c #693CB4",
"d	c #6B3FB5",
"e	c #521FA8",
"..........",
"..........",
"..........",
"..........",
"..........",
"..+@#$%&..",
".*=-;>=,..",
".'=).!~{..",
".]^/.(_:..",
".....<=[..",
"...}|=12..",
"..34=56...",
".78=90....",
".a=bcddd..",
".e======..",
"..........",
"..........",
"..........",
"..........",
".........."};
