/* XPM */
static char * digit_9_xpm[] = {
"10 20 171 2",
"  	c None",
". 	c #0A2A02",
"+ 	c #092902",
"@ 	c #0A2900",
"# 	c #0B2900",
"$ 	c #0A2A00",
"% 	c #0C2C02",
"& 	c #0F3407",
"* 	c #0E3507",
"= 	c #103406",
"- 	c #061D03",
"; 	c #061F04",
"> 	c #061F02",
", 	c #061E02",
"' 	c #071F02",
") 	c #071E03",
"! 	c #041E03",
"~ 	c #071F01",
"{ 	c #042001",
"] 	c #071D03",
"^ 	c #081F05",
"/ 	c #0C1F04",
"( 	c #0D1F04",
"_ 	c #061C06",
": 	c #071F07",
"< 	c #071D04",
"[ 	c #082005",
"} 	c #062003",
"| 	c #051D06",
"1 	c #183B12",
"2 	c #507E24",
"3 	c #6E9424",
"4 	c #76991E",
"5 	c #466317",
"6 	c #0D2107",
"7 	c #091E07",
"8 	c #041E05",
"9 	c #173811",
"0 	c #386E26",
"a 	c #65952D",
"b 	c #89AD24",
"c 	c #8FB320",
"d 	c #5C8B26",
"e 	c #1A451C",
"f 	c #082107",
"g 	c #051E06",
"h 	c #071F04",
"i 	c #3F6A26",
"j 	c #619431",
"k 	c #182F0C",
"l 	c #122909",
"m 	c #11250A",
"n 	c #205C28",
"o 	c #266D31",
"p 	c #092308",
"q 	c #051D03",
"r 	c #597B1D",
"s 	c #87B02A",
"t 	c #162D0A",
"u 	c #091F07",
"v 	c #091C05",
"w 	c #3E7024",
"x 	c #568B2E",
"y 	c #112606",
"z 	c #061D06",
"A 	c #68841D",
"B 	c #95BB2B",
"C 	c #182D09",
"D 	c #081E09",
"E 	c #0C1C0A",
"F 	c #668820",
"G 	c #89AE2B",
"H 	c #162808",
"I 	c #041D06",
"J 	c #435912",
"K 	c #6A9325",
"L 	c #517C26",
"M 	c #6A8D25",
"N 	c #6E901C",
"O 	c #7B9E20",
"P 	c #57731E",
"Q 	c #0D1F06",
"R 	c #072001",
"S 	c #09210A",
"T 	c #214B1A",
"U 	c #629229",
"V 	c #86AA27",
"W 	c #8CB025",
"X 	c #679227",
"Y 	c #204917",
"Z 	c #091F06",
"` 	c #052001",
" .	c #02260E",
"..	c #042812",
"+.	c #102A05",
"@.	c #152D08",
"#.	c #182A09",
"$.	c #477425",
"%.	c #548A2C",
"&.	c #0D2607",
"*.	c #031E00",
"=.	c #082002",
"-.	c #04260F",
";.	c #032913",
">.	c #062005",
",.	c #061A06",
"'.	c #608621",
").	c #82A82A",
"!.	c #112808",
"~.	c #061F00",
"{.	c #092002",
"].	c #05250E",
"^.	c #04270F",
"/.	c #081C03",
"(.	c #091D04",
"_.	c #071B07",
":.	c #6D8E21",
"<.	c #8FB324",
"[.	c #142907",
"}.	c #052208",
"|.	c #173E15",
"1.	c #477220",
"2.	c #648520",
"3.	c #68891E",
"4.	c #7A9E23",
"5.	c #5E7A1B",
"6.	c #0C2107",
"7.	c #051E00",
"8.	c #051F00",
"9.	c #051F01",
"0.	c #234716",
"a.	c #6A9A2D",
"b.	c #8FB627",
"c.	c #97BC2C",
"d.	c #5D7E1E",
"e.	c #0D2308",
"f.	c #0F240C",
"g.	c #051E01",
"h.	c #072104",
"i.	c #122906",
"j.	c #152B04",
"k.	c #132A07",
"l.	c #0B2208",
"m.	c #091E04",
"n.	c #081F07",
"o.	c #2B3A29",
"p.	c #122A10",
"q.	c #031F02",
"r.	c #042003",
"s.	c #041F00",
"t.	c #022000",
"u.	c #032000",
"v.	c #1E3A14",
"w.	c #2D4826",
"x.	c #193712",
"y.	c #0F3104",
"z.	c #0E3103",
"A.	c #0C3103",
"B.	c #0D3202",
"C.	c #0D3103",
"D.	c #0D3004",
"E.	c #0C2704",
"F.	c #182E10",
"G.	c #31462B",
"H.	c #1C3913",
"I.	c #0B2A02",
"J.	c #0D2C05",
"K.	c #0D2A03",
"L.	c #0F2A04",
"M.	c #0E2803",
"N.	c #0C2803",
". + + @ # # $ $ $ % ",
"& * * = = = * * * * ",
"- ; ; > , , ' > , ) ",
"! ~ { ] ^ / ( _ : < ",
"[ } | 1 2 3 4 5 6 7 ",
": 8 9 0 a b c d e f ",
"g h i j k l m n o p ",
"q - r s t u v w x y ",
"g z A B C D E F G H ",
"I q J K L M N O P Q ",
"> R S T U V W X Y Z ",
"~ `  ...+.@.#.$.%.&.",
"*.=.-.;.>.u ,.'.).!.",
"~.{.].^./.(._.:.<.[.",
"R R }.|.1.2.3.4.5.6.",
"7.8.9.0.a.b.c.d.e.u ",
"f.g.~ h.i.j.k.l.m.n.",
"o.p.q.r.` s.t.u.u.t.",
"v.w.x.y.z.A.B.z.C.D.",
"E.F.G.H.I.J.K.L.M.N."};
