/* XPM */
static char * digit_8_xpm[] = {
"10 20 45 1",
" 	c None",
".	c #FFFFFF",
"+	c #EEE9F6",
"@	c #805BBF",
"#	c #4811A3",
"$	c #4B16A5",
"%	c #8865C3",
"&	c #F5F2FA",
"*	c #7248B8",
"=	c #3B009D",
"-	c #5928AC",
";	c #5320A9",
">	c #8764C3",
",	c #4109A0",
"'	c #3E059E",
")	c #F3F0F9",
"!	c #DED5EE",
"~	c #5B2AAD",
"{	c #8F6EC7",
"]	c #440CA1",
"^	c #40079F",
"/	c #805ABF",
"(	c #EDE8F6",
"_	c #6436B1",
":	c #4E1AA6",
"<	c #E1D8F0",
"[	c #8561C2",
"}	c #835EC1",
"|	c #EBE5F5",
"1	c #845FC1",
"2	c #7C55BD",
"3	c #5C2BAD",
"4	c #F1EEF8",
"5	c #F1EDF8",
"6	c #7A53BC",
"7	c #BAA6DC",
"8	c #B59FDA",
"9	c #DACFEC",
"0	c #6537B2",
"a	c #6132B0",
"b	c #4108A0",
"c	c #DCD2ED",
"d	c #7349B9",
"e	c #4812A3",
"f	c #774FBB",
"..........",
"..........",
"..........",
"..........",
"..........",
"..+@#$%&..",
"..*=-;=>..",
"..,')!=~..",
"..{=]^=/..",
".(_====:<.",
".[=}|(1=2.",
".3=4..5=3.",
".6=7..8=2.",
".9^=0a=bc.",
"..9de$fc..",
"..........",
"..........",
"..........",
"..........",
".........."};
