/* XPM */
static char *new_digit__[] = {
/* columns rows colors chars-per-pixel */
"15 20 235 2",
"   c #05DE133F03AC",
".  c #0563181202EC",
"X  c #02A91F3F0124",
"o  c #04811F890043",
"O  c #049E1F91003E",
"+  c #04661ED500BA",
"@  c #066F1F480186",
"#  c #06E91F4A0266",
"$  c #05901B8C049E",
"%  c #07721CEA0431",
"&  c #056C1F58052E",
"*  c #063A1E330456",
"=  c #07101E330439",
"-  c #071D1F1A0456",
";  c #06D21E620559",
":  c #07301F300536",
">  c #03C81C1E05DF",
",  c #07701CA1066A",
"<  c #060F1EFD0606",
"1  c #06051F0B0730",
"2  c #08301F440160",
"3  c #09C51D4702DC",
"4  c #092A1F23024F",
"5  c #08CC1B5C0552",
"6  c #07951E9203E2",
"7  c #09601DFC0444",
"8  c #09451ECC0464",
"9  c #0A881DE80387",
"0  c #0A381EEC040D",
"q  c #09EB1DED0518",
"w  c #07E01D760634",
"e  c #07ED1F660602",
"r  c #09211F2206D7",
"t  c #09B81D9F0669",
"y  c #09EF1E0806B3",
"u  c #0BDF1F0B03E7",
"i  c #05F00FAC0829",
"p  c #0B3911AB0AE7",
"a  c #062F1D910821",
"s  c #06861E840848",
"d  c #088717F40885",
"f  c #08521C7608CE",
"g  c #0A831BEC07A5",
"h  c #07F91F5F07C2",
"j  c #0B221E5A08BA",
"k  c #0AE81EFB08A8",
"l  c #083B1DCE09E6",
"z  c #09F91E1F0A19",
"x  c #0AC71E170A82",
"c  c #0B461EAA0B3C",
"v  c #0BD21DA30903",
"b  c #0C741F8C094D",
"n  c #07DB1CC30BC0",
"m  c #0BEB1ED40BCA",
"M  c #0C511EBF0D52",
"N  c #03A520600063",
"B  c #04F71FBE0040",
"V  c #041120500088",
"C  c #041C20CC0097",
"Z  c #054A214B0367",
"A  c #066F206A0275",
"S  c #070320700327",
"D  c #0584207103D9",
"F  c #05161FD904CA",
"G  c #07111FD203FA",
"H  c #065A20940585",
"J  c #0516220403C3",
"K  c #0805200802DC",
"L  c #0BB426310067",
"P  c #07CE1FBD0443",
"I  c #07AA207304E7",
"U  c #07C820910607",
"Y  c #079E20D2059D",
"T  c #09872185060F",
"R  c #092D1FA40773",
"E  c #082022050667",
"W  c #0BA81FB10644",
"Q  c #0C7D23AF06E2",
"!  c #09E22A46002C",
"~  c #0A602A2D0097",
"^  c #09DD29BF0253",
"/  c #0CE127CA0318",
"(  c #093D2CB102DB",
")  c #097C2F5301DC",
"_  c #0A6A2F8A01C1",
"`  c #0CDB2EF60002",
"'  c #0D872F2D012E",
"]  c #0BA42FA301E5",
"[  c #0D7A2F1A01EF",
"{  c #0DD82F410265",
"}  c #0E122B6004F0",
"|  c #0BE82B0105B4",
" . c #0CFD2B360762",
".. c #0B192D5103B8",
"X. c #09B52CD504C4",
"o. c #09FF2E360469",
"O. c #0B592DC80425",
"+. c #0B7A2E0804A5",
"@. c #0A902C4C0656",
"#. c #0B902D2C044A",
"$. c #0D7C2ED10402",
"%. c #0BB52E010538",
"&. c #0E042F260534",
"*. c #0CA02CC6063A",
"=. c #0D972F020593",
"-. c #0E102DFE06C7",
";. c #05B820C207DA",
":. c #064E20A508E9",
">. c #037C24EE0C45",
",. c #07F82133081F",
"<. c #095A1FDA0893",
"1. c #0A0E1FAD087F",
"2. c #09EB1FF10998",
"3. c #0A53278A0B60",
"4. c #0E9524CF08AC",
"5. c #0F19263607B7",
"6. c #0D4728490836",
"7. c #0D312BCE0848",
"8. c #0D552F5E094B",
"9. c #09F529640F14",
"0. c #0E622A2D0BDC",
"q. c #105927830611",
"w. c #0FF62A45045A",
"e. c #0FEC2A670489",
"r. c #120A282D0736",
"t. c #0FF62AAA06FA",
"y. c #0FEB2ABD06EE",
"u. c #169E2A1F0504",
"i. c #171C2B7605C9",
"p. c #16462C550506",
"a. c #155B2C15064B",
"s. c #103126260AAC",
"d. c #161527340A88",
"f. c #11F22D640A66",
"g. c #159F2DD407ED",
"h. c #1A7E2F190B12",
"j. c #0684317F00E8",
"k. c #0B862FEB017D",
"l. c #0BD32FEB017A",
"z. c #0BA130900335",
"x. c #0CF53125030C",
"c. c #0DD4317B034C",
"v. c #0F8834AA0217",
"b. c #0ECC352302D7",
"n. c #0F8D363C0218",
"m. c #0A1431240397",
"M. c #0A88302B0621",
"N. c #0ABF30F005B2",
"B. c #0CAE30DF04FB",
"V. c #0E012FF10393",
"C. c #0DA8314C0406",
"Z. c #0DA73151049A",
"A. c #0C4632E40552",
"S. c #0D9B33610506",
"D. c #0C50336605EF",
"F. c #0EC5358406C7",
"G. c #0A3B304008B5",
"H. c #0F5D31020900",
"J. c #0ED6358408DA",
"K. c #1001364E0229",
"L. c #0FF436E601F3",
"P. c #106B36C6030A",
"I. c #106C36630552",
"U. c #10BF36890558",
"Y. c #108234F506EF",
"T. c #109636A70592",
"R. c #0FE9360707FA",
"E. c #105C368F08EB",
"W. c #1E0237080D4D",
"Q. c #10DA3AE007A0",
"!. c #124A3B1E0968",
"~. c #06E3251F0FD6",
"^. c #034F294010B7",
"/. c #03AB29AD1208",
"(. c #0640295513BC",
"). c #156D355412A8",
"_. c #17F635E90FE4",
"`. c #18413731100B",
"'. c #1EA333F711DD",
"]. c #1E66378A13EE",
"[. c #20CE344509D8",
"{. c #236334F41499",
"}. c #1FAD38DA1180",
"|. c #128740ED0626",
" X c #1172429807F8",
".X c #3707503F0F62",
"XX c #217644D21589",
"oX c #253F4E9F1ADA",
"OX c #3B6B54C31166",
"+X c #399D60D51ED0",
"@X c #398860F71F1A",
"#X c #37CD6D92262F",
"$X c #34AD6DD72991",
"%X c #4754696E1BFE",
"&X c #4D156B891869",
"*X c #5108709A1CB5",
"=X c #509D701B1E27",
"-X c #5AAA77241CD1",
";X c #5EC179221CE8",
":X c #5C847F581E32",
">X c #43CE6A64218B",
",X c #4C9376A5237A",
"<X c #4FC07B87212C",
"1X c #4B5C78AC2591",
"2X c #58C17A341FBE",
"3X c #62D684641967",
"4X c #665D81861CC8",
"5X c #64D2819D1E3C",
"6X c #5BBC911D310A",
"7X c #624384202102",
"8X c #66798B67217D",
"9X c #6CA089631FD6",
"0X c #6054910C26EA",
"qX c #6CB792F9226E",
"wX c #6B6B95082315",
"eX c #6DDE9684248B",
"rX c #61A592F02979",
"tX c #658398332CD0",
"yX c #7003930E2078",
"uX c #75BB9A1F2331",
"iX c #72569A922506",
"pX c #797D9B7620B6",
"aX c #608698CA304A",
"sX c #649B9B223137",
"dX c #8474AA502373",
"fX c #87CDADC52662",
"gX c #8D79AF192490",
"hX c #8F58B3C4230F",
"jX c #8C4CB7942B7C",
"kX c #8835B3102DCF",
"lX c #8ED0B7FE2CAF",
"zX c #8C7BB6F82ED9",
"xX c #9591BBFA28E9",
"cX c #9775BED12A80",
"vX c #9CC2C2F32C6B",
/* pixels */
"i 6.#.! ! ! ^ ^ ^ ! ! ~ (  .p ",
"7. XA.F.F.F.E.E.E.R.F.R.H.!.o.",
"8.J.w # # # - - - # @ K $ @.m.",
"=.Y.G 2 Z e q u 0 q y & t *.B.",
"` L.I T 3 `.1XqXuX&X4.:.x O.) ",
"` L.4 P ).$XrXfXhX:X0.Y x #.) ",
"[ P.h k @XsX].d.r.3.^.H j O._ ",
"&.U.2.l *XjXW.R 1.~./.J m ..l.",
"&.T.r n ;XvX[., < >.(.E b ..l.",
"&.I.W a .XeX<X8XyX%X9.1 M ..l.",
"$.b.7 : _.#X0XdXgXwXoXU c ..l.",
"$.b.= r +XaX}.p.u.>X6Xy.j ..l.",
"$.b.* f =XzX'.s > 2XkXg.v ..k.",
"[ n.6 5 -XvX{.g d 5XcXh.* O.M.",
"' K.+ % OXiX,X7X9XpX4Xs.;.+.G.",
"{ K.: ,.<.XXtXlXxX3X5.z A %.G.",
"-.v.8 G K S q.i.a.Q ; F D o.N.",
"] S.9 C C V B O o N C N X X.j.",
"f.|.V.c.c.C.Z.Z.Z.x.c.x.z.Q.D.",
"  L / w.w.w.t.y.y.w.w.e.} | . "
};
