/* XPM */
static char *new_digit__[] = {
/* columns rows colors chars-per-pixel */
"15 20 242 2",
"   c #06361605031B",
".  c #06CB123503DF",
"X  c #090B157304D7",
"o  c #03501EB400CD",
"O  c #04A31F920048",
"+  c #04251E63019E",
"@  c #053A1F66024A",
"#  c #072C1F77022B",
"$  c #06621F38034B",
"%  c #06ED1EAC0357",
"&  c #06B21B840661",
"*  c #02B31F6503AD",
"=  c #028B1F31064D",
"-  c #050D1F840513",
";  c #060E1F5E0439",
":  c #06BE1F3E03F5",
">  c #06841E750518",
",  c #07071E050501",
"<  c #05B01CDD06FD",
"1  c #05A01E0C0598",
"2  c #05A71EF005A7",
"3  c #06A31EB805D9",
"4  c #06D01EED0708",
"5  c #08AE1D800213",
"6  c #083A1F5801B2",
"7  c #08841E0402B3",
"8  c #0ABE1DF4024B",
"9  c #0AF91F84020A",
"0  c #0A631F8E0287",
"q  c #082C1E05056D",
"w  c #087F1F6A04B4",
"e  c #09C31E3A044C",
"r  c #0A7B1F6C039A",
"t  c #094B1D060738",
"y  c #09C51BF405FD",
"u  c #0A0D1C0C0706",
"i  c #0A311D10068D",
"p  c #08A71F1A0664",
"a  c #08531F4D06AC",
"s  c #08AF1F9A0711",
"d  c #0A5D1DE806CE",
"f  c #0C551F3D0472",
"g  c #0A11110208E3",
"h  c #07311F4A094F",
"j  c #09741981094A",
"k  c #0A061D6E0955",
"l  c #0B851EBE07C9",
"z  c #0B131DEB0941",
"x  c #090C1DA00BAE",
"c  c #019E211900DB",
"v  c #0354200B0215",
"b  c #02D021BD02F8",
"n  c #040F20440080",
"m  c #04CA1FB00044",
"M  c #0425203F00A2",
"N  c #054720EB0086",
"B  c #040A21140215",
"V  c #05471FFF035B",
"C  c #05B51FAB01CE",
"Z  c #077C1FB6024D",
"A  c #077E1FE402BE",
"S  c #074320E902E8",
"D  c #02C22053039A",
"F  c #021D20470490",
"G  c #0327200F0621",
"H  c #04A8202E04ED",
"J  c #040E211A053B",
"K  c #058820ED0386",
"L  c #092F1FA00315",
"P  c #0A9821C002A0",
"I  c #07C01FA90387",
"U  c #08E42057046E",
"Y  c #08091FF00561",
"T  c #08FD2108051F",
"R  c #0A382033047B",
"E  c #083A20910667",
"W  c #07CE1FCB06BF",
"Q  c #09051FB00743",
"!  c #0835211C0747",
"~  c #0AD2214E0685",
"^  c #0844220C0620",
"/  c #0D9A214706EB",
"(  c #09E12A590004",
")  c #0A4C2AAC00A0",
"_  c #09E529C1023C",
"`  c #0DAB2A2B02B7",
"'  c #0C972DA40005",
"]  c #0C392DA50095",
"[  c #0C932E790007",
"{  c #0BA92DBA017E",
"}  c #0B8F2DA801A8",
"|  c #0D1C2D5F0374",
" . c #0CB52E8401A5",
".. c #0DAA2E940342",
"X. c #0E402F400345",
"o. c #0CFF2A910561",
"O. c #0C682B7304F0",
"+. c #0DF029DD03C3",
"@. c #0B882FA70535",
"#. c #0D492D4703CC",
"$. c #0EA22C920464",
"%. c #0DA12D08044B",
"&. c #0DC02D0C04CE",
"*. c #0D592EB70452",
"=. c #0BB12DAF055B",
"-. c #0CB12C500597",
";. c #0D3E2BF40705",
":. c #0E792CE70618",
">. c #0EE52CF205EE",
",. c #0E4E2D5A06A6",
"<. c #0BFA2DC305E6",
"1. c #0E702F930773",
"2. c #067720C1079C",
"3. c #066B245C0B30",
"4. c #0880206E07BF",
"5. c #07EC21230931",
"6. c #0A6C1FA70A65",
"7. c #0DCF23010880",
"8. c #0C0723BB07B1",
"9. c #0CE22596096D",
"0. c #0C7D24250A28",
"q. c #04B829BB0DF0",
"w. c #07EB29EC0A24",
"e. c #0C152BDB07E5",
"r. c #0E5E2DCD0972",
"t. c #10C4293403A8",
"y. c #0FD12A3F044C",
"u. c #11582872059C",
"i. c #0FF62AAF06E3",
"p. c #114A2E5406EE",
"a. c #14E52BF8053C",
"s. c #15B42CA4064E",
"d. c #175C2C3906E2",
"f. c #1113261E0912",
"g. c #138625DA0813",
"h. c #1303265908E7",
"j. c #116A26F30A86",
"k. c #10F629980ACC",
"l. c #127F280D0AB6",
"z. c #14FF28900A58",
"x. c #14ED2BCE0CD7",
"c. c #18162B9A087C",
"v. c #17E02E250AF9",
"b. c #18672C440E2B",
"n. c #1CAD2C6A0F32",
"m. c #094F31860138",
"M. c #0993318F012A",
"N. c #093831D40123",
"B. c #09C732090137",
"V. c #09AE33620122",
"C. c #090730B90294",
"Z. c #0A8732900289",
"A. c #0BAE31A802CB",
"S. c #0DFA315F0351",
"D. c #0BDB3201029E",
"F. c #0D08325802CD",
"G. c #0BC3336602C9",
"H. c #0EA231D20345",
"J. c #0A1C341E0114",
"K. c #0AF5347502C5",
"L. c #0839313604A0",
"P. c #0B7C3372040A",
"I. c #0D64312E039B",
"U. c #0CC5317704B1",
"Y. c #0DA63152049A",
"T. c #0C05330A03C8",
"R. c #0E8A31E9038B",
"E. c #0E7C32500498",
"W. c #0C24317105F9",
"Q. c #0DB230C1060E",
"!. c #0E1A3531060B",
"~. c #0E77358E06ED",
"^. c #0EC1357C0710",
"/. c #0CCD30D109BE",
"(. c #0EC231240AF6",
"). c #0E4433D60828",
"_. c #11F830640738",
"`. c #110E3206074A",
"'. c #12983BD20743",
"]. c #11CD3DD405C9",
"[. c #10A33243081D",
"{. c #036B29DB1121",
"}. c #059227B310B3",
"|. c #06BC28BD13D1",
" X c #196C3CDE12E6",
".X c #1AFA3CFA15DD",
"XX c #1E7D3DDB16DC",
"oX c #119C40C0088A",
"OX c #13B73FCF0967",
"+X c #19CF43321653",
"@X c #166B447418F3",
"#X c #1FAE46B6176C",
"$X c #21034EAD1C52",
"%X c #26814E4F1BCE",
"&X c #23205D10291D",
"*X c #3C5573F52CB9",
"=X c #25B36C91319A",
"-X c #44355C5C13F4",
";X c #46986094167B",
":X c #454263EF1599",
">X c #457165561623",
",X c #45B8722C1F83",
"<X c #546F716016F5",
"1X c #5BC579221967",
"2X c #58F479771B8E",
"3X c #5BA87BCC1A61",
"4X c #412C6FD9205E",
"5X c #404A6EFA23A7",
"6X c #41B2704C24A3",
"7X c #4DBC7694233A",
"8X c #51AB7DF628D6",
"9X c #5F38834E1DB2",
"0X c #626D85301F51",
"qX c #6BC18D661C49",
"wX c #690B8C721EC9",
"eX c #6D5C8CC31C24",
"rX c #6FAE8F801EAB",
"tX c #550E899D2C70",
"yX c #567488972C8D",
"uX c #5B548B4A28F4",
"iX c #5C3A923730BD",
"pX c #629A872022D6",
"aX c #6583853A2040",
"sX c #692489AC209E",
"dX c #65E8972F2A19",
"fX c #61FA95892C9D",
"gX c #6AA29C092CED",
"hX c #70F393AB242F",
"jX c #77DB98AF22ED",
"kX c #79D79EFC2577",
"lX c #717E99E02962",
"zX c #7D83A7AD2BFE",
"xX c #86C6AD6829FC",
"cX c #85CEAF3F2D9E",
"vX c #8833ADEB298C",
"bX c #8E74B720259C",
"nX c #8807B1392A21",
"mX c #8D74B13A296D",
"MX c #8EE1B37229F8",
"NX c #9703BBED27DF",
"BX c #961FBBD82AA2",
"VX c #966ABC7F2806",
/* pixels */
". e.-._ _ _ ( ( ( ( ( ) =.o.g ",
"_.oX(.^.^.^.~.~.~.^.^.!.Q.'.;.",
"[./.u : : : @ @ @ Z # + y r.<.",
"E.W.q A o > T L r , 1 C ; ,.$.",
"D.N.S l < XX8XhXjX:XP p J | ' ",
"A.m.0 4..X*XdXvXmXuX@Xa c #.' ",
"F.B.V $ ,XfXv.h.g.&X=X0.b %.] ",
"F.M.Y k 0XnXd.2.I 5XtXj.K :.} ",
"F.M., 6.eXBXc.W 7 wXxXl.G :.} ",
"F.m.R 3 -X3Xw.}.3.>X<X/ F :.{ ",
"F.m.9 s  X$Xq.{.|.+X#XU D >.[ ",
"F.M.6 e 4XiXk.! t 6XyXf.= >.[ ",
"F.N.5 Q 9XcXb.! & pXzXz.2 >.[ ",
"G.V.8 z qXNXn.i j rXMXx.* &. .",
"G.J.w d ;XlX7XaXsXkX1X7.v %.X.",
"P.J.f Y ~ %XgXbXVX2X9.x - &...",
"`.T.4 5.W ^ u.a.s.8.h E H @.*.",
"K.Z.% n M n m O m N M B v L.C.",
").OXp.S.R.I.Y.Y.Y.R.H.S.U.].1.",
"X +.t.y.y.y.i.i.i.y.y.y.O.`   "
};
