/* XPM */
static char *new_digit__[] = {
/* columns rows colors chars-per-pixel */
"15 20 236 2",
"   c #066713CF05D7",
".  c #074B1EE7003D",
"X  c #05251F6A030C",
"o  c #06E51E3002CD",
"O  c #07131F9202F5",
"+  c #05BB1F4103B8",
"@  c #07311F7D0400",
"#  c #07201ECE0716",
"$  c #079A1EF30000",
"%  c #07F11DDC01C5",
"&  c #08761F93018E",
"*  c #09F71F96022D",
"=  c #09D31E3E0287",
"-  c #096D1D9703E4",
";  c #0B3A1C0B04F0",
":  c #08E91E530515",
">  c #0AF01E51046C",
",  c #0A151F5C04F4",
"<  c #0AFD1F8904CB",
"1  c #08881E320619",
"2  c #093C1DBD0651",
"3  c #08EE1F3E0627",
"4  c #08ED1E7A06CE",
"5  c #0C8A1F3906D3",
"6  c #08FC1389083D",
"7  c #07B815FE0974",
"8  c #0DFA116E0DEE",
"9  c #04A61CED07BA",
"0  c #06CE1C0B08FB",
"q  c #03981F6F07CB",
"w  c #05961EEF0825",
"e  c #073D1F0D0893",
"r  c #09371C64089D",
"t  c #07F91E5D0830",
"y  c #09001E6507F7",
"u  c #08AA1F2A07FC",
"i  c #0C1A1F9D0AB8",
"p  c #0BDC19390D6C",
"a  c #02892140006E",
"s  c #02512044008B",
"d  c #026F20F60095",
"f  c #030820B501B8",
"g  c #0577204300B4",
"h  c #03D821250116",
"j  c #058620B4007C",
"k  c #05A5205B010E",
"l  c #071320FC0123",
"z  c #06CB1FD001D8",
"x  c #07142127018A",
"c  c #06271FB00368",
"v  c #05BE20D402B2",
"b  c #073220EE02D0",
"n  c #0624204103A9",
"m  c #0743208D03DD",
"M  c #062E201604FD",
"N  c #0711201E04BC",
"B  c #073820B1056B",
"V  c #055B20380592",
"C  c #06D420A005B4",
"Z  c #076520180751",
"A  c #06E121F405D5",
"S  c #078022F406A0",
"D  c #071923DE077B",
"F  c #07E920CB003C",
"G  c #079F208800F8",
"H  c #08FA20AB00C4",
"J  c #0AE520E10098",
"K  c #07D4205801CD",
"L  c #0968205D0189",
"P  c #07A420AC0212",
"I  c #07EE20260327",
"U  c #092020E8033A",
"Y  c #09E7208801C6",
"T  c #08A120BB047A",
"R  c #07FB20200570",
"E  c #0A0D20450433",
"W  c #087522030463",
"Q  c #0D8E202E0688",
"!  c #0BBB21EF0754",
"~  c #0F7A2252064C",
"^  c #0C0F2948000E",
"/  c #0CE3298B0123",
"(  c #0F1E2A28007F",
")  c #0EB62AFB0119",
"_  c #0B042D640257",
"`  c #08EF2FAC0225",
"'  c #09182F7402B6",
"]  c #0A722E1B0272",
"[  c #0A6E2E1A028C",
"{  c #0AD02E2A02CA",
"}  c #0C4A2C0A0053",
"|  c #0C542C7B010B",
" . c #0C862CDF01BB",
".. c #0D6C2C9C02E7",
"X. c #0EFA2BBB02AC",
"o. c #0DA82CB50343",
"O. c #0C342DCD0251",
"+. c #0D0D2E7C0324",
"@. c #0DCE2F670241",
"#. c #0DFC292604A5",
"$. c #0C9B29EE05D9",
"%. c #0DEA2BA40716",
"&. c #0A4D2F390443",
"*. c #0B052F5E077B",
"=. c #0F212D790548",
"-. c #0D5B2F5E046F",
";. c #0D722F9D04FB",
":. c #0DBB2F6304AF",
">. c #0717218C0931",
",. c #0698205E0AD8",
"<. c #058E21770B58",
"1. c #072622930B2B",
"2. c #066F23E70893",
"3. c #067C27100A65",
"4. c #04FB266F0D5E",
"5. c #042925500F50",
"6. c #09CF20040798",
"7. c #0AA1215F08C4",
"8. c #09D6237D08B8",
"9. c #079A21770A2D",
"0. c #09E620B30A3B",
"q. c #0B5021F30A16",
"w. c #0BB4205209E4",
"e. c #0B5525140A22",
"r. c #0DEC240F0B77",
"t. c #081123760CA4",
"y. c #0837240E0D02",
"u. c #04B227C50A7F",
"i. c #048229450ED4",
"p. c #05AE280D0E69",
"a. c #0C872B1B0796",
"s. c #0E882EBE07C6",
"d. c #0E412E0D09DC",
"f. c #0789280A0D43",
"g. c #10B425F106FB",
"h. c #0F962A7F01E6",
"j. c #14F5287905EF",
"k. c #16F028000642",
"l. c #0FF02D97039C",
"z. c #15062DA9052D",
"x. c #10AA203E0ABC",
"c. c #12EA26850789",
"v. c #10FC24D10AC7",
"b. c #13812B73090D",
"n. c #1483286B0A58",
"m. c #126D2CA5085D",
"M. c #0FE42DBC07A8",
"N. c #13BE2D1E09EC",
"B. c #1D562D2C0B2B",
"V. c #0B6631840066",
"C. c #0B7B317D00A7",
"Z. c #0B2C325E0100",
"A. c #08833119033E",
"S. c #09563122032A",
"D. c #099330C90348",
"F. c #0BA130E2010B",
"G. c #0D9532E800B7",
"H. c #0F503382014B",
"J. c #0D76314A01FD",
"K. c #0C132FF50319",
"L. c #0CDB30330325",
"P. c #0F0D306702FA",
"I. c #0BA933690242",
"U. c #0E1C31F801FE",
"Y. c #0F41333501FB",
"T. c #091C304303B0",
"R. c #098A303D03FE",
"E. c #0B6A307D0408",
"W. c #0A7830D003B9",
"Q. c #09A830D805B1",
"!. c #0BD1301D03A2",
"~. c #0BB22FC304C2",
"^. c #0CC3309C0552",
"/. c #0ECD325B0443",
"(. c #0CC5319F066A",
"). c #09DE364A04D6",
"_. c #0E2E364A0521",
"`. c #0FBD3262014D",
"'. c #10BE338A01DD",
"]. c #0FB733640304",
"[. c #10E4332C02E3",
"{. c #0FDC347F0340",
"}. c #100C34CA033F",
"|. c #0F9E34BF03B2",
" X c #15483E430646",
".X c #0167276B103C",
"XX c #03E225730FEE",
"oX c #06EF25051283",
"OX c #025F27C410D8",
"+X c #038E284B10AA",
"@X c #0743282B1022",
"#X c #043D283911BB",
"$X c #046627EB1332",
"%X c #052D27F413B5",
"&X c #063A29051431",
"*X c #0955280D1111",
"=X c #10AB41950406",
"-X c #0F9C4064048E",
";X c #13DD41080864",
":X c #1BD5433E13B0",
">X c #1C4543FE17EE",
",X c #14734B291C96",
"<X c #328E4DE20FC7",
"1X c #2740508C1D20",
"2X c #28AE5A3E1EC9",
"3X c #3B4D5D991653",
"4X c #12F7432F20FF",
"5X c #1FA45D2629C2",
"6X c #2A0A704E325E",
"7X c #4BF565E41334",
"8X c #51EC6D3317FC",
"9X c #5CA27D8B1E83",
"0X c #46E66FA42307",
"qX c #474473FF2366",
"wX c #46BD72B624D0",
"eX c #64A4843D1D58",
"rX c #63F0887C1D61",
"tX c #5ACF858129BC",
"yX c #5A9388B3295D",
"uX c #5F348CAE29F4",
"iX c #5DE7918C28E1",
"pX c #5C8A9047325E",
"aX c #61C48AFA2100",
"sX c #6A0F8B09259E",
"dX c #7018904C20F1",
"fX c #78CB9CB12077",
"gX c #790C9B32255C",
"hX c #7B589E51282F",
"jX c #680D9ABF3016",
"kX c #7CDEA06B2421",
"lX c #80AEA3D026F1",
"zX c #82AFAA2E2CE8",
"xX c #8999AF4828D3",
"cX c #8A52B319290E",
"vX c #8FA9B2B12894",
"bX c #9622BA2F2980",
/* pixels */
"7 s.{ [ ] { { { { { { O.*.M.8 ",
"(.=XF.C.V.Z.Z.Z.Z.Z.Z.I.).-X%.",
"[.L.2 3 3 : : : 1 y y 4 z +.=.",
"G.D.,.1.t.9.>.>.A W R M f E._ ",
"`.!.- , < D p.3.@Xy.u > x P.| ",
"Y.` % 6.:X2X*Xu.oX4X,Xw.F P.} ",
"Y.' + # 0XjXb.b + 5X6Xe.F @.| ",
"H.R.9 r 9XcXz.C p wXiXg.j L.X.",
"H.S.V 6.eXbXB.~ x.sXxXn.s K.h.",
"H.A.q w <XaXyXfXlXkX7XQ d K.( ",
"H.W.M N <.>XtXgXhXuX1X7.h K.) ",
"Y.:.& P XX$Xq.r.i qXpXc.g &.o.",
"Y.-.. z 5.+XB N 0 rXzXk.k ~.o.",
"Y.;.I P 5..Xn l t dXvXj.v ^...",
"].Q.X G S %X&XOX4.3X8X! d K.} ",
"U.T.O H c 8.i.#Xf.2.0.e a K.} ",
"J.' o $ @ R m P I Z M u d K.} ",
"/.m.= J Y T E L K U * 5 ; d.l.",
"N. X{.}.}.}.{.{.{.{.|._.'.;X$.",
"6 v./ ^ ^ ^ ^ ^ ^ ^ ^ #. .a.  "
};
