/* XPM */
static char * digit_0_xpm[] = {
"10 20 33 1",
" 	c #FFFFFF",
".	c #FEFEFF",
"+	c #B7A1DB",
"@	c #5E2DAE",
"#	c #4209A0",
"$	c #5826AC",
"%	c #A489D2",
"&	c #FCFBFD",
"*	c #BEAADE",
"=	c #3B009D",
"-	c #6B3FB5",
";	c #4811A4",
">	c #A083CF",
",	c #6F44B7",
"'	c #CFC0E7",
")	c #E6DFF3",
"!	c #3D029E",
"~	c #5522AA",
"{	c #FDFCFE",
"]	c #511CA8",
"^	c #531FA9",
"/	c #501BA7",
"(	c #3C019D",
"_	c #CDBEE6",
":	c #E7E0F3",
"<	c #3D039E",
"[	c #BDA9DE",
"}	c #9D80CE",
"|	c #B59FDA",
"1	c #5B29AD",
"2	c #3E049F",
"3	c #4E19A7",
"4	c #997ACC",
"          ",
"          ",
"          ",
"          ",
"          ",
" .+@#$%&  ",
" *=#-;=>  ",
" ,=' )!~  ",
" ~={  ]=  ",
" ^=   ^=  ",
" ^=   ^=  ",
" ~=&  /(  ",
" -=_ :<]  ",
" [=#-;=}  ",
"  |1234&  ",
"          ",
"          ",
"          ",
"          ",
"          "};
