/* XPM */
static char * digit_3_xpm[] = {
"10 20 157 2",
"  	c None",
". 	c #0C2E03",
"+ 	c #0B2D02",
"@ 	c #0B2E02",
"# 	c #0A2E02",
"$ 	c #0A2D02",
"% 	c #0C3102",
"& 	c #0A3201",
"* 	c #0B3200",
"= 	c #0A3200",
"- 	c #093104",
"; 	c #0B3003",
"> 	c #0B3000",
", 	c #0D3002",
"' 	c #0B3203",
") 	c #0A3301",
"! 	c #0A1C06",
"~ 	c #091F07",
"{ 	c #071E04",
"] 	c #061E04",
"^ 	c #061E03",
"/ 	c #061E05",
"( 	c #061D07",
"_ 	c #0A1F07",
": 	c #072005",
"< 	c #082306",
"[ 	c #091E04",
"} 	c #051D06",
"| 	c #082205",
"1 	c #0D2104",
"2 	c #122207",
"3 	c #0F1E09",
"4 	c #0A1D04",
"5 	c #072001",
"6 	c #081D05",
"7 	c #0A2006",
"8 	c #081D01",
"9 	c #1B4211",
"0 	c #5A8927",
"a 	c #7DA424",
"b 	c #85AA26",
"c 	c #55751D",
"d 	c #0B2306",
"e 	c #091E08",
"f 	c #082004",
"g 	c #062208",
"h 	c #1C4118",
"i 	c #547F24",
"j 	c #719423",
"k 	c #78971D",
"l 	c #538422",
"m 	c #1B4C1E",
"n 	c #052308",
"o 	c #06260B",
"p 	c #072812",
"q 	c #062008",
"r 	c #0C1D05",
"s 	c #0D1C08",
"t 	c #1F5A28",
"u 	c #2E7131",
"v 	c #092508",
"w 	c #092007",
"x 	c #04260F",
"y 	c #072912",
"z 	c #082007",
"A 	c #081F04",
"B 	c #081A08",
"C 	c #437024",
"D 	c #60932F",
"E 	c #0E2809",
"F 	c #06250B",
"G 	c #062914",
"H 	c #0A2307",
"I 	c #102005",
"J 	c #0E1E09",
"K 	c #67891E",
"L 	c #8BAF26",
"M 	c #152A09",
"N 	c #051F06",
"O 	c #1D4418",
"P 	c #558526",
"Q 	c #769B21",
"R 	c #7F9F23",
"S 	c #7DA021",
"T 	c #496719",
"U 	c #0C2106",
"V 	c #091F04",
"W 	c #062106",
"X 	c #1C4519",
"Y 	c #598525",
"Z 	c #789B22",
"` 	c #7E9F23",
" .	c #608E27",
"..	c #265119",
"+.	c #072106",
"@.	c #072006",
"#.	c #032408",
"$.	c #032813",
"%.	c #092209",
"&.	c #0E2309",
"*.	c #0E2107",
"=.	c #477325",
"-.	c #609232",
";.	c #0E2907",
">.	c #03250C",
",.	c #012913",
"'.	c #052102",
").	c #051F02",
"!.	c #051B03",
"~.	c #62861F",
"{.	c #82AB2F",
"].	c #152C06",
"^.	c #06250D",
"/.	c #052814",
"(.	c #082206",
"_.	c #0C200A",
":.	c #0B1D09",
"<.	c #6E8E1C",
"[.	c #8FB32A",
"}.	c #182B09",
"|.	c #0B2105",
"1.	c #072208",
"2.	c #19431A",
"3.	c #548326",
"4.	c #749C24",
"5.	c #7CA125",
"6.	c #80A424",
"7.	c #536F1D",
"8.	c #0B230A",
"9.	c #183E11",
"0.	c #5B8527",
"a.	c #7C9E26",
"b.	c #81A422",
"c.	c #4F6D17",
"d.	c #092103",
"e.	c #061F07",
"f.	c #0A2105",
"g.	c #0B1E05",
"h.	c #0A2007",
"i.	c #0D2009",
"j.	c #0F200A",
"k.	c #0A1F05",
"l.	c #061F04",
"m.	c #062003",
"n.	c #061E02",
"o.	c #071F05",
"p.	c #082002",
"q.	c #072002",
"r.	c #0F3203",
"s.	c #0F3201",
"t.	c #0F3403",
"u.	c #103403",
"v.	c #0D2905",
"w.	c #0C2803",
"x.	c #0C2802",
"y.	c #0C2900",
"z.	c #0B2804",
". + @ @ # # # # $ $ ",
"% & * = - ; > , ' ) ",
"! ~ { { ] ^ / ( ~ _ ",
": < [ } | 1 2 3 4 5 ",
"6 7 8 9 0 a b c d e ",
"] f g h i j k l m n ",
"] f o p q r s t u v ",
"{ w x y z A B C D E ",
"A ~ F G H I J K L M ",
"A ~ N O P Q R S T U ",
"V w W X Y Z `  ...+.",
"V @.#.$.%.&.*.=.-.;.",
"V @.>.,.'.).!.~.{.].",
"V @.^./.(._.:.<.[.}.",
"A |.1.2.3.4.5.6.7.8.",
"A U / 9.0.a.b.c.d.e.",
"A f.@.g.h.i.j.k.l.m.",
"6 n.o.p.q.p.7 p.A { ",
"r.s.t.u.u.u.u.u.t.t.",
"v.w.x.y.y.y.y.y.x.z."};
